<svg xmlns="http://www.w3.org/2000/svg" viewBox="0 0 104 78" xmlns:v="https://vecta.io/nano"><path fill="#ff882a" d="M90 36.5L58.7 7.7c-2.2-2-5.9-.6-5.9 2.2v9.8c0 1.7-1.5 3.1-3.5 3.1H12.7c-1.9 0-3.5 1.4-3.5 3.1v25.4c0 1.7 1.5 3.1 3.5 3.1h36.6c1.9 0 3.5 1.4 3.5 3.1v9.8c0 2.8 3.8 4.2 5.9 2.2L90 40.8c1.3-1.2 1.3-3.1 0-4.3z"/><path fill="#fff" d="M68.7 10.1c5.6 4 11.1 8.2 16.6 12.4l16.2 12.8c1.1.9 1.3 2.4.4 3.5l-.2.2c-2.4 2.8-4.8 5.4-7.3 8.1L86.9 55c-5.1 5.2-10.4 10.2-16.1 14.8-2.9 2.3-5.8 4.6-9.3 6.5-.9.5-1.8.9-2.8 1.3s-2.1.8-3.5.9c-.8.1-1.4 0-2.1-.1a8.3 8.3 0 0 1-2.1-.6c-1.4-.6-2.5-1.7-3.2-2.8-1.5-2.2-1.9-4.4-2.1-6.4s-.2-4-.1-5.9c.3-3.8.9-7.5 1.8-11.1l2.5 2.9c-5.4.1-10.8.3-16.3.7-5.6.3-11.1.8-16.7.8-2.8-.1-5.6-.3-8.4-1-.3-.1-.7-.2-1-.3l-.5-.2c-.1 0-.2-.1-.4-.2-.1-.1-.2-.1-.3-.2-.8-.6-1.1-1.3-1.5-2-.7-1.3-1.1-2.7-1.5-4C1.8 42.7 1.1 37.2 1 31.6c0-2.8.1-5.7.8-8.6.3-1.4.8-2.9 1.5-4.3.3-.7.7-1.5 1.3-2.1.5-.7 1.2-1.3 1.9-1.8 1.4-1 2.9-1.7 4.4-2.2s3-.8 4.5-.9c2.9-.3 5.8-.3 8.6-.2 11.2.8 21.9 2.9 32.6 3.6l-1.8 3.4c-1.2-1.9-2.3-3.8-3.2-5.8s-1.8-4.1-2.1-6.6c0-.6 0-1.3.2-2.1.2-.7.7-1.6 1.4-2 .7-.5 1.4-.6 2.1-.6s1.2.1 1.8.2c2.3.5 4.2 1.5 6.1 2.5.1.1.2.3.1.4s-.2.2-.4.1c-1-.3-2-.6-3.1-.8-1-.2-2-.4-3-.4-.9 0-1.9.1-2.2.5-.2.2-.2.3-.2.6s0 .7.1 1.1c.4 1.7 1.4 3.5 2.4 5.2 1.1 1.7 2.2 3.4 3.5 5 .7.9.6 2.3-.3 3-.4.3-.8.5-1.3.5h-.2c-2.8 0-5.6-.1-8.3-.2l-8.3-.7c-5.5-.6-10.9-1.2-16.2-1.5-2.7-.2-5.3-.3-7.8-.2-2.5.2-4.9.6-6.7 1.7-1.7 1-2.9 3.1-3.7 5.5s-1.3 5-1.5 7.7c-.3 9.7-.8 25.5 13 22.2 2.7-.1 5.4-.4 8.1-.8l8.1-1.3c5.4-.9 10.9-1.7 16.4-2.1 1.3-.1 2.4.8 2.5 2.1v.9c-.5 3.4-.9 6.9-1 10.3 0 1.7.1 3.4.3 4.9s.7 3 1.3 3.7c.3.4.6.6.8.7.1.1.3.1.5.1h.6c.4 0 1-.3 1.7-.5.7-.3 1.4-.7 2.1-1.1 2.8-1.7 5.6-3.8 8.3-6 5.4-4.4 10.7-9.3 15.9-14.2s10.3-9.9 15.4-15l.2 3.7-7.6-7-7.5-7.1-14.7-14.5c-.1-.1-.1-.3 0-.4 0-.2.2-.2.3-.1z"/></svg>