<svg xmlns="http://www.w3.org/2000/svg" viewBox="0 0 131.9 34.43" xmlns:v="https://vecta.io/nano"><path d="M0 34.43a8 8 0 0 1 7.36-6.31 2.58 2.58 0 0 0 2.45-1.57 10 10 0 0 1 5.56-4.84 1.54 1.54 0 0 0 1.14-1.8c-.1-5.6 3.3-9.15 8.9-9.6a3.37 3.37 0 0 0 2-1.48C33.15.5 43.65-2.45 52.37 2.2 54.85 3.53 56.9 5.73 59 7.7a3 3 0 0 0 2.48 1.22 10.83 10.83 0 0 1 7.4 2.29 1.61 1.61 0 0 0 2.14.1 3.41 3.41 0 0 1 2.12-.63c2.1.36 3.92-.5 5.84-1a19.92 19.92 0 0 1 22.31 8.57 2.12 2.12 0 0 0 2.23 1.17 12 12 0 0 1 10.85 4.87 2.11 2.11 0 0 0 1.7.54 9.22 9.22 0 0 1 9.5 4 3.14 3.14 0 0 0 1.94 1 4.91 4.91 0 0 1 4.43 4.59z" fill="#fff" opacity=".45"/></svg>