<?xml version="1.0" encoding="utf-8"?>
<!-- Generator: Adobe Illustrator 22.1.0, SVG Export Plug-In . SVG Version: 6.00 Build 0)  -->
<svg version="1.0" xmlns="http://www.w3.org/2000/svg" xmlns:xlink="http://www.w3.org/1999/xlink" x="0px" y="0px"
	 viewBox="0 0 1280 800" enable-background="new 0 0 1280 800" xml:space="preserve">
<g id="Sky">
	<rect x="1" y="1" fill="#C5E5E5" width="1279" height="799.4"/>
</g>
<g id="Hill">
	<path fill="#87C469" d="M1280,68.9C1019.1,59.6,776.6,32,574.4,1H1v794.3h1279V68.9z"/>
</g>
<g id="Bush4">
	<path fill="#6AA84E" d="M447,40.3c-1,8.2-0.1,16.6-0.1,25.6c-20.5-7.4-39.1-5.8-56.1,6.3c-17.1,12.2-23.5,29.8-23.5,49.8
		c-32.8,7-49.7,24.6-48.3,50.1c169.5,0,339,0,508.5,0c2.3-22.6-16.5-44.1-41.6-47.1c-5.4-0.7-7.8-2.3-9.7-7.4
		c-8.4-22.9-24.4-38.9-48.2-44.4c-13-3-26.9-1.8-42.2-2.6c-9.8-23-27.7-37.4-55.1-39.6c-2.4-0.2-5.6-4.3-6.6-7.3
		c-2.7-8.2-6.3-15.7-10.8-22.6H461C453.7,12.4,448.7,25.7,447,40.3z"/>
	<g>
		<circle fill="#75B05A" cx="561.5" cy="34" r="29.2"/>
		<circle fill="#75B05A" cx="535.4" cy="44.4" r="18.8"/>
		<circle fill="#75B05A" cx="537.2" cy="22.9" r="13.9"/>
	</g>
	<g>
		<circle fill="#75B05A" cx="408.6" cy="85.2" r="13.9"/>
		<circle fill="#75B05A" cx="422.6" cy="85.2" r="9.9"/>
	</g>
</g>
<g id="Grass">
	<path fill="#70AB54" d="M906.7,1C625.9,114,394.1,196.3,1,134.9l3.7,665.4H1280V1H906.7z"/>
</g>
<g id="Shadow_grass2">
	<path fill="#6AA84E" d="M279.1,763.3c0,0,173.6-15.6,376.3-12.1c272.5,4.6,528.2,55.3,624.6-109.5v156.9H267.6L279.1,763.3z"/>
	<path fill="#6AA84E" d="M904.4,1c0,0-409.6,205.3-863.8,142.5C40.6,143.5,446.3,316.5,904.4,1z"/>
</g>
<g id="Light_grass3">
	<path fill="#75B05A" d="M946.4,1c0,0-186.2,77.9,333.6,69.7V1H946.4z"/>
</g>
<g id="Light_grass">
	<path fill="#77B35B" d="M1,190.8c0,0,175,57.8,360.2,61.5S478.5,480.2,2.8,462.9L1,190.8z"/>
</g>
<g id="Bush3">
	<path fill="#6AA84E" d="M1,157.3c57.5,0,115,0,172.7,0c0.1-14.3-5.5-25.7-14.9-35c-15.9-15.7-35.1-19-56.5-12.7
		C98,79.3,82,60.9,51.7,55.9c-2.3-0.4-5.1-4.4-5.6-7.1C41.8,27.6,30.9,11.1,15.3,1H1V157.3z"/>
	<path fill="#75B05A" d="M51.8,65.7c-2.3,0-4.5,0.2-6.7,0.7c-2.6-6.2-7.2-11.3-13-14.6c0.4-2.4,0.7-4.8,0.7-7.2
		C32.8,25.1,19.2,8.9,1,4.8v98.7c4.7,3,10.3,4.7,16.2,4.7c0.3,0,0.6,0,0.9,0c3.6,15.3,17.3,26.6,33.6,26.6
		c19.1,0,34.6-15.5,34.6-34.6C86.4,81.2,70.9,65.7,51.8,65.7z"/>
</g>
<g id="Shadow_grass">
	<path fill="#75B05A" d="M1280,330.8c-27.2,114.1-239.6,157.4-438.1,149.5C144.1,452.4,2.8,543.7,2.8,543.7l2.7,254.9H1280V330.8z"
		/>
</g>
<g id="Road">
	<path fill="#E0C757" d="M1280,444.9c-81.8,48.5-216.5,73.9-352.1,77.2c-185.2,4.6-611.2-14.7-923.7,44.5v221.8
		c0,0,173.3-107.8,918.9-73.1c134.8,6.3,256.2-8.4,356.9-49V444.9z"/>
	<g>
		<path fill="#938548" d="M3.7,789c5.8-3.7,11.9-6.7,18-9.5c3.1-1.5,6.2-2.7,9.3-4.1c3.1-1.3,6.3-2.5,9.4-3.8
			c6.3-2.4,12.7-4.8,19.1-6.9c6.4-2.2,12.9-4.2,19.3-6.3c25.9-7.8,52.3-14.3,78.8-19.8l19.9-4l5-1l5-0.9l10-1.7l10-1.7
			c3.3-0.6,6.7-1.1,10-1.6l20-3.2c6.7-1,13.4-1.9,20.1-2.8c6.7-0.9,13.4-1.9,20.1-2.6c13.4-1.6,26.8-3.2,40.3-4.5
			c107.6-11.2,215.8-12.6,323.6-11.8c27,0.1,53.9,0.7,80.9,1.1c6.7,0.1,13.5,0.3,20.2,0.5L763,705c13.5,0.4,27,0.7,40.4,1.3
			c26.9,1.1,53.9,2.1,80.8,3.5l40.4,2c13.4,0.7,26.8,1.2,40.2,1.5c13.4,0.3,26.8,0.3,40.3,0.1c13.4-0.2,26.8-0.6,40.2-1.2
			c26.8-1.3,53.6-3.5,80.3-6.8c26.7-3.3,53.2-7.7,79.4-13.6c26.2-5.9,52.1-13.3,76.9-23.7l0.7,1.6c-24.7,11-50.6,19.1-76.7,25.7
			c-26.2,6.5-52.8,11.5-79.5,15.4c-26.7,3.9-53.6,6.7-80.6,8.5c-13.5,0.9-27,1.6-40.5,2.1c-13.5,0.5-27,0.7-40.5,0.7
			c-13.5,0-27-0.3-40.6-0.7l-40.4-1.3l-20.2-0.7l-10.1-0.3l-10.1-0.2l-40.4-0.9c-13.4-0.4-26.9-0.5-40.4-0.7l-20.2-0.3
			c-6.7-0.1-13.4-0.2-20.2-0.2c-26.9-0.1-53.8-0.3-80.7,0.1c-26.9,0.1-53.8,0.9-80.7,1.4l-40.3,1.4l-10.1,0.4l-10.1,0.5l-20.1,1
			c-53.7,2.6-107.3,5.9-160.8,10.3c-26.8,2.1-53.4,4.9-80.1,7.8c-26.6,3.1-53.2,6.7-79.7,10.9l-19.8,3.4l-19.8,3.7
			c-6.6,1.2-13.1,2.7-19.7,4c-6.5,1.4-13.1,2.9-19.6,4.4c-13,3.1-26,6.5-38.8,10.4c-3.2,1-6.4,2-9.6,3c-3.2,1.1-6.4,2.1-9.5,3.3
			c-6.3,2.3-12.6,4.7-18.5,7.7L3.7,789z"/>
	</g>
	<g>
		<path fill="#938548" d="M1283.1,445.4c-11.4,7.2-23.4,13.5-35.7,19c-12.3,5.6-24.9,10.5-37.6,15c-25.5,8.9-51.6,16.1-77.9,22.1
			c-26.3,6-52.9,10.9-79.6,14.7c-13.4,2-26.8,3.6-40.2,5.1c-13.4,1.5-26.9,2.7-40.3,3.6c-13.5,0.9-27,1.7-40.5,2.1
			c-6.7,0.2-13.5,0.4-20.2,0.5l-20.2,0.4c-27,0.4-53.9,0.5-80.9,0.6c-53.9,0.1-107.8,0.1-161.6,0.5c-26.9,0.2-53.9,0.5-80.8,1
			c-26.9,0.5-53.8,1.2-80.7,1.9l-40.4,1.2l-40.3,1.5l-20.2,0.8l-20.2,0.9c-13.4,0.5-26.9,1.3-40.3,1.9c-6.7,0.3-13.4,0.7-20.1,1
			l-20.1,1.1l-20.1,1.3l-10.1,0.6l-10.1,0.7l-20.1,1.4c-6.7,0.5-13.4,1.1-20.1,1.6c-13.4,1-26.8,2.3-40.2,3.4
			c-6.7,0.6-13.4,1.3-20.1,2l-20.1,2l-20.1,2.2l-10,1.1l-10,1.3l-20,2.5l-20,2.8l-10,1.4l-10,1.5l-20,3L4.1,568l19.8-4.1l9.9-2
			l9.9-1.9l19.9-3.7l20-3.3l10-1.6l10-1.5l20-3c6.7-1,13.4-1.8,20.1-2.7c6.7-0.9,13.4-1.8,20.1-2.5c53.6-6.5,107.4-11.1,161.2-14.5
			c13.5-0.8,26.9-1.6,40.4-2.3l20.2-1l20.2-0.8c26.9-1.1,53.9-1.6,80.9-2.2c13.5-0.2,27-0.4,40.4-0.5c13.5-0.1,27-0.2,40.4-0.3
			c27-0.1,53.9-0.2,80.9,0c53.9,0.1,107.8,0.7,161.6,1.1c26.9,0.2,53.9,0.4,80.8,0.3c26.9-0.1,53.8-0.5,80.6-2.2
			c13.4-0.8,26.8-1.8,40.2-3.1c13.4-1.3,26.7-2.7,40.1-4.5c26.7-3.5,53.2-8,79.5-13.6c26.3-5.6,52.3-12.4,77.8-20.9
			c12.7-4.3,25.4-9,37.7-14.3c12.3-5.4,24.4-11.4,35.8-18.4L1283.1,445.4z"/>
	</g>
	<path fill="#EDD25C" d="M781.9,689.6c69.3,0,138.7,7.1,207.7,1s159.7-16.7,216.3-56.6c18.6-13.1,36.2-29.3,44.4-50.5
		c8.2-21.2,4.3-48.4-13.8-62c-22.5-16.9-54.3-7.3-81.1,1.3c-175.7,56.8-386.5,34.9-571,25.2S150.3,555,39.7,589
		c5.7,44.7,5.3,116.7,1.3,161.6C40.3,758.1,286.5,689.6,781.9,689.6z"/>
</g>
<g id="Bush1">
	<path fill="#5E9646" d="M1280,606.7c-17.9-15.4-41.4-23.6-66-21.5c-43.5,3.6-77.8,36.7-82.9,80.6c-1,8.2-0.1,16.6-0.1,25.6
		c-20.5-7.4-39.1-5.8-56.1,6.3c-17.1,12.2-23.5,29.8-23.5,49.8c-32.8,7-49.7,24.6-48.3,50.1c92.3,0,184.7,0,277,0V606.7z"/>
	<path fill="#70AB54" d="M1280,800.3V688.2c-13.4-24.1-39.4-38.7-67.3-36.4c-33.7,2.8-60.3,28.5-64.3,62.5
		c-0.7,6.3-0.1,12.8-0.1,19.9c-15.9-5.7-30.3-4.5-43.5,4.9c-13.2,9.4-18.2,23.1-18.3,38.6c-17.8,3.8-29.5,11.6-34.6,22.6H1280z"/>
</g>
<g id="Log">
	<g>
		<path fill="#383530" d="M923.8,465.9c0,0.1,0,0.3,0,0.4c0-0.1,0-0.2,0-0.3C923.8,466,923.8,466,923.8,465.9z"/>
		<path fill="#C9C8C8" d="M782.3,539.5c-4,5.7,7.9,10.6,18.4,13l0,0l-1.1,1.5c0,0-3.1,3.5-0.7,14.3c-14.4-3.7-19.4-6.8-20.8-12.1
			l-0.3-9.5C777.8,546.8,776.9,543.5,782.3,539.5z"/>
		<g>
			<path fill="#595651" d="M836,572.6l-0.3-0.4l-7.9-8.3c-3.1-3.3-7.2-5.3-12.6-6.3c-21.3-3.9-33-8.6-34.6-13.9
				c-0.2-0.7-0.2-1.2-0.1-1.8c0-0.1,0.1-0.3,0.2-0.4c0.2-0.5,0.6-0.9,1-1.3l0.7-0.6l0.2,0.3l-0.2,0.2c-0.5,0.5-1.6,1.7-1.1,3.5
				c0.8,2.8,6.4,8.2,34,13.3c5.5,1,9.8,3.2,13,6.5l8.9,9.3L836,572.6z"/>
		</g>
		<path fill="none" stroke="#595651" stroke-width="2.0773" stroke-miterlimit="10" d="M827.8,530.8c0.1,1.1,0.9,2,1.9,2.1
			c0.9,0.1,1.6-0.8,1.6-1.9c-0.1-1.1-0.9-2-1.9-2.1C828.4,528.9,827.7,529.8,827.8,530.8z"/>
		<path fill="none" stroke="#595651" stroke-width="2.0773" stroke-miterlimit="10" d="M816.4,534.1c0.1,1.1,0.9,2,1.9,2.1
			c1,0.1,1.7-0.8,1.6-1.9c-0.1-1.1-0.9-2-1.9-2.1C817,532.2,816.3,533,816.4,534.1z"/>
		
			<path fill="none" stroke="#312A20" stroke-width="2.0773" stroke-linecap="round" stroke-linejoin="round" stroke-miterlimit="10" d="
			M823.2,526.5c0,0-3.8,1-5.1,7.8c0,0-1.3-4.2-3.2-5.1"/>
		<path fill="#A14730" d="M836.8,555.9l0.9,0c-0.1-0.1-10.2-9.4-19.1-12.6c-12.7-4.5-16.7-11.8-16.8-11.8l-0.4,0.1
			c0.1,0.3,4.1,7.9,17.1,12.5C827.2,547.2,836.7,555.8,836.8,555.9z"/>
		<path fill="#C9C8C8" d="M847.4,565.6c-2.9,6.7,8.8,9.9,18.6,11.4l0,0l-0.8,1.7c0,0-2.5,4.1,1,14.7c-11.2-1.6-19.2-4.6-21-9.8
			l-1.4-9.5C843.8,574.1,842.8,570.3,847.4,565.6z"/>
		<path fill="#595651" d="M904.9,594.5l-0.4-0.4l-8.8-7.8c-3.4-3-7.8-4.8-13.3-5.3c-21.9-2.1-34.2-5.8-36.3-11
			c-0.3-0.6-0.3-1.3-0.3-1.8c0-0.1,0.1-0.3,0.1-0.5c0.2-0.5,0.5-1,0.9-1.4l0.6-0.7l0.2,0.3l-0.2,0.2c-0.5,0.5-1.5,1.9-0.8,3.7
			c1.1,2.8,7.3,7.8,35.6,10.5c5.7,0.5,10.2,2.3,13.7,5.5l9.8,8.7L904.9,594.5z"/>
		<path fill="#706F6D" d="M957.5,508.1"/>
		<path opacity="0.36" fill="#201600" d="M577.2,736.8c-144.5-88.1-329.8-206.2-329.8-206.2S891,680,992.9,728.4L577.2,736.8z"/>
		<path fill="#A45B35" d="M435.5,641.5l-188-110.9c38.7-82.9,108.5-82.4,108.5-82.4l404.4,54.3L651,650.1l-68.7,77.3L435.5,641.5z"
			/>
		<path opacity="0.19" fill="#201600" d="M435.5,641.5l-188-110.9c12.2-26.2,27.1-43.9,42-55.9c137.7,76.4,352.2,92.7,354.8,91.9
			c0,0,7.1,25.4,17.7,64l-79.8,96.7L435.5,641.5z"/>
		<path fill="#E2946B" d="M722.1,507.9c211.2-31.6,270.8,220.5,270.8,220.5l-410.7-1.1C582.2,727.4,625.6,522.3,722.1,507.9z"/>
		<path fill="#7E4628" d="M607.1,648.3l-172.7-67.9c0,0,192.2,40.4,197.9,44.5l-9.9,24L607.1,648.3z"/>
		<path fill="#E1A98B" d="M763.2,531.4c-69.7,0.4-114.7,40.9-162.3,196.2l-11.5-0.2c18.9-64.6,51.2-208,147.7-218.6
			c189-20.7,245.8,219.4,245.8,219.4l-21.7-0.3C961.1,727.9,903,530.6,763.2,531.4z"/>
		<polygon fill="#7E4628" points="252.3,520.8 314,570.7 247.5,530.6 		"/>
		<path fill="#7E4628" d="M542.5,497.9c-2.3-2.5,53-26.9,64.7-51.7l18.2,33.7c0,0-23.3,8.3-21.6,28.4
			C603.8,508.2,570.2,527.3,542.5,497.9z"/>
		<path fill="#E1A98B" d="M607.2,446.2c-5.7,5.4,6.9,49.5,21.9,30.1C637.8,465.1,617.8,438.9,607.2,446.2z"/>
		<path fill="#E2946B" d="M611.9,453.1c-3.3,3.2,4,28.6,12.7,17.4C629.6,464.1,618.1,448.9,611.9,453.1z"/>
		<polygon fill="#5F351E" points="609.3,467.9 615.1,466.9 611,471.6 608.8,470.9 		"/>
		<path fill="#E1A98B" d="M899.7,726.8c-0.4,0-44.7-123.1-127.2-123.2c-75.1-0.1-96,123.9-96.4,123.9l-28.4,0
			c3.7-63.2,33.2-155,119.1-155c114.2,0,169.5,154.9,169.6,154.9L899.7,726.8z"/>
		<path fill="#7E4628" d="M729.3,514.7c-66.5,6.5-104.7,85.6-139.9,212.8l-7.1-0.1c16.7-69.5,51-220.4,160.1-224.1
			c194.8-6.7,250.6,225.2,250.6,225.2l-12.8-0.2C980.2,728.2,923.3,495.6,729.3,514.7z"/>
		<polygon fill="#7E4628" points="610.2,648.5 612.3,631.6 619.7,622.1 644.1,649.8 		"/>
		<path fill="#7E4628" d="M582.2,727.4L437,641.6l-104.8-61.4C364.7,583.2,535,696.8,582.2,727.4z"/>
	</g>
	<path fill="#7E4628" d="M331.6,484.1c0,0,74.8,37.4,224.3,56.2C555.8,540.2,471.7,502.8,331.6,484.1z"/>
	<polygon fill="#7E4628" points="871.6,549.7 862.2,577.8 880.9,559.1 	"/>
	<path fill="#7E4628" d="M696,615.1c0,0,56.1-74.9,140.2-9.4C836.2,605.8,761.4,559,696,615.1z"/>
	<path fill="#7E4628" d="M650.3,727.4c0,0,18-73.6,54-86.6c0,0-30.5,22.9-30.1,86.7L650.3,727.4z"/>
	<path fill="#7E4628" d="M836.2,656.7c0,0,45.3,24.5,58.5,70.2C894.6,726.9,896.7,670.6,836.2,656.7z"/>
	<path fill="#5F351E" d="M609.3,467.9c0,0-23.4,14.6-30.1,25.5c0,0,23.1-20.6,31.8-21.8L609.3,467.9z"/>
	<path fill="#7E4628" d="M269.6,520.8c0,0,63.7,53.8,206.3,112.9C475.9,633.7,320.1,555.5,269.6,520.8z"/>
	<path fill="#7E4628" d="M270.6,493.4c0,0,45.5,37.1,163.8,65.5c0,0-135.1-42.4-158.6-71.5L270.6,493.4z"/>
	<path opacity="0.19" fill="#201600" d="M367.2,457.7c0,0,66.4,16.5,155,29.7C522.3,487.5,480.7,469.6,367.2,457.7z"/>
	<polygon fill="#7E4628" points="732.7,504.4 635.8,493.4 722.1,507.9 	"/>
	<polygon fill="#7E4628" points="732.7,504.4 740.8,529 722.1,507.9 	"/>
</g>
<g id="Legs">
	<g>
		<polygon fill="#875D46" points="151.7,565.6 153.8,526.2 196.6,521.9 200.3,577.7 171.8,593.1 		"/>
		<path fill="#654635" d="M345.2-126.2c-7.1,13.9,5.7,25.3,14,10.8c8.4-14.5,6.7-52.6,6.7-52.6l-14.2,4.6
			C351.7-163.4,352.3-140.1,345.2-126.2"/>
		<path fill="#D1B951" d="M135.5,615.8c9.3,4.7,48.1,5.6,52.3,10.4c2.7,3-0.3,7.8-0.7,11.7c-2,19,107.8,19.6,159.7,13.1
			c27.3-3.5,31.8-7.7,30.4-13.6c-1.1-4.6-9.4-6.2-14.4-8.3c-5-2.1-10.6-2.9-16.2-3.7c-14.5-2.1-62.3-33.2-65.4-33.4
			c-29.8-2.3-47.2-2-77.2-2C127.8,589.9,121.9,609,135.5,615.8z"/>
		<path fill="#383530" d="M233.3,506.8c0,0.2,0,0.3,0,0.5c0-0.1,0-0.2,0-0.3C233.3,506.9,233.3,506.9,233.3,506.8z"/>
		<line fill="#363847" x1="290.3" y1="118.5" x2="178.4" y2="118.6"/>
		<path fill="#875D46" d="M318.9-262.2c0,0,26.5,11.9,37.8,41.5c7.8,20.4,2.4,45.6,17.4,40.5c15-5.1,27.2-39.4,1.7-79.9
			c-25.3-40.2-45.1-31.1-45.1-31.1L318.9-262.2z"/>
		<path fill="#4E9DA3" d="M291.5-437.9C248.8-491,165.6-608.7,134.3-601c-22.5,5.6,10.5,98,10.5,98c12.1,13.8,58.4,94.1,105.1,134.2
			c22.5,19.3,47.4,42.5,70.1,22.6C339.9-363.7,314.8-409,291.5-437.9z"/>
		<path fill="#4E9DA3" d="M178.8-353.3l136.4,92.8c4.3,2.8,9.8,3,14.2,0.2c5.8-3.7,15.3-11.7,19-21.4c1.8-4.8,0.5-10.3-3.2-13.9
			L205.3-429.8C205.3-429.8,141.8-447.3,178.8-353.3z"/>
		<path fill="#43888C" d="M189.9-334.3c-9.6-18.1-56.9-128.8-65.8-151.1c9.2,33.2,25.9,101.2,51.3,144.1c8.4,14.2,17.1,29.7,28,38.7
			l86.3,114.2c3.2,4.1,8.4,6,13.4,4.8c1.2-0.3,2.6-0.7,4.1-1.2C279.4-224.5,201.3-312.6,189.9-334.3z"/>
		<path fill="#7B6A1C" d="M297.5-613.3c0,0-0.1,8.5-0.9,15.4c-0.8,6.9-15.9-12.6-15.9-12.6L297.5-613.3z"/>
		<path opacity="0.32" fill="#232121" d="M120.6-197.6c0,0,134.6,40.7,212-6.2c61.7-37.4-212-15.5-212-15.5V-197.6z"/>
		<path fill="#875D46" d="M186.8-672c8.4,10.5,4.6,31.1-5.6,42c19.1,7.4,46.3,10.6,65.2,2.5c-7.2-8.8-4.7-25.4-3.8-30.3
			c41.6-1.1,62.6,3.9,61.6-32.2c-0.5-17.5-1.8-33.7-4.1-51.1c-2.1-16.1-4.4-37.4-12.3-51.8c-12.8-23.4-57.4-23.9-78.2-14.9
			c-23.5,10.2-40.6,33.6-44.4,59.2C161.4-722.8,170.9-698.1,186.8-672z"/>
		<g>
			<path fill="#654635" d="M149,564.4c0,0,11.8,23,47,6.2l2,14.1c0,0-21.4,7.6-22.8,8.1c-1.5,0.5-20.1-0.5-20.1-0.5l-7.9-13.6
				L149,564.4z"/>
			<path fill="#D7684B" d="M137.3,594.5c0,0-0.2,3.5,4.7,12c0,0,134.9,12,135.2-6.6l-1.6-7.3c0,0-1.1-9.6-31.8-15
				c-3.7-0.6-7.3-1.6-11-2.8c-8.6-2.8-23.6-8.2-29.4-12.2c-0.9-0.6-2-0.4-2.5,0.3c-2.4,3.7-10.1,12.6-27.8,12.3
				c-12.1-0.2-18.3-5.7-21.3-10.9c-1.8-3.2-7.3-3.3-9.1-0.2C138.4,572.1,133.8,584,137.3,594.5z"/>
			<path fill="#A14730" d="M251.1,579.1c-1.3-0.4-11.7-2.3-15.4-3.5c-8.9-2.7-24.4-7.9-30.4-11.8c-0.2-0.1-0.5-0.2-0.7-0.3l-2.6,5
				c0,0,37.9,11.6,43.5,12.1C250.9,581.1,250.8,579.8,251.1,579.1z"/>
			<path fill="none" stroke="#595651" stroke-width="2.2481" stroke-miterlimit="10" d="M213.4,572.4c0.1,0.9-0.6,1.6-1.6,1.6
				c-1,0-1.9-0.8-2-1.7c-0.1-0.9,0.6-1.6,1.6-1.6C212.4,570.8,213.3,571.5,213.4,572.4z"/>
			<path fill="none" stroke="#595651" stroke-width="2.2481" stroke-miterlimit="10" d="M225.8,577.1c0.1,0.9-0.5,1.6-1.5,1.6
				c-1,0-1.8-0.8-2-1.7c-0.1-0.9,0.6-1.6,1.5-1.6C224.8,575.5,225.7,576.2,225.8,577.1z"/>
			<path fill="none" stroke="#595651" stroke-width="2.2481" stroke-miterlimit="10" d="M237.9,580.5c0.1,0.9-0.5,1.6-1.4,1.6
				c-0.9,0-1.8-0.7-1.9-1.6c-0.1-0.9,0.5-1.6,1.4-1.6C236.9,578.9,237.7,579.6,237.9,580.5z"/>
			
				<path fill="none" stroke="#312A20" stroke-width="2.2481" stroke-linecap="round" stroke-linejoin="round" stroke-miterlimit="10" d="
				M211.6,572.4c0,0,0.7-5.8,3.1-5.2"/>
			
				<path fill="none" stroke="#312A20" stroke-width="2.2481" stroke-linecap="round" stroke-linejoin="round" stroke-miterlimit="10" d="
				M227.2,572.7c-3.4,0.3-3.1,4.4-3.1,4.4s-1.7-5.5-8.4-8.5"/>
			
				<path fill="none" stroke="#312A20" stroke-width="2.2481" stroke-linecap="round" stroke-linejoin="round" stroke-miterlimit="10" d="
				M229.7,573.8c0,0,4,1.1,6.5,6.7c0,0,0.5-3.4,2.2-4"/>
			<path fill="#A14730" d="M221.2,598.1l-0.9,0c0.1-0.1,8.9-7.8,17.2-10.1c11.3-3.1,13.6-8.8,13.7-8.8l0.4,0.1
				c-0.1,0.2-2.2,6.1-13.8,9.4C229.6,590.9,221.3,598,221.2,598.1z"/>
			<path fill="#E2E2E2" d="M205,563.7c-0.8,2.9-6.3,18.2-31.9,18.1c-23-0.1-30.5-11-32.1-14.2c0.6-1.2,1.1-2.3,1.7-3.3
				c1.7-3.1,7.2-3,9.1,0.2c3,5.3,9.2,10.8,21.3,10.9c17.8,0.3,25.4-8.7,27.8-12.3c0.5-0.7,1.6-0.9,2.5-0.3
				C203.9,563,204.4,563.4,205,563.7z"/>
			<g>
				<path fill="#A14730" d="M156.9,598.5l-0.8,0c0-14.6-16.3-27.5-16.5-27.7l0.3-0.7C140,570.2,156.9,583.5,156.9,598.5z"/>
			</g>
			
				<path fill="none" stroke="#312A20" stroke-width="1.8523" stroke-linecap="round" stroke-linejoin="round" stroke-miterlimit="10" d="
				M205.1,563.8c0,0-14.5,13.9-5.7,15.8C207.9,581.6,205.1,563.8,205.1,563.8z"/>
			<path fill="#E2E2E2" d="M275.6,592.6l1.6,7.3c-0.3,19-128.2,16.9-140.6,8.6c-3.6-8,0.7-14.1,0.7-14.1s24.8,11.5,107.4,3.6
				c0,0,32.7-3.4,25.6-11.7C275.3,589.8,275.6,592.6,275.6,592.6z"/>
			<path fill="#C9C8C8" d="M270.2,586.4c4.6,4.6-4.7,8.1-13.8,9.7l0,0l1.3,1.3c0,0,3.6,2.9,3.6,11.7c12.1-3,15.8-5.5,15.8-9.6
				l-1.7-7.4C275.5,592.1,275.6,589.7,270.2,586.4z"/>
			<g>
				<path fill="#595651" d="M224.4,613l7.5-8.3c2.6-2.9,6.5-4.7,11.7-5.4c24.5-3.6,28.2-7.7,28.4-9.9c0.1-1.3-1.1-2.3-1.6-2.7
					l-0.2-0.1l0.1-0.2l0.7,0.5c0.4,0.3,0.8,0.6,1.1,1c0.1,0.1,0.2,0.3,0.2,0.3c0.2,0.4,0.3,0.9,0.2,1.4c-0.3,4.1-9.6,7.5-28.8,10.3
					c-5.1,0.8-8.9,2.5-11.4,5.3l-6.6,7.4l-0.3,0.4L224.4,613z"/>
			</g>
			<path fill="#706F6D" d="M183.5,559.8"/>
		</g>
		<polygon fill="#875D46" points="218.1,594.5 221.2,555.2 267.2,551.9 270.2,607.5 239.1,622.5 		"/>
		<path fill="#363847" d="M224.2-126.7l-19.5,675.7c-0.1,2.3-1.5,4.4-3.7,5.2c-12.6,4.9-35.4,6.7-49.4-0.5c-1.7-0.9-2.8-2.6-3-4.5
			l-43.5-669.1L224.2-126.7z"/>
		<path fill="#262833" d="M199.2-125.3l-94.1-1.4l43.4,675.9c0.2,1.9,1.3,3.6,3,4.5c1.9,1,11,4.8,24.6,4.8L199.2-125.3z"/>
		
			<line fill="none" stroke="#434659" stroke-width="3.0646" stroke-linecap="round" stroke-linejoin="round" stroke-miterlimit="10" stroke-dasharray="7.6614" x1="199.2" y1="-36.1" x2="176.3" y2="555.6"/>
		<path fill="#363847" d="M180.4-111.2L214.9,573c-0.1,2.9,1.5,5.7,4.1,7c10.7,5.3,37,8.3,48.7,3.4c2.4-1,4.1-3.2,4.5-5.7
			l54.4-743.4L180.4-111.2z"/>
		<path fill="#262833" d="M180.4-116.1l33.5,669.5l0.8,19.2c-0.1,2.9,1.5,5.7,4.1,7c1.6,0.8,14.3,5.6,24.9,5.6l15.3-711.9
			L180.4-116.1z"/>
		
			<line fill="none" stroke="#434659" stroke-width="3.0646" stroke-linecap="round" stroke-linejoin="round" stroke-miterlimit="10" stroke-dasharray="7.6614" x1="259.1" y1="-126.7" x2="243.8" y2="585.2"/>
		<path fill="#3B767A" d="M328.9-172.5v25.2c0,0-131.5,84.1-223.9,45.4l-3.6-23.2L328.9-172.5z"/>
		<polygon fill="#2C595C" points="311.9,-154.3 311.9,-137.6 328.9,-147.3 328.9,-166.9 		"/>
		<path fill="#654635" d="M217.1-718.8c0,0-12.3-4.4-11.4-19.2c1-16.6,13.8-15.5,13.8-15.5s-11.4-0.4-12.3,15.6
			C206.3-724.3,217.1-718.8,217.1-718.8z"/>
		<path fill="#654635" d="M299.9-667.7c-15.1,14.2-62.3,0.1-62.3,0.1l3.9,9.9C258.8-656.1,292.9-655.3,299.9-667.7z"/>
		<path fill="#4E9DA3" d="M308.2-603.2c0,0-53.8-26.2-62.3-29.3c-54.2,15.9-59.7-4.6-62-3.7c0,0,0,0,0,0s-48.9,20.4-72.5,67.9
			c-36,72.6-23.9,445.1-8.5,452.9C181.8-75.6,331-155,331.1-165.8c0.3-55.2,5-272-7.3-396.4C320.5-595.8,308.9-601.7,308.2-603.2z"
			/>
		<path fill="#43888C" d="M175.5-554.7c0,0,54.5,17.4,89.2,112.7c27,74,51.2,168.4,44,191.7c-13.6,44.2-174.8,60.1-205,39.4
			c-15.4-10.6-44.1-206.5-13.5-291C119.6-582.9,175.5-554.7,175.5-554.7z"/>
		<path fill="#DBBC32" d="M297-252.6c0,0,42.2-49.2,51.4-107c0.8-5.1,0.7-10.2-0.1-15.3l-4.6-22.8c-3.4,23.8-2,65.3-64.7,115.6
			C277.5-280.8,297-252.6,297-252.6z"/>
		<path fill="#3B767A" d="M126.6-548.5c0,0-29.6-27.4,18.9-32.8c48.5-5.4,16.2,35.5,16.2,35.5s19.2-37.2-18.2-29.3
			S126.6-548.5,126.6-548.5z"/>
		<path fill="#DBBC32" d="M126.6-548.5c0,0-30.8-33.8,17.7-39.2s16.2,35.5,16.2,35.5s19.2-37.2-18.2-29.3S126.6-548.5,126.6-548.5z"
			/>
		<path fill="#4E9DA3" d="M156-209.2c0,0,9.3,27.5,8.7,34.4c-0.5,6.9-22.4,23.2-38.3,19.1s-21.2-62.9-21.2-62.9L156-209.2z"/>
		<path fill="#836B0B" d="M156-172.1c0,0,5.7-1.7-31-80.5l-13.6,0.8l10.4,83.7c0,0,14.5,2.5,15.8,2.2
			C138.8-166.1,156-172.1,156-172.1z"/>
		<path fill="#DBBC32" d="M81.7-240.1c0,0,10.5,39.8,26.4,71.8c5.3,10.7,18.1,15.5,29.1,10.7c6.7-3,13.7-7.5,18.8-14.5
			c0,0-17.5-1.4-41.6-77.7L81.7-240.1z"/>
		<path fill="#A48D26" d="M97.2-506.9c0,0-24-5.3-5.9-25.2s17.4-21.7,30.2-15.7L97.2-506.9z"/>
		<path fill="#FFDF57" d="M72.2-238.3C18.8-536.4,131-565.8,149-561.9c23.5-3.1,106.4,41.7,155.1,297.2c2.2,11.7-3.7,23.6-14.5,28.7
			c-17.9,8.5-50.7,20.8-104.6,30.6C90.1-188.1,75-222.5,72.2-238.3z"/>
		<path fill="#FFE579" d="M82.9-442.5c0,0,47.2,0.2,97.3-17.1c0,0,9.9,20.7,10.1,31.5c0,0-79.2,25.8-102.3,13.9L82.9-442.5z"/>
		<path fill="#FFE579" d="M87.2-320.1c0,0,89.1-30.4,133.3-18.6c0,0,5.1,52.8,19.9,79.5c0,0-39.7,26.8-84.5,29.3s-53.8-8.5-53.8-8.5
			S83.6-274.9,87.2-320.1z"/>
		<path fill="#DBBC32" d="M88.3-341.3c1.8-1.4,58.5,7.5,124.5-17.5c0,0,10.3-1,14.5,22.2c0,0-70.7,31.8-148.6,18.4
			C78.8-318.2,75.9-331.4,88.3-341.3z"/>
		<path fill="#A48D26" d="M343.7-397.6c0,0-2.8,58.9-46.4,99.7v5.4C297.3-292.5,345.1-334.4,343.7-397.6z"/>
		<path fill="#A48D26" d="M349-363.5c0,0-7,53.8-50.2,102.4l5.8-0.4C304.5-261.5,345.5-314.7,349-363.5z"/>
		<path fill="#DBBC32" d="M106-240.1c0,0-16.8-16.8-19.3-63.6c0,0-4.4,36.1,13.6,70c0,0,67,31.4,140-25.5
			C240.3-259.3,156.6-214.3,106-240.1z"/>
		<path fill="#DBBC32" d="M82.7-444.3c0,0-3,25.4,6.1,33.4c0,0,36.3,6.9,102.1-14.4c0,0,1.1-19.1-10.6-34.3c0,0,6.4,25.3,3,28.9
			c0,0-46,20.6-91.8,14.7C91.4-415.9,84.9-423.9,82.7-444.3z"/>
		<path fill="#DBBC32" d="M242.1-218.6c14.9-4.8,39.3-13.5,47.5-17.4c10.8-5.1,16.7-16.9,14.5-28.7C255.4-520.2,172.5-565,149-561.9
			c-9.9-2.2-48.5,5.8-72.1,63.4l0,0c0,0,13.9-30.6,47.7-36.7c45.8-8.4,69.8,27.5,94.1,90.6c24,62.3,48.2,153.9,52.7,181.3
			C275.4-238.7,255.1-222.7,242.1-218.6z"/>
		<path fill="#3B767A" d="M181.2-631.1c0,0,7.9,18.6,66.8,4.6C248-626.5,189.2-607,181.2-631.1z"/>
		<path fill="#41465F" d="M184.2-667.5c-4.8-15-24.1-59.1-34.6-96.2c-6.7-23.4,3.6-48.2,24.7-60.2c38.4-21.9,87.7-49.7,113.7-45.1
			c38.7,6.9,23.9,58.7-6.9,82.1c-22.5,17.1-35.5,2.1-41.9,14.6c-4.7,9,14.9,12,6.5,24.9c-9.1,14-9.8-12.1-25.4-12.1
			s-24.4,24.5-12.9,37.6c7,8,11.8,12.4,19.1,19.7c5.6,5.6,6,14.6,0.9,20.6c-6,7.1-16.8,15.1-35.8,18.5
			C188.4-662.5,185.2-664.4,184.2-667.5z"/>
		<path fill="#676B7F" d="M288-869.1c-7.2-1.3-16.2-0.1-26.2,2.8c0.1,0,64.8-5.8,26,73.4l0.1,0C313.9-818.1,323.8-862.7,288-869.1z"
			/>
		<path fill="#A48D26" d="M133.4-200.7c0,0,12.5,26.1,22.7,28.6c0,0-1.3,1.8-1.9,2.4c0,0-15.2-6.5-23.6-31.2L133.4-200.7z"/>
		<path fill="#A48D26" d="M106.2-172.3c-5.9-11.3-15.6-39.2-15.6-39.2l3.5,2c0.2,0.1,15.7,51.9,32,53.6c0,0-7.3,0-13-5.9
			C107.4-167.5,106.2-172.3,106.2-172.3z"/>
		<g>
			<circle fill="#FF882A" cx="139.4" cy="-378.2" r="21.2"/>
			<path fill="#FFFFFF" d="M122.6-381.5c-0.5-0.2-0.8-0.4-1.2-0.8c-0.3-0.4-0.5-0.8-0.6-1.3c-0.1-0.5,0-1,0.1-1.4
				c0.2-0.4,0.5-0.8,0.8-1.1c0.4-0.3,0.9-0.5,1.4-0.6c0.5-0.1,1-0.1,1.5,0.1c0.5,0.2,0.8,0.4,1.2,0.8c0.3,0.4,0.5,0.8,0.6,1.3
				c0.1,0.5,0,1-0.1,1.4c-0.2,0.4-0.5,0.8-0.8,1.1c-0.4,0.3-0.8,0.5-1.4,0.6C123.6-381.3,123.1-381.4,122.6-381.5z M124.8-383.2
				c0.2-0.3,0.3-0.7,0.2-1.1c-0.1-0.4-0.2-0.8-0.5-1c-0.3-0.2-0.6-0.3-1-0.2c-0.4,0.1-0.7,0.2-0.9,0.5c-0.2,0.3-0.3,0.7-0.2,1.1
				c0.1,0.4,0.3,0.8,0.5,1c0.3,0.2,0.6,0.3,1,0.2C124.3-382.7,124.6-382.9,124.8-383.2z"/>
			<path fill="#FFFFFF" d="M132-387.5c0.5,0.3,0.7,0.8,0.9,1.6l0.5,2.9l-1.5,0.2l-0.4-2.7c-0.1-0.4-0.2-0.7-0.4-0.9
				c-0.2-0.2-0.5-0.2-0.8-0.2c-0.4,0.1-0.7,0.2-0.8,0.5c-0.2,0.3-0.2,0.6-0.2,1.1l0.4,2.5l-1.5,0.2l-0.8-5.1l1.4-0.2l0.1,0.6
				c0.2-0.2,0.4-0.5,0.6-0.6c0.3-0.2,0.6-0.3,0.9-0.3C131-388,131.5-387.9,132-387.5z"/>
			<path fill="#FFFFFF" d="M139.6-386.3l-3.9,0.6c0.1,0.3,0.3,0.5,0.6,0.7c0.3,0.1,0.6,0.2,1,0.1c0.3,0,0.5-0.1,0.7-0.2
				c0.2-0.1,0.4-0.3,0.5-0.5l0.9,0.7c-0.4,0.6-1,1-2,1.2c-0.6,0.1-1.1,0.1-1.6-0.1c-0.5-0.2-0.9-0.4-1.2-0.8
				c-0.3-0.4-0.5-0.8-0.6-1.3c-0.1-0.5,0-1,0.1-1.4c0.2-0.4,0.4-0.8,0.8-1.1c0.4-0.3,0.8-0.5,1.3-0.6c0.5-0.1,1,0,1.4,0.1
				c0.4,0.1,0.8,0.4,1.1,0.8c0.3,0.4,0.5,0.8,0.6,1.3C139.5-386.6,139.5-386.5,139.6-386.3z M135.8-387.3c-0.2,0.2-0.3,0.5-0.3,0.8
				l2.5-0.4c-0.1-0.3-0.3-0.5-0.5-0.7c-0.3-0.2-0.6-0.2-0.9-0.2C136.3-387.7,136-387.5,135.8-387.3z"/>
			<path fill="#FFFFFF" d="M126.3-373.4c-0.1,0.1-0.3,0.2-0.5,0.3c-0.2,0.1-0.4,0.2-0.7,0.2c-0.6,0.1-1.1,0-1.5-0.2
				c-0.4-0.3-0.6-0.7-0.7-1.3l-0.3-2.1l-0.8,0.1l-0.2-1.1l0.8-0.1l-0.2-1.2l1.5-0.2l0.2,1.2l1.3-0.2l0.2,1.1l-1.3,0.2l0.3,2.1
				c0,0.2,0.1,0.4,0.2,0.5c0.1,0.1,0.3,0.1,0.5,0.1c0.2,0,0.4-0.1,0.6-0.3L126.3-373.4z"/>
			<path fill="#FFFFFF" d="M134.7-379.8l-1,5.4l-1.4,0.2l-1.7-3l-0.7,3.4l-1.4,0.2l-2.7-4.8l1.4-0.2l1.8,3.3l0.7-3.7l1.3-0.2
				l1.8,3.3l0.7-3.7L134.7-379.8z"/>
			<path fill="#FFFFFF" d="M137.2-375.2c-0.5-0.2-0.8-0.4-1.2-0.8c-0.3-0.4-0.5-0.8-0.6-1.3c-0.1-0.5,0-1,0.1-1.4
				c0.2-0.4,0.5-0.8,0.8-1.1c0.4-0.3,0.9-0.5,1.4-0.6c0.5-0.1,1-0.1,1.5,0.1c0.5,0.2,0.8,0.4,1.2,0.8c0.3,0.4,0.5,0.8,0.6,1.3
				c0.1,0.5,0,1-0.1,1.4c-0.2,0.4-0.5,0.8-0.8,1.1c-0.4,0.3-0.8,0.5-1.4,0.6C138.2-375,137.7-375.1,137.2-375.2z M139.4-376.9
				c0.2-0.3,0.3-0.7,0.2-1.1c-0.1-0.4-0.2-0.8-0.5-1c-0.3-0.2-0.6-0.3-1-0.2c-0.4,0.1-0.7,0.2-0.9,0.5c-0.2,0.3-0.3,0.7-0.2,1.1
				c0.1,0.4,0.3,0.8,0.5,1c0.3,0.2,0.6,0.3,1,0.2C138.9-376.4,139.2-376.6,139.4-376.9z"/>
			<path fill="#FFFFFF" d="M125.3-365.2c-0.5-0.2-0.9-0.4-1.2-0.8c-0.3-0.4-0.5-0.8-0.6-1.3c-0.1-0.5,0-1,0.1-1.4
				c0.2-0.4,0.5-0.8,0.9-1.1c0.4-0.3,0.9-0.5,1.4-0.6c0.5-0.1,1-0.1,1.5,0.1c0.4,0.2,0.8,0.4,1,0.8l-1,0.8c-0.3-0.4-0.8-0.6-1.3-0.5
				c-0.4,0.1-0.7,0.2-0.9,0.5c-0.2,0.3-0.3,0.7-0.2,1.1c0.1,0.4,0.3,0.8,0.6,1c0.3,0.2,0.6,0.3,1,0.2c0.5-0.1,0.8-0.4,1-0.9l1.3,0.4
				c-0.1,0.4-0.4,0.8-0.7,1.1c-0.4,0.3-0.8,0.5-1.4,0.6C126.3-365,125.8-365.1,125.3-365.2z"/>
			<path fill="#FFFFFF" d="M134-371.1c0.5,0.3,0.8,0.8,0.9,1.6l0.5,2.9l-1.4,0.2l-0.1-0.6c-0.2,0.5-0.7,0.8-1.4,1
				c-0.4,0.1-0.7,0.1-1.1,0c-0.3-0.1-0.6-0.2-0.8-0.4c-0.2-0.2-0.3-0.5-0.4-0.8c-0.1-0.5,0-0.9,0.4-1.2c0.3-0.3,0.8-0.6,1.6-0.7
				l1.2-0.2c-0.1-0.3-0.2-0.6-0.4-0.7c-0.2-0.1-0.5-0.2-0.9-0.1c-0.3,0-0.5,0.1-0.8,0.3c-0.2,0.1-0.5,0.3-0.6,0.5l-0.7-0.9
				c0.2-0.2,0.6-0.4,0.9-0.6c0.4-0.2,0.8-0.3,1.2-0.4C132.8-371.5,133.5-371.4,134-371.1z M133.3-367.4c0.2-0.1,0.3-0.3,0.3-0.6
				l-0.1-0.5l-1,0.2c-0.6,0.1-0.9,0.3-0.8,0.7c0,0.2,0.1,0.3,0.3,0.4c0.2,0.1,0.4,0.1,0.6,0.1C132.9-367.1,133.1-367.2,133.3-367.4z
				"/>
			<path fill="#FFFFFF" d="M138.9-372.3c0.3-0.2,0.6-0.3,1-0.4l0.2,1.4c-0.2,0-0.3,0-0.3,0c-0.4,0.1-0.7,0.2-0.9,0.5
				c-0.2,0.3-0.3,0.7-0.2,1.1l0.4,2.4l-1.5,0.2l-0.8-5.1l1.4-0.2l0.1,0.7C138.4-371.9,138.6-372.1,138.9-372.3z"/>
			<path fill="#FFFFFF" d="M147-370.7l-3.9,0.6c0.1,0.3,0.3,0.5,0.6,0.7c0.3,0.1,0.6,0.2,1,0.1c0.3,0,0.5-0.1,0.7-0.2
				c0.2-0.1,0.4-0.3,0.5-0.5l0.9,0.7c-0.4,0.6-1,1-2,1.2c-0.6,0.1-1.1,0.1-1.6-0.1c-0.5-0.2-0.9-0.4-1.2-0.8
				c-0.3-0.4-0.5-0.8-0.6-1.3c-0.1-0.5,0-1,0.1-1.4c0.2-0.4,0.4-0.8,0.8-1.1c0.4-0.3,0.8-0.5,1.3-0.6c0.5-0.1,1,0,1.4,0.1
				c0.4,0.1,0.8,0.4,1.1,0.8c0.3,0.4,0.5,0.8,0.6,1.3C147-371.1,147-371,147-370.7z M143.3-371.8c-0.2,0.2-0.3,0.5-0.3,0.8l2.5-0.4
				c-0.1-0.3-0.3-0.5-0.5-0.7c-0.3-0.2-0.6-0.2-0.9-0.2C143.8-372.2,143.5-372,143.3-371.8z"/>
			<path fill="#FFFFFF" d="M153.9-371.9l-3.9,0.6c0.1,0.3,0.3,0.5,0.6,0.7c0.3,0.1,0.6,0.2,1,0.1c0.3,0,0.5-0.1,0.7-0.2
				c0.2-0.1,0.4-0.3,0.5-0.5l0.9,0.7c-0.4,0.6-1,1-2,1.2c-0.6,0.1-1.1,0.1-1.6-0.1c-0.5-0.2-0.9-0.4-1.2-0.8
				c-0.3-0.4-0.5-0.8-0.6-1.3c-0.1-0.5,0-1,0.1-1.4c0.2-0.4,0.4-0.8,0.8-1.1c0.4-0.3,0.8-0.5,1.3-0.6c0.5-0.1,1,0,1.4,0.1
				c0.4,0.1,0.8,0.4,1.1,0.8c0.3,0.4,0.5,0.8,0.6,1.3C153.9-372.2,153.9-372.1,153.9-371.9z M150.2-372.9c-0.2,0.2-0.3,0.5-0.3,0.8
				l2.5-0.4c-0.1-0.3-0.3-0.5-0.5-0.7c-0.3-0.2-0.6-0.2-0.9-0.2C150.6-373.3,150.4-373.2,150.2-372.9z"/>
			<path fill="#FFFFFF" d="M157.4-375.4c0.3-0.2,0.6-0.3,1-0.4l0.2,1.4c-0.2,0-0.3,0-0.3,0c-0.4,0.1-0.7,0.2-0.9,0.5
				c-0.2,0.3-0.3,0.7-0.2,1.1l0.4,2.4l-1.5,0.2l-0.8-5.1l1.4-0.2l0.1,0.7C156.9-375,157.1-375.2,157.4-375.4z"/>
		</g>
		<path fill="#489196" d="M238.2-480.3c0,0-18.7-95.8,57.9-129.2l-28.6-15.6l-54.6,106.5L238.2-480.3z"/>
		<path fill="#DBBC32" d="M225.8-471.1l-18.3-37.2c0,0-7.2-77.6,59.1-117.4c0,0,8.2-0.3,30,11.1c2.2,1.2,1.9,4.5-0.6,5.1
			C277.1-604.8,237.2-587.3,225.8-471.1z"/>
		<path fill="#A48D26" d="M210.2-519.6l-2.9-3.4c0,0,0-68.3,59.4-102.7l3.8,0.2C270.5-625.5,212.9-590.7,210.2-519.6z"/>
		<path fill="#A48D26" d="M228.5-492.4c0,0,11.3-104.9,67.5-117.1c2.6-0.6,3.1-4.2,0.7-5.4l-0.1,0c0,0-55,6-70.8,119L228.5-492.4z"
			/>
		<path fill="#875D46" d="M346.7-167.6c0,0,15.5,24.5,8.5,55.5c-4.8,21.3-23.2,39.3-7.9,43.4s44.4-17.8,45.6-65.6
			c1.2-47.4-20.4-50.9-20.4-50.9L346.7-167.6z"/>
		<path fill="#4E9DA3" d="M344.6-380.1c-6.2-67.8-10.4-211.9-40.7-222.8c-21.9-7.8-45.5,87.4-45.5,87.4
			c2.5,18.2-3.4,110.7,13.3,169.9c8.1,28.6,16,61.6,45.9,57.6C343.8-291.4,347.9-343.1,344.6-380.1z"/>
		<path fill="#4E9DA3" d="M280.5-321l62.2,152.8c2,4.7,6.6,7.9,11.7,8c6.9,0.2,19.2-1.2,27.7-7.3c4.2-3,6.1-8.3,5-13.4l-42.2-189.2
			C344.8-370.1,301.7-419.8,280.5-321z"/>
		<path fill="#43888C" d="M283.8-334.7c-4.6-20-21.9-139.1-24.7-162.9c0.3,34.4-1,104.4,12.6,152.5c4.5,15.9,8.9,33.1,17.1,44.6
			l54,132.6c2,4.7,6.6,7.9,11.7,8c1.2,0,2.7,0,4.2-0.1C342.2-205.6,289.3-310.8,283.8-334.7z"/>
		<path fill="#3B767A" d="M259.2-504.1c0,0,14.8-107,48.9-99.1C308.2-603.2,266-629.5,259.2-504.1z"/>
		<path fill="#2C595C" d="M347.8-165.8c0,0,24.2,4.9,35.7-11.4C383.5-177.2,369.9-166.4,347.8-165.8z"/>
		<g>
			<path fill="#D7684B" d="M203.7,623c0,0,1.4,7.2,5.6,15.8c0,0,149.9,18.5,156.4-4.1l0.3-9.4c0,0,1.8-12.6-40-20
				c-4.8-0.8-9.4-2.1-14-3.6c-10.5-3.6-28.4-10.2-34.8-15.2c-0.9-0.7-2.4-0.5-3.1,0.4c-3.4,4.7-13.6,15.7-33.2,15.4
				c-12.8-0.2-18.9-6.5-21.8-12.6c-1.7-3.7-7.4-3.7-9.2-0.1C205.3,598.8,200.6,611.8,203.7,623z"/>
			<path fill="#E2E2E2" d="M366,625.4l-0.3,9.4c-5.3,21.3-155.8,11.6-159.6,6.8c-4.8-10.1-2.4-18.6-2.4-18.6c5,4.7,9.1,8.3,83.8,8.7
				c10.9,0.1,23.3-1.4,37.5-1.4c0,0,42.8-2.2,35.3-13.2C366.5,621.6,366,625.4,366,625.4z"/>
			<path fill="#A14730" d="M331.2,606.3c-1.7-0.3-3.4-0.7-5.2-1c-4.8-0.8-9.4-2.1-14-3.6c-10.5-3.6-28.4-10.2-34.8-15.2
				c-0.2-0.2-0.5-0.3-0.8-0.4l-1,8c0,0,40.8,13.4,47.8,14.1C330.2,609,331.2,606.3,331.2,606.3z"/>
			<path fill="#C9C8C8" d="M360.3,617c4.5,6.6-9.1,10-20.7,11.7l0,0l1.3,1.6c0,0,3.7,4,1.2,14.4c13.2-1.8,22.2-5,23.7-10.1l0.3-9.4
				C366,625.4,366.5,621.6,360.3,617z"/>
			<path fill="#595651" d="M293.7,646.9l10.6-8.9c3.8-3.2,9-5.1,15.9-5.8c34-3.3,40.6-8.4,41.6-11.2c0.6-1.7-0.8-3.1-1.5-3.6
				l-0.2-0.2l0.3-0.3l0.9,0.7c0.5,0.4,0.9,0.9,1.3,1.4c0.1,0.2,0.2,0.3,0.2,0.5c0.1,0.5,0.1,1.1-0.1,1.8c-1.8,5.2-16,9.2-42.3,11.7
				c-6.7,0.6-11.8,2.5-15.5,5.6l-9.4,7.9L295,647L293.7,646.9z"/>
			
				<ellipse transform="matrix(0.9972 -7.443553e-02 7.443553e-02 0.9972 -43.7683 22.9179)" fill="none" stroke="#595651" stroke-width="2.3372" stroke-miterlimit="10" cx="285.6" cy="598.6" rx="2.2" ry="2.1"/>
			
				<ellipse transform="matrix(0.9972 -7.443553e-02 7.443553e-02 0.9972 -44.1661 24.0223)" fill="none" stroke="#595651" stroke-width="2.3372" stroke-miterlimit="10" cx="300.2" cy="604.5" rx="2.2" ry="2.1"/>
			
				<ellipse transform="matrix(0.9972 -7.443553e-02 7.443553e-02 0.9972 -44.4471 25.141)" fill="none" stroke="#595651" stroke-width="2.3372" stroke-miterlimit="10" cx="315.1" cy="608.9" rx="2.2" ry="2.1"/>
			
				<path fill="none" stroke="#312A20" stroke-width="2.3372" stroke-linecap="round" stroke-linejoin="round" stroke-miterlimit="10" d="
				M285.6,598.6c0,0,1.9-7.3,4.8-6.7"/>
			
				<path fill="none" stroke="#312A20" stroke-width="2.3372" stroke-linecap="round" stroke-linejoin="round" stroke-miterlimit="10" d="
				M305.1,598.9c-4.4,0.4-4.9,5.6-4.9,5.6s-1-7-8.9-10.7"/>
			
				<path fill="none" stroke="#312A20" stroke-width="2.3372" stroke-linecap="round" stroke-linejoin="round" stroke-miterlimit="10" d="
				M308.1,600.3c0,0,4.9,1.4,7,8.5c0,0,1.4-4.3,3.8-5.1"/>
			<path fill="#E2E2E2" d="M279,587.8c-1.4,3.7-10.2,22.5-38.7,22c-23.7-0.4-30.7-12.6-32.3-16.2c0.6-1.4,1.2-2.7,1.8-3.9
				c1.9-3.7,7.5-3.6,9.2,0.1c2.9,6.1,8.9,12.4,21.8,12.6c19.7,0.3,29.8-10.7,33.3-15.4c0.7-1,2.1-1.2,3.1-0.4
				C277.7,586.9,278.3,587.3,279,587.8z"/>
			<path fill="#A14730" d="M290.3,631.3l-1.2,0c0.1-0.1,11.9-10.6,22.7-13.7c15.4-4.4,18.9-11.3,18.9-11.4l0.8,0.3
				c-0.1,0.3-3.6,7.3-19.4,11.8C301.4,621.3,290.4,631.2,290.3,631.3z"/>
			<path fill="#A14730" d="M224.7,629.5l-0.8,0c-0.4-15.5-17.5-31.5-17.7-31.6l0.3-0.8C206.8,597.2,224.3,613.6,224.7,629.5z"/>
			
				<path fill="none" stroke="#312A20" stroke-width="2.3372" stroke-linecap="round" stroke-linejoin="round" stroke-miterlimit="10" d="
				M281.3,589.9c0,0-29.8,8.3-21,16.4C269.1,614.3,281.3,589.9,281.3,589.9z"/>
		</g>
	</g>
</g>
<g id="Bush2">
	<path fill="#5E9646" d="M414.1,794.8c-40.8-40.4-90.4-49-145.3-32.8c-11.2-78.1-52.2-125.5-130.4-138.2c-5.8-0.9-13-11.3-14.4-18.3
		C109.4,532.9,64.3,481.5,1,461.9v338.4h418.4C417.7,798.5,416,796.6,414.1,794.8z"/>
	<path fill="#70AB54" d="M95.6,646.1c-3.4,0.8-6.7,1.8-9.9,3c-4.4-4.4-9.3-8.1-14.7-11.2c2.4-9.9,3.6-20.2,3.6-30.8
		c0-51.9-30-96.8-73.6-118.3v271.5c6.8,3.9,14.2,6.6,22,8.1c3.1,11.8,8.3,22.5,14.9,31.9h162.5c16-22.7,22.5-51.9,15.4-81.1
		C202.9,665.9,149,633.1,95.6,646.1z"/>
</g>
<g id="Button">
	<path fill="#FF882A" d="M1252.1,732.3l-31.2-28.8c-2.2-2-5.9-0.6-5.9,2.2v9.8c0,1.7-1.5,3.1-3.5,3.1h-36.6c-1.9,0-3.5,1.4-3.5,3.1
		v25.4c0,1.7,1.5,3.1,3.5,3.1h36.6c1.9,0,3.5,1.4,3.5,3.1v9.8c0,2.8,3.8,4.2,5.9,2.2l31.2-28.8
		C1253.4,735.4,1253.4,733.5,1252.1,732.3z"/>
	<g>
		<path fill="#FFFFFF" d="M1230.8,705.8c5.6,4,11.1,8.2,16.6,12.4c2.7,2.1,5.4,4.2,8.1,6.4c2.7,2.1,5.4,4.3,8.1,6.4
			c1.1,0.9,1.3,2.4,0.4,3.5l-0.1,0.1l-0.1,0.1c-2.4,2.8-4.8,5.4-7.3,8.1c-2.5,2.6-5,5.3-7.5,7.9c-5.1,5.2-10.4,10.2-16.1,14.8
			c-2.9,2.3-5.8,4.6-9.3,6.5c-0.9,0.5-1.8,0.9-2.8,1.3c-1,0.4-2.1,0.8-3.5,0.9c-0.8,0.1-1.4,0-2.1-0.1c-0.7-0.1-1.4-0.3-2.1-0.6
			c-1.4-0.6-2.5-1.7-3.2-2.8c-1.5-2.2-1.9-4.4-2.1-6.4c-0.2-2-0.2-4-0.1-5.9c0.3-3.8,0.9-7.5,1.8-11.1l2.5,2.9
			c-5.4,0.1-10.8,0.3-16.3,0.7c-5.5,0.3-10.9,0.9-16.5,0.8c-2.8-0.1-5.6-0.3-8.4-1c-0.3-0.1-0.7-0.2-1-0.3l-0.5-0.2
			c-0.1,0-0.2-0.1-0.4-0.2c-0.1-0.1-0.2-0.1-0.3-0.2c-0.8-0.6-1.1-1.3-1.5-2c-0.7-1.3-1.1-2.7-1.5-4c-1.5-5.4-2.2-10.9-2.3-16.6
			c0-2.8,0.1-5.7,0.8-8.6c0.3-1.4,0.8-2.9,1.5-4.3c0.4-0.7,0.8-1.4,1.3-2.1c0.5-0.7,1.2-1.3,1.9-1.8c1.4-1,2.9-1.7,4.4-2.2
			c1.5-0.5,3-0.8,4.5-0.9c2.9-0.3,5.8-0.3,8.6-0.2c11.2,0.8,21.9,2.9,32.6,3.6l-1.8,3.4c-1.2-1.9-2.3-3.8-3.2-5.8
			c-0.9-2-1.8-4.1-2.1-6.6c0-0.6,0-1.3,0.2-2.1c0.2-0.7,0.7-1.6,1.4-2c0.7-0.5,1.4-0.6,2.1-0.6c0.7,0,1.2,0.1,1.8,0.2
			c2.3,0.5,4.2,1.5,6.1,2.5c0.1,0.1,0.2,0.3,0.1,0.4c-0.1,0.1-0.2,0.2-0.4,0.1c-1-0.3-2-0.6-3.1-0.8c-1-0.2-2-0.4-3-0.4
			c-0.9,0-1.9,0.1-2.2,0.5c-0.2,0.2-0.2,0.3-0.2,0.6c0,0.3,0,0.7,0.1,1.1c0.4,1.7,1.4,3.5,2.4,5.2c1.1,1.7,2.2,3.4,3.5,5
			c0.7,0.9,0.6,2.3-0.3,3c-0.4,0.3-0.8,0.5-1.3,0.5l-0.2,0c-2.8,0-5.6-0.1-8.3-0.2c-2.8-0.2-5.5-0.4-8.3-0.7
			c-5.5-0.6-10.9-1.2-16.2-1.5c-2.7-0.2-5.3-0.3-7.8-0.2c-2.5,0.2-4.9,0.6-6.7,1.7c-1.7,1-2.9,3.1-3.7,5.5c-0.8,2.4-1.3,5-1.5,7.7
			c-0.3,9.7-0.8,25.5,13,22.2c2.7-0.1,5.4-0.4,8.1-0.8c2.7-0.4,5.4-0.8,8.1-1.3c5.4-0.9,10.9-1.7,16.4-2.1c1.3-0.1,2.4,0.8,2.5,2.1
			c0,0.2,0,0.4,0,0.6l0,0.3c-0.5,3.4-0.9,6.9-1,10.3c0,1.7,0.1,3.4,0.3,4.9c0.2,1.5,0.7,3,1.3,3.7c0.3,0.4,0.6,0.6,0.8,0.7
			c0.1,0.1,0.3,0.1,0.5,0.1c0.2,0,0.5,0,0.6,0c0.4,0,1-0.3,1.7-0.5c0.7-0.3,1.4-0.7,2.1-1.1c2.8-1.7,5.6-3.8,8.3-6
			c5.4-4.4,10.7-9.3,15.9-14.2c5.2-4.9,10.3-9.9,15.4-15l0.2,3.7c-2.5-2.3-5.1-4.7-7.6-7c-2.5-2.4-5-4.7-7.5-7.1
			c-5-4.8-9.9-9.6-14.7-14.5c-0.1-0.1-0.1-0.3,0-0.4C1230.5,705.8,1230.7,705.8,1230.8,705.8z"/>
	</g>
	<g>
	</g>
	<g>
	</g>
	<g>
	</g>
	<g>
	</g>
	<g>
	</g>
	<g>
	</g>
	<g>
	</g>
	<g>
	</g>
	<g>
	</g>
	<g>
	</g>
	<g>
	</g>
	<g>
	</g>
	<g>
	</g>
	<g>
	</g>
	<g>
	</g>
</g>
</svg>
