<?xml version="1.0" encoding="utf-8"?>
<!-- Generator: Adobe Illustrator 22.1.0, SVG Export Plug-In . SVG Version: 6.00 Build 0)  -->
<svg version="1.1" id="Слой_1" xmlns:v="https://vecta.io/nano"
	 xmlns="http://www.w3.org/2000/svg" xmlns:xlink="http://www.w3.org/1999/xlink" x="0px" y="0px" viewBox="0 0 1280 800"
	 style="enable-background:new 0 0 1280 800;" xml:space="preserve">
<style type="text/css">
	.st0{display:none;fill:#C5E5E5;}
	.st1{display:none;fill:#87C469;}
	.st2{display:none;fill:#6AA84E;}
	.st3{display:none;}
	.st4{display:inline;fill:#75B05A;}
	.st5{display:none;fill:#70AB54;}
	.st6{display:none;fill:#75B05A;}
	.st7{display:none;fill:#77B35B;}
	.st8{display:none;fill:#E0C757;}
	.st9{display:none;fill:#938548;}
	.st10{display:none;fill:#EDD25C;}
	.st11{display:none;fill:#5E9646;}
	.st12{display:none;fill:#383530;}
	.st13{display:none;fill:#C9C8C8;}
	.st14{display:none;fill:#595651;}
	.st15{display:inline;fill:none;stroke:#595651;stroke-width:2.077;stroke-miterlimit:10;}
	
		.st16{display:inline;fill:none;stroke:#312A20;stroke-width:2.077;stroke-linecap:round;stroke-linejoin:round;stroke-miterlimit:10;}
	.st17{display:none;fill:#A14730;}
	.st18{opacity:0.36;fill:#201600;enable-background:new    ;}
	.st19{fill:#A45B35;}
	.st20{opacity:0.2;fill:#201600;enable-background:new    ;}
	.st21{fill:#E2946B;}
	.st22{fill:#7E4628;}
	.st23{fill:#E1A98B;}
	.st24{fill:#5F351E;}
	.st25{display:none;fill:#7E4628;}
	.st26{display:none;opacity:0.2;fill:#201600;enable-background:new    ;}
	.st27{display:inline;fill:#7E4628;}
	.st28{display:none;fill:#875D46;}
	.st29{display:none;fill:#654635;}
	.st30{display:none;fill:#D1B951;}
	.st31{display:none;fill:#363847;}
	.st32{display:inline;fill:#4E9DA3;}
	.st33{display:none;fill:#43888C;}
	.st34{display:none;fill:#7B6A1C;}
	.st35{display:none;opacity:0.32;fill:#232121;enable-background:new    ;}
	.st36{display:none;fill:#D7684B;}
	.st37{display:inline;fill:none;stroke:#595651;stroke-width:2.248;stroke-miterlimit:10;}
	
		.st38{display:inline;fill:none;stroke:#312A20;stroke-width:2.248;stroke-linecap:round;stroke-linejoin:round;stroke-miterlimit:10;}
	.st39{display:none;fill:#E2E2E2;}
	.st40{display:none;fill:none;stroke:#312A20;stroke-width:1.852;stroke-linejoin:round;stroke-miterlimit:10;}
	.st41{display:none;fill:#262833;}
	
		.st42{display:none;fill:none;stroke:#434659;stroke-width:3.065;stroke-linecap:round;stroke-linejoin:round;stroke-miterlimit:10;stroke-dasharray:7.6614;}
	.st43{display:none;fill:#3B767A;}
	.st44{display:none;fill:#2C595C;}
	.st45{display:none;fill:#4E9DA3;}
	.st46{display:none;fill:#DBBC32;}
	.st47{display:none;fill:#836B0B;}
	.st48{display:none;fill:#A48D26;}
	.st49{display:none;fill:#FFDF57;}
	.st50{display:none;fill:#FFE579;}
	.st51{display:none;fill:#41465F;}
	.st52{display:none;fill:#676B7F;}
	.st53{display:none;fill:#FF882A;}
	.st54{display:inline;fill:#FFFFFF;}
	.st55{display:inline;}
	.st56{fill:#FFFFFF;}
	.st57{display:none;fill:#489196;}
	.st58{fill:none;stroke:#595651;stroke-width:2.337;}
	
		.st59{display:inline;fill:none;stroke:#312A20;stroke-width:2.337;stroke-linecap:round;stroke-linejoin:round;stroke-miterlimit:10;}
	.st60{display:none;fill:none;stroke:#312A20;stroke-width:2.337;stroke-linejoin:round;stroke-miterlimit:10;}
</style>
<path class="st0" d="M1,1h1279v799.4H1V1z"/>
<path class="st1" d="M1280,68.9C1019.1,59.6,776.6,32,574.4,1H1v794.3h1279V68.9z"/>
<path class="st2" d="M447,40.3c-1,8.2-0.1,16.6-0.1,25.6c-20.5-7.4-39.1-5.8-56.1,6.3c-17.1,12.2-23.5,29.8-23.5,49.8
	c-32.8,7-49.7,24.6-48.3,50.1h508.5c2.3-22.6-16.5-44.1-41.6-47.1c-5.4-0.7-7.8-2.3-9.7-7.4c-8.4-22.9-24.4-38.9-48.2-44.4
	c-13-3-26.9-1.8-42.2-2.6c-9.8-23-27.7-37.4-55.1-39.6c-2.4-0.2-5.6-4.3-6.6-7.3c-2.7-8.2-6.3-15.7-10.8-22.6H461
	C453.7,12.4,448.7,25.7,447,40.3L447,40.3z"/>
<g class="st3">
	<circle class="st4" cx="561.5" cy="34" r="29.2"/>
	<circle class="st4" cx="535.4" cy="44.4" r="18.8"/>
	<circle class="st4" cx="537.2" cy="22.9" r="13.9"/>
	<circle class="st4" cx="408.6" cy="85.2" r="13.9"/>
	<circle class="st4" cx="422.6" cy="85.2" r="9.9"/>
</g>
<path class="st5" d="M906.7,1C625.9,114,394.1,196.3,1,134.9l3.7,665.4H1280V1H906.7z"/>
<path class="st2" d="M279.1,763.3c0,0,173.6-15.6,376.3-12.1c272.5,4.6,528.2,55.3,624.6-109.5v156.9H267.6L279.1,763.3z M904.4,1
	c0,0-409.6,205.3-863.8,142.5C40.6,143.5,446.3,316.5,904.4,1L904.4,1z"/>
<path class="st6" d="M946.4,1c0,0-186.2,77.9,333.6,69.7V1H946.4z"/>
<path class="st7" d="M1,190.8c0,0,175,57.8,360.2,61.5S478.5,480.2,2.8,462.9L1,190.8z"/>
<path class="st2" d="M1,157.3h172.7c0.1-14.3-5.5-25.7-14.9-35c-15.9-15.7-35.1-19-56.5-12.7C98,79.3,82,60.9,51.7,55.9
	c-2.3-0.4-5.1-4.4-5.6-7.1C41.8,27.6,30.9,11.1,15.3,1H1V157.3z"/>
<path class="st6" d="M51.8,65.7c-2.3,0-4.5,0.2-6.7,0.7c-2.6-6.2-7.2-11.3-13-14.6c0.4-2.4,0.7-4.8,0.7-7.2
	C32.8,25.1,19.2,8.9,1,4.8v98.7c4.7,3,10.3,4.7,16.2,4.7h0.9c3.6,15.3,17.3,26.6,33.6,26.6c19.1,0,34.6-15.5,34.6-34.6
	C86.4,81.2,70.9,65.7,51.8,65.7z M1280,330.8c-27.2,114.1-239.6,157.4-438.1,149.5C144.1,452.4,2.8,543.7,2.8,543.7l2.7,254.9H1280
	V330.8z"/>
<path class="st8" d="M1280,444.9c-81.8,48.5-216.5,73.9-352.1,77.2c-185.2,4.6-611.2-14.7-923.7,44.5v221.8
	c0,0,173.3-107.8,918.9-73.1c134.8,6.3,256.2-8.4,356.9-49V444.9z"/>
<path class="st9" d="M3.7,789c5.8-3.7,11.9-6.7,18-9.5c3.1-1.5,6.2-2.7,9.3-4.1l9.4-3.8c6.3-2.4,12.7-4.8,19.1-6.9
	c6.4-2.2,12.9-4.2,19.3-6.3c25.9-7.8,52.3-14.3,78.8-19.8l24.9-5l5-0.9l20-3.4c3.3-0.6,6.7-1.1,10-1.6l20-3.2l20.1-2.8l20.1-2.6
	l40.3-4.5c107.6-11.2,215.8-12.6,323.6-11.8l80.9,1.1l20.2,0.5L763,705l40.4,1.3l80.8,3.5l40.4,2c13.4,0.7,26.8,1.2,40.2,1.5
	c13.4,0.3,26.8,0.3,40.3,0.1c13.4-0.2,26.8-0.6,40.2-1.2c26.8-1.3,53.6-3.5,80.3-6.8s53.2-7.7,79.4-13.6s52.1-13.3,76.9-23.7
	l0.7,1.6c-24.7,11-50.6,19.1-76.7,25.7c-26.2,6.5-52.8,11.5-79.5,15.4s-53.6,6.7-80.6,8.5l-40.5,2.1c-13.5,0.5-27,0.7-40.5,0.7
	s-27-0.3-40.6-0.7l-70.7-2.3l-10.1-0.2L803,718l-40.4-0.7l-20.2-0.3l-20.2-0.2c-26.9-0.1-53.8-0.3-80.7,0.1l-80.7,1.4l-40.3,1.4
	l-10.1,0.4l-30.2,1.5c-53.7,2.6-107.3,5.9-160.8,10.3c-26.8,2.1-53.4,4.9-80.1,7.8c-26.6,3.1-53.2,6.7-79.7,10.9l-19.8,3.4
	l-19.8,3.7c-6.6,1.2-13.1,2.7-19.7,4l-19.6,4.4c-13,3.1-26,6.5-38.8,10.4l-9.6,3c-3.2,1.1-6.4,2.1-9.5,3.3
	c-6.3,2.3-12.6,4.7-18.5,7.7L3.7,789L3.7,789z M1283.1,445.4c-11.4,7.2-23.4,13.5-35.7,19c-12.3,5.6-24.9,10.5-37.6,15
	c-25.5,8.9-51.6,16.1-77.9,22.1s-52.9,10.9-79.6,14.7c-13.4,2-26.8,3.6-40.2,5.1s-26.9,2.7-40.3,3.6l-40.5,2.1l-20.2,0.5l-20.2,0.4
	l-80.9,0.6L648.4,529l-80.8,1l-80.7,1.9l-40.4,1.2l-60.5,2.3l-20.2,0.9l-60.4,2.9l-20.1,1.1l-20.1,1.3l-10.1,0.6l-30.2,2.1
	l-20.1,1.6l-40.2,3.4l-40.2,4l-20.1,2.2l-10,1.1l-10,1.3l-20,2.5l-30,4.2l-30,4.5L4.1,568l19.8-4.1l9.9-2l9.9-1.9l19.9-3.7l20-3.3
	l10-1.6l30-4.5l20.1-2.7l20.1-2.5c53.6-6.5,107.4-11.1,161.2-14.5l40.4-2.3l20.2-1l20.2-0.8l80.9-2.2l40.4-0.5l40.4-0.3h80.9
	l161.6,1.1l80.8,0.3c26.9-0.1,53.8-0.5,80.6-2.2c13.4-0.8,26.8-1.8,40.2-3.1s26.7-2.7,40.1-4.5c26.7-3.5,53.2-8,79.5-13.6
	s52.3-12.4,77.8-20.9c12.7-4.3,25.4-9,37.7-14.3c12.3-5.4,24.4-11.4,35.8-18.4L1283.1,445.4L1283.1,445.4z"/>
<path class="st10" d="M781.9,689.6c69.3,0,138.7,7.1,207.7,1s159.7-16.7,216.3-56.6c18.6-13.1,36.2-29.3,44.4-50.5s4.3-48.4-13.8-62
	c-22.5-16.9-54.3-7.3-81.1,1.3c-175.7,56.8-386.5,34.9-571,25.2s-434.1,7-544.7,41c5.7,44.7,5.3,116.7,1.3,161.6
	C40.3,758.1,286.5,689.6,781.9,689.6z"/>
<path class="st11" d="M1280,606.7c-17.9-15.4-41.4-23.6-66-21.5c-43.5,3.6-77.8,36.7-82.9,80.6c-1,8.2-0.1,16.6-0.1,25.6
	c-20.5-7.4-39.1-5.8-56.1,6.3c-17.1,12.2-23.5,29.8-23.5,49.8c-32.8,7-49.7,24.6-48.3,50.1h277V606.7H1280z"/>
<path class="st5" d="M1280,800.3V688.2c-13.4-24.1-39.4-38.7-67.3-36.4c-33.7,2.8-60.3,28.5-64.3,62.5c-0.7,6.3-0.1,12.8-0.1,19.9
	c-15.9-5.7-30.3-4.5-43.5,4.9s-18.2,23.1-18.3,38.6c-17.8,3.8-29.5,11.6-34.6,22.6H1280z"/>
<path class="st12" d="M923.8,465.9v0.1C923.8,466,923.8,466,923.8,465.9z"/>
<path class="st13" d="M782.3,539.5c-4,5.7,7.9,10.6,18.4,13l0,0l-1.1,1.5c0,0-3.1,3.5-0.7,14.3c-14.4-3.7-19.4-6.8-20.8-12.1
	l-0.3-9.5C777.8,546.8,776.9,543.5,782.3,539.5L782.3,539.5z"/>
<path class="st14" d="M836,572.6l-0.3-0.4l-7.9-8.3c-3.1-3.3-7.2-5.3-12.6-6.3c-21.3-3.9-33-8.6-34.6-13.9c-0.2-0.6-0.2-1.2-0.1-1.8
	c0-0.2,0.1-0.3,0.2-0.4c0.2-0.5,0.6-0.9,1-1.3l0.7-0.6l0.2,0.3l-0.2,0.2c-0.5,0.5-1.6,1.7-1.1,3.5c0.8,2.8,6.4,8.2,34,13.3
	c5.5,1,9.8,3.2,13,6.5l8.9,9.3L836,572.6L836,572.6z"/>
<g class="st3">
	<path class="st15" d="M827.8,530.8c0.1,1.1,0.9,2,1.9,2.1c0.9,0.1,1.6-0.8,1.6-1.9c-0.1-1.1-0.9-2-1.9-2.1
		C828.4,528.9,827.7,529.8,827.8,530.8z M816.4,534.1c0.1,1.1,0.9,2,1.9,2.1s1.7-0.8,1.6-1.9s-0.9-2-1.9-2.1
		C817,532.2,816.3,533,816.4,534.1z"/>
	<path class="st16" d="M823.2,526.5c0,0-3.8,1-5.1,7.8c0,0-1.3-4.2-3.2-5.1"/>
</g>
<path class="st17" d="M836.8,555.9h0.9c-0.1-0.1-10.2-9.4-19.1-12.6c-12.7-4.5-16.7-11.8-16.8-11.8l-0.4,0.1
	c0.1,0.3,4.1,7.9,17.1,12.5C827.2,547.2,836.7,555.8,836.8,555.9z"/>
<path class="st13" d="M847.4,565.6c-2.9,6.7,8.8,9.9,18.6,11.4l0,0l-0.8,1.7c0,0-2.5,4.1,1,14.7c-11.2-1.6-19.2-4.6-21-9.8l-1.4-9.5
	C843.8,574.1,842.8,570.3,847.4,565.6L847.4,565.6z"/>
<path class="st14" d="M904.9,594.5l-0.4-0.4l-8.8-7.8c-3.4-3-7.8-4.8-13.3-5.3c-21.9-2.1-34.2-5.8-36.3-11c-0.3-0.6-0.3-1.3-0.3-1.8
	c0-0.1,0.1-0.3,0.1-0.5c0.2-0.5,0.5-1,0.9-1.4l0.6-0.7l0.2,0.3l-0.2,0.2c-0.5,0.5-1.5,1.9-0.8,3.7c1.1,2.8,7.3,7.8,35.6,10.5
	c5.7,0.5,10.2,2.3,13.7,5.5l9.8,8.7H904.9z"/>
<path class="st18" d="M577.2,736.8L247.4,530.6c0,0,643.6,149.4,745.5,197.8L577.2,736.8L577.2,736.8z"/>
<path class="st19" d="M435.5,641.5l-188-110.9c38.7-82.9,108.5-82.4,108.5-82.4l404.4,54.3L651,650.1l-68.7,77.3L435.5,641.5
	L435.5,641.5z"/>
<path class="st20" d="M435.5,641.5l-188-110.9c12.2-26.2,27.1-43.9,42-55.9c137.7,76.4,352.2,92.7,354.8,91.9l17.7,64l-79.8,96.7
	L435.5,641.5z"/>
<path class="st21" d="M722.1,507.9c211.2-31.6,270.8,220.5,270.8,220.5l-410.7-1.1C582.2,727.4,625.6,522.3,722.1,507.9L722.1,507.9
	z"/>
<path class="st22" d="M607.1,648.3l-172.7-67.9l197.9,44.5l-9.9,24L607.1,648.3L607.1,648.3z"/>
<path class="st23" d="M763.2,531.4c-69.7,0.4-114.7,40.9-162.3,196.2l-11.5-0.2c18.9-64.6,51.2-208,147.7-218.6
	c189-20.7,245.8,219.4,245.8,219.4l-21.7-0.3C961.1,727.9,903,530.6,763.2,531.4z"/>
<path class="st22" d="M252.3,520.8l61.7,49.9l-66.5-40.1L252.3,520.8z M542.5,497.9c-2.3-2.5,53-26.9,64.7-51.7l18.2,33.7
	c0,0-23.3,8.3-21.6,28.4C603.8,508.2,570.2,527.3,542.5,497.9L542.5,497.9z"/>
<path class="st23" d="M607.2,446.2c-5.7,5.4,6.9,49.5,21.9,30.1C637.8,465.1,617.8,438.9,607.2,446.2z"/>
<path class="st21" d="M611.9,453.1c-3.3,3.2,4,28.6,12.7,17.4C629.6,464.1,618.1,448.9,611.9,453.1z"/>
<path class="st24" d="M609.3,467.9l5.8-1l-4.1,4.7l-2.2-0.7L609.3,467.9z"/>
<path class="st23" d="M899.7,726.8c-0.4,0-44.7-123.1-127.2-123.2c-75.1-0.1-96,123.9-96.4,123.9h-28.4c3.7-63.2,33.2-155,119.1-155
	c114.2,0,169.5,154.9,169.6,154.9L899.7,726.8L899.7,726.8z"/>
<g>
	<path class="st22" d="M729.3,514.7c-66.5,6.5-104.7,85.6-139.9,212.8l-7.1-0.1c16.7-69.5,51-220.4,160.1-224.1
		C937.2,496.6,993,728.5,993,728.5l-12.8-0.2C980.2,728.2,923.3,495.6,729.3,514.7L729.3,514.7z"/>
	<path class="st22" d="M610.2,648.5l2.1-16.9l7.4-9.5l24.4,27.7L610.2,648.5z M582.2,727.4L437,641.6l-104.8-61.4
		C364.7,583.2,535,696.8,582.2,727.4L582.2,727.4z M331.6,484.1c0,0,74.8,37.4,224.3,56.2C555.8,540.2,471.7,502.8,331.6,484.1
		L331.6,484.1z M871.6,549.7l-9.4,28.1l18.7-18.7L871.6,549.7z M696,615.1c0,0,56.1-74.9,140.2-9.4C836.2,605.8,761.4,559,696,615.1
		z M650.3,727.4c0,0,18-73.6,54-86.6c0,0-30.5,22.9-30.1,86.7L650.3,727.4L650.3,727.4z M836.2,656.7c0,0,45.3,24.5,58.5,70.2
		C894.6,726.9,896.7,670.6,836.2,656.7z"/>
</g>
<path class="st24" d="M609.3,467.9c0,0-23.4,14.6-30.1,25.5c0,0,23.1-20.6,31.8-21.8L609.3,467.9z"/>
<path class="st25" d="M269.6,520.8c0,0,63.7,53.8,206.3,112.9C475.9,633.7,320.1,555.5,269.6,520.8L269.6,520.8z M270.6,493.4
	c0,0,45.5,37.1,163.8,65.5c0,0-135.1-42.4-158.6-71.5L270.6,493.4L270.6,493.4z"/>
<path class="st26" d="M367.2,457.7c0,0,66.4,16.5,155,29.7C522.3,487.5,480.7,469.6,367.2,457.7z"/>
<g class="st3">
	<path class="st27" d="M732.7,504.4l-96.9-11l86.3,14.5L732.7,504.4z"/>
	<path class="st27" d="M732.7,504.4l8.1,24.6l-18.7-21.1L732.7,504.4z"/>
</g>
<path class="st28" d="M151.7,565.6l2.1-39.4l42.8-4.3l3.7,55.8l-28.5,15.4L151.7,565.6z"/>
<path class="st29" d="M345.2-126.2c-7.1,13.9,5.7,25.3,14,10.8c8.4-14.5,6.7-52.6,6.7-52.6l-14.2,4.6
	C351.7-163.4,352.3-140.1,345.2-126.2"/>
<path class="st30" d="M135.5,615.8c9.3,4.7,48.1,5.6,52.3,10.4c2.7,3-0.3,7.8-0.7,11.7c-2,19,107.8,19.6,159.7,13.1
	c27.3-3.5,31.8-7.7,30.4-13.6c-1.1-4.6-9.4-6.2-14.4-8.3s-10.6-2.9-16.2-3.7c-14.5-2.1-62.3-33.2-65.4-33.4c-29.8-2.3-47.2-2-77.2-2
	C127.8,589.9,121.9,609,135.5,615.8L135.5,615.8z"/>
<path class="st12" d="M233.3,506.8v0.2V506.8z"/>
<path class="st31" d="M290.3,118.5l-111.9,0.1"/>
<path class="st28" d="M318.9-262.2c0,0,26.5,11.9,37.8,41.5c7.8,20.4,2.4,45.6,17.4,40.5s27.2-39.4,1.7-79.9
	c-25.3-40.2-45.1-31.1-45.1-31.1L318.9-262.2z"/>
<g class="st3">
	<path class="st32" d="M291.5-437.9C248.8-491,165.6-608.7,134.3-601c-22.5,5.6,10.5,98,10.5,98c12.1,13.8,58.4,94.1,105.1,134.2
		c22.5,19.3,47.4,42.5,70.1,22.6C339.9-363.7,314.8-409,291.5-437.9L291.5-437.9z"/>
	<path class="st32" d="M178.8-353.3l136.4,92.8c4.3,2.8,9.8,3,14.2,0.2c5.8-3.7,15.3-11.7,19-21.4c1.8-4.8,0.5-10.3-3.2-13.9
		L205.3-429.8C205.3-429.8,141.8-447.3,178.8-353.3z"/>
</g>
<path class="st33" d="M189.9-334.3c-9.6-18.1-56.9-128.8-65.8-151.1c9.2,33.2,25.9,101.2,51.3,144.1c8.4,14.2,17.1,29.7,28,38.7
	l86.3,114.2c3.2,4.1,8.4,6,13.4,4.8c1.4-0.3,2.7-0.7,4.1-1.2C279.4-224.5,201.3-312.6,189.9-334.3L189.9-334.3z"/>
<path class="st34" d="M297.5-613.3c0,0-0.1,8.5-0.9,15.4s-15.9-12.6-15.9-12.6L297.5-613.3L297.5-613.3z"/>
<path class="st35" d="M120.6-197.6c0,0,134.6,40.7,212-6.2c61.7-37.4-212-15.5-212-15.5S120.6-197.6,120.6-197.6z"/>
<path class="st28" d="M186.8-672c8.4,10.5,4.6,31.1-5.6,42c19.1,7.4,46.3,10.6,65.2,2.5c-7.2-8.8-4.7-25.4-3.8-30.3
	c41.6-1.1,62.6,3.9,61.6-32.2c-0.5-17.5-1.8-33.7-4.1-51.1c-2.1-16.1-4.4-37.4-12.3-51.8c-12.8-23.4-57.4-23.9-78.2-14.9
	c-23.5,10.2-40.6,33.6-44.4,59.2C161.4-722.8,170.9-698.1,186.8-672L186.8-672z"/>
<path class="st29" d="M149,564.4c0,0,11.8,23,47,6.2l2,14.1l-22.8,8.1c-1.5,0.5-20.1-0.5-20.1-0.5l-7.9-13.6L149,564.4z"/>
<path class="st36" d="M137.3,594.5c0,0-0.2,3.5,4.7,12c0,0,134.9,12,135.2-6.6l-1.6-7.3c0,0-1.1-9.6-31.8-15
	c-3.7-0.6-7.3-1.6-11-2.8c-8.6-2.8-23.6-8.2-29.4-12.2c-0.9-0.6-2-0.4-2.5,0.3c-2.4,3.7-10.1,12.6-27.8,12.3
	c-12.1-0.2-18.3-5.7-21.3-10.9c-1.8-3.2-7.3-3.3-9.1-0.2C138.4,572.1,133.8,584,137.3,594.5z"/>
<path class="st17" d="M251.1,579.1c-1.3-0.4-11.7-2.3-15.4-3.5c-8.9-2.7-24.4-7.9-30.4-11.8c-0.2-0.1-0.5-0.2-0.7-0.3l-2.6,5
	c0,0,37.9,11.6,43.5,12.1C250.9,581.1,250.8,579.8,251.1,579.1L251.1,579.1z"/>
<g class="st3">
	<path class="st37" d="M213.4,572.4c0.1,0.9-0.6,1.6-1.6,1.6s-1.9-0.8-2-1.7s0.6-1.6,1.6-1.6C212.4,570.8,213.3,571.5,213.4,572.4z
		 M225.8,577.1c0.1,0.9-0.5,1.6-1.5,1.6s-1.8-0.8-2-1.7c-0.1-0.9,0.6-1.6,1.5-1.6C224.8,575.5,225.7,576.2,225.8,577.1z
		 M237.9,580.5c0.1,0.9-0.5,1.6-1.4,1.6s-1.8-0.7-1.9-1.6s0.5-1.6,1.4-1.6S237.7,579.6,237.9,580.5z"/>
	<path class="st38" d="M211.6,572.4c0,0,0.7-5.8,3.1-5.2 M227.2,572.7c-3.4,0.3-3.1,4.4-3.1,4.4s-1.7-5.5-8.4-8.5 M229.7,573.8
		c0,0,4,1.1,6.5,6.7c0,0,0.5-3.4,2.2-4"/>
</g>
<path class="st17" d="M221.2,598.1h-0.9c0.1-0.1,8.9-7.8,17.2-10.1c11.3-3.1,13.6-8.8,13.7-8.8l0.4,0.1c-0.1,0.2-2.2,6.1-13.8,9.4
	C229.6,590.9,221.3,598,221.2,598.1L221.2,598.1z"/>
<path class="st39" d="M205,563.7c-0.8,2.9-6.3,18.2-31.9,18.1c-23-0.1-30.5-11-32.1-14.2c0.6-1.2,1.1-2.3,1.7-3.3
	c1.7-3.1,7.2-3,9.1,0.2c3,5.3,9.2,10.8,21.3,10.9c17.8,0.3,25.4-8.7,27.8-12.3c0.5-0.7,1.6-0.9,2.5-0.3
	C203.9,563,204.4,563.4,205,563.7L205,563.7z"/>
<path class="st17" d="M156.9,598.5h-0.8c0-14.6-16.3-27.5-16.5-27.7l0.3-0.7C140,570.2,156.9,583.5,156.9,598.5z"/>
<path class="st40" d="M205.1,563.8c0,0-14.5,13.9-5.7,15.8C207.9,581.6,205.1,563.8,205.1,563.8z"/>
<path class="st39" d="M275.6,592.6l1.6,7.3c-0.3,19-128.2,16.9-140.6,8.6c-3.6-8,0.7-14.1,0.7-14.1s24.8,11.5,107.4,3.6
	c0,0,32.7-3.4,25.6-11.7C275.3,589.8,275.6,592.6,275.6,592.6L275.6,592.6z"/>
<path class="st13" d="M270.2,586.4c4.6,4.6-4.7,8.1-13.8,9.7l0,0l1.3,1.3c0,0,3.6,2.9,3.6,11.7c12.1-3,15.8-5.5,15.8-9.6l-1.7-7.4
	C275.5,592.1,275.6,589.7,270.2,586.4L270.2,586.4z"/>
<path class="st14" d="M224.4,613l7.5-8.3c2.6-2.9,6.5-4.7,11.7-5.4c24.5-3.6,28.2-7.7,28.4-9.9c0.1-1.3-1.1-2.3-1.6-2.7l-0.2-0.1
	l0.1-0.2l0.7,0.5c0.4,0.3,0.8,0.6,1.1,1c0.1,0.1,0.1,0.2,0.2,0.3c0.2,0.4,0.3,0.9,0.2,1.4c-0.3,4.1-9.6,7.5-28.8,10.3
	c-5.1,0.8-8.9,2.5-11.4,5.3l-6.6,7.4l-0.3,0.4H224.4L224.4,613z"/>
<path class="st28" d="M218.1,594.5l3.1-39.3l46-3.3l3,55.6l-31.1,15L218.1,594.5z"/>
<path class="st31" d="M224.2-126.7L204.7,549c-0.1,2.3-1.5,4.4-3.7,5.2c-12.6,4.9-35.4,6.7-49.4-0.5c-1.7-0.9-2.8-2.6-3-4.5
	l-43.5-669.1L224.2-126.7L224.2-126.7z"/>
<path class="st41" d="M199.2-125.3l-94.1-1.4l43.4,675.9c0.2,1.9,1.3,3.6,3,4.5c1.9,1,11,4.8,24.6,4.8L199.2-125.3L199.2-125.3z"/>
<path class="st42" d="M199.2-36.1l-22.9,591.7"/>
<path class="st31" d="M180.4-111.2L214.9,573c-0.1,2.9,1.5,5.7,4.1,7c10.7,5.3,37,8.3,48.7,3.4c2.4-1,4.1-3.2,4.5-5.7l54.4-743.4
	L180.4-111.2L180.4-111.2z"/>
<path class="st41" d="M180.4-116.1l34.3,688.7c-0.1,2.9,1.5,5.7,4.1,7c1.6,0.8,14.3,5.6,24.9,5.6L259-126.7L180.4-116.1z"/>
<path class="st42" d="M259.1-126.7l-15.3,711.9"/>
<path class="st43" d="M328.9-172.5v25.2c0,0-131.5,84.1-223.9,45.4l-3.6-23.2L328.9-172.5z"/>
<path class="st44" d="M311.9-154.3v16.7l17-9.7v-19.6L311.9-154.3z"/>
<path class="st29" d="M217.1-718.8c0,0-12.3-4.4-11.4-19.2c1-16.6,13.8-15.5,13.8-15.5s-11.4-0.4-12.3,15.6
	C206.3-724.3,217.1-718.8,217.1-718.8L217.1-718.8z M299.9-667.7c-15.1,14.2-62.3,0.1-62.3,0.1l3.9,9.9
	C258.8-656.1,292.9-655.3,299.9-667.7z"/>
<path class="st45" d="M308.2-603.2l-62.3-29.3c-54.2,15.9-59.7-4.6-62-3.7c0,0-48.9,20.4-72.5,67.9c-36,72.6-23.9,445.1-8.5,452.9
	C181.8-75.6,331-155,331.1-165.8c0.3-55.2,5-272-7.3-396.4C320.5-595.8,308.9-601.7,308.2-603.2z"/>
<path class="st33" d="M175.5-554.7c0,0,54.5,17.4,89.2,112.7c27,74,51.2,168.4,44,191.7c-13.6,44.2-174.8,60.1-205,39.4
	c-15.4-10.6-44.1-206.5-13.5-291C119.6-582.9,175.5-554.7,175.5-554.7L175.5-554.7z"/>
<path class="st46" d="M297-252.6c0,0,42.2-49.2,51.4-107c0.8-5.1,0.7-10.2-0.1-15.3l-4.6-22.8c-3.4,23.8-2,65.3-64.7,115.6
	C277.5-280.8,297-252.6,297-252.6L297-252.6z"/>
<path class="st43" d="M126.6-548.5c0,0-29.6-27.4,18.9-32.8s16.2,35.5,16.2,35.5s19.2-37.2-18.2-29.3S126.6-548.5,126.6-548.5z"/>
<path class="st46" d="M126.6-548.5c0,0-30.8-33.8,17.7-39.2s16.2,35.5,16.2,35.5s19.2-37.2-18.2-29.3S126.6-548.5,126.6-548.5z"/>
<path class="st45" d="M156-209.2c0,0,9.3,27.5,8.7,34.4c-0.5,6.9-22.4,23.2-38.3,19.1s-21.2-62.9-21.2-62.9L156-209.2L156-209.2z"/>
<path class="st47" d="M156-172.1c0,0,5.7-1.7-31-80.5l-13.6,0.8l10.4,83.7c0,0,14.5,2.5,15.8,2.2C138.8-166.1,156-172.1,156-172.1z"
	/>
<path class="st46" d="M81.7-240.1c0,0,10.5,39.8,26.4,71.8c5.3,10.7,18.1,15.5,29.1,10.7c6.7-3,13.7-7.5,18.8-14.5
	c0,0-17.5-1.4-41.6-77.7L81.7-240.1z"/>
<path class="st48" d="M97.2-506.9c0,0-24-5.3-5.9-25.2s17.4-21.7,30.2-15.7L97.2-506.9z"/>
<path class="st49" d="M72.2-238.3C18.8-536.4,131-565.8,149-561.9c23.5-3.1,106.4,41.7,155.1,297.2c2.2,11.7-3.7,23.6-14.5,28.7
	c-17.9,8.5-50.7,20.8-104.6,30.6C90.1-188.1,75-222.5,72.2-238.3L72.2-238.3z"/>
<path class="st50" d="M82.9-442.5c0,0,47.2,0.2,97.3-17.1c0,0,9.9,20.7,10.1,31.5c0,0-79.2,25.8-102.3,13.9L82.9-442.5L82.9-442.5z
	 M87.2-320.1c0,0,89.1-30.4,133.3-18.6c0,0,5.1,52.8,19.9,79.5c0,0-39.7,26.8-84.5,29.3s-53.8-8.5-53.8-8.5S83.6-274.9,87.2-320.1
	L87.2-320.1z"/>
<path class="st46" d="M88.3-341.3c1.8-1.4,58.5,7.5,124.5-17.5c0,0,10.3-1,14.5,22.2c0,0-70.7,31.8-148.6,18.4
	C78.8-318.2,75.9-331.4,88.3-341.3z"/>
<path class="st48" d="M343.7-397.6c0,0-2.8,58.9-46.4,99.7v5.4C297.3-292.5,345.1-334.4,343.7-397.6L343.7-397.6z M349-363.5
	c0,0-7,53.8-50.2,102.4l5.8-0.4C304.5-261.5,345.5-314.7,349-363.5L349-363.5z"/>
<path class="st46" d="M106-240.1c0,0-16.8-16.8-19.3-63.6c0,0-4.4,36.1,13.6,70c0,0,67,31.4,140-25.5
	C240.3-259.3,156.6-214.3,106-240.1L106-240.1z M82.7-444.3c0,0-3,25.4,6.1,33.4c0,0,36.3,6.9,102.1-14.4c0,0,1.1-19.1-10.6-34.3
	c0,0,6.4,25.3,3,28.9c0,0-46,20.6-91.8,14.7C91.4-415.9,84.9-423.9,82.7-444.3L82.7-444.3z M242.1-218.6
	c14.9-4.8,39.3-13.5,47.5-17.4c10.8-5.1,16.7-16.9,14.5-28.7C255.4-520.2,172.5-565,149-561.9c-9.9-2.2-48.5,5.8-72.1,63.4l0,0
	c0,0,13.9-30.6,47.7-36.7c45.8-8.4,69.8,27.5,94.1,90.6c24,62.3,48.2,153.9,52.7,181.3C275.4-238.7,255.1-222.7,242.1-218.6
	L242.1-218.6z"/>
<path class="st43" d="M181.2-631.1c0,0,7.9,18.6,66.8,4.6C248-626.5,189.2-607,181.2-631.1z"/>
<path class="st51" d="M184.2-667.5c-4.8-15-24.1-59.1-34.6-96.2c-6.7-23.4,3.6-48.2,24.7-60.2C212.7-845.8,262-873.6,288-869
	c38.7,6.9,23.9,58.7-6.9,82.1c-22.5,17.1-35.5,2.1-41.9,14.6c-4.7,9,14.9,12,6.5,24.9c-9.1,14-9.8-12.1-25.4-12.1
	s-24.4,24.5-12.9,37.6c7,8,11.8,12.4,19.1,19.7c5.6,5.6,6,14.6,0.9,20.6c-6,7.1-16.8,15.1-35.8,18.5
	C188.4-662.5,185.2-664.4,184.2-667.5L184.2-667.5z"/>
<path class="st52" d="M288-869.1c-7.2-1.3-16.2-0.1-26.2,2.8c0.1,0,64.8-5.8,26,73.4h0.1C313.9-818.1,323.8-862.7,288-869.1z"/>
<path class="st48" d="M133.4-200.7c0,0,12.5,26.1,22.7,28.6l-1.9,2.4c0,0-15.2-6.5-23.6-31.2L133.4-200.7z M106.2-172.3
	c-5.9-11.3-15.6-39.2-15.6-39.2l3.5,2c0.2,0.1,15.7,51.9,32,53.6c0,0-7.3,0-13-5.9C107.4-167.5,106.2-172.3,106.2-172.3L106.2-172.3
	z"/>
<circle class="st53" cx="139.4" cy="-378.2" r="21.2"/>
<g class="st3">
	<path class="st54" d="M122.6-381.5c-0.5-0.2-0.8-0.4-1.2-0.8c-0.3-0.4-0.5-0.8-0.6-1.3s0-1,0.1-1.4c0.2-0.4,0.5-0.8,0.8-1.1
		c0.4-0.3,0.9-0.5,1.4-0.6s1-0.1,1.5,0.1s0.8,0.4,1.2,0.8c0.3,0.4,0.5,0.8,0.6,1.3s0,1-0.1,1.4c-0.2,0.4-0.5,0.8-0.8,1.1
		c-0.4,0.3-0.8,0.5-1.4,0.6C123.6-381.3,123.1-381.4,122.6-381.5z M124.8-383.2c0.2-0.3,0.3-0.7,0.2-1.1c-0.1-0.4-0.2-0.8-0.5-1
		s-0.6-0.3-1-0.2s-0.7,0.2-0.9,0.5s-0.3,0.7-0.2,1.1s0.3,0.8,0.5,1c0.3,0.2,0.6,0.3,1,0.2C124.3-382.7,124.6-382.9,124.8-383.2z
		 M132-387.5c0.5,0.3,0.7,0.8,0.9,1.6l0.5,2.9l-1.5,0.2l-0.4-2.7c-0.1-0.4-0.2-0.7-0.4-0.9s-0.5-0.2-0.8-0.2
		c-0.4,0.1-0.7,0.2-0.8,0.5c-0.2,0.3-0.2,0.6-0.2,1.1l0.4,2.5l-1.5,0.2l-0.8-5.1l1.4-0.2l0.1,0.6c0.2-0.2,0.4-0.5,0.6-0.6
		c0.3-0.2,0.6-0.3,0.9-0.3C131-388,131.5-387.9,132-387.5z M139.6-386.3l-3.9,0.6c0.1,0.3,0.3,0.5,0.6,0.7c0.3,0.1,0.6,0.2,1,0.1
		c0.3,0,0.5-0.1,0.7-0.2s0.4-0.3,0.5-0.5l0.9,0.7c-0.4,0.6-1,1-2,1.2c-0.6,0.1-1.1,0.1-1.6-0.1s-0.9-0.4-1.2-0.8s-0.5-0.8-0.6-1.3
		s0-1,0.1-1.4c0.2-0.4,0.4-0.8,0.8-1.1s0.8-0.5,1.3-0.6s1,0,1.4,0.1s0.8,0.4,1.1,0.8s0.5,0.8,0.6,1.3
		C139.5-386.6,139.5-386.5,139.6-386.3L139.6-386.3z M135.8-387.3c-0.2,0.2-0.3,0.5-0.3,0.8l2.5-0.4c-0.1-0.3-0.3-0.5-0.5-0.7
		c-0.3-0.2-0.6-0.2-0.9-0.2C136.3-387.7,136-387.5,135.8-387.3L135.8-387.3z M126.3-373.4c-0.1,0.1-0.3,0.2-0.5,0.3
		s-0.4,0.2-0.7,0.2c-0.6,0.1-1.1,0-1.5-0.2c-0.4-0.3-0.6-0.7-0.7-1.3l-0.3-2.1l-0.8,0.1l-0.2-1.1l0.8-0.1l-0.2-1.2l1.5-0.2l0.2,1.2
		l1.3-0.2l0.2,1.1l-1.3,0.2l0.3,2.1c0,0.2,0.1,0.4,0.2,0.5s0.3,0.1,0.5,0.1s0.4-0.1,0.6-0.3L126.3-373.4z M134.7-379.8l-1,5.4
		l-1.4,0.2l-1.7-3l-0.7,3.4l-1.4,0.2l-2.7-4.8l1.4-0.2l1.8,3.3l0.7-3.7l1.3-0.2l1.8,3.3l0.7-3.7L134.7-379.8L134.7-379.8z
		 M137.2-375.2c-0.5-0.2-0.8-0.4-1.2-0.8c-0.3-0.4-0.5-0.8-0.6-1.3s0-1,0.1-1.4c0.2-0.4,0.5-0.8,0.8-1.1c0.4-0.3,0.9-0.5,1.4-0.6
		s1-0.1,1.5,0.1s0.8,0.4,1.2,0.8c0.3,0.4,0.5,0.8,0.6,1.3s0,1-0.1,1.4c-0.2,0.4-0.5,0.8-0.8,1.1c-0.4,0.3-0.8,0.5-1.4,0.6
		C138.2-375,137.7-375.1,137.2-375.2z M139.4-376.9c0.2-0.3,0.3-0.7,0.2-1.1c-0.1-0.4-0.2-0.8-0.5-1s-0.6-0.3-1-0.2
		s-0.7,0.2-0.9,0.5c-0.2,0.3-0.3,0.7-0.2,1.1c0.1,0.4,0.3,0.8,0.5,1c0.3,0.2,0.6,0.3,1,0.2C138.9-376.4,139.2-376.6,139.4-376.9z
		 M125.3-365.2c-0.5-0.2-0.9-0.4-1.2-0.8s-0.5-0.8-0.6-1.3s0-1,0.1-1.4c0.2-0.4,0.5-0.8,0.9-1.1s0.9-0.5,1.4-0.6s1-0.1,1.5,0.1
		c0.4,0.2,0.8,0.4,1,0.8l-1,0.8c-0.3-0.4-0.8-0.6-1.3-0.5c-0.4,0.1-0.7,0.2-0.9,0.5c-0.2,0.3-0.3,0.7-0.2,1.1c0.1,0.4,0.3,0.8,0.6,1
		s0.6,0.3,1,0.2c0.5-0.1,0.8-0.4,1-0.9l1.3,0.4c-0.1,0.4-0.4,0.8-0.7,1.1c-0.4,0.3-0.8,0.5-1.4,0.6
		C126.3-365,125.8-365.1,125.3-365.2L125.3-365.2z M134-371.1c0.5,0.3,0.8,0.8,0.9,1.6l0.5,2.9l-1.4,0.2l-0.1-0.6
		c-0.2,0.5-0.7,0.8-1.4,1c-0.4,0.1-0.7,0.1-1.1,0c-0.3-0.1-0.6-0.2-0.8-0.4s-0.3-0.5-0.4-0.8c-0.1-0.5,0-0.9,0.4-1.2
		c0.3-0.3,0.8-0.6,1.6-0.7l1.2-0.2c-0.1-0.3-0.2-0.6-0.4-0.7s-0.5-0.2-0.9-0.1c-0.3,0-0.5,0.1-0.8,0.3c-0.2,0.1-0.5,0.3-0.6,0.5
		l-0.7-0.9c0.2-0.2,0.6-0.4,0.9-0.6c0.4-0.2,0.8-0.3,1.2-0.4C132.8-371.5,133.5-371.4,134-371.1L134-371.1z M133.3-367.4
		c0.2-0.1,0.3-0.3,0.3-0.6l-0.1-0.5l-1,0.2c-0.6,0.1-0.9,0.3-0.8,0.7c0,0.2,0.1,0.3,0.3,0.4s0.4,0.1,0.6,0.1
		C132.9-367.1,133.1-367.2,133.3-367.4L133.3-367.4z"/>
	<g class="st55">
		<path id="B" class="st56" d="M138.9-372.3c0.3-0.2,0.6-0.3,1-0.4l0.2,1.4h-0.3c-0.4,0.1-0.7,0.2-0.9,0.5c-0.2,0.3-0.3,0.7-0.2,1.1
			l0.4,2.4l-1.5,0.2l-0.8-5.1l1.4-0.2l0.1,0.7C138.4-371.9,138.6-372.1,138.9-372.3z"/>
	</g>
	<path class="st54" d="M147-370.7l-3.9,0.6c0.1,0.3,0.3,0.5,0.6,0.7c0.3,0.1,0.6,0.2,1,0.1c0.3,0,0.5-0.1,0.7-0.2s0.4-0.3,0.5-0.5
		l0.9,0.7c-0.4,0.6-1,1-2,1.2c-0.6,0.1-1.1,0.1-1.6-0.1s-0.9-0.4-1.2-0.8s-0.5-0.8-0.6-1.3s0-1,0.1-1.4c0.2-0.4,0.4-0.8,0.8-1.1
		s0.8-0.5,1.3-0.6s1,0,1.4,0.1s0.8,0.4,1.1,0.8s0.5,0.8,0.6,1.3C147-371.1,147-371,147-370.7L147-370.7z M143.3-371.8
		c-0.2,0.2-0.3,0.5-0.3,0.8l2.5-0.4c-0.1-0.3-0.3-0.5-0.5-0.7c-0.3-0.2-0.6-0.2-0.9-0.2C143.8-372.2,143.5-372,143.3-371.8
		L143.3-371.8z M153.9-371.9l-3.9,0.6c0.1,0.3,0.3,0.5,0.6,0.7c0.3,0.1,0.6,0.2,1,0.1c0.3,0,0.5-0.1,0.7-0.2s0.4-0.3,0.5-0.5
		l0.9,0.7c-0.4,0.6-1,1-2,1.2c-0.6,0.1-1.1,0.1-1.6-0.1s-0.9-0.4-1.2-0.8s-0.5-0.8-0.6-1.3s0-1,0.1-1.4c0.2-0.4,0.4-0.8,0.8-1.1
		s0.8-0.5,1.3-0.6s1,0,1.4,0.1s0.8,0.4,1.1,0.8s0.5,0.8,0.6,1.3C153.9-372.2,153.9-372.1,153.9-371.9L153.9-371.9z M150.2-372.9
		c-0.2,0.2-0.3,0.5-0.3,0.8l2.5-0.4c-0.1-0.3-0.3-0.5-0.5-0.7c-0.3-0.2-0.6-0.2-0.9-0.2C150.6-373.3,150.4-373.2,150.2-372.9
		L150.2-372.9z"/>
	<g class="st55">
		<path id="B_1_" class="st56" d="M157.4-375.4c0.3-0.2,0.6-0.3,1-0.4l0.2,1.4h-0.3c-0.4,0.1-0.7,0.2-0.9,0.5
			c-0.2,0.3-0.3,0.7-0.2,1.1l0.4,2.4l-1.5,0.2l-0.8-5.1l1.4-0.2l0.1,0.7C156.9-375,157.1-375.2,157.4-375.4z"/>
	</g>
</g>
<path class="st57" d="M238.2-480.3c0,0-18.7-95.8,57.9-129.2l-28.6-15.6l-54.6,106.5L238.2-480.3z"/>
<path class="st46" d="M225.8-471.1l-18.3-37.2c0,0-7.2-77.6,59.1-117.4c0,0,8.2-0.3,30,11.1c2.2,1.2,1.9,4.5-0.6,5.1
	C277.1-604.8,237.2-587.3,225.8-471.1L225.8-471.1z"/>
<path class="st48" d="M210.2-519.6l-2.9-3.4c0,0,0-68.3,59.4-102.7l3.8,0.2C270.5-625.5,212.9-590.7,210.2-519.6z M228.5-492.4
	c0,0,11.3-104.9,67.5-117.1c2.6-0.6,3.1-4.2,0.7-5.4h-0.1c0,0-55,6-70.8,119L228.5-492.4z"/>
<path class="st28" d="M346.7-167.6c0,0,15.5,24.5,8.5,55.5c-4.8,21.3-23.2,39.3-7.9,43.4s44.4-17.8,45.6-65.6
	c1.2-47.4-20.4-50.9-20.4-50.9L346.7-167.6L346.7-167.6z"/>
<g class="st3">
	<path class="st32" d="M344.6-380.1c-6.2-67.8-10.4-211.9-40.7-222.8c-21.9-7.8-45.5,87.4-45.5,87.4c2.5,18.2-3.4,110.7,13.3,169.9
		c8.1,28.6,16,61.6,45.9,57.6C343.8-291.4,347.9-343.1,344.6-380.1L344.6-380.1z"/>
	<path class="st32" d="M280.5-321l62.2,152.8c2,4.7,6.6,7.9,11.7,8c6.9,0.2,19.2-1.2,27.7-7.3c4.2-3,6.1-8.3,5-13.4l-42.2-189.2
		C344.8-370.1,301.7-419.8,280.5-321L280.5-321z"/>
</g>
<path class="st33" d="M283.8-334.7c-4.6-20-21.9-139.1-24.7-162.9c0.3,34.4-1,104.4,12.6,152.5c4.5,15.9,8.9,33.1,17.1,44.6
	l54,132.6c2,4.7,6.6,7.9,11.7,8c1.2,0,2.7,0,4.2-0.1C342.2-205.6,289.3-310.8,283.8-334.7L283.8-334.7z"/>
<path class="st43" d="M259.2-504.1c0,0,14.8-107,48.9-99.1C308.2-603.2,266-629.5,259.2-504.1z"/>
<path class="st44" d="M347.8-165.8c0,0,24.2,4.9,35.7-11.4C383.5-177.2,369.9-166.4,347.8-165.8z"/>
<path class="st36" d="M203.7,623c0,0,1.4,7.2,5.6,15.8c0,0,149.9,18.5,156.4-4.1l0.3-9.4c0,0,1.8-12.6-40-20
	c-4.8-0.8-9.4-2.1-14-3.6c-10.5-3.6-28.4-10.2-34.8-15.2c-0.9-0.7-2.4-0.5-3.1,0.4c-3.4,4.7-13.6,15.7-33.2,15.4
	c-12.8-0.2-18.9-6.5-21.8-12.6c-1.7-3.7-7.4-3.7-9.2-0.1C205.3,598.8,200.6,611.8,203.7,623L203.7,623z"/>
<path class="st39" d="M366,625.4l-0.3,9.4c-5.3,21.3-155.8,11.6-159.6,6.8c-4.8-10.1-2.4-18.6-2.4-18.6c5,4.7,9.1,8.3,83.8,8.7
	c10.9,0.1,23.3-1.4,37.5-1.4c0,0,42.8-2.2,35.3-13.2C366.5,621.6,366,625.4,366,625.4z"/>
<path class="st17" d="M331.2,606.3l-5.2-1c-4.8-0.8-9.4-2.1-14-3.6c-10.5-3.6-28.4-10.2-34.8-15.2c-0.2-0.2-0.5-0.3-0.8-0.4l-1,8
	c0,0,40.8,13.4,47.8,14.1C330.2,609,331.2,606.3,331.2,606.3L331.2,606.3z"/>
<path class="st13" d="M360.3,617c4.5,6.6-9.1,10-20.7,11.7l0,0l1.3,1.6c0,0,3.7,4,1.2,14.4c13.2-1.8,22.2-5,23.7-10.1l0.3-9.4
	C366,625.4,366.5,621.6,360.3,617z"/>
<path class="st14" d="M293.7,646.9l10.6-8.9c3.8-3.2,9-5.1,15.9-5.8c34-3.3,40.6-8.4,41.6-11.2c0.6-1.7-0.8-3.1-1.5-3.6l-0.2-0.2
	l0.3-0.3l0.9,0.7c0.5,0.4,0.9,0.9,1.3,1.4c0.1,0.2,0.2,0.3,0.2,0.5c0.1,0.5,0.1,1.1-0.1,1.8c-1.8,5.2-16,9.2-42.3,11.7
	c-6.7,0.6-11.8,2.5-15.5,5.6l-9.4,7.9L295,647L293.7,646.9L293.7,646.9z"/>
<g class="st3">
	<g class="st55">
		
			<ellipse transform="matrix(0.9972 -7.443792e-02 7.443792e-02 0.9972 -43.7649 22.9194)" class="st58" cx="285.6" cy="598.6" rx="2.2" ry="2.1"/>
		
			<ellipse transform="matrix(0.9972 -7.443792e-02 7.443792e-02 0.9972 -44.1637 24.0226)" class="st58" cx="300.2" cy="604.5" rx="2.2" ry="2.1"/>
		
			<ellipse transform="matrix(0.9972 -7.443792e-02 7.443792e-02 0.9972 -44.4497 25.1442)" class="st58" cx="315.1" cy="608.9" rx="2.2" ry="2.1"/>
	</g>
	<path class="st59" d="M285.6,598.6c0,0,1.9-7.3,4.8-6.7 M305.1,598.9c-4.4,0.4-4.9,5.6-4.9,5.6s-1-7-8.9-10.7 M308.1,600.3
		c0,0,4.9,1.4,7,8.5c0,0,1.4-4.3,3.8-5.1"/>
</g>
<path class="st39" d="M279,587.8c-1.4,3.7-10.2,22.5-38.7,22c-23.7-0.4-30.7-12.6-32.3-16.2c0.6-1.3,1.2-2.6,1.8-3.9
	c1.9-3.7,7.5-3.6,9.2,0.1c2.9,6.1,8.9,12.4,21.8,12.6c19.7,0.3,29.8-10.7,33.3-15.4c0.7-1,2.1-1.2,3.1-0.4
	C277.7,586.9,278.3,587.3,279,587.8L279,587.8z"/>
<path class="st17" d="M290.3,631.3h-1.2c0.1-0.1,11.9-10.6,22.7-13.7c15.4-4.4,18.9-11.3,18.9-11.4l0.8,0.3
	c-0.1,0.3-3.6,7.3-19.4,11.8C301.4,621.3,290.4,631.2,290.3,631.3L290.3,631.3z M224.7,629.5h-0.8c-0.4-15.5-17.5-31.5-17.7-31.6
	l0.3-0.8C206.8,597.2,224.3,613.6,224.7,629.5L224.7,629.5z"/>
<path class="st60" d="M281.3,589.9c0,0-29.8,8.3-21,16.4C269.1,614.3,281.3,589.9,281.3,589.9z"/>
<path class="st11" d="M414.1,794.8c-40.8-40.4-90.4-49-145.3-32.8c-11.2-78.1-52.2-125.5-130.4-138.2c-5.8-0.9-13-11.3-14.4-18.3
	c-14.6-72.6-59.7-124-123-143.6v338.4h418.4C417.7,798.5,416,796.6,414.1,794.8z"/>
<path class="st5" d="M95.6,646.1c-3.4,0.8-6.7,1.8-9.9,3c-4.4-4.4-9.3-8.1-14.7-11.2c2.4-9.9,3.6-20.2,3.6-30.8
	c0-51.9-30-96.8-73.6-118.3v271.5c6.8,3.9,14.2,6.6,22,8.1c3.1,11.8,8.3,22.5,14.9,31.9h162.5c16-22.7,22.5-51.9,15.4-81.1
	C202.9,665.9,149,633.1,95.6,646.1L95.6,646.1z"/>
</svg>
