<svg xmlns="http://www.w3.org/2000/svg" xmlns:xlink="http://www.w3.org/1999/xlink" viewBox="0 0 1387.7 656.6" xmlns:v="https://vecta.io/nano"><style><![CDATA[.B{fill:#e9ca25}.C{fill:#4e9da3}.D{fill:#84cb66}.E{fill:#75aeb9}.F{fill:#ffdf57}.G{fill:#f9e698}.H{fill:#fff}.I{fill:#a099e9}.J{fill:#91bec7}.K{fill:#96cd7c}.L{fill:#abd796}.M{fill:#b3b3b3}.N{fill:#a7a6f6}.O{fill:#bebefc}.P{fill:none}.Q{stroke-miterlimit:10}.R{fill:#749898}.S{fill:#f7ba99}.T{fill:#f15128}.U{fill:#575757}.V{fill:#e6e6e6}.W{fill:#252b31}.X{fill:#beceda}.Y{fill:#9ad17d}.Z{fill:#65a14b}.a{fill:#c9c8c8}.b{stroke-linejoin:round}.c{fill:#333}.d{fill:#828e9a}.e{fill:#1a1a1a}.f{fill:#a66c78}.g{stroke-linecap:round}.h{fill:#4d4d4d}.i{fill:#a67c52}.j{fill:#878787}.k{fill:#f4bb83}.l{fill:#6b2379}.m{fill:#90adad}.n{fill:#70ab54}.o{fill:#a42a0b}.p{fill:#6ba152}.q{fill:#7d5d3e}.r{fill:#5e462f}.s{fill:#598787}.t{stroke-width:.186}.u{fill:#51555a}.v{fill:#474747}.w{fill:#b36058}.x{stroke:#666}.y{fill:#d18358}.z{fill:#75b358}.AA{fill:#875862}.AB{fill:#876f2d}.AC{fill:#58838b}.AD{fill:#7e4628}.AE{fill:#e1a98b}.AF{fill:#ff882a}.AG{fill:#595959}.AH{stroke:#252b31}.AI{stroke-width:.045}.AJ{fill:#deaa77}.AK{fill:#4d7a23}.AL{stroke-width:.405}.AM{stroke-width:.093}]]></style><path fill="#c5e5e5" d="M0 0h1387.7v656.6H0z"/><g class="H"><path opacity=".2" d="M1078.2 211l307.5-20.6.3 17v-43.9l-1387.9-.1L-.3 546l1386.3-.5V225.9z"/><path opacity=".45" d="M1092.1 104.5c0-6.8 2.8-11.9 9.1-14.6 5.2-2.2 10.5-1.1 15.8 3.4 3-4.1 7-6 12-4.5 4.9 1.5 7.2 5.2 7.5 10.3 5.3 0 9 2.4 10.6 7.6 7.4-5.2 16.9-3.7 21.6 5 1.8-.2 3.6-.6 5.3-.5 3.6.2 6.5 1.9 8.7 4.9.7.9 1.2 1.4 2.5 1.5 2.8.1 4.5 2 4.9 5.1h-117.9c-.2-3.2 1.9-5.7 5.3-6.6.6-.2 1.6-.6 1.7-1.1 2-6.2 6.3-9.6 12.9-10.5z"/></g><path fill="#dcefef" d="M15.3 98.5c-.1-7.4 5.1-10.7 14.7-9.4.4-5.1 2.3-9.4 6.9-12.1 1.4-.8 3-1.7 4.6-1.7 2.7-.1 3.7-1.2 4.4-3.8 3.3-10.9 14.2-18 25.4-16.8C82.8 55.9 92 64.9 93.1 76.4c.2 1.7.6 2.5 2.3 3.1 5.4 1.9 9.2 5.7 11.7 10.7 9.2-1.1 13.3 1.3 13.8 8.2l-105.6.1z"/><path opacity=".45" d="M350.3 118.9c.6-3.4 3.7-6 7.4-6.3 1.2-.1 1.9-.4 2.5-1.6 1.2-2.3 3.1-3.9 5.6-4.8.9-.3 1.2-.8 1.1-1.8-.1-5.6 3.3-9.2 8.9-9.6.7-.1 1.6-.8 2.1-1.5 5.7-8.3 16.2-11.3 24.9-6.6 2.5 1.3 4.5 3.5 6.6 5.5.8.7 1.3 1.3 2.5 1.2 2.7-.1 5.2.6 7.4 2.3.8.6 1.3.6 2.1.1.6-.4 1.5-.7 2.1-.6 2.1.4 3.9-.5 5.8-1 8.6-2.4 17.4 1 22.3 8.6.6.9 1.2 1.2 2.2 1.2 4.5-.3 8.1 1.3 10.9 4.9.3.4 1.2.6 1.7.5 4-.6 7.1.7 9.5 4 .4.5 1.2.9 1.9 1 2.5.4 4.3 2.1 4.4 4.6l-131.9-.1zm1035.5-59.5l-267.1 8.1 267.9 8zm-993 8.3l434-10.6 217.7 10.6-434.7 9.8zm995-51.4L784.2 34.1l602.4 17.7z" class="H"/><path d="M295.4 277.3h521s-220.6-164-242.3-164c-8.8 0-35.3 13-63.5 28.4L295.4 277.3z" class="M"/><path d="M670.3 172.1c-46.1-32-87.4-58.8-96.2-58.8s-35.3 13-63.5 28.4l-39.9 25.1 51.7 2.2-7.7-6 24-7.5 3.8 39.8 15.3-22 10.2 18.1 23.4 8.6-7.1-33.5 15.6-2.1 15.4 24.3-3.8-37.8 26.9 49.2 15.7-8.6-19.1-24.9 35.9 6.7-.6-1.2z" class="V"/><path d="M1232.3 152.8h5.9V194h-5.9z" class="R"/><path fill="#6f9191" d="M1355 382.2h-33V222.1l33-44z"/><path d="M1288.8 240.7h44.2V343h-44.2z" class="R"/><g class="m"><path d="M1344.2 262.5h43.5v119.7h-43.5zm-67.6 26.1h-27v-72.1l27 17.7z"/><path d="M1263.1 235.1h-13.5V199l13.5 8.9z"/></g><path d="M1124 374.9h-40.3V267.2l40.3-26.4zm-63.6-23.1h-26.5v-70.6l26.5-17.4z" fill="#6f9191"/><path d="M1224.4 167.6h17.3V309h-17.3z" class="R"/><path d="M1111.3 277.9h44.2v97.9h-44.2zm98.7-31.5h36.7V345H1210zm76.3 92.3h-36.7v-98l36.7 24z" class="m"/><g fill="#a6bdbd"><path d="M1232.1 314.1H1333v47.7h-100.9z"/><path d="M1180.3 280.8h55.9v81h-55.9z"/></g><path d="M1166.1 248.1h19.7v143.6h-19.7zm-109.8 35.1h19.7v101.5h-19.7zm-27.9 5.1h18.7v96.4h-18.7z" class="m"/><path d="M1111.3 328.2h44.2v5.9h-44.2zm0-50.3h44.2v5.9h-44.2zm0 23.9h44.2v5.9h-44.2z" class="R"/><path fill="#a6bdbd" d="M1131.1 285.4h35v104.3h-35z"/><path d="M1286.3 264.7l-36.7-24v5.8l36.7 22.8zm-9.7-30.5v3.9l-27-16.5v-5.1z" class="R"/><path opacity=".45" d="M-.9 0l552.1 14.3L.3 34z" class="H"/><path d="M1118 416.7s28.4 10.5 74.3-10.8" class="z"/><path d="M1387.7 656.6H0V302.4c124.9 0 132.9-175.8 348.2-175.8 111.1 0 173.3 103.6 225.7 103.6 94.3 0 135.2-35.9 252-35.9 234.4 0 223.2 145.9 348.3 194.1 51.7 19.9 94.9-5.1 213.5-5.1" class="n"/><path d="M580.3 243.4c52.3-.2 55.7-16.3 115.4-32-38.2 9.3-72.8 18.9-121.7 18.9-22.9 0-50.1-19.8-81.7-42.1h0c-.1 0 51 55.3 88 55.2zm122.5-33.8l-1.4.3 1.4-.3z" fill="#669c4c"/><path d="M677.2 132.6c-3.3 2.7-10.4 4.2-13.1.9s-.1-10 3.2-12.8c3.3-2.7 8.2-2.3 10.9 1a7.85 7.85 0 0 1-1 10.9z" class="N"/><path d="M664.4 133.2l-2.1.3 1.5 1.7zm12.8-.6c3-2.5 3.6-6.8 1.6-10h0s3.7 11.2-12.4 12.4c3.3 1.1 8.2-.2 10.8-2.4z" class="I"/><path d="M668.9 122.6c-2.1 1.5-3.2 3.5-3.7 2.7-.5-.7.7-2.6 2.8-4.1s4.2-2.1 4.7-1.4c.5.8-1.7 1.3-3.8 2.8z" class="O"/><path d="M695.1 126.8c-1.8 2.2-6.3 4-8.5 2.2s-1.2-6.5.6-8.7 5.1-2.5 7.2-.7c2.2 1.8 2.5 5 .7 7.2z" class="E"/><path d="M686.8 128.7l-1.3.4 1.1 1zm8.3-1.9c1.7-2 1.5-4.9-.1-6.7h0s3.8 6.9-6.6 9.6c2.3.3 5.3-1.2 6.7-2.9z" class="C"/><path d="M689.8 120.3c-1.3.6-2 1.6-2.3 1.1s.6-1.5 1.8-2.1 2.5-.6 2.8-.1-1.1.6-2.3 1.1z" class="J"/><path d="M683.2 151.7c-2.7 2.2-8.5 3.4-10.7.8s-.1-8.2 2.6-10.4 6.7-1.9 8.9.8c2.2 2.5 1.9 6.5-.8 8.8z" class="K"/><path d="M672.8 152.1l-1.7.3 1.2 1.4z" class="Y"/><path d="M683.2 151.7c2.4-2 2.9-5.5 1.3-8.2h0s3 9.2-10.1 10.2c2.8.8 6.7-.3 8.8-2z" class="D"/><path d="M676.6 143c-1.4.9-2.2 2.2-2.5 1.6s.5-1.7 1.9-2.6 2.8-1.2 3.2-.7-1.2.8-2.6 1.7z" class="L"/><path d="M667.7 166.6c-1.4 1.9-5.1 3.5-7 2.1s-1.3-5.4.2-7.3 4.1-2.2 6-.8 2.2 4.1.8 6z" class="N"/><path d="M660.9 168.5l-1.1.4 1 .7zm6.8-1.9c1.3-1.7 1.1-4.1-.3-5.6h0s3.4 5.6-5.2 8.2c1.9.2 4.4-1.1 5.5-2.6z" class="I"/><path d="M663.5 161.3c-1.3.3-2.2 1.2-2.3.6s.8-1.3 2.1-1.6 2.4-.1 2.6.4-1.1.2-2.4.6z" class="O"/><path d="M665 150.7c-2.2 1.4-6.5 1.8-8-.3-1.4-2.2.6-6 2.8-7.5s5.1-.8 6.5 1.3c1.4 2.2.8 5.1-1.3 6.5z" class="F"/><path d="M657.3 150.2H656l.7 1.2zm7.7.5c2-1.3 2.6-3.8 1.6-5.9h0s1.5 7-8.3 6.6c2 .9 5 .4 6.7-.7z" class="B"/><path d="M661.7 143.6c-1.1.2-2 .9-2.1.4s.8-1.1 1.9-1.3 2.1 0 2.2.5-.8.2-2 .4z" class="G"/><path d="M727.4 155c-1.8 2.1-6.1 3.8-8.2 2.1-2.1-1.8-1.2-6.3.6-8.5 1.8-2.1 4.9-2.4 7-.6s2.3 4.9.6 7z" class="K"/><path d="M719.4 156.8l-1.3.4 1.1 1zm8-1.8c1.6-1.9 1.5-4.7-.1-6.5h0s3.6 6.7-6.4 9.3c2.2.3 5.1-1.1 6.5-2.8z" class="D"/><path d="M721 149c-.9.8-1.3 1.9-1.7 1.5-.3-.3.2-1.3 1.1-2.1s1.9-1.2 2.2-.9-.7.7-1.6 1.5z" class="L"/><path d="M719.2 169.5c-1.6 1.9-5.6 3.5-7.5 1.9s-1.1-5.8.5-7.7 4.5-2.2 6.4-.5c1.9 1.5 2.2 4.4.6 6.3z" class="E"/><path d="M711.9 171.1l-1.2.4 1 .8zm7.3-1.6c1.5-1.7 1.4-4.3-.1-5.9h0s3.3 6.1-5.9 8.4c2.1.3 4.7-1 6-2.5z" class="C"/><path d="M714.7 163.5c-1.1.3-1.8 1.1-1.9.6s.6-1.1 1.6-1.5c1.1-.3 2-.3 2.2.2.1.6-.9.4-1.9.7z" class="J"/><path d="M741.5 167.8h-1.4l.8 1.2z" class="Y"/><path d="M749.7 168.8c-2.4 1.4-7.1 1.6-8.5-.8s1-6.4 3.4-7.8 5.5-.6 6.9 1.8.6 5.4-1.8 6.8z" class="K"/><path d="M749.7 168.8c2.2-1.3 3-4 2.1-6.2h0s1.2 7.6-9.2 6.7c2 .9 5.3.6 7.1-.5z" class="D"/><path d="M744.9 161.7c-1.2.8-1.9 1.9-2.1 1.5-.3-.4.4-1.4 1.6-2.2s2.4-1.1 2.7-.7c.2.3-1 .6-2.2 1.4z" class="L"/><path d="M755.9 158.2c-1.9 1.1-5.6 1.2-6.7-.6-1.1-1.9.8-5.1 2.7-6.2s4.3-.5 5.4 1.4.5 4.3-1.4 5.4z" class="N"/><path d="M749.5 157.4h-1.1l.6 1zm6.4.8c1.7-1 2.4-3.1 1.6-4.9h0s.9 6-7.3 5.2c1.7.8 4.3.5 5.7-.3z" class="I"/><path d="M751.7 152.9c-.8.8-1.2 1.7-1.5 1.4s.2-1.2 1-2 1.8-1.1 2-.8c.3.3-.6.6-1.5 1.4z" class="O"/><path d="M742.9 151.9c-1.3 1.3-4.4 2.1-5.7.8s-.3-4.4 1-5.7 3.5-1.2 4.8.1c1.3 1.4 1.2 3.6-.1 4.8z" class="K"/><path d="M737.4 152.6l-.9.2.6.7zm5.5-.7c1.2-1.2 1.4-3.1.4-4.4h0s1.9 4.8-5 5.8c1.5.4 3.6-.3 4.6-1.4z" class="D"/><path d="M738.8 147.9c-.7.7-1.1 1.5-1.3 1.2-.3-.3.1-1 .9-1.7.7-.7 1.5-1 1.8-.7.2.3-.7.5-1.4 1.2z" class="L"/><path d="M788.2 136.3c-1.5 1.8-5.1 3.3-7 1.8-1.8-1.5-1.1-5.4.4-7.2s4.1-2.1 5.9-.6c1.9 1.6 2.2 4.2.7 6z" class="K"/><path d="M781.4 138l-1.1.3 1 .8z" class="Y"/><path d="M788.2 136.3c1.3-1.6 1.2-4-.2-5.5h0s3.1 5.6-5.4 7.9c2 .3 4.4-.9 5.6-2.4z" class="D"/><path d="M783.5 131.2c-1.1.6-1.7 1.5-1.9 1.1s.4-1.3 1.4-1.9c1.1-.6 2.1-.7 2.4-.3s-.9.5-1.9 1.1z" class="L"/><path d="M691.9 142.3l-1.3.3.9 1z" class="D"/><path d="M699.8 141.5c-1.9 1.8-6.3 3-8.1 1-1.8-1.9-.4-6.2 1.5-8.1 1.9-1.8 5-1.7 6.8.2 1.8 2.1 1.7 5.1-.2 6.9z" class="K"/><path d="M699.8 141.5c1.8-1.7 2-4.3.7-6.3h0s2.7 6.9-7.2 8.2c2 .6 4.9-.5 6.5-1.9z" class="D"/><path d="M694.9 135.3c-1.2.7-2 1.8-2.2 1.3s.5-1.5 1.7-2.2 2.5-.9 2.7-.4-.9.6-2.2 1.3z" class="L"/><path d="M737 167.5c-2.2 2.6-7.7 4.7-10.3 2.5s-1.4-7.9.8-10.5 6.2-2.9 8.8-.7c2.7 2.1 3 6.1.7 8.7z" class="F"/><path d="M727 169.6l-1.6.5 1.4 1.2zm10-2.1c2-2.4 2-5.8 0-8.1h0s4.4 8.4-8.1 11.5c2.7.3 6.4-1.4 8.1-3.4z" class="B"/><path d="M729.9 159.5c-1.4.8-2.2 2-2.5 1.4s.6-1.6 1.9-2.4 2.7-1 3-.4-1 .6-2.4 1.4z" class="G"/><path d="M778.5 154.4c-1.4 1.8-5.1 3.4-6.9 1.9s-1.1-5.4.3-7.2 4.1-2.1 5.9-.7 2.1 4.2.7 6z" class="E"/><path d="M771.7 156.1l-1 .4.9.8z" class="C"/><path d="M773.7 149.5c-1.1.6-1.8 1.7-2 1.2-.3-.5.4-1.4 1.5-2s2.3-.8 2.5-.3c.3.4-.9.4-2 1.1z" class="J"/><path d="M772.9 156.9c7.9-1.6 5.5-7.9 5.5-7.9s2.3 2.5.1 5.4c-2.1 2.9-5.6 2.5-5.6 2.5z" class="C"/><path d="M768.7 145.1c-2.7 2.3-8.6 3.5-10.9.8s-.1-8.3 2.6-10.6 6.7-1.9 9 .8 2 6.7-.7 9z" class="N"/><path d="M758.2 145.5l-1.8.3 1.2 1.4zm10.5-.4a6.34 6.34 0 0 0 1.3-8.3h0s3.1 9.3-10.2 10.3c2.8.8 6.8-.3 8.9-2z" class="I"/><path d="M761.9 136.7c-1.7 1.2-2.6 2.9-3.1 2.2-.4-.6.6-2.1 2.3-3.4 1.7-1.2 3.4-1.7 3.9-1.1.4.7-1.4 1.1-3.1 2.3z" class="O"/><path d="M715.7 130.7c-2.8 2.3-8.8 3.5-11.1.8-2.3-2.8-.1-8.4 2.7-10.8 2.8-2.3 6.9-2 9.2.8 2.3 2.7 1.9 6.8-.8 9.2z" class="E"/><path d="M704.9 131.2l-1.7.2 1.2 1.4zm10.8-.5c2.5-2.1 3-5.7 1.4-8.4h0s3.1 9.5-10.4 10.5c2.7.8 6.8-.3 9-2.1z" class="C"/><path d="M708.8 121.8c-1.4.9-2.3 2.2-2.6 1.7s.5-1.7 2-2.7c1.4-.9 2.9-1.2 3.2-.7.4.5-1.1.8-2.6 1.7z" class="J"/><path d="M733.7 143.2c-1.9 1.8-6.1 3-7.9 1.1s-.5-6.1 1.4-7.9 4.9-1.7 6.7.1c1.7 1.9 1.6 4.9-.2 6.7z" class="F"/><path d="M725.9 144.1l-1.2.2.9 1zm7.8-.9c1.7-1.6 1.9-4.3.6-6.1h0s2.7 6.7-7 8.1c2 .4 4.9-.6 6.4-2z" class="B"/><path d="M728.9 137.1c-1.1.6-1.8 1.7-2 1.2-.3-.5.4-1.4 1.5-2s2.3-.8 2.5-.3c.3.4-.9.4-2 1.1z" class="G"/><path d="M769.3 188.6c-1.9 1.8-6.1 3.1-7.9 1.2s-.6-6.1 1.3-7.9a4.83 4.83 0 0 1 6.7 0c1.8 1.9 1.8 4.8-.1 6.7z" class="E"/><path d="M761.6 189.6l-1.2.2.9 1zm7.7-1c1.7-1.7 1.8-4.3.5-6.1h0s2.8 6.6-6.9 8.2c2.1.4 5-.7 6.4-2.1z" class="C"/><path d="M764.5 182.4c-1.2.7-1.9 1.8-2.2 1.3s.4-1.5 1.6-2.2 2.4-.9 2.7-.3c.4.5-.9.5-2.1 1.2z" class="J"/><path d="M707.1 161.3c-1.7 2-5.8 3.5-7.8 1.8s-1-6 .6-7.9c1.7-2 4.6-2.2 6.6-.5s2.3 4.7.6 6.6z" class="E"/><path d="M699.6 162.9l-1.3.4 1.1.9zm7.5-1.6c1.5-1.8 1.5-4.4 0-6.1h0s3.3 6.3-6.2 8.6c2.1.4 4.9-.9 6.2-2.5z" class="C"/><path d="M702 155.7c-1.3.7-2 1.9-2.3 1.3s.5-1.6 1.8-2.3 2.6-.9 2.9-.3c.3.5-1.1.5-2.4 1.3z" class="J"/><path d="M737.9 183.4c-2 1.7-6.4 2.6-8.1.6s-.1-6.2 2-7.9 5-1.4 6.7.6 1.4 5-.6 6.7z" class="K"/><path d="M730 183.8l-1.3.1.9 1.1z" class="Y"/><path d="M737.9 183.4c1.8-1.5 2.2-4.2 1-6.2h0s2.3 6.9-7.6 7.7c2 .6 5-.2 6.6-1.5z" class="D"/><path d="M733.3 177.1c-1.3.7-2 1.8-2.3 1.3s.5-1.6 1.7-2.3c1.3-.7 2.5-.8 2.8-.3.4.5-1 .5-2.2 1.3z" class="L"/><path d="M770 126.7c-2.5 2.1-8 3.2-10.1.7s-.1-7.7 2.5-9.9c2.5-2.1 6.3-1.8 8.4.7 2.1 2.6 1.7 6.4-.8 8.5z" class="F"/><path d="M760.2 127.2l-1.7.2 1.2 1.3zm9.8-.5a5.87 5.87 0 0 0 1.2-7.7h0s2.9 8.7-9.5 9.6c2.6.8 6.3-.2 8.3-1.9z" class="B"/><path d="M763.8 118.9c-1.4 1-2.2 2.3-2.5 1.8-.4-.5.5-1.7 1.9-2.8s2.8-1.4 3.2-.9c.3.6-1.2.9-2.6 1.9z" class="G"/><path d="M664 186.6l-2 .3 1.4 1.7z" class="B"/><path d="M676.8 186c-3.3 2.7-10.4 4.2-13.1.9s-.1-10 3.2-12.8c3.3-2.7 8.2-2.3 10.9 1s2.3 8.2-1 10.9z" class="F"/><path d="M676.8 186c3-2.5 3.6-6.8 1.6-10h0s3.7 11.2-12.4 12.4c3.4 1.1 8.2-.3 10.8-2.4z" class="B"/><path d="M668.3 175.4c-1.7 1.2-2.6 2.9-3.1 2.2s.6-2.1 2.3-3.4c1.7-1.2 3.4-1.7 3.9-1.1s-1.4 1.1-3.1 2.3z" class="G"/><path d="M750.7 140.8c-1.4 1.4-4.6 2.2-6 .8s-.3-4.6 1.1-5.9c1.4-1.4 3.7-1.3 5 .1s1.3 3.7-.1 5z" class="E"/><path d="M744.9 141.5l-1 .2.7.7zm5.8-.7c1.3-1.2 1.4-3.2.4-4.6h0s2 5-5.3 6c1.6.4 3.8-.3 4.9-1.4z" class="C"/><path d="M747.1 136.2c-.8.5-1.3 1.2-1.5.9-.2-.4.3-1.1 1.2-1.5.8-.5 1.7-.6 1.9-.2.1.3-.8.3-1.6.8z" class="J"/><path d="M780.7 175.3c-1.8 1.5-5.7 2.3-7.2.5s0-5.5 1.7-7c1.8-1.5 4.5-1.3 6 .5s1.3 4.5-.5 6z" class="E"/><path d="M773.8 175.6l-1.2.2.8.9zm6.9-.3c1.6-1.4 2-3.7.9-5.5h0s2 6.1-6.7 6.8c1.8.6 4.4-.2 5.8-1.3z" class="C"/><path d="M776.5 169.5c-1 .6-1.7 1.5-1.9 1.1s.4-1.2 1.5-1.8c1-.6 2.1-.7 2.3-.3.2.3-.9.4-1.9 1z" class="J"/><path d="M755.6 177.6c-1.7 1.9-5.7 3.5-7.6 1.8s-1-5.9.6-7.8c1.7-1.9 4.6-2.2 6.5-.5 1.9 1.6 2.1 4.5.5 6.5z" class="F"/><path d="M748.2 179.2l-1.2.3 1 .9zm7.4-1.6c1.5-1.8 1.5-4.3 0-6h0s3.3 6.2-6 8.5c2 .2 4.7-1 6-2.5z" class="B"/><path d="M750.3 171.7c-1 .6-1.6 1.4-1.8 1s.4-1.2 1.4-1.8 2-.7 2.3-.3c.2.5-.9.5-1.9 1.1z" class="G"/><path d="M720.8 182.9c-2 1.7-6.4 2.6-8.1.6s-.1-6.2 2-7.9 5-1.4 6.8.6 1.3 5-.7 6.7z" class="F"/><path d="M712.9 183.3l-1.3.2.9 1zm7.9-.4c1.8-1.5 2.2-4.2 1-6.2h0s2.3 7-7.6 7.7c2 .7 5-.1 6.6-1.5z" class="B"/><path d="M715.8 176.4c-1.1.8-1.7 1.9-2 1.5s.4-1.4 1.5-2.2 2.3-1.1 2.6-.7-1 .6-2.1 1.4z" class="G"/><path d="M731.1 130.5c-2.3 1.9-7.2 2.9-9.1.6s-.1-6.9 2.2-8.8 5.6-1.6 7.5.7c2 2.2 1.7 5.6-.6 7.5z" class="F"/><path fill="#edd262" d="M722.3 130.9l-1.4.2 1 1.2z"/><path d="M731.1 130.5c2.1-1.7 2.5-4.7 1.1-6.9h0s2.6 7.8-8.6 8.6c2.4.7 5.8-.2 7.5-1.7z" class="B"/><path d="M725.5 123.2c-1.2.8-1.9 1.8-2.2 1.4s.4-1.4 1.6-2.2 2.4-1 2.7-.6c.4.5-.9.7-2.1 1.4z" class="G"/><path d="M703.4 175.5c-1.6 1.3-5 2-6.4.4-1.3-1.6 0-4.9 1.5-6.2s3.9-1.1 5.3.5 1.1 4-.4 5.3z" class="N"/><path d="M697.2 175.8l-1 .1.7.9zm6.2-.3c1.4-1.2 1.7-3.3.8-4.8h0s1.8 5.4-6 6c1.6.5 3.9-.2 5.2-1.2z" class="I"/><path d="M699.4 170.4c-.8.5-1.3 1.3-1.5 1s.3-1 1.1-1.5 1.7-.7 1.9-.4-.6.4-1.5.9z" class="O"/><path d="M768.4 170.2c-2 1.7-6.4 2.6-8.1.6s-.1-6.2 2-7.9c2-1.7 5-1.4 6.7.6s1.5 5.1-.6 6.7z" class="F"/><path d="M760.6 170.6l-1.3.2.9 1zm7.8-.4c1.8-1.5 2.2-4.2 1-6.1h0s2.3 6.9-7.6 7.6c2.1.7 5.1-.1 6.6-1.5z" class="B"/><path d="M763.5 163.8c-1.1.8-1.7 1.9-2 1.5s.4-1.4 1.5-2.2 2.3-1.1 2.5-.7c.3.3-.9.6-2 1.4z" class="G"/><path d="M716.5 145.7c-2.2 2.6-7.7 4.7-10.3 2.5s-1.4-7.9.8-10.5 6.2-2.9 8.8-.7 2.9 6.1.7 8.7z" class="N"/><path d="M706.5 147.9l-1.7.5 1.4 1.2zm10-2.2c2-2.4 2-5.8 0-8.1h0s4.4 8.4-8.1 11.5c2.6.4 6.3-1.3 8.1-3.4z" class="I"/><path d="M709.3 137.8c-1.4.8-2.2 2-2.5 1.4-.3-.5.6-1.6 1.9-2.4 1.4-.8 2.7-1 3-.4.4.6-1 .6-2.4 1.4z" class="O"/><path d="M751.7 127.4c-3.6 3-11.4 4.6-14.4 1s-.1-11 3.5-14 8.9-2.5 12 1c2.9 3.7 2.5 9-1.1 12z" class="E"/><path d="M737.7 128.1l-2.3.3 1.6 1.9zm14-.7c3.3-2.7 3.9-7.4 1.8-11h0s4.1 12.3-13.5 13.6c3.6 1.2 8.9-.2 11.7-2.6z" class="C"/><path d="M742.8 115.9c-1.9 1.2-3 2.9-3.4 2.2s.7-2.3 2.6-3.5 3.8-1.6 4.2-.9-1.6 1-3.4 2.2z" class="J"/><path d="M692.6 169.6c-3.1 2.6-9.7 3.9-12.3.9-2.6-3.1-.1-9.4 3-12s7.6-2.2 10.2.9c2.5 3.1 2.1 7.7-.9 10.2z" class="F"/><path d="M680.6 170.2l-1.9.3 1.3 1.6zm12-.6c2.8-2.3 3.4-6.4 1.5-9.4h0s3.5 10.5-11.6 11.7c3.1 1 7.7-.3 10.1-2.3z" class="B"/><path d="M684.8 160.2c-1.9 1.4-3 3.2-3.5 2.5s.7-2.4 2.6-3.8 3.9-2 4.4-1.3-1.5 1.2-3.5 2.6z" class="G"/><path d="M697.3 191.2c-2.1 2.8-7.6 5.3-10.4 3.2s-1.9-8.1.2-10.9 6.2-3.4 9-1.3c2.8 2.2 3.3 6.2 1.2 9z" class="K"/><path d="M687.1 194.6l-1.7.6 1.5 1.2z" class="Y"/><path d="M697.3 191.4c2-2.5 1.8-6.1-.4-8.4h0s4.9 8.5-8 12.2c2.9.2 6.6-1.7 8.4-3.8z" class="D"/><path d="M689.4 184.1c-1.2 1-1.7 2.3-2.1 1.8s.2-1.7 1.4-2.7 2.5-1.4 2.9-.9-1 .8-2.2 1.8z" class="L"/><path d="M609.7 398.4s52-38.8 88 25.1l25.2-25.5s-24.2-31.2-77.2-17.4l-36 17.8z" class="n"/><path d="M264.9 92.8c-1.3 1.8-4.8 3.3-6.5 1.9-1.8-1.3-1.2-5 .2-6.8s3.8-2.1 5.6-.8c1.7 1.4 2.1 3.9.7 5.7z" class="N"/><path d="M258.6 94.5l-1 .4.9.7zm6.3-1.7c1.2-1.6 1-3.8-.3-5.2h0s3.1 5.2-4.8 7.7c1.8.1 4.1-1.2 5.1-2.5z" class="I"/><path d="M261 87.8c-1.2.3-2 1.1-2.2.6-.1-.5.7-1.2 1.9-1.5s2.3-.1 2.4.4c.2.5-.9.2-2.1.5z" class="O"/><path d="M323 78.4l-1.2.4 1 .8z" class="D"/><path d="M330.5 76.7c-1.6 2-5.7 3.6-7.6 1.9s-1.1-5.9.5-7.9 4.6-2.2 6.5-.6 2.2 4.6.6 6.6z" class="K"/><path d="M330.5 76.7c1.5-1.8 1.4-4.4-.1-6.1h0s3.4 6.2-6 8.6c2.1.3 4.8-1 6.1-2.5z" class="D"/><path d="M324.5 71.1c-.8.8-1.2 1.7-1.5 1.4s.2-1.2 1-2 1.8-1.1 2.1-.8-.7.6-1.6 1.4z" class="L"/><path d="M338.3 76.6l-1.1.4.9.8z" class="C"/><path d="M345 75.1c-1.5 1.8-5.2 3.2-6.9 1.7-1.8-1.5-1-5.4.5-7.1 1.5-1.8 4.1-2 5.9-.5s2 4.1.5 5.9z" class="E"/><path d="M345 75.1c1.4-1.6 1.3-4-.1-5.5h0s3 5.7-5.4 7.8c1.9.3 4.4-.9 5.5-2.3z" class="C"/><path d="M340.9 69.6c-1 .3-1.6 1-1.8.6-.1-.4.5-1 1.5-1.4s1.9-.2 2 .2c.2.4-.8.3-1.7.6z" class="J"/><path d="M384.8 78.4c-1.3 1.7-4.7 3.1-6.4 1.8s-1.1-5 .3-6.7c1.3-1.7 3.8-2 5.5-.6 1.6 1.4 1.9 3.8.6 5.5z" class="E"/><path d="M378.5 80l-1 .4.9.7z" class="C"/><path d="M380.3 73.9c-1 .6-1.6 1.5-1.9 1.1s.4-1.3 1.4-1.9 2.1-.7 2.4-.3-.9.5-1.9 1.1z" class="J"/><path d="M379.5 80.7c7.3-1.5 5.1-7.3 5.1-7.3s2.1 2.3.1 5-5.2 2.3-5.2 2.3z" class="C"/><path d="M304.6 86.1l-1.5.6 1.3 1z" class="D"/><path d="M314.1 83.4c-2 2.6-7.1 5-9.7 3s-1.8-7.5.2-10.1 5.7-3.2 8.3-1.2c2.7 1.9 3.2 5.7 1.2 8.3z" class="K"/><path d="M314 83.5c1.9-2.4 1.7-5.7-.3-7.8h0s4.6 7.9-7.4 11.3c2.7.3 6.2-1.5 7.7-3.5z" class="D"/><path d="M306.6 76.5c-1.1.9-1.6 2.1-2 1.7-.4-.5.2-1.6 1.3-2.5s2.3-1.3 2.7-.8-.9.7-2 1.6z" class="L"/><path d="M365.2 99.9l-1.3-.1.7 1.2z" class="D"/><path d="M372.8 100.8c-2.2 1.3-6.6 1.5-7.9-.7s.9-6 3.2-7.3c2.2-1.3 5.1-.6 6.4 1.6s.6 5.1-1.7 6.4z" class="K"/><path d="M372.8 100.8c2-1.2 2.8-3.7 1.9-5.8h0s1.1 7.1-8.6 6.2c2 .9 5 .6 6.7-.4z" class="D"/><path d="M368.3 94.2c-1.1.8-1.7 1.7-2 1.4-.3-.4.4-1.3 1.5-2.1s2.2-1 2.5-.7c.3.4-.9.6-2 1.4z" class="L"/><path d="M365.7 86.8c-1.7 1-5.2 1.2-6.2-.6-1-1.7.7-4.7 2.5-5.7 1.7-1 4-.5 5 1.3 1.1 1.7.5 4-1.3 5z" class="N"/><path d="M359.7 86.1h-1l.6.9zm6 .7c1.6-.9 2.2-2.9 1.5-4.6h0s.9 5.5-6.7 4.9c1.5.8 3.9.5 5.2-.3z" class="I"/><path d="M361.8 81.9c-.8.7-1.1 1.6-1.4 1.3s.1-1.1.9-1.8 1.6-1.1 1.9-.8-.6.5-1.4 1.3z" class="O"/><path d="M346.5 64.2l-.8.2.6.6z" class="D"/><path d="M351.7 63.5c-1.3 1.2-4.1 2-5.3.7s-.3-4.1.9-5.3c1.3-1.2 3.2-1.2 4.4.1s1.3 3.3 0 4.5z" class="K"/><path d="M351.7 63.5c1.1-1.1 1.3-2.8.4-4.1h0s1.8 4.4-4.7 5.4c1.4.3 3.4-.4 4.3-1.3z" class="D"/><path d="M347.9 59.7c-.7.6-1 1.4-1.2 1.1s.1-1 .8-1.6 1.4-.9 1.7-.7-.6.6-1.3 1.2z" class="L"/><path d="M388 62.3c-1.4 1.7-4.8 3.1-6.5 1.7s-1-5 .4-6.7 3.8-1.9 5.5-.6 2 3.9.6 5.6z" class="K"/><path d="M381.7 63.8l-1 .3.9.7zm6.3-1.5c1.3-1.5 1.2-3.7-.1-5.1h0s2.9 5.2-5 7.4c1.7.1 4-1 5.1-2.3z" class="D"/><path d="M383.6 57.5c-1 .6-1.5 1.4-1.8 1-.2-.4.4-1.2 1.3-1.8 1-.6 2-.7 2.2-.2.3.4-.7.4-1.7 1z" class="L"/><path d="M341.6 91.1l-1.5.5 1.3 1.1z" class="B"/><path d="M350.9 89.1c-2.1 2.4-7.1 4.4-9.6 2.3s-1.3-7.4.8-9.8 5.7-2.7 8.1-.6 2.8 5.7.7 8.1z" class="F"/><path d="M350.9 89.1c1.9-2.2 1.8-5.4 0-7.5h0s4.1 7.8-7.6 10.7c2.6.3 6-1.3 7.6-3.2z" class="B"/><path d="M344.3 81.8c-1.3.7-2 1.8-2.3 1.3s.5-1.5 1.8-2.2 2.5-.9 2.8-.4-1 .5-2.3 1.3z" class="G"/><path d="M356.1 74.3l-1.6.2 1.1 1.4z" class="I"/><path d="M365.9 73.9c-2.5 2.1-8 3.2-10.1.7s-.1-7.7 2.4-9.8 6.3-1.8 8.4.7c2.2 2.5 1.8 6.2-.7 8.4z" class="N"/><path d="M365.9 73.9a5.87 5.87 0 0 0 1.2-7.7h0s2.9 8.6-9.5 9.6c2.6.7 6.4-.3 8.3-1.9z" class="I"/><path d="M359.6 66.1c-1.6 1.1-2.5 2.7-2.9 2.1s.5-2 2.1-3.1 3.2-1.6 3.6-1c.5.5-1.2.9-2.8 2z" class="O"/><path d="M338.6 64.2c-1.7 1.7-5.7 2.8-7.4 1-1.7-1.7-.4-5.7 1.3-7.3 1.7-1.7 4.5-1.6 6.2.1s1.6 4.5-.1 6.2z" class="F"/><path d="M331.4 65l-1.2.2.9 1zm7.2-.8c1.6-1.5 1.8-4 .5-5.7h0s2.5 6.2-6.5 7.5c1.9.4 4.6-.5 6-1.8z" class="B"/><path d="M334.1 58.5c-1 .6-1.6 1.5-1.9 1.1-.3-.5.4-1.3 1.4-1.9s2.1-.7 2.4-.3c.2.5-.9.5-1.9 1.1z" class="G"/><path d="M348.7 106.3l-1.2.3.9.9z" class="C"/><path d="M355.9 105.4c-1.7 1.7-5.7 2.8-7.4 1.1s-.5-5.7 1.2-7.4a4.41 4.41 0 0 1 6.2 0c1.7 1.8 1.7 4.6 0 6.3z" class="E"/><path d="M355.9 105.4c1.6-1.6 1.7-4 .4-5.7h0s2.6 6.2-6.4 7.6c1.9.4 4.6-.6 6-1.9z" class="C"/><path d="M351.4 99.7c-1.1.7-1.7 1.7-2 1.2s.4-1.4 1.5-2.1 2.3-.8 2.5-.3c.3.5-.9.5-2 1.2z" class="J"/><path d="M293 91.4l-1.2.4 1 .8z" class="C"/><path d="M300 89.9c-1.6 1.8-5.4 3.3-7.2 1.7s-1-5.6.6-7.4 4.3-2 6.1-.5c1.8 1.6 2 4.4.5 6.2z" class="E"/><path d="M300 89.9c1.4-1.7 1.4-4.1 0-5.7h0s3.1 5.9-5.7 8c1.9.3 4.5-.9 5.7-2.3z" class="C"/><path d="M295.2 84.6c-1.2.7-1.9 1.7-2.2 1.2s.4-1.5 1.6-2.2 2.4-.8 2.7-.3c.4.6-.9.7-2.1 1.3z" class="J"/><path d="M327.8 103.9l-1.2.1.8 1z" class="D"/><path d="M335.1 103.5c-1.9 1.6-6 2.4-7.5.5-1.6-1.9 0-5.8 1.8-7.3 1.9-1.6 4.7-1.3 6.3.5 1.5 1.9 1.3 4.7-.6 6.3z" class="K"/><path d="M335.1 103.5c1.7-1.4 2.1-3.9.9-5.7h0s2.1 6.4-7.1 7.1c1.9.6 4.7-.2 6.2-1.4z" class="D"/><path d="M330.8 97.6c-1.2.7-1.8 1.7-2.1 1.2s.4-1.4 1.6-2.1 2.3-.8 2.6-.3-.9.6-2.1 1.2z" class="L"/><path d="M365.1 55.1l-1.5.2 1 1.2z" class="B"/><path d="M374.2 54.7c-2.4 2-7.5 3-9.4.7-2-2.4-.1-7.2 2.3-9.2s5.9-1.7 7.8.7c2 2.3 1.7 5.8-.7 7.8z" class="F"/><path d="M374.2 54.7c2.1-1.8 2.6-4.9 1.2-7.2h0s2.7 8.1-8.9 8.9c2.4.8 5.9-.2 7.7-1.7z" class="B"/><path d="M368.4 47.4c-1.3.9-2 2.2-2.4 1.7-.3-.5.4-1.6 1.7-2.6 1.3-.9 2.6-1.3 3-.9.4.6-1 .9-2.3 1.8z" class="G"/><path d="M339.5 52.5l-.8.2.6.7z" class="I"/><path d="M345 51.8c-1.3 1.3-4.3 2.1-5.5.8s-.3-4.2 1-5.5 3.4-1.2 4.6.1 1.2 3.4-.1 4.6z" class="N"/><path d="M345 51.8c1.2-1.1 1.3-3 .4-4.3h0s1.9 4.7-4.9 5.6c1.5.4 3.5-.3 4.5-1.3z" class="I"/><path d="M341.6 47.6c-.8.4-1.2 1.2-1.4.8-.2-.3.3-1 1.1-1.4s1.6-.5 1.8-.2-.7.3-1.5.8z" class="O"/><path d="M373.6 112.9l-1 .1.7.9z" class="C"/><path d="M380.1 112.6c-1.7 1.4-5.3 2.1-6.7.5-1.4-1.7 0-5.1 1.6-6.5 1.7-1.4 4.1-1.2 5.5.5 1.5 1.6 1.2 4.1-.4 5.5z" class="E"/><path d="M380.1 112.6c1.5-1.3 1.8-3.4.8-5.1h0s1.9 5.7-6.3 6.3c1.7.6 4.2-.1 5.5-1.2z" class="C"/><path d="M376.1 107.2c-1 .6-1.5 1.4-1.8 1-.2-.4.4-1.2 1.4-1.7 1-.6 1.9-.7 2.2-.3.2.4-.8.5-1.8 1z" class="J"/><path d="M321.1 90.3l-1.2.2.8 1z" class="B"/><path d="M328.4 90c-1.9 1.6-6 2.4-7.6.5s-.1-5.8 1.8-7.4 4.7-1.3 6.3.5c1.6 2 1.4 4.8-.5 6.4z" class="F"/><path d="M328.4 90c1.7-1.4 2.1-3.9.9-5.7h0s2.1 6.5-7.1 7.2c1.9.5 4.7-.3 6.2-1.5z" class="B"/><path d="M323.8 83.9c-1 .8-1.6 1.7-1.9 1.4s.4-1.3 1.4-2.1 2.1-1.1 2.4-.7c.2.4-.9.7-1.9 1.4z" class="G"/><path fill="#edd262" d="M323.6 50.2l-1.4.2 1 1.1z"/><path d="M331.8 49.8c-2.1 1.8-6.7 2.7-8.4.6s-.1-6.5 2-8.2 5.2-1.5 7 .6 1.5 5.3-.6 7z" class="F"/><path d="M331.8 49.8c1.9-1.6 2.3-4.4 1-6.4h0s2.4 7.2-7.9 8c2.1.7 5.2-.2 6.9-1.6z" class="B"/><path d="M326.5 43c-1.1.7-1.7 1.7-2 1.3s.4-1.3 1.5-2 2.2-.9 2.5-.5-.8.5-2 1.2z" class="G"/><path d="M287.4 107.3l-.9.1.6.8z" class="I"/><path d="M293.1 107c-1.5 1.2-4.7 1.9-5.9.4s0-4.5 1.4-5.7c1.5-1.2 3.7-1 4.9.4s1.1 3.7-.4 4.9z" class="N"/><path d="M293.1 107c1.3-1.1 1.6-3 .7-4.5h0s1.7 5.1-5.6 5.6c1.6.5 3.8-.1 4.9-1.1z" class="I"/><path d="M289.5 102.3c-.8.5-1.2 1.2-1.4.9s.3-.9 1.1-1.4 1.5-.7 1.7-.4-.7.4-1.4.9z" class="O"/><path d="M381.6 93.6l-1.2.2.9 1z" class="B"/><path d="M388.9 93.3c-1.9 1.6-5.9 2.4-7.5.5s0-5.7 1.8-7.3c1.9-1.6 4.7-1.3 6.2.5s1.4 4.7-.5 6.3z" class="F"/><path d="M388.9 93.3c1.7-1.4 2.1-3.9.9-5.7h0s2.1 6.4-7.1 7.1c2 .6 4.8-.2 6.2-1.4z" class="B"/><path d="M384.3 87.3c-1 .8-1.6 1.7-1.9 1.4-.3-.4.3-1.3 1.4-2s2.1-1.1 2.4-.7-.8.5-1.9 1.3z" class="G"/><path d="M323.5 64.7c-2.1 2.4-7.1 4.4-9.6 2.3-2.4-2.1-1.3-7.4.8-9.8s5.7-2.7 8.1-.6c2.4 2 2.7 5.6.7 8.1z" class="N"/><path d="M314.2 66.7l-1.5.4 1.2 1.1zm9.3-2c1.9-2.2 1.8-5.4 0-7.5h0s4.1 7.8-7.6 10.7c2.5.2 5.9-1.4 7.6-3.2z" class="I"/><path d="M316.8 57.3c-1.3.7-2 1.8-2.3 1.3s.5-1.5 1.8-2.2 2.5-.9 2.8-.4-1 .6-2.3 1.3z" class="O"/><path d="M343.8 40.2l-2.2.3 1.5 1.7z" class="C"/><path d="M356.7 39.6c-3.3 2.8-10.6 4.3-13.4.9-2.8-3.3-.1-10.2 3.2-13s8.3-2.4 11.1 1c2.9 3.3 2.5 8.3-.9 11.1z" class="E"/><path d="M356.7 39.6c3-2.6 3.7-6.9 1.6-10.2h0s3.8 11.4-12.6 12.7c3.5 1 8.4-.4 11-2.5z" class="C"/><path d="M348.4 28.8c-1.8 1.1-2.8 2.7-3.2 2s.7-2.1 2.4-3.2c1.8-1.1 3.5-1.5 3.9-.8s-1.3.9-3.1 2z" class="J"/><path d="M304.7 69.7c-2.9 2.4-9.1 3.7-11.4.8-2.4-2.9-.1-8.7 2.8-11.1a6.78 6.78 0 0 1 9.5.8c2.3 2.9 1.9 7.1-.9 9.5z" class="F"/><path d="M293.6 70.2l-1.9.3L293 72zm11.1-.5c2.6-2.2 3.1-5.9 1.4-8.7h0s3.2 9.8-10.8 10.8c2.9.9 7.1-.2 9.4-2.1z" class="B"/><path d="M297.5 60.9c-1.8 1.3-2.8 3-3.3 2.4s.6-2.2 2.4-3.5 3.6-1.8 4.1-1.2-1.4 1-3.2 2.3z" class="G"/><path d="M262.5 114.5l-1.9.3 1.3 1.6z" class="B"/><path d="M274.3 113.9c-3 2.6-9.7 3.9-12.2.9s-.1-9.3 3-11.9 7.6-2.2 10.1.9c2.6 3.1 2.2 7.6-.9 10.1z" class="F"/><path d="M274.3 113.9c2.8-2.3 3.3-6.3 1.5-9.3h0s3.5 10.4-11.5 11.6c3.1 1 7.7-.3 10-2.3z" class="B"/><path d="M266.4 104.1c-1.6 1.1-2.5 2.7-2.9 2.1s.5-2 2.1-3.1 3.2-1.6 3.6-1-1.2.9-2.8 2z" class="G"/><path d="M260.5 67.2l-1.2.1.7 1z" class="B"/><path d="M267.6 67.7c-2 1.3-6.1 1.7-7.4-.3s.6-5.6 2.6-6.9 4.7-.8 6 1.2c1.4 2 .8 4.7-1.2 6z" class="F"/><path d="M267.6 67.7c1.8-1.2 2.4-3.6 1.5-5.5h0s1.4 6.5-7.7 6.2c1.9.8 4.7.3 6.2-.7z" class="B"/><path d="M264.6 61.1c-1.1.2-1.8.8-1.9.4-.1-.5.7-1 1.8-1.2s2 0 2.1.5c0 .4-.9.1-2 .3z" class="G"/><path d="M274 93.3l-1.6.2 1.1 1.3z" class="Y"/><path d="M283.6 92.8c-2.5 2.1-7.9 3.2-10 .7s-.1-7.6 2.4-9.7 6.2-1.8 8.3.7 1.8 6.3-.7 8.3z" class="K"/><path d="M283.6 92.8c2.3-1.9 2.7-5.1 1.2-7.6h0s2.8 8.5-9.4 9.4c2.6.9 6.3-.1 8.2-1.8z" class="D"/><path d="M277.5 84.8c-1.3.8-2.1 2-2.4 1.5s.5-1.6 1.8-2.4 2.6-1.1 2.9-.6-1 .7-2.3 1.5z" class="L"/><path d="M251 53.1l-2 .2 1.4 1.6z" class="I"/><path d="M262.8 52.5c-3 2.6-9.7 3.9-12.2.9-2.6-3-.1-9.3 3-11.9 3-2.6 7.6-2.2 10.1.9 2.6 3 2.2 7.6-.9 10.1z" class="N"/><path d="M262.8 52.5c2.8-2.3 3.3-6.3 1.5-9.3h0s3.5 10.4-11.5 11.6c3.1.9 7.7-.3 10-2.3z" class="I"/><path d="M255.2 43.1c-1.9 1.4-3 3.2-3.5 2.5s.6-2.4 2.6-3.8c1.9-1.4 3.9-2 4.4-1.3s-1.6 1.2-3.5 2.6z" class="O"/><path d="M277.5 72.8l-1.3.4 1.1.9z" class="C"/><path d="M285.1 71c-1.7 2-5.8 3.7-7.9 2-2-1.7-1.2-6.1.5-8.1s4.7-2.3 6.7-.6c2.1 1.7 2.4 4.7.7 6.7z" class="E"/><path d="M285.1 71c1.5-1.8 1.4-4.5-.1-6.2h0s3.5 6.4-6.1 8.9c2.1.3 4.9-1.1 6.2-2.7z" class="C"/><path d="M280.2 65c-1.2.5-1.9 1.5-2.1 1s.5-1.4 1.7-1.9 2.3-.6 2.6-.1-1 .5-2.2 1z" class="J"/><path d="M285.5 52.9l-1.2.2.9.9z" class="D"/><path d="M292.8 52.1c-1.8 1.7-5.9 2.8-7.6 1s-.4-5.8 1.4-7.5 4.6-1.6 6.3.2c1.8 1.8 1.7 4.6-.1 6.3z" class="K"/><path d="M292.8 52.1c1.6-1.5 1.9-4 .6-5.8h0s2.5 6.4-6.7 7.6c1.9.5 4.7-.5 6.1-1.8z" class="D"/><path d="M288.3 46.4c-1.1.7-1.8 1.6-2.1 1.2-.3-.5.5-1.4 1.6-2 1.1-.7 2.3-.8 2.5-.4.4.4-.8.5-2 1.2z" class="L"/><path d="M301.2 49l-1.7.2 1.2 1.4z" class="C"/><path d="M311.2 48.5c-2.6 2.2-8.1 3.3-10.3.7s-.1-7.9 2.5-10 6.4-1.8 8.5.7c2.2 2.7 1.8 6.5-.7 8.6z" class="E"/><path d="M311.2 48.5c2.3-2 2.8-5.3 1.3-7.8h0s2.9 8.8-9.7 9.7c2.6.9 6.4-.2 8.4-1.9z" class="C"/><path d="M304.8 40.3c-1.3.9-2.1 2.1-2.4 1.6s.5-1.6 1.9-2.5c1.3-.9 2.7-1.2 3-.6.2.4-1.2.6-2.5 1.5z" class="J"/><path d="M305.7 101.7l-1.1.3.9.8z" class="B"/><path d="M312.6 100.2c-1.5 1.8-5.3 3.2-7.1 1.7s-1-5.5.6-7.3c1.5-1.8 4.2-2 6-.5 1.8 1.6 2 4.3.5 6.1z" class="F"/><path d="M312.6 100.2c1.4-1.6 1.3-4 0-5.6h0s3 5.8-5.6 7.9c1.9.3 4.4-.9 5.6-2.3z" class="B"/><path d="M307.7 94.7c-.9.5-1.5 1.3-1.7 1-.2-.4.4-1.1 1.3-1.6s1.9-.7 2.1-.3-.8.4-1.7.9z" class="G"/><path d="M-.9 413.8l131.9 5.6c19.9.8 44.3-.8 53-18.8 5.5-11.4 2.6-25.7-4.7-36-52.5-74.3-54.4-180.1 96.2-226.8 68.1-21.1 145.7-4.1 195.2 47.2s41.5 94.5-3.8 149.7c-14.1 17.2-110.7 81.6-105.8 127.5 8.5 78.7 352.1 71.6 352.1 30.6 0-48.4-130.4-47.9-157.9-99.9-20.4-38.6.3-72.4 31.7-102.7 122.9-118.9 354.7-50.6 424.2 16.3 23.1 22.3 46.9 63.2 85 95.9 59.2 50.7 236.4 5.3 291.5 2.3l.2 23.8c-60.3 52.7-173.4 136.6-298.3 73.6-34-17.1-72.1-28.3-110.1-27-16.8.6-33.4 4.5-50.1 6.8s-34.1 2.9-50-2.9c-.2-.1-.3-.1-.5-.2-20.3-7.6-18.2-37 2.9-42 15.5-3.6 30.7-8.4 45-14.7 14.4-6.3 29.4-15 35.2-29.6 5.2-13.2 1.5-28.7-6.7-40.3-8.1-11.6-20-20.1-32.2-27.3-58-34.6-187.1-62.4-254.6-14.5-103.1 73.2 147.1 8.3 161.7 151.9C837.9 538.6 709.3 635.4 553 632c-99.4.4-217.7-21.8-267.8-64.7-56.7-48.5-111.2-40.4-122.2-39.4L.7 544.1-.9 413.8z" class="z"/><path opacity=".4" d="M613.5 400.3l76.3 24.6 12.5-20.5-55.7-24.1-33.1 20" class="e"/><path d="M636.9 391.5l-14.2 2.1" class="AA"/><path d="M609.7 398.4c-16.4-8.5-27.4-18.6-32.8-30.1-7.2-15.1-4.9-32.5 6.6-51.7 25.7-42.6 79.6-74 137.3-79.9 19.5-2 38.5-3 56.5-3 95.3 0 170.7 27.9 230.7 85.4 11.2 10.7 21 24.2 31.3 38.6 19.8 27.3 42.1 58.3 80.1 76.7 7.1 3.4 13.9 5.4 20.1 5.2 46.6-1.6 36.7-46.5 34.7-51.1l213.5-4.7v21.4l-86.9 54.7c-1.3.7-3.3 1.7-5.8 3.1-19.6 10.7-71.6 39.1-119.4 39.1-8 0-15.7-.8-22.8-2.4-47.8-10.8-95.3-29.8-130.6-52.3l-145.6 24.9-3.2-41.5 4.7.5c6.2.6 12 .9 17.8.9 17.6 0 34.5-2.7 53.3-8.6 22.9-7.2 46.6-17.7 48.2-41.5.6-8.9-5.8-26.9-25.7-48.3-20.5-21.9-80.7-72.8-198-72.8-17.5 0-35.9 1.2-54.4 3.5-31.9 4-59.4 13.8-79.4 28.4-18 13.2-27.9 29-28 44.4-.1 17.5 12.3 32.4 34.6 43.1L624 392.6l-14.3 5.8zm92.1-3.1l7.9 1 13.3 1.8c31.3 4.4 63.8 11.7 80.8 38.6 10.2 16.2 11.6 36.1 4 57.4-13.5 37.7-52.5 72-99.2 87.5-54.9 18.2-115.1 27.8-173.9 27.8-48.8 0-94.2-6.6-134.9-19.5-52.3-16.7-111.5-55.1-120.9-112.9-4.8-29.8 11.8-62.6 48.2-94.9 12.3-10.9 25.6-20.8 38.4-30.3 15.1-11.2 30.7-22.8 44.4-35.9 33.2-31.6 47-71.9 35.1-102.6-11.8-30.3-47.4-47.6-100.2-48.6-2.1 0-4.1-.1-6.2-.1-79.2 0-110.7 30.2-123.1 55.6-17 34.6-5.6 75 12.1 97.9 21.2 27.4 32.5 52.9 33.5 75.7.9 19.9-6 38.4-20.4 55.1-25.5 29.6-76.5 33.4-118 33.4-72.8 0-122.5-4-123-4L-4 478v-56.3l4.7.9c.4.1 45.9 8.1 126 8.1 61.8 0 80.1-14.4 84.5-26.5 6.5-17.8-7.9-41.9-23.1-67.3-18.1-30.2-36.8-61.4-26-89.9 13.5-35.6 38.1-64.5 71.2-83.4 29.2-16.7 63.9-25.5 100.5-25.5 62.5 0 116.7 26 134.8 64.6 22.7 48.2 18.2 68.4-7.9 108.4-12.2 18.6-34 36.8-57.2 56.1-35.4 29.5-72.1 60-76.2 94-2.2 18.3 9.2 34.1 33.8 47.1 24.5 12.9 56 19.6 72.7 22.5 49.7 8.6 92.7 12.7 131.6 12.7 46.9 0 88-5.9 125.9-18 56.1-17.9 83-40.2 76.5-64-8.9-32.7-69.5-35.3-71.4-35.6l5.4-30.6z" class="AB"/><path d="M698.3 422.1c27.6 3.2 66.4 11.5 73.2 38.5 9.7 38-52.3 60.2-79.1 68.8-82.9 26.5-173.6 20.2-259.4 5.4-45.1-7.8-115.3-28.7-109.8-74.1 7-58.2 103.6-105.2 134-151.8 25.6-39.3 29.4-58.2 7.7-104.5-39-83-245.9-96.7-299.2 44.1-19.1 50.5 64.4 115.8 49.2 157.2-10.4 28.5-69.8 29.1-88.2 29.1C45.3 434.7 0 426.5 0 426.5v47.8s49.3 4 122.7 4c38.5 0 89.9-2.9 115-32s31.1-68.5-13.3-125.8c-40.8-52.7-34.4-163 120.5-159.9 130.1 2.6 130.1 98.9 67.8 158.1-25.7 24.4-56.4 42.8-82.9 66.3s-52.6 56.3-46.9 91.2c9.5 58.5 71.7 94.9 118.2 109.7 95 30.3 211.6 23.1 306.3-8.3 74.5-24.7 121-94.7 93.1-139-16.6-26.3-57.9-35.6-89.7-39.9l-12.5 23.4zM642 382.4c-69.4-35.9-27.2-109.2 76.8-122.1 197.4-24.5 285 86.1 282.6 121.8-1.7 25.8-26.3 37.4-51 45.1s-46.9 10.4-72.7 7.9l2.5 32.4L1023 443c31 20 77.1 40.5 130.7 52.6 57.2 12.9 131.1-32.3 145.2-39.5l.3-.2 88.4-55.5v-12.9l-213.5.8c10.3 21.5-10.3 71.9-56.5 49.6-58.7-28.4-80.2-85-112.5-116-74.8-71.7-170.7-93-284-81.3-51.9 5.3-107.3 33.4-134.3 78-15.6 25.8-18 55.5 27.6 77.8l27.6-14z" fill="#d4b35b"/><path d="M609.7 398.4l3.8 1.9s40.2-24.2 76.2 24.5l6.5 1.2-7.5-33.5-31.3-6c-.8 0-29 2.8-29 2.8l-18.7 9.1" class="AA"/><path d="M1025.7 454.3v-73.2c0-2-1.6-3.5-3.2-3.1-1.3.3-2.3 1.6-2.3 3.1v73.2h5.5z" class="f"/><path fill="#864a54" d="M1024 381.1v73.2h1.7v-73.2c0-2-1.6-3.5-3.2-3.1-.1 0-.2.1-.3.1 1 .5 1.8 1.6 1.8 3z"/><path d="M1046.1 409.3l-48.7-.6c-.5 0-.9-.2-1.2-.6l-8.3-7.8c-.7-.9-.4-2.5.6-3.4l8.9-8.1c.4-.4 1-.6 1.5-.6l46.8.6c.5 0 1 .2 1.4.7l7 7.7c.8.9.9 2.4.2 3.3l-6.7 8.2c-.4.4-1 .6-1.5.6z" class="f"/><g fill="#864a54"><path d="M1039.7 393.9v9.4l6.5-4.7zm-34.5 8.6l-.3-9-7.1 5z"/><path d="M1040.4 400.1l-37.6-.5.5-3.4 37.1.5z"/></g><path d="M711.5 397.4s-38.8-34-68.3-18.8l-33.4 19.9s50.6-27.7 86.5 27.6l15.2-28.7z" class="f"/><path d="M701.1 389.6l-14.5 23.8-1.1-1.2 14.3-23.4zm-29.2 11.3l15.1-19.3-.9-.5-15.1 19.2zm2.2-24.2l-15.6 17.8-1.3-.4 15.9-17.7zm-10.3-1.9l-16.7 17.1h-1.3l17-17.2zm-8.8.1l-18.1 16.6-.8.1 18.2-16.6zm-9.8 2.7l-23.5 16.3 1-.3z" class="AA"/><path d="M701.1 389.6s6.9 5.7 8.8 7.5l-13.7 25.7-9.6-9.4 14.5-23.8zm-14.1-8l11.7 7.2-13.2 20.9-13.6-8.8zm-12.9-4.9l9.5 4.9L671 398l-12.5-3.5zm-1-.3l-15.9 17.7-7.9-2.6 14.5-16zm-10.3-1.7l-17 17.2-6.8-1.5 16-14.9zm-8.5.3L636 391.6l-10.3.3 19.5-14.3s6.2-2.3 9.1-2.6z" fill="#b0727f"/><path fill="#6ca0ab" d="M25.3 201.2l-11.7-.5-2.5.6 6.9 3.1z"/><path d="M66.1 192.6l-28.3-3.8-2.5.5 19.7 6.8zm-28.5 5c-7.5-1.2-15.7-5.3-18.8-7-.9-.5-2-.6-3-.3l-4.3 1s10.2 9.8 8.2 11.1l17.9-4.8z" class="E"/><g class="AC"><path d="M14.4 203.9c29.9-8.8 65-16 74.5-17.3 10.2-1.4 11.6 1.8 11.6 1.8s2.6 4.5-49.8 14.3c0 0-7.9 1.6-15.8 2.1-7.8.5-20.1.6-20.1.6l-.4-1.5z"/><path d="M52.7 194l-16.5-4.6-.5.1 14.6 5z"/></g><path d="M35.6 204.8c7.8-.5 15-2 15-2 38.3-7.1 47.2-11.5 49.3-13.3h0s-2.4.7-4.3-.9c0 0-7.1 2.7-32.4 8.6-21.4 5-33.3 7.3-48.6 7.8l.1.5c0-.1 13.1-.2 20.9-.7z" class="E"/><path d="M12.3 192.1l2.4-.5 7.7 8.4-2.9.6z" class="AC"/><path d="M29.9 203.7l-10 4.4-4.2 1 3.9-4.3c.4-.4 1-.7 1.7-.8l8.6-.9c.2-.1.4.4 0 .6zm48.7-8.1L56 218.1l-3 .7 8.9-17.6-2.1-1.2c-.4-.3-.4-.8.1-1.1 1-.5 3.2-1.4 8.3-2.6 5.7-1.3 8.4-1.7 9.8-1.7.7 0 1 .6.6 1z" class="E"/><path d="M61.9 201.1l2.8-.6-9.2 15.9-1.5.4z" class="AC"/><g fill="#426268"><path d="M58.6 197.8h0c-.3.1-.6-.1-.7-.4l-.1-.3c-.1-.3.1-.6.4-.7h0c.3-.1.6.1.7.4l.1.3c.2.3 0 .6-.4.7z"/><use xlink:href="#B"/><use xlink:href="#C"/><path d="M65.4 196.2h0c-.3.1-.6-.1-.7-.4l-.1-.3c-.1-.3.1-.6.4-.7h0c.3-.1.6.1.7.4l.1.3c.1.3-.1.7-.4.7z"/><use xlink:href="#B" x="6.8" y="-1.6"/><use xlink:href="#B" x="9" y="-2.1"/><use xlink:href="#B" x="11.3" y="-2.6"/><path d="M74.4 194.1h0c-.3.1-.6-.1-.7-.4l-.1-.3c-.1-.3.1-.6.4-.7h0c.3-.1.6.1.7.4l.1.3c.1.3-.1.7-.4.7z"/><use xlink:href="#B" x="15.8" y="-3.7"/><use xlink:href="#B" x="18" y="-4.2"/><use xlink:href="#B" x="20.3" y="-4.7"/><use xlink:href="#C" x="20.2" y="-4.7"/><use xlink:href="#C" x="-18.1" y="4.2"/><use xlink:href="#B" x="-13.5" y="3.1"/><path d="M49.6 199.9h0c-.3.1-.6-.1-.7-.4l-.1-.3c-.1-.3.1-.6.4-.7h0c.3-.1.6.1.7.4l.1.3c.1.3 0 .6-.4.7z"/><use xlink:href="#B" x="-9" y="2.1"/><path d="M54.1 198.8h0c-.3.1-.6-.1-.7-.4l-.1-.3c-.1-.3.1-.6.4-.7h0c.3-.1.6.1.7.4l.1.3c.1.4 0 .7-.4.7z"/><use xlink:href="#B" x="-4.5" y="1"/><path d="M99 187.2s.7.8-1.6 1.4c-.6.2-1.2.2-1.8-.1h0s2.9-.6 2.1-1.8l1.3.5z"/></g><path d="M892.9 654.9H637c.9-18.6 10.1-24.9 34.2-23.4 3.9-18.4 12.8-32.3 34-34.1 1.9-.2 3.9-5 5.1-8 10.6-28 32.9-42.7 62-40.6 26.3 1.8 46.7 21.6 53.1 50.4.8 3.8 4.4 7.5 7.6 10.1 4.2 3.5 10.5 5.1 13.8 9.2 7.8 10 15.4 17.1 30 16.3 9.3-.4 15 8.7 16.1 20.1z" class="Z"/><path fill="#5e9646" d="M686.2 625.4c4.8.2 9.1-.1 13.1.8 7.4 1.7 12.4 6.7 15 13.8.6 1.6 1.3 2.1 3 2.3 7.8 1 13.7 7.6 13 14.7H571.8c-.4-7.9 4.8-13.4 15-15.6 0-6.2 2-11.7 7.3-15.5s11.1-4.3 17.5-2c0-2.8-.3-5.4 0-8 1.6-13.7 12.3-24 25.8-25.1 13.1-1.1 25.2 7.1 29.3 19.9.3.9 1.3 2.2 2 2.3 8.8.7 14.5 5.2 17.5 12.4z"/><g class="Z"><circle cx="641.8" cy="619.2" r="18.9"/><circle cx="653.5" cy="627.7" r="13.9"/></g><g class="n"><circle cx="771.8" cy="597.8" r="26.3"/><circle cx="788.1" cy="609.7" r="19.4"/><circle cx="745.7" cy="619.2" r="16.2"/><circle cx="733.6" cy="622" r="12"/></g><path d="M190.4 634.3c-11.1-11-24.7-13.4-39.6-8.9-3-21.3-14.3-34.2-35.6-37.7-1.6-.3-3.5-3.1-3.9-5-5.2-25.8-24.4-41.8-50.4-41.6-23.9.2-43.7 17.5-47.8 42.1-.6 3.6-1.6 5.2-5.4 6.3-2.5.8-5.2 1.7-7.7 2.8v64.3h200.8c-.5-9-4.3-16.3-10.4-22.3z" class="Z"/><g fill="#6ca653"><circle cx="87.3" cy="612.8" r="19.2"/><circle cx="110" cy="624.8" r="27.2"/><circle cx="61.8" cy="587.7" r="36"/></g><path d="M944.3 444.5c2.6.1 5.1 0 7.4.4 6.1 1.2 10.2 5 11.9 10.9.5 1.8 1.4 2.3 3.1 2.6 7.8 1.2 13.4 7.6 13.2 15.4H815.7c-.4-5.3 3.9-8.3 10.5-7.3 3.7-8.6 8-10.7 16.8-8 1.6-5.4 4.5-9.8 9.6-12.5 5-2.6 10.2-2.7 15.7-.9.2-2.3.1-4.4.5-6.4 2.2-11.4 8.8-19 20.1-21.8 11.2-2.7 20.5.9 27.7 9.9 1 1.3 1.8 1.9 3.5 1.6 11.3-1.7 20.7 4.3 23.9 15.3.2.4.3.7.3.8z" class="Z"/><g class="n"><circle cx="893.9" cy="441.7" r="14.4"/><circle cx="918.7" cy="451" r="16.1"/><circle cx="897.9" cy="456.6" r="11.6"/></g><path fill="#383530" d="M228.3 421.3s0 .1 0 0c0 .1 0 0 0 0z"/><path d="M200.7 435.7c-.8 1.1 1.5 2.1 3.6 2.5h0l-.2.3s-.6.7-.1 2.8c-2.8-.7-3.8-1.3-4.1-2.4l-.1-1.8s-.1-.7.9-1.4z" class="a"/><path fill="#595651" d="M211.2 442.1h0l-1.6-1.7c-.6-.6-1.4-1-2.5-1.2-4.2-.8-6.4-1.7-6.8-2.7v-.4c0-.1.1-.2.2-.3l.1-.1v.1c-.1.1-.3.3-.2.7.2.5 1.3 1.6 6.6 2.6 1.1.2 1.9.6 2.5 1.3l1.7 1.8v-.1z"/><g class="P Q AL"><path d="M209.6 434c0 .2.2.4.4.4s.3-.2.3-.4-.2-.4-.4-.4-.3.1-.3.4zm-2.2.6c0 .2.2.4.4.4s.3-.2.3-.4-.2-.4-.4-.4-.3.2-.3.4z" stroke="#595651"/><path stroke="#312a20" d="M208.7 433.1s-.7.2-1 1.5c0 0-.3-.8-.6-1" class="b g"/></g><path fill="#a14730" d="M211.4 438.8h.2s-2-1.8-3.7-2.4c-2.5-.9-3.3-2.3-3.3-2.3h-.1c0 .1.8 1.5 3.3 2.4 1.7.6 3.6 2.3 3.6 2.3z"/><path d="M213.4 440.7c-.6 1.3 1.7 1.9 3.6 2.2h0l-.2.3s-.5.8.2 2.9c-2.2-.3-3.7-.9-4.1-1.9l-.3-1.9c.1.1-.1-.6.8-1.6z" class="a"/><path fill="#595651" d="M224.7 446.4h0l-1.8-1.6c-.7-.6-1.5-.9-2.6-1-4.3-.4-6.7-1.1-7.1-2.2-.1-.1-.1-.2-.1-.4v-.1c0-.1.1-.2.2-.3l.1-.1v.1c-.1.1-.3.4-.1.7.2.5 1.4 1.5 7 2 1.1.1 2 .5 2.7 1.1l1.9 1.7-.2.1z"/><path opacity=".36" fill="#201600" d="M159.8 474.1c-28.2-17.2-63.5-40.2-63.5-40.2S222 463 241.9 472.5l-82.1 1.6z"/><path fill="#a45b35" d="M133 455.5l-36.7-21.6c7.5-16.2 21.2-16.1 21.2-16.1l79 10.6-21.4 28.8-13.4 15.1-28.7-16.8z"/><path opacity=".2" fill="#201600" d="M133 455.5l-36.7-21.6c2.4-5.1 5.3-8.6 8.2-10.9 26.9 14.9 68.8 18.1 69.3 17.9l3.5 12.5-15.6 18.9-28.7-16.8z"/><path fill="#e2946b" d="M166.5 456.9c3.4-11 10-24 22.5-27.4 18.9-5.1 35.6 14.4 45.4 30.1l7.5 12.9-80.2-.2 4.8-15.4z"/><path d="M165.4 456.8l-32.6-13.2 38.6 8.7-1.9 4.7-4.1-.2z" class="AD"/><path d="M197 434.1c-13.5-1.8-22.2 11.3-31.7 38.2h-2.2c3.7-12.6 10-40.8 28.8-42.6 29.7-2.8 48 42.8 48 42.8l-4.2-.1c-.1 0-15.6-35.2-38.7-38.3z" class="AE"/><path d="M97.2 432l12.1 9.7-13-7.8zm56.7-4.5c-.5-.5 10.4-5.2 12.6-10.1l3.6 6.6s-4.5 1.6-4.2 5.5c0 0-6.6 3.8-12-2z" class="AD"/><path d="M166.5 417.5c-1.1 1.1 1.3 9.6 4.3 5.9 1.7-2.3-2.2-7.4-4.3-5.9z" class="AE"/><path fill="#e2946b" d="M167.5 418.8c-.6.6.8 5.6 2.5 3.4.9-1.3-1.3-4.2-2.5-3.4z"/><path fill="#5f351e" d="M166.9 421.7l1.2-.2-.8.9-.4-.1z"/><path d="M221.3 472.1c-.1 0-8.7-24-24.8-24-14.7 0-18.8 24.3-18.9 24.3l-7.2-.1c3.3-12.3 11.2-30.4 24.9-30.3 20.7.1 33.1 30.2 33.1 30.2l-7.1-.1z" class="AE"/><g class="AD"><path d="M190.4 430.8c-12.9 2-19.5 16.2-27.3 41.5h-1.4c4.1-13.6 10-41.9 31.3-43.7 26.6-2.2 48.9 43.9 48.9 43.9h-2.5c0-.1-20.4-46.1-49-41.7z"/><path d="M167.1 456.9l.4-3.3 1.5-1.9 4.7 5.4zm-5.4 15.4l-28.4-16.7-20.5-12c6.4.6 39.6 22.7 48.9 28.7z"/></g><g class="e"><ellipse opacity=".4" cx="398.5" cy="362.5" rx="10.6" ry="1.6"/><ellipse opacity=".4" cx="356" cy="361" rx="8.2" ry=".6"/></g><path fill="#6597a1" d="M355.9 321.1l-1.3 3.8h3.2z"/><path d="M370.7 300.4c.5 9.6-6.2 21.6-15.2 22.1s-16.8-10.8-17.3-20.4 6.4-17.7 15.4-18.1c8.9-.5 16.6 6.8 17.1 16.4z" class="E"/><path fill="#6a929e" d="M358.9 321.6c7.3-2.7 12.2-12.8 11.8-21.2-.2-3.5-1.4-7-2.8-8.8 0 0 7.8 17.5-9 30z"/><path fill="#94c7b2" d="M351 288c.2.8-3.1 1.3-5.5 4.1-2.5 2.8-2.3 6.5-3.4 6-2.2-.9-1.1-5.3 1.4-8.1 2.4-2.8 7-4.2 7.5-2z"/><path d="M391.6 360.1c-3.4-.3-6.5-1.5-9.1-3.5-1.2-.9-2.2-2-3-3.1-1-.2-2.1-.4-3-1-1-.7-1.7-1.9-1.5-2.9.1-.8.5-1.5.9-2.1l.5-.8c1.3-2.5 0-5.6-1.9-7.3s-4.8-3.3-7.8-4.1c-12.4-3.1-11.2-9-11.2-10.3l.7-.3c.3 6.4 4.3 7.8 10.7 9.9 3.1 1 6.1 2.4 8.1 4.2 1.1 1 2 2.4 2.4 3.8a6 6 0 0 1-.3 4.4c-.2.3-.4.6-.5.9-.4.6-.8 1.2-.8 1.8-.1.8.4 1.7 1.2 2.3a5.39 5.39 0 0 0 2.1.8c-.3-.6-.6-1.1-.7-1.7-.8-2.5-.3-5.1 1.2-6.9 1.2-1.4 3-2.3 5.1-2.5 2.8-.3 5.4.5 7 2.2 1.9 2 2.2 5.2.6 7.1-1.2 1.5-3.2 2.1-4.7 2.4-2.3.5-4.7.6-7 .3.7.8 1.5 1.6 2.4 2.4 5 3.8 12.3 4.5 17.8 1.6l.3.6c-2.4 1.2-5.1 1.9-7.9 1.9-.5 0-1.1 0-1.6-.1zm-7-17.7c-2 .2-3.6 1-4.6 2.3-1.3 1.5-1.7 4-1 6.2.2.7.6 1.4 1 2.1 2.5.3 5 .3 7.5-.2 2.1-.4 3.4-1.1 4.2-2.1 1.3-1.7 1.1-4.5-.6-6.2-1.3-1.3-3.2-2-5.3-2-.4-.2-.8-.2-1.2-.1zm20 18.6v1.5c-.1.1-.3.3-.5.3-.9.3-3.1.6-5.7.6-3.4 0-6.2-.4-6.2-.9V361h12.4z" class="c"/><ellipse cx="398.5" cy="361" rx="6.2" ry=".9" class="h"/><path d="M395.3 331.3V361s1.1.2 3.1.2 3.1-.2 3.1-.2v-29.7h-6.2z" class="AF"/><path d="M397.9 361.2h-.7v-28.4h.7v28.4zm-2.6-.2v-28.6l1.1.1v28.7c-.3-.1-.7-.2-1.1-.2z" fill="#ffa158"/><path d="M402.7 331.8v1.2c0 .4-1.9.7-4.3.7s-4.3-.3-4.3-.7v-1.2h8.6z" class="c"/><ellipse cx="398.5" cy="331.8" rx="4.3" ry=".7" class="h"/><path d="M399.02 331.75h-1.2v-22.2h1.2z" class="AG"/><path d="M393.4 310.3h10.1a.68.68 0 0 0 .7-.7h0a.68.68 0 0 0-.7-.7h-10.1a.68.68 0 0 0-.7.7h0a.68.68 0 0 0 .7.7z" class="c"/><ellipse transform="matrix(.2112 -.9774 .9774 .2112 31.7454 991.8605)" cx="630.4" cy="476.3" rx="32.7" ry="24.7" class="o"/><use xlink:href="#D" class="H"/><use xlink:href="#E" class="T"/><use xlink:href="#F" class="H"/><g class="T"><use xlink:href="#G"/><ellipse transform="matrix(.2112 -.9774 .9774 .2112 29.8326 988.0591)" cx="627.1" cy="475.5" rx="6.7" ry="5"/></g><ellipse transform="matrix(.2112 -.9774 .9774 .2112 -14.879 934.0862)" cx="571.3" cy="476.3" rx="32.7" ry="24.7" class="o"/><use xlink:href="#D" x="-59.1" class="H"/><use xlink:href="#E" x="-59.1" class="T"/><use xlink:href="#F" x="-59.1" class="H"/><g class="T"><use xlink:href="#G" x="-59.1"/><ellipse transform="matrix(.2112 -.9774 .9774 .2112 -16.7918 930.2849)" cx="568" cy="475.5" rx="6.7" ry="5"/></g><ellipse transform="matrix(.2112 -.9774 .9774 .2112 -60.9891 876.949)" cx="512.8" cy="476.3" rx="32.7" ry="24.7" class="o"/><path d="M506.6 505.8c-1.2 0-2.4-.1-3.6-.4-12.1-2.7-19.1-18.2-15.5-34.6 3.1-14.5 13.9-25.4 24.9-25.4 1.2 0 2.4.1 3.6.4 12.1 2.7 19.1 18.2 15.5 34.6-3.1 14.4-13.8 25.4-24.9 25.4z" class="H"/><path d="M512.4 443.2v4.3a16.28 16.28 0 0 1 3.1.3c11 2.4 17.2 16.8 13.9 32.1-2.9 13.5-12.7 23.7-22.8 23.7-1.1 0-2.1-.1-3.1-.3-11-2.4-17.2-16.8-13.9-32.1 2.9-13.5 12.7-23.7 22.8-23.7v-4.3m0 0c-12 0-23.6 11.2-27 27.1-3.8 17.6 3.9 34.3 17.2 37.2 1.4.3 2.7.4 4.1.4 12 0 23.6-11.2 27-27.1 3.8-17.6-3.9-34.3-17.2-37.2-1.4-.3-2.7-.4-4.1-.4h0z" class="T"/><path d="M507.8 492.6c-.7 0-1.3-.1-1.9-.2-6.7-1.5-10.5-10.2-8.5-19.5 1.8-8.2 7.8-14.4 13.9-14.4.7 0 1.3.1 1.9.2 6.7 1.5 10.5 10.2 8.5 19.5-1.8 8.2-7.7 14.4-13.9 14.4z" class="H"/><g class="T"><use xlink:href="#G" x="-117.6"/><ellipse transform="matrix(.2112 -.9774 .9774 .2112 -62.9019 873.1478)" cx="509.5" cy="475.5" rx="6.7" ry="5"/></g><ellipse transform="matrix(.2112 -.9774 .9774 .2112 -106.3104 820.7894)" cx="455.4" cy="476.3" rx="32.7" ry="24.7" class="o"/><use xlink:href="#D" x="-175" class="H"/><use xlink:href="#E" x="-175" class="T"/><use xlink:href="#F" x="-175" class="H"/><g class="T"><path d="M453.8 460.7h0c.5 0 1 .1 1.5.2 5.5 1.2 8.6 8.9 6.9 16.9-1.6 7.2-6.6 12.6-11.8 12.6-.5 0-1-.1-1.5-.2-5.5-1.2-8.6-8.9-6.9-16.9 1.6-7.2 6.6-12.6 11.8-12.6m0-4.4c-7.1 0-14 6.7-16 16.1-2.3 10.5 2.3 20.3 10.2 22.1.8.2 1.6.3 2.4.3 7.1 0 14-6.7 16-16.1 2.3-10.5-2.3-20.3-10.2-22.1-.8-.2-1.6-.3-2.4-.3h0z"/><ellipse transform="matrix(.2112 -.9774 .9774 .2112 -108.2233 816.988)" cx="452.1" cy="475.5" rx="6.7" ry="5"/></g><g fill="#d4b35b"><path d="M933.9 246.2h-36.2l3.8-10.5h32.4zm30.9 0h36.3l-5.4-15.8h-30.9z"/><path d="M968.5 246.2H929l4.2-27.4h31.1z"/></g><path d="M970.8 246.2h-2.3l-2.5-15.8h1.9zm-40.2-10.5l-1.6 10.5h-2.1l1.9-10.5z" fill="#9f8644"/><g fill="#ddc27c"><path d="M933.2 218.8l27.1 4.1 8.2 23.3-4.2-27.4z"/><path d="M964.3 218.8h-31.1l-4.2 27.4 8.4-23.3zm3.6 11.6h27.8l5.4 15.8-8.1-13.1zm-39.1 5.3h-27.3l-3.8 10.5 5.8-7.9z"/></g><path d="M953.6 241.2h-8.2v-3.4h2.3v-6.9h-1.5l.7-3.4h4.7v10.3h2.1v3.4zm32.5 0l-.5 2.4h-5.9l3.3-6c.1-.2.2-.4.2-.5s.1-.3.1-.4c0-.4-.2-.5-.5-.5-.2 0-.3 0-.4.1s-.1.2-.1.4v.3c0 .1 0 .2.1.3l-2.6.6c0-.1-.1-.3-.1-.6v-.7c0-.4.1-.8.2-1.1.1-.4.3-.7.6-.9.3-.3.6-.5 1-.7s.9-.2 1.4-.2c1.1 0 1.9.3 2.4.8s.8 1.2.8 2.2c0 .2-.1.5-.2.8s-.2.6-.4.9l-1.5 2.8h2.1zm-72.6 2.6l.6-1.5a.76.76 0 0 0 .4.2c.2.1.3.1.4.1.4 0 .6-.2.6-.7 0-.2-.1-.4-.2-.6s-.3-.2-.6-.2h-.5l.6-1.5h-1.1l.3-1.5h3.1l-.8 2c.2 0 .3.1.4.2a1.38 1.38 0 0 1 .3.4c.1.1.1.3.2.5 0 .2.1.3.1.5 0 .4 0 .7-.1 1s-.2.6-.4.8-.4.4-.7.5-.6.2-.9.2-.7 0-1-.1-.5-.2-.7-.3z" fill="#9f8644"/><path fill="#c7b299" d="M1199.4 442.6l1.2-18.7"/><path d="M1387.7 298.2l-213.5 15.5v74.6l213.5.2z" class="R"/><path d="M1387.7 393.2c-5.5-.3-12.5-.4-18.8-.4-24.2 0-43.7 2.2-43.7 4.9s19.6 4.9 43.7 4.9c6.3 0 13.4-.2 18.8-.5v-8.9z" class="p"/><path d="M1350.7 381h-21.9l-1.1 4.5h22.2z" class="i"/><path d="M1349.87 387.046h-23v-1.5h23z" class="q"/><path d="M1346.106 388.222h-.7v-1.1h.7zm3.36 0h-.7v-1.1h.7zm-21.4 0h-.7v-1.1h.7zm2.274 0h-.7v-1.1h.7z" class="M"/><path d="M1349.915 387.046h-3.4v-1.5h3.4z" class="r"/><path fill="#7fba63" d="M1387.7 386.2c-5.5-.9-13-1.7-20.8-1.7-28.7 0-41.6 12.7-41.6 12.7s-1.2 3.5 43.6 3.5l18.7-.1v-14.4z"/><path d="M1387.7 386.2c-2.6-1.1-10.6-1.7-18.8-1.7-10.5 0-19 1.3-19 3s8.5 1.6 19 1.6c8.2 0 16.2.1 18.8-.7v-2.2z" class="p"/><path d="M1174.2 328.4l213.5-12.2v5.4l-213.5 12.3zm0 13.8l213.5-8.3v5.4l-213.5 8.4zm213.7 8l-213.7 6.1v4.5l213.5-4.3z" class="s"/><path d="M1200.8 338.1v2.7l1.9-2.8 1.9-.1-2.3 3.2 2.6 3.4-2 .1-2-2.8v2.9l-1.5.1v-6.6l1.4-.1zm7.1 2.2v-.4l1.4-.1v4.5l-1.4.1v-.5c-.3.4-.7.7-1.3.7s-1-.2-1.4-.7c-.4-.4-.6-1-.6-1.6 0-.7.2-1.3.6-1.8.4-.4.9-.7 1.4-.7.6 0 1 .2 1.3.5zm-.9.8c-.2 0-.4.1-.6.3a1.08 1.08 0 0 0-.3.7c0 .3.1.5.3.7s.4.3.6.3.5-.1.6-.3a1.08 1.08 0 0 0 .3-.7c0-.3-.1-.5-.3-.7-.1-.2-.3-.3-.6-.3zm3.4 3.2v-4.5l1.5-.1v1.8l1.2-1.9 1.9-.1-1.7 2.2 1.9 2.3-1.9.1-1.4-1.9v2l-1.5.1zm7.5 2l1.4-3-2.1-3.8 1.7-.1 1.1 2.3 1.1-2.4 1.7-.1-3.3 7.1h-1.6zm8.7-4.1v1.4c-.3.2-.7.3-1.1.3a2.52 2.52 0 0 1-1.7-.6c-.4-.4-.7-1-.7-1.7s.2-1.3.7-1.8c.4-.5 1-.7 1.7-.8.3 0 .7.1 1 .2v1.4c-.3-.2-.5-.3-.8-.3s-.6.1-.7.4c-.2.2-.3.5-.3.8s.1.6.3.8.5.3.8.3c.3-.1.5-.2.8-.4zm1.5 1.4v-3.3h-1.1v-1.4l3.8-.2v1.4l-1.1.1v3.3l-1.6.1zm4.9-.7v2.8l-1.6.1-.1-7 1.6-.1v.5c.3-.5.8-.7 1.3-.7.6 0 1.2.2 1.6.6.5.5.7 1.1.7 1.8 0 .8-.2 1.4-.7 1.9-.4.5-.9.7-1.5.7-.4 0-.9-.2-1.3-.6zm1-3c-.3 0-.5.1-.7.3s-.3.5-.3.8.1.5.3.7.4.3.7.3.5-.1.7-.3.3-.5.3-.8-.1-.6-.3-.8c-.2-.1-.4-.2-.7-.2zm8.8.7c0 .7-.2 1.3-.7 1.8s-1.2.8-2 .9c-.8 0-1.5-.2-2-.7a2.19 2.19 0 0 1-.7-1.7c0-.7.2-1.3.7-1.8s1.2-.8 2-.9c.8 0 1.5.2 2 .7a2.34 2.34 0 0 1 .7 1.7zm-2.7-.9c-.3 0-.5.1-.7.3s-.3.5-.3.8.1.5.3.7.4.3.7.3.5-.1.7-.3.3-.5.3-.8-.1-.5-.3-.8c-.2-.1-.5-.2-.7-.2zm3.6-1.5l1.6-.1v2.5l1.8-2.5 1.4-.1.1 4.8-1.7.1v-2.5l-1.8 2.6-1.5.1.1-4.9zm6.9 4.5l-.1-3.4-1.2.1V338l4.1-.2v1.4l-1.2.1.1 3.4h-1.7zm5.3-3.4l1.2-.1c.6 0 1 .1 1.3.4s.4.7.5 1.2c0 .5-.1.9-.4 1.2s-.7.5-1.3.5l-2.9.1-.1-4.8 1.7-.1v1.6zm0 2.1h.6c.2 0 .4-.1.4-.2.1-.1.1-.2.1-.4s0-.3-.1-.3c-.1-.1-.3-.1-.5-.1h-.6l.1 1zm7.4-.7v1.5c-.4.2-.8.3-1.2.3-.8 0-1.4-.2-1.9-.7s-.8-1.1-.8-1.8c0-.8.2-1.4.7-1.9s1.2-.8 1.9-.8c.4 0 .8.1 1.1.2v1.5c-.3-.2-.6-.3-.9-.3s-.6.1-.8.4c-.2.2-.3.5-.3.9 0 .3.1.6.3.8s.5.4.9.3.7-.2 1-.4zm.7 1.5l1.3-1.8c-.3-.1-.6-.2-.9-.4s-.4-.6-.4-1c0-.5.1-.9.4-1.2.3-.4.9-.6 1.7-.6l2.6-.1.1 5-1.8.1v-1.6h-.1l-1.1 1.6h-1.8zm3-2.8v-1.1h-.5c-.3 0-.4.1-.5.2s-.1.2-.1.4.1.3.2.4.3.1.5.1h.4zm5.8 2.5l-.1-5 1.8-.1v1.7l1.7-.1v-1.7l1.8-.1.1 5-1.8.1v-1.9l-1.7.1v1.9l-1.8.1zm10.5-5v-.5l1.9-.1.1 5.1-1.9.1v-.6c-.3.5-.9.8-1.6.8s-1.4-.2-1.9-.7-.8-1.1-.8-1.8c0-.8.2-1.5.7-2.1.5-.5 1.1-.8 1.8-.8s1.3.2 1.7.6zm-1.1.9c-.3 0-.6.1-.8.4-.2.2-.4.5-.3.8 0 .3.1.6.4.8s.5.3.8.3.6-.1.8-.4c.2-.2.3-.5.3-.8s-.1-.6-.4-.8c-.2-.2-.5-.3-.8-.3zm9.1 2.9l.1 3.1-1.9.1-.2-7.8 1.9-.1v.6c.4-.5.9-.8 1.6-.8.8 0 1.4.2 1.9.7.6.5.9 1.2.9 2s-.2 1.5-.8 2.1c-.5.5-1.1.8-1.8.8-.7-.1-1.3-.3-1.7-.7zm1-3.3c-.3 0-.6.1-.9.4-.2.2-.4.5-.3.9 0 .3.1.6.4.8.2.2.5.3.9.3.3 0 .6-.1.8-.4.2-.2.4-.5.3-.8 0-.3-.1-.6-.4-.8-.1-.4-.4-.5-.8-.4zm8.6-1.3v-.5l2-.1.2 5.2-2 .1v-.6c-.4.5-.9.8-1.7.8s-1.4-.2-2-.8c-.5-.5-.8-1.1-.8-1.9 0-.9.2-1.6.8-2.1.5-.5 1.1-.8 2-.8.5 0 1.1.2 1.5.7zm-1.2.9c-.3 0-.6.1-.9.4s-.4.5-.4.9c0 .3.1.6.4.8s.6.3.9.3.6-.1.9-.4c.2-.2.4-.5.3-.9 0-.3-.1-.6-.4-.8-.1-.2-.4-.3-.8-.3zm6.1-1.1h0c.5-.5 1.1-.8 2-.8s1.7.2 2.3.6.8 1.1.9 1.9c0 .9-.2 1.6-.8 2.1-.6.6-1.4.9-2.5 1-1 0-1.9-.2-2.5-.7-.7-.6-1-1.5-1-2.7-.1-1.6.3-2.8 1.1-3.6.3-.3.6-.5.9-.7s.8-.3 1.3-.4l.4-.1c.4-.1.7-.2.9-.3a.76.76 0 0 0 .2-.4l1.8-.1c0 .4-.2.8-.5 1.2-.3.3-.6.6-1.1.8-.2.1-.7.2-1.5.5-.6.2-1 .4-1.2.6-.5.3-.7.6-.7 1.1zm1.7.8c-.3 0-.6.1-.9.3s-.4.6-.4.9c0 .4.2.7.5.9s.5.3.9.3c.3 0 .6-.1.9-.3.3-.3.4-.6.4-1 0-.3-.2-.6-.5-.8-.3-.3-.6-.3-.9-.3zm11.3.7c0 .8-.2 1.5-.8 2-.6.6-1.5.9-2.6 1-1.1 0-1.9-.2-2.6-.8-.6-.5-.9-1.2-1-1.9 0-.8.2-1.4.8-2s1.5-1 2.5-1c1.1 0 1.9.2 2.6.8.8.5 1.1 1.1 1.1 1.9zm-3.5-1.1c-.4 0-.7.1-.9.4-.3.2-.4.5-.4.9 0 .3.2.6.4.8.3.2.6.3.9.3.4 0 .7-.1.9-.4.3-.2.4-.5.4-.9 0-.3-.2-.6-.4-.9-.3-.1-.6-.2-.9-.2zm5.8 3.7l-.2-3.8-1.5.1-.1-1.6 5.2-.2.1 1.6-1.5.1.2 3.8h-2.2zm4.9 2.6l1.9-3.6-3.1-4.6 2.5-.1 1.7 2.7 1.5-2.9 2.5-.1-4.5 8.5-2.5.1z" opacity=".54" fill="#111919"/><path d="M1200.2 337.7v2.7l1.9-2.8 1.9-.1-2.3 3.2 2.6 3.4-2 .1-2-2.8v2.9l-1.5.1v-6.6l1.4-.1zm7.1 2.3v-.4l1.5-.1v4.5l-1.5.1v-.5c-.3.4-.7.7-1.3.7s-1-.2-1.5-.7c-.4-.4-.6-1-.6-1.6 0-.7.2-1.3.6-1.8.4-.4.9-.7 1.4-.7.7 0 1.1.1 1.4.5zm-.9.8c-.2 0-.5.1-.6.3a1.08 1.08 0 0 0-.3.7c0 .3.1.5.3.7s.4.3.7.3c.2 0 .5-.1.6-.3a1.08 1.08 0 0 0 .3-.7c0-.3-.1-.5-.3-.7s-.4-.3-.7-.3zm3.4 3.1v-4.5l1.5-.1v1.8l1.2-1.9 1.9-.1-1.7 2.2 1.9 2.3-1.9.1-1.4-1.9v2l-1.5.1zm7.5 2.1l1.4-3-2.1-3.8 1.7-.1 1.1 2.3 1.1-2.4 1.7-.1-3.3 7.1h-1.6zm8.7-4.2v1.4c-.3.2-.7.3-1.1.3a2.52 2.52 0 0 1-1.7-.6c-.4-.4-.7-1-.7-1.7s.2-1.3.7-1.8c.4-.5 1-.7 1.7-.8.3 0 .7.1 1 .2v1.4c-.3-.2-.5-.3-.8-.3s-.6.1-.7.4c-.2.2-.3.5-.3.8s.1.6.3.8.5.3.8.3.6-.2.8-.4zm1.6 1.4v-3.3l-1.1.1v-1.4l3.8-.2v1.4l-1.1.1v3.3h-1.6zm4.9-.6v2.9l-1.6.1-.1-7.1 1.6-.1v.5c.3-.5.8-.7 1.4-.7s1.2.2 1.6.6c.5.5.7 1.1.7 1.8 0 .8-.2 1.4-.7 1.9-.4.5-.9.7-1.5.7s-1-.2-1.4-.6zm.9-3c-.3 0-.5.1-.7.3s-.3.5-.3.8.1.5.3.7.4.3.7.3.5-.1.7-.3.3-.5.3-.8-.1-.6-.3-.8c-.1-.1-.4-.2-.7-.2zm8.9.7c0 .7-.2 1.3-.7 1.8s-1.2.8-2 .9c-.8 0-1.5-.2-2-.7a2.19 2.19 0 0 1-.7-1.7c0-.7.2-1.3.7-1.8s1.2-.8 2-.9c.8 0 1.5.2 2 .7.5.4.7 1 .7 1.7zm-2.7-1c-.3 0-.5.1-.7.3s-.3.5-.3.8.1.5.3.7a1.08 1.08 0 0 0 .7.3c.3 0 .5-.1.7-.3s.3-.5.3-.8-.1-.6-.3-.8c-.2-.1-.5-.2-.7-.2zm3.6-1.4l1.6-.1v2.5l1.8-2.5 1.4-.1.1 4.8-1.7.1v-2.5l-1.8 2.6-1.5.1.1-4.9zm6.9 4.5l-.1-3.4-1.2.1v-1.4l4.1-.2v1.4l-1.2.1.1 3.4h-1.7zm5.3-3.5l1.2-.1c.6 0 1 .1 1.3.4s.4.7.5 1.2c0 .5-.1.9-.4 1.2s-.8.5-1.3.5l-2.9.1-.1-4.9 1.7-.1v1.7zm0 2.1h.6c.2 0 .4-.1.4-.2.1-.1.1-.2.1-.4s0-.3-.1-.3c-.1-.1-.3-.1-.5-.1h-.6l.1 1zm7.4-.7v1.5c-.4.2-.8.3-1.2.3-.8 0-1.4-.2-1.9-.7s-.8-1.1-.8-1.8c0-.8.2-1.4.7-1.9s1.2-.8 1.9-.8c.4 0 .8.1 1.1.2v1.5c-.3-.2-.6-.3-.9-.3s-.6.1-.8.4c-.2.2-.3.5-.3.9 0 .3.1.6.3.8s.5.4.9.3c.5-.1.8-.2 1-.4zm.8 1.5l1.3-1.8c-.3-.1-.6-.2-.9-.4s-.4-.6-.4-1c0-.5.1-.9.4-1.2.3-.4.9-.6 1.7-.6l2.6-.1.1 5-1.8.1v-1.6h-.1l-1.1 1.6h-1.8zm3-2.7V338h-.5c-.3 0-.4.1-.6.2-.1.1-.1.3-.1.4 0 .2.1.3.2.4s.3.1.5.1h.5zm5.7 2.4l-.1-5 1.8-.1v1.7l1.7-.1v-1.7l1.8-.1.1 5-1.8.1v-1.9l-1.7.1v1.9l-1.8.1zm10.6-5v-.5l1.9-.1.1 5.1-1.9.1v-.6c-.3.5-.9.8-1.6.8s-1.4-.2-1.9-.7-.8-1.1-.8-1.8c0-.8.2-1.5.7-2.1.5-.5 1.1-.8 1.9-.8.6 0 1.2.2 1.6.6zm-1.1.9c-.3 0-.6.1-.8.4-.2.2-.4.5-.4.8s.1.6.4.8.5.3.9.3c.3 0 .6-.1.8-.4.2-.2.3-.5.3-.8s-.1-.6-.4-.8c-.2-.2-.5-.3-.8-.3zm9.1 2.9l.1 3.1-1.9.1-.2-7.8 1.9-.1v.6c.4-.5.9-.8 1.6-.8.8 0 1.4.2 2 .7s.9 1.2.9 2-.2 1.5-.8 2.1c-.5.5-1.1.8-1.8.8-.8-.1-1.3-.3-1.8-.7zm1.1-3.3c-.3 0-.6.1-.9.4-.2.2-.4.5-.3.9 0 .3.1.6.4.8.2.2.5.3.9.3.3 0 .6-.1.8-.4.2-.2.4-.5.4-.8s-.1-.6-.4-.8c-.3-.4-.6-.5-.9-.4zm8.6-1.4v-.5l2-.1.2 5.2-2 .1v-.6c-.4.5-.9.8-1.7.8s-1.4-.2-2-.8c-.5-.5-.8-1.1-.8-1.9 0-.9.2-1.6.8-2.1.5-.5 1.2-.8 2-.8a3.4 3.4 0 0 1 1.5.7zm-1.2 1c-.3 0-.6.1-.9.4s-.4.5-.4.9c0 .3.1.6.4.8s.6.3.9.3.6-.1.9-.4c.2-.2.4-.5.3-.9 0-.3-.1-.6-.4-.8-.2-.2-.5-.3-.8-.3zm6.1-1.1h0c.5-.5 1.1-.8 2-.8s1.7.2 2.3.6.8 1.1.9 1.9c0 .9-.2 1.6-.8 2.1-.6.6-1.4.9-2.5 1-1 0-1.9-.2-2.5-.7-.7-.6-1-1.5-1.1-2.7-.1-1.6.3-2.8 1.1-3.6.3-.3.6-.5.9-.7s.8-.3 1.3-.4l.4-.1c.4-.1.7-.2.9-.3a.76.76 0 0 0 .2-.4l1.8-.1c0 .4-.2.8-.5 1.2-.3.3-.6.6-1.1.8-.2.1-.7.2-1.5.5-.6.2-1 .4-1.2.6-.4.2-.6.6-.6 1.1zm1.6.7c-.3 0-.6.1-.9.3s-.4.6-.4.9c0 .4.2.7.5.9s.5.3.9.3c.3 0 .6-.1.9-.3.3-.3.4-.6.4-1 0-.3-.2-.6-.5-.8-.2-.2-.5-.3-.9-.3zm11.5.8c0 .8-.2 1.5-.8 2-.6.6-1.5.9-2.6 1-1.1 0-1.9-.2-2.6-.8-.6-.5-.9-1.2-1-1.9 0-.8.2-1.4.8-2s1.5-1 2.5-1c1.1-.1 1.9.2 2.6.8.7.5 1 1.1 1.1 1.9zm-3.6-1.1c-.4 0-.7.1-.9.4-.3.2-.4.5-.4.9 0 .3.2.6.4.8.3.2.6.3.9.3.4 0 .7-.1.9-.4.3-.2.4-.5.4-.9 0-.3-.2-.6-.4-.9-.2-.1-.5-.2-.9-.2zm5.8 3.7l-.2-3.8-1.5.1-.1-1.6 5.2-.2.1 1.6-1.5.1.2 3.8h-2.2zm5 2.6l1.9-3.6-3.1-4.6 2.5-.1 1.7 2.7 1.5-2.9 2.5-.1-4.5 8.5-2.5.1z" class="H"/><path d="M1174.2 371.5l213.5-3.8v4.9l-213.5 2.9z" class="s"/><path d="M1174.2 320.1v-12.3l213.5-15.5v13.9z" class="m"/><path fill="#a1c2c2" d="M1387.7 292.3v4.1l-213.5 14.5v-3.1z"/><path d="M1233.1 381.4H1214l-1 4.3h19.4z" class="i"/><path d="M1232.355 387.065h-20.1v-1.4h20.1z" class="q"/><path d="M1229.04 388.188h-.6v-1.1h.6zm3 0h-.6v-1.1h.6zm-18.673 0h-.6v-1.1h.6zm1.993 0h-.6v-1.1h.6z" class="M"/><path d="M1232.327 387.065h-3v-1.4h3z" class="r"/><path d="M1313.9 381.4h-21l-1.1 4.3h21.3z" class="i"/><path d="M1313.135 387.065h-22.1v-1.4h22.1z" class="q"/><path d="M1309.413 388.188h-.7v-1.1h.7zm3.287 0h-.7v-1.1h.7zm-20.544 0h-.7v-1.1h.7zm2.198 0h-.7v-1.1h.7z" class="M"/><path d="M1313.133 387.065h-3.3v-1.4h3.3z" class="r"/><path d="M1201.6 381.4h-19.1l-.9 4.3h19.3z" class="i"/><path d="M1200.93 387.065h-20.1v-1.4h20.1z" class="q"/><path d="M1197.613 388.188h-.6v-1.1h.6zm2.992 0h-.6v-1.1h.6zm-18.675 0h-.6v-1.1h.6zm1.995 0h-.6v-1.1h.6z" class="M"/><path d="M1200.9 387.065h-3v-1.4h3z" class="r"/><path d="M1376.2 369.7c10.1-5.7 16.7-17.2 16.6-28.7 0-3.9-.8-7.9-2.9-11.1s-5.8-5.6-9.7-5.5c.3-3.8.2-8.3-1.2-11.9-2.1-5.7-8.3-9.3-14.4-9.2s-11.8 3.6-15.5 8.4-5.6 10.8-6.2 16.8c-1.1 9.9 1.2 20.4 7.2 28.4 5.9 7.9 17.5 17.7 26.1 12.8z" class="p"/><g class="f"><path d="M1372.2 386.7l-2.6-68.9-1.9 68.9c1.8 1 4.5 0 4.5 0z"/><path d="M1368.7 350l-8.8-17.4 8.8 23.3z"/></g><path opacity=".26" fill="#fedfc5" d="M1349.1 311.5c3.1-4 7.6-7.1 12.5-8-.2.2-16 7.8-13.6 34.8 2.3 25.6 18.6 32 20 32.3-6.8-1.7-13.7-8.2-17.9-13.9-6-8-8.2-18.4-7.2-28.4.6-5.9 2.5-12 6.2-16.8z"/><path d="M1368.7 350l-8.8-17.4 8.8 23.3z" class="f"/><path d="M1248.6 388.3h28.9V370l-28.9.7z" class="s"/><path fill="#86b0b0" d="M1249.4 388.3h27.3v-17.2l-27.3.6z"/><path d="M1262.9 388.177h-.3v-16.8h.3z" class="s"/><path d="M1324 440.4h-57.4l-5.3 2.1h59.4zm22.8-14.2h-49.9l-3.6 1.3 50.9.3z" fill="#eee1bd"/><path fill="#ddd1c2" d="M1366.3 415.8h-44l-3.9.7 45.5.7z"/><path d="M1279.1 341.9l-.6.7 8.7 1.6v44.1h.4v-44.1z" class="M"/><path d="M1278.5 342.6l.6-.2 8.1 1.8z" class="j"/><path d="M1230.2 344.3l-.5.7 8.2 1.5v41.8h.4v-41.8z" class="M"/><path d="M1229.7 345l.5-.2 7.7 1.7z" class="j"/><path d="M1196.8 345.9l-.5.7 7.9 1.4v40.3h.4V348z" class="M"/><path d="M1196.3 346.6l.5-.2 7.4 1.6z" class="j"/><path d="M1313.3 341.3l-.6.8 8.8 1.6v44.6h.4v-44.6z" class="M"/><path d="M1312.7 342.1l.6-.2 8.2 1.8z" class="j"/><circle cx="1185.4" cy="320.1" r="7.9" class="AF"/><path d="M1179.4 318c-.2-.1-.3-.2-.4-.3s-.1-.3-.2-.5c0-.2 0-.4.1-.5a.78.78 0 0 1 .4-.4c.2-.1.3-.1.5-.1s.4 0 .5.1a1.38 1.38 0 0 1 .4.3c.1.1.1.3.2.5 0 .2 0 .4-.1.5a.78.78 0 0 1-.4.4c-.2.1-.3.1-.5.1-.1 0-.3 0-.5-.1zm.9-.5c.1-.1.1-.2.1-.4s-.1-.3-.1-.4c-.1-.1-.2-.1-.4-.1-.1 0-.3.1-.3.2-.1.1-.1.2-.1.4s.1.3.2.4.2.1.4.1c0-.1.1-.1.2-.2zm2.9-1.3c.2.1.2.3.2.6v1.1h-.6v-1c0-.2 0-.3-.1-.3-.1-.1-.2-.1-.3-.1s-.3.1-.3.1c-.1.1-.1.2-.1.4v1h-.6l-.1-1.9h.5v.2c.1-.1.2-.1.3-.2s.2-.1.4-.1c.3 0 .5.1.7.2zm2.7.9h-1.5c0 .1.1.2.2.3s.2.1.4.1c.1 0 .2 0 .3-.1.1 0 .1-.1.2-.1l.3.3c-.2.2-.4.3-.8.3-.2 0-.4 0-.6-.1s-.3-.2-.4-.3-.1-.3-.2-.5c0-.2 0-.4.1-.5a.78.78 0 0 1 .4-.4c.2-.1.3-.1.5-.1s.4 0 .5.1c.2.1.3.2.4.3s.1.3.1.5c.1.1.1.1.1.2zm-1.3-.6c-.1.1-.1.2-.1.3h.9c0-.1-.1-.2-.2-.3s-.2-.1-.3-.1-.2 0-.3.1zm-4.2 4.7c-.1 0-.1.1-.2.1h-.3c-.2 0-.4 0-.5-.2-.1-.1-.2-.3-.2-.5v-.8h-.3v-.4h.3v-.5h.6v.5h.5v.4h-.5v.8c0 .1 0 .1.1.2 0 0 .1.1.2.1s.2 0 .2-.1l.1.4zm3.4-2l-.6 1.9h-.5l-.5-1.2-.4 1.2h-.5l-.7-1.9h.5l.5 1.3.4-1.3h.5l.5 1.3.4-1.3h.4zm.7 1.8c-.2-.1-.3-.2-.4-.3s-.1-.3-.2-.5c0-.2 0-.4.1-.5a.78.78 0 0 1 .4-.4c.2-.1.3-.1.5-.1s.4 0 .5.1c.2.1.3.2.4.3s.1.3.2.5c0 .2 0 .4-.1.5a.78.78 0 0 1-.4.4c-.2.1-.3.1-.5.1-.1.1-.3 0-.5-.1zm.9-.5c.1-.1.1-.2.1-.4s-.1-.3-.1-.4c-.1-.1-.2-.1-.4-.1-.1 0-.3.1-.3.2-.1.1-.1.2-.1.4s.1.3.2.4.2.1.4.1l.2-.2zm-5.8 3.6c-.2-.1-.3-.2-.4-.3s-.1-.3-.2-.5c0-.2 0-.4.1-.5a.78.78 0 0 1 .4-.4c.2-.1.3-.1.5-.1s.4 0 .5.1c.2.1.3.2.3.4l-.4.2c-.1-.2-.3-.3-.4-.3a.76.76 0 0 0-.4.2c-.1.1-.1.2-.1.4s.1.3.2.4.2.1.4.1.3-.1.4-.3l.4.2c-.1.2-.2.3-.3.4s-.3.1-.5.1c-.1 0-.3 0-.5-.1zm3.5-1.7c.2.1.2.3.3.6v1.1h-.5v-.2c-.1.2-.3.3-.6.3-.1 0-.3 0-.4-.1-.1 0-.2-.1-.3-.2s-.1-.2-.1-.3c0-.2.1-.3.2-.4s.3-.2.6-.2h.4c0-.1 0-.2-.1-.3s-.2-.1-.3-.1-.2 0-.3.1c-.1 0-.2.1-.2.1l-.2-.4c.1-.1.2-.1.4-.2.1 0 .3-.1.5-.1l.6.3zm-.4 1.3c.1 0 .1-.1.2-.2v-.2h-.4c-.2 0-.3.1-.3.2s0 .1.1.2c.1 0 .1.1.2.1 0 0 .1 0 .2-.1zm2.3-1.5c.1-.1.2-.1.4-.1v.5h-.1c-.2 0-.3.1-.4.1-.1.1-.1.2-.1.4v.9h-.6l-.1-1.9h.5v.3c.2-.1.3-.2.4-.2zm2.9 1h-1.5c0 .1.1.2.2.3s.2.1.4.1c.1 0 .2 0 .3-.1.1 0 .1-.1.2-.1l.3.3c-.2.2-.4.3-.8.3-.2 0-.4 0-.6-.1a1.38 1.38 0 0 1-.4-.3c-.1-.1-.1-.3-.2-.5 0-.2 0-.4.1-.5a.78.78 0 0 1 .4-.4c.2-.1.3-.1.5-.1s.4 0 .5.1.3.2.4.3.1.3.1.5c.1 0 .1.1.1.2zm-1.3-.6c-.1.1-.1.2-.1.3h.9c0-.1-.1-.2-.2-.3s-.2-.1-.3-.1-.2 0-.3.1zm3.9.5h-1.5c0 .1.1.2.2.3s.2.1.4.1c.1 0 .2 0 .3-.1.1 0 .1-.1.2-.1l.3.3c-.2.2-.4.3-.8.3-.2 0-.4 0-.6-.1s-.3-.2-.4-.3-.1-.3-.2-.5c0-.2 0-.4.1-.5a.78.78 0 0 1 .4-.4c.2-.1.3-.1.5-.1s.4 0 .5.1c.2.1.3.2.4.3s.1.3.1.5c.1.1.1.1.1.2zm-1.3-.6c-.1.1-.1.2-.1.3h.9c0-.1-.1-.2-.2-.3s-.2-.1-.3-.1c-.2 0-.3.1-.3.1zm2.8-.5c.1-.1.2-.1.4-.1v.5h-.1c-.2 0-.3.1-.4.1-.1.1-.1.2-.1.4v.9h-.6l-.1-1.9h.5v.3l.4-.2z" class="H"/><path opacity=".3" d="M1256.6 418.2c-.4 6.2 24.1 6.2 53.8 6.2s53.8-1.8 53.8-6.2-24.1-8-53.8-8-53.5 3.6-53.8 8z"/><path d="M1188.3 497.3c75.6-8.2 146.8-66.6 199.5-94.5v2c-51.5 32.4-119.2 89.6-199.5 92.5z" class="AB"/><path d="M1250.5 372.9v14.2h11.1V382zm14 0v14.2h11.1V382z" fill="#6e9e9e"/><g fill="#d2d2d2"><use xlink:href="#H"/><use xlink:href="#H" x="5.9"/></g><path d="M1286 419.1c-7.3.7-14.8-.1-22.1-1v-13l14.5-2.6c2.3 1.6 4.5 3.3 6.8 4.9.2 3.9.5 7.8.8 11.7zm71.9-.7c-8 .5-19 2.2-26.4.8s-2-14.6-1.7-18.7l20.7-.4 8.6 11.6c-.4 2.3-.5 4.4-1.2 6.7z" fill="#212427"/><path fill="#0a0a0a" d="M1285 415.5c-.1-4.5-3.3-7.1-7.6-7.9h-3.7v.5c-3.1 1.6-5.1 4.1-5 7.6.1 3.6 2.2 5.9 5.3 7.5v.6c1.2 0 2.3 0 3.5-.1 4.3-.8 7.5-3.6 7.5-8.2z"/><path fill="#afc5d6" d="M1264 418c.1 0 1 0 .9-1-.9-5.8.7-10.7 7.6-10.9 7.5-.2 11 5.4 12.4 11.8.3 1.3.6 1.2 1.4 1.2 15.6-.6 31.8 0 47.1.3 1.7 0 1.3.1 1.4-1.5.2-8.3 3.4-14.5 13.3-13.4 7.2.8 9.4 6.3 8.8 12.6-.1 1.3.5 1.3 1.3 1.3 3.2-.3 9.2-1.3 9.1-5.3.4-1.9 1.3-4.5 1.6-6.2s-.4-2.2-1.4-3c-.3-2.1-1.6-3.7-3.1-5.2-2.3-2.6-6.8-3.3-10-4-1.3-2.4-24.5-3.5-26.5-3.6-7.7-2.2-8.5-3.8-17.7-6.2s-25.6.6-34.4 6.8c-5.5.8-11.3 1.5-15.9 3.3-4.1 1.6-4.5 2.8-6.2 6.5-.4.8-.3 2.3-.1 3.3.1.5.3 1.3.5 1.8-.6.8-1.2.9-1.2 2.2s1.1 3.5 1.8 4.9c.1 3.1 7 4.1 9.3 4.3z"/><path fill="#cadceb" d="M1326.7 397.8c-6.3-3.1-12.3-6.2-18.9-8.8-6.6-2.5-15.4-1.9-21.9-.5s-11.1 4.1-15.8 8.3l-15.3 1.4a11.94 11.94 0 0 0-.8 1.6l1 .5c24.6-1 51 1.3 75.3 2.6 1.7.1.6-.5.3-.8-.7-.9-4.2-1.2-5.3-1.6-1.4-.5-2.7-1.1-2.4-2.6 2.1 2.5 8 2.2 10.2 2.1 2.2 0 7.4-.3 4.7 2.7.2 0 5.2.3 3 1.3 4-1 7.9-1.3 11.6.8.8-4 4.1-4.2 7.7-4-10.7-2.2-22.2-2.5-33.4-3z"/><circle cx="1274.3" cy="415.6" r="8.1" class="e"/><path d="M1355.9 414.3c.1 4.9-3.7 8.9-8.6 9s-8.9-3.7-9-8.6 3.7-8.9 8.6-9c5-.1 8.9 3.7 9 8.6z"/><path d="M1354.2 407.1l6.3-.4c.8-.1 1.1-.3 1.8-.7.3-.2.7-.6 1-.9l.1.1c-.3.3-.7.7-1 .9-.6.5-1 .7-1.9.8l-6.1.4c-.1-.1-.2-.1-.2-.2z" class="W"/><path d="M1354.3 407.2l6.1-.4c.8-.1 1.1-.3 1.8-.7.3-.2.7-.6 1-.9l.1.1c-.3.3-.7.7-1 .9-.6.5-1 .7-1.9.8l-6 .4c0 0-.1-.1-.1-.2z" class="X"/><circle transform="matrix(.8586 -.5126 .5126 .8586 -22.2656 748.6788)" cx="1346.1" cy="414.7" r="8.8" class="e"/><path d="M1287.6 416.2c16.4 1.4 32.2 1.1 47.2.4l-47.2-.4z" class="X"/><path stroke="#fff" d="M1356.8 415.6c3.5-.3 7.3-.6 10.2-2.5" class="P Q t"/><g fill="#dfe6e6"><path d="M1363.6 403c.6.4 2.7 2 2 2.9s-2.7-.8-3.3-1.2-2.7-2-2-2.9 2.7.8 3.3 1.2z"/><path d="M1364.9 402.2c.4.3 2.1 1.6 1.6 2.2s-2.1-.6-2.6-1c-.4-.3-2.1-1.6-1.6-2.2.6-.6 2.2.7 2.6 1z"/></g><path stroke="#fff" stroke-width=".154" d="M1254.7 398.6h0" class="P Q"/><path fill="#537d7d" d="M1275.5 397.2l2.1-1.4c6.2-4.4 13.4-6.9 20.7-6.9 8.6 0 15.7 4.3 22.3 9-.9.7-1.7 1.4-2.6 2.2l-42.5-2.9z"/><g class="P Q b g AM"><path stroke="#51555a" d="M1255 400.1l12.3-.6c3.9-.1 5.2-.7 8.4-2.3"/><path d="M1320.5 397.9c1.9.2 3.8 0 5.7-.3" class="AH"/></g><path fill="#759797" d="M1326.3 397.7c-6.3-3.5-13-6.4-19.7-9.2 1.1-.6 4.5-1.7 4.4-3.5 5.7 1.5 11.2 3.5 16.5 5.8s2.2 5-1.2 6.9z"/><path fill="#c4d4e0" d="M1362.3 401.2c-.2.3.1.6.2.9-7.6-4.2-24.9-4.1-33.9-4.4 6.9.2 30.5 0 35 3.7-.3-.1-1-.5-1.3-.2z"/><path d="M1354.3 394.6c-6.4-1.8-13.3-2.3-19.9-2.8 6.7-.2 13.4 1.2 19.9 2.8z" class="X"/><use xlink:href="#I" class="W"/><path d="M1367 410.7c0 .2-.3.3-.4.3" class="P Q b g t AH"/><path fill="#5e3323" d="M1364 408.7c-1 .2-2.1.2-3.1.2-.1.5 0 .9.6 1 1.1.2 2.3.2 3.4-.1.1-.6-.3-.9-.9-1.1z"/><path fill="#c4d4e0" d="M1285.3 410.8l43.9 1c-14.6-.8-29.3-1.5-43.9-1z"/><path d="M1333 409.5c-.1.3-.2.7-.4 1-.3.7-.9 1.2-1.7 1.2h-2.8c-.9 0-1.2-.7-1-1.5.1-.3.4-.9.6-1.2.4-.7.9-1 1.7-1l2.6.1c.9.1 1.2.7 1 1.4z" class="W"/><path d="M1325.6 408.9l9.5.3-9.5-.3zm-.2 1.4l9.5.3-9.5-.3z" class="H"/><path d="M1332.2 395.1l-1.4 1.6c-.1.1-.1.4.1.4.9.1 2.2.3 3.1.2 1-.2 1.3-1.2 1.7-1.8.1-.2.2-.3-.2-.4-.7-.3-1.9-.3-2.7-.2-.2-.1-.4-.1-.6.2zm-1.3-3.3c.4.2.8.3 1.2.6.1.1.1.1.3.1.6.1 1.2.1 1.8 0 .1 0 .2-.1 0-.2-.6-.3-1.5-.5-2.1-.6h-1.2c-.1 0-.1.1 0 .1z" class="W"/><path stroke="#fff" d="M1258.4 404.4h0" class="P Q t"/><path d="M1252.8 408.2c-.1 1.2 9.7 2 12.4 2.2-2.7.1-11.1.3-12.4-2.2z" class="X"/><path fill="#3e5e5e" d="M1291.6 385.2c-1.8.7-4.3 2-6.1 3.5-5.7 1.5-10.8 4.5-15.4 8.1.9-2.7 2.6-4 5.5-5.3.1 0 6.5-4.6 16-6.3z"/><use xlink:href="#I" class="P Q t AH"/><path d="M1293.9 398.5l5.7.4 10.3-7.2-4.2-1.6c-4 2.7-7.9 5.6-11.8 8.4zm17 1.1l6.1-4.1c-1.9-1.2-3.9-2.3-5.9-3.3l-9.7 6.8 9.5.6z" fill="#759797"/><path d="M1364.5 402.1c.4.3 1.7 1.3 1.3 1.9s-1.8-.5-2.1-.8c-.4-.3-1.7-1.3-1.3-1.9s1.7.5 2.1.8z" class="d"/><path d="M1264.5 410.4c1.3-4.1 3.8-6 8.3-6.1s8.6 2.7 11 6.4c-2.6-3.4-6.9-5.7-11-5.7-4.1.1-6.8 1.9-8.3 5.4z" class="X"/><path d="M1296.5 389.7c6.6-.2 13.1 1.9 18.3 5.8.1 1.3.3 2.5.5 3.7l-37.4-2.7c5.2-4.1 12.2-6.7 18.6-6.8zm21.5 10.4c.9-.7 1.6-1.4 2.6-2.2-6.6-4.7-13.7-9-22.3-9-7.3 0-14.5 2.5-20.7 6.9-.7.5-1.4 1-2.1 1.4l42.5 2.9zm-51.9 8.7l-6.1-.7c-.9-.1-1.3-.3-2-.8l-1-.7v-.1h.1l1 .7c.7.4 1.1.6 2 .8l6 .8c.1-.1 0 0 0 0z" class="W"/><path d="M1266 408.8l-6.1-.7c-.9-.1-1.3-.3-2-.8l-1-.7v-.1c0-.1 0 0 .1 0l1 .7c.7.4 1.1.6 2 .8l6 .8zm-11.4 5.1c3.2 1.3 6.6 1.7 10 1.9-3.4-.4-6.9-1-10.1-2.3v.1c.1.1.1.2.1.3z" class="X"/><path fill="#922b2e" d="M1258.6 405.3c-.5 1.9-3.3 1.3-4.6 1.2-.2-.6-.4-1.2-.5-1.8-.2-1.2-.2-2.3.1-3.4s.7-1.9 1.1-2.8c-.2 1.3.9 2.5 1.7 3.3.9.9 2.5 2.3 2.2 3.5z"/><path fill="#450e0f" d="M1258.6 404.7l-5.2-.4c-.1-.7-.1-1.3 0-2l3.8.3c.6.6 1.1 1.3 1.4 2.1z"/><path d="M1257.2 402.6c-1.2-.4-2.5-.4-3.8-.3 1.2.2 2.5.2 3.8.3zm-3.8 1.7c1.7-.1 3.4.1 5.2.4l-5.2-.4z" fill="#be8082"/><path d="M1288.8 397.3c-.9-1.8-1.6-3.7-1.9-5.8h-.9c.4 2 1.1 3.9 2.1 5.7.2.1.5.1.7.1z" class="W"/><path d="M1331.1 395.1l5.8.2-5.8-.2zm.7-2.7c.9 0 1.8-.1 2.7-.2l-2.7.2zm-.5-.3c.9 0 1.8-.1 2.8-.2l-2.8.2zm-.6-.2c.9 0 1.8-.1 2.7-.2l-2.7.2z" class="H"/><path fill="#f7ffff" d="M1365.8 405.7l-1.6-1c.3.4.5.9.8 1.3.3 0 .6.1.7-.1.1 0 0-.1.1-.2z"/><path d="M1330.8 395.6l5.8.2-5.8-.2zm-.3.7l5.8.2-5.8-.2z" class="H"/><path fill="#f7ffff" d="M1364.3 405.9l-.3-1.1c-.1.3-.2.6-.2.8.2.1.4.2.5.3z"/><path d="M1363 402.7c.5.4 2.2 1.7 1.7 2.4s-2.2-.6-2.7-1-2.2-1.7-1.7-2.4 2.2.7 2.7 1z" class="d"/><path d="M1368.7 406c.1 2.7-6.4 2.8-7.8 2.9 2.7.2 5.4.2 7.6-1.5 0-.2.1-.5.2-.7v-.7z" class="X"/><path fill="#d4dee7" d="M1303.9 389.6l.6-1.5c1.3-1.1 2.5-2.2 3.4-3.6h.1c-.9 1.4-2.2 2.5-3.5 3.6-.1.5-.3 1-.6 1.5h0z"/><path fill="#515151" d="M1304 389.6l.7-1.6c1.3-1.1 2.5-2.2 3.4-3.6h.1c-.9 1.4-2.2 2.5-3.5 3.6-.2.6-.4 1.1-.7 1.6z"/><path stroke="#51555a" d="M1324.5 405.3c.1 2.7.2 5.9-.3 8.4-.3 1.5-.6 2.2-2.4 2.2-8.4-.2-17.5 0-26-.4-6.3-.3-8.7-9.2-9.3-14.3-.1-.5.8-2.9 2.1-3l29.4 2c.8-.7 1.7-1.4 2.5-2.1 2.2 1.8 3.9 4.2 4 7.2z" class="P Q b AM"/><path fill="#515151" d="M1285.9 391.3c-.5-1-.4-2.6-.4-2.7 1.9-1.5 3.9-2.6 6.1-3.5.2 0 .3 0 .5-.1-1.1.3-5.2 2.4-6.5 3.6 0 .5.1 2 .4 2.6l-.1.1z"/><path d="M1296.5 389.7c6.6-.2 13.1 1.9 18.3 5.8-4.8-4-11.4-6.3-17.5-6.2-7.3.1-14.6 2.6-20.1 7.3l38.1 2.6-37.4-2.7c5.2-4.1 12.2-6.7 18.6-6.8zm-15.9 25.8c.1 3.6-2.6 6.4-6.2 6.4s-6.4-2.6-6.4-6.2c-.1-3.6 2.6-6.4 6.2-6.4 3.5-.1 6.3 2.6 6.4 6.2z" class="u"/><path fill="#626b73" d="M1280.2 415.5c.1 3.4-2.5 6-5.8 6.1-3.4.1-6-2.5-6.1-5.8-.1-3.4 2.5-6 5.8-6.1 3.4-.1 6.1 2.4 6.1 5.8zm-6-5.4c-3.1.1-5.5 2.5-5.4 5.6s2.5 5.5 5.6 5.4 5.5-2.5 5.4-5.6-2.5-5.5-5.6-5.4z"/><g class="d"><path d="M1280.4 417.5s0 .1 0 0c0 .1 0 0 0 0zm.1-.3v.1-.1zm-.2.7z"/><use xlink:href="#J"/><path d="M1280.7 416.2v.1-.1zm0-.7h0zm0 .4h0c0 .1 0 0 0 0zm-.1.6v.1c0 .1 0-.1 0-.1zm0 .4v.1-.1zm-.6 1.6zm-1.4 1.9h0zm-1-10.3h0zm2.5 2.7s0 .1 0 0c0 .1 0 0 0 0zm-3.1-3h0zm3.2 3.3s0 .1 0 0c0 .1 0 0 0 0zm-2.9-3.1h0zm2.6 2.5h0c0 .1 0 0 0 0zm.6 1.4h0zm-2.6-3.6s.1.1 0 0c.1.1 0 0 0 0zm1.1 1s.1.1 0 0c.1.1 0 0 0 0zm-.5-.5h0zm-1.8-1.1h0zm2.1 1.4zm1.5 2.4h0zm-1-1.9zm.2.3zm-7.8 9.6h0zm-.8-.4h0zm2.6.9h0c-.1 0 0 0 0 0z"/><use xlink:href="#J" x="-7.2" y="3.7"/><path d="M1275.4 422z"/><use xlink:href="#J" x="-6.2" y="3.8"/><use xlink:href="#J" x="-5.3" y="3.8"/><path d="M1272.1 421.7zm3.8.1s-.1.1 0 0c-.1.1 0 0 0 0zm-3.4 0h0zm-4.6-5.5v-.1.1zm.4 1.6zm-.4-2.2v-.3.3z"/><path d="M1268.3 413.3c-.3.6-.4 1.4-.5 2.1.2-.5.6-1.7.5-2.1 0-.3 0 0 0 0zm-.2 4.2s0-.1 0 0c0-.1 0 0 0 0zm-.1-.4h0zm-.1-.4s0-.1 0 0h0zm.6 1.7h0zm.1.3s0-.1 0 0c0-.1 0 0 0 0zm4.8-9.4h0zm-1.4.3h0zm1.7-.4h0zm-1 .2h0zm.3-.1h0zm-3.7 2.2h0zm3.1-2h0zm-1 .4s.1-.1 0 0c.1-.1 0 0 0 0zm-1.8 1.4zm2.1-1.6h0zm-3.3 8.6c-.1-.1-.1-.2-.2-.4a.76.76 0 0 1 .2.4zm6.4 3.7h-.4.4z"/><path d="M1274.4 422h-.4.4zm1.4-.1c-.1 0-.3.1-.4.1.1-.1.2-.1.4-.1z"/><path d="M1267.9 415.4h0zm7.5 6.6c-.1 0-.3 0-.4.1.1-.1.2-.1.4-.1zm-7.5-5.9v-.4.4zm0 .5v-.3.3zm3.8 4.9c-.3-.1-.5-.3-.8-.4.2.1.5.3.8.4zm-3.1-2.9c0-.1-.1-.2-.1-.3 0 .2.1.2.1.3zm3.9 3.2c-.1 0-.3-.1-.4-.1.1 0 .3.1.4.1zm-4.2-3.9c0-.1-.1-.2-.1-.3 0 .1 0 .2.1.3z"/><path d="M1272.1 421.7c-.1-.1-.3-.1-.4-.2.1 0 .2.1.4.2zm-4-4.3c0-.1-.1-.2-.1-.3.1.1.1.2.1.3z"/><path d="M1273.9 422h-.4.4zm-5.9-4.9c0-.1-.1-.3-.1-.4.1.1.1.2.1.4zm5.4 4.9c-.1 0-.3 0-.4-.1.1 0 .3.1.4.1zm-.5-.1c-.1 0-.3-.1-.4-.1.2 0 .3.1.4.1zm-.4-12.4c.1 0 .1 0 .2-.1-.1 0-.2 0-.2.1zm8.2 6.5v.2-.2zm-.3-2.4c0 .1.1.2.1.3-.1-.1-.1-.2-.1-.3zm.2 3.1v.2-.2zm.1-.4v.2c-.1 0-.1-.1 0-.2zm0-.8v.3-.3zm-.8-2.9c0 .1.1.2.1.2 0-.1 0-.1-.1-.2zm.3.6c0 .1.1.2.1.2s0-.1-.1-.2z"/><path d="M1279.5 411.9c.1.2.3.4.4.6-.1-.2-.3-.4-.4-.6zm.6 1c0 .1.1.2.1.2s-.1-.1-.1-.2zm0 5.3c0 .1-.1.2-.1.3 0-.1.1-.2.1-.3zm-2-2c.7-.3 1.8-.5 2.6-.7 0-.5-.1-1.1-.2-1.6-.9 0-2 .3-2.8.3-1.2 0-1.8-.7-1.6-1.9.1-.8.5-1.8.6-2.6-.8-.3-1.6-.5-2.5-.5h-.3.7l-.6 2.8c-.4 1.1-1.2 1.5-2.3.9-.7-.3-1.6-1-2.3-1.4-.4.5-.8 1.1-1 1.7.8.6 2 1.1 2.7 1.7.9.7.9 1.7.1 2.4-.6.5-1.6 1.1-2.2 1.7-.1-.1-.1-.2-.2-.3.6 1 1.3 1.7 2.2 2.3 0-.1-.1-.1-.1-.2l2.1-1.9c.9-.7 1.8-.5 2.4.5.4.6.6 1.6 1 2.3-.1.1-.3.1-.4.1a7.2 7.2 0 0 0 2.7-1.5c-.4-.6-1-1.3-1.3-1.9-.7-.9-.4-1.7.7-2.2z"/><path d="M1280 418.5c-.4.7-.8 1.3-1.4 1.9.6-.6 1-1.2 1.4-1.9zm.3-.6c0 .1-.1.2-.1.2s0-.1.1-.2zm.2-.6c0 .1 0 .1-.1.2 0 0 0-.1.1-.2zm0-.3v.2-.2zm-.1.6c0 .1-.1.2-.1.2s0-.1.1-.2zm-1.3-6.2l.2.2-.2-.2z"/><path d="M1279.3 411.6c.1.1.1.2.2.2-.1 0-.1-.1-.2-.2zm-7.2-2c.1 0 .1 0 .2-.1 0 0-.1 0-.2.1zm.7-.2h.2c-.1-.1-.1 0-.2 0zm.7-.1h.2c-.1-.1-.2-.1-.2 0zm3.2.4c.1 0 .2.1.3.1-.1 0-.2-.1-.3-.1zm-7.1 1.6c.6-.6 1.2-1 1.9-1.4-.8.3-1.4.8-1.9 1.4zm1.9-1.5c.1 0 .2-.1.3-.1-.2.1-.2.1-.3.1z"/><path d="M1271.8 409.7c.1 0 .2-.1.2-.1s-.1.1-.2.1zm1.3-.4h0zm5.7 1.8l.2.2c0-.1-.1-.1-.2-.2zm-9.5.4c.1-.1.1-.2.2-.3 0 .2-.1.2-.2.3z"/><path d="M1278.6 410.9l.2.2-.2-.2zm-.9-.7c.1.1.2.1.2.2 0-.1-.1-.2-.2-.2zm-.3-.2c.1 0 .2.1.2.1-.1 0-.1 0-.2-.1zm.6.4c.2.1.4.3.5.4-.1-.1-.3-.3-.5-.4zm-.9-.6c.1 0 .2.1.2.1-.1 0-.1 0-.2-.1z"/></g><path d="M1273.8 413.6c.1.2 0 .4-.3.5-.2.1-.4 0-.5-.3-.1-.2 0-.4.3-.5.2 0 .5.1.5.3zm2.4.5c.1.2 0 .4-.3.5-.2.1-.4 0-.5-.3-.1-.2 0-.4.3-.5.2-.1.4.1.5.3zm.5 2.2c.1.2 0 .4-.3.5-.2.1-.4 0-.5-.3s0-.4.3-.5.4.1.5.3zm-1.8 1.4c.1.2 0 .4-.3.5-.2.1-.4 0-.5-.3-.1-.2 0-.4.3-.5a.55.55 0 0 1 .5.3zm-2-1.7c.1.2 0 .4-.3.5-.2.1-.4 0-.5-.3s0-.4.3-.5c.2 0 .5.1.5.3z" class="u"/><path d="M1280.6 415.5c.1 3.6-2.6 6.4-6.2 6.4s-6.4-2.6-6.4-6.2c-.1-3.6 2.6-6.4 6.2-6.4 3.5-.1 6.3 2.6 6.4 6.2zm-6.4-5.7c-3.3.1-5.8 2.6-5.8 6 .1 3.3 2.6 5.8 6 5.8 3.3-.1 5.8-2.6 5.8-6-.1-3.4-2.7-5.9-6-5.8z" class="d"/><path d="M1350.2 419.9c-3 2.2-6.9 1.5-9.1-1.4-2.2-3-1.5-6.9 1.4-9.1s6.9-1.5 9.1 1.4c2.2 3 1.6 6.9-1.4 9.1z" class="u"/><path fill="#626b73" d="M1350 419.6c-2.8 2-6.5 1.5-8.5-1.4-2-2.8-1.5-6.5 1.4-8.5 2.8-2 6.5-1.5 8.5 1.4 2 2.7 1.4 6.4-1.4 8.5zm1-8.3c-1.9-2.6-5.3-3.2-7.9-1.3s-3.2 5.3-1.3 7.9 5.3 3.2 7.9 1.3 3.2-5.3 1.3-7.9z"/><g class="d"><path d="M1348.4 420.9s-.1.1 0 0h0zm.3-.1h-.1.1zm-.7.2zm-.3.1h0c-.1 0 0 0 0 0zm2-.7s-.1 0 0 0h0zm.6-.4h0z"/><use xlink:href="#J" x="69.8" y="2"/><path d="M1349.4 420.5l-.1.1.1-.1zm-.4.2h-.1.1zm-1.7.5h0zm-2.4-.1h0zm8.1-6.9h0c0 .1 0 0 0 0zm-.8 3.6s-.1.1 0 0c-.1.1 0 0 0 0zm.7-4.3s0 .1 0 0h0zm-.9 4.7s-.1 0 0 0h0zm1-4.3zm-.7 3.6s0 .1 0 0c0 .1 0 0 0 0zm-.8 1.3h0zm1.5-4.2s0 .1 0 0c0 .1 0 0 0 0zm-.2 1.5s0 .1 0 0c0 .1 0 0 0 0z"/><use xlink:href="#J" x="72.8" y="-2.8"/><path d="M1352.8 413.2h0zm.1 2.5s0 .1 0 0h0z"/><use xlink:href="#J" x="71.6" y="0.3"/><path d="M1352.7 416.4s0 .1 0 0c0 .1 0 0 0 0zm-.1.4s0 .1 0 0c0 .1 0 0 0 0zm-12.7-.9zm-.1-.9h0zm.7 2.7zm-.2-.4s0-.1 0 0c0-.1 0 0 0 0zm1.4 2zm-.9-1.2s-.1-.1 0 0c-.1-.1 0 0 0 0z"/><use xlink:href="#J" x="61.2" y="0.7"/><path d="M1340 416.3z"/><use xlink:href="#J" x="61.9" y="1.4"/><path d="M1340.1 416.8zm2-7.2s.1-.1 0 0c.1-.1 0 0 0 0zm-1.2 1.3zm1.6-1.6c.1-.1.2-.1.3-.2-.1 0-.2.1-.3.2zm2.4-1.1c-.7.1-1.4.5-2 .8.4-.1 1.7-.5 2-.8.1-.2 0 0 0 0zm-3.7 2.4s0-.1 0 0c0-.1 0 0 0 0zm.2-.4h0zm.4-.3s0-.1 0 0c0-.1 0 0 0 0zm-1.1 1.4zm-.2.4s0-.1 0 0c0-.1 0 0 0 0zm10.7-1.6s.1.1 0 0c.1.1 0 0 0 0zm-1-.9zm1.3 1.2h0c0 .1 0 0 0 0zm-.8-.8s.1.1 0 0c.1.1 0 0 0 0zm.3.2s0 .1 0 0h0zm-4.1-1.8h0z"/><path d="M1350.4 409.4s.1.1 0 0c.1.1 0 0 0 0zm-.8-.6h0c0 .1 0 0 0 0zm-2.3-.7zm2.6.9h0zm-9.2 2.3c.1-.1.1-.2.2-.3-.1 0-.1.1-.2.3zm.6 7.6c-.1-.1-.2-.2-.3-.4a1.38 1.38 0 0 1 .3.4z"/><path d="M1341 418.5c-.1-.1-.2-.2-.2-.4.1.2.2.3.2.4zm1 1.1l-.3-.3.3.3z"/><path d="M1342.8 409.1h0zm-1.1 10.2l-.3-.3.3.3zm.5-9.8l.3-.3c-.1.2-.2.2-.3.3zm-.4.3c.1-.1.2-.1.2-.2 0 .1-.1.1-.2.2zm-1.9 6.1c-.1-.3-.1-.6-.1-.9 0 .3 0 .6.1.9zm.6-4.3c0-.1.1-.2.2-.3-.1.1-.1.2-.2.3zm-.4 5.2c0-.1-.1-.3-.1-.4 0 .1.1.2.1.4zm.8-5.9c.1-.1.1-.2.2-.3 0 .1-.1.2-.2.3z"/><path d="M1340 416.3c0-.1-.1-.3-.1-.4 0 .1.1.3.1.4zm1.2-5.8c.1-.1.1-.2.2-.3 0 .1-.1.2-.2.3zm-.5 7.5c-.1-.1-.1-.2-.2-.4.1.2.2.3.2.4zm.8-7.8l.3-.3-.3.3z"/><path d="M1340.5 417.7c-.1-.1-.1-.3-.2-.4.1.1.2.2.2.4zm-.2-.5c-.1-.1-.1-.3-.2-.4.1.1.1.3.2.4zm10.2-7.7c.1 0 .1.1.2.1-.1 0-.1-.1-.2-.1zm-.6 10.7c-.1 0-.1.1-.2.1 0 0 .1 0 .2-.1zm1.8-1.7c-.1.1-.1.2-.2.3.1-.1.1-.2.2-.3zm-2.5 2.1c-.1 0-.1.1-.2.1.1-.1.2-.1.2-.1zm.4-.2c-.1 0-.1.1-.2.1 0 0 .1 0 .2-.1zm.7-.4c-.1.1-.2.1-.3.2.1-.1.2-.2.3-.2zm2-2.4c0 .1-.1.2-.1.2s0-.1.1-.2zm-.4.6c-.1.1-.1.2-.2.2.1 0 .2-.1.2-.2z"/><path d="M1352.6 416.9c-.1.2-.2.4-.3.7.1-.3.2-.5.3-.7zm-.5 1c0 .1-.1.1-.1.2 0 0 .1-.1.1-.2zm-4.5 3.2c-.1 0-.2 0-.3.1.1 0 .2-.1.3-.1zm.5-2.9c.7.4 1.5 1.3 2.1 1.8.5-.3.9-.7 1.2-1.1-.5-.7-1.4-1.5-1.9-2.2-.7-1-.4-1.9.6-2.4.7-.4 1.8-.7 2.6-1-.2-.9-.6-1.7-1.1-2.4-.1-.1-.1-.2-.2-.3.1.1.1.2.2.3s.1.2.2.3c-.9.3-1.9.9-2.7 1.1-1.2.3-1.9-.2-2.1-1.3-.1-.8-.1-2-.2-2.8-.7-.1-1.4 0-2 .1 0 1 .2 2.3.1 3.3-.1 1.2-.9 1.7-2 1.5-.8-.2-1.9-.7-2.7-.9 0-.1.1-.2.2-.4a7.41 7.41 0 0 0-.7 3.2c0-.1.1-.1.1-.2l2.9.6c1.2.4 1.5 1.2 1 2.3-.3.7-1 1.5-1.3 2.2l-.3-.3c.9.7 1.8 1.1 2.8 1.4.3-.6.5-1.6.8-2.2.5-1 1.4-1.3 2.4-.6z"/><path d="M1347.3 421.2c-.8.1-1.6.1-2.4-.1.8.1 1.6.2 2.4.1zm.7-.2c-.1 0-.2 0-.3.1.1 0 .2 0 .3-.1zm.6-.2c-.1 0-.1 0-.2.1.1 0 .1 0 .2-.1zm.3-.1c-.1 0-.1.1-.2.1.1 0 .2 0 .2-.1zm-.6.3c-.1 0-.2 0-.2.1 0-.1.1-.1.2-.1zm4.5-4.8c0 .1 0 .2-.1.3.1-.1.1-.2.1-.3z"/><path d="M1352.7 416.5c0 .1-.1.2-.1.3.1-.1.1-.2.1-.3zm-2.5-7.2c.1 0 .1.1.2.1 0-.1-.1-.1-.2-.1zm.6.4c.1 0 .1.1.2.1-.1 0-.2-.1-.2-.1zm.5.5l.2.2c-.1-.1-.2-.1-.2-.2zm1.5 3c0 .1 0 .2.1.3 0-.1 0-.2-.1-.3zm-5.5-5.1c.8.1 1.6.4 2.3.8-.8-.4-1.5-.7-2.3-.8z"/><path d="M1349.6 408.9c.1 0 .2.1.2.1s-.1-.1-.2-.1zm.3.2c.1 0 .1.1.2.1 0-.1-.1-.1-.2-.1zm1.1.8l.2.2c0-.1-.1-.1-.2-.2zm1.9 5.9c0 .1 0 .2-.1.3.1-.1.1-.2.1-.3zm-6-7.8h.3c0 .1-.2 0-.3 0zm6 7.4v.3-.3zm.1-1.1v.3-.3z"/><path d="M1353 414v.3-.3zm0 .7v.7-.7zm-.1-1.1v.3-.3z"/></g><path d="M1347.8 413.1c-.1.2-.4.2-.6.1s-.2-.4-.1-.6.4-.2.6-.1.3.4.1.6zm1 2.2c-.1.2-.4.2-.6.1s-.2-.4-.1-.6.4-.2.6-.1c.2.2.3.4.1.6zm-1.6 1.7c-.1.2-.4.2-.6.1s-.2-.4-.1-.6.4-.2.6-.1.3.4.1.6zm-2.2-.6c-.1.2-.4.2-.6.1s-.2-.4-.1-.6.4-.2.6-.1.2.4.1.6zm.2-2.6c-.1.2-.4.2-.6.1s-.2-.4-.1-.6.4-.2.6-.1c.3.1.3.4.1.6z" class="u"/><path d="M1350.2 419.9c-3 2.2-6.9 1.5-9.1-1.4-2.2-3-1.5-6.9 1.4-9.1s6.9-1.5 9.1 1.4c2.2 3 1.6 6.9-1.4 9.1zm1.1-8.8c-2-2.8-5.7-3.4-8.4-1.3s-3.4 5.7-1.3 8.4c2 2.8 5.7 3.4 8.4 1.3 2.7-2 3.3-5.6 1.3-8.4z" class="d"/><path fill="#9ba5ae" d="M1363.2 402.9c.2 1.2-1.3.8-2 .5.2.2.5.4.7.6.3.2.6.5 1 .7.1-.6.3-1.1 1-1.2-.2-.1-.4-.4-.7-.6z"/><path opacity=".16" d="M1319.1 399.2c-1.4 2.3-3.3 2.9-6.2 1.3-2.3-1.3 4.7-1.8 6.2-1.3z"/><path fill="#9ba5ae" d="M1364.8 402.3c.1.9-1 .6-1.6.4.2.2.4.3.6.5s.5.3.7.5c.1-.5.3-.8.8-.9-.1-.2-.3-.3-.5-.5z"/><path fill="#93adc2" d="M1314.7 396c-1.7.6-3.2 1.2-2.7 4 .2 1 2.9 1.4 5.2-.1 2.4-1.6.6-3.3-2.5-3.9z"/><path fill="#6e8292" d="M1311.9 399c0 .4 0 .3.1.8.4 2.2 3.5.7 5.1.2.4-.2 1.8-.6 1.6-1.4h-.1c-2.2.9-4.4 1.3-6.7.4z"/><ellipse opacity=".3" cx="1298.9" cy="439.2" rx="25.4" ry=".9"/><ellipse opacity=".3" cx="1315.9" cy="431.2" rx="22.5" ry=".9"/><path d="M1312.6 417.6l-5.3-17.4c-.1-.5-.7-.7-1.1-.4l-3.1 1.8c-.3.2-.4.5-.2.8h0c.2.3.5.4.8.2l2.6-1.5 5.2 16.9 1.1-.4zm16.4-3.8l-5.1-16.8c-.1-.4-.6-.6-1-.4l-3 1.7c-.3.2-.4.5-.2.8h0c.2.3.5.4.8.2l2.5-1.4 5 16.3 1-.4z" fill="#666"/><use xlink:href="#K" class="v"/><g class="c"><circle cx="1332.2" cy="426.2" r="5.2"/><circle cx="1298.6" cy="426.2" r="5.2"/></g><use xlink:href="#K" x="33.6" y="0.7" class="v"/><circle cx="1298.6" cy="426.2" r="3.3" class="M"/><path d="M1305.2 425.3s-.7-6.3-7.6-5.7c0 0 6.1-.1 6.7 5.7h.9z" class="U"/><circle cx="1332.2" cy="426.2" r="3.3" class="M"/><path fill="#666" d="M1304.9 427.3h21.2l2-13.1-1.8-4.7-2.6 15.1-24.4.4a1.11 1.11 0 0 0-1.1 1.1h0a1.11 1.11 0 0 0 1.1 1.1h5.6z"/><g class="U"><circle cx="1298.6" cy="426.2" r="1.7"/><circle cx="1332.2" cy="426.2" r="1.7"/></g><path d="M1323.7 424.7l-18.5.3c-.2.3 0 .8.4.8h18.7l-.6-1.1z" class="R"/><path d="M1327.7 413.4v.2l-2.8 13-25 .7h26.2l1.9-13.1" class="U"/><path d="M1323.7 424.7l2.1-12.2-1.5 13.3-.6-1.1" class="R"/><path d="M1331.9 426.3l.5-.1c.3-.1.5-.4.4-.7l-6-20c-.1-.3-.4-.5-.7-.4l-.5.1c-.3.1-.5.4-.4.7l6 20c.1.3.4.5.7.4z" class="U"/><path d="M1325.5 406.3l1.2-.4c.3-.1.5-.5.4-.8l-.2-.5c-.1-.3-.5-.5-.8-.4l-1.2.4c-.3.1-.5.5-.4.8l.2.5c.1.4.5.5.8.4z" class="R"/><path d="M1278.9 427.6c-3.1 0-5.7 2.4-5.9 5.5v-.4c0-3.3 2.6-5.9 5.9-5.9s5.9 2.6 5.9 5.9v.4c-.2-3.1-2.8-5.5-5.9-5.5z" class="v"/><g class="c"><circle cx="1316.8" cy="433.5" r="5.9"/><circle cx="1278.9" cy="433.5" r="5.9"/></g><path d="M1316.8 428.4c-3.1 0-5.7 2.4-5.9 5.5v-.4c0-3.3 2.6-5.9 5.9-5.9s5.9 2.6 5.9 5.9v.4c-.3-3.1-2.8-5.5-5.9-5.5z" class="v"/><circle cx="1278.9" cy="433.5" r="3.7" class="M"/><path d="M1286.3 432.4s-.8-7.1-8.6-6.4c0 0 6.8-.2 7.5 6.5l1.1-.1z" class="U"/><circle cx="1316.8" cy="433.5" r="3.7" class="M"/><path fill="#666" d="M1286 434.7h23.9l2.2-14.7-2-5.3-2.9 17.1-27.5.5c-.7 0-1.2.6-1.2 1.2h0c0 .7.6 1.2 1.2 1.2h6.3z"/><g class="U"><circle cx="1278.9" cy="433.5" r="1.9"/><circle cx="1316.8" cy="433.5" r="1.9"/></g><path d="M1307.1 431.7l-20.9.3c-.2.4 0 .9.5.9h21.1l-.7-1.2z" class="w"/><path d="M1311.7 419v.2l-3.2 14.7-28.1.8h29.5l2.2-14.8" class="U"/><path d="M1307.1 431.7l2.4-13.7-1.7 14.9-.7-1.2" class="w"/><path d="M1316.5 433.5l.5-.2c.4-.1.6-.5.4-.8l-6.8-22.5c-.1-.4-.5-.6-.8-.4l-.5.2c-.4.1-.6.5-.4.8l6.8 22.5c0 .3.4.5.8.4z" class="U"/><path d="M1309.2 411.1l1.4-.4c.4-.1.6-.5.5-.9l-.2-.6c-.1-.4-.5-.6-.9-.5l-1.4.4c-.4.1-.6.5-.5.9l.2.6c.2.4.6.6.9.5z" class="w"/><path d="M1182.3 369.7l-.6-.3" class="P Q b g x AI"/><path d="M1230.1 380c-.3-.3-.1-.9-.1-1l-.9.5c.1.1 0 .4 0 .5-.2.2.1 1 1 0" class="k"/><path fill="#e48f60" d="M1229.1 379.9s.7.1.8-.5-.9 0-.9 0 .2.1.1.5"/><path d="M1227.9 380.4s-.6.5-1 2.1c-.5 1.6-2.2 1.2-2.2 1.2l.2.6 3.1-.3v-3.6" class="k"/><path d="M1229 384.8c.1 0 1.8-.6 2.5-4.3l-1.4-.4s-.5.3-1.1.1l-1.1.3s-1.5 3.8-.1 4.4c.6.1 1.2-.1 1.2-.1z" class="h"/><path fill="#2f3345" d="M1228.4 384.3s.5 2.3-4 1.2c0 0 .2.7-1.8 3.2h-.6l1.9-4.3 4.5-.1z"/><path fill="#41465f" d="M1229.7 384.3s.4 2.2-4.1 1.1c0 0 .2.7-1.8 3.2h-.6l1.9-4.3h4.6z"/><g class="k"><path d="M1227.8 384l-.8-.2-.9.3 1.2.2z"/><path d="M1231.5 380.4s.4.3 0 1.5c-.4 1.1-1.1 2.1-1.9 2.3-.7.3-2.5 0-2.5 0v-.6s1.2 0 2.1-.4c1-.3 1.4-2.9 2.3-2.8z"/></g><g fill="#ccc"><path d="M1228.617 384.416h-4.5v-.3h4.5z"/><path d="M1224.1 384.4l-.9-2.7h3.3l.6 2.6-3 .1"/></g><path d="M1230.2 377.2s.4 2.1-.6 2.5c-1.7.6-1.4-2-1.4-2s.4-.8 2-.5z" class="k"/><path fill="#262626" d="M1222.6 388.7v.6h-1.9s-.2-.5 1-.5c0 0 .2 0 .3-.2h.6z"/><path d="M1230.1 378.2c.1-.1.1-.2.2-.2s.2 0 .3.1c0 .3-.1.6-.5.6-.3.2-.1-.3 0-.5z" class="k"/><path d="M1223.8 388.7v.6h-1.9s-.2-.5 1-.5c0 0 .2 0 .3-.2h.6z" class="c"/><ellipse fill="#a89681" cx="1205.7" cy="394.7" rx="5.1" ry=".2"/><path fill="#6b6966" d="M1204.2 373.3s.8-.4 2.2-.1c.1 0 .3.2.3.3v.1h-2.1l-.4-.3z"/><path d="M1206.5 373.3c.7.2 1.7-.2 2.3-.4 0 0 .3.3 1.1.5-.4.4-1.8 1.1-2.7 1.4l-.7-1.5z" class="V"/><path d="M1204.7 372.2c.1.2.3.6.1 1.1.3.2.8.3 1.1 0 0-.1-.2-.5-.1-.5a.7.7 0 0 0 .7-.6c.1-.3.1-.6.1-.9s.1-.7 0-.9c-.1-.5-.8-.6-1.2-.5s-.8.5-.9.9c-.2.4 0 .9.2 1.4z" class="AJ"/><path d="M1204.9 371.6s-.2 0-.2-.2.1-.2.1-.2-.1 0-.1.2l.2.2z" class="y"/><path fill="#979695" d="M1205.3 372.8c-.1-.1-.1-.1 0 0z"/><path d="M1205.8 372.8h.1s-.4 0-.6-.1c.1.1.5.3.6.5-.1 0-.3-.4-.1-.4z" class="y"/><path fill="#4b516e" d="M1205.8 370.7s1 .1 1.3-.8c0 0 0 .5-.5.8-.2.2-.8 0-.8 0z"/><path d="M1207.6 392.9l.1 1h-.7l-.1-1zm-3.3.1v.9l-.8-.1v-1z" fill="#8f614f"/><path fill="#ca716a" d="M1203.5 393.7c.3.1.6 0 .7 0h.2c.3.3.3.9.3.9h-1.6s0-.5.3-.9h.1z"/><g fill="#414141"><path d="M1207.3 381l.4 12.2c0 .1 0 .1-.1.1-.2.1-.5.1-.7.1l-.1-.1-1.8-11.7c0-.1 0-.2.1-.2l2-.5c.1-.1.2 0 .2.1z"/><path d="M1203.5 380.8l-.1 12.3c0 .1 0 .2.1.3.2 0 .3.1.7 0 .1 0 .1-.1.1-.2l1.6-12.1-2.4-.3z"/></g><path d="M1207.6 393.3c.1-.1.1-.1.1-.2l-.4-11.9-.7.3 1 11.8zm-1.7-11.4l-1.5 11.3c0 .3-.2.3-.3.3l1.6-11.5h.2z" fill="#676767"/><path d="M1204.7 373.2a3.27 3.27 0 0 0-1.5.6s-.5.1-2.2 2.8c-.1.2 0 .9.3 1s.7 0 1.1-.5l2.3-3.9z" class="V"/><path d="M1204.7 394.4v.2h-1.6v-.2c.8.2 1.6 0 1.6 0z" class="a"/><path fill="#ca716a" d="M1206.9 393.7a1.39 1.39 0 0 0 .9 0l1.5.4c.1.1.2.2.1.3h0c0 .2-.1.3-.3.3h-2.5l.3-1c-.1 0-.1-.1 0 0z"/><path d="M1206.6 394.5h2.7v.1h-2.7z" class="a"/><path d="M1208.8 393.9c-.1 0-.1.1 0 0v.1-.1zm-.3-.1v.1c.1 0 .1 0 0-.1h0zm-.3.2h0c.1-.1.1-.1.1-.2h-.1c.1 0 .1.1 0 .2z" fill="#48443e"/><path d="M1207.8 393.6c-.1.2-.7.2-.9 0h-.1s.1.2.6.2c.4.1.5-.2.4-.2h0z" class="a"/><path fill="#48443e" d="M1204.3 394h0s-.4-.2-.8 0h0c.4-.2.8 0 .8 0z"/><path d="M1206.7 373.4c-.3-.1-.4-.1-.8-.2-.2 0-.1 0-.2.1s-.4.2-1 0c-.1 0-.1-.1-.1-.1a11.64 11.64 0 0 0-1.5.6c.5.8.1 2-.2 2.4.2 1.2.4 5.4.5 5.5.7.5 3.1.4 3.8-.1l-.1-6.7c0-.7-.3-1.5-.4-1.5z" class="w"/><path d="M1207.3 381.3c-4.1 1.1-4.2-5.7-4.3-5.1l.5 5.5c.7.5 3.1.4 3.8-.1v-.3zm-4-5.6c.6-1.6-.1-1.8-.1-1.8.4.6.1 1.8.1 1.8zm3.4-2.3s.2.3.5 1.6c0-.1-.1-1.3-.5-1.6z" fill="#9c534c"/><path d="M1203.2 379.6s.6.9-.3 1.2c-.7.2-.7-.2-.5-.3.1 0 .5-.1.3-.4-.1-.4.5-.5.5-.5z" class="AJ"/><path d="M1202.9 379.8v.3c0 .2-.2.3-.3.2-.1 0-.1-.1 0-.2s.1-.1.1-.2c-.1-.2.2-.1.2-.1z" class="y"/><path d="M1200.9 377c0 .4.3 1.4 1.7 2.9.1.1.2.1.3 0l.4-.1c.1 0 0-.1 0-.2-.1-.4-.5-1.8-1.5-3-.4-.5-.9-.1-.9.4z" class="V"/><path d="M1203.3 379.5c-.1-.3-.4-1.3-1-2.3l.1-.1c.2-.3.4-.5.5-.8l-.8.8.2.2c.2.4.7 1.1 1.1 2.4h.1c-.2 0-.2-.1-.2-.2z" class="M"/><g class="a"><path d="M1203.4 393.7s.2.1.5.1c.4 0 .5-.1.5-.1h-.1c-.1.1-.4.1-.7 0h-.2z"/><path opacity=".47" d="M1203.1 394.6s0-.4.8-.4.8.4.8.4h-1.6z"/></g><path d="M1202.7 379.8s.4-.1.5-.2l-.5.2z" class="M"/><path d="M1209.9 370.3s-.4-1.7.3-1.8c.7 0 .8.8.4 1.9 0 0-.3.3-.7-.1z" class="AJ"/><path d="M1209.8 370.4s-.4-.6-.2-.8.5.6.4.9c0 .2-.2-.1-.2-.1" class="y"/><path d="M1206.2 370.8c.3.1.9-.1.9-1 0-1.1-1.4-.8-1.4-.2 0 0-.2-.3-.5-.1s-.2.5-.2.5-.7.1-.7.6c0 .4.2 1.3.3 1.7 0 .1.2.1.2 0l.2-.3c.1-.1 0-.2 0-.3-.2-.2-.4-.4-.3-.7.2-.3.3.1.5.1.1-.1-.2-.5.1-.5 0 .1.2 0 .9.2z" class="i"/><path d="M1208.8 372.9l1-2.6.9.1-.8 3-.9-.1zm-4.4.4c.1-.2.4-.1.4-.1s.6.3 1 0c0 0 .2-.1.3.1 0 0-.1.3-.7.3-.7-.1-1-.3-1-.3z" class="V"/><path d="M1373.8 357.2v54.2l1.4-.8v-53.4" class="j"/><path fill="#9f9f9f" d="M1374.5 357.2V411l.7-.4v-53.4"/><path d="M1379.8 368.1l-10.5-1.3c-.6-.1-1-.7-1-1.5v-11.9c0-.7.4-1.4 1-1.5l10.5-1.3c.8-.1 1.4.6 1.4 1.5v14.4c0 1-.6 1.7-1.4 1.6z" class="V"/><path fill="#537d7d" d="M1379.7 366.4l-10.3-1v-12l10.3-1z"/><path d="M1373.2 364.3c-1.4-.1-2.5-1.6-2.5-3.4 0-1.2.6-2.4 1.4-2.9v.6c-.6.5-1 1.4-1 2.3 0 1.4.9 2.7 2.1 2.8 1.1.1 2.1-1 2.2-2.5l.3 1c-.2.5-.4.9-.7 1.2-.5.6-1.1.9-1.8.9zm3.2-1.1l1.6-.7-.2-.7-1.1.5-1-3.2h-2.7v-.6h1.8v-.7h-1.8l-.1-1.8h.1c.4 0 .7-.4.7-1 0-.5-.3-.9-.7-.9s-.7.5-.7 1v.1l.2 4.4v.1h2.8l1.1 3.5z" class="V"/><circle cx="1182" cy="369.8" r=".4" class="P x AI"/><path d="M1387.7 405.1c-30.9 18.3-75.2 56.2-143.5 82 17.4-2.3 68.5-24.5 143.5-79.9v-2.1z" class="p"/><g class="P x AI"><circle cx="1181.2" cy="369.8" r=".4"/><g class="Q"><path d="M1180.8 369.6l-.6-.3" class="b g"/><path d="M1181.5 369.7h.1"/></g></g><path fill="#8e5932" d="M1230.5 378s.3-.1.1-.4c0 0 .2-.1 0-.4 0 0 .3-.3-.1-.5 0 0-.1-.8-1-.4 0 0-.3-.5-.8-.1 0 0-.7-.2-.7.4 0 0-.2.1-.2.4s.3.3.3.3-.1.2.1.4v-.3s.2 0 .2-.2c0 0 .1.3.7.2 0 0 .4.2.6-.1 0 0 .1.1.4 0 0 0-.4.6 0 .8 0 .2.2-.1.4-.1z"/><path d="M1230.3 381.8c.5-1.6 1.2-1.4 1.2-1.4s.6.3 0 1.9l-1.2-.5zm-2.4-1.4s-.5.1-.7 1.1l.4.1.3-1.2z" class="h"/><path d="M1310.9 385.1c.1 1.8-3.4 2.9-4.4 3.5 6.7 2.7 13.4 5.6 19.7 9.2 3.4-1.9 6.5-4.6 1.2-6.9 0 0 6.6 2.5-1.2 6.5 0 0-8.9-5-19.1-8.9 0-.1 4.3-1.6 3.8-3.4z" class="W"/><path fill="#7b6a1c" d="M1204.1 382.8v.8c0 .3-.8-.6-.8-.6l.8-.2z"/><g stroke-width=".053" class="P x"><circle cx="1249.2" cy="373" r=".3"/><circle cx="1250" cy="373" r=".3"/><path d="M1250.4 372.9l.3-.2m-1.8.2l-.4-.3m1.1.3h.1" class="Q"/></g><path d="M1174.2 388.5c10.5 31.6-21.7 64.7-56.5 44.3v5.3c46.4 25.1 69.2-29.8 56.5-49.6z" class="AB"/><path d="M1117.2 415c47 17.1 59.1-14 59.1-14 0 23-23.4 51.4-58.5 31.8l-.6-17.8z" class="z"/><path d="M642.3 342.8c-1.5-11.1 4.2-22.3 12.4-29.7s18.6-11.7 28.9-15.2c81.2-27.8 173.9-17.8 247.6 26.9 7.9 4.8 15.8 10.1 21.6 17.5s9.4 17.1 7.6 26.4c-3.2 16.4-20.4 24.9-35.7 30.6-34.1 12.7-73 23.2-105.4 6.5-11.3-5.8-21-14.7-32.5-20.4-27.5-13.6-59-7.1-88.2-9.5-19.1-1.6-53-8.3-56.3-33.1z" class="Z"/><path fill="#5574e6" d="M646 345.5c-1.4-10.6 4.1-21.1 12.1-28.2 8-7 18.1-11.1 28.2-14.5 79.3-26.5 169.8-16.9 241.8 25.5 7.8 4.6 15.4 9.6 21.1 16.6s9.2 16.2 7.4 25.1c-3.1 15.6-20 23.7-34.9 29.1-33.3 12-71.3 22-102.9 6.2-11.1-5.6-20.6-14-31.7-19.3-26.8-12.9-57.6-6.7-86.2-9-18.6-1.6-51.7-7.9-54.9-31.5z"/><g class="Z"><path opacity=".26" d="M947.1 385.7c4.8-4.2 8.4-9.3 9.7-15.7 1.7-8.8-1.8-18.1-7.4-25.1-5.7-7-13.4-12-21.1-16.6-72-42.4-162.6-52-241.8-25.5-10.1 3.4-20.3 7.4-28.2 14.5-8 7-13.5 17.6-12.1 28.2.8 5.6 3.2 10.2 6.7 14 11.4 4.5 31 11.4 57 17.8 26 .8 53.3-3 77.5 8.6 3.6 1.7 7 3.7 10.3 5.9l10.8.8c61.5 4 110.3-1.8 138.6-6.9z"/><path opacity=".5" d="M658.1 323.3c8-7 18.1-11.1 28.2-14.5 79.3-26.5 169.8-16.9 241.8 25.5 7.8 4.6 15.4 9.6 21.1 16.6 4.1 5 7 11.1 7.7 17.4 1-8.3-2.4-16.9-7.7-23.4-5.7-7-13.4-12-21.1-16.6-72-42.4-162.6-52-241.8-25.5-10.1 3.4-20.3 7.4-28.2 14.5-7.9 7-13.4 17.4-12.1 27.8.9-8.3 5.7-16.2 12.1-21.8z"/></g><path fill="#7e90d6" d="M915.5 332.9s54.7 29.2 2.3 54.2c0 0 44.1-21.7-2.3-54.2z"/><path d="M180.8 301.7l-9.8.6c-1-2.1 4.4-3.1 6.3-3.2l.1-2.5h3.6s-.3 1.2-.3 2.4l.1 2.7zm10.7.5l-9.5.9c-1-2.1 4.3-3.2 6.2-3.3l-.2-2.5 3.3-.2.1 2.4.1 2.7z" class="S"/><path d="M187.8 299.7c-.1 1.3 2.9 1 3.7.9.1 0 .3.1.3.2.1.5.2 1.6.2 1.6-.6.5-9.8 1.3-10.4.9-1-2.1 4.2-3.4 6.2-3.6zm-10.9-.6c-.2 1.2 2.8 1 3.7.9.1 0 .2.1.3.2.1.5.2 1.5.2 1.5-.6.5-9.8.9-10.4.6-1.1-2.1 4.3-3.1 6.2-3.2z" fill="#302f30"/><path fill="#875d46" d="M175.8 228.6c-.1 3.7-6 11.8-11.5 16.4 0 0-2.6 1.7-3.6 1.8-.5.1-.9.4-.7.7s.7.6 1.6.3c1.3-.5.4.9-.6 1.7s-1.3 2.2-.3 2.8 4.7-2 6-5.4c0 0 10.1-7.1 11.1-12.6.8-5.7-2-5.7-2-5.7z"/><path fill="#66a32e" d="M174.3 240c-2.9-1.3-3.1-2.3-3.1-2.3.4-3.5 4.7-12.2 8.2-13.7 0 0-.5 3.6-.1 7.2.6 5.5-5 8.8-5 8.8z"/><g fill="#875d46"><path d="M181 221.2c.6 0 .7.9.8 1.9.1.9.8 1.7 1.8 1.8h.1c1.2.1 2.2-.7 2.4-1.8.1-.9.4-2.4.9-4 .1-.3.2-.7.4-1 .1-.2.2-.4.2-.6 0-.1.1-.2.2-.3 0 0 0-.3.1-.8l.2-4.7c-.7-4.5-9-4.5-9.9-.6-.2.1-2.1 10.2 2.8 10.1z"/><path d="M189.1 216.4c-.5.8-1.5 1.2-2.2.8s-.8-1.3-.2-2.1c.5-.8 1.5-1.2 2.2-.8.7.3.8 1.3.2 2.1z"/></g><path d="M188.2 216.7s.4-.1.7-.8c.4-.9-.3-1.3-.3-1.3s.7.9-.4 2.1zm-4.1 4.3c1.1 0-1.4.3-2.2 2.3-.1-1.6-.4-2.1-.8-2.1l3-.2z" fill="#4c3528"/><path d="M187.8 217.4s-.3 3-1 3a.47.47 0 0 1-.5-.5c-.1-.4 0-.8.3-1.1l.9-1.4h.3z" class="l"/><path d="M190.9 224.4s4.5 2.7 7.6 7.3c0 0 4.1.1 7.4 2.1 0 0 .4 1.6-1.1 2.7 0 0-6.2 0-9.3-.8l-6.5-4.9 1.9-6.4z" class="AK"/><path fill="#0577ae" d="M177.7 253.2l-.9 44.9c0 .2.1.4.3.4.6.1 1.8.3 3.6-.1.2 0 .3-.2.3-.4l5-49-8.3 4.2z"/><path fill="#079fe8" d="M180.8 248.6l7.1 50.5c0 .2.2.4.4.5 1.5.5 2.6 0 3.1-.2a.55.55 0 0 0 .3-.5l-.3-50.2-10.6-.1z"/><path fill="#66a32e" d="M181.8 223.1c-4 .8-6.8 4.7-6.7 10.5.1 4.9.5 13.3 2.3 19.4.1.2.2.4.3.5 1.1.7 5.9 2.9 13.7 0 .3-.1.6-.5.5-.8-.1-13.7 2.1-25.2-.1-27.4-1.8-1.7-3.4-1.9-5.8-2.3 0 .5-.5 1.5-2.1 1.5-2.2 0-2.1-1.4-2.1-1.4z"/><path d="M188.5 214.1s1.2-4.4.5-5.3c-.8-.9-8.9-6.8-11.6-3.3-2 2.6 1.1 4.2 1.1 4.2s.8.6 3.4.1c2.7-.5 3.9-.5 3.8.5s1.3 1.1 1.3 1.1l-.1 3.3c0 .1.7-.8 1.6-.6z" class="l"/><path d="M177.7 253.4a.55.55 0 0 1-.3-.5c-1.4-4.8-2-11-2.2-15.8.4 2.5 4.1 18.8 16.7 15.8-.1.2-.3.4-.5.5-7.7 2.9-12.6.7-13.7 0z" class="AK"/><path d="M207.6 236.7c-.7 2.2-2.9 2-3.5 1.2-.8-1-.2-1.9 1-3.2 0 0-1.1-1.4-.7-1.6 1.1-.5 3.7 1.7 3.2 3.6z" class="S"/><path fill="#3a5c1a" d="M191.2 252.3s-6.4 3-13.3.2c0-.1 5.7 1.9 13.3-.2z"/><path fill="#9937a4" d="M191.2 254.7l1.4 42.7 3.4.1 3.7-42.7-8.5-.1z"/><path d="M188.1 303.6l7.5-.8.5-5.2-3.4-.1.1 2.3c0 .5-.4.9-.9 1-3.6.3-4.7 1.7-3.8 2.8z" class="S"/><path d="M197.8 259.6l1.6.5-3.2 36.4 1.6-36.9z" class="l"/><path d="M191.4 300.7c2.2.8 4.2.3 4.4-.3.1-.2.4.1.4.2 0 1.1-.2 2.1-.2 2.1-.5.6-7.2 1.4-9 .9-1-1.2 1.2-2.5 4.4-2.9z" class="AG"/><path d="M190.7 300.9s1.5.4.7.8-2.1-.5-2.1-.5.2-.2 1.4-.3z" class="S"/><path d="M202 298.4h3.2l.7-43.6-8.3.8c-.5 8.9 3.8 33.6 4.4 42.8z" class="l"/><path d="M196.3 304.8l8.7-.9.1-5.6h-3.2c.1 1.1.1 2 0 2.6-.1.5-.5.9-1 1-3.5.3-5.6 1.7-4.6 2.9z" class="S"/><path d="M203.3 258.6l1.4 39.7h.4l.7-40.3z" class="l"/><path d="M201 301.9c2 .6 3.4.3 4 .1.2-.1.4.1.4.2v1.6c-.5.6-7.2 1.4-9 .9-1.1-1.1 1-2.5 4.6-2.8z" class="AG"/><path d="M200 302s1.5.4.7.8c-.8.3-2.1-.5-2.1-.5s.2-.1 1.4-.3z" class="S"/><path d="M206.6 260.9s-1-24.7-2.4-27.8c-.2-.4-1.1-.7-2.3-1-3.1-.8-6.5-.5-9.3 1.2-.7.4-1.2.8-1.2 1.2-.2 3.2-1.1 26.3-1.1 26.3s4.3 3.9 16.3.1z" class="H"/><g fill="#313547"><path d="M196.1 214.9s-6-.1-4.6 5.1c1.4 5.3 7.7 1.1 7.7.6s-3.1-5.7-3.1-5.7z"/><path d="M195.7 218.9s.8 5.5-4.5 10.1c0 0 3.3 1.7 7.9 1.3 4.6-.3 2.4-11 2.3-11.1-.1 0-5.7-.3-5.7-.3z"/></g><g class="S"><path d="M191.1 224.5c0 3.7 1.9 4 2.4 4.1 2 .5 2.3 1 2.4 3.8 0 0 2 1.8 4.1 0 0 0 0-2.4.7-5.2l.3-1c.1-.2.1-.4.2-.6 0-.1.1-.2.1-.4v-.8l.5-5.3c-.3-2.7-2.8-4.2-4.9-4.2-3.8 0-4.3 1.7-5.3 4.6.2 0-.5 2.6-.5 5z"/><path d="M202.5 224.3c-.5.8-1.5 1.2-2.2.9s-.8-1.3-.3-2.2c.5-.8 1.4-1.2 2.1-.9s.9 1.4.4 2.2z"/></g><circle transform="matrix(.9999 -.011928 .011928 .9999 -2.6667 2.4125)" fill="#fbf7ea" cx="200.9" cy="224.8" r=".4"/><path fill="#6e6e6e" d="M193.9 258.4s2.2.3 2.2.5c0 .3-2.1.4-2.1.4l-.1-.9z"/><path fill="#bfbfbf" d="M206.6 260.9s0-.8-.1-2h0c-16.5 3.3-14.9-13.5-14.9-13.5l-.8 2.2-.5 13.2s4.3 3.9 16.3.1z"/><path fill="#919191" d="M196.4 258.6s-2.2 0-2.2.3 2.2.7 2.2.7v-1z"/><path d="M191.9 234l-.2 11.7 1.8 12.4s.1.8 1.5.6c1.9-.2 3.8 1.7.8 2-.6.1-1.1 0-1.6-.1a4.23 4.23 0 0 1-2.9-2.9c-.8-3.4-2.8-11.2-2.8-12.2 0-2.3 2.3-10 3.4-11.5z" class="S"/><path d="M195.8 231.3c-.1-1.8-.6-2.3-2.3-2.7 1.4.3 2.1.3 2.9.3.7 0-.3 2-.6 2.4zm5.7-6.5s.4-.2.7-.9c.4-1.1-.5-1.5-.5-1.5s1 1-.2 2.4z" fill="#cf9c80"/><path d="M194.5 258.8c.8 0 1.4-.7 1.4-.7s7.8-10.7 7.8-11.5c0-.6-.3-6.7-.8-9.2-.1-.6 0-1.2.3-1.8l.2-1.4c.1-.5.7-.5.9-.1 1.2 3.3 2.9 11.4 2.6 13.3-.3 2.3-9.5 12-9.5 12s-1.6 1.5-3.8 1.3c-2.9-.1-1-1.9.9-1.9z" class="S"/><path d="M202.5 241.6l-.2-1.2c-.1-4.8.6-6.5 1.9-7.6 0 0 1.8 2 3 5.7-.1.1-.1 1.7-4.7 3.1zm-10.5-.3l.3-7.7s-2 1.1-3.2 6.2c0 0 .7 1.3 2.9 1.5z" class="H"/><path d="M204 233s-2.2 1.2-1.7 7.6c0 .1 0-5.4 1.7-7.6zm-12.1 7.7s-.7-5.4 1.4-7.7c0 0-1.5 2.3-1.4 7.7z" fill="#bfbfbf"/><path fill="#41465f" d="M200.9 225.3c-.7 1.4-3.2 3.7-6.3 3.8 2.6 2 7.7 1.4 7.7 1.4 3.4-10.2.2-13.4.2-13.4-5-4.9-10.9-1.4-10.9.5 0 0 .3 2.9 7.8 5.4.5.2 1.1-1.4 2.4-1.1 1.1.4 1.3 2.8-.9 3.4z"/><path d="M174.8 240c.1-.2 0-.4-.2-.4-1.5-.4-2.7-1.6-3.3-2.3-.2-.3-.6-.2-.8.1-.1.1-.2.3-.3.5-.2.4-.4.6-.6.8s-.3.4-.2.7c.4.6 1.2 1.6 3.1 2.4.1.1.3 0 .4-.1.2-.2.6-.6.8-.7.7-.3 1-.7 1.1-1z" class="AK"/><ellipse cx="181.6" cy="237" rx="5.3" ry="5.4" class="AF"/><g class="H"><path d="M177.6 235.5c-.1-.1-.2-.1-.3-.2s-.1-.2-.1-.4c0-.1 0-.2.1-.4.1-.1.1-.2.3-.2.1-.1.2-.1.4-.1.1 0 .3 0 .4.1s.2.1.3.2.1.2.1.4c0 .1 0 .2-.1.4-.1.1-.1.2-.3.2-.1.1-.2.1-.4.1-.2-.1-.3-.1-.4-.1zm.6-.4c.1-.1.1-.2.1-.3s0-.2-.1-.3-.1-.1-.2-.1-.2 0-.2.1c-.1.1-.1.2-.1.3s0 .2.1.3.1.1.2.1.1 0 .2-.1zm2-.8c.1.1.1.2.1.4v.8h-.4v-.7c0-.1 0-.2-.1-.2 0-.1-.1-.1-.2-.1s-.2 0-.2.1c-.1.1-.1.1-.1.3v.7h-.3v-1.3h.4v.2c0-.1.1-.1.2-.1h.2c.1-.2.3-.2.4-.1zm1.8.7h-1c0 .1.1.1.1.2.1 0 .1.1.2.1h.2c.1 0 .1-.1.1-.1l.2.2c-.1.1-.3.2-.5.2-.1 0-.3 0-.4-.1s-.2-.1-.3-.2-.1-.2-.1-.4c0-.1 0-.2.1-.4.1-.1.1-.2.2-.2.1-.1.2-.1.4-.1.1 0 .2 0 .3.1s.2.1.2.2c.1.1.1.2.1.4.2 0 .2 0 .2.1zm-.9-.5c-.1 0-.1.1-.1.2h.6c0-.1 0-.2-.1-.2-.1-.1-.1-.1-.2-.1-.1.1-.1.1-.2.1zm-2.9 3.2s-.1 0-.1.1h-.2c-.2 0-.3 0-.4-.1s-.1-.2-.1-.4v-.5h-.2v-.3h.2v-.3h.4v.3h.3v.3h-.3v.6h.3l.1.3z"/><path d="M180.5 236.4l-.5 1.3h-.4l-.3-.8-.3.8h-.4l-.5-1.3h.4l.3.9.3-.9h.3l.3.9.3-.9h.5zm.4 1.3c-.1-.1-.2-.1-.3-.2s-.1-.2-.1-.4c0-.1 0-.2.1-.4.1-.1.1-.2.3-.2.1-.1.2-.1.4-.1.1 0 .3 0 .4.1s.2.1.3.2.1.2.1.4c0 .1 0 .2-.1.4-.1.1-.1.2-.3.2-.1.1-.2.1-.4.1-.1-.1-.2-.1-.4-.1zm.7-.4c.1-.1.1-.2.1-.3s0-.2-.1-.3-.1-.1-.2-.1-.2 0-.2.1c-.1.1-.1.2-.1.3s0 .2.1.3.1.1.2.1c0 0 .1 0 .2-.1zm-4 2.4c-.1-.1-.2-.1-.3-.2s-.1-.2-.1-.4c0-.1 0-.2.1-.4.1-.1.1-.2.3-.2.1-.1.2-.1.4-.1.1 0 .3 0 .4.1s.2.1.2.2l-.3.2c-.1-.1-.2-.2-.3-.2s-.2 0-.2.1c-.1.1-.1.2-.1.3s0 .2.1.3.1.1.2.1.2-.1.3-.2l.3.2c0 .1-.1.2-.2.2-.1.1-.2.1-.4.1s-.3-.1-.4-.1z"/><path d="M180 238.6c.1.1.2.2.2.4v.8h-.4v-.2c-.1.1-.2.2-.4.2-.1 0-.2 0-.3-.1-.1 0-.1-.1-.2-.1 0-.1-.1-.1-.1-.2s0-.2.1-.3.2-.1.4-.1h.3c0-.1 0-.1-.1-.2 0 0-.1-.1-.2-.1h-.2c-.1 0-.1.1-.2.1l-.1-.3c.1-.1.2-.1.3-.1h.3c.3 0 .5.1.6.2zm-.3.9l.1-.1v-.1h-.3c-.2 0-.2.1-.2.2 0 0 0 .1.1.1h.2c-.1-.1 0-.1.1-.1zm1.5-1h.3v.4h-.1c-.1 0-.2 0-.3.1s-.1.2-.1.3v.6h-.4v-1.3h.4v.2c.1-.3.2-.3.2-.3z"/><path d="M183.2 239.2h-1c0 .1.1.1.1.2.1 0 .1.1.2.1h.2c.1 0 .1-.1.1-.1l.2.2c-.1.1-.3.2-.5.2-.1 0-.3 0-.4-.1s-.2-.1-.3-.2-.1-.2-.1-.4c0-.1 0-.2.1-.4.1-.1.1-.2.2-.2.1-.1.2-.1.4-.1.1 0 .2 0 .3.1s.2.1.2.2c.1.1.1.2.1.4.2 0 .2 0 .2.1zm-.9-.4c-.1 0-.1.1-.1.2h.6c0-.1 0-.2-.1-.2s-.1-.1-.2-.1-.1 0-.2.1z"/><path d="M184.9 239.2h-1c0 .1.1.1.1.2.1 0 .1.1.2.1h.2c.1 0 .1-.1.1-.1l.2.2c-.1.1-.3.2-.5.2-.1 0-.3 0-.4-.1s-.2-.1-.3-.2-.1-.2-.1-.4c0-.1 0-.2.1-.4.1-.1.1-.2.2-.2.1-.1.2-.1.4-.1.1 0 .2 0 .3.1s.2.1.2.2c.1.1.1.2.1.4.2 0 .2 0 .2.1zm-.9-.4c-.1 0-.1.1-.1.2h.6c0-.1 0-.2-.1-.2-.1-.1-.1-.1-.2-.1 0 0-.1 0-.2.1zm1.9-.3h.3v.4h-.1c-.1 0-.2 0-.3.1s-.1.2-.1.3v.6h-.4v-1.3h.4v.2c.1-.3.2-.3.2-.3z"/></g><ellipse opacity=".4" cx="188.3" cy="302.6" rx="22.6" ry="2.6" class="e"/><path d="M757.3 368.4s19-4.5 48.5 12.2c29.5 16.8 61 11 61 11s-31 2.2-60-13.8-49.5-9.4-49.5-9.4zm-55-60.6s-45.3 7.1-41.7 40.5c-.1 0-2-27.3 41.7-40.5zm99.2 9.6c-1.3 0 83.6 0 92.4 34.5 0-.1 3.8-37-92.4-34.5zm-62.3 40s-55.8 1.5-47.1-16 74.4-18.5 74.4-18.5-59.7 5-67.2 19.5 39.9 15 39.9 15z" fill="#7e90d6"/><path d="M1159.1 203s-1.5.5-1.8 1.4c0 0-.6-.4-2.2-.4 0 0 .7-.3 1.9 0 .1 0 1-1 2.1-1zm-7.5-16.4s-1.5.4-1.7 1.3c0 0-.6-.3-2.1-.4 0 0 .7-.3 1.9 0-.1 0 .8-1 1.9-.9zm-9.3 9.3s-2.3.7-2.7 2c0 0-.9-.5-3.2-.6 0 0 1.1-.4 2.9 0 0 0 1.3-1.5 3-1.4zm-19.1-1.7s-2.8.8-3.3 2.5c0 0-1.1-.7-4-.8 0 0 1.4-.6 3.5 0 0 0 1.6-1.9 3.8-1.7zm-19.7-2.2s-3.5 1-4.1 3.1c0 0-1.4-.8-4.9-1 0 0 1.7-.7 4.4 0 0 0 2-2.2 4.6-2.1zm38-12.4s-3.5 1-4.1 3.1c0 0-1.4-.8-4.9-1 0 0 1.7-.7 4.4 0 0 0 2-2.3 4.6-2.1zm-16.5-10.4s-7 2.1-8.3 6.2c0 0-2.8-1.6-9.9-1.9 0 0 3.4-1.4 8.8 0 0 0 4-4.6 9.4-4.3zm6 39.8s-1.5.5-1.8 1.4c0 0-.6-.4-2.2-.4 0 0 .7-.3 1.9 0 .1-.1 1-1.1 2.1-1z" class="h"/><defs ><path id="B" d="M60.9 197.3h0c-.3.1-.6-.1-.7-.4l-.1-.3c-.1-.3.1-.6.4-.7h0c.3-.1.6.1.7.4l.1.3c.1.3-.1.6-.4.7z"/><path id="C" d="M63.2 196.7h0c-.3.1-.6-.1-.7-.4l-.1-.3c-.1-.3.1-.6.4-.7h0c.3-.1.6.1.7.4l.1.3c.1.4-.1.7-.4.7z"/><path id="D" d="M624.2 505.8c-1.2 0-2.4-.1-3.6-.4-12.1-2.7-19.1-18.2-15.5-34.6 3.1-14.5 13.9-25.4 24.9-25.4 1.2 0 2.4.1 3.6.4 12.1 2.7 19.1 18.2 15.5 34.6-3.2 14.4-13.9 25.4-24.9 25.4z"/><path id="E" d="M630 443.2v4.3a16.28 16.28 0 0 1 3.1.3c11 2.4 17.2 16.8 13.9 32.1-2.9 13.5-12.7 23.7-22.8 23.7-1.1 0-2.1-.1-3.1-.3-11-2.4-17.2-16.8-13.9-32.1 2.9-13.5 12.7-23.7 22.8-23.7v-4.3m0 0c-12 0-23.6 11.2-27 27.1-3.8 17.6 3.9 34.3 17.2 37.2 1.4.3 2.7.4 4.1.4 12 0 23.6-11.2 27-27.1 3.8-17.6-3.9-34.3-17.2-37.2-1.4-.3-2.8-.4-4.1-.4h0z"/><path id="F" d="M625.4 492.6c-.7 0-1.3-.1-1.9-.2-6.7-1.5-10.5-10.2-8.5-19.5 1.8-8.2 7.8-14.4 13.9-14.4.7 0 1.3.1 1.9.2 6.7 1.5 10.5 10.2 8.5 19.5-1.8 8.2-7.8 14.4-13.9 14.4z"/><path id="G" d="M628.8 460.7h0c.5 0 1 .1 1.5.2 5.5 1.2 8.6 8.9 6.9 16.9-1.6 7.2-6.6 12.6-11.8 12.6-.5 0-1-.1-1.5-.2-5.5-1.2-8.6-8.9-6.9-16.9 1.6-7.2 6.7-12.6 11.8-12.6m0-4.4c-7.1 0-14 6.7-16 16.1-2.3 10.5 2.3 20.3 10.2 22.1.8.2 1.6.3 2.4.3 7.1 0 14-6.7 16-16.1 2.3-10.5-2.3-20.3-10.2-22.1-.8-.2-1.6-.3-2.4-.3h0z"/><path id="H" d="M1258.4 381h2.9c.2 0 .3-.2.3-.3v-.3c0-.2-.2-.3-.3-.3h-2.9c-.2 0-.3.2-.3.3v.3c-.1.1.1.3.3.3z"/><path id="I" d="M1366.7 411c-1 .5-2.1.7-3.2 1-.9.2-1.4 1.1-1.7 1.9 0 .1 0 .4.3.4 1.2-.2 2.6-.4 3.8-1 .2-.1.3-.2.3-.4.2-.6.3-1.3.5-1.9z"/><path id="J" d="M1280.2 418.2s-.1 0 0 0c-.1 0 0 0 0 0z"/><path id="K" d="M1298.6 421c-2.8 0-5 2.2-5.2 4.9v-.3c0-2.9 2.3-5.2 5.2-5.2s5.2 2.3 5.2 5.2v.3c-.1-2.7-2.4-4.9-5.2-4.9z"/></defs></svg>