<svg xmlns="http://www.w3.org/2000/svg" viewBox="0 0 1280 800" xmlns:v="https://vecta.io/nano"><style><![CDATA[.B{fill:#f7ba99}.C{fill:#6b2379}.D{fill:#6aa84e}.E{fill:#4d7a23}]]></style><path fill="#c5e5e5" d="M-.8 0h1280.5v800.3H-.8z"/><g fill="#fff"><path opacity=".2" d="M-.8 800.3h1280.5V291.7H-.8z"/><path opacity=".45" d="M1279.7 125.8c-3.9-8.9-11.1-14.4-22.2-16.2-1.1-.2-2.5-2.2-2.8-3.5-3.7-18.2-17.2-29.4-35.5-29.3-16.8.1-30.8 12.3-33.7 29.7-.4 2.6-1.2 3.7-3.8 4.5-3.8 1.2-7.9 2.6-10.6 5.2-4.9 4.8-8.9 10.5-13.9 16.5-12.9-2.3-24 2.5-31.4 15.5-14.9-9-30.9-3.2-33.1 11.6h187v-34z"/></g><path d="M58.4 187.8l-31 108.9h56.5zm71.3 16.1l-30.9 109h56.4z" fill="#93c979"/><g fill="#83c464"><path d="M30.2 159.3l-31 109h56.5z"/><path d="M-.8 561.1L1279.7 663v-22.5l-98.7-9.8c-189.1-19.1-372.8-77.4-532.1-166-169.5-94.2-349.7-191.5-552-200.2-33-1.4-65.5-.4-97.7 2.6v294z"/></g><path fill="#8cd16b" d="M96.9 264.6c-21.4-.8-42.5-.8-63.6.2 183.3 49.7 237.3 81.1 233.4 101.8-6.6 34.7-174.9 28-267.5 55.4v132.5c39.7 31.2 94 61 145.7 81.2 252.2 98.7 642.2 48.7 697.6-90.2 2.1-5.3 3.7-10.7 4.8-16.1-69.1-22.8-135.7-50.3-198.4-82.1-169.5-86-349.7-174.8-552-182.7z"/><path d="M58.4 314.3l-31 109h56.5zm84.7 0l-31 109h56.5zm56.4 31.4l-30.9 108.9H225z" class="D"/><path d="M86.6 338.4l-30.9 109h56.4zm-65-71.3l-22.4 141h47.9z" fill="#75b05a"/><path fill="#83c464" d="M-2.5 615.9l584-250.7c-392.2 61.9-583.1-4.8-583.1-4.8l-.9 255.5z"/><path d="M303.5 530.6c-3.9-.5-5.6-1.6-7-5.4-6.1-16.5-17.6-28-34.8-32-9.4-2.2-19.4-1.3-30.4-1.9-7-16.6-20-27-39.8-28.6-1.7-.1-4-3.1-4.7-5.2-9.6-29.5-37.5-48.6-67.9-46.1-31.4 2.6-56.1 26.5-59.8 58.1-.7 5.9-.1 11.9-.1 18.5-14.8-5.3-28.2-4.2-40.4 4.6-12.3 8.8-16.9 21.5-17 35.9l-2.4.6v35.6h334.2c1.7-16.4-11.9-31.8-29.9-34.1z" class="D"/><g fill="#70ab54"><ellipse cx="132.7" cy="454.6" rx="33.9" ry="30"/><path d="M1279.7 207.4C661.9 207.4 452.9 523.3-.8 523.3v277h1280.5V207.4z"/></g><path fill="#75b05a" d="M1279.2 224.8s-302.9-33.9-473.5 153.4C615.7 586.8 519.4 682.7-2.5 744v56.3h967c149.5-149.1 79.4-490.2 315.2-508.6l-.5-66.9z"/><path fill="#e0c757" d="M782.1 800.3c52.3-43.5 92.5-92.7 118.3-145.1 59.7-121.4 145.7-389.7 379.3-389.7v-30.4c-318.3 0-521.4 258.6-620.1 364.2-84 89.9-323.9 163.7-662.1 200.9h784.6z"/><path d="M1279.7 235.9c-60.2.7-120.2 10.8-177.1 29.6-28.5 9.5-56.3 20.9-83.1 34.3-26.9 13.3-52.9 28.3-78 44.7-50.2 32.9-96.5 71.4-139.8 112.9-21.7 20.8-42.5 42.4-62.9 64.5l-71.6 79.9c-1.3 1.4-2.5 2.8-3.9 4.2-5.3 5.7-11 11-16.8 16.2l-4.4 3.8-4.5 3.6-4.6 3.6-4.6 3.5c-6.2 4.5-12.5 9-19 13.1-12.8 8.4-26.1 16-39.7 23.1-13.5 7.1-27.3 13.7-41.2 19.8s-28 11.8-42.2 17.2-28.5 10.4-42.9 15.1c-28.8 9.5-57.9 17.9-87.3 25.3-29.3 7.4-58.9 14-88.6 19.7-29.7 5.6-59.5 10.5-89.5 14.5s-60 7.1-90.1 9.2-60.3 3.2-90.5 2.9v-1.5c60.2-2.5 120.1-9.4 179.4-19.1 29.7-4.9 59.2-10.4 88.6-16.8 29.4-6.3 58.6-13.4 87.5-21.3 57.9-15.8 115-34.7 169.5-59 27.2-12.3 53.9-25.8 78.7-41.9 6.2-4 12.3-8.2 18.3-12.5l4.4-3.3 4.4-3.4 4.3-3.4 4.2-3.6c5.5-4.8 10.9-9.7 15.9-15 1.3-1.3 2.5-2.6 3.8-4l3.8-4.1 7.6-8.3 30.6-33.2 31-33c20.9-21.9 42.3-43.3 64.4-63.9 44.3-41.3 91.7-79.4 142.9-111.9 12.8-8.1 25.8-15.9 39.1-23.2s26.7-14.3 40.4-20.7c27.4-13 55.7-24 84.6-33 14.4-4.5 29.1-8.4 43.8-11.7s29.6-6.2 44.6-8.4 30-3.8 45.1-4.8 30.2-1.4 45.3-1.3v1.6zm-498 563.9c23.2-22 45-45.3 64.3-70.4 2.4-3.1 4.7-6.3 7.1-9.5l6.9-9.6c2.3-3.2 4.4-6.5 6.6-9.8l6.3-10 6.1-10.1 5.8-10.3 5.4-10.4c1.7-3.5 3.5-7 5.1-10.6l9.9-21.7 9.8-21.8 9.9-21.8 10.2-21.8c6.9-14.5 14.1-28.9 21.4-43.2s15-28.5 23-42.4c8-14 16.3-27.8 25.2-41.3s18.2-26.7 28.1-39.4c19.9-25.4 42.2-49.1 67.6-69.2l4.8-3.7 4.9-3.6c3.2-2.4 6.6-4.7 9.9-7 6.7-4.5 13.6-8.8 20.6-12.7 7-4 14.3-7.6 21.6-11l8.4-3.6 8.4-3.3c1.9-.7 3.8-1.3 5.7-2 30.4-10.8 62.8-15.3 94.8-14.8v1.5c-16 .3-31.9 1.9-47.5 4.8-7.8 1.4-15.6 3.3-23.2 5.3l-5.7 1.7c-1.9.6-3.8 1.1-5.7 1.8-3.8 1.3-7.5 2.5-11.2 4l-5.5 2.1-5.5 2.3-2.7 1.2-2.7 1.3-5.4 2.5c-7.1 3.5-14.1 7.2-20.9 11.4-6.8 4-13.4 8.5-19.8 13-3.2 2.4-6.4 4.6-9.5 7.1l-4.7 3.7-4.6 3.8c-24.3 20.3-45.6 44-64.5 69.4-9.5 12.7-18.4 25.8-26.8 39.3s-16.4 27.2-24 41.2c-7.5 14-14.7 28.2-21.6 42.5-6.9 14.4-13.4 28.9-19.9 43.4l-19.4 43.8-10 21.9-10.5 21.8c-7.4 14.5-15.6 28.7-24.7 42.1l-7 9.9-7.3 9.7-7.6 9.5-7.9 9.2c-21.3 24.3-45.4 46.1-71.3 65l-.7-1.2z" fill="#938548"/><path d="M-.8 597.4c354.7-2.3 553.7-221.3 848.4-331-319.8 91.4-520 256.9-848.4 256.9v74.1z" class="D"/><path fill="#5e9646" d="M1279.7 800.3V577.5c-23.7-40.2-67.4-67.1-117.4-67.1-75.2 0-136.2 61-136.2 136.2v3.1c-45.4 0-82.3 36.8-82.3 82.3a73.43 73.43 0 0 0 .3 6.7h-.3c-22.1 0-41.1 13-49.9 31.7-5.5-3-11.8-4.6-18.4-4.6-20 0-36.4 15.1-38.7 34.5h442.9z"/><path d="M813.3 559.9l-41.6 2.5c-4.3-8.8 18.7-13.2 26.8-13.7l.2-10.4 15.1.1s-1.5 5-1.2 10.2l.7 11.3zm45.3 2.1l-40.4 3.9c-4.3-8.8 18.1-13.5 26.1-14l-.7-10.4 13.8-1 .5 10.1.7 11.4z" class="B"/><path d="M843.1 551.5c-.5 5.5 12.1 4.2 15.8 3.8.6-.1 1.1.3 1.1.9l1 6.9c-2.4 2.1-41.6 5.4-44 3.9-4.7-9.4 17.7-14.8 26.1-15.5zm-46.1-2.8c-.7 5.1 11.9 4.3 15.7 4 .6 0 1.1.3 1.1.9.2 2 .8 6.4.8 6.4-2.5 1.9-41.7 3.9-44.1 2.4-4.6-8.8 18-13.2 26.5-13.7z" fill="#302f30"/><path fill="#875d46" d="M792.2 250c-.6 15.5-25.6 50.2-48.8 69.4 0 0-11.2 7.1-15.3 7.5-2 .2-3.7 1.6-3 3 .7 1.5 3.1 2.6 6.6 1.3 5.6-2 1.7 3.6-2.6 7s-5.3 9.3-1.2 11.7 20.1-8.4 25.3-22.9c0 0 42.8-30 46.9-53.5 4-23.4-7.9-23.5-7.9-23.5z"/><path fill="#66a32e" d="M785.8 298.2c-12.5-5.4-13.2-9.9-13.2-9.9 1.8-14.6 19.9-51.8 34.9-58 0 0-2 15.4-.5 30.6 2.3 23.6-21.2 37.3-21.2 37.3z"/><g fill="#875d46"><path d="M814.2 218.7c2.5 0 3 3.9 3.3 8 .3 3.9 3.6 7.2 7.8 7.8h.2c5 .6 9.4-2.9 10-7.5.5-4 1.6-10.2 3.8-17a35.23 35.23 0 0 1 1.5-4.2c.3-.8.6-1.6 1-2.4l.6-1.5s.1-1.3.3-3.2c.5-5.4 1.4-16 .8-20.1-3-18.9-38.2-19.2-42-2.5.1.1-8 43 12.7 42.6z"/><path d="M848.7 198.4c-2.3 3.4-6.4 4.9-9.2 3.3s-3.2-5.7-1-9.1c2.3-3.4 6.4-4.9 9.2-3.3s3.2 5.6 1 9.1z"/></g><path d="M844.6 199.5s1.7-.5 2.9-3.4c1.6-4-1.4-5.7-1.4-5.7s3.1 3.9-1.5 9.1zm-17.5 18.4c4.8-.1-6.1 1.2-9.4 9.7-.4-6.7-1.6-9-3.3-8.9 0 0 8.4-.7 12.7-.8z" fill="#4c3528"/><path d="M843 202.4s-1.2 12.7-4.4 12.9c-1.4.1-2-1-2.2-2.2-.3-1.6.2-3.3 1.1-4.7l4-6.1 1.5.1z" class="C"/><path d="M856.2 232.1s19 11.5 32.4 30.9c0 0 17.2.4 31.3 8.8 0 0 1.7 6.9-4.6 11.6 0 0-26.1-.2-39.2-3.2l-27.7-20.9 7.8-27.2z" class="E"/><path fill="#0577ae" d="M800.3 354.5l-3.7 190.3a1.83 1.83 0 0 0 1.4 1.8c2.3.5 7.6 1.2 15.3-.3.8-.2 1.3-.8 1.4-1.6L836 337l-35.7 17.5z"/><path fill="#079fe8" d="M813.4 334.7l30.1 214a2.24 2.24 0 0 0 1.7 1.9c6.3 2 11 .2 13.1-1 .8-.4 1.2-1.2 1.2-2l-1.5-213-44.6.1z"/><path fill="#66a32e" d="M817.4 226.6c-17.1 3.2-28.7 19.9-28.4 44.4.2 20.6 2.3 56.3 9.8 82.2.2.8.8 1.5 1.5 2 4.5 3 25.2 12.4 58.2 0 1.4-.5 2.3-1.9 2.3-3.4-.3-58.1 8.9-106.8-.3-116.3-7.8-7.2-14.4-8.2-24.7-9.6-.1 2.2-2.3 6.5-8.8 6.5-9.9.1-9.6-5.8-9.6-5.8z"/><path d="M846.1 188.6s5.2-18.5 2-22.5-37.5-29-49-13.9c-8.4 11 4.6 17.9 4.6 17.9s3.2 2.4 14.6.4c11.3-2 16.4-1.9 16.1 2.1s5.5 4.6 5.5 4.6l-.6 14.1c-.1.1 2.6-3.5 6.8-2.7z" class="C"/><path d="M800.2 355.1c-.7-.5-1.2-1.2-1.5-2-5.9-20.3-8.4-46.6-9.3-67 1.7 10.4 17.5 79.6 71 67-.4.9-1.1 1.6-2 2-33 12.4-53.7 3-58.2 0z" class="E"/><path d="M926.7 284.4c-2.8 9.2-12.4 8.4-15 5-3.3-4.2-.7-8.1 4.4-13.4 0 0-4.6-5.8-3-6.6 4.7-2.5 16.1 7 13.6 15z" class="B"/><path fill="#3a5c1a" d="M857.3 350.4s-27.2 12.6-56.3.7c0-.1 24.4 8.4 56.3-.7z"/><path fill="#9937a4" d="M857.5 360.8l6 180.8 14.6.6 15.5-180.9-36.1-.5z"/><path d="M844.3 567.8l31.6-3.5 2.2-22.1-14.6-.6.3 9.8c.1 2.1-1.6 3.9-3.8 4.2-14.8 1.7-19.5 7.8-15.7 12.2z" class="B"/><path d="M885.2 381.6l6.8 2.2-13.5 154.3 6.7-156.5z" class="C"/><path fill="#595959" d="M858.3 555.8c9.2 3.2 17.9 1.1 18.6-1.4.2-.7 1.5.3 1.5 1-.1 4.5-.9 8.8-.9 8.8-2 2.5-30.5 6-38.3 3.8-4-5 5.5-10.8 19.1-12.2z"/><path d="M855.1 556.4s6.3 1.9 2.9 3.4-9.1-2-9.1-2 1.1-.7 6.2-1.4z" class="B"/><path d="M903 545.7l13.4-.2 2.9-184.8-35.1 3.5c-1.6 37.9 16.6 142.8 18.8 181.5z" class="C"/><path d="M878.9 572.8l37-3.7.6-23.6-13.4.2c.3 4.6.3 8.3.1 10.8-.2 2.1-2 3.8-4.2 4.1-15.3 1.6-24.2 7.2-20.1 12.2z" class="B"/><path d="M908.7 377.4l6 168.2h1.7l3-170.8z" class="C"/><path fill="#595959" d="M898.8 560.6c8.6 2.7 14.4 1.4 17 .4.7-.3 1.5.3 1.5 1l-.2 7c-2 2.5-30.5 6-38.3 3.8-4-5 4.9-10.6 20-12.2z"/><path d="M894.6 561.2s6.3 1.9 2.9 3.4-9.1-2-9.1-2 1.2-.8 6.2-1.4z" class="B"/><path fill="#fff" d="M922.9 387s-4.2-104.9-10-117.8c-.7-1.6-4.8-3.1-9.6-4.4-13.3-3.5-27.6-1.9-39.3 5.1-3 1.8-5.1 3.6-5.2 5-.9 13.6-4.8 111.5-4.8 111.5s18 16.7 68.9.6z"/><g fill="#313547"><path d="M878 192.1s-25.6-.6-19.5 21.7 32.5 4.5 32.5 2.6-13-24.3-13-24.3z"/><path d="M876.5 209s3.2 23.3-19 42.8c0 0 14.2 7.1 33.7 5.7s10.2-46.8 9.7-47c-.6-.2-24.4-1.5-24.4-1.5z"/></g><g class="B"><path d="M857 232.4c.1 15.8 8.2 17.1 10.2 17.6 8.6 2.1 9.8 4.2 10.1 16.1 0 0 8.5 7.8 17.4-.2 0 0-.1-10 3.1-21.9.4-1.4.8-2.9 1.3-4.4l.9-2.5.6-1.5s.1-1.3.2-3.3c.3-5.5 2.5-18.4 2.1-22.5-1.3-11.5-11.8-17.9-20.6-17.8-16.2.2-18.4 7.4-22.3 19.5-.1.1-3.1 10.9-3 20.9z"/><path d="M905.2 231.9c-2.1 3.6-6.4 5.2-9.2 3.7s-3.5-5.6-1.4-9.2 6.1-5.3 8.9-3.8 3.8 5.8 1.7 9.3z"/></g><ellipse transform="matrix(.9999 -.011928 .011928 .9999 -2.7242 10.7347)" fill="#fbf7ea" cx="898.5" cy="233.7" rx="1.8" ry="1.7"/><path fill="#6e6e6e" d="M868.9 376.5s9.2 1.1 9.2 2.3-9.1 1.6-9.1 1.6l-.1-3.9z"/><path fill="#bfbfbf" d="M922.9 387l-.4-8.5c-70.1 13.9-63.1-57.4-63.1-57.4l-3.2 9.5-2.3 55.9s18.1 16.6 69 .5z"/><path fill="#919191" d="M879.2 377.4s-9.2 0-9.4 1.2 9.4 3 9.4 3v-4.2z"/><path d="M860.4 272.8l-1 49.6 7.8 52.5s.6 3.4 6.2 2.7c8.1-1 16.2 7.2 3.4 8.7-2.3.3-4.6 0-6.6-.5-6.1-1.5-10.7-6.4-12.2-12.2-3.6-14.4-11.7-47.5-11.7-51.5-.3-10.4 9.4-42.8 14.1-49.3z" class="B"/><path d="M877.1 261.4c-.6-7.8-2.6-9.6-9.9-11.4 5.9 1.4 8.7 1.2 12.2 1.2 3 0-1.4 8.7-2.3 10.2zm24-27.7s1.8-.7 2.9-3.9c1.5-4.5-1.9-6.2-1.9-6.2s4 4.3-1 10.1z" fill="#cf9c80"/><path d="M871.4 378.2c3.2 0 6.1-2.9 6.1-2.9s33-45.5 33.2-48.8c.2-2.6-1.4-28.3-3.3-39-.5-2.6 0-5.2 1.3-7.5l1-5.7c.4-2 3.1-2.2 3.8-.3 5 14.2 12.2 48.4 11 56.4-1.5 9.6-40.1 51-40.1 51s-6.8 6.4-16.2 5.5c-12.8-1.2-4.9-8.8 3.2-8.7z" class="B"/><path d="M905.3 305.3l-.9-5c-.3-20.5 2.6-27.4 8-32.2 0 0 7.7 8.4 12.5 24.3.1.1.1 7-19.6 12.9zm-44.4-1.5l1.3-32.7s-8.4 4.5-13.8 26.3c0 0 2.9 5.5 12.5 6.4z" fill="#fff"/><path d="M911.7 268.8s-9.3 5-7.2 32.4c.1 0-.2-23.4 7.2-32.4zm-51.3 32.4s-2.9-22.8 6-32.7c0 0-6.4 9.9-6 32.7z" fill="#bfbfbf"/><path fill="#41465f" d="M898.4 236.1c-3.1 6-13.4 15.7-26.6 16.1 10.9 8.5 32.7 6 32.7 6 14.3-43.1 1-56.7 1-56.7-21.3-20.8-46.1-5.9-46 2.3 0 0 1.4 12.2 33 23.1 1.9.7 4.8-5.8 10-4.5 4.6 1.1 5.4 11.2-4.1 13.7z"/><path d="M787.9 298.4c.3-.7 0-1.5-.7-1.7-6.3-1.8-11.5-6.9-13.9-9.6-1-1.1-2.7-1-3.5.3-.3.5-.7 1.1-1.1 1.9-.9 1.7-1.8 2.6-2.6 3.2-.9.7-1.3 1.9-.7 2.9 1.6 2.5 5.2 6.6 13.3 10.1.6.3 1.3.1 1.8-.4.9-1 2.4-2.5 3.4-2.9 2.2-.9 3.4-2.6 4-3.8z" class="E"/><ellipse fill="#ff882a" cx="816.7" cy="285.6" rx="22.5" ry="23"/><path d="M799.7 279.1c-.5-.2-.8-.6-1.1-1s-.4-.9-.4-1.5.1-1.1.4-1.5.6-.8 1.1-1 1-.4 1.6-.4 1.1.1 1.5.4c.5.2.8.6 1.1 1s.4.9.4 1.5-.1 1.1-.4 1.5-.6.8-1.1 1-1 .4-1.5.4c-.6 0-1.1-.1-1.6-.4zm2.6-1.4c.3-.3.4-.7.4-1.1 0-.5-.1-.8-.4-1.1s-.6-.4-1-.4-.7.1-1 .4-.4.7-.4 1.1c0 .5.1.8.4 1.1s.6.4 1 .4.7-.1 1-.4zm8.3-3.4c.4.4.6 1 .6 1.9v3.2h-1.6v-3c0-.4-.1-.8-.3-1s-.5-.3-.8-.3c-.4 0-.7.1-1 .4-.2.3-.4.6-.4 1.1v2.8h-1.6v-5.6h1.5v.7c.2-.2.5-.4.8-.5s.7-.2 1-.2c.8-.1 1.4.1 1.8.5zm7.7 2.8h-4.1c.1.3.3.6.5.8a1.69 1.69 0 0 0 1 .3c.3 0 .5 0 .8-.1.2-.1.4-.2.6-.4l.8.9c-.5.6-1.3.9-2.3.9-.6 0-1.2-.1-1.6-.4-.5-.2-.8-.6-1.1-1s-.4-.9-.4-1.5c0-.5.1-1 .4-1.5.3-.4.6-.8 1-1s.9-.4 1.5-.4c.5 0 1 .1 1.5.4a2.41 2.41 0 0 1 1 1c.2.4.4 1 .4 1.5v.5zm-3.8-1.8c-.2.2-.4.5-.4.9h2.7c-.1-.4-.2-.6-.4-.8s-.5-.3-.9-.3c-.4-.2-.7-.1-1 .2zm-12.3 13.2c-.2.1-.3.2-.6.3-.2.1-.5.1-.7.1-.7 0-1.2-.2-1.5-.5-.4-.3-.5-.8-.5-1.5v-2.3h-.9v-1.3h.8v-1.4h1.6v1.4h1.4v1.3h-1.4v2.3c0 .2.1.4.2.5s.3.2.5.2c.3 0 .5-.1.6-.2l.5 1.1zm9.8-5.4l-2 5.6h-1.5l-1.2-3.5-1.3 3.5h-1.5l-2-5.6h1.5l1.3 3.8 1.3-3.8h1.3l1.3 3.8 1.3-3.8h1.5zm1.9 5.3c-.5-.2-.8-.6-1.1-1s-.4-.9-.4-1.5.1-1.1.4-1.5.6-.8 1.1-1 1-.4 1.6-.4 1.1.1 1.5.4c.5.2.8.6 1.1 1s.4.9.4 1.5-.1 1.1-.4 1.5-.6.8-1.1 1-1 .4-1.5.4c-.6 0-1.1-.1-1.6-.4zm2.6-1.3c.3-.3.4-.7.4-1.1 0-.5-.1-.8-.4-1.1s-.6-.4-1-.4-.7.1-1 .4-.4.7-.4 1.1c0 .5.1.8.4 1.1s.6.4 1 .4.7-.2 1-.4zm-16.7 9.9c-.5-.2-.8-.6-1.1-1s-.4-.9-.4-1.5.1-1.1.4-1.5.6-.8 1.1-1 1-.4 1.6-.4 1.1.1 1.5.4c.4.2.7.6.9 1.1l-1.2.7c-.3-.5-.7-.8-1.2-.8-.4 0-.8.1-1 .4-.3.3-.4.7-.4 1.1s.1.9.4 1.1c.3.3.6.4 1 .4a1.3 1.3 0 0 0 1.2-.8l1.2.7c-.2.4-.5.8-.9 1-.4.3-.9.4-1.5.4-.6.1-1.2 0-1.6-.3zm10-4.7c.5.4.7 1 .7 1.9v3.2H809v-.7c-.3.5-.9.8-1.7.8-.4 0-.8-.1-1.1-.2s-.5-.3-.7-.6-.2-.5-.2-.9c0-.5.2-.9.6-1.2s1-.4 1.8-.4h1.3c0-.4-.1-.6-.3-.8s-.5-.3-.9-.3c-.3 0-.6 0-.9.1s-.5.2-.7.4l-.6-1.1c.3-.2.7-.4 1.1-.5s.8-.2 1.3-.2c.7-.2 1.3 0 1.8.5zm-1.4 3.8c.2-.1.4-.3.4-.6v-.5h-1.1c-.7 0-1 .2-1 .7 0 .2.1.4.2.5.2.1.4.2.7.2.4-.1.6-.1.8-.3zm6.7-4.3c.3-.1.7-.2 1.1-.2v1.5h-.4c-.5 0-.8.1-1.1.4s-.4.7-.4 1.2v2.6h-1.6v-5.6h1.5v.7l.9-.6zm8.3 3.2h-4.1c.1.3.3.6.5.8a1.69 1.69 0 0 0 1 .3c.3 0 .5 0 .8-.1.2-.1.4-.2.6-.4l.8.9c-.5.6-1.3.9-2.3.9-.6 0-1.2-.1-1.6-.4-.5-.2-.8-.6-1.1-1s-.4-.9-.4-1.5c0-.5.1-1 .4-1.5.3-.4.6-.8 1-1s.9-.4 1.5-.4c.5 0 1 .1 1.5.4a2.41 2.41 0 0 1 1 1c.2.4.4 1 .4 1.5v.5zm-3.7-1.8c-.2.2-.4.5-.4.9h2.7c-.1-.4-.2-.6-.4-.8s-.5-.3-.9-.3c-.5-.1-.8 0-1 .2zm11 1.8h-4.1c.1.3.3.6.5.8a1.69 1.69 0 0 0 1 .3c.3 0 .5 0 .8-.1.2-.1.4-.2.6-.4l.8.9c-.5.6-1.3.9-2.3.9-.6 0-1.2-.1-1.6-.4-.5-.2-.8-.6-1.1-1s-.4-.9-.4-1.5c0-.5.1-1 .4-1.5.3-.4.6-.8 1-1s.9-.4 1.5-.4c.5 0 1 .1 1.5.4a2.41 2.41 0 0 1 1 1c.2.4.4 1 .4 1.5.1.1.1.2 0 .5zm-3.7-1.8c-.2.2-.4.5-.4.9h2.7c-.1-.4-.2-.6-.4-.8s-.5-.3-.9-.3c-.4-.1-.7 0-1 .2zm8-1.4c.3-.1.7-.2 1.1-.2v1.5h-.4c-.5 0-.8.1-1.1.4s-.4.7-.4 1.2v2.6h-1.6v-5.6h1.5v.7c.4-.2.6-.4.9-.6z" fill="#fff"/><path fill="#ff882a" d="M1242.6 728.5l-31.3-28.8c-2.2-2-5.9-.6-5.9 2.2v9.9c0 1.7-1.6 3.1-3.5 3.1h-36.7c-1.9 0-3.5 1.4-3.5 3.1v25.5c0 1.7 1.6 3.1 3.5 3.1h36.7c1.9 0 3.5 1.4 3.5 3.1v9.9c0 2.8 3.8 4.2 5.9 2.2l31.3-28.8c1.3-1.3 1.3-3.2 0-4.5z"/><path fill="#fff" d="M1221.3 702.1c5.6 4 11.1 8.2 16.6 12.4l8.2 6.4 8.1 6.4c1.1.9 1.3 2.4.4 3.5l-.2.2c-2.4 2.8-4.8 5.4-7.3 8.1l-7.5 7.9c-5.1 5.2-10.4 10.2-16.1 14.9-2.9 2.3-5.9 4.6-9.3 6.5-.9.5-1.8.9-2.8 1.3s-2.1.8-3.5.9c-.8.1-1.4 0-2.1-.1a8.3 8.3 0 0 1-2.1-.6c-1.4-.6-2.5-1.7-3.2-2.8-1.5-2.2-1.9-4.4-2.1-6.4s-.2-4-.1-5.9a70.63 70.63 0 0 1 1.8-11.2l2.5 2.9c-5.4.1-10.9.3-16.3.7-5.5.3-11 .9-16.6.8-2.8-.1-5.6-.3-8.4-1-.3-.1-.7-.2-1-.3l-.5-.2c-.1 0-.2-.1-.4-.2-.1-.1-.2-.1-.3-.2-.8-.6-1.1-1.3-1.5-2-.7-1.3-1.1-2.7-1.5-4-1.5-5.4-2.2-11-2.3-16.6 0-2.8.1-5.7.8-8.6.3-1.4.8-2.9 1.5-4.3.4-.7.8-1.4 1.3-2.1s1.2-1.3 1.9-1.8c1.4-1 2.9-1.7 4.4-2.2s3-.8 4.5-.9c2.9-.3 5.8-.3 8.6-.2 11.2.8 21.9 2.9 32.7 3.6l-1.8 3.4c-1.2-1.9-2.3-3.8-3.2-5.8s-1.8-4.1-2.1-6.6c0-.6 0-1.3.2-2.1.2-.7.7-1.6 1.4-2 .7-.5 1.4-.6 2.1-.6s1.2.1 1.8.2c2.3.5 4.2 1.5 6.1 2.5.2.1.2.3.1.4s-.2.2-.4.1c-1-.3-2-.6-3.1-.8-1-.2-2-.4-3-.4-.9 0-1.9.1-2.2.5-.2.2-.2.3-.2.6s0 .7.1 1.1c.4 1.7 1.4 3.5 2.4 5.2a89.18 89.18 0 0 0 3.5 5c.7.9.6 2.3-.3 3-.4.3-.8.5-1.3.5h-.2c-2.8 0-5.6-.1-8.4-.2l-8.3-.7c-5.5-.6-10.9-1.2-16.2-1.5-2.7-.2-5.3-.3-7.8-.2-2.5.2-4.9.6-6.7 1.7-1.7 1-2.9 3.1-3.7 5.5s-1.3 5-1.5 7.7c-.3 9.7-.8 25.5 13 22.2 2.7-.1 5.4-.4 8.1-.8l8.1-1.3c5.4-.9 10.9-1.7 16.5-2.1 1.3-.1 2.4.9 2.5 2.1v.9c-.5 3.4-.9 6.9-1 10.3 0 1.7.1 3.4.3 4.9s.7 3 1.3 3.7c.3.4.6.6.8.7.1.1.3.1.5.1h.6c.4 0 1-.3 1.7-.5.7-.3 1.4-.7 2.1-1.1 2.8-1.7 5.6-3.8 8.3-6.1 5.5-4.5 10.7-9.3 15.9-14.2s10.4-9.9 15.4-15l.2 3.7-7.6-7-7.5-7.1-14.8-14.5c-.1-.1-.1-.3 0-.4-.2 0-.1 0 .1.1z"/></svg>