<svg xmlns="http://www.w3.org/2000/svg" viewBox="0 0 206 478.1" xmlns:v="https://vecta.io/nano"><style><![CDATA[.B{stroke-miterlimit:10}.C{fill:none}.D{stroke-linejoin:round}.E{fill:#dbbc32}.F{fill:#875d46}.G{fill:#a14730}.H{fill:#4e9da3}.I{stroke:#312a20}.J{stroke-linecap:round}.K{fill:#e2e2e2}.L{fill:#3b767a}.M{fill:#a48d26}.N{fill:#654635}.O{fill:#363847}.P{fill:#43888c}.Q{stroke-width:.682}.R{stroke-width:.656}.S{stroke-width:.894}.T{stroke-dasharray:2.2354}]]></style><path d="M77 445l.6-11.5 12.4-1.3 1.1 16.3-8.3 4.5z" class="F"/><path d="M133.4 243.1c-2.1 4.1 1.7 7.4 4.1 3.2s1.9-15.3 1.9-15.3l-4.1 1.3c0 0 .2 6.8-1.9 10.8" class="N"/><path fill="#383530" d="M100.8 427.8v.1-.1c0 .1 0 0 0 0z"/><path d="M117.4 314.5l-32.7.1" class="O"/><path d="M125.7 203.5s7.7 3.5 11 12.1c2.3 5.9.7 13.3 5.1 11.8s7.9-11.5.5-23.3c-7.4-11.7-13.2-9.1-13.2-9.1l-3.4 8.5z" class="F"/><g class="H"><path d="M117.7 152.2c-12.5-15.5-36.7-49.8-45.9-47.6-6.6 1.6 3.1 28.6 3.1 28.6 3.5 4 17 27.5 30.7 39.2 6.6 5.6 13.8 12.4 20.5 6.6 5.8-5.2-1.6-18.4-8.4-26.8z"/><path d="M84.9 176.9l39.8 27.1c1.3.8 2.9.9 4.1.1 1.7-1.1 4.5-3.4 5.5-6.3.5-1.4.1-3-.9-4.1l-40.8-39.2c0 .1-18.5-5.1-7.7 22.4z"/></g><path d="M88.1 182.4c-2.8-5.3-16.6-37.6-19.2-44.1 2.7 9.7 7.6 29.5 15 42.1 2.5 4.1 5 8.7 8.2 11.3l25.2 33.3c.9 1.2 2.4 1.7 3.9 1.4l1.2-.3c-8.2-11.7-31-37.4-34.3-43.7z" class="P"/><path fill="#7b6a1c" d="M119.5 101s0 2.5-.3 4.5-4.6-3.7-4.6-3.7l4.9-.8z"/><path opacity=".32" fill="#232121" d="M67.9 222.3s39.3 11.9 61.9-1.8c18-10.9-61.9-4.5-61.9-4.5v6.3z"/><path d="M87.2 83.9c2.5 3.1 1.3 9.1-1.6 12.3 5.6 2.2 13.5 3.1 19 .7-2.1-2.6-1.4-7.4-1.1-8.9 12.1-.3 18.3 1.1 18-9.4-.1-5.1-.5-9.8-1.2-14.9-.6-4.7-1.3-10.9-3.6-15.1-3.7-6.8-16.8-7-22.8-4.3-6.9 3-11.9 9.8-13 17.3s1.6 14.6 6.3 22.3z" class="F"/><path d="M76.2 444.6s3.4 6.7 13.7 1.8l.6 4.1-6.7 2.4c-.4.1-5.9-.1-5.9-.1l-2.3-4 .6-4.2z" class="N"/><path fill="#d7684b" d="M72.8 453.4s0 1 1.4 3.5c0 0 39.4 3.5 39.4-1.9l-.5-2.1s-.3-2.8-9.3-4.4c-1.1-.2-2.1-.5-3.2-.8-2.5-.8-6.9-2.4-8.6-3.5-.2-.2-.6-.1-.7.1-.7 1.1-2.9 3.7-8.1 3.6-3.5-.1-5.3-1.7-6.2-3.2-.5-.9-2.1-1-2.6-.1-1.3 2.3-2.7 5.7-1.6 8.8z"/><path d="M106 448.9l-4.5-1c-2.6-.8-7.1-2.3-8.9-3.4-.1 0-.1-.1-.2-.1l-.8 1.5s11.1 3.4 12.7 3.5 1.6-.3 1.7-.5z" class="G"/><g class="C B R"><path d="M95 447a.47.47 0 0 1-.5.5c-.3 0-.5-.2-.6-.5a.47.47 0 0 1 .5-.5c.3 0 .5.2.6.5zm3.6 1.3c0 .3-.2.5-.4.5-.3 0-.5-.2-.6-.5 0-.3.2-.5.4-.5.3.1.5.3.6.5zm3.5 1c0 .3-.1.5-.4.5s-.5-.2-.6-.5c0-.3.1-.5.4-.5s.6.3.6.5z" stroke="#595651"/><path d="M94.4 447s.2-1.7.9-1.5M99 447c-1 .1-.9 1.3-.9 1.3s-.5-1.6-2.5-2.5m4.1 1.6s1.2.3 1.9 1.9c0 0 .1-1 .6-1.2" class="D I J"/></g><path d="M97.2 454.5h-.3s2.6-2.3 5-3c3.3-.9 4-2.6 4-2.6h.1c0 .1-.6 1.8-4 2.7-2.3.8-4.7 2.8-4.8 2.9z" class="G"/><path d="M92.5 444.4c-.2.9-1.8 5.3-9.3 5.3-6.7 0-8.9-3.2-9.4-4.1.2-.3.3-.7.5-1 .5-.9 2.1-.9 2.6.1.9 1.5 2.7 3.1 6.2 3.2 5.2.1 7.4-2.5 8.1-3.6.1-.2.5-.3.7-.1.3 0 .4.1.6.2z" class="K"/><path d="M78.5 454.6h-.2c0-4.3-4.8-8-4.8-8.1l.1-.2c-.1 0 4.9 3.9 4.9 8.3z" class="G"/><path stroke-width=".541" d="M92.5 444.5s-4.2 4-1.7 4.6c2.5.5 1.7-4.6 1.7-4.6z" class="B C D I"/><path d="M113.1 452.9l.5 2.1c-.1 5.5-37.4 4.9-41 2.5-1.1-2.3.2-4.1.2-4.1s7.2 3.3 31.3 1c0 0 9.5-1 7.5-3.4 1.4 1 1.5 1.9 1.5 1.9z" class="K"/><path fill="#c9c8c8" d="M111.5 451c1.3 1.3-1.4 2.4-4 2.8h0l.4.4s1.1.9 1.1 3.4c3.5-.9 4.6-1.6 4.6-2.8l-.5-2.1c0 0 0-.7-1.6-1.7z"/><path fill="#595651" d="M98.2 458.8l2.2-2.4c.8-.8 1.9-1.4 3.4-1.6 7.2-1 8.2-2.3 8.3-2.9 0-.4-.3-.7-.5-.8h-.1v-.1l.6.6c.1.1.1.3.1.4-.1 1.2-2.8 2.2-8.4 3-1.5.2-2.6.7-3.3 1.5l-1.9 2.1-.1.1-.3.1z"/><path d="M96.3 453.4l.9-11.5 13.4-.9.9 16.2-9.1 4.4z" class="F"/><path d="M98.1 243l-5.7 197.2c0 .7-.4 1.3-1.1 1.5-3.7 1.4-10.3 1.9-14.4-.2-.5-.3-.8-.8-.9-1.3L63.4 245l34.7-2z" class="O"/><path fill="#262833" d="M90.8 243.4l-27.4-.4 12.7 197.2c.1.6.4 1 .9 1.3s3.2 1.4 7.2 1.4l6.6-199.5z"/><path stroke="#434659" d="M90.8 269.4l-6.7 172.7" class="B C D J S T"/><path d="M85.3 247.5l10.1 199.6c0 .9.4 1.7 1.2 2 3.1 1.6 10.8 2.4 14.2 1 .7-.3 1.2-.9 1.3-1.7L128 231.6l-42.7 15.9z" class="O"/><path fill="#262833" d="M85.3 246.1l10 201c0 .9.4 1.7 1.2 2 .5.2 4.2 1.6 7.3 1.6l4.5-207.7-23 3.1z"/><path stroke="#434659" d="M108.3 243l-4.5 207.7" class="B C D J S T"/><path d="M128.6 229.6v7.4s-38.4 24.5-65.3 13.2l-1.1-6.8 66.4-13.8z" class="L"/><path fill="#2c595c" d="M123.7 234.9v4.9l4.9-2.8v-5.7z"/><path d="M96 70.2s-3.6-1.3-3.3-5.6c.3-4.8 4-4.5 4-4.5s-3.3-.1-3.6 4.6a5.91 5.91 0 0 0 2.9 5.5zm24.2 14.9c-4.4 4.1-18.2 0-18.2 0l1.1 2.9c5.1.5 15.1.8 17.1-2.9z" class="N"/><path d="M122.6 103.9l-18.2-8.5C88.6 100.1 87 94 86.3 94.3c0 0-14.3 6-21.1 19.8-10.5 21.2-7 129.9-2.5 132.2 23 11.6 66.6-11.5 66.6-14.7.1-16.1 1.5-79.4-2.1-115.6-1-9.9-4.4-11.6-4.6-12.1z" class="H"/><path d="M83.9 118.1s15.9 5.1 26 32.9c7.9 21.6 14.9 49.1 12.8 55.9-4 12.9-51 17.5-59.8 11.5-4.5-3.1-12.9-60.3-3.9-84.9 8.6-23.6 24.9-15.4 24.9-15.4z" class="P"/><path d="M119.3 206.2s12.3-14.4 15-31.2a16.95 16.95 0 0 0 0-4.5l-1.3-6.6c-1 6.9-.6 19.1-18.9 33.7-.4.4 5.2 8.6 5.2 8.6z" class="E"/><path d="M69.6 119.9s-8.6-8 5.5-9.6 4.7 10.4 4.7 10.4 5.6-10.9-5.3-8.6-4.9 7.8-4.9 7.8z" class="L"/><path d="M69.6 119.9s-9-9.9 5.2-11.4 4.7 10.4 4.7 10.4 5.6-10.9-5.3-8.6-4.6 9.6-4.6 9.6z" class="E"/><path d="M78.2 218.9s2.7 8 2.5 10-6.5 6.8-11.2 5.6c-4.6-1.2-6.2-18.4-6.2-18.4l14.9 2.8z" class="H"/><path fill="#836b0b" d="M78.2 229.7s1.7-.5-9-23.5l-4 .2 3 24.4 4.6.7c.4 0 5.4-1.8 5.4-1.8z"/><path d="M56.5 209.9s3.1 11.6 7.7 21c1.6 3.1 5.3 4.5 8.5 3.1 2-.9 4-2.2 5.5-4.2 0 0-5.1-.4-12.2-22.7l-9.5 2.8z" class="E"/><path d="M61.1 132.1s-7-1.6-1.7-7.3c5.3-5.8 5.1-6.3 8.8-4.6l-7.1 11.9z" class="M"/><path fill="#ffdf57" d="M53.7 210.4c-15.6-87 17.2-95.6 22.4-94.4 6.9-.9 31.1 12.2 45.3 86.7.7 3.4-1.1 6.9-4.2 8.4-5.2 2.5-14.8 6.1-30.5 8.9-27.7 5.1-32.1-5-33-9.6z"/><path d="M56.9 150.8s13.8.1 28.4-5c0 0 2.9 6 3 9.2 0 0-23.1 7.5-29.8 4l-1.6-8.2zm1.2 35.7s26-8.9 38.9-5.4c0 0 1.5 15.4 5.8 23.2 0 0-11.6 7.8-24.7 8.5s-15.7-2.5-15.7-2.5-5.3-10.6-4.3-23.8z" fill="#ffe579"/><path d="M58.5 180.4c.5-.4 17.1 2.2 36.3-5.1 0 0 3-.3 4.2 6.5 0 0-20.6 9.3-43.3 5.4 0-.1-.9-4 2.8-6.8z" class="E"/><path d="M133 163.9s-.8 17.2-13.5 29.1v1.6c-.1 0 13.9-12.2 13.5-30.7zm1.5 10s-2 15.7-14.7 29.9l1.7-.1s12-15.6 13-29.8z" class="M"/><path d="M63.6 209.9s-4.9-4.9-5.6-18.6c0 0-1.3 10.5 4 20.4 0 0 19.5 9.2 40.9-7.5-.1.1-24.5 13.2-39.3 5.7zm-6.8-59.6s-.9 7.4 1.8 9.8c0 0 10.6 2 29.8-4.2 0 0 .3-5.6-3.1-10 0 0 1.9 7.4.9 8.4 0 0-13.4 6-26.8 4.3 0 0-1.9-2.3-2.6-8.3zm46.5 65.9c4.4-1.4 11.5-3.9 13.9-5.1 3.1-1.5 4.9-4.9 4.2-8.4-14.2-74.5-38.4-87.6-45.2-86.7-2.9-.6-14.1 1.7-21 18.5h0s4.1-8.9 13.9-10.7c13.4-2.4 20.4 8 27.4 26.4 7 18.2 14.1 44.9 15.4 52.9 1.1 7.2-4.8 11.9-8.6 13.1z" class="E"/><path d="M85.6 95.8s2.3 5.4 19.5 1.3c-.1 0-17.2 5.7-19.5-1.3z" class="L"/><path fill="#41465f" d="M86.4 85.2c-1.4-4.4-7-17.2-10.1-28.1-1.9-6.8 1-14.1 7.2-17.6 11.2-6.4 25.6-14.5 33.2-13.2 11.3 2 7 17.1-2 23.9-6.6 5-10.3.6-12.2 4.3-1.4 2.6 4.3 3.5 1.9 7.3-2.7 4.1-2.9-3.5-7.4-3.5s-7.1 7.1-3.8 11c2 2.3 3.4 3.6 5.6 5.8 1.6 1.6 1.8 4.2.3 6-1.7 2.1-4.9 4.4-10.4 5.4-1 .1-2-.4-2.3-1.3z"/><path fill="#676b7f" d="M116.7 26.4c-2.1-.4-4.7 0-7.7.8 0 0 18.9-1.7 7.6 21.4h0c7.7-7.3 10.6-20.4.1-22.2z"/><path d="M71.6 221.4s3.7 7.6 6.6 8.3l-.6.7s-4.4-1.9-6.9-9.1l.9.1zm-7.9 8.3c-1.7-3.3-4.6-11.4-4.6-11.4l1 .6s4.6 15.2 9.3 15.6c0 0-2.1 0-3.8-1.7-1.6-1.7-1.9-3.1-1.9-3.1z" class="M"/><circle fill="#ff882a" cx="73.4" cy="169.6" r="6.2"/><g fill="#fff"><path d="M68.5 168.6c-.1 0-.2-.1-.3-.2s-.1-.2-.2-.4v-.4c.1-.1.1-.2.2-.3s.2-.1.4-.2h.4c.1 0 .2.1.3.2s.1.2.2.4v.4c-.1.1-.1.2-.2.3s-.2.1-.4.2-.3.1-.4 0zm.6-.5c.1-.1.1-.2.1-.3s-.1-.2-.2-.3-.2-.1-.3-.1-.2.1-.3.2-.1.2-.1.3.1.2.2.3.2.1.3.1c.2 0 .2-.1.3-.2zm2.1-1.2c.1.1.2.2.3.5l.1.9-.4.1-.1-.8c0-.1-.1-.2-.1-.3-.1 0-.1-.1-.2-.1s-.2.1-.2.1c-.1.1-.1.2 0 .3l.1.7-.4.1-.2-1.5.4-.1v.2c0-.1.1-.1.2-.2.1 0 .2-.1.3-.1-.1 0 .1.1.2.2z"/><path d="M73.4 167.2l-1.1.2c0 .1.1.2.2.2s.2.1.3 0c.1 0 .1 0 .2-.1.1 0 .1-.1.1-.1l.3.2c-.1.2-.3.3-.6.3h-.5c-.1 0-.3-.1-.3-.2-.1-.1-.1-.2-.2-.4v-.4c0-.1.1-.2.2-.3s.2-.1.4-.2h.4c.1 0 .2.1.3.2s.1.2.2.4c.1.1.1.2.1.2zm-1.1-.3c-.1.1-.1.1-.1.2l.7-.1c0-.1-.1-.2-.2-.2s-.2-.1-.3 0c.1 0 0 .1-.1.1zm-2.8 4.1l-.1.1c-.1 0-.1 0-.2.1-.2 0-.3 0-.4-.1s-.2-.2-.2-.4l-.1-.6h-.2l-.1-.3h.2l-.1-.4.4-.1.1.4.4-.1.1.3-.4.1.1.6c0 .1 0 .1.1.1h.1c.1 0 .1 0 .2-.1l.1.4z"/><path d="M72 169.1l-.3 1.6-.4.1-.5-.9-.2 1-.4.1-.8-1.4.4-.1.5.9.2-1.1.4-.1.5.9.2-1.1.4.1zm.7 1.4c-.1 0-.2-.1-.3-.2s-.1-.2-.2-.4v-.4c.1-.1.1-.2.2-.3s.2-.1.4-.2h.4c.1 0 .2.1.3.2s.1.2.2.4v.4c-.1.1-.1.2-.2.3s-.2.1-.4.2h-.4zm.7-.5c.1-.1.1-.2.1-.3s-.1-.2-.2-.3-.2-.1-.3-.1-.2.1-.3.2-.1.2-.1.3.1.2.2.3.2.1.3.1c.1-.1.2-.1.3-.2zm-4.1 3.4c-.1 0-.3-.1-.3-.2-.1-.1-.1-.2-.2-.4v-.4c.1-.1.1-.2.3-.3.1-.1.3-.1.4-.2h.4c.1 0 .2.1.3.2l-.3.2c-.1-.1-.2-.2-.4-.1-.1 0-.2.1-.3.2s-.1.2-.1.3.1.2.2.3.2.1.3.1.2-.1.3-.3l.4.1c0 .1-.1.2-.2.3s-.2.1-.4.2h-.4zm2.5-1.7c.1.1.2.2.3.5l.1.8-.4.1v-.2c-.1.2-.2.2-.4.3h-.3c-.1 0-.2-.1-.2-.1-.1-.1-.1-.1-.1-.2s0-.3.1-.4.2-.2.5-.2l.3-.1c0-.1-.1-.2-.1-.2-.1 0-.2-.1-.3 0-.1 0-.2 0-.2.1-.1 0-.1.1-.2.1l-.2-.3c.1-.1.2-.1.3-.2s.2-.1.3-.1.3 0 .5.1zm-.2 1.1c.1 0 .1-.1.1-.2v-.2h-.3c-.2 0-.3.1-.2.2 0 .1 0 .1.1.1h.2c0 .1 0 .1.1.1zm1.6-1.5c.1-.1.2-.1.3-.1l.1.4h-.1c-.1 0-.2.1-.3.2s-.1.2-.1.3l.1.7-.4.1-.2-1.5.4-.1v.2l.2-.2zm2.4.5l-1.1.2c0 .1.1.2.2.2s.2.1.3 0c.1 0 .1 0 .2-.1.1 0 .1-.1.1-.1l.3.2c-.1.2-.3.3-.6.3h-.5c-.1 0-.3-.1-.3-.2-.1-.1-.1-.2-.2-.4v-.4c0-.1.1-.2.2-.3s.2-.1.4-.2h.4c.1 0 .2.1.3.2s.1.2.2.4c.1.1.1.1.1.2zm-1.1-.3c-.1.1-.1.1-.1.2l.7-.1c0-.1-.1-.2-.2-.2s-.2-.1-.3 0l-.1.1z"/><path d="M77.6 171.4l-1.1.2c0 .1.1.2.2.2s.2.1.3 0c.1 0 .1 0 .2-.1.1 0 .1-.1.1-.1l.3.2c-.1.2-.3.3-.6.3h-.5c-.1 0-.3-.1-.3-.2-.1-.1-.1-.2-.2-.4v-.4c0-.1.1-.2.2-.3s.2-.1.4-.2h.4c.1 0 .2.1.3.2s.1.2.2.4c.1.1.1.2.1.2zm-1.1-.3c-.1.1-.1.1-.1.2l.7-.1c0-.1-.1-.2-.2-.2s-.2-.1-.3 0c0 0 0 .1-.1.1zm2.1-.7c.1-.1.2-.1.3-.1l.1.4h-.1c-.1 0-.2.1-.3.2s-.1.2-.1.3l.1.7-.4.1-.2-1.5.4-.1v.2l.2-.2z"/></g><path fill="#489196" d="M102.2 139.8s-5.4-28 16.9-37.7l-8.3-4.6-15.9 31.1 7.3 11.2z"/><path d="M98.6 142.5l-5.3-10.8s-2.1-22.6 17.3-34.2c0 0 2.4-.1 8.7 3.2.7.3.5 1.3-.2 1.5-5.5 1.3-17.2 6.4-20.5 40.3z" class="E"/><path d="M94 128.3l-.9-1s0-19.9 17.3-30l1.1.1c.1 0-16.7 10.2-17.5 30.9zm5.4 8s3.3-30.6 19.7-34.2c.8-.2.9-1.2.2-1.6h0s-16.1 1.8-20.6 34.7l.7 1.1z" class="M"/><path d="M133.9 231.1s4.5 7.2 2.5 16.2c-1.4 6.2-6.8 11.5-2.3 12.7s13-5.2 13.3-19.1c.3-13.8-5.9-14.8-5.9-14.8l-7.6 5z" class="F"/><g class="H"><path d="M133.2 169.1c-1.8-19.8-3-61.8-11.9-65-6.4-2.3-13.3 25.5-13.3 25.5.7 5.3-1 32.3 3.9 49.6 2.4 8.3 4.7 18 13.4 16.8 7.7-1.1 8.9-16.2 7.9-26.9z"/><path d="M114.5 186.3l18.2 44.6c.6 1.4 1.9 2.3 3.4 2.3 2 0 5.6-.4 8.1-2.1 1.2-.9 1.8-2.4 1.5-3.9L133.3 172s-12.6-14.5-18.8 14.3z"/></g><path d="M115.5 182.3c-1.3-5.8-6.4-40.6-7.2-47.5.1 10-.3 30.5 3.7 44.5 1.3 4.6 2.6 9.7 5 13l15.8 38.7c.6 1.4 1.9 2.3 3.4 2.3h1.2c-4.9-13.3-20.3-44-21.9-51z" class="P"/><path d="M108.3 132.9s4.3-31.2 14.3-28.9c0-.1-12.3-7.7-14.3 28.9z" class="L"/><path fill="#2c595c" d="M134.2 231.6s7 1.4 10.4-3.3c0-.1-4 3.1-10.4 3.3z"/><path fill="#d7684b" d="M92.1 461.7s.4 2.1 1.6 4.6c0 0 43.7 5.4 45.6-1.2l.1-2.7s.5-3.7-11.7-5.8c-1.4-.2-2.7-.6-4.1-1.1-3.1-1.1-8.3-3-10.2-4.4-.3-.2-.7-.2-.9.1-1 1.4-4 4.6-9.7 4.5-3.7-.1-5.5-1.9-6.4-3.7-.5-1.1-2.1-1.1-2.7 0-1.1 2.7-2.5 6.5-1.6 9.7z"/><path d="M139.5 462.4l-.1 2.7c-1.5 6.2-45.5 3.4-46.6 2-1.4-2.9-.7-5.4-.7-5.4 1.5 1.4 2.7 2.4 24.4 2.5 3.2 0 6.8-.4 10.9-.4 0 0 12.5-.7 10.3-3.8 1.9 1.3 1.8 2.4 1.8 2.4z" class="K"/><path d="M129.3 456.9l-1.5-.3c-1.4-.2-2.7-.6-4.1-1.1-3.1-1.1-8.3-3-10.2-4.4-.1-.1-.1-.1-.2-.1l-.3 2.3s11.9 3.9 13.9 4.1c2.1.2 2.4-.5 2.4-.5z" class="G"/><path fill="#c9c8c8" d="M137.8 460c1.3 1.9-2.6 2.9-6 3.4h0l.4.5s1.1 1.2.3 4.2c3.8-.5 6.5-1.5 6.9-2.9l.1-2.7c0-.1.1-1.2-1.7-2.5z"/><path fill="#595651" d="M118.4 468.7l3.1-2.6c1.1-.9 2.6-1.5 4.6-1.7 9.9-1 11.9-2.4 12.1-3.3.2-.5-.2-.9-.4-1.1l-.1-.1.1-.1.3.2.4.4c0 .1.1.1.1.1v.5c-.5 1.5-4.7 2.7-12.3 3.4-2 .2-3.4.7-4.5 1.6l-2.7 2.3-.1.1-.6.3z"/><g class="C Q"><g stroke="#595651"><circle transform="matrix(.9972 -.074436 .074436 .9972 -33.5181 9.8968)" cx="116" cy="454.6" r=".6"/><circle transform="matrix(.9972 -.074436 .074436 .9972 -33.6341 10.219)" cx="120.3" cy="456.3" r=".6"/><circle transform="matrix(.9972 -.074436 .074436 .9972 -33.7161 10.5454)" cx="124.6" cy="457.6" r=".6"/></g><path d="M116 454.6s.5-2.1 1.4-1.9m4.3 2c-1.3.1-1.4 1.6-1.4 1.6s-.3-2-2.6-3.1m4.9 1.9s1.4.4 2 2.5c0 0 .4-1.3 1.1-1.5" class="B D I J"/></g><path d="M114.1 451.4c-.4 1.1-3 6.6-11.3 6.4-6.9-.1-9-3.7-9.4-4.7.2-.4.4-.8.5-1.1.5-1.1 2.2-1.1 2.7 0 .8 1.8 2.6 3.6 6.4 3.7 5.7.1 8.7-3.1 9.7-4.5.2-.3.6-.3.9-.1.1.1.3.2.5.3z" class="K"/><path d="M117.4 464.1h-.3s3.5-3.1 6.6-4c4.5-1.3 5.5-3.3 5.5-3.3l.2.1c0 .1-1.1 2.1-5.7 3.5-3.1.8-6.3 3.7-6.3 3.7zm-19.1-.5h-.2c-.1-4.5-5.1-9.2-5.2-9.2l.1-.2s5.1 4.8 5.3 9.4z" class="G"/><path d="M114.8 452.1s-8.7 2.4-6.1 4.8c2.5 2.3 6.1-4.8 6.1-4.8z" class="B C D I Q"/></svg>