<?xml version="1.0" encoding="utf-8"?>
<!-- Generator: Adobe Illustrator 22.1.0, SVG Export Plug-In . SVG Version: 6.00 Build 0)  -->
<svg version="1.0" id="Layer_1" xmlns="http://www.w3.org/2000/svg" xmlns:xlink="http://www.w3.org/1999/xlink" x="0px" y="0px"
	 viewBox="0 0 206 478.1" enable-background="new 0 0 206 478.1" xml:space="preserve">
<path fill="#B8878E" d="M258.8,925.9"/>
<g>
	<polygon fill="#875D46" points="77,445 77.6,433.5 90,432.2 91.1,448.5 82.8,453 	"/>
	<path fill="#654635" d="M133.4,243.1c-2.1,4.1,1.7,7.4,4.1,3.2c2.4-4.2,1.9-15.3,1.9-15.3l-4.1,1.3
		C135.3,232.3,135.5,239.1,133.4,243.1"/>
	<path fill="#383530" d="M100.8,427.8c0,0,0,0.1,0,0.1C100.8,427.9,100.8,427.9,100.8,427.8C100.8,427.9,100.8,427.8,100.8,427.8z"
		/>
	<line fill="#363847" x1="117.4" y1="314.5" x2="84.7" y2="314.6"/>
	<path fill="#875D46" d="M125.7,203.5c0,0,7.7,3.5,11,12.1c2.3,5.9,0.7,13.3,5.1,11.8s7.9-11.5,0.5-23.3
		c-7.4-11.7-13.2-9.1-13.2-9.1L125.7,203.5z"/>
	<path fill="#4E9DA3" d="M117.7,152.2c-12.5-15.5-36.7-49.8-45.9-47.6c-6.6,1.6,3.1,28.6,3.1,28.6c3.5,4,17,27.5,30.7,39.2
		c6.6,5.6,13.8,12.4,20.5,6.6C131.9,173.8,124.5,160.6,117.7,152.2z"/>
	<path fill="#4E9DA3" d="M84.9,176.9l39.8,27.1c1.3,0.8,2.9,0.9,4.1,0.1c1.7-1.1,4.5-3.4,5.5-6.3c0.5-1.4,0.1-3-0.9-4.1l-40.8-39.2
		C92.6,154.6,74.1,149.4,84.9,176.9z"/>
	<path fill="#43888C" d="M88.1,182.4c-2.8-5.3-16.6-37.6-19.2-44.1c2.7,9.7,7.6,29.5,15,42.1c2.5,4.1,5,8.7,8.2,11.3l25.2,33.3
		c0.9,1.2,2.4,1.7,3.9,1.4c0.4-0.1,0.8-0.2,1.2-0.3C114.2,214.4,91.4,188.7,88.1,182.4z"/>
	<path fill="#7B6A1C" d="M119.5,101c0,0,0,2.5-0.3,4.5s-4.6-3.7-4.6-3.7L119.5,101z"/>
	<path opacity="0.32" fill="#232121" d="M67.9,222.3c0,0,39.3,11.9,61.9-1.8c18-10.9-61.9-4.5-61.9-4.5V222.3z"/>
	<path fill="#875D46" d="M87.2,83.9c2.5,3.1,1.3,9.1-1.6,12.3c5.6,2.2,13.5,3.1,19,0.7c-2.1-2.6-1.4-7.4-1.1-8.9
		c12.1-0.3,18.3,1.1,18-9.4c-0.1-5.1-0.5-9.8-1.2-14.9c-0.6-4.7-1.3-10.9-3.6-15.1c-3.7-6.8-16.8-7-22.8-4.3
		c-6.9,3-11.9,9.8-13,17.3S82.5,76.2,87.2,83.9z"/>
	<g>
		<path fill="#654635" d="M76.2,444.6c0,0,3.4,6.7,13.7,1.8l0.6,4.1c0,0-6.2,2.2-6.7,2.4c-0.4,0.1-5.9-0.1-5.9-0.1l-2.3-4
			L76.2,444.6z"/>
		<path fill="#D7684B" d="M72.8,453.4c0,0,0,1,1.4,3.5c0,0,39.4,3.5,39.4-1.9l-0.5-2.1c0,0-0.3-2.8-9.3-4.4
			c-1.1-0.2-2.1-0.5-3.2-0.8c-2.5-0.8-6.9-2.4-8.6-3.5c-0.2-0.2-0.6-0.1-0.7,0.1c-0.7,1.1-2.9,3.7-8.1,3.6c-3.5-0.1-5.3-1.7-6.2-3.2
			c-0.5-0.9-2.1-1-2.6-0.1C73.1,446.9,71.7,450.3,72.8,453.4z"/>
		<path fill="#A14730" d="M106,448.9c-0.4-0.1-3.4-0.7-4.5-1c-2.6-0.8-7.1-2.3-8.9-3.4c-0.1,0-0.1-0.1-0.2-0.1l-0.8,1.5
			c0,0,11.1,3.4,12.7,3.5C105.9,449.5,105.9,449.1,106,448.9z"/>
		<path fill="none" stroke="#595651" stroke-width="0.6559" stroke-miterlimit="10" d="M95,447c0,0.3-0.2,0.5-0.5,0.5
			c-0.3,0-0.5-0.2-0.6-0.5c0-0.3,0.2-0.5,0.5-0.5C94.7,446.5,94.9,446.7,95,447z"/>
		<path fill="none" stroke="#595651" stroke-width="0.6559" stroke-miterlimit="10" d="M98.6,448.3c0,0.3-0.2,0.5-0.4,0.5
			c-0.3,0-0.5-0.2-0.6-0.5c0-0.3,0.2-0.5,0.4-0.5C98.3,447.9,98.5,448.1,98.6,448.3z"/>
		<path fill="none" stroke="#595651" stroke-width="0.6559" stroke-miterlimit="10" d="M102.1,449.3c0,0.3-0.1,0.5-0.4,0.5
			c-0.3,0-0.5-0.2-0.6-0.5c0-0.3,0.1-0.5,0.4-0.5C101.8,448.8,102.1,449.1,102.1,449.3z"/>
		
			<path fill="none" stroke="#312A20" stroke-width="0.6559" stroke-linecap="round" stroke-linejoin="round" stroke-miterlimit="10" d="
			M94.4,447c0,0,0.2-1.7,0.9-1.5"/>
		
			<path fill="none" stroke="#312A20" stroke-width="0.6559" stroke-linecap="round" stroke-linejoin="round" stroke-miterlimit="10" d="
			M99,447c-1,0.1-0.9,1.3-0.9,1.3s-0.5-1.6-2.5-2.5"/>
		
			<path fill="none" stroke="#312A20" stroke-width="0.6559" stroke-linecap="round" stroke-linejoin="round" stroke-miterlimit="10" d="
			M99.7,447.4c0,0,1.2,0.3,1.9,1.9c0,0,0.1-1,0.6-1.2"/>
		<path fill="#A14730" d="M97.2,454.5l-0.3,0c0,0,2.6-2.3,5-3c3.3-0.9,4-2.6,4-2.6l0.1,0c0,0.1-0.6,1.8-4,2.7
			C99.7,452.4,97.3,454.4,97.2,454.5z"/>
		<path fill="#E2E2E2" d="M92.5,444.4c-0.2,0.9-1.8,5.3-9.3,5.3c-6.7,0-8.9-3.2-9.4-4.1c0.2-0.3,0.3-0.7,0.5-1
			c0.5-0.9,2.1-0.9,2.6,0.1c0.9,1.5,2.7,3.1,6.2,3.2c5.2,0.1,7.4-2.5,8.1-3.6c0.1-0.2,0.5-0.3,0.7-0.1
			C92.2,444.2,92.3,444.3,92.5,444.4z"/>
		<g>
			<path fill="#A14730" d="M78.5,454.6l-0.2,0c0-4.3-4.8-8-4.8-8.1l0.1-0.2C73.5,446.3,78.5,450.2,78.5,454.6z"/>
		</g>
		
			<path fill="none" stroke="#312A20" stroke-width="0.5405" stroke-linecap="round" stroke-linejoin="round" stroke-miterlimit="10" d="
			M92.5,444.5c0,0-4.2,4-1.7,4.6C93.3,449.6,92.5,444.5,92.5,444.5z"/>
		<path fill="#E2E2E2" d="M113.1,452.9l0.5,2.1c-0.1,5.5-37.4,4.9-41,2.5c-1.1-2.3,0.2-4.1,0.2-4.1s7.2,3.3,31.3,1
			c0,0,9.5-1,7.5-3.4C113,452,113.1,452.9,113.1,452.9z"/>
		<path fill="#C9C8C8" d="M111.5,451c1.3,1.3-1.4,2.4-4,2.8l0,0l0.4,0.4c0,0,1.1,0.9,1.1,3.4c3.5-0.9,4.6-1.6,4.6-2.8l-0.5-2.1
			C113.1,452.7,113.1,452,111.5,451z"/>
		<g>
			<path fill="#595651" d="M98.2,458.8l2.2-2.4c0.8-0.8,1.9-1.4,3.4-1.6c7.2-1,8.2-2.3,8.3-2.9c0-0.4-0.3-0.7-0.5-0.8l-0.1,0l0-0.1
				l0.2,0.2c0.1,0.1,0.2,0.2,0.3,0.3c0,0,0.1,0.1,0.1,0.1c0.1,0.1,0.1,0.3,0.1,0.4c-0.1,1.2-2.8,2.2-8.4,3c-1.5,0.2-2.6,0.7-3.3,1.5
				l-1.9,2.1l-0.1,0.1L98.2,458.8z"/>
		</g>
		<path fill="#706F6D" d="M86.2,443.3"/>
	</g>
	<polygon fill="#875D46" points="96.3,453.4 97.2,441.9 110.6,441 111.5,457.2 102.4,461.6 	"/>
	<path fill="#363847" d="M98.1,243l-5.7,197.2c0,0.7-0.4,1.3-1.1,1.5c-3.7,1.4-10.3,1.9-14.4-0.2c-0.5-0.3-0.8-0.8-0.9-1.3L63.4,245
		L98.1,243z"/>
	<path fill="#262833" d="M90.8,243.4L63.4,243l12.7,197.2c0.1,0.6,0.4,1,0.9,1.3c0.5,0.3,3.2,1.4,7.2,1.4L90.8,243.4z"/>
	
		<line fill="none" stroke="#434659" stroke-width="0.8942" stroke-linecap="round" stroke-linejoin="round" stroke-miterlimit="10" stroke-dasharray="2.2354" x1="90.8" y1="269.4" x2="84.1" y2="442.1"/>
	<path fill="#363847" d="M85.3,247.5l10.1,199.6c0,0.9,0.4,1.7,1.2,2c3.1,1.6,10.8,2.4,14.2,1c0.7-0.3,1.2-0.9,1.3-1.7L128,231.6
		L85.3,247.5z"/>
	<path fill="#262833" d="M85.3,246.1l9.8,195.4l0.2,5.6c0,0.9,0.4,1.7,1.2,2c0.5,0.2,4.2,1.6,7.3,1.6l4.5-207.7L85.3,246.1z"/>
	
		<line fill="none" stroke="#434659" stroke-width="0.8942" stroke-linecap="round" stroke-linejoin="round" stroke-miterlimit="10" stroke-dasharray="2.2354" x1="108.3" y1="243" x2="103.8" y2="450.7"/>
	<path fill="#3B767A" d="M128.6,229.6v7.4c0,0-38.4,24.5-65.3,13.2l-1.1-6.8L128.6,229.6z"/>
	<polygon fill="#2C595C" points="123.7,234.9 123.7,239.8 128.6,237 128.6,231.3 	"/>
	<path fill="#654635" d="M96,70.2c0,0-3.6-1.3-3.3-5.6c0.3-4.8,4-4.5,4-4.5s-3.3-0.1-3.6,4.6C92.9,68.6,96,70.2,96,70.2z"/>
	<path fill="#654635" d="M120.2,85.1c-4.4,4.1-18.2,0-18.2,0l1.1,2.9C108.2,88.5,118.2,88.8,120.2,85.1z"/>
	<path fill="#4E9DA3" d="M122.6,103.9c0,0-15.7-7.6-18.2-8.5c-15.8,4.7-17.4-1.4-18.1-1.1c0,0,0,0,0,0s-14.3,6-21.1,19.8
		c-10.5,21.2-7,129.9-2.5,132.2c23,11.6,66.6-11.5,66.6-14.7c0.1-16.1,1.5-79.4-2.1-115.6C126.2,106.1,122.8,104.4,122.6,103.9z"/>
	<path fill="#43888C" d="M83.9,118.1c0,0,15.9,5.1,26,32.9c7.9,21.6,14.9,49.1,12.8,55.9c-4,12.9-51,17.5-59.8,11.5
		c-4.5-3.1-12.9-60.3-3.9-84.9C67.6,109.9,83.9,118.1,83.9,118.1z"/>
	<path fill="#DBBC32" d="M119.3,206.2c0,0,12.3-14.4,15-31.2c0.2-1.5,0.2-3,0-4.5l-1.3-6.6c-1,6.9-0.6,19.1-18.9,33.7
		C113.7,198,119.3,206.2,119.3,206.2z"/>
	<path fill="#3B767A" d="M69.6,119.9c0,0-8.6-8,5.5-9.6s4.7,10.4,4.7,10.4s5.6-10.9-5.3-8.6S69.6,119.9,69.6,119.9z"/>
	<path fill="#DBBC32" d="M69.6,119.9c0,0-9-9.9,5.2-11.4s4.7,10.4,4.7,10.4s5.6-10.9-5.3-8.6S69.6,119.9,69.6,119.9z"/>
	<path fill="#4E9DA3" d="M78.2,218.9c0,0,2.7,8,2.5,10c-0.2,2-6.5,6.8-11.2,5.6c-4.6-1.2-6.2-18.4-6.2-18.4L78.2,218.9z"/>
	<path fill="#836B0B" d="M78.2,229.7c0,0,1.7-0.5-9-23.5l-4,0.2l3,24.4c0,0,4.2,0.7,4.6,0.7C73.2,231.5,78.2,229.7,78.2,229.7z"/>
	<path fill="#DBBC32" d="M56.5,209.9c0,0,3.1,11.6,7.7,21c1.6,3.1,5.3,4.5,8.5,3.1c2-0.9,4-2.2,5.5-4.2c0,0-5.1-0.4-12.2-22.7
		L56.5,209.9z"/>
	<path fill="#A48D26" d="M61.1,132.1c0,0-7-1.6-1.7-7.3c5.3-5.8,5.1-6.3,8.8-4.6L61.1,132.1z"/>
	<path fill="#FFDF57" d="M53.7,210.4c-15.6-87,17.2-95.6,22.4-94.4c6.9-0.9,31.1,12.2,45.3,86.7c0.7,3.4-1.1,6.9-4.2,8.4
		c-5.2,2.5-14.8,6.1-30.5,8.9C59,225.1,54.6,215,53.7,210.4z"/>
	<path fill="#FFE579" d="M56.9,150.8c0,0,13.8,0.1,28.4-5c0,0,2.9,6,3,9.2c0,0-23.1,7.5-29.8,4L56.9,150.8z"/>
	<path fill="#FFE579" d="M58.1,186.5c0,0,26-8.9,38.9-5.4c0,0,1.5,15.4,5.8,23.2c0,0-11.6,7.8-24.7,8.5c-13.1,0.7-15.7-2.5-15.7-2.5
		S57.1,199.7,58.1,186.5z"/>
	<path fill="#DBBC32" d="M58.5,180.4c0.5-0.4,17.1,2.2,36.3-5.1c0,0,3-0.3,4.2,6.5c0,0-20.6,9.3-43.3,5.4
		C55.7,187.1,54.8,183.2,58.5,180.4z"/>
	<path fill="#A48D26" d="M133,163.9c0,0-0.8,17.2-13.5,29.1v1.6C119.4,194.6,133.4,182.4,133,163.9z"/>
	<path fill="#A48D26" d="M134.5,173.9c0,0-2,15.7-14.7,29.9l1.7-0.1C121.5,203.7,133.5,188.1,134.5,173.9z"/>
	<path fill="#DBBC32" d="M63.6,209.9c0,0-4.9-4.9-5.6-18.6c0,0-1.3,10.5,4,20.4c0,0,19.5,9.2,40.9-7.5
		C102.8,204.3,78.4,217.4,63.6,209.9z"/>
	<path fill="#DBBC32" d="M56.8,150.3c0,0-0.9,7.4,1.8,9.8c0,0,10.6,2,29.8-4.2c0,0,0.3-5.6-3.1-10c0,0,1.9,7.4,0.9,8.4
		c0,0-13.4,6-26.8,4.3C59.4,158.6,57.5,156.3,56.8,150.3z"/>
	<path fill="#DBBC32" d="M103.3,216.2c4.4-1.4,11.5-3.9,13.9-5.1c3.1-1.5,4.9-4.9,4.2-8.4C107.2,128.2,83,115.1,76.2,116
		c-2.9-0.6-14.1,1.7-21,18.5l0,0c0,0,4.1-8.9,13.9-10.7c13.4-2.4,20.4,8,27.4,26.4c7,18.2,14.1,44.9,15.4,52.9
		C113,210.3,107.1,215,103.3,216.2z"/>
	<path fill="#3B767A" d="M85.6,95.8c0,0,2.3,5.4,19.5,1.3C105,97.1,87.9,102.8,85.6,95.8z"/>
	<path fill="#41465F" d="M86.4,85.2c-1.4-4.4-7-17.2-10.1-28.1c-1.9-6.8,1-14.1,7.2-17.6c11.2-6.4,25.6-14.5,33.2-13.2
		c11.3,2,7,17.1-2,23.9c-6.6,5-10.3,0.6-12.2,4.3c-1.4,2.6,4.3,3.5,1.9,7.3c-2.7,4.1-2.9-3.5-7.4-3.5s-7.1,7.1-3.8,11
		c2,2.3,3.4,3.6,5.6,5.8c1.6,1.6,1.8,4.2,0.3,6c-1.7,2.1-4.9,4.4-10.4,5.4C87.7,86.6,86.7,86.1,86.4,85.2z"/>
	<path fill="#676B7F" d="M116.7,26.4c-2.1-0.4-4.7,0-7.7,0.8c0,0,18.9-1.7,7.6,21.4l0,0C124.3,41.3,127.2,28.2,116.7,26.4z"/>
	<path fill="#A48D26" d="M71.6,221.4c0,0,3.7,7.6,6.6,8.3c0,0-0.4,0.5-0.6,0.7c0,0-4.4-1.9-6.9-9.1L71.6,221.4z"/>
	<path fill="#A48D26" d="M63.7,229.7c-1.7-3.3-4.6-11.4-4.6-11.4l1,0.6c0,0,4.6,15.2,9.3,15.6c0,0-2.1,0-3.8-1.7
		C64,231.1,63.7,229.7,63.7,229.7z"/>
	<g>
		<circle fill="#FF882A" cx="73.4" cy="169.6" r="6.2"/>
		<path fill="#FFFFFF" d="M68.5,168.6c-0.1,0-0.2-0.1-0.3-0.2c-0.1-0.1-0.1-0.2-0.2-0.4c0-0.1,0-0.3,0-0.4c0.1-0.1,0.1-0.2,0.2-0.3
			c0.1-0.1,0.2-0.1,0.4-0.2c0.2,0,0.3,0,0.4,0c0.1,0,0.2,0.1,0.3,0.2c0.1,0.1,0.1,0.2,0.2,0.4c0,0.1,0,0.3,0,0.4
			c-0.1,0.1-0.1,0.2-0.2,0.3c-0.1,0.1-0.2,0.1-0.4,0.2C68.7,168.7,68.6,168.7,68.5,168.6z M69.1,168.1c0.1-0.1,0.1-0.2,0.1-0.3
			c0-0.1-0.1-0.2-0.2-0.3c-0.1-0.1-0.2-0.1-0.3-0.1c-0.1,0-0.2,0.1-0.3,0.2c-0.1,0.1-0.1,0.2-0.1,0.3c0,0.1,0.1,0.2,0.2,0.3
			c0.1,0.1,0.2,0.1,0.3,0.1C69,168.3,69,168.2,69.1,168.1z"/>
		<path fill="#FFFFFF" d="M71.2,166.9c0.1,0.1,0.2,0.2,0.3,0.5l0.1,0.9l-0.4,0.1l-0.1-0.8c0-0.1-0.1-0.2-0.1-0.3
			c-0.1,0-0.1-0.1-0.2-0.1c-0.1,0-0.2,0.1-0.2,0.1c-0.1,0.1-0.1,0.2,0,0.3l0.1,0.7l-0.4,0.1l-0.2-1.5l0.4-0.1l0,0.2
			c0-0.1,0.1-0.1,0.2-0.2c0.1,0,0.2-0.1,0.3-0.1C70.9,166.7,71.1,166.8,71.2,166.9z"/>
		<path fill="#FFFFFF" d="M73.4,167.2l-1.1,0.2c0,0.1,0.1,0.2,0.2,0.2c0.1,0,0.2,0.1,0.3,0c0.1,0,0.1,0,0.2-0.1
			c0.1,0,0.1-0.1,0.1-0.1l0.3,0.2c-0.1,0.2-0.3,0.3-0.6,0.3c-0.2,0-0.3,0-0.5,0c-0.1,0-0.3-0.1-0.3-0.2c-0.1-0.1-0.1-0.2-0.2-0.4
			c0-0.1,0-0.3,0-0.4c0-0.1,0.1-0.2,0.2-0.3c0.1-0.1,0.2-0.1,0.4-0.2c0.1,0,0.3,0,0.4,0c0.1,0,0.2,0.1,0.3,0.2
			c0.1,0.1,0.1,0.2,0.2,0.4C73.4,167.1,73.4,167.2,73.4,167.2z M72.3,166.9c-0.1,0.1-0.1,0.1-0.1,0.2l0.7-0.1c0-0.1-0.1-0.2-0.2-0.2
			c-0.1,0-0.2-0.1-0.3,0C72.5,166.8,72.4,166.9,72.3,166.9z"/>
		<path fill="#FFFFFF" d="M69.5,171c0,0-0.1,0.1-0.1,0.1c-0.1,0-0.1,0-0.2,0.1c-0.2,0-0.3,0-0.4-0.1c-0.1-0.1-0.2-0.2-0.2-0.4
			l-0.1-0.6l-0.2,0l-0.1-0.3l0.2,0l-0.1-0.4l0.4-0.1l0.1,0.4l0.4-0.1l0.1,0.3l-0.4,0.1l0.1,0.6c0,0.1,0,0.1,0.1,0.1c0,0,0.1,0,0.1,0
			c0.1,0,0.1,0,0.2-0.1L69.5,171z"/>
		<path fill="#FFFFFF" d="M72,169.1l-0.3,1.6l-0.4,0.1l-0.5-0.9l-0.2,1l-0.4,0.1l-0.8-1.4l0.4-0.1l0.5,0.9l0.2-1.1l0.4-0.1l0.5,0.9
			l0.2-1.1L72,169.1z"/>
		<path fill="#FFFFFF" d="M72.7,170.5c-0.1,0-0.2-0.1-0.3-0.2c-0.1-0.1-0.1-0.2-0.2-0.4c0-0.1,0-0.3,0-0.4c0.1-0.1,0.1-0.2,0.2-0.3
			c0.1-0.1,0.2-0.1,0.4-0.2c0.2,0,0.3,0,0.4,0c0.1,0,0.2,0.1,0.3,0.2c0.1,0.1,0.1,0.2,0.2,0.4c0,0.1,0,0.3,0,0.4
			c-0.1,0.1-0.1,0.2-0.2,0.3c-0.1,0.1-0.2,0.1-0.4,0.2C73,170.5,72.9,170.5,72.7,170.5z M73.4,170c0.1-0.1,0.1-0.2,0.1-0.3
			c0-0.1-0.1-0.2-0.2-0.3c-0.1-0.1-0.2-0.1-0.3-0.1c-0.1,0-0.2,0.1-0.3,0.2c-0.1,0.1-0.1,0.2-0.1,0.3c0,0.1,0.1,0.2,0.2,0.3
			c0.1,0.1,0.2,0.1,0.3,0.1C73.2,170.1,73.3,170.1,73.4,170z"/>
		<path fill="#FFFFFF" d="M69.3,173.4c-0.1,0-0.3-0.1-0.3-0.2c-0.1-0.1-0.1-0.2-0.2-0.4c0-0.1,0-0.3,0-0.4c0.1-0.1,0.1-0.2,0.3-0.3
			c0.1-0.1,0.3-0.1,0.4-0.2c0.2,0,0.3,0,0.4,0c0.1,0,0.2,0.1,0.3,0.2l-0.3,0.2c-0.1-0.1-0.2-0.2-0.4-0.1c-0.1,0-0.2,0.1-0.3,0.2
			c-0.1,0.1-0.1,0.2-0.1,0.3c0,0.1,0.1,0.2,0.2,0.3c0.1,0.1,0.2,0.1,0.3,0.1c0.1,0,0.2-0.1,0.3-0.3l0.4,0.1c0,0.1-0.1,0.2-0.2,0.3
			c-0.1,0.1-0.2,0.1-0.4,0.2C69.5,173.4,69.4,173.4,69.3,173.4z"/>
		<path fill="#FFFFFF" d="M71.8,171.7c0.1,0.1,0.2,0.2,0.3,0.5l0.1,0.8l-0.4,0.1l0-0.2c-0.1,0.2-0.2,0.2-0.4,0.3c-0.1,0-0.2,0-0.3,0
			c-0.1,0-0.2-0.1-0.2-0.1c-0.1-0.1-0.1-0.1-0.1-0.2c0-0.1,0-0.3,0.1-0.4c0.1-0.1,0.2-0.2,0.5-0.2l0.3-0.1c0-0.1-0.1-0.2-0.1-0.2
			c-0.1,0-0.2-0.1-0.3,0c-0.1,0-0.2,0-0.2,0.1c-0.1,0-0.1,0.1-0.2,0.1l-0.2-0.3c0.1-0.1,0.2-0.1,0.3-0.2c0.1-0.1,0.2-0.1,0.3-0.1
			C71.4,171.6,71.6,171.6,71.8,171.7z M71.6,172.8c0.1,0,0.1-0.1,0.1-0.2l0-0.2l-0.3,0c-0.2,0-0.3,0.1-0.2,0.2c0,0.1,0,0.1,0.1,0.1
			c0,0,0.1,0,0.2,0C71.5,172.8,71.5,172.8,71.6,172.8z"/>
		<path fill="#FFFFFF" d="M73.2,171.3c0.1-0.1,0.2-0.1,0.3-0.1l0.1,0.4c0,0-0.1,0-0.1,0c-0.1,0-0.2,0.1-0.3,0.2
			c-0.1,0.1-0.1,0.2-0.1,0.3l0.1,0.7l-0.4,0.1l-0.2-1.5l0.4-0.1l0,0.2C73.1,171.4,73.1,171.4,73.2,171.3z"/>
		<path fill="#FFFFFF" d="M75.6,171.8l-1.1,0.2c0,0.1,0.1,0.2,0.2,0.2c0.1,0,0.2,0.1,0.3,0c0.1,0,0.1,0,0.2-0.1
			c0.1,0,0.1-0.1,0.1-0.1l0.3,0.2c-0.1,0.2-0.3,0.3-0.6,0.3c-0.2,0-0.3,0-0.5,0c-0.1,0-0.3-0.1-0.3-0.2c-0.1-0.1-0.1-0.2-0.2-0.4
			c0-0.1,0-0.3,0-0.4c0-0.1,0.1-0.2,0.2-0.3c0.1-0.1,0.2-0.1,0.4-0.2c0.1,0,0.3,0,0.4,0c0.1,0,0.2,0.1,0.3,0.2
			c0.1,0.1,0.1,0.2,0.2,0.4C75.6,171.7,75.6,171.7,75.6,171.8z M74.5,171.5c-0.1,0.1-0.1,0.1-0.1,0.2l0.7-0.1c0-0.1-0.1-0.2-0.2-0.2
			c-0.1,0-0.2-0.1-0.3,0C74.6,171.4,74.6,171.4,74.5,171.5z"/>
		<path fill="#FFFFFF" d="M77.6,171.4l-1.1,0.2c0,0.1,0.1,0.2,0.2,0.2c0.1,0,0.2,0.1,0.3,0c0.1,0,0.1,0,0.2-0.1
			c0.1,0,0.1-0.1,0.1-0.1l0.3,0.2c-0.1,0.2-0.3,0.3-0.6,0.3c-0.2,0-0.3,0-0.5,0c-0.1,0-0.3-0.1-0.3-0.2c-0.1-0.1-0.1-0.2-0.2-0.4
			c0-0.1,0-0.3,0-0.4c0-0.1,0.1-0.2,0.2-0.3c0.1-0.1,0.2-0.1,0.4-0.2c0.1,0,0.3,0,0.4,0c0.1,0,0.2,0.1,0.3,0.2
			c0.1,0.1,0.1,0.2,0.2,0.4C77.6,171.3,77.6,171.4,77.6,171.4z M76.5,171.1c-0.1,0.1-0.1,0.1-0.1,0.2l0.7-0.1c0-0.1-0.1-0.2-0.2-0.2
			c-0.1,0-0.2-0.1-0.3,0C76.6,171,76.6,171.1,76.5,171.1z"/>
		<path fill="#FFFFFF" d="M78.6,170.4c0.1-0.1,0.2-0.1,0.3-0.1l0.1,0.4c0,0-0.1,0-0.1,0c-0.1,0-0.2,0.1-0.3,0.2
			c-0.1,0.1-0.1,0.2-0.1,0.3l0.1,0.7l-0.4,0.1l-0.2-1.5l0.4-0.1l0,0.2C78.5,170.5,78.5,170.5,78.6,170.4z"/>
	</g>
	<path fill="#489196" d="M102.2,139.8c0,0-5.4-28,16.9-37.7l-8.3-4.6l-15.9,31.1L102.2,139.8z"/>
	<path fill="#DBBC32" d="M98.6,142.5l-5.3-10.8c0,0-2.1-22.6,17.3-34.2c0,0,2.4-0.1,8.7,3.2c0.7,0.3,0.5,1.3-0.2,1.5
		C113.6,103.5,101.9,108.6,98.6,142.5z"/>
	<path fill="#A48D26" d="M94,128.3l-0.9-1c0,0,0-19.9,17.3-30l1.1,0.1C111.6,97.4,94.8,107.6,94,128.3z"/>
	<path fill="#A48D26" d="M99.4,136.3c0,0,3.3-30.6,19.7-34.2c0.8-0.2,0.9-1.2,0.2-1.6l0,0c0,0-16.1,1.8-20.6,34.7L99.4,136.3z"/>
	<path fill="#875D46" d="M133.9,231.1c0,0,4.5,7.2,2.5,16.2c-1.4,6.2-6.8,11.5-2.3,12.7c4.5,1.2,13-5.2,13.3-19.1
		c0.3-13.8-5.9-14.8-5.9-14.8L133.9,231.1z"/>
	<path fill="#4E9DA3" d="M133.2,169.1c-1.8-19.8-3-61.8-11.9-65c-6.4-2.3-13.3,25.5-13.3,25.5c0.7,5.3-1,32.3,3.9,49.6
		c2.4,8.3,4.7,18,13.4,16.8C133,194.9,134.2,179.8,133.2,169.1z"/>
	<path fill="#4E9DA3" d="M114.5,186.3l18.2,44.6c0.6,1.4,1.9,2.3,3.4,2.3c2,0,5.6-0.4,8.1-2.1c1.2-0.9,1.8-2.4,1.5-3.9L133.3,172
		C133.3,172,120.7,157.5,114.5,186.3z"/>
	<path fill="#43888C" d="M115.5,182.3c-1.3-5.8-6.4-40.6-7.2-47.5c0.1,10-0.3,30.5,3.7,44.5c1.3,4.6,2.6,9.7,5,13l15.8,38.7
		c0.6,1.4,1.9,2.3,3.4,2.3c0.4,0,0.8,0,1.2,0C132.5,220,117.1,189.3,115.5,182.3z"/>
	<path fill="#3B767A" d="M108.3,132.9c0,0,4.3-31.2,14.3-28.9C122.6,103.9,110.3,96.3,108.3,132.9z"/>
	<path fill="#2C595C" d="M134.2,231.6c0,0,7,1.4,10.4-3.3C144.6,228.2,140.6,231.4,134.2,231.6z"/>
	<g>
		<path fill="#D7684B" d="M92.1,461.7c0,0,0.4,2.1,1.6,4.6c0,0,43.7,5.4,45.6-1.2l0.1-2.7c0,0,0.5-3.7-11.7-5.8
			c-1.4-0.2-2.7-0.6-4.1-1.1c-3.1-1.1-8.3-3-10.2-4.4c-0.3-0.2-0.7-0.2-0.9,0.1c-1,1.4-4,4.6-9.7,4.5c-3.7-0.1-5.5-1.9-6.4-3.7
			c-0.5-1.1-2.1-1.1-2.7,0C92.6,454.7,91.2,458.5,92.1,461.7z"/>
		<path fill="#E2E2E2" d="M139.5,462.4l-0.1,2.7c-1.5,6.2-45.5,3.4-46.6,2c-1.4-2.9-0.7-5.4-0.7-5.4c1.5,1.4,2.7,2.4,24.4,2.5
			c3.2,0,6.8-0.4,10.9-0.4c0,0,12.5-0.7,10.3-3.8C139.6,461.3,139.5,462.4,139.5,462.4z"/>
		<path fill="#A14730" d="M129.3,456.9c-0.5-0.1-1-0.2-1.5-0.3c-1.4-0.2-2.7-0.6-4.1-1.1c-3.1-1.1-8.3-3-10.2-4.4
			c-0.1-0.1-0.1-0.1-0.2-0.1l-0.3,2.3c0,0,11.9,3.9,13.9,4.1C129,457.6,129.3,456.9,129.3,456.9z"/>
		<path fill="#C9C8C8" d="M137.8,460c1.3,1.9-2.6,2.9-6,3.4l0,0l0.4,0.5c0,0,1.1,1.2,0.3,4.2c3.8-0.5,6.5-1.5,6.9-2.9l0.1-2.7
			C139.5,462.4,139.6,461.3,137.8,460z"/>
		<path fill="#595651" d="M118.4,468.7l3.1-2.6c1.1-0.9,2.6-1.5,4.6-1.7c9.9-1,11.9-2.4,12.1-3.3c0.2-0.5-0.2-0.9-0.4-1.1l-0.1-0.1
			l0.1-0.1l0.3,0.2c0.1,0.1,0.3,0.3,0.4,0.4c0,0.1,0.1,0.1,0.1,0.1c0,0.2,0,0.3,0,0.5c-0.5,1.5-4.7,2.7-12.3,3.4
			c-2,0.2-3.4,0.7-4.5,1.6l-2.7,2.3l-0.1,0.1L118.4,468.7z"/>
		
			<ellipse transform="matrix(0.9972 -7.443553e-02 7.443553e-02 0.9972 -33.5181 9.8968)" fill="none" stroke="#595651" stroke-width="0.6819" stroke-miterlimit="10" cx="116" cy="454.6" rx="0.6" ry="0.6"/>
		
			<ellipse transform="matrix(0.9972 -7.443553e-02 7.443553e-02 0.9972 -33.6341 10.219)" fill="none" stroke="#595651" stroke-width="0.6819" stroke-miterlimit="10" cx="120.3" cy="456.3" rx="0.6" ry="0.6"/>
		
			<ellipse transform="matrix(0.9972 -7.443553e-02 7.443553e-02 0.9972 -33.7161 10.5454)" fill="none" stroke="#595651" stroke-width="0.6819" stroke-miterlimit="10" cx="124.6" cy="457.6" rx="0.6" ry="0.6"/>
		
			<path fill="none" stroke="#312A20" stroke-width="0.6819" stroke-linecap="round" stroke-linejoin="round" stroke-miterlimit="10" d="
			M116,454.6c0,0,0.5-2.1,1.4-1.9"/>
		
			<path fill="none" stroke="#312A20" stroke-width="0.6819" stroke-linecap="round" stroke-linejoin="round" stroke-miterlimit="10" d="
			M121.7,454.7c-1.3,0.1-1.4,1.6-1.4,1.6s-0.3-2-2.6-3.1"/>
		
			<path fill="none" stroke="#312A20" stroke-width="0.6819" stroke-linecap="round" stroke-linejoin="round" stroke-miterlimit="10" d="
			M122.6,455.1c0,0,1.4,0.4,2,2.5c0,0,0.4-1.3,1.1-1.5"/>
		<path fill="#E2E2E2" d="M114.1,451.4c-0.4,1.1-3,6.6-11.3,6.4c-6.9-0.1-9-3.7-9.4-4.7c0.2-0.4,0.4-0.8,0.5-1.1
			c0.5-1.1,2.2-1.1,2.7,0c0.8,1.8,2.6,3.6,6.4,3.7c5.7,0.1,8.7-3.1,9.7-4.5c0.2-0.3,0.6-0.3,0.9-0.1
			C113.7,451.2,113.9,451.3,114.1,451.4z"/>
		<path fill="#A14730" d="M117.4,464.1l-0.3,0c0,0,3.5-3.1,6.6-4c4.5-1.3,5.5-3.3,5.5-3.3l0.2,0.1c0,0.1-1.1,2.1-5.7,3.5
			C120.6,461.2,117.4,464.1,117.4,464.1z"/>
		<path fill="#A14730" d="M98.3,463.6l-0.2,0c-0.1-4.5-5.1-9.2-5.2-9.2l0.1-0.2C93,454.2,98.1,459,98.3,463.6z"/>
		
			<path fill="none" stroke="#312A20" stroke-width="0.6819" stroke-linecap="round" stroke-linejoin="round" stroke-miterlimit="10" d="
			M114.8,452.1c0,0-8.7,2.4-6.1,4.8C111.2,459.2,114.8,452.1,114.8,452.1z"/>
	</g>
</g>
<g>
</g>
<g>
</g>
<g>
</g>
<g>
</g>
<g>
</g>
<g>
</g>
</svg>
