<?xml version="1.0" encoding="utf-8"?>
<!-- Generator: Adobe Illustrator 17.1.0, SVG Export Plug-In . SVG Version: 6.00 Build 0)  -->
<!DOCTYPE svg PUBLIC "-//W3C//DTD SVG 1.1//EN" "http://www.w3.org/Graphics/SVG/1.1/DTD/svg11.dtd">
<svg version="1.1" xmlns="http://www.w3.org/2000/svg" xmlns:xlink="http://www.w3.org/1999/xlink" x="0px" y="0px"
	 viewBox="0 0 267.6 118.6" enable-background="new 0 0 267.6 118.6" xml:space="preserve">
<g id="BG_main">
</g>
<g id="Button_2">
</g>
<g id="Button6">
</g>
<g id="Text_6">
</g>
<g id="BG_3">
</g>
<g id="Button_4">
</g>
<g id="Button_3_1_">
</g>
<g id="Text_4">
</g>
<g id="Text3">
</g>
<g id="Teхt_2">
</g>
<g id="BG_1">
	
		<rect id="BG" x="37.4" y="34.3" fill="none" stroke="#FFFFFF" stroke-width="2.4993" stroke-miterlimit="10" width="195" height="53.9"/>
</g>
<g id="BG_5">
</g>
<g id="Button_1">
	<rect id="Button_5_" x="29.9" y="24.2" fill="#FF882A" width="194.3" height="55"/>
</g>
<g id="Button_5">
</g>
<g id="Text5">
</g>
<g id="BG_9">
</g>
<g id="Button_9">
</g>
<g id="Text_9">
</g>
<g id="BG_10">
</g>
<g id="Button_10">
</g>
<g id="Text_10">
</g>
<g id="Button_8">
</g>
<g id="Text_8">
</g>
<g id="Button_7">
</g>
<g id="Text_7">
</g>
<g id="Text1">
	<g>
		<path fill="#FFFFFF" d="M100.6,56.9c0,3.4-2.2,5.5-5.5,5.5h-5.5V43.2h5.2c3.1,0,5.1,2,5.1,5.2c0,1.9-0.8,3.4-1.9,4.1
			C99.5,53.2,100.6,54.8,100.6,56.9z M92.3,45.8v5.5h2.2c1.7,0,2.5-1,2.5-2.8c0-1.8-0.8-2.7-2.6-2.7H92.3z M97.7,56.9
			c0-2-1.2-3-3.2-3h-2.2v5.8h2.4C96.7,59.8,97.7,58.8,97.7,56.9z"/>
		<path fill="#FFFFFF" d="M112.4,62.4h-2.7v-12h-4v12h-2.7V48h9.4V62.4z"/>
		<path fill="#FFFFFF" d="M125.5,57.8c-0.2,3.1-2.1,4.8-5.3,4.8c-3,0-4.9-2-4.9-5.4V53c0-3.4,1.9-5.4,4.9-5.4c3.1,0,5,1.9,5,5.4v3.2
			H118v1.1c0,2,0.9,2.9,2.3,2.9c1.6,0,2.3-0.7,2.6-2.3H125.5z M118,52.9v1.2h4.7v-1.2c0-2-0.9-2.8-2.4-2.8
			C118.8,50.1,118,51,118,52.9z"/>
		<path fill="#FFFFFF" d="M138.1,53.2v4c0,3.5-1.8,5.5-4.6,5.5c-1,0-2.1-0.4-2.8-1.1v5.7h-2.6V47.9h1.9l0.2,1.3
			c0.7-0.9,2-1.6,3.3-1.6C136.2,47.6,138.1,49.7,138.1,53.2z M135.4,53.2c0-2.1-0.9-3.1-2.3-3.1c-1.4,0-2.3,1-2.3,3.1v4
			c0,1.9,0.9,3,2.3,3c1.5,0,2.3-0.9,2.3-3V53.2z"/>
		<path fill="#FFFFFF" d="M150.8,57.8c-0.2,3.1-2.1,4.8-5.3,4.8c-3,0-4.9-2-4.9-5.4V53c0-3.4,1.9-5.4,4.9-5.4c3.1,0,5,1.9,5,5.4v3.2
			h-7.3v1.1c0,2,0.9,2.9,2.3,2.9c1.6,0,2.3-0.7,2.6-2.3H150.8z M142.1,44c0-0.8,0.5-1.4,1.4-1.4s1.4,0.5,1.4,1.4
			c0,0.8-0.5,1.4-1.4,1.4S142.1,44.9,142.1,44z M143.2,52.9v1.2h4.7v-1.2c0-2-0.9-2.8-2.4-2.8C144.1,50.1,143.2,51,143.2,52.9z
			 M145.9,44c0-0.8,0.5-1.4,1.4-1.4c0.8,0,1.4,0.5,1.4,1.4c0,0.8-0.5,1.4-1.4,1.4C146.4,45.4,145.9,44.9,145.9,44z"/>
		<path fill="#FFFFFF" d="M151.8,59.9h1.1c0.8-1.1,1.2-3,1.3-5.1c0.1-2.3,0.2-4.6,0.3-6.9h8.4v12h1.6v5.6h-2.6v-3.2h-7.6v3.2h-2.6
			V59.9z M160.2,59.9v-9.5H157c0,1.7-0.1,3.4-0.2,5.1c-0.1,1.8-0.4,3.3-0.9,4.5H160.2z"/>
	</g>
</g>
</svg>
