<?xml version="1.0" encoding="utf-8"?>
<!-- Generator: Adobe Illustrator 17.1.0, SVG Export Plug-In . SVG Version: 6.00 Build 0)  -->
<!DOCTYPE svg PUBLIC "-//W3C//DTD SVG 1.1//EN" "http://www.w3.org/Graphics/SVG/1.1/DTD/svg11.dtd">
<svg version="1.1" xmlns="http://www.w3.org/2000/svg" xmlns:xlink="http://www.w3.org/1999/xlink" x="0px" y="0px"
	 viewBox="0 0 204 64.9" enable-background="new 0 0 204 64.9" xml:space="preserve">
<g id="Ground">
</g>
<g id="Wall1">
</g>
<g id="Wall_2">
</g>
<g id="Wall_3">
</g>
<g id="Window_big">
</g>
<g id="Signboard">
</g>
<g id="Window_4">
</g>
<g id="Window_4_1_">
</g>
<g id="Curb">
</g>
<g id="Tree_1">
</g>
<g id="Character">
	<g>
		
			<rect id="BG_1_" x="7.7" y="9.8" fill="none" stroke="#FFFFFF" stroke-width="2.4993" stroke-miterlimit="10" width="195" height="53.9"/>
		<rect id="Button_2_" x="0" y="0" fill="#7FBA63" width="194.3" height="55"/>
		<g>
			<path fill="#FFFFFF" d="M82.9,36.5v3.4H70.4V15.1h12.2v3.4H74v7.2h7.9V29H74v7.6L82.9,36.5L82.9,36.5z"/>
			<path fill="#FFFFFF" d="M96.5,39.9l-3.9-9.2l-3.9,9.2h-3.9L90.6,27L85,15.1h3.9l3.6,8.4l3.6-8.4h3.9L94.5,27l5.9,12.9H96.5z"/>
			<path fill="#FFFFFF" d="M106.9,15.1v24.9h-3.6V15.1H106.9z"/>
			<path fill="#FFFFFF" d="M123.9,18.5h-5.2v21.5h-3.7V18.5h-5.1v-3.4h14V18.5z"/>
		</g>
	</g>
</g>
</svg>
