<?xml version="1.0" encoding="utf-8"?>
<!-- Generator: Adobe Illustrator 17.1.0, SVG Export Plug-In . SVG Version: 6.00 Build 0)  -->
<!DOCTYPE svg PUBLIC "-//W3C//DTD SVG 1.1//EN" "http://www.w3.org/Graphics/SVG/1.1/DTD/svg11.dtd">
<svg version="1.1" xmlns="http://www.w3.org/2000/svg" xmlns:xlink="http://www.w3.org/1999/xlink" x="0px" y="0px"
	 viewBox="0 0 355.9 383.9" enable-background="new 0 0 355.9 383.9" xml:space="preserve">
<g id="O_1">
	<g id="STAR18">
	</g>
</g>
<g id="O_2">
</g>
<g id="O_3_1_">
</g>
<g id="O_4_1_">
</g>
<g id="O_5_1_">
</g>
<g id="O_6_1_">
</g>
<g id="O_7_1_">
</g>
<g id="O_8">
</g>
<g id="O_9">
</g>
<g id="O_10">
</g>
<g id="O_11">
</g>
<g id="O_19">
	<g>
		<circle fill="#FF882A" cx="171" cy="200.7" r="148"/>
		<path fill="#FFFFFF" d="M191.2,203c-4.1,7.7-12.1,12.9-23.4,12.9c-18.1,0-30.9-13.9-30.9-31.8c0-20.4,16.9-33.4,33-33.4
			c23.1,0,35.2,16.9,35.2,38.9c0,36.9-20.9,61-47.2,67c-0.6,0.1-1,0.1-1.6,0.1c-2.5,0-4.7-1.5-5.2-3.8c-0.1-0.4-0.1-0.7-0.1-1.2
			c0-2.5,1.8-4.7,4.3-5.3C175.3,240.4,188.2,225.6,191.2,203z M192.5,189.5c0-14.1-7-27.1-22.5-27.1c-11.4,0-20.6,9.6-20.6,20.7
			c0,11.2,7.4,21.6,21.3,21.6C182.9,204.7,190.1,196.9,192.5,189.5z"/>
	</g>
</g>
<g id="O_18_1_">
</g>
<g id="O_17">
</g>
<g id="O_16">
</g>
<g id="O_15_1_">
</g>
<g id="O_14_1_">
</g>
<g id="O_20">
</g>
<g id="O_13_1_">
</g>
<g id="O_12_1_">
</g>
</svg>
