<?xml version="1.0" encoding="utf-8"?>
<!-- Generator: Adobe Illustrator 17.1.0, SVG Export Plug-In . SVG Version: 6.00 Build 0)  -->
<!DOCTYPE svg PUBLIC "-//W3C//DTD SVG 1.1//EN" "http://www.w3.org/Graphics/SVG/1.1/DTD/svg11.dtd">
<svg version="1.1" xmlns="http://www.w3.org/2000/svg" xmlns:xlink="http://www.w3.org/1999/xlink" x="0px" y="0px"
	 viewBox="0 0 428.9 383.9" enable-background="new 0 0 428.9 383.9" xml:space="preserve">
<g id="O_1">
	<g id="STAR18">
	</g>
</g>
<g id="O_2">
</g>
<g id="O_3_1_">
</g>
<g id="O_4_1_">
</g>
<g id="O_5_1_">
</g>
<g id="O_6_1_">
</g>
<g id="O_7_1_">
</g>
<g id="O_8">
</g>
<g id="O_9">
</g>
<g id="O_10">
</g>
<g id="O_11">
</g>
<g id="O_19">
</g>
<g id="O_18_1_">
</g>
<g id="O_17">
</g>
<g id="O_16">
</g>
<g id="O_15_1_">
</g>
<g id="O_14_1_">
</g>
<g id="O_20">
	<g>
		<circle fill="#FF882A" cx="214.5" cy="192" r="148"/>
		<g>
			<path fill="#FFFFFF" d="M171.8,159.5l-10.1,7.8c-1,0.9-2.5,1.3-3.8,1.3c-1.8,0-3.6-0.7-4.6-2.1c-0.9-1-1.2-2.2-1.2-3.3
				c0-1.9,1-3.7,2.5-4.9l18.8-14.5c1.2-0.9,3-1.5,4.4-1.5c3.3,0,5.8,2.5,5.8,5.6v94c0,3.1-2.5,5.6-5.9,5.6s-5.9-2.5-5.9-5.6V159.5z"
				/>
			<path fill="#FFFFFF" d="M209.6,194.9c0-31.1,10.2-53,33.6-53c23.4,0,33.6,21.9,33.6,53c0,31.2-9.9,53-33.3,53
				C220.1,247.9,209.6,226.1,209.6,194.9z M222.2,194.9c0,26.6,6.7,41.9,21.3,41.9c15.1,0,20.7-15.1,20.7-41.9s-5.9-41.9-21-41.9
				C228.1,153,222.2,168.4,222.2,194.9z"/>
		</g>
	</g>
</g>
<g id="O_13_1_">
</g>
<g id="O_12_1_">
</g>
</svg>
