<?xml version="1.0" encoding="utf-8"?>
<!-- Generator: Adobe Illustrator 17.1.0, SVG Export Plug-In . SVG Version: 6.00 Build 0)  -->
<!DOCTYPE svg PUBLIC "-//W3C//DTD SVG 1.1//EN" "http://www.w3.org/Graphics/SVG/1.1/DTD/svg11.dtd">
<svg version="1.1" xmlns="http://www.w3.org/2000/svg" xmlns:xlink="http://www.w3.org/1999/xlink" x="0px" y="0px"
	 viewBox="0 0 390.3 383.9" enable-background="new 0 0 390.3 383.9" xml:space="preserve">
<g id="O_1">
	<g id="STAR18">
	</g>
</g>
<g id="O_2">
</g>
<g id="O_3_1_">
</g>
<g id="O_4_1_">
</g>
<g id="O_5_1_">
</g>
<g id="O_6_1_">
</g>
<g id="O_7_1_">
</g>
<g id="O_8">
</g>
<g id="O_9">
</g>
<g id="O_10">
</g>
<g id="O_11">
</g>
<g id="O_19">
</g>
<g id="O_18_1_">
	<g>
		<circle fill="#FF882A" cx="182.4" cy="182.9" r="148"/>
		<path fill="#FFFFFF" d="M182.3,132.5c17.2,0,31.2,10.8,31.2,27.1c0,10.1-6.4,20.3-17,24.6c11.4,2.2,20.3,12,20.3,25.8
			c0,18.5-15.7,29.2-34.3,29.2S148,228.4,148,210.8c0-12.9,8-22.9,19.5-26.5c-9-3.3-16.3-13.2-16.3-24.7
			C151.3,143.3,165.2,132.5,182.3,132.5z M181,190.2c-11,0-20.4,7.5-20.4,18.4c0,10.8,9.2,18.6,21.8,18.6c13.3,0,21.9-7.5,21.9-18.6
			c-0.1-11.7-9.2-18.4-20-18.4H181z M184.4,178.4c8.7,0,16.6-7.5,16.6-17c0-10.8-8.7-17-18.8-17c-10.2,0-18.4,6.7-18.4,17
			c0,9.5,7.8,17,16.7,17H184.4z"/>
	</g>
</g>
<g id="O_17">
</g>
<g id="O_16">
</g>
<g id="O_15_1_">
</g>
<g id="O_14_1_">
</g>
<g id="O_20">
</g>
<g id="O_13_1_">
</g>
<g id="O_12_1_">
</g>
</svg>
