<?xml version="1.0" encoding="utf-8"?>
<!-- Generator: Adobe Illustrator 17.1.0, SVG Export Plug-In . SVG Version: 6.00 Build 0)  -->
<!DOCTYPE svg PUBLIC "-//W3C//DTD SVG 1.1//EN" "http://www.w3.org/Graphics/SVG/1.1/DTD/svg11.dtd">
<svg version="1.1" xmlns="http://www.w3.org/2000/svg" xmlns:xlink="http://www.w3.org/1999/xlink" x="0px" y="0px"
	 viewBox="0 0 432.1 383.9" enable-background="new 0 0 432.1 383.9" xml:space="preserve">
<g id="O_1">
	<g id="STAR18">
	</g>
</g>
<g id="O_2">
</g>
<g id="O_3_1_">
</g>
<g id="O_4_1_">
</g>
<g id="O_5_1_">
</g>
<g id="O_6_1_">
</g>
<g id="O_7_1_">
</g>
<g id="O_8">
</g>
<g id="O_9">
</g>
<g id="O_10">
</g>
<g id="O_11">
</g>
<g id="O_19">
</g>
<g id="O_18_1_">
</g>
<g id="O_17">
</g>
<g id="O_16">
	<g>
		<circle fill="#FF882A" cx="216" cy="194.9" r="148"/>
		<path fill="#FFFFFF" d="M196,199.2c4.1-7.8,12.1-13.8,24.4-13.8c17,0,29.6,13,29.6,31.8c0,20.4-15.8,33.4-32,33.4
			c-23.1,0-36-17.6-36-38.2c0-35.2,24-60.1,44.8-67c1-0.3,2.2-0.6,3.3-0.6c2.2,0,4,1,4.9,3.3c0.3,0.7,0.4,1.3,0.4,2.1
			c0,2.5-1.9,4.4-4.4,5.3C215.4,161.8,200.1,176.1,196,199.2z M194.7,212.5c0,14.1,7.7,26.3,23.2,26.3c11.4,0,19.5-9.6,19.5-20.7
			c0-12-7.1-21.6-21-21.6C204.3,196.5,197,205.3,194.7,212.5z"/>
	</g>
</g>
<g id="O_15_1_">
</g>
<g id="O_14_1_">
</g>
<g id="O_20">
</g>
<g id="O_13_1_">
</g>
<g id="O_12_1_">
</g>
</svg>
