<?xml version="1.0" encoding="utf-8"?>
<!-- Generator: Adobe Illustrator 17.1.0, SVG Export Plug-In . SVG Version: 6.00 Build 0)  -->
<!DOCTYPE svg PUBLIC "-//W3C//DTD SVG 1.1//EN" "http://www.w3.org/Graphics/SVG/1.1/DTD/svg11.dtd">
<svg version="1.1" xmlns="http://www.w3.org/2000/svg" xmlns:xlink="http://www.w3.org/1999/xlink" x="0px" y="0px"
	 viewBox="0 0 395.5 383.9" enable-background="new 0 0 395.5 383.9" xml:space="preserve">
<g id="O_1">
	<g id="STAR18">
	</g>
</g>
<g id="O_2">
</g>
<g id="O_3_1_">
</g>
<g id="O_4_1_">
</g>
<g id="O_5_1_">
</g>
<g id="O_6_1_">
</g>
<g id="O_7_1_">
</g>
<g id="O_8">
</g>
<g id="O_9">
</g>
<g id="O_10">
</g>
<g id="O_11">
</g>
<g id="O_19">
</g>
<g id="O_18_1_">
</g>
<g id="O_17">
</g>
<g id="O_16">
</g>
<g id="O_15_1_">
</g>
<g id="O_14_1_">
	<g>
		<circle fill="#FF882A" cx="197.7" cy="194.9" r="148"/>
		<path fill="#FFFFFF" d="M220.5,223.8v20c0,3.4-2.8,5.9-5.9,5.9s-5.9-2.5-5.9-5.9v-20H167c-3.4,0-6.4-2.7-6.4-6.1
			c0-1.3,0.4-2.8,1.3-4.1l39.7-64.1c1.3-2.2,3-3.7,5.8-3.7c3.3,0,5.5,2.5,5.5,5.5c0,1-0.3,2.4-1,3.6L176.4,212h32.3v-22.9
			c0-3.4,2.8-5.9,5.9-5.9s5.9,2.5,5.9,5.9V212h8.1c3.4,0,6.2,2.8,6.2,5.9s-2.8,5.9-6.2,5.9H220.5z"/>
	</g>
</g>
<g id="O_20">
</g>
<g id="O_13_1_">
</g>
<g id="O_12_1_">
</g>
</svg>
