<?xml version="1.0" encoding="utf-8"?>
<!-- Generator: Adobe Illustrator 22.1.0, SVG Export Plug-In . SVG Version: 6.00 Build 0)  -->
<svg version="1.1" xmlns="http://www.w3.org/2000/svg" xmlns:xlink="http://www.w3.org/1999/xlink" x="0px" y="0px"
	 viewBox="0 0 1278.5 800.3" style="enable-background:new 0 0 1278.5 800.3;" xml:space="preserve">
<style type="text/css">
	.st0{fill:#D1EAEA;}
	.st1{fill:#E9F5F5;}
	.st2{display:none;}
	.st3{display:inline;fill:#A7A6F6;}
	.st4{display:inline;fill:#A099E9;}
	.st5{display:inline;}
	.st6{fill:none;}
	.st7{fill:#252835;}
	.st8{font-family:'CirceRounded-Regular';}
	.st9{font-size:23px;}
	.st10{display:inline;fill:#BEBEFC;}
	.st11{display:inline;fill:#75AEB9;}
	.st12{display:inline;fill:#4E9DA3;}
	.st13{display:inline;fill:#91BEC7;}
	.st14{display:inline;fill:none;}
	.st15{display:inline;fill:#252835;}
	.st16{display:inline;fill:#96CD7C;}
	.st17{display:inline;fill:#9AD17D;}
	.st18{display:inline;fill:#84CB66;}
	.st19{display:inline;fill:#ABD796;}
	.st20{display:inline;fill:#FFDF57;}
	.st21{display:inline;fill:#E9CA25;}
	.st22{display:inline;fill:#F9E698;}
	.st23{fill:#75AEB9;}
	.st24{fill:#4E9DA3;}
	.st25{fill:#313547;}
	.st26{fill:#91BEC7;}
	.st27{fill:#96CD7C;}
	.st28{fill:#84CB66;}
	.st29{display:inline;fill:#EDD262;}
</style>
<g id="Sky">
	<rect class="st0" width="1278.5" height="800.3"/>
</g>
<g id="Clouds">
	<path class="st1" d="M25.1,210h358.6c0,0,137.7-49.6,85.7-118.7S279.5,87,292.4,140.9s-66.9,64.8-84.2,30.2s-56.3-8.6-90.7,15.1
		S73,201.4,25.1,210z"/>
	<path class="st1" d="M1278.5,530c-90.1,17.4-173.5,83.1-159.4,141.8c23.8,99.1-122.9,119-154.7,55.5S861,711.5,797.7,755.1
		c-63.3,43.6-81.6,27.8-169.6,43.6h650.4V530z"/>
	<path class="st1" d="M1278.5,321.1c-66.4-3.5-159-13.5-140-42.5c15.5-23.6,71.1-28,44.3-88.6c-43.4-98.1-179.6-86.3-207.6-25.7
		c-28,60.6-4.7,102.6-75.8,116.6c-71.1,14-90.3-62.3-130.6-4.7c-32.4,46.3-307,46.6-311.3,46.6h820.9V321.1z"/>
	<path class="st1" d="M459.4,524c13.2-20.1,60.5-23.8,37.7-75.3c-36.9-83.4-152.7-73.4-176.5-21.8c-23.8,51.6-4,87.2-64.4,99.1
		c-60.5,11.9-76.8-53-111-4C131.1,542.1,63.4,552,0,556.9v4.8h631.9C628.8,561.6,434.8,561.3,459.4,524z"/>
</g>
<g id="Bubble_2">
</g>
<g id="Bubble_1">
</g>
<g id="Button">
</g>
<g id="B_1" class="st2">
	<path class="st3" d="M189.4,171.8c-38.8,32.6-123.1,49.7-155.7,10.9s-1-118.8,37.8-151.4s96.6-27.5,129.2,11.3
		S228.2,139.3,189.4,171.8z"/>
	<polygon class="st4" points="38.5,178.8 13.7,182.2 30.8,202.6 	"/>
	<path class="st4" d="M189.4,171.8c35.3-29.7,42.7-80.3,19.1-118.4l0,0c0,0,44,133.1-146.4,147.3
		C101.6,213.1,159.3,197.1,189.4,171.8z"/>
	<g class="st5">
		<rect x="28.8" y="110.5" class="st6" width="183.8" height="30.9"/>
		<text transform="matrix(1 0 0 1 28.7779 126.7956)" class="st7 st8 st9">Промышленность</text>
	</g>
	<path class="st10" d="M91.9,52.3C67.4,70.1,54,93.2,47.6,84.4s8.2-30.3,32.6-48s49.4-24.9,55.8-16.1S116.3,34.6,91.9,52.3z"/>
</g>
<g id="B2" class="st2">
	<path class="st11" d="M350.7,138.5c-21.5,25.9-74.5,47-100.3,25.6s-14.8-77.5,6.7-103.3s59.8-29.4,85.7-7.9
		S372.2,112.6,350.7,138.5z"/>
	<polygon class="st12" points="253,160.9 237.2,166.1 250.8,177.4 	"/>
	<path class="st12" d="M350.7,138.5c19.6-23.6,18.3-57.5-1.6-79.6l0,0c0,0,44.5,81.7-78.1,113.6C298.3,175.9,334,158.6,350.7,138.5z
		"/>
	<path class="st13" d="M287.8,62.1c-15,7-24.2,19.1-27.2,12.6c-3-6.5,6.7-17.5,21.7-24.4s29.7-7.3,32.7-0.8
		C318.1,56,302.9,55.1,287.8,62.1z"/>
	<rect x="251.9" y="96.3" class="st14" width="112.4" height="30.9"/>
	<text transform="matrix(1 0 0 1 251.9048 112.6352)" class="st15 st8 st9">Логистика</text>
</g>
<g id="B3" class="st2">
	<path class="st16" d="M297.5,334c-31.7,26.6-100.5,40.6-127.1,8.9s-0.8-97,30.8-123.6s78.9-22.5,105.5,9.2
		C333.3,260.2,329.1,307.4,297.5,334z"/>
	<polygon class="st17" points="174.2,339.6 153.9,342.5 167.9,359.1 	"/>
	<path class="st18" d="M297.5,334c28.9-24.2,34.8-65.6,15.6-96.7l0,0c0,0,36,108.7-119.5,120.3C225.8,367.7,272.8,354.6,297.5,334z"
		/>
	<path class="st19" d="M218.8,232.1c-16.6,10.6-26.1,25.5-30.1,19.3c-4-6.2,6.3-19.9,22.9-30.5s33.3-14.2,37.3-8
		S235.4,221.4,218.8,232.1z"/>
	<g class="st5">
		<rect x="167.4" y="277.3" class="st6" width="144.3" height="30.9"/>
		<text transform="matrix(1 0 0 1 174.631 293.6286)" class="st7 st8 st9">Менеджмент</text>
	</g>
</g>
<g id="B4" class="st2">
	<path class="st3" d="M115.4,455.3c-17,22.3-60.6,41.8-82.9,24.8s-15-64.2,2-86.5s48.9-26.6,71.3-9.6
		C128.1,401.1,132.4,433,115.4,455.3z"/>
	<polygon class="st4" points="34.6,477.4 21.6,482.3 33.3,491.2 	"/>
	<path class="st4" d="M115.4,455.3c15.5-20.3,13.3-48.6-4-66.4l0,0c0,0,40,66.7-61.3,97.5C72.9,488.3,102.1,472.6,115.4,455.3z"/>
	<g class="st5">
		<rect x="24.4" y="423.3" class="st6" width="98" height="30.9"/>
		<text transform="matrix(1 0 0 1 24.4146 439.6557)" class="st7 st8 st9">Растения</text>
	</g>
	<path class="st10" d="M65.8,392.3c-15.1,3.9-25.7,13.6-27.4,7.1s9.2-15.1,24.3-19c15.1-3.9,28.8-1.8,30.5,4.8
		S80.9,388.4,65.8,392.3z"/>
</g>
<g id="B5" class="st2">
	<path class="st20" d="M129,336.2c-25.5,16.9-77.3,21.5-94.2-4c-16.9-25.5,7.5-71.5,33-88.4s59.9-9.9,76.8,15.6
		S154.5,319.3,129,336.2z"/>
	<polygon class="st21" points="37.9,330.1 22.8,330.5 31.6,343.9 	"/>
	<path class="st21" d="M129,336.2c23.2-15.4,31.1-45.3,19.5-69.8l0,0c0,0,17.4,82.9-97.9,78.5C73.5,355,109.2,349.3,129,336.2z"/>
	<g class="st5">
		<rect x="29.2" y="284.6" class="st6" width="122.8" height="30.9"/>
		<text transform="matrix(1 0 0 1 38.5828 300.9498)" class="st7 st8 st9">Животные</text>
	</g>
	<path class="st22" d="M90.6,251.8c-13.5,2.5-23.3,10.4-24.4,4.6c-1.1-5.8,8.9-12.6,22.4-15.2c13.5-2.5,25.3,0.2,26.4,6
		C116.1,253,104.1,249.2,90.6,251.8z"/>
</g>
<g id="B6" class="st2">
	<path class="st16" d="M745.5,388.1c-20.9,25-72.4,45.4-97.4,24.5c-25-20.9-14.1-75.2,6.9-100.2c20.9-25,58.1-28.3,83.1-7.4
		C763.1,325.9,766.4,363.1,745.5,388.1z"/>
	<polygon class="st18" points="650.7,409.5 635.4,414.5 648.5,425.5 	"/>
	<path class="st18" d="M745.5,388.1c19-22.8,18-55.7-1.2-77.2l0,0c0,0,42.9,79.4-76.1,109.9C694.5,424.2,729.3,407.6,745.5,388.1z"
		/>
	<path class="st19" d="M670.3,316.9c-10.8,9.9-15.9,21.9-19.6,17.9s2.1-15.4,12.9-25.2c10.8-9.9,22.6-14.6,26.3-10.6
		S681.1,307,670.3,316.9z"/>
	<g class="st5">
		<rect x="643.2" y="332.7" class="st6" width="107.2" height="75.3"/>
		<text transform="matrix(1 0 0 1 657.7202 349.0378)"><tspan x="0" y="0" class="st7 st8 st9">Одежда</tspan><tspan x="11.9" y="27.6" class="st7 st8 st9">Мода</tspan></text>
	</g>
</g>
<g id="B7" class="st2">
	<path class="st11" d="M869.6,409.5c-19,22.6-65.8,41-88.5,21.9s-12.5-68.3,6.5-90.9c19-22.6,52.8-25.5,75.5-6.5
		C885.7,353.1,888.7,386.9,869.6,409.5z"/>
	<polygon class="st12" points="783.5,428.7 769.5,433.2 781.4,443.2 	"/>
	<path class="st12" d="M869.6,409.5c17.4-20.6,16.5-50.5-0.9-70l0,0c0,0,38.7,72.2-69.4,99.5C823.2,442.1,854.8,427.1,869.6,409.5z"
		/>
	<path class="st13" d="M816.2,339c-12.5,4.1-20.9,12.8-22.6,7.4s6.9-13.1,19.4-17.2s24.1-3,25.9,2.4S828.7,334.9,816.2,339z"/>
	<g class="st5">
		<rect x="784.1" y="356.6" class="st6" width="85.6" height="76.5"/>
		<text transform="matrix(1 0 0 1 788.5988 372.9282)"><tspan x="0" y="0" class="st7 st8 st9">Музыка  </tspan><tspan x="6.8" y="27.6" class="st7 st8 st9">Танцы</tspan></text>
	</g>
</g>
<g id="B8" class="st2">
	<g class="st5">
		<path class="st23" d="M1254.6,318.3c-17.2,21.7-60.3,40.1-82,22.9c-21.7-17.2-13.6-63.4,3.5-85.1c17.2-21.7,48.6-25.3,70.3-8.2
			S1271.8,296.6,1254.6,318.3z"/>
		<polygon class="st24" points="1174.8,338.6 1161.9,343.2 1173.2,352.2 		"/>
		<g>
			<rect x="1178" y="283.7" class="st6" width="87.7" height="30.9"/>
			<text transform="matrix(1 0 0 1 1178.0092 300.0512)" class="st25 st8 st9">Наука</text>
		</g>
		<path class="st26" d="M1197.5,260.2c-13.4,7.6-20.9,19.6-24.2,13.7c-3.3-5.8,4.9-16.7,18.2-24.3c13.4-7.6,26.9-9,30.2-3.2
			C1225,252.2,1210.9,252.6,1197.5,260.2z"/>
	</g>
	<path class="st12" d="M1187.9,347.5c93.5-19,65.3-93.2,65.3-93.2s26.8,29.1,1.5,63.9S1187.9,347.5,1187.9,347.5z"/>
</g>
<g id="B9" class="st2">
	<polygon class="st17" points="481.6,542 462.2,549.5 479.8,562.7 	"/>
	<path class="st16" d="M602.8,501.7c-25.2,33.5-90.1,63.1-123.6,37.9c-33.5-25.2-23-95.7,2.2-129.3c25.2-33.5,72.9-40.2,106.4-15
		S628,468.2,602.8,501.7z"/>
	<path class="st18" d="M602.1,503.5c23.8-30,21.3-72.4-4.3-99.4l0,0c0,0,58,100.8-94.3,144.2C537.7,551.7,581.8,529.1,602.1,503.5z"
		/>
	<path class="st19" d="M506.9,413.4c-13.9,11.7-20.1,27.1-25.1,21.1s2.1-20.3,16-32c13.9-11.7,29.2-16.3,34.3-10.3
		C537.1,398.2,520.8,401.7,506.9,413.4z"/>
	<g class="st5">
		<rect x="463.9" y="466.9" class="st6" width="150.6" height="30.9"/>
		<text transform="matrix(1 0 0 1 463.8861 483.2243)" class="st7 st8 st9">Журналистика</text>
	</g>
</g>
<g id="B10" class="st2">
	<path class="st16" d="M1098,573.5c-28.3,16.7-84.1,18.8-100.8-9.5c-16.7-28.3,11.9-76.2,40.2-92.9c28.3-16.7,64.8-7.4,81.5,20.9
		C1135.7,520.3,1126.3,556.8,1098,573.5z"/>
	<polygon class="st17" points="1000.7,562 984.4,561.6 993.2,576.4 	"/>
	<path class="st18" d="M1098,573.5c25.8-15.2,35.8-46.9,24.8-73.8l0,0c0,0,14.1,89.9-109.3,78.8C1037.4,590.7,1076,586.5,1098,573.5
		z"/>
	<path class="st19" d="M1040.6,489.4c-14,9.6-21.9,22.3-25.3,17.4c-3.4-4.9,5.2-16.7,19.2-26.3s28-13.4,31.4-8.5
		S1054.5,479.8,1040.6,489.4z"/>
	<g class="st5">
		<rect x="1000" y="522.2" class="st6" width="122.9" height="30.9"/>
		<text transform="matrix(1 0 0 1 999.9525 538.56)" class="st7 st8 st9">Психология</text>
	</g>
</g>
<g id="B11" class="st2">
	<path class="st3" d="M1128.8,421.3c-22.2,13.1-66.1,14.8-79.2-7.5c-13.1-22.2,9.4-59.9,31.6-73c22.2-13.1,50.9-5.8,64.1,16.5
		S1151,408.2,1128.8,421.3z"/>
	<polygon class="st4" points="1052.3,412.2 1039.5,411.9 1046.4,423.6 	"/>
	<path class="st4" d="M1128.8,421.3c20.3-12,28.2-36.8,19.5-58l0,0c0,0,11.1,70.6-85.9,61.9C1081.1,434.8,1111.5,431.5,1128.8,421.3
		z"/>
	<g class="st5">
		<rect x="1053.8" y="378.6" class="st6" width="105.4" height="30.9"/>
		<text transform="matrix(1 0 0 1 1053.7609 394.933)" class="st7 st8 st9">Продажи</text>
	</g>
	<path class="st10" d="M1079,358.4c-9.9,9.1-14.6,20.2-18,16.5c-3.4-3.7,1.9-14.1,11.8-23.2c9.9-9.1,20.8-13.4,24.2-9.7
		C1100.4,345.6,1088.9,349.3,1079,358.4z"/>
</g>
<g id="B12" class="st2">
	<path class="st16" d="M965.4,302.3c-15.9,15.3-52.1,25.1-67.4,9.2c-15.3-15.9-3.8-51.6,12.1-66.9c15.9-15.3,41.2-14.7,56.5,1.2
		S981.3,287,965.4,302.3z"/>
	<polygon class="st18" points="900,309.6 889.3,311.8 897.3,320.2 	"/>
	<path class="st18" d="M965.4,302.3c14.5-13.9,16.3-36.1,4.9-52l0,0c0,0,22.9,56.6-59.4,68.2C928.4,322.8,953,314.2,965.4,302.3z"/>
	<g class="st5">
		<rect x="899.8" y="269.9" class="st6" width="77.1" height="30.9"/>
		<text transform="matrix(1 0 0 1 899.8068 286.2779)" class="st7 st8 st9">Туризм</text>
	</g>
	<path class="st19" d="M916.6,254.4c-8.7,7.9-12.8,17.6-15.7,14.4c-3-3.3,1.7-12.3,10.3-20.3s18.1-11.7,21.1-8.5
		C935.3,243.3,925.3,246.4,916.6,254.4z"/>
</g>
<g id="B13" class="st2">
	<path class="st16" d="M1262.4,198.7c-17.5,21.4-61,39.1-82.3,21.7s-12.6-63.6,4.9-85c17.5-21.4,49-24.6,70.4-7.1
		S1279.9,177.3,1262.4,198.7z"/>
	<polygon class="st17" points="1182.2,217.8 1169.2,222.1 1180.5,231.3 	"/>
	<path class="st18" d="M1262.4,198.7c15.9-19.5,14.7-47.4-1.8-65.4l0,0c0,0,37.1,66.9-63.5,93.9
		C1219.5,229.8,1248.8,215.3,1262.4,198.7z"/>
	<g class="st5">
		<rect x="1196.2" y="166.7" class="st6" width="43.8" height="30.9"/>
		<text transform="matrix(1 0 0 1 1200.8549 183.0416)" class="st7 st8 st9">Еда</text>
	</g>
	<path class="st19" d="M1206.8,137.5c-12.5,7.1-19.6,18.3-22.7,12.9c-3.1-5.4,4.6-15.6,17.1-22.7c12.5-7.1,25.2-8.5,28.3-3
		C1232.6,130.1,1219.4,130.4,1206.8,137.5z"/>
</g>
<g id="B14" class="st2">
	<g class="st5">
		<path class="st27" d="M481.9,139.7c-23,21.6-74.7,35.2-96.3,12.2c-21.6-23-4.8-73.8,18.2-95.4c23-21.6,59.1-20.4,80.6,2.5
			S504.8,118.1,481.9,139.7z"/>
		<polygon class="st28" points="388.4,149.3 373.1,152.3 384.4,164.4 		"/>
		<path class="st28" d="M481.9,139.7c20.9-19.7,23.7-51.4,7.7-74.2l0,0c0,0,32,81.1-85.8,96.6C428.8,168.4,464,156.5,481.9,139.7z"
			/>
	</g>
	<g class="st5">
		<rect x="387.3" y="94.1" class="st6" width="105.4" height="25.6"/>
		<text transform="matrix(1 0 0 1 394.403 110.4601)" class="st7 st8 st9">Финансы</text>
	</g>
	<path class="st19" d="M424.9,66.4c-14.6,8.3-23.2,20.8-26.4,15c-3.3-5.8,5.9-17.2,20.5-25.5c14.6-8.3,29.1-10.3,32.4-4.5
		C454.7,57.2,439.5,58.1,424.9,66.4z"/>
</g>
<g id="B15" class="st2">
	<path class="st20" d="M1018.5,462.7c-26.4,30.9-90.8,55.5-121.7,29.1c-30.9-26.4-16.5-93.9,9.9-124.8s72.8-34.5,103.7-8.1
		C1041.2,385.4,1044.9,431.8,1018.5,462.7z"/>
	<polygon class="st21" points="900,488.1 880.8,494.1 897,508 	"/>
	<path class="st21" d="M1018.5,462.7c24-28.1,23.2-69.1-0.5-96.2l0,0c0,0,52.4,99.5-96.4,135.8
		C954.4,506.9,997.9,486.7,1018.5,462.7z"/>
	<g class="st5">
		<rect x="881.9" y="414.8" class="st6" width="151.6" height="53.9"/>
		<text transform="matrix(1 0 0 1 889.6764 431.1266)"><tspan x="0" y="0" class="st7 st8 st9">Иностранные</tspan><tspan x="37.9" y="27.6" class="st7 st8 st9">языки</tspan></text>
	</g>
	<path class="st22" d="M934.3,368.8c-16.2,9.2-25.7,23.1-29.4,16.7c-3.7-6.4,6.5-19.1,22.7-28.4c16.2-9.2,32.3-11.4,36-5
		C967.3,358.6,950.5,359.6,934.3,368.8z"/>
</g>
<g id="B16" class="st2">
	<path class="st3" d="M1138.4,298.8c-32.1,26.9-101.7,41.1-128.6,9c-26.9-32.1-0.9-98.2,31.2-125.1c32.1-26.9,79.9-22.7,106.8,9.3
		S1170.4,271.9,1138.4,298.8z"/>
	<polygon class="st4" points="1013.7,304.5 993.1,307.4 1007.3,324.2 	"/>
	<path class="st4" d="M1138.4,298.8c29.2-24.5,35.3-66.3,15.8-97.8l0,0c0,0,36.4,110-121,121.8
		C1065.8,332.9,1113.5,319.7,1138.4,298.8z"/>
	<path class="st10" d="M1057.7,200.1c-20.2,14.6-31.2,33.8-36.5,26.5c-5.3-7.3,6.8-25,27-39.7c20.2-14.6,40.8-20.6,46.1-13.3
		C1099.5,180.8,1077.9,185.4,1057.7,200.1z"/>
	<g class="st5">
		<rect x="993.4" y="236.9" class="st6" width="180.8" height="53.9"/>
		<text transform="matrix(1 0 0 1 1007.1222 253.2376)"><tspan x="0" y="0" class="st7 st8 st9">Компьютерные</tspan><tspan x="51.7" y="27.6" class="st7 st8 st9">игры</tspan></text>
	</g>
</g>
<g id="B17" class="st2">
	<g class="st5">
		<path class="st23" d="M645.4,152.2c-32.7,27.4-103.6,41.8-131,9.2c-27.4-32.7-0.9-100.1,31.8-127.5s81.4-23.1,108.8,9.5
			S678.1,124.8,645.4,152.2z"/>
		<polygon class="st24" points="518.4,158 497.5,160.9 511.9,178.1 		"/>
		<path class="st24" d="M645.4,152.2c29.7-25,35.9-67.6,16.1-99.7l0,0c0,0,37.1,112.1-123.2,124C571.5,186.9,620,173.5,645.4,152.2z
			"/>
	</g>
	<g class="st5">
		<rect x="511.2" y="97.9" class="st6" width="153" height="30.9"/>
		<text transform="matrix(1 0 0 1 511.1978 114.2004)" class="st7 st8 st9">Строительство</text>
	</g>
	<path class="st13" d="M564.3,47.1c-17.1,11-26.9,26.3-31,19.9s6.5-20.5,23.6-31.5s34.4-14.7,38.5-8.3S581.5,36.1,564.3,47.1z"/>
</g>
<g id="B18" class="st2">
	<path class="st20" d="M782.6,258.9c-22.3,21.3-72.8,35.1-94.1,12.8s-5.4-72.2,16.9-93.5c22.3-21.3,57.6-20.6,78.9,1.7
		S804.9,237.5,782.6,258.9z"/>
	<polygon class="st21" points="691.2,269.1 676.3,272.2 687.5,283.9 	"/>
	<path class="st21" d="M782.6,258.9c20.3-19.4,22.7-50.5,6.9-72.7l0,0c0,0,32,79.1-83,95.3C730.9,287.4,765.3,275.4,782.6,258.9z"/>
	<g class="st5">
		<rect x="696.4" y="216.4" class="st6" width="87.2" height="30.9"/>
		<text transform="matrix(1 0 0 1 696.3607 232.723)" class="st7 st8 st9">Красота</text>
	</g>
	<path class="st22" d="M725.7,186.2c-13.4,7.6-20.9,19.6-24.2,13.7c-3.3-5.8,4.9-16.7,18.2-24.3c13.4-7.6,26.9-9,30.2-3.2
		C753.2,178.3,739,178.6,725.7,186.2z"/>
</g>
<g id="B19" class="st2">
	<path class="st11" d="M1251.7,689.8c-21.9,21.7-72.2,36.3-93.9,14.4s-6.5-72.1,15.4-93.7s57.3-21.5,78.9,0.4
		C1273.8,632.8,1273.6,668.1,1251.7,689.8z"/>
	<polygon class="st12" points="1160.4,701.6 1145.5,704.9 1156.9,716.4 	"/>
	<path class="st12" d="M1251.7,689.8c20-19.8,21.9-50.8,5.7-72.8l0,0c0,0,33.3,78.6-81.5,96.7
		C1200.4,719.3,1234.6,706.7,1251.7,689.8z"/>
	<g class="st5">
		
			<rect x="1155.9" y="648" transform="matrix(0.9999 -1.647408e-02 1.647408e-02 0.9999 -10.7657 20.0615)" class="st6" width="112.7" height="30.9"/>
		<text transform="matrix(0.9999 -1.647000e-02 1.647000e-02 0.9999 1155.9042 665.2719)" class="st7 st8 st9">Транспорт</text>
	</g>
	<path class="st13" d="M1194.3,617c-14.2,8.4-22.1,21.4-25.8,15.2c-3.6-6.2,4.9-18,19.2-26.4s28.8-10.2,32.4-4
		C1223.7,608,1208.6,608.6,1194.3,617z"/>
</g>
<g id="B20" class="st2">
	<path class="st11" d="M438.7,452.4c-20,23.3-68.6,41.8-91.9,21.8c-23.3-20-12.3-70.8,7.6-94.1c20-23.3,55-25.9,78.2-6
		C456,394.1,458.7,429.1,438.7,452.4z"/>
	<polygon class="st12" points="349.3,471.4 334.8,475.9 347.1,486.4 	"/>
	<path class="st12" d="M438.7,452.4c18.2-21.2,17.6-52.1-0.3-72.6l0,0c0,0,39.4,75.1-72.9,102.4
		C390.4,485.7,423.2,470.4,438.7,452.4z"/>
	<g class="st5">
		<rect x="343.4" y="406.5" class="st6" width="98.9" height="53.4"/>
		<text transform="matrix(1 0 0 1 349.8859 422.8117)"><tspan x="0" y="0" class="st7 st8 st9">Военное </tspan><tspan x="18.9" y="27.6" class="st7 st8 st9">дело</tspan></text>
	</g>
	<path class="st13" d="M378.5,385c-15.2,8.6-23.8,22.2-27.5,15.6c-3.7-6.6,5.5-18.9,20.7-27.6c15.2-8.6,30.5-10.3,34.3-3.7
		C409.7,376,393.7,376.4,378.5,385z"/>
</g>
<g id="B21" class="st2">
	<path class="st16" d="M850,554.8c-23.9,20.1-76,30.7-96.1,6.7s-0.6-73.3,23.3-93.4c23.9-20.1,59.6-17,79.7,7
		C877.1,499,873.9,534.7,850,554.8z"/>
	<polygon class="st17" points="756.9,559.1 741.5,561.2 752.1,573.8 	"/>
	<path class="st18" d="M850,554.8c21.8-18.3,26.3-49.5,11.8-73.1l0,0c0,0,27.2,82.1-90.3,90.9C795.8,580.3,831.4,570.4,850,554.8z"
		/>
	<g class="st5">
		<rect x="755.3" y="510.2" class="st6" width="106.9" height="30.9"/>
		<text transform="matrix(1 0 0 1 755.3452 526.5666)" class="st7 st8 st9">Политика</text>
	</g>
	<path class="st19" d="M795.6,479.7c-14.8,8.4-23.2,21.7-26.8,15.2s5.4-18.5,20.2-26.9c14.8-8.4,29.8-10,33.4-3.6
		S810.5,471.3,795.6,479.7z"/>
</g>
<g id="B22" class="st2">
	<path class="st20" d="M1181.9,130.2c-30,25.1-95,38.4-120.2,8.4s-0.8-91.8,29.2-116.9c30-25.1,74.6-21.2,99.7,8.7
		S1211.9,105,1181.9,130.2z"/>
	<polygon class="st21" points="1065.4,135.5 1046.3,138.2 1059.4,153.9 	"/>
	<path class="st21" d="M1181.9,130.2c27.3-22.9,32.9-62,14.7-91.4l0,0c0,0,34,102.8-113,113.8C1114.1,162,1158.7,149.7,1181.9,130.2
		z"/>
	<g class="st5">
		<polygon class="st6" points="1206.3,98.1 1059.9,98.1 1062.9,69.1 1209.3,69.1 		"/>
		<text transform="matrix(1 0 0 1 1062.7428 85.4654)" class="st7 st8 st9">Безопасность</text>
	</g>
	<path class="st22" d="M1108,37.9c-16.6,12-25.7,27.8-30,21.8c-4.3-6,5.6-20.6,22.2-32.6s33.6-16.9,37.9-11
		C1142.4,22.1,1124.6,25.9,1108,37.9z"/>
</g>
<g id="B23" class="st2">
	<path class="st20" d="M284,535.7c-38.8,32.5-123,49.7-155.5,10.9c-32.5-38.8-1-118.7,37.7-151.3s96.5-27.5,129.1,11.3
		S322.8,503.1,284,535.7z"/>
	<polygon class="st21" points="133.3,542.6 108.4,546.1 125.5,566.4 	"/>
	<path class="st21" d="M284,535.7c35.3-29.6,42.6-80.2,19.1-118.3l0,0c0,0,44,133-146.2,147.2C196.3,576.9,253.9,560.9,284,535.7z"
		/>
	<g class="st5">
		<rect x="124.9" y="458.4" class="st6" width="183.8" height="89.4"/>
		<text transform="matrix(1 0 0 1 127.2572 474.7612)"><tspan x="0" y="0" class="st7 st8 st9">Добыча полезных</tspan><tspan x="28.3" y="27.6" class="st7 st8 st9">ископаемых</tspan></text>
	</g>
	<path class="st22" d="M183.2,410.5c-20.2,14.6-31.3,33.8-36.5,26.5c-5.3-7.3,6.8-25.1,27-39.7s40.8-20.6,46.1-13.3
		C225,391.3,203.4,395.9,183.2,410.5z"/>
</g>
<g id="B24" class="st2">
	<path class="st3" d="M859.1,298.8c-16.7,16-54.6,26.3-70.6,9.6c-16-16.7-4-54.1,12.7-70.1s43.2-15.4,59.2,1.3
		C876.4,256.3,875.8,282.8,859.1,298.8z"/>
	<polygon class="st4" points="790.5,306.5 779.3,308.8 787.7,317.6 	"/>
	<path class="st4" d="M859.1,298.8c15.2-14.6,17.1-37.9,5.2-54.5l0,0c0,0,24,59.4-62.3,71.5C820.3,320.3,846.1,311.3,859.1,298.8z"
		/>
	<path class="st10" d="M816.3,244.3c-10,5.7-15.7,14.7-18.2,10.3c-2.5-4.4,3.7-12.5,13.7-18.2c10-5.7,20.2-6.8,22.6-2.4
		S826.4,238.6,816.3,244.3z"/>
	<g class="st5">
		<rect x="795" y="263.8" class="st6" width="87.7" height="30.9"/>
		<text transform="matrix(1 0 0 1 795.0206 280.0865)" class="st7 st8 st9">Спорт</text>
	</g>
</g>
<g id="B25" class="st2">
	<path class="st11" d="M1236.8,572.8c-21.2,17.8-67.2,27.1-84.9,6c-17.8-21.2-0.6-64.8,20.6-82.6c21.2-17.8,52.7-15,70.5,6.2
		S1258,555.1,1236.8,572.8z"/>
	<polygon class="st12" points="1154.5,576.6 1140.9,578.5 1150.3,589.6 	"/>
	<path class="st12" d="M1236.8,572.8c19.3-16.2,23.3-43.8,10.4-64.6l0,0c0,0,24,72.6-79.9,80.4
		C1188.9,595.4,1220.4,586.6,1236.8,572.8z"/>
	<path class="st13" d="M1186.4,504.3c-12.4,7-19.7,17.7-22.5,12.8c-2.8-5,5-14.7,17.4-21.8c12.4-7,24.8-8.7,27.6-3.8
		S1198.8,497.3,1186.4,504.3z"/>
	<g class="st5">
		<rect x="1151.7" y="532.1" class="st6" width="98" height="30.9"/>
		<text transform="matrix(1 0 0 1 1151.6664 548.4409)" class="st7 st8 st9">Экология</text>
	</g>
</g>
<g id="B26" class="st2">
	<path class="st20" d="M1119.8,682.9c-19.6,22.9-67.3,41.2-90.2,21.6c-22.9-19.6-12.2-69.6,7.4-92.4c19.6-22.9,54-25.6,76.8-6
		C1136.7,625.6,1139.4,660,1119.8,682.9z"/>
	<polygon class="st21" points="1032,701.7 1017.8,706.1 1029.8,716.4 	"/>
	<path class="st21" d="M1119.8,682.9c17.8-20.8,17.2-51.2-0.4-71.3l0,0c0,0,38.8,73.7-71.4,100.7
		C1072.4,715.7,1104.6,700.7,1119.8,682.9z"/>
	<path class="st22" d="M1057.4,613.3c-12,6.8-19,17.1-21.8,12.4c-2.7-4.8,4.8-14.2,16.9-21s24-8.5,26.7-3.7
		C1081.9,605.7,1069.5,606.5,1057.4,613.3z"/>
	<g class="st5">
		<rect x="1019.7" y="629.1" class="st6" width="105.4" height="87.2"/>
		<text transform="matrix(1 0 0 1 1047.2196 645.4391)"><tspan x="0" y="0" class="st7 st8 st9">Кино</tspan><tspan x="-3.1" y="27.6" class="st7 st8 st9">Театр</tspan></text>
	</g>
</g>
<g id="B27" class="st2">
	<path class="st20" d="M717.2,543.2c-24,20.1-76.2,30.8-96.3,6.8c-20.1-24-0.6-73.5,23.4-93.7c24-20.1,59.8-17,79.9,7
		C744.4,487.3,741.2,523,717.2,543.2z"/>
	<polygon class="st21" points="623.9,547.5 608.5,549.6 619.1,562.2 	"/>
	<path class="st21" d="M717.2,543.2c21.9-18.3,26.4-49.7,11.8-73.3l0,0c0,0,27.2,82.4-90.6,91.2
		C662.9,568.7,698.6,558.8,717.2,543.2z"/>
	<path class="st22" d="M658.4,466.1c-13.3,9.6-20.6,22.3-24.1,17.5c-3.5-4.8,4.5-16.5,17.8-26.2c13.3-9.6,26.9-13.6,30.4-8.8
		C686,453.4,671.7,456.5,658.4,466.1z"/>
	<g class="st5">
		<rect x="640.7" y="478.7" class="st6" width="67.3" height="81.3"/>
		<text transform="matrix(1 0 0 1 662.4142 495.0571)"><tspan x="0" y="0" class="st7 st8 st9">ТВ  </tspan><tspan x="-18.5" y="27.6" class="st7 st8 st9">Радио</tspan></text>
	</g>
</g>
<g id="B28" class="st2">
	<path class="st20" d="M805.8,121.9c-26.8,22.5-85.2,34.4-107.7,7.6s-0.7-82.2,26.1-104.7s66.8-19,89.4,7.8
		C836.2,59.4,832.7,99.4,805.8,121.9z"/>
	<polygon class="st29" points="701.4,126.7 684.3,129.1 696.1,143.2 	"/>
	<path class="st21" d="M805.8,121.9c24.4-20.5,29.5-55.5,13.2-81.9l0,0c0,0,30.5,92.1-101.3,101.9
		C745.1,150.5,785,139.4,805.8,121.9z"/>
	<path class="st22" d="M739.2,35.6c-14.1,9-22.1,21.6-25.5,16.3S719,35.1,733.1,26s28.2-12.1,31.6-6.8
		C768.1,24.5,753.3,26.5,739.2,35.6z"/>
	<g class="st5">
		<rect x="700" y="73.2" class="st6" width="124" height="30.9"/>
		<text transform="matrix(1 0 0 1 699.9757 89.5628)" class="st7 st8 st9">Педагогика</text>
	</g>
</g>
<g id="B29" class="st2">
	<path class="st3" d="M428.1,572.3c-18.8,15.7-59.5,24-75.3,5.3c-15.7-18.8-0.5-57.5,18.3-73.2c18.8-15.7,46.7-13.3,62.5,5.5
		C449.3,528.6,446.9,556.6,428.1,572.3z"/>
	<polygon class="st4" points="355.1,575.7 343.1,577.4 351.4,587.2 	"/>
	<path class="st4" d="M428.1,572.3c17.1-14.3,20.6-38.8,9.2-57.2l0,0c0,0,21.3,64.4-70.8,71.2C385.6,592.3,413.5,584.6,428.1,572.3z
		"/>
	<path class="st10" d="M381.5,512c-9.8,6.3-15.5,15.1-17.8,11.4c-2.4-3.7,3.7-11.8,13.6-18.1c9.8-6.3,19.7-8.4,22.1-4.7
		S391.4,505.7,381.5,512z"/>
	<g class="st5">
		<rect x="358" y="529.2" class="st6" width="79.6" height="30.9"/>
		<text transform="matrix(1 0 0 1 357.986 545.4855)" class="st7 st8 st9">Дизайн</text>
	</g>
</g>
<g id="B30" class="st2">
	<path class="st20" d="M1251.1,452.4c-23.8,20-75.6,30.5-95.6,6.7c-20-23.8-0.6-73,23.2-93s59.4-16.9,79.4,6.9
		C1278.1,396.8,1275,432.4,1251.1,452.4z"/>
	<polygon class="st21" points="1158.4,456.6 1143.2,458.8 1153.7,471.3 	"/>
	<path class="st21" d="M1251.1,452.4c21.7-18.2,26.2-49.3,11.7-72.7l0,0c0,0,27,81.8-89.9,90.5
		C1197.2,477.7,1232.6,467.9,1251.1,452.4z"/>
	<path class="st22" d="M1192.7,375.8c-13.2,9.6-20.5,22.1-23.9,17.3c-3.5-4.8,4.4-16.4,17.6-26s26.7-13.5,30.2-8.7
		S1205.9,366.2,1192.7,375.8z"/>
	<g class="st5">
		<rect x="1153.7" y="405.6" class="st6" width="111" height="30.9"/>
		<text transform="matrix(1 0 0 1 1157.2294 421.9755)" class="st7 st8 st9">Медицина</text>
	</g>
</g>
<g id="B31" class="st2">
	<path class="st3" d="M656.7,306c-26.4,30.9-90.8,55.5-121.7,29.1c-30.9-26.4-16.5-93.9,9.9-124.8s72.8-34.5,103.7-8.1
		C679.5,228.7,683.1,275.2,656.7,306z"/>
	<polygon class="st4" points="538.2,331.4 519,337.4 535.2,351.3 	"/>
	<path class="st4" d="M656.7,306c24-28.1,23.2-69.1-0.5-96.2l0,0c0,0,52.4,99.5-96.4,135.8C592.7,350.3,636.2,330,656.7,306z"/>
	<path class="st10" d="M572.5,212.1c-16.2,9.2-25.7,23.1-29.4,16.7c-3.7-6.4,6.5-19.1,22.7-28.4s32.3-11.4,36-5
		S588.7,202.9,572.5,212.1z"/>
	<g class="st5">
		<rect x="527.3" y="238" class="st6" width="129.4" height="73.8"/>
		<text transform="matrix(1 0 0 1 550.3085 254.3782)"><tspan x="0" y="0" class="st7 st8 st9">Реклама</tspan><tspan x="-12.8" y="27.6" class="st7 st8 st9">Маркетинг</tspan></text>
	</g>
</g>
<g id="B32" class="st2">
	<path class="st11" d="M1012.6,185.2c-42.5,35.7-134.9,54.5-170.6,12s-1.1-130.2,41.4-165.9S989.3,1.1,1025,43.6
		S1055.2,149.5,1012.6,185.2z"/>
	<polygon class="st12" points="847.3,192.8 820,196.6 838.8,218.9 	"/>
	<path class="st12" d="M1012.6,185.2c38.7-32.5,46.8-88,20.9-129.7l0,0c0,0,48.2,145.9-160.4,161.5
		C916.4,230.5,979.6,212.9,1012.6,185.2z"/>
	<path class="st13" d="M907.1,48.4c-22.3,14.3-35.1,34.2-40.4,25.9c-5.3-8.3,8.4-26.7,30.7-41c22.3-14.3,44.7-19.1,50.1-10.8
		C952.8,30.9,929.4,34.2,907.1,48.4z"/>
	<g class="st5">
		<rect x="834.3" y="118.1" class="st6" width="208" height="30.9"/>
		<text transform="matrix(1 0 0 1 834.2953 134.4627)" class="st7 st8 st9">Программирование</text>
	</g>
</g>
<g id="B33" class="st2">
	<path class="st20" d="M488.6,330.4c-36.4,30.5-115.4,46.6-145.9,10.2s-1-111.4,35.4-141.9s90.6-25.8,121.1,10.6
		C529.7,245.7,524.9,299.9,488.6,330.4z"/>
	<polygon class="st21" points="347.1,336.9 323.9,340.1 339.9,359.2 	"/>
	<path class="st21" d="M488.6,330.4c33.1-27.8,40-75.2,17.9-111l0,0c0,0,41.3,124.8-137.2,138.1
		C406.3,369.1,460.3,354.1,488.6,330.4z"/>
	<path class="st22" d="M397.1,218.4c-22.9,16.6-35.4,38.3-41.4,30.1c-6-8.3,7.7-28.4,30.6-45c22.9-16.6,46.3-23.4,52.3-15.1
		C444.5,196.6,420,201.8,397.1,218.4z"/>
	<g class="st5">
		<rect x="342.9" y="261.6" class="st6" width="183.8" height="30.9"/>
		<text transform="matrix(1 0 0 1 342.899 277.9196)" class="st7 st8 st9">Юриспруденция</text>
	</g>
</g>
</svg>
