<?xml version="1.0" encoding="utf-8"?>
<!-- Generator: Adobe Illustrator 17.1.0, SVG Export Plug-In . SVG Version: 6.00 Build 0)  -->
<!DOCTYPE svg PUBLIC "-//W3C//DTD SVG 1.1//EN" "http://www.w3.org/Graphics/SVG/1.1/DTD/svg11.dtd">
<svg version="1.1" xmlns="http://www.w3.org/2000/svg" xmlns:xlink="http://www.w3.org/1999/xlink" x="0px" y="0px"
	 viewBox="0 0 412.2 380.4" enable-background="new 0 0 412.2 380.4" xml:space="preserve">
<g id="O_1">
	<g id="STAR18">
	</g>
</g>
<g id="O_2">
</g>
<g id="O_3_1_">
</g>
<g id="O_4_1_">
</g>
<g id="O_5_1_">
	<g>
		<circle fill="none" stroke="#FF882A" stroke-width="15" stroke-miterlimit="10" cx="210.7" cy="186.8" r="148"/>
		<path fill="#FF882A" d="M189.9,226.4c5.3,5.9,12.1,8,18.9,8c11.8,0,20.9-9.2,20.9-21.9c0-12.4-9.8-21.9-25.2-21.9
			c-2.5,0-4.9,0.3-7.3,0.6c-0.4,0-0.9,0.1-1.3,0.1c-4,0-6.5-2.8-6.5-6.7c0-0.4,0-0.7,0-1.2l4.6-36.7c0.4-3.3,3.3-5.6,6.4-5.6h35.5
			c3.1,0,5.6,2.5,5.6,5.9s-2.5,5.9-5.6,5.9h-30.8l-3.8,28c2.2-0.6,5.3-1,8.3-1c18.8,0,32.7,12.4,32.7,32.1
			c0,21.5-15.4,34.2-33.7,34.2c-9.8,0-19.8-2.7-28.3-13.3c-0.7-1-1.2-2.2-1.2-3.6c0-1.8,0.7-3.6,2.4-4.6c1.2-0.7,2.2-1.2,3.4-1.2
			C186.6,223.6,188.3,224.6,189.9,226.4z"/>
	</g>
</g>
<g id="O_6_1_">
</g>
<g id="O_7_1_">
</g>
<g id="O_8">
</g>
<g id="O_9">
</g>
<g id="O_10">
</g>
<g id="O_11">
</g>
<g id="O_19">
</g>
<g id="O_18_1_">
</g>
<g id="O_17">
</g>
<g id="O_16">
</g>
<g id="O_15_1_">
</g>
<g id="O_14_1_">
</g>
<g id="O_20">
</g>
<g id="O_13_1_">
</g>
<g id="O_12_1_">
</g>
</svg>
