<?xml version="1.0" encoding="utf-8"?>
<!-- Generator: Adobe Illustrator 17.1.0, SVG Export Plug-In . SVG Version: 6.00 Build 0)  -->
<!DOCTYPE svg PUBLIC "-//W3C//DTD SVG 1.1//EN" "http://www.w3.org/Graphics/SVG/1.1/DTD/svg11.dtd">
<svg version="1.1" xmlns="http://www.w3.org/2000/svg" xmlns:xlink="http://www.w3.org/1999/xlink" x="0px" y="0px"
	 viewBox="0 0 381.4 352" enable-background="new 0 0 381.4 352" xml:space="preserve">
<g id="O_1">
	<g id="STAR18">
	</g>
</g>
<g id="O_2">
	<g>
		<circle fill="none" stroke="#FF882A" stroke-width="15" stroke-miterlimit="10" cx="190.7" cy="188.9" r="148"/>
		<path fill="#FF882A" d="M217.4,237.1c3.1,0,5.6,2.5,5.6,5.5c0,3.1-2.5,5.6-5.6,5.6h-52.5c-4.1,0-6.4-2.4-6.4-5.5
			c0-3.1,2.4-5.2,4-6.8c17.2-16.7,43.7-43.1,43.7-63.9c0-9.2-5.6-16.7-16.9-16.7c-6.8,0-12.7,2.7-16.4,10.7
			c-1.3,2.8-3.1,3.8-5.9,3.8c-3.8,0-5.9-2.8-5.9-5.9c0-0.7,0.1-1.3,0.3-2.1c4.3-12.4,16.1-18.4,29-18.4c19.4,0,28.4,13.3,28.4,26.2
			c0,29-35.2,60.2-43.5,67.5H217.4z"/>
	</g>
</g>
<g id="O_3_1_">
</g>
<g id="O_4_1_">
</g>
<g id="O_5_1_">
</g>
<g id="O_6_1_">
</g>
<g id="O_7_1_">
</g>
<g id="O_8">
</g>
<g id="O_9">
</g>
<g id="O_10">
</g>
<g id="O_11">
</g>
<g id="O_19">
</g>
<g id="O_18_1_">
</g>
<g id="O_17">
</g>
<g id="O_16">
</g>
<g id="O_15_1_">
</g>
<g id="O_14_1_">
</g>
<g id="O_20">
</g>
<g id="O_13_1_">
</g>
<g id="O_12_1_">
</g>
</svg>
