<?xml version="1.0" encoding="utf-8"?>
<!-- Generator: Adobe Illustrator 17.1.0, SVG Export Plug-In . SVG Version: 6.00 Build 0)  -->
<!DOCTYPE svg PUBLIC "-//W3C//DTD SVG 1.1//EN" "http://www.w3.org/Graphics/SVG/1.1/DTD/svg11.dtd">
<svg version="1.1" xmlns="http://www.w3.org/2000/svg" xmlns:xlink="http://www.w3.org/1999/xlink" x="0px" y="0px"
	 viewBox="0 0 387.8 357.8" enable-background="new 0 0 387.8 357.8" xml:space="preserve">
<g id="O_1">
	<g id="STAR18">
	</g>
</g>
<g id="O_2">
</g>
<g id="O_3_1_">
	<g>
		<circle fill="none" stroke="#FF882A" stroke-width="15" stroke-miterlimit="10" cx="184.9" cy="182" r="148"/>
		<path fill="#FF882A" d="M184.3,134.7c17.3,0,28.6,9.9,28.6,26.2c0,11.2-5.6,20.4-16.1,25c12.9,2.4,20.1,13.2,20.1,25.3
			c0,18.5-14.1,30-32.6,30c-12.4,0-23.4-4-29.7-13c-1-1.5-1.6-3.1-1.6-4.6c0-1.8,0.7-3.4,2.4-4.4c1-0.6,2.1-1,3.1-1
			c2.1,0,4,1.2,5.5,3.1c5.5,6.4,12,8.1,20,8.1c12.9,0,20.4-8.1,20.4-18.6c0-11.1-8.7-18.1-21.2-18.1h-2.5c-3.8,0-6.4-2.5-6.4-5.9
			c0-3.4,2.5-5.9,6.4-5.9h1.8c9.2,0,17.9-7.3,17.9-17.9c0-10.2-6.4-16.4-16.9-16.4c-8,0-12.7,2.4-16.6,7.3c-1.5,1.8-3.4,2.7-5.3,2.7
			c-1,0-2.1-0.3-3.1-0.9c-1.3-0.9-2.2-2.4-2.2-4.1c0-1.3,0.4-2.7,1.3-4C163.4,139.2,172.8,134.7,184.3,134.7z"/>
	</g>
</g>
<g id="O_4_1_">
</g>
<g id="O_5_1_">
</g>
<g id="O_6_1_">
</g>
<g id="O_7_1_">
</g>
<g id="O_8">
</g>
<g id="O_9">
</g>
<g id="O_10">
</g>
<g id="O_11">
</g>
<g id="O_19">
</g>
<g id="O_18_1_">
</g>
<g id="O_17">
</g>
<g id="O_16">
</g>
<g id="O_15_1_">
</g>
<g id="O_14_1_">
</g>
<g id="O_20">
</g>
<g id="O_13_1_">
</g>
<g id="O_12_1_">
</g>
</svg>
