<?xml version="1.0" encoding="utf-8"?>
<!-- Generator: Adobe Illustrator 17.1.0, SVG Export Plug-In . SVG Version: 6.00 Build 0)  -->
<!DOCTYPE svg PUBLIC "-//W3C//DTD SVG 1.1//EN" "http://www.w3.org/Graphics/SVG/1.1/DTD/svg11.dtd">
<svg version="1.1" xmlns="http://www.w3.org/2000/svg" xmlns:xlink="http://www.w3.org/1999/xlink" x="0px" y="0px"
	 viewBox="0 0 556.2 254" enable-background="new 0 0 556.2 254" xml:space="preserve">
<g id="C1">
</g>
<g id="C2">
</g>
<g id="C3">
</g>
<g id="C4">
</g>
<g id="C6">
</g>
<g id="C7">
</g>
<g id="C8">
</g>
<g id="C9">
</g>
<g id="C10">
</g>
<g id="C11">
</g>
<g id="C12">
</g>
<g id="C13">
</g>
<g id="C14">
</g>
<g id="C15">
</g>
<g id="C16">
</g>
<g id="C17">
</g>
<g id="C18">
</g>
<g id="C19">
</g>
<g id="C20">
</g>
<g id="C21">
</g>
<g id="C22">
</g>
<g id="C23">
</g>
<g id="C24">
</g>
<g id="C25">
</g>
<g id="C29">
</g>
<g id="C30">
</g>
<g id="C31">
</g>
<g id="C32">
</g>
<g id="C33">
</g>
<g id="C34">
</g>
<g id="C35">
</g>
<g id="C36">
</g>
<g id="C37">
</g>
<g id="C38">
</g>
<g id="C39">
</g>
<g id="C40">
</g>
<g id="C41">
</g>
<g id="C42">
</g>
<g id="C43">
</g>
<g id="C44">
</g>
<g id="C45">
</g>
<g id="C46">
</g>
<g id="C47">
</g>
<g id="C48">
</g>
<g id="C49">
</g>
<g id="C50">
</g>
<g id="C51">
</g>
<g id="C52">
</g>
<g id="C53">
</g>
<g id="C54">
</g>
<g id="C55">
</g>
<g id="C56">
</g>
<g id="C57">
</g>
<g id="C58">
</g>
<g id="C59">
</g>
<g id="C60">
</g>
<g id="C61">
</g>
<g id="C62">
</g>
<g id="C63">
</g>
<g id="C64">
</g>
<g id="C65">
</g>
<g id="C66">
</g>
<g id="C67">
</g>
<g id="C68">
</g>
<g id="C69">
</g>
<g id="C70">
</g>
<g id="C71">
</g>
<g id="C72">
</g>
<g id="C73">
</g>
<g id="C74">
</g>
<g id="C75">
</g>
<g id="C76">
</g>
<g id="C77">
</g>
<g id="C78">
</g>
<g id="C79">
</g>
<g id="C80">
</g>
<g id="C81">
</g>
<g id="C82">
</g>
<g id="C83">
</g>
<g id="C84">
</g>
<g id="C85">
</g>
<g id="C86">
</g>
<g id="C87">
</g>
<g id="C88">
	<polygon fill="#FF882A" points="27.1,29.3 525,29.3 530.1,238 28.6,217.5 	"/>
	<polygon fill="#FFFFFF" points="17,19.8 514.9,19.8 520,228.5 18.5,208 	"/>
	<rect x="478.6" y="51.5" fill="none" stroke="#000000" stroke-width="1.0906" stroke-miterlimit="10" width="24" height="24"/>
	<path fill="#5E8E44" d="M474.1,56c5.1,4.5,11,10.3,14.4,15.9c0.8,1.4,2.9,1.3,3.6-0.2c3.1-6.3,10-19.6,19.5-31.8
		c1.5-2-1.1-4.4-3-2.8C503,42,496.5,48.6,489.4,57c-0.7,0.8-1.8,1-2.7,0.4c-2-1.3-5.8-3.6-10-5.6C474.2,50.7,472,54.1,474.1,56z"/>
</g>
<g id="C89">
</g>
<g id="C90">
</g>
<g id="C91">
</g>
<g id="C92">
</g>
</svg>
