<?xml version="1.0" encoding="utf-8"?>
<!-- Generator: Adobe Illustrator 17.1.0, SVG Export Plug-In . SVG Version: 6.00 Build 0)  -->
<!DOCTYPE svg PUBLIC "-//W3C//DTD SVG 1.1//EN" "http://www.w3.org/Graphics/SVG/1.1/DTD/svg11.dtd">
<svg version="1.1" xmlns="http://www.w3.org/2000/svg" xmlns:xlink="http://www.w3.org/1999/xlink" x="0px" y="0px"
	 viewBox="0 0 271.5 121.6" enable-background="new 0 0 271.5 121.6" xml:space="preserve">
<g id="BG_main">
</g>
<g id="Button_2">
	<rect id="Button_1_" x="40.8" y="37.8" fill="#BF6620" width="194.3" height="55"/>
</g>
<g id="Button6">
</g>
<g id="Text_6">
</g>
<g id="BG_3">
</g>
<g id="Button_4">
</g>
<g id="Button_3_1_">
</g>
<g id="Text_4">
</g>
<g id="Text3">
</g>
<g id="Teхt_2">
	<g>
		<path fill="#FFFFFF" d="M111.5,68.6c0,3.4-2.2,5.5-5.5,5.5h-5.5V55h5.2c3.1,0,5.1,2,5.1,5.2c0,1.9-0.8,3.4-1.9,4.1
			C110.4,65,111.5,66.6,111.5,68.6z M103.2,57.6v5.5h2.2c1.7,0,2.5-1,2.5-2.8c0-1.8-0.8-2.7-2.6-2.7H103.2z M108.6,68.6
			c0-2-1.2-3-3.2-3h-2.2v5.8h2.4C107.6,71.5,108.6,70.6,108.6,68.6z"/>
		<path fill="#FFFFFF" d="M123.3,74.1h-2.7v-12h-4v12H114V59.7h9.4V74.1z"/>
		<path fill="#FFFFFF" d="M136.4,69.6c-0.2,3.1-2.1,4.8-5.3,4.8c-3,0-4.9-2-4.9-5.4v-4.3c0-3.4,1.9-5.4,4.9-5.4c3.1,0,5,1.9,5,5.4
			v3.2h-7.3V69c0,2,0.9,2.9,2.3,2.9c1.6,0,2.3-0.7,2.6-2.3H136.4z M128.9,64.7v1.2h4.7v-1.2c0-2-0.9-2.8-2.4-2.8
			C129.7,61.8,128.9,62.7,128.9,64.7z"/>
		<path fill="#FFFFFF" d="M149,65v4c0,3.5-1.8,5.5-4.6,5.5c-1,0-2.1-0.4-2.8-1.1V79H139V59.7h1.9l0.2,1.3c0.7-0.9,2-1.6,3.3-1.6
			C147.1,59.4,149,61.4,149,65z M146.3,65c0-2.1-0.9-3.1-2.3-3.1c-1.4,0-2.3,1-2.3,3.1v4c0,1.9,0.9,3,2.3,3c1.5,0,2.3-0.9,2.3-3V65z
			"/>
		<path fill="#FFFFFF" d="M161.7,69.6c-0.2,3.1-2.1,4.8-5.3,4.8c-3,0-4.9-2-4.9-5.4v-4.3c0-3.4,1.9-5.4,4.9-5.4c3.1,0,5,1.9,5,5.4
			v3.2h-7.3V69c0,2,0.9,2.9,2.3,2.9c1.6,0,2.3-0.7,2.6-2.3H161.7z M153,55.8c0-0.8,0.5-1.4,1.4-1.4s1.4,0.5,1.4,1.4
			c0,0.8-0.5,1.4-1.4,1.4S153,56.6,153,55.8z M154.1,64.7v1.2h4.7v-1.2c0-2-0.9-2.8-2.4-2.8C155,61.8,154.1,62.7,154.1,64.7z
			 M156.8,55.8c0-0.8,0.5-1.4,1.4-1.4c0.8,0,1.4,0.5,1.4,1.4c0,0.8-0.5,1.4-1.4,1.4C157.3,57.2,156.8,56.6,156.8,55.8z"/>
		<path fill="#FFFFFF" d="M162.7,71.7h1.1c0.8-1.1,1.2-3,1.3-5.1c0.1-2.3,0.2-4.6,0.3-6.9h8.4v12h1.6v5.6h-2.6v-3.2h-7.6v3.2h-2.6
			V71.7z M171.1,71.7v-9.5h-3.3c0,1.7-0.1,3.4-0.2,5.1c-0.1,1.8-0.4,3.3-0.9,4.5H171.1z"/>
	</g>
</g>
<g id="BG_1">
</g>
<g id="BG_5">
</g>
<g id="Button_1">
</g>
<g id="Button_5">
</g>
<g id="Text5">
</g>
<g id="BG_9">
</g>
<g id="Button_9">
</g>
<g id="Text_9">
</g>
<g id="BG_10">
</g>
<g id="Button_10">
</g>
<g id="Text_10">
</g>
<g id="Button_8">
</g>
<g id="Text_8">
</g>
<g id="Button_7">
</g>
<g id="Text_7">
</g>
<g id="Text1">
</g>
</svg>
