<?xml version="1.0" encoding="utf-8"?>
<!-- Generator: Adobe Illustrator 17.1.0, SVG Export Plug-In . SVG Version: 6.00 Build 0)  -->
<!DOCTYPE svg PUBLIC "-//W3C//DTD SVG 1.1//EN" "http://www.w3.org/Graphics/SVG/1.1/DTD/svg11.dtd">
<svg version="1.1" xmlns="http://www.w3.org/2000/svg" xmlns:xlink="http://www.w3.org/1999/xlink" x="0px" y="0px"
	 viewBox="0 0 271.5 121.7" enable-background="new 0 0 271.5 121.7" xml:space="preserve">
<g id="BG_main">
</g>
<g id="Button_2">
</g>
<g id="Button6">
</g>
<g id="Text_6">
</g>
<g id="BG_3">
</g>
<g id="Button_4">
</g>
<g id="Button_3_1_">
</g>
<g id="Text_4">
</g>
<g id="Text3">
</g>
<g id="Teхt_2">
</g>
<g id="BG_1">
</g>
<g id="BG_5">
	
		<rect id="BG_3_" x="47.4" y="38.4" fill="none" stroke="#FFFFFF" stroke-width="2.4993" stroke-miterlimit="10" width="195" height="53.9"/>
</g>
<g id="Button_1">
</g>
<g id="Button_5">
	
		<rect id="Button_10_" x="41.3" y="29.4" fill="#FFFFFF" stroke="#FF882A" stroke-width="2" stroke-miterlimit="10" width="194.3" height="55"/>
</g>
<g id="Text5">
	<g>
		<path fill="#FF882A" d="M110,47.3h-6.5v16.8h-2.8V44.6h9.3V47.3z"/>
		<path fill="#FF882A" d="M109.1,58.8v-4.2c0-3.6,2-5.6,5.1-5.6c3.2,0,5.2,2,5.2,5.6v4.2c0,3.6-2,5.6-5.2,5.6
			C111,64.4,109.1,62.4,109.1,58.8z M116.7,58.8v-4.2c0-2.1-0.9-2.9-2.4-2.9c-1.5,0-2.4,0.9-2.4,2.9v4.2c0,2.1,0.9,2.9,2.4,2.9
			C115.7,61.8,116.7,60.9,116.7,58.8z"/>
		<path fill="#FF882A" d="M132,59.8c0,2.6-1.7,4.3-5.1,4.3h-4.6V49.4h4.4c3,0,4.6,1.5,4.6,4.1c0,1.1-0.6,2.1-1.6,2.8
			C131.3,56.9,132,58.4,132,59.8z M124.9,55.4h1.6c1.4,0,2.1-0.7,2.1-1.9c0-1.1-0.7-1.9-2.1-1.9h-1.6V55.4z M129.3,59.7
			c0-1.3-0.8-2-2.3-2h-2.1v4.1h2.1C128.6,61.8,129.3,61.1,129.3,59.7z"/>
		<path fill="#FF882A" d="M133.9,58.8v-4.2c0-3.6,2-5.6,5.1-5.6c3.2,0,5.2,2,5.2,5.6v4.2c0,3.6-2,5.6-5.2,5.6
			C135.9,64.4,133.9,62.4,133.9,58.8z M141.5,58.8v-4.2c0-2.1-0.9-2.9-2.4-2.9c-1.5,0-2.4,0.9-2.4,2.9v4.2c0,2.1,0.9,2.9,2.4,2.9
			C140.6,61.8,141.5,60.9,141.5,58.8z"/>
		<path fill="#FF882A" d="M157.2,54.8v4c0,3.6-1.8,5.6-4.7,5.6c-1.1,0-2.1-0.4-2.8-1.2v5.8h-2.6V49.4h1.9l0.2,1.4
			c0.7-0.9,2-1.7,3.3-1.7C155.3,49.1,157.2,51.2,157.2,54.8z M154.5,54.8c0-2.2-0.9-3.1-2.4-3.1c-1.4,0-2.4,1-2.4,3.1v4.1
			c0,1.9,0.9,3.1,2.4,3.1c1.6,0,2.4-0.9,2.4-3.1V54.8z"/>
		<path fill="#FF882A" d="M168.6,49.4v14.6H166v-4.9h-1.6l-2.6,4.9h-3.1l3.1-5.3c-1.5-0.6-2.6-2.1-2.6-4.5c0-3,2-4.8,4.9-4.8H168.6z
			 M166,51.9h-1.8c-1.6,0-2.4,0.9-2.4,2.4c0,1.6,0.8,2.5,2.3,2.5h1.8V51.9z"/>
		<path fill="#FF882A" d="M179.7,52h-3.4v12.1h-2.7V52h-3.3v-2.5h9.4V52z"/>
	</g>
</g>
<g id="BG_9">
</g>
<g id="Button_9">
</g>
<g id="Text_9">
</g>
<g id="BG_10">
</g>
<g id="Button_10">
</g>
<g id="Text_10">
</g>
<g id="Button_8">
</g>
<g id="Text_8">
</g>
<g id="Button_7">
</g>
<g id="Text_7">
</g>
<g id="Text1">
</g>
</svg>
