<?xml version="1.0" encoding="utf-8"?>
<!-- Generator: Adobe Illustrator 17.1.0, SVG Export Plug-In . SVG Version: 6.00 Build 0)  -->
<!DOCTYPE svg PUBLIC "-//W3C//DTD SVG 1.1//EN" "http://www.w3.org/Graphics/SVG/1.1/DTD/svg11.dtd">
<svg version="1.1" xmlns="http://www.w3.org/2000/svg" xmlns:xlink="http://www.w3.org/1999/xlink" x="0px" y="0px"
	 viewBox="0 0 285.7 120" enable-background="new 0 0 285.7 120" xml:space="preserve">
<g id="BG_main">
</g>
<g id="Button_2">
</g>
<g id="Button6">
</g>
<g id="Text_6">
</g>
<g id="BG_3">
</g>
<g id="Button_4">
</g>
<g id="Button_3_1_">
</g>
<g id="Text_4">
</g>
<g id="Text3">
</g>
<g id="Teхt_2">
</g>
<g id="BG_1">
</g>
<g id="BG_5">
</g>
<g id="Button_1">
</g>
<g id="Button_5">
</g>
<g id="Text5">
</g>
<g id="BG_9">
</g>
<g id="Button_9">
</g>
<g id="Text_9">
</g>
<g id="BG_10">
</g>
<g id="Button_10">
</g>
<g id="Text_10">
</g>
<g id="Button_8">
	<rect id="Button_7_" x="31.6" y="28.8" fill="#FF882A" width="194.3" height="55"/>
</g>
<g id="Text_8">
	<g>
		<path fill="#FFFFFF" d="M98.5,46.7H92v16.8h-2.8V44.1h9.3V46.7z"/>
		<path fill="#FFFFFF" d="M97.6,58.3v-4.2c0-3.6,2-5.6,5.1-5.6c3.2,0,5.2,2,5.2,5.6v4.2c0,3.6-2,5.6-5.2,5.6
			C99.6,63.9,97.6,61.9,97.6,58.3z M105.2,58.3v-4.2c0-2.1-0.9-2.9-2.4-2.9c-1.5,0-2.4,0.9-2.4,2.9v4.2c0,2.1,0.9,2.9,2.4,2.9
			C104.3,61.2,105.2,60.4,105.2,58.3z"/>
		<path fill="#FFFFFF" d="M120.5,59.3c0,2.6-1.7,4.3-5.1,4.3h-4.6V48.9h4.4c3,0,4.6,1.5,4.6,4.1c0,1.1-0.6,2.1-1.6,2.8
			C119.8,56.4,120.5,57.8,120.5,59.3z M113.4,54.9h1.6c1.4,0,2.1-0.7,2.1-1.9c0-1.1-0.7-1.9-2.1-1.9h-1.6V54.9z M117.9,59.2
			c0-1.3-0.8-2-2.3-2h-2.1v4.1h2.1C117.1,61.2,117.9,60.5,117.9,59.2z"/>
		<path fill="#FFFFFF" d="M122.4,58.3v-4.2c0-3.6,2-5.6,5.1-5.6c3.2,0,5.2,2,5.2,5.6v4.2c0,3.6-2,5.6-5.2,5.6
			C124.4,63.9,122.4,61.9,122.4,58.3z M130,58.3v-4.2c0-2.1-0.9-2.9-2.4-2.9c-1.5,0-2.4,0.9-2.4,2.9v4.2c0,2.1,0.9,2.9,2.4,2.9
			C129.1,61.2,130,60.4,130,58.3z"/>
		<path fill="#FFFFFF" d="M145.8,54.2v4c0,3.6-1.8,5.6-4.7,5.6c-1.1,0-2.1-0.4-2.8-1.2v5.8h-2.6V48.9h1.9l0.2,1.4
			c0.7-0.9,2-1.7,3.3-1.7C143.9,48.5,145.8,50.6,145.8,54.2z M143,54.2c0-2.2-0.9-3.1-2.4-3.1c-1.4,0-2.4,1-2.4,3.1v4.1
			c0,1.9,0.9,3.1,2.4,3.1c1.6,0,2.4-0.9,2.4-3.1V54.2z"/>
		<path fill="#FFFFFF" d="M157.2,48.9v14.6h-2.6v-4.9H153l-2.6,4.9h-3.1l3.1-5.3c-1.5-0.6-2.6-2.1-2.6-4.5c0-3,2-4.8,4.9-4.8H157.2z
			 M154.6,51.3h-1.8c-1.6,0-2.4,0.9-2.4,2.4c0,1.6,0.8,2.5,2.3,2.5h1.8V51.3z"/>
		<path fill="#FFFFFF" d="M168.3,51.4h-3.4v12.1h-2.7V51.4h-3.3v-2.5h9.4V51.4z"/>
	</g>
</g>
<g id="Button_7">
</g>
<g id="Text_7">
</g>
<g id="Text1">
</g>
</svg>
