<?xml version="1.0" encoding="utf-8"?>
<!-- Generator: Adobe Illustrator 17.1.0, SVG Export Plug-In . SVG Version: 6.00 Build 0)  -->
<!DOCTYPE svg PUBLIC "-//W3C//DTD SVG 1.1//EN" "http://www.w3.org/Graphics/SVG/1.1/DTD/svg11.dtd">
<svg version="1.1" xmlns="http://www.w3.org/2000/svg" xmlns:xlink="http://www.w3.org/1999/xlink" x="0px" y="0px"
	 viewBox="0 0 212.2 86.7" enable-background="new 0 0 212.2 86.7" xml:space="preserve">
<g id="BG_main">
</g>
<g id="Button_2">
</g>
<g id="Button6">
</g>
<g id="Text_6">
</g>
<g id="BG_3">
	
		<rect id="BG_2_" x="9.6" y="24" fill="none" stroke="#FFFFFF" stroke-width="2.4993" stroke-miterlimit="10" width="195" height="53.9"/>
</g>
<g id="Button_4">
</g>
<g id="Button_3_1_">
	
		<rect id="Button_3_" x="2.8" y="14.3" fill="#FFFFFF" stroke="#FF882A" stroke-width="2" stroke-miterlimit="10" width="194.3" height="55"/>
</g>
<g id="Text_4">
</g>
<g id="Text3">
</g>
<g id="Teхt_2">
</g>
<g id="BG_1">
</g>
<g id="BG_5">
</g>
<g id="Button_1">
</g>
<g id="Button_5">
</g>
<g id="Text5">
</g>
<g id="BG_9">
</g>
<g id="Button_9">
</g>
<g id="Text_9">
</g>
<g id="BG_10">
</g>
<g id="Button_10">
</g>
<g id="Text_10">
</g>
<g id="Button_8">
</g>
<g id="Text_8">
</g>
<g id="Button_7">
</g>
<g id="Text_7">
	<g>
		<path fill="#FF882A" d="M104.8,47.5v6.1H102v-3.4h-9.7v3.4h-2.9v-6.1h1.2c1.5-1.5,2.2-4.6,2.3-7.7l0.3-9.8h9.8v17.5H104.8z
			 M100.1,32.7H96l-0.3,7.9c-0.1,2.9-0.6,5.2-1.6,6.9h6V32.7z"/>
		<path fill="#FF882A" d="M116.9,40.1v10.2h-2.3l-0.2-1.4c-0.6,1-1.7,1.8-3.4,1.8c-2.8,0-4.7-1.9-4.7-4.7c0-3.1,2.2-4.7,5.5-4.7h2.2
			v-1.1c0-1.8-0.7-2.8-2.2-2.8c-1.2,0-2.2,0.7-2.3,2h-2.8c0.1-2.9,2.1-4.7,5.2-4.7C115.2,34.5,116.9,36.5,116.9,40.1z M114.1,43.6
			h-2.2c-1.7,0-2.7,0.8-2.7,2.3c0,1.4,0.9,2.2,2.4,2.2s2.5-1,2.5-2.4V43.6z"/>
	</g>
</g>
<g id="Text1">
</g>
</svg>
