<?xml version="1.0" encoding="utf-8"?>
<!-- Generator: Adobe Illustrator 17.1.0, SVG Export Plug-In . SVG Version: 6.00 Build 0)  -->
<!DOCTYPE svg PUBLIC "-//W3C//DTD SVG 1.1//EN" "http://www.w3.org/Graphics/SVG/1.1/DTD/svg11.dtd">
<svg version="1.1" xmlns="http://www.w3.org/2000/svg" xmlns:xlink="http://www.w3.org/1999/xlink" x="0px" y="0px"
	 viewBox="0 0 221.3 86.7" enable-background="new 0 0 221.3 86.7" xml:space="preserve">
<g id="BG_main">
</g>
<g id="Button_2">
</g>
<g id="Button6">
</g>
<g id="Text_6">
</g>
<g id="BG_3">
	
		<rect id="BG_5_" x="19.4" y="24" fill="none" stroke="#FFFFFF" stroke-width="2.4993" stroke-miterlimit="10" width="195" height="53.9"/>
</g>
<g id="Button_4">
</g>
<g id="Button_3_1_">
	
		<rect id="Button_12_" x="12.6" y="14.3" fill="#FFFFFF" stroke="#FF882A" stroke-width="2" stroke-miterlimit="10" width="194.3" height="55"/>
</g>
<g id="Text_4">
</g>
<g id="Text3">
</g>
<g id="Teхt_2">
</g>
<g id="BG_1">
</g>
<g id="BG_5">
</g>
<g id="Button_1">
</g>
<g id="Button_5">
</g>
<g id="Text5">
</g>
<g id="BG_9">
</g>
<g id="Button_9">
</g>
<g id="Text_9">
</g>
<g id="BG_10">
</g>
<g id="Button_10">
</g>
<g id="Text_10">
</g>
<g id="Button_8">
</g>
<g id="Text_8">
</g>
<g id="Button_7">
</g>
<g id="Text_7">
	<g>
		<path fill="#FF882A" d="M103.8,29.9v20.3h-2.9v-8.9h-5.7v8.9h-2.9V29.9h2.9v8.6h5.7v-8.6H103.8z"/>
		<path fill="#FF882A" d="M118,45.4c-0.3,3.2-2.3,5.1-5.6,5.1c-3.2,0-5.2-2.1-5.2-5.7v-4.6c0-3.6,2-5.7,5.2-5.7
			c3.3,0,5.3,2.1,5.3,5.7v3.4H110v1.2c0,2.1,0.9,3,2.4,3c1.7,0,2.4-0.8,2.7-2.4H118z M110,40.2v1.3h5v-1.3c0-2.1-0.9-3-2.5-3
			C110.9,37.2,110,38.1,110,40.2z"/>
		<path fill="#FF882A" d="M129.1,37.6h-3.5v12.6h-2.8V37.6h-3.5v-2.6h9.8V37.6z"/>
	</g>
</g>
<g id="Text1">
</g>
</svg>
