<?xml version="1.0" encoding="utf-8"?>
<!-- Generator: Adobe Illustrator 17.1.0, SVG Export Plug-In . SVG Version: 6.00 Build 0)  -->
<!DOCTYPE svg PUBLIC "-//W3C//DTD SVG 1.1//EN" "http://www.w3.org/Graphics/SVG/1.1/DTD/svg11.dtd">
<svg version="1.1" id="Layer_1" xmlns="http://www.w3.org/2000/svg" xmlns:xlink="http://www.w3.org/1999/xlink" x="0px" y="0px"
	 viewBox="0 0 1001 670" enable-background="new 0 0 1001 670" xml:space="preserve">
<polygon fill="#FF882A" points="422.4,297.1 382.1,587.2 865.1,581.3 851.2,282.6 "/>
<g>
	<defs>
		<polygon id="SVGID_1_" points="411,284.9 370.8,575 853.7,569.1 839.8,270.4 		"/>
	</defs>
	<clipPath id="SVGID_2_">
		<use xlink:href="#SVGID_1_"  overflow="visible"/>
	</clipPath>
	<polygon clip-path="url(#SVGID_2_)" fill="#FFFFFF" points="411,284.9 370.8,575 853.7,569.1 839.8,270.4 	"/>
	<g clip-path="url(#SVGID_2_)">
		<path fill="#C29178" d="M821.9,469.5c0,0,8-28.3,11.8-30.4c3.8-2.1,0.3,8.1-1.6,12.8s10.2,2.7,5,11.3c-5.2,8.6-8.4,12.6-8.4,12.6
			L821.9,469.5z"/>
		<path fill="#B85700" d="M765.2,377.1c0,0-25.3-5.4-30.3,19.6c-5.3,26.4-15.6,46.2,15.3,53.8c37.8,9.3,53.2-21.3,49.7-33.1
			C796.3,405.2,765.2,377.1,765.2,377.1z"/>
		<path fill="#219FA3" d="M801.3,528.4c0,0,20.6-19.3,30.5-55.8c0,0-4.1-4.1-9.8-5.2c0,0-29.9,41.2-27.9,53
			C795.8,530.4,801.3,528.4,801.3,528.4z"/>
		<path fill="#219FA3" d="M786.5,455.1c7.8,4,13,22.7,14.9,36.8c3.1,23.1,6.1,35.9-1.8,37c-12.2,1.6-17.9-34.3-19-42.2
			C776.7,456.8,786.5,455.1,786.5,455.1z"/>
		<path fill="#23A7AB" d="M750.3,448.1l-22.8,7.3c0,0-0.7,6.5-0.7,33.5c0,15.3,20.8,48.9-2.6,86.2c0,0,28.8,18.7,66.6,2.5
			c0,0-3.5-15.6-3.5-30.2c0-28.1,11.4-41,11.4-62.2c0-12.9-10.3-29.8-10.3-29.8l-19-7.3L750.3,448.1z"/>
		<path fill="#166C6F" d="M767.6,445.5c-6.6-2.3-13.4-0.9-17,0.2l0.1,7l13.8,2.2l8.7-3.1C772,449.3,770.1,447.2,767.6,445.5z"/>
		<g>
			<circle fill="#FF882A" cx="751.1" cy="475.9" r="7.3"/>
			<path fill="#FFFFFF" d="M755.8,473.1c-0.2,0-0.4,0-0.5,0c-0.2-0.1-0.3-0.1-0.4-0.3c-0.1-0.1-0.2-0.3-0.2-0.4c0-0.2,0-0.3,0-0.5
				c0.1-0.2,0.2-0.3,0.3-0.4c0.1-0.1,0.3-0.2,0.5-0.2c0.2,0,0.4,0,0.5,0c0.2,0.1,0.3,0.1,0.4,0.3c0.1,0.1,0.2,0.3,0.2,0.4
				c0,0.2,0,0.3,0,0.5c-0.1,0.2-0.2,0.3-0.3,0.4C756.1,473,755.9,473.1,755.8,473.1z M755.7,472.7c0.1,0,0.2-0.1,0.3-0.2
				s0.1-0.2,0.1-0.4c0-0.1-0.1-0.3-0.2-0.3c-0.1-0.1-0.2-0.1-0.3-0.1c-0.1,0-0.2,0.1-0.3,0.2c-0.1,0.1-0.1,0.2-0.1,0.4
				c0,0.1,0.1,0.3,0.2,0.3C755.4,472.7,755.6,472.7,755.7,472.7z"/>
			<path fill="#FFFFFF" d="M753,471.7c0.1,0,0.2,0,0.3,0s0.2,0.1,0.3,0.1l0-0.2l0.5-0.1l0.3,1.8l-0.5,0.1l-0.1-0.9
				c0-0.2-0.1-0.3-0.2-0.3c-0.1-0.1-0.2-0.1-0.3-0.1c-0.1,0-0.2,0.1-0.2,0.1c0,0.1-0.1,0.2,0,0.3l0.2,0.9l-0.5,0.1l-0.2-1
				c0-0.3,0-0.5,0.1-0.6S752.8,471.8,753,471.7z"/>
			<path fill="#FFFFFF" d="M750.2,473.1c0-0.2,0-0.3,0-0.5c0.1-0.2,0.1-0.3,0.3-0.4c0.1-0.1,0.3-0.2,0.4-0.2c0.2,0,0.3,0,0.5,0
				c0.2,0.1,0.3,0.1,0.4,0.3c0.1,0.1,0.2,0.3,0.2,0.4c0,0.2,0,0.3,0,0.5c-0.1,0.2-0.2,0.3-0.3,0.4c-0.1,0.1-0.3,0.2-0.5,0.2
				c-0.3,0.1-0.6,0-0.8-0.2l0.2-0.3c0.1,0,0.1,0.1,0.2,0.1c0.1,0,0.2,0,0.2,0c0.1,0,0.2-0.1,0.3-0.1c0.1-0.1,0.1-0.2,0.1-0.3
				l-1.3,0.2C750.2,473.2,750.2,473.1,750.2,473.1z M751,472.5c-0.1,0-0.2,0.1-0.3,0.1c-0.1,0.1-0.1,0.2-0.1,0.3l0.9-0.1
				c0-0.1-0.1-0.2-0.2-0.2C751.2,472.4,751.1,472.4,751,472.5z"/>
			<path fill="#FFFFFF" d="M756,475.6c0.1,0,0.1,0,0.2,0c0.1,0,0.1,0,0.2-0.1c0,0,0-0.1,0-0.2l-0.1-0.7l-0.4,0.1l-0.1-0.4l0.4-0.1
				l-0.1-0.4l0.5-0.1l0.1,0.4l0.3,0l0.1,0.4l-0.3,0l0.1,0.7c0,0.2,0,0.4-0.1,0.5c-0.1,0.1-0.2,0.2-0.5,0.2c-0.1,0-0.2,0-0.2,0
				c-0.1,0-0.1,0-0.2-0.1L756,475.6z"/>
			<path fill="#FFFFFF" d="M752.9,474.8l0.6,1.1l0.2-1.3l0.4-0.1l0.6,1.1l0.2-1.3l0.5-0.1l-0.3,1.9l-0.5,0.1l-0.6-1l-0.2,1.2
				l-0.5,0.1l-0.9-1.6L752.9,474.8z"/>
			<path fill="#FFFFFF" d="M751.7,476.8c-0.2,0-0.4,0-0.5,0c-0.2-0.1-0.3-0.1-0.4-0.3c-0.1-0.1-0.2-0.3-0.2-0.4c0-0.2,0-0.3,0-0.5
				c0.1-0.2,0.2-0.3,0.3-0.4c0.1-0.1,0.3-0.2,0.5-0.2c0.2,0,0.4,0,0.5,0c0.2,0.1,0.3,0.1,0.4,0.3c0.1,0.1,0.2,0.3,0.2,0.4
				c0,0.2,0,0.3,0,0.5c-0.1,0.2-0.2,0.3-0.3,0.4C752,476.7,751.9,476.8,751.7,476.8z M751.6,476.4c0.1,0,0.2-0.1,0.3-0.2
				s0.1-0.2,0.1-0.4c0-0.1-0.1-0.3-0.2-0.3c-0.1-0.1-0.2-0.1-0.3-0.1c-0.1,0-0.2,0.1-0.3,0.2c-0.1,0.1-0.1,0.2-0.1,0.4
				c0,0.1,0.1,0.3,0.2,0.3C751.4,476.4,751.5,476.4,751.6,476.4z"/>
			<path fill="#FFFFFF" d="M756.7,478.7c-0.2,0-0.4,0-0.5,0c-0.2-0.1-0.3-0.1-0.4-0.3l0.4-0.3c0.1,0.1,0.3,0.2,0.4,0.2
				c0.1,0,0.2-0.1,0.3-0.2c0.1-0.1,0.1-0.2,0.1-0.4c0-0.1-0.1-0.3-0.2-0.3c-0.1-0.1-0.2-0.1-0.4-0.1c-0.2,0-0.3,0.1-0.4,0.3
				l-0.4-0.1c0-0.2,0.1-0.3,0.2-0.4c0.1-0.1,0.3-0.2,0.5-0.2c0.2,0,0.4,0,0.5,0c0.2,0.1,0.3,0.1,0.4,0.3c0.1,0.1,0.2,0.3,0.2,0.4
				c0,0.2,0,0.3,0,0.5c-0.1,0.2-0.2,0.3-0.3,0.4C757,478.6,756.9,478.7,756.7,478.7z"/>
			<path fill="#FFFFFF" d="M754.3,477.3c0.1,0,0.3,0,0.4,0c0.1,0,0.3,0,0.4,0.1l-0.1,0.4c-0.1,0-0.2-0.1-0.2-0.1c-0.1,0-0.2,0-0.3,0
				c-0.1,0-0.2,0.1-0.3,0.1c-0.1,0.1-0.1,0.2-0.1,0.3l0.4-0.1c0.3,0,0.5,0,0.6,0c0.1,0.1,0.2,0.2,0.2,0.4c0,0.1,0,0.2,0,0.3
				c0,0.1-0.1,0.2-0.2,0.2c-0.1,0.1-0.2,0.1-0.3,0.1c-0.3,0-0.5,0-0.6-0.2l0,0.2l-0.5,0.1l-0.2-1c0-0.3,0-0.5,0.1-0.6
				C753.8,477.4,754,477.3,754.3,477.3z M754.6,478.7c0.1,0,0.2,0,0.2-0.1c0,0,0.1-0.1,0.1-0.2c0-0.1-0.1-0.2-0.3-0.2l-0.3,0.1
				l0,0.2c0,0.1,0.1,0.1,0.2,0.2C754.4,478.7,754.5,478.7,754.6,478.7z"/>
			<path fill="#FFFFFF" d="M752.2,477.9l0-0.2l0.5-0.1l0.3,1.8l-0.5,0.1l-0.1-0.8c0-0.2-0.1-0.3-0.2-0.3c-0.1-0.1-0.2-0.1-0.4-0.1
				c0,0-0.1,0-0.1,0l-0.1-0.5c0.1,0,0.3,0,0.4,0C752.1,477.7,752.2,477.8,752.2,477.9z"/>
			<path fill="#FFFFFF" d="M749.4,479c0-0.2,0-0.3,0-0.5c0.1-0.2,0.1-0.3,0.3-0.4c0.1-0.1,0.3-0.2,0.4-0.2c0.2,0,0.3,0,0.5,0
				c0.2,0.1,0.3,0.1,0.4,0.3c0.1,0.1,0.2,0.3,0.2,0.4c0,0.2,0,0.3,0,0.5c-0.1,0.2-0.2,0.3-0.3,0.4c-0.1,0.1-0.3,0.2-0.5,0.2
				c-0.3,0.1-0.6,0-0.8-0.2l0.2-0.3c0.1,0,0.1,0.1,0.2,0.1c0.1,0,0.2,0,0.2,0c0.1,0,0.2-0.1,0.3-0.1c0.1-0.1,0.1-0.2,0.1-0.3
				l-1.3,0.2C749.5,479.1,749.5,479,749.4,479z M750.3,478.3c-0.1,0-0.2,0.1-0.3,0.1c-0.1,0.1-0.1,0.2-0.1,0.3l0.9-0.1
				c0-0.1-0.1-0.2-0.2-0.2C750.5,478.3,750.4,478.3,750.3,478.3z"/>
			<path fill="#FFFFFF" d="M747.1,479.4c0-0.2,0-0.3,0-0.5c0.1-0.2,0.1-0.3,0.3-0.4c0.1-0.1,0.3-0.2,0.4-0.2c0.2,0,0.3,0,0.5,0
				c0.2,0.1,0.3,0.1,0.4,0.3c0.1,0.1,0.2,0.3,0.2,0.4c0,0.2,0,0.3,0,0.5c-0.1,0.2-0.2,0.3-0.3,0.4c-0.1,0.1-0.3,0.2-0.5,0.2
				c-0.3,0.1-0.6,0-0.8-0.2l0.2-0.3c0.1,0,0.1,0.1,0.2,0.1c0.1,0,0.2,0,0.2,0c0.1,0,0.2-0.1,0.3-0.1c0.1-0.1,0.1-0.2,0.1-0.3
				l-1.3,0.2C747.1,479.5,747.1,479.4,747.1,479.4z M747.9,478.7c-0.1,0-0.2,0.1-0.3,0.1c-0.1,0.1-0.1,0.2-0.1,0.3l0.9-0.1
				c0-0.1-0.1-0.2-0.2-0.2C748.1,478.7,748,478.7,747.9,478.7z"/>
			<path fill="#FFFFFF" d="M745.9,478.9l0-0.2l0.5-0.1l0.3,1.8l-0.5,0.1l-0.1-0.8c0-0.2-0.1-0.3-0.2-0.3c-0.1-0.1-0.2-0.1-0.4-0.1
				c0,0-0.1,0-0.1,0l-0.1-0.5c0.1,0,0.3,0,0.4,0C745.7,478.8,745.8,478.9,745.9,478.9z"/>
		</g>
		<path fill="#23A7AB" d="M802.3,498.1c10.4,5,25.5-28.5,25.6-28.5c2.5,1.4,4,3,4,3c-9.9,36.6-29,54.7-29,54.7s-8.8,6.4-11.7-6.9
			C790.2,515.9,797.2,507.2,802.3,498.1z"/>
		<path fill="#219FA3" d="M741.9,499.2c13.7,5.9,30.4,1.1,34.8,1.1c4.3,0,14.2,2.3,20.3-0.8c-3.2,14.1-9.7,26.6-9.7,47.9
			c0,14.7,3.5,30.2,3.5,30.2c-37.7,16.2-66.6-2.5-66.6-2.5c23.4-37.3,2.6-70.9,2.6-86.2c0-5.9,0-10.9,0.1-15l7.4-1.4
			C734.2,472.5,727.3,492.9,741.9,499.2z"/>
		<path fill="#166C6F" d="M765.2,452.7c0,0,14.3,14.7,14.3,32.2c0,18.8-8.4,36.3-9.2,60.8c-0.3,10.7,1.9,37.5,1.9,37.5
			s-2.8-16.3-2.8-38.8c0-19,8.6-41.4,8.6-59.4C777.9,466.6,765.2,452.7,765.2,452.7z"/>
		<path fill="#C29178" d="M789.7,413c0.5-5.8,0.3-13.8-1.8-19.3c-4.5-11.6-17.6-12.6-25.4-11c-8.8,1.9-16.4,8.9-19.8,17.7
			c-3.3,8.8,13.5,40.4,7.5,50.1c4.1,5.6,14.2,5.3,16.1,4.3c9.9-5.2,4.7-4.3,4.7-4.3c-4.1,0-4.7-7.9-0.9-7.9
			c7.8-0.2,12.7-4.6,16-11.2C789,425.6,789.1,419.4,789.7,413z"/>
		<path fill="#B37454" d="M789.7,412.4c0,0.2,0,0.4-0.1,0.6c-0.3,3.4-0.5,6.8-1,10.1c-14.7-9-24.8-35.1-24.8-35.1L789.7,412.4z"/>
		<path fill="#D26300" d="M765.2,377.1c0,0-29.5-2.3-24.7,33.1C740.4,410.2,769.4,394.3,765.2,377.1z"/>
		<line fill="none" stroke="#FFFFFF" stroke-width="1.3716" stroke-miterlimit="10" x1="755.7" y1="410.2" x2="740.9" y2="407.6"/>
		<path fill="#C29178" d="M748.8,412.9c0,0-11-12.1-10.9,0.1s10.6,10,10.6,10L748.8,412.9z"/>
		<path fill="#B37454" d="M770.1,442.6c-3.5,0.1-3.2,6.8,0.1,7.8h0c-9.9-1.1-9.8-9.7-9.8-9.7C765,442.9,769.5,442.6,770.1,442.6z"/>
		<circle fill="none" stroke="#FFFFFF" stroke-width="1.3716" stroke-miterlimit="10" cx="785.9" cy="414" r="9.1"/>
		<path fill="#B37454" d="M740.6,409.2c0,0-2.4,5.5,2.2,10.7C742.8,419.9,735.8,415.8,740.6,409.2z"/>
		<path fill="#D26300" d="M760.5,377.3c-2.4,2.3,18.8,47.8,39.8,42.1c0,0-8.7-39.8-25.3-44C769,373.9,761.5,374.5,760.5,377.3z"/>
		<path fill="#D26300" d="M754.2,463.5"/>
		<circle fill="none" stroke="#FFFFFF" stroke-width="1.3716" stroke-miterlimit="10" cx="763.9" cy="414.5" r="9.1"/>
		<path fill="none" stroke="#FFFFFF" stroke-width="1.3716" stroke-miterlimit="10" d="M776.8,414c0,0-1.3-1.7-3.8,0"/>
		<path fill="#E37512" d="M762.3,375.7c0,0,18.5-2.3,32.8,26.3C795.1,401.9,786.2,367.8,762.3,375.7z"/>
		<path fill="#C29178" d="M744,565.8c0,0,6.6,11.5,14.6,15.3c5.3,2.5,5.2,14.3-7.6,8.1c-13.1-6.3-14.6-24-14.6-24L744,565.8z"/>
		<path fill="#D26300" d="M764,388.2c0,0-1.7,18.5-21,20.4c0,0,17.3-6,18.7-20.4C761.9,386,764,388.2,764,388.2z"/>
		<path fill="#1E9094" d="M727.5,455.3c-7.8,4-13,22.7-14.9,36.8c-3.1,23.1-6.1,35.9,1.8,37c12.2,1.6,17.9-34.3,19-42.2
			C737.3,457,727.5,455.3,727.5,455.3z"/>
		<path fill="#1E9094" d="M768.8,453.4l2.2,12.9c-21.9-1.9-26.5-16.4-26.5-16.4s3.1-3.4,6.1-4.2
			C750.6,445.7,755.2,454.2,768.8,453.4z"/>
		<path fill="#C29178" d="M747,565.8c6.5,7.3,15.2,7.2,12.7,10.8c-2.8,4.1-22.2-9.5-22.2-9.5L747,565.8z"/>
		<path fill="#1E9094" d="M773.8,449.9c0,0-4-4-6.1-4.4c0,0,4,2.9,1.2,7.9c0,0,5.2,3.8,6.1,12C774.9,465.3,778.5,459.3,773.8,449.9z
			"/>
		<path fill="#166C6F" d="M731.8,496.1c0,0,20.5,41.6-4.3,80.7C727.5,576.8,749.7,544.3,731.8,496.1z"/>
		<path fill="#1E9094" d="M711,527.2c5.5,10.1,18.4,33.2,26.4,43.8c0,0,6.9-2.2,9.5-5.2L725.6,517c-1.6-3.6-7.3-4-11-0.6l-1.2,1.1
			C710.4,520.2,709.5,524.4,711,527.2z"/>
		<path fill="#166C6F" d="M727.5,455.3c0,0,11.1,3.9,5.4,34.5C732.9,489.8,736.1,463.5,727.5,455.3z"/>
	</g>
	<g clip-path="url(#SVGID_2_)">
		<path fill="#E2E2E2" d="M678.2,440.2l10.1,5.9l16.3,136.2c0,0-14.7,12.3-50.1,3.5c-35.4-8.7-15.3-93.1-15.3-93.1l-5.7-37.4
			l-0.9-12.4l21.9-4.7L678.2,440.2z"/>
		<path fill="#C29178" d="M648.3,414.4c2.4,5.1,4.6,11.5,1.6,17.6c-1.2,2.5-0.5,5.6,1.7,7.4c6.7,5.5,13.8,7.8,21.2,2.4
			c2.5-1.8,0-6.2,0-10.1c0-7.7-0.7-13.1,1.4-16.7L648.3,414.4z"/>
		<path fill="#D1D1D1" d="M662.5,575.8c0,0,38.8-5.1,29.6-54.4l12.5,61c0,0-23.6,17.6-59.8-1.8L662.5,575.8z"/>
		<path fill="#C29178" d="M660.8,361.2c-12.9,1.7-22,13.4-20.8,26.3c1.7,18,10.7,42.5,31.5,42.5c17.2,0,17.1-34.6,16.2-52.6
			c-0.7-13.9-12.4-17.7-26.2-16.2C661.3,361.1,661,361.2,660.8,361.2z"/>
		<polygon fill="#F65287" points="664.4,448.8 670,542.3 680.9,555.5 690.1,540.7 671.5,448.8 		"/>
		<path fill="#63728F" d="M647.8,435.8l-27.7,13l4.9,148.3c0,0,29.4,0,35.4-8C664.9,583,656.7,446.7,647.8,435.8z"/>
		<g>
			<g>
				<path fill="#B37454" d="M672.7,431.8c0-0.7,0-1.4,0-2.1c0,0-5.1,1.1-10.6-1.3c4,3,9.2,7.9,10.5,13.7c0.1,0,0.1-0.1,0.2-0.1
					C675.2,440.1,672.7,435.7,672.7,431.8z"/>
			</g>
		</g>
		<polygon fill="#D44674" points="663.7,440.7 670,440.2 674.3,447.5 668.5,452 660.5,447.5 		"/>
		<path fill="#5E6C87" d="M694.8,440.2c5.9,3.5,18.6,23.6,28.2,74.6C723.1,514.8,675.2,505.8,694.8,440.2z"/>
		<path fill="#EFEFEF" d="M650.3,431l-5.1,9.7l17.3,14.6l1.2-14.6C654.5,439.5,650.3,431,650.3,431z"/>
		<path fill="#323948" d="M651.2,480c0,0-3.9,1.4-10.6,1C640.6,481,644.8,483,651.2,480z"/>
		<path fill="#323948" d="M628.6,593.4l-2.3-71.4C626.3,522.1,625.2,564.4,628.6,593.4z"/>
		<path fill="#63728F" d="M675.1,435.2c0,0,22.3,86.8,19.9,153.8l14,6.3c0,0,1.3-100.7-14.2-155.1L675.1,435.2z"/>
		<path fill="#536078" d="M647.8,435.8L637,455.3l12.2,2.9l-7.7,4.5l17.9,62.1C659.4,524.7,657.1,455.3,647.8,435.8z"/>
		<path fill="#B3B3B3" d="M682.7,534.4c0,0,3.1,30.6-3.5,55.2C679.2,589.6,684.5,549.6,682.7,534.4z"/>
		<path fill="#536078" d="M623.3,531.9l3.1,12c0,0,12.8-2.4,33-15.8L623.3,531.9z"/>
		<path fill="#D44674" d="M670,542.3l-3.3-55v0c3.2,44,23.4,53.3,23.4,53.3l-9.2,14.8L670,542.3z"/>
		<path fill="#5E6C87" d="M620.2,448.8c0,0-9.6,7-5.8,41.3c1.6,14,8.5,47.5,11.9,47.2c10.9-1,14.1-17.6,13.6-27.4
			C639.5,501.7,637,448.3,620.2,448.8z"/>
		<path fill="#5E6C87" d="M723.1,514.8l-16.9-17.2c0,0-35.2-2.7-51.7,8v12.1C654.5,517.7,693.7,525.7,723.1,514.8z"/>
		<path fill="#536078" d="M678.5,520.4c0,0,12.8,0.2,17.1-0.2l-3.5-3.6c0,0,7-11.6,9.3-12.9C703.9,502.4,679.6,507.9,678.5,520.4z"
			/>
		<path fill="#B37454" d="M688.3,498.2c0,0,17.6-13,26.9,0c0,0-20.1,4.8-22.8,15.5C692.4,513.6,686.2,504.7,688.3,498.2z"/>
		<path fill="#5E6C87" d="M626.3,537.3c0,0,29.3-4.4,66-23.6c0,0,0.9-10.6-4.1-15.5c0,0-40.6,5.3-48.4,15.5
			C632.1,523.8,626.3,537.3,626.3,537.3z"/>
		<path fill="#C29178" d="M632.5,501.2c0,0,12.7-5.6,23.8,3c1.2,1,1.5,2.7,0.7,4.1c-2.6,4.2-8.9,12.3-17.4,9.4
			C629,514.2,632.5,501.2,632.5,501.2z"/>
		<path fill="#323948" d="M620.2,448.8c0,0,14-4.5,16.9,30.2C637,478.9,631.9,451.2,620.2,448.8z"/>
		<path fill="#536078" d="M655.3,511.3c0,0-9.1,18.1-21.6,2.3L655.3,511.3z"/>
		<path fill="#323948" d="M628.6,548c0,0,7.7,2.5,25.9,0C654.5,548,645.9,555,628.6,548z"/>
		<path fill="#C4C4C4" d="M632.5,501.2"/>
		<path fill="#C29178" d="M688.3,498.2c0,0,13.8-5.7,26.9,0C715.2,498.2,707.7,485.7,688.3,498.2z"/>
		<path fill="#B37454" d="M632.5,501.2c0,0,6.3,13.7,24.5,7.1c0,0-6.7,12.1-17.4,9.4S632.5,501.2,632.5,501.2z"/>
		<path fill="#85460D" d="M687.8,378.8c-2.9,6.4-22.3,3.5-33,1.6c-3.5-0.6-8.2,2.8-6.6,6.2c4.7,9.8-1.3,13.9-1.3,13.9l-7.5-2.9
			c0,0-3.8-10-3.3-27.3l3.9-2.3c0,0-3.9-10.2,11.2-16.3C666.6,345.5,702.5,346.3,687.8,378.8z"/>
		<path fill="#965418" d="M687.8,378.8c0,0,8.2-27.2-23.6-30C664.2,348.8,702.7,345.4,687.8,378.8z"/>
		<path fill="#783F0C" d="M639.9,368l-3.9,2.3c-0.5,17.4,3.3,27.3,3.3,27.3l7.5,2.9c0,0,6.1-4.1,1.3-13.9c-0.9-2,0.3-8.6,12.7-5.2
			C652.8,378.2,645.4,374.6,639.9,368z"/>
		<path fill="#C29178" d="M646.8,400.3c0,0-12.8-9.7-10.5,2.1s12,7.7,12,7.7L646.8,400.3z"/>
		<path fill="#B37454" d="M639.1,398.1c0,0-3.8,5.2,4,10.5C643.1,408.6,637.7,404.7,639.1,398.1z"/>
		<path fill="#EFEFEF" d="M670,440.2l3.4,13.9l5.8-13.3l-6.5-8.9C672.7,431.8,674.1,437.5,670,440.2z"/>
		<path fill="#536078" d="M675.1,435.2c0,0,14.8,63.4,16.9,86.2l0.3-61.6l-8.2-5.7l5.8-5.3L675.1,435.2z"/>
		<g>
			<circle fill="#FF882A" cx="679.7" cy="536.8" r="7.3"/>
			<path fill="#FFFFFF" d="M684.3,534c-0.2,0-0.4,0-0.5,0c-0.2-0.1-0.3-0.1-0.4-0.3c-0.1-0.1-0.2-0.3-0.2-0.4c0-0.2,0-0.3,0-0.5
				c0.1-0.2,0.2-0.3,0.3-0.4c0.1-0.1,0.3-0.2,0.5-0.2c0.2,0,0.4,0,0.5,0c0.2,0.1,0.3,0.1,0.4,0.3c0.1,0.1,0.2,0.3,0.2,0.4
				c0,0.2,0,0.3,0,0.5c-0.1,0.2-0.2,0.3-0.3,0.4C684.6,533.9,684.5,534,684.3,534z M684.2,533.6c0.1,0,0.2-0.1,0.3-0.2
				c0.1-0.1,0.1-0.2,0.1-0.4s-0.1-0.3-0.2-0.3c-0.1-0.1-0.2-0.1-0.3-0.1c-0.1,0-0.2,0.1-0.3,0.2c-0.1,0.1-0.1,0.2-0.1,0.4
				s0.1,0.3,0.2,0.3C684,533.6,684.1,533.6,684.2,533.6z"/>
			<path fill="#FFFFFF" d="M681.6,532.6c0.1,0,0.2,0,0.3,0c0.1,0,0.2,0.1,0.3,0.1l0-0.2l0.5-0.1l0.3,1.8l-0.5,0.1l-0.1-0.9
				c0-0.2-0.1-0.3-0.2-0.3c-0.1-0.1-0.2-0.1-0.3-0.1c-0.1,0-0.2,0.1-0.2,0.1s-0.1,0.2,0,0.3l0.2,0.9l-0.5,0.1l-0.2-1
				c0-0.3,0-0.5,0.1-0.6C681.2,532.7,681.3,532.6,681.6,532.6z"/>
			<path fill="#FFFFFF" d="M678.7,534c0-0.2,0-0.3,0-0.5c0.1-0.2,0.1-0.3,0.3-0.4s0.3-0.2,0.4-0.2c0.2,0,0.3,0,0.5,0
				c0.2,0.1,0.3,0.1,0.4,0.3c0.1,0.1,0.2,0.3,0.2,0.4c0,0.2,0,0.3,0,0.5c-0.1,0.2-0.2,0.3-0.3,0.4c-0.1,0.1-0.3,0.2-0.5,0.2
				c-0.3,0.1-0.6,0-0.8-0.2l0.2-0.3c0.1,0,0.1,0.1,0.2,0.1c0.1,0,0.2,0,0.2,0c0.1,0,0.2-0.1,0.3-0.1c0.1-0.1,0.1-0.2,0.1-0.3
				l-1.3,0.2C678.7,534.1,678.7,534,678.7,534z M679.5,533.3c-0.1,0-0.2,0.1-0.3,0.1c-0.1,0.1-0.1,0.2-0.1,0.3l0.9-0.1
				c0-0.1-0.1-0.2-0.2-0.2C679.7,533.3,679.6,533.3,679.5,533.3z"/>
			<path fill="#FFFFFF" d="M684.5,536.5c0.1,0,0.1,0,0.2,0c0.1,0,0.1,0,0.2-0.1c0,0,0-0.1,0-0.2l-0.1-0.7l-0.4,0.1l-0.1-0.4l0.4-0.1
				l-0.1-0.4l0.5-0.1l0.1,0.4l0.3,0l0.1,0.4l-0.3,0l0.1,0.7c0,0.2,0,0.4-0.1,0.5c-0.1,0.1-0.2,0.2-0.5,0.2c-0.1,0-0.2,0-0.2,0
				c-0.1,0-0.1,0-0.2-0.1L684.5,536.5z"/>
			<path fill="#FFFFFF" d="M681.5,535.6l0.6,1.1l0.2-1.3l0.4-0.1l0.6,1.1l0.2-1.3l0.5-0.1l-0.3,1.9l-0.5,0.1l-0.6-1l-0.2,1.2
				l-0.5,0.1l-0.9-1.6L681.5,535.6z"/>
			<path fill="#FFFFFF" d="M680.2,537.7c-0.2,0-0.4,0-0.5,0c-0.2-0.1-0.3-0.1-0.4-0.3c-0.1-0.1-0.2-0.3-0.2-0.4s0-0.3,0-0.5
				c0.1-0.2,0.2-0.3,0.3-0.4c0.1-0.1,0.3-0.2,0.5-0.2c0.2,0,0.4,0,0.5,0c0.2,0.1,0.3,0.1,0.4,0.3c0.1,0.1,0.2,0.3,0.2,0.4
				c0,0.2,0,0.3,0,0.5c-0.1,0.2-0.2,0.3-0.3,0.4C680.6,537.6,680.4,537.7,680.2,537.7z M680.2,537.3c0.1,0,0.2-0.1,0.3-0.2
				c0.1-0.1,0.1-0.2,0.1-0.4s-0.1-0.3-0.2-0.3c-0.1-0.1-0.2-0.1-0.3-0.1c-0.1,0-0.2,0.1-0.3,0.2c-0.1,0.1-0.1,0.2-0.1,0.4
				c0,0.1,0.1,0.3,0.2,0.3C679.9,537.3,680,537.3,680.2,537.3z"/>
			<path fill="#FFFFFF" d="M685.2,539.6c-0.2,0-0.4,0-0.5,0s-0.3-0.1-0.4-0.3l0.4-0.3c0.1,0.1,0.3,0.2,0.4,0.2
				c0.1,0,0.2-0.1,0.3-0.2c0.1-0.1,0.1-0.2,0.1-0.4c0-0.2-0.1-0.3-0.2-0.3s-0.2-0.1-0.4-0.1c-0.2,0-0.3,0.1-0.4,0.3l-0.4-0.1
				c0-0.2,0.1-0.3,0.2-0.4c0.1-0.1,0.3-0.2,0.5-0.2c0.2,0,0.4,0,0.5,0c0.2,0.1,0.3,0.1,0.4,0.3s0.2,0.3,0.2,0.4c0,0.2,0,0.3,0,0.5
				c-0.1,0.2-0.2,0.3-0.3,0.4C685.6,539.5,685.4,539.6,685.2,539.6z"/>
			<path fill="#FFFFFF" d="M682.8,538.2c0.1,0,0.3,0,0.4,0s0.3,0,0.4,0.1l-0.1,0.4c-0.1,0-0.2-0.1-0.2-0.1c-0.1,0-0.2,0-0.3,0
				c-0.1,0-0.2,0.1-0.3,0.1c-0.1,0.1-0.1,0.2-0.1,0.3l0.4-0.1c0.3,0,0.5,0,0.6,0c0.1,0.1,0.2,0.2,0.2,0.4c0,0.1,0,0.2,0,0.3
				c0,0.1-0.1,0.2-0.2,0.2s-0.2,0.1-0.3,0.1c-0.3,0-0.5,0-0.6-0.2l0,0.2l-0.5,0.1l-0.2-1c0-0.3,0-0.5,0.1-0.6
				C682.4,538.3,682.6,538.2,682.8,538.2z M683.1,539.6c0.1,0,0.2,0,0.2-0.1c0,0,0.1-0.1,0.1-0.2c0-0.1-0.1-0.2-0.3-0.2l-0.3,0.1
				l0,0.2c0,0.1,0.1,0.1,0.2,0.2C682.9,539.6,683,539.6,683.1,539.6z"/>
			<path fill="#FFFFFF" d="M680.8,538.8l0-0.2l0.5-0.1l0.3,1.8l-0.5,0.1l-0.1-0.8c0-0.2-0.1-0.3-0.2-0.3c-0.1-0.1-0.2-0.1-0.4-0.1
				c0,0-0.1,0-0.1,0l-0.1-0.5c0.1,0,0.3,0,0.4,0C680.6,538.6,680.7,538.7,680.8,538.8z"/>
			<path fill="#FFFFFF" d="M678,539.9c0-0.2,0-0.3,0-0.5c0.1-0.2,0.1-0.3,0.3-0.4c0.1-0.1,0.3-0.2,0.4-0.2c0.2,0,0.3,0,0.5,0
				c0.2,0.1,0.3,0.1,0.4,0.3s0.2,0.3,0.2,0.4c0,0.2,0,0.3,0,0.5c-0.1,0.2-0.2,0.3-0.3,0.4c-0.1,0.1-0.3,0.2-0.5,0.2
				c-0.3,0.1-0.6,0-0.8-0.2l0.2-0.3c0.1,0,0.1,0.1,0.2,0.1c0.1,0,0.2,0,0.2,0c0.1,0,0.2-0.1,0.3-0.1c0.1-0.1,0.1-0.2,0.1-0.3
				L678,540C678,540,678,539.9,678,539.9z M678.8,539.2c-0.1,0-0.2,0.1-0.3,0.1c-0.1,0.1-0.1,0.2-0.1,0.3l0.9-0.1
				c0-0.1-0.1-0.2-0.2-0.2C679,539.2,678.9,539.2,678.8,539.2z"/>
			<path fill="#FFFFFF" d="M675.6,540.3c0-0.2,0-0.3,0-0.5c0.1-0.2,0.1-0.3,0.3-0.4s0.3-0.2,0.4-0.2c0.2,0,0.3,0,0.5,0
				c0.2,0.1,0.3,0.1,0.4,0.3c0.1,0.1,0.2,0.3,0.2,0.4c0,0.2,0,0.3,0,0.5c-0.1,0.2-0.2,0.3-0.3,0.4c-0.1,0.1-0.3,0.2-0.5,0.2
				c-0.3,0.1-0.6,0-0.8-0.2l0.2-0.3c0.1,0,0.1,0.1,0.2,0.1c0.1,0,0.2,0,0.2,0c0.1,0,0.2-0.1,0.3-0.1s0.1-0.2,0.1-0.3l-1.3,0.2
				C675.6,540.3,675.6,540.3,675.6,540.3z M676.5,539.6c-0.1,0-0.2,0.1-0.3,0.1c-0.1,0.1-0.1,0.2-0.1,0.3l0.9-0.1
				c0-0.1-0.1-0.2-0.2-0.2C676.7,539.6,676.6,539.6,676.5,539.6z"/>
			<path fill="#FFFFFF" d="M674.4,539.8l0-0.2l0.5-0.1l0.3,1.8l-0.5,0.1l-0.1-0.8c0-0.2-0.1-0.3-0.2-0.3c-0.1-0.1-0.2-0.1-0.4-0.1
				c0,0-0.1,0-0.1,0l-0.1-0.5c0.1,0,0.3,0,0.4,0C674.2,539.7,674.3,539.8,674.4,539.8z"/>
		</g>
	</g>
	<g clip-path="url(#SVGID_2_)">
		<path fill="#C9C8C8" d="M450.8,522.3c0,0-25.8,1.9-36.5-5c0,0,7.3-1.9,2.8-12.8c0,0,27.8-4.3,41,0S450.8,522.3,450.8,522.3z"/>
		<path fill="#C9C8C8" d="M455.2,449.6c-5.4,14.6-18,65.8-4.4,72.7c0,0,11.8,0.2,14.4-11.3c2.8-12.6,20.9-82.1,4.9-74.3
			c-0.5,0.3-1.3-0.2-2.2,0.2C462,439,457.4,443.7,455.2,449.6z"/>
		<path fill="#E2E2E2" d="M538.4,439.7l-25.1-8.6l-24.5-0.1c0,0-6.2,2.3-17.9,4.8c-7.9,1.7-12.5,8.2-13.6,16.2
			c-2.7,20.7-6.3,52.4,1.2,127.7c0,0,41.7,18.1,81.4-1.7C540,577.9,538.4,517,538.4,439.7z"/>
		<path fill="#D1D1D1" d="M540,577.9c0,0-0.6-24.1-1.1-61.2c-0.2,0.9-0.5,1.9-0.7,3c-12.3,56-79.7,59.9-79.7,59.9
			S500.2,597.6,540,577.9z"/>
		<path fill="#C9C8C8" d="M526.1,499.3c-1.6-55.1,7.9-60.2,9.3-60.7c0.1,0,0.1,0,0.1,0s21-0.2,13.1,81.1
			C548.7,519.7,526.8,522.2,526.1,499.3z"/>
		<path fill="#C29178" d="M515.4,411c-2,3.5-8.8,10-3.4,22.9c-6.6,2.6-20.5,4.8-25.5-1.1c0.7-1.7,5-10.6,1.5-11.7
			c-7.3-2.1-12.6-3.6-11.2-15.3c0.8-6.6,1.2-12.7,2.3-19.3c1-6.1,2.2-14.1,5.1-19.5c4.7-8.7,19.7-8.4,26.5-4.8
			c7.7,4.1,13,13.2,13.8,22.9S521.2,401.3,515.4,411z"/>
		<path fill="#263238" d="M479.1,386.6c0,0-9.1-33.5,7.1-29c0,0,4.7-13.8,20.6-14.2c13-0.3,14.2,12.8,14.2,12.8s32.7,7.5-4.8,54.5
			c-0.6,0.7-1.7,0.2-1.6-0.7c0.2-1.1,0.3-2.4,0.5-3.7c0.2-2.2,1.1-5,3.3-5.6c4.3-1.2,6.3-6.5,5-9.4c-3-6.5-8.5,0.4-8.5,0.4
			s8.6-22.2-9.7-17.9c-9.2,2.1-13.1-0.6-16.9-2c-3-1.1-6.2,0.7-7,3.8C479.7,381.6,479.1,386.6,479.1,386.6z"/>
		<path fill="#1C262A" d="M479.1,386.6c0,0,0.6-5,2.2-11c0.8-3.1,4-4.8,7-3.8c0.3,0.1,0.5,0.2,0.8,0.3l0,0
			c-6.7-7.7-2.9-14.6-2.9-14.6C470,353.1,479.1,386.6,479.1,386.6z"/>
		<path fill="#C29178" d="M491.7,509.7c0,0-29.7-8.8-28.8-22.6c1.4-20.9,28.8,10,28.8,10S498,503.7,491.7,509.7z"/>
		<path fill="#3B4D54" d="M489,372.2c0,0-9.1-19,16.1-28.7c0,0-10.3,0.1-17.1,10.4C480.7,365,489,372.2,489,372.2z"/>
		<g>
			<path fill="#B37454" d="M487.5,421.1L487.5,421.1c0.2,0,0.3,0.1,0.5,0.1c2.3,0.7,1.3,4.7,0.1,7.8c2.6,0.5,6,0.6,5.9-2.6
				c0-3.8,3.5-4.9,5.4-5.2C490.8,422.1,487.5,421.1,487.5,421.1z"/>
			<path fill="#C29178" d="M499.4,421.2c0.4,0,0.8-0.1,1.2-0.1C500.6,421.1,500.1,421.1,499.4,421.2z"/>
		</g>
		<path fill="#C29178" d="M493.1,499c0,0-4.5-18.5-9.6-17.1C477.1,483.8,493.1,499,493.1,499z"/>
		<path fill="#E2E2E2" d="M515.9,431.9c0,0-1.5-3.6-2.8-6.8c-0.5-1.2-1.9-1.8-3.1-1.3c-3.9,1.6-12.7,4.2-20.5,0.3
			c-1.2-0.6-2.7-0.1-3.2,1.1l-3.3,7.3C483,432.6,498.9,447.4,515.9,431.9z"/>
		<path fill="#B3B3B3" d="M534.2,508c0,0-3.2,25.6,1.3,65.9L534.2,508z"/>
		<path fill="#B3B3B3" d="M484.1,433.5c0,0,14.2,11.6,30.5-0.3C514.6,433.1,499.1,442.5,484.1,433.5z"/>
		<path fill="#B3B3B3" d="M515.9,433.1l18.9,5.9C534.8,439,523.7,437.3,515.9,433.1z"/>
		<path fill="#B3B3B3" d="M535.5,438.6c0,0-9.2-1.9-9.2,34.2C526.3,472.8,528.1,443.3,535.5,438.6z"/>
		<path fill="#B3B3B3" d="M483,432.6l-18.2,5.7C464.8,438.3,476.6,435.9,483,432.6z"/>
		<path fill="#C9C8C8" d="M489.8,510c0,0,4.2-8.3,2.9-12.5c0,0,39.6-3.7,50,2.2c6.9,3.9,6.1,20,6.1,20S518.1,519.7,489.8,510z"/>
		<path fill="#BDBCBC" d="M539.9,440.8c8.1,12.8,4.6,60.4,2.6,67.3c-0.6,2.2-6.2,2.9-13.4,2.8c6.1,10.4,19.6,8.8,19.6,8.8
			C554.3,462.8,545.6,445.8,539.9,440.8z"/>
		<path fill="#B37454" d="M492,509.4l-0.8-2.4c0,0-27.1-10.2-26.7-25.3l0,0c-0.8,1.2-1.3,2.9-1.5,5.4c-0.9,13.8,28.8,22.6,28.8,22.6
			C491.8,509.6,491.9,509.5,492,509.4z"/>
		<path fill="#BDBCBC" d="M543.7,500.4c-0.4,3.6-0.8,6.3-1.2,7.6c-2,6.8-51.4-1-51.4-1l0,0c-0.7,1.7-1.3,2.9-1.3,2.9
			c28.3,9.7,58.9,9.7,58.9,9.7S549.4,505.2,543.7,500.4z"/>
		<path fill="#B37454" d="M521,389.7c0,0,3.9,3.8-1.4,9.3C519.6,399,523.3,394.3,521,389.7z"/>
		<path fill="#B3B3B3" d="M458,574c0,0,43.1,16.1,77.4,0C535.5,574,504.1,594.4,458,574z"/>
		<path fill="#9C9C9C" d="M494.5,499c0,0,0.1,7.1-2.5,10.4C492,509.4,497,507.4,494.5,499z"/>
		<polygon fill="#EFEFEF" points="425.4,459.1 464.8,513.1 432,521.9 394.1,485.6 		"/>
		<path fill="#C29178" d="M414.8,517.5c0,0-20.8-24.5-6.3-36.8c14.5-12.3,9.1,16.6,9.1,17.1s0.5,7.9,1.5,12.1
			C421.1,518.4,414.8,517.5,414.8,517.5z"/>
		<g>
			<circle fill="#FF882A" cx="507.9" cy="469.3" r="10.9"/>
			<path fill="#FFFFFF" d="M499.7,466.3c-0.2-0.1-0.4-0.3-0.5-0.5c-0.1-0.2-0.2-0.4-0.2-0.7c0-0.3,0.1-0.5,0.2-0.7
				c0.1-0.2,0.3-0.4,0.5-0.5c0.2-0.1,0.5-0.2,0.7-0.2c0.3,0,0.5,0.1,0.7,0.2c0.2,0.1,0.4,0.3,0.5,0.5c0.1,0.2,0.2,0.4,0.2,0.7
				c0,0.3-0.1,0.5-0.2,0.7c-0.1,0.2-0.3,0.4-0.5,0.5c-0.2,0.1-0.5,0.2-0.7,0.2C500.2,466.5,499.9,466.5,499.7,466.3z M500.9,465.7
				c0.1-0.1,0.2-0.3,0.2-0.5c0-0.2-0.1-0.4-0.2-0.5c-0.1-0.1-0.3-0.2-0.5-0.2c-0.2,0-0.4,0.1-0.5,0.2c-0.1,0.1-0.2,0.3-0.2,0.5
				c0,0.2,0.1,0.4,0.2,0.5c0.1,0.1,0.3,0.2,0.5,0.2C500.6,465.9,500.8,465.8,500.9,465.7z"/>
			<path fill="#FFFFFF" d="M504.9,464c0.2,0.2,0.3,0.5,0.3,0.9l0,1.5l-0.8,0l0-1.4c0-0.2,0-0.4-0.1-0.5c-0.1-0.1-0.2-0.2-0.4-0.2
				c-0.2,0-0.3,0.1-0.5,0.2c-0.1,0.1-0.2,0.3-0.2,0.5l0,1.3l-0.8,0l0-2.6l0.7,0l0,0.3c0.1-0.1,0.2-0.2,0.4-0.3
				c0.2-0.1,0.3-0.1,0.5-0.1C504.4,463.7,504.7,463.8,504.9,464z"/>
			<path fill="#FFFFFF" d="M508.6,465.3l-2,0c0,0.2,0.1,0.3,0.3,0.4c0.1,0.1,0.3,0.1,0.5,0.1c0.1,0,0.3,0,0.4-0.1
				c0.1,0,0.2-0.1,0.3-0.2l0.4,0.4c-0.2,0.3-0.6,0.4-1.1,0.4c-0.3,0-0.6-0.1-0.8-0.2c-0.2-0.1-0.4-0.3-0.5-0.5
				c-0.1-0.2-0.2-0.4-0.2-0.7c0-0.3,0.1-0.5,0.2-0.7c0.1-0.2,0.3-0.4,0.5-0.5c0.2-0.1,0.5-0.2,0.7-0.2c0.3,0,0.5,0.1,0.7,0.2
				c0.2,0.1,0.4,0.3,0.5,0.5c0.1,0.2,0.2,0.4,0.2,0.7C508.6,465.1,508.6,465.2,508.6,465.3z M506.8,464.5c-0.1,0.1-0.2,0.2-0.2,0.4
				l1.3,0c0-0.2-0.1-0.3-0.2-0.4c-0.1-0.1-0.3-0.1-0.4-0.1C507.1,464.3,506.9,464.4,506.8,464.5z"/>
			<path fill="#FFFFFF" d="M500.9,470.7c-0.1,0.1-0.2,0.1-0.3,0.1c-0.1,0-0.2,0-0.3,0c-0.3,0-0.6-0.1-0.7-0.2
				c-0.2-0.2-0.3-0.4-0.3-0.7l0-1.1l-0.4,0l0-0.6l0.4,0l0-0.6l0.8,0l0,0.6l0.7,0l0,0.6l-0.7,0l0,1.1c0,0.1,0,0.2,0.1,0.3
				c0.1,0.1,0.1,0.1,0.2,0.1c0.1,0,0.2,0,0.3-0.1L500.9,470.7z"/>
			<path fill="#FFFFFF" d="M505.7,468.2l-0.9,2.7l-0.7,0l-0.6-1.6l-0.6,1.6l-0.7,0l-1-2.6l0.7,0l0.6,1.8l0.6-1.8l0.6,0l0.6,1.8
				l0.6-1.8L505.7,468.2z"/>
			<path fill="#FFFFFF" d="M506.6,470.7c-0.2-0.1-0.4-0.3-0.5-0.5c-0.1-0.2-0.2-0.4-0.2-0.7c0-0.3,0.1-0.5,0.2-0.7
				c0.1-0.2,0.3-0.4,0.5-0.5c0.2-0.1,0.5-0.2,0.7-0.2c0.3,0,0.5,0.1,0.7,0.2c0.2,0.1,0.4,0.3,0.5,0.5c0.1,0.2,0.2,0.4,0.2,0.7
				c0,0.3-0.1,0.5-0.2,0.7c-0.1,0.2-0.3,0.4-0.5,0.5c-0.2,0.1-0.5,0.2-0.7,0.2C507.1,470.9,506.8,470.8,506.6,470.7z M507.8,470
				c0.1-0.1,0.2-0.3,0.2-0.5c0-0.2-0.1-0.4-0.2-0.5c-0.1-0.1-0.3-0.2-0.5-0.2c-0.2,0-0.4,0.1-0.5,0.2c-0.1,0.1-0.2,0.3-0.2,0.5
				c0,0.2,0.1,0.4,0.2,0.5c0.1,0.1,0.3,0.2,0.5,0.2C507.5,470.2,507.7,470.2,507.8,470z"/>
			<path fill="#FFFFFF" d="M499.8,474.8c-0.2-0.1-0.4-0.3-0.5-0.5c-0.1-0.2-0.2-0.4-0.2-0.7c0-0.3,0.1-0.5,0.2-0.7
				c0.1-0.2,0.3-0.4,0.5-0.5c0.2-0.1,0.5-0.2,0.8-0.2c0.3,0,0.5,0.1,0.7,0.2c0.2,0.1,0.4,0.3,0.5,0.5l-0.6,0.3
				c-0.1-0.2-0.3-0.4-0.6-0.4c-0.2,0-0.4,0.1-0.5,0.2c-0.1,0.1-0.2,0.3-0.2,0.5c0,0.2,0.1,0.4,0.2,0.5c0.1,0.1,0.3,0.2,0.5,0.2
				c0.3,0,0.5-0.1,0.6-0.4l0.6,0.3c-0.1,0.2-0.2,0.4-0.5,0.5c-0.2,0.1-0.5,0.2-0.7,0.2C500.3,475,500,474.9,499.8,474.8z"/>
			<path fill="#FFFFFF" d="M504.6,472.5c0.2,0.2,0.3,0.5,0.3,0.9l0,1.5l-0.7,0l0-0.3c-0.1,0.2-0.4,0.4-0.8,0.4c-0.2,0-0.4,0-0.5-0.1
				c-0.1-0.1-0.3-0.2-0.3-0.3c-0.1-0.1-0.1-0.3-0.1-0.4c0-0.2,0.1-0.4,0.3-0.6c0.2-0.1,0.5-0.2,0.9-0.2l0.6,0c0-0.2-0.1-0.3-0.2-0.4
				c-0.1-0.1-0.3-0.1-0.5-0.1c-0.1,0-0.3,0-0.4,0.1c-0.1,0-0.3,0.1-0.3,0.2l-0.3-0.5c0.1-0.1,0.3-0.2,0.5-0.2
				c0.2-0.1,0.4-0.1,0.6-0.1C504.1,472.2,504.4,472.3,504.6,472.5z M504,474.3c0.1-0.1,0.2-0.2,0.2-0.3l0-0.3l-0.5,0
				c-0.3,0-0.5,0.1-0.5,0.3c0,0.1,0,0.2,0.1,0.2c0.1,0.1,0.2,0.1,0.3,0.1C503.8,474.4,503.9,474.4,504,474.3z"/>
			<path fill="#FFFFFF" d="M507.2,472.3c0.2-0.1,0.3-0.1,0.5-0.1l0,0.7c-0.1,0-0.1,0-0.2,0c-0.2,0-0.4,0.1-0.5,0.2
				c-0.1,0.1-0.2,0.3-0.2,0.6l0,1.2l-0.8,0l0-2.6l0.7,0l0,0.3C506.9,472.4,507,472.3,507.2,472.3z"/>
			<path fill="#FFFFFF" d="M511.2,473.7l-2,0c0,0.2,0.1,0.3,0.3,0.4c0.1,0.1,0.3,0.1,0.5,0.1c0.1,0,0.3,0,0.4-0.1
				c0.1,0,0.2-0.1,0.3-0.2l0.4,0.4c-0.2,0.3-0.6,0.4-1.1,0.4c-0.3,0-0.6-0.1-0.8-0.2c-0.2-0.1-0.4-0.3-0.5-0.5
				c-0.1-0.2-0.2-0.4-0.2-0.7c0-0.3,0.1-0.5,0.2-0.7c0.1-0.2,0.3-0.4,0.5-0.5c0.2-0.1,0.5-0.2,0.7-0.2c0.3,0,0.5,0.1,0.7,0.2
				c0.2,0.1,0.4,0.3,0.5,0.5c0.1,0.2,0.2,0.4,0.2,0.7C511.2,473.5,511.2,473.6,511.2,473.7z M509.4,472.9c-0.1,0.1-0.2,0.2-0.2,0.4
				l1.3,0c0-0.2-0.1-0.3-0.2-0.4c-0.1-0.1-0.3-0.1-0.4-0.1C509.7,472.7,509.5,472.8,509.4,472.9z"/>
			<path fill="#FFFFFF" d="M514.7,473.7l-2,0c0,0.2,0.1,0.3,0.3,0.4c0.1,0.1,0.3,0.1,0.5,0.1c0.1,0,0.3,0,0.4-0.1
				c0.1,0,0.2-0.1,0.3-0.2l0.4,0.4c-0.2,0.3-0.6,0.4-1.1,0.4c-0.3,0-0.6-0.1-0.8-0.2c-0.2-0.1-0.4-0.3-0.5-0.5
				c-0.1-0.2-0.2-0.4-0.2-0.7c0-0.3,0.1-0.5,0.2-0.7c0.1-0.2,0.3-0.4,0.5-0.5c0.2-0.1,0.5-0.2,0.7-0.2c0.3,0,0.5,0.1,0.7,0.2
				c0.2,0.1,0.4,0.3,0.5,0.5c0.1,0.2,0.2,0.4,0.2,0.7C514.8,473.5,514.8,473.6,514.7,473.7z M512.9,472.9c-0.1,0.1-0.2,0.2-0.2,0.4
				l1.3,0c0-0.2-0.1-0.3-0.2-0.4s-0.3-0.1-0.4-0.1C513.2,472.7,513.1,472.8,512.9,472.9z"/>
			<path fill="#FFFFFF" d="M516.8,472.2c0.2-0.1,0.3-0.1,0.5-0.1l0,0.7c-0.1,0-0.1,0-0.2,0c-0.2,0-0.4,0.1-0.5,0.2
				c-0.1,0.1-0.2,0.3-0.2,0.6l0,1.2l-0.8,0l0-2.6l0.7,0l0,0.3C516.5,472.4,516.7,472.3,516.8,472.2z"/>
		</g>
	</g>
	<g clip-path="url(#SVGID_2_)">
		<path fill="#564235" d="M550.8,451c0,0,13.8-0.1,27.6-5.6c13.8-5.5-23.3-34-23.3-34S561.3,435.4,550.8,451z"/>
		<path fill="#564235" d="M573.6,372.2l-15.2,8.3c0,0-7.6,3.1-9.6,27.4C548.8,408,540.2,365.1,573.6,372.2z"/>
		<path fill="#FFAC19" d="M560.8,447.1c0,0,1.7-2,6.5-1.8C572.1,445.6,560.8,447.1,560.8,447.1z"/>
		<path fill="#FFAC19" d="M581.5,447.1c0,0,3.1-1.8,6.2,1.1L581.5,447.1z"/>
		<path fill="#DB9315" d="M540.9,458.8c-7.8,12.2-26.4,58.2-14,65.9c0,0,11.4,1.4,15.1-8.9c4.1-11.2,24.9-71.4,8.6-65.9
			C550.1,450.1,546.2,450.5,540.9,458.8z"/>
		<path fill="#FFAC19" d="M601.8,451.2l-17.8-3.8l-20.6-0.8c0,0-7.4,1.1-13.8,3.5c-5.9,2.2-14.9,26.9-14.9,36.8
			c0,27,10.9,59.9,0.5,91c0,0,33.1,16.5,69.3-1.5C588.4,530.6,599.5,518.4,601.8,451.2z"/>
		<path fill="#E09816" d="M594.2,477c-0.1,20.1-8.3,30.4-40.2,27.7c-13.5-1.1-17.4-5.1-19.3-10.7c2.2,24.2,9.3,57.7,0.5,83.9
			c0,0,33.1,16.5,69.3-1.5c-12.7-35.9-8.6-51.1-5.2-88.3L594.2,477z"/>
		<path fill="#BF8113" d="M559.1,449.5c0,0-9.6,5.9-19.5,17.1L559.1,449.5z"/>
		<polygon fill="#263238" points="588.6,534.8 545,534.8 541.4,480.4 585,480.4 		"/>
		<polygon fill="#263238" points="592.6,532.5 549,532.5 545.4,478.1 589,478.1 		"/>
		<polygon fill="#C9C8C8" points="588.6,478.7 591.3,532 588.6,534.8 585,480.4 		"/>
		<path fill="#B37454" d="M585.4,504c0,0,8.5-9.8,10.8-7.8C600.9,500,585.4,504,585.4,504z"/>
		<path fill="#FFB530" d="M594.7,511c-3.1-54.8,4.6-59.6,5.8-60c0.1,0,0.1,0,0.1,0s17.5,0.5,13.5,81C614.2,532,596,533.7,594.7,511z
			"/>
		<g>
			<circle fill="#FF882A" cx="576.9" cy="489.9" r="6.8"/>
			<path fill="#FFFFFF" d="M571.7,488c-0.1-0.1-0.2-0.2-0.3-0.3c-0.1-0.1-0.1-0.3-0.1-0.4c0-0.2,0-0.3,0.1-0.4
				c0.1-0.1,0.2-0.2,0.3-0.3c0.1-0.1,0.3-0.1,0.5-0.1c0.2,0,0.3,0,0.5,0.1c0.1,0.1,0.2,0.2,0.3,0.3c0.1,0.1,0.1,0.3,0.1,0.4
				c0,0.2,0,0.3-0.1,0.4c-0.1,0.1-0.2,0.2-0.3,0.3c-0.1,0.1-0.3,0.1-0.5,0.1C572,488.1,571.9,488,571.7,488z M572.5,487.6
				c0.1-0.1,0.1-0.2,0.1-0.3c0-0.1,0-0.3-0.1-0.3c-0.1-0.1-0.2-0.1-0.3-0.1s-0.2,0-0.3,0.1c-0.1,0.1-0.1,0.2-0.1,0.3
				c0,0.1,0,0.3,0.1,0.3c0.1,0.1,0.2,0.1,0.3,0.1S572.4,487.6,572.5,487.6z"/>
			<path fill="#FFFFFF" d="M575,486.5c0.1,0.1,0.2,0.3,0.2,0.5l0,1l-0.5,0l0-0.9c0-0.1,0-0.2-0.1-0.3c-0.1-0.1-0.1-0.1-0.3-0.1
				c-0.1,0-0.2,0-0.3,0.1c-0.1,0.1-0.1,0.2-0.1,0.3l0,0.8l-0.5,0l0-1.7l0.5,0l0,0.2c0.1-0.1,0.1-0.1,0.2-0.2c0.1,0,0.2-0.1,0.3-0.1
				C574.7,486.3,574.9,486.4,575,486.5z"/>
			<path fill="#FFFFFF" d="M577.4,487.3l-1.3,0c0,0.1,0.1,0.2,0.2,0.2c0.1,0.1,0.2,0.1,0.3,0.1c0.1,0,0.2,0,0.2,0
				c0.1,0,0.1-0.1,0.2-0.1l0.3,0.3c-0.2,0.2-0.4,0.3-0.7,0.3c-0.2,0-0.4,0-0.5-0.1c-0.1-0.1-0.3-0.2-0.3-0.3
				c-0.1-0.1-0.1-0.3-0.1-0.4c0-0.2,0-0.3,0.1-0.4c0.1-0.1,0.2-0.2,0.3-0.3c0.1-0.1,0.3-0.1,0.5-0.1c0.2,0,0.3,0,0.4,0.1
				c0.1,0.1,0.2,0.2,0.3,0.3c0.1,0.1,0.1,0.3,0.1,0.5C577.4,487.2,577.4,487.2,577.4,487.3z M576.2,486.8c-0.1,0.1-0.1,0.1-0.1,0.3
				l0.8,0c0-0.1-0.1-0.2-0.1-0.3c-0.1-0.1-0.2-0.1-0.3-0.1C576.4,486.7,576.3,486.7,576.2,486.8z"/>
			<path fill="#FFFFFF" d="M572.5,490.7c0,0-0.1,0.1-0.2,0.1c-0.1,0-0.1,0-0.2,0c-0.2,0-0.4,0-0.5-0.1c-0.1-0.1-0.2-0.2-0.2-0.4
				l0-0.7l-0.3,0l0-0.4l0.3,0l0-0.4l0.5,0l0,0.4l0.4,0l0,0.4l-0.4,0l0,0.7c0,0.1,0,0.1,0.1,0.2c0,0,0.1,0.1,0.2,0.1
				c0.1,0,0.1,0,0.2-0.1L572.5,490.7z"/>
			<path fill="#FFFFFF" d="M575.5,489.1l-0.6,1.7l-0.5,0l-0.4-1l-0.4,1l-0.5,0l-0.6-1.7l0.5,0l0.4,1.1l0.4-1.1l0.4,0l0.4,1.1
				l0.4-1.1L575.5,489.1z"/>
			<path fill="#FFFFFF" d="M576.1,490.7c-0.1-0.1-0.2-0.2-0.3-0.3c-0.1-0.1-0.1-0.3-0.1-0.4c0-0.2,0-0.3,0.1-0.4
				c0.1-0.1,0.2-0.2,0.3-0.3c0.1-0.1,0.3-0.1,0.5-0.1c0.2,0,0.3,0,0.5,0.1c0.1,0.1,0.2,0.2,0.3,0.3c0.1,0.1,0.1,0.3,0.1,0.4
				c0,0.2,0,0.3-0.1,0.4c-0.1,0.1-0.2,0.2-0.3,0.3c-0.1,0.1-0.3,0.1-0.5,0.1C576.4,490.8,576.2,490.8,576.1,490.7z M576.8,490.3
				c0.1-0.1,0.1-0.2,0.1-0.3c0-0.1,0-0.3-0.1-0.3c-0.1-0.1-0.2-0.1-0.3-0.1c-0.1,0-0.2,0-0.3,0.1c-0.1,0.1-0.1,0.2-0.1,0.3
				c0,0.1,0,0.3,0.1,0.3c0.1,0.1,0.2,0.1,0.3,0.1C576.7,490.4,576.8,490.4,576.8,490.3z"/>
			<path fill="#FFFFFF" d="M571.8,493.3c-0.1-0.1-0.3-0.2-0.3-0.3c-0.1-0.1-0.1-0.3-0.1-0.4c0-0.2,0-0.3,0.1-0.4
				c0.1-0.1,0.2-0.2,0.3-0.3c0.1-0.1,0.3-0.1,0.5-0.1c0.2,0,0.3,0,0.5,0.1c0.1,0.1,0.2,0.2,0.3,0.3l-0.4,0.2
				c-0.1-0.2-0.2-0.2-0.4-0.2c-0.1,0-0.2,0-0.3,0.1c-0.1,0.1-0.1,0.2-0.1,0.3c0,0.1,0,0.3,0.1,0.3c0.1,0.1,0.2,0.1,0.3,0.1
				c0.2,0,0.3-0.1,0.4-0.2l0.4,0.2c-0.1,0.1-0.2,0.2-0.3,0.3s-0.3,0.1-0.5,0.1C572.1,493.4,571.9,493.4,571.8,493.3z"/>
			<path fill="#FFFFFF" d="M574.8,491.8c0.1,0.1,0.2,0.3,0.2,0.6l0,0.9l-0.5,0l0-0.2c-0.1,0.2-0.3,0.2-0.5,0.2c-0.1,0-0.2,0-0.3-0.1
				c-0.1,0-0.2-0.1-0.2-0.2c-0.1-0.1-0.1-0.2-0.1-0.3c0-0.2,0.1-0.3,0.2-0.4c0.1-0.1,0.3-0.1,0.5-0.1l0.4,0c0-0.1,0-0.2-0.1-0.2
				c-0.1-0.1-0.2-0.1-0.3-0.1c-0.1,0-0.2,0-0.3,0c-0.1,0-0.2,0.1-0.2,0.1l-0.2-0.3c0.1-0.1,0.2-0.1,0.3-0.2c0.1,0,0.3-0.1,0.4-0.1
				C574.5,491.7,574.7,491.7,574.8,491.8z M574.4,493c0.1,0,0.1-0.1,0.1-0.2l0-0.2l-0.3,0c-0.2,0-0.3,0.1-0.3,0.2
				c0,0.1,0,0.1,0.1,0.1c0,0,0.1,0.1,0.2,0.1C574.3,493,574.4,493,574.4,493z"/>
			<path fill="#FFFFFF" d="M576.4,491.7c0.1,0,0.2-0.1,0.3-0.1l0,0.4c-0.1,0-0.1,0-0.1,0c-0.1,0-0.2,0-0.3,0.1
				c-0.1,0.1-0.1,0.2-0.1,0.3l0,0.8l-0.5,0l0-1.7l0.5,0l0,0.2C576.3,491.8,576.3,491.7,576.4,491.7z"/>
			<path fill="#FFFFFF" d="M579,492.6l-1.3,0c0,0.1,0.1,0.2,0.2,0.2c0.1,0.1,0.2,0.1,0.3,0.1c0.1,0,0.2,0,0.2,0
				c0.1,0,0.1-0.1,0.2-0.1l0.3,0.3c-0.2,0.2-0.4,0.3-0.7,0.3c-0.2,0-0.4,0-0.5-0.1c-0.1-0.1-0.3-0.2-0.3-0.3
				c-0.1-0.1-0.1-0.3-0.1-0.4c0-0.2,0-0.3,0.1-0.4c0.1-0.1,0.2-0.2,0.3-0.3c0.1-0.1,0.3-0.1,0.5-0.1c0.2,0,0.3,0,0.4,0.1
				s0.2,0.2,0.3,0.3c0.1,0.1,0.1,0.3,0.1,0.5C579,492.5,579,492.5,579,492.6z M577.8,492.1c-0.1,0.1-0.1,0.1-0.1,0.3l0.8,0
				c0-0.1-0.1-0.2-0.1-0.3c-0.1-0.1-0.2-0.1-0.3-0.1C578,492,577.9,492,577.8,492.1z"/>
			<path fill="#FFFFFF" d="M581.2,492.6l-1.3,0c0,0.1,0.1,0.2,0.2,0.2c0.1,0.1,0.2,0.1,0.3,0.1c0.1,0,0.2,0,0.2,0
				c0.1,0,0.1-0.1,0.2-0.1l0.3,0.3c-0.2,0.2-0.4,0.3-0.7,0.3c-0.2,0-0.4,0-0.5-0.1c-0.1-0.1-0.3-0.2-0.3-0.3
				c-0.1-0.1-0.1-0.3-0.1-0.4c0-0.2,0-0.3,0.1-0.4c0.1-0.1,0.2-0.2,0.3-0.3c0.1-0.1,0.3-0.1,0.5-0.1c0.2,0,0.3,0,0.4,0.1
				c0.1,0.1,0.2,0.2,0.3,0.3c0.1,0.1,0.1,0.3,0.1,0.5C581.2,492.5,581.2,492.5,581.2,492.6z M580.1,492.1c-0.1,0.1-0.1,0.1-0.1,0.3
				l0.8,0c0-0.1-0.1-0.2-0.1-0.3s-0.2-0.1-0.3-0.1C580.2,492,580.1,492,580.1,492.1z"/>
			<path fill="#FFFFFF" d="M582.5,491.6c0.1,0,0.2-0.1,0.3-0.1l0,0.4c-0.1,0-0.1,0-0.1,0c-0.1,0-0.2,0-0.3,0.1
				c-0.1,0.1-0.1,0.2-0.1,0.3l0,0.8l-0.5,0l0-1.7l0.5,0l0,0.2C582.3,491.7,582.4,491.7,582.5,491.6z"/>
		</g>
		<path fill="#C29178" d="M588.9,425c-1.7,3.7-9.6,11.3-5.1,22.4c-3.2,3.5-10.6,6.3-15.3,5.5c-2.3-0.4-5.9-2.6-5.4-5.6
			c0.6-1.8,3.8-10.6,0.1-11.5c-9.9-2.4-14.6-8.8-14.6-33.7c0-6.2,1.8-14.5,4.7-19.9c6.2-11.4,19.1-10.6,26.5-7.7
			c8.3,3.3,14.7,11.7,16.6,21.4S593.8,414.7,588.9,425z"/>
		<path fill="#C29178" d="M586.1,503.4c0,0,25.1-11.5,28.7-3.9s-23.5,15.4-23.5,15.4S578.1,509.6,586.1,503.4z"/>
		<path fill="#C9C8C8" d="M525.9,516.5"/>
		<path fill="#B37454" d="M543.9,503.8c0,0-0.9-11.8-5-9.8S543.9,503.8,543.9,503.8z"/>
		<path fill="#FFB530" d="M526.9,524.7c0,0,31.2-0.5,64.4-9.8c0,0-9-6.2-5.2-11.5c0,0-26-0.3-49.5,3.5
			C526,508.6,520.4,514.9,526.9,524.7z"/>
		<path fill="#C29178" d="M538.2,512.7c-23.6-16.3-12.6-28.5-5.8-24.9c6.8,3.6,12.2,17.4,12.2,17.4S543.1,516.1,538.2,512.7z"/>
		<path fill="#B37454" d="M614.2,498.6c0,7.9-23.9,14.2-23.9,14.2l-0.4,1.4c0.8,0.4,1.4,0.7,1.4,0.7s27-7.8,23.5-15.4
			C614.6,499.2,614.4,498.9,614.2,498.6z"/>
		<path fill="#E09816" d="M555,504.7l36.2,11C591.3,515.7,591.1,506.5,555,504.7z"/>
		<path fill="#263238" d="M545.4,478.1c0,0-3.2,0.7-4,2.3l4.3,2.4L545.4,478.1z"/>
		<path fill="#B37454" d="M544.6,505.2c0,0-0.2-0.6-0.6-1.5c0,0-0.1,0-0.1,0c-8.3,3.2-20-9.9-20.1-10c-0.1,4.6,3.4,11.4,14.4,18.9
			C543.1,516.1,544.6,505.2,544.6,505.2z"/>
		<path fill="#C29178" d="M586.4,503.8"/>
		<path fill="#FFB530" d="M614.2,532l-17-16.4c0,0-20.3-9.7-53.3-11.8c0,0-0.3,6.7-4.3,9.9C539.6,513.7,595.1,538.8,614.2,532z"/>
		<path fill="#E09816" d="M539.6,513.7c0,0,9,6.9,19.5,7.9L539.6,513.7z"/>
		<path fill="#B37454" d="M574.7,434.1c-7.9,2-11.9,1.6-13.3,1.3c0.6,0.2,1.3,0.3,1.9,0.5c2.9,0.5,1.5,6.2,0.5,9.5l0,0
			C566.4,436.8,585,431.5,574.7,434.1z"/>
		<polygon fill="#E2E2E2" points="542.1,480.4 545.6,478.7 588.6,478.7 585,480.4 		"/>
		<path fill="#BF8113" d="M594,474.1c0,0-6-19.5-9-23.2C585,451,591.7,459.5,594,474.1z"/>
		<path fill="#BF8113" d="M594,474.1c0,0-0.1-18.9,6.7-23.2C600.7,451,596.3,456.2,594,474.1z"/>
		<path fill="#BF8113" d="M560.8,453.1c0,0,6.2,8.7,21.9,0C582.6,453.1,567.6,464.2,560.8,453.1z"/>
		<path fill="#BF8113" d="M539.9,465.6c0,0,3.2-10.2,8.4-14.6L539.9,465.6z"/>
		<path fill="#735846" d="M602.5,447.1c-4,6-32.6,15.4-32.6,15.4s28.6-52.8,13.8-56c-30.4-6.6-30.4-24.3-30.4-24.3
			s3.3-13.8,24.4-12.6c14.6,0.8,25.3,14.4,27,32S602.5,447.1,602.5,447.1z"/>
		<path fill="#BF8113" d="M584,447.4"/>
		<path fill="#C29178" d="M583.1,407.4c1.9-2.8,13.1-8.9,10.6,2.7c-2.7,12.3-12.6,7.6-12.6,7.6L583.1,407.4z"/>
		<path fill="#B37454" d="M591.8,405.9c0,0,3.3,4.2-2.4,9.1C589.5,415,593.5,410.8,591.8,405.9z"/>
		<path fill="#735846" d="M568.8,370.5"/>
		<path fill="#C29178" d="M587.6,418"/>
		<path fill="#695040" d="M604.9,411.4c-1.3,4.2-14,41.9-35,51.2c0,0,27-9.5,32.6-15.4C602.5,447.1,604,429.1,604.9,411.4z"/>
		<path fill="#8A6954" d="M553.4,382.2c0,0,3.7,10.9,30.7,24.4C584,406.6,555.4,402.1,553.4,382.2z"/>
		<path fill="#D68D0B" d="M604.6,576.4c-5.8-16.4-8.1-28.5-8.6-40.4c-5.3,39.3-60.7,42-60.7,42S568.4,594.5,604.6,576.4z"/>
		<path fill="#BF8113" d="M600.7,578.1c0,0-8.9-16.1-9.4-44.9C591.3,533.1,596.2,571.3,600.7,578.1z"/>
	</g>
</g>
</svg>
