<?xml version="1.0" encoding="utf-8"?>
<!-- Generator: Adobe Illustrator 17.1.0, SVG Export Plug-In . SVG Version: 6.00 Build 0)  -->
<!DOCTYPE svg PUBLIC "-//W3C//DTD SVG 1.1//EN" "http://www.w3.org/Graphics/SVG/1.1/DTD/svg11.dtd">
<svg version="1.1" xmlns="http://www.w3.org/2000/svg" xmlns:xlink="http://www.w3.org/1999/xlink" x="0px" y="0px"
	 viewBox="0 0 269 126.6" enable-background="new 0 0 269 126.6" xml:space="preserve">
<g id="BG_main">
</g>
<g id="Button_2">
</g>
<g id="Button6">
</g>
<g id="Text_6">
</g>
<g id="BG_3">
</g>
<g id="Button_4">
</g>
<g id="Button_3_1_">
</g>
<g id="Text_4">
</g>
<g id="Text3">
</g>
<g id="Teхt_2">
</g>
<g id="BG_1">
</g>
<g id="BG_5">
</g>
<g id="Button_1">
</g>
<g id="Button_5">
</g>
<g id="Text5">
</g>
<g id="BG_9">
	
		<rect id="BG_1_" x="38.3" y="44.3" fill="none" stroke="#FFFFFF" stroke-width="2.4993" stroke-miterlimit="10" width="195" height="53.9"/>
</g>
<g id="Button_9">
	
		<rect id="Button_11_" x="31.9" y="35.1" fill="#FFFFFF" stroke="#FF882A" stroke-width="2" stroke-miterlimit="10" width="194.3" height="55"/>
</g>
<g id="Text_9">
	<g>
		<path fill="#FF882A" d="M86.7,50.8v19.5h-2.8v-8.5h-5.5v8.5h-2.8V50.8h2.8v8.3h5.5v-8.3H86.7z"/>
		<path fill="#FF882A" d="M100.3,65.7c-0.3,3.1-2.2,4.9-5.3,4.9c-3.1,0-5-2-5-5.5v-4.4c0-3.5,1.9-5.4,5-5.4c3.1,0,5.1,2,5.1,5.4V64
			h-7.4v1.1c0,2,0.9,2.9,2.3,2.9c1.6,0,2.3-0.7,2.6-2.3H100.3z M92.7,60.7v1.3h4.8v-1.3c0-2-0.9-2.9-2.4-2.9
			C93.5,57.8,92.7,58.7,92.7,60.7z"/>
		<path fill="#FF882A" d="M116.5,58.2h-4.9v12.1h-2.7V55.6h7.6V58.2z"/>
		<path fill="#FF882A" d="M117.7,65v-4.2c0-3.6,2-5.6,5.1-5.6c3.2,0,5.2,2,5.2,5.6V65c0,3.6-2,5.6-5.2,5.6
			C119.7,70.6,117.7,68.6,117.7,65z M125.3,65v-4.2c0-2.1-0.9-2.9-2.4-2.9c-1.5,0-2.4,0.9-2.4,2.9V65c0,2.1,0.9,2.9,2.4,2.9
			C124.4,68,125.3,67.1,125.3,65z"/>
		<path fill="#FF882A" d="M140.7,66c0,2.6-1.7,4.3-5.1,4.3h-4.6V55.6h4.4c3,0,4.6,1.5,4.6,4.1c0,1.1-0.6,2.1-1.6,2.8
			C139.9,63.1,140.7,64.6,140.7,66z M133.6,61.6h1.6c1.4,0,2.1-0.7,2.1-1.9c0-1.1-0.7-1.9-2.1-1.9h-1.6V61.6z M138,65.9
			c0-1.3-0.8-2-2.3-2h-2.1V68h2.1C137.3,68,138,67.3,138,65.9z"/>
		<path fill="#FF882A" d="M142.6,65v-4.2c0-3.6,2-5.6,5.1-5.6c3.2,0,5.2,2,5.2,5.6V65c0,3.6-2,5.6-5.2,5.6
			C144.5,70.6,142.6,68.6,142.6,65z M150.2,65v-4.2c0-2.1-0.9-2.9-2.4-2.9c-1.5,0-2.4,0.9-2.4,2.9V65c0,2.1,0.9,2.9,2.4,2.9
			C149.2,68,150.2,67.1,150.2,65z"/>
		<path fill="#FF882A" d="M165.9,61v4c0,3.6-1.8,5.6-4.7,5.6c-1.1,0-2.1-0.4-2.8-1.2v5.8h-2.6V55.6h1.9l0.2,1.4
			c0.7-0.9,2-1.7,3.3-1.7C164,55.3,165.9,57.4,165.9,61z M163.1,61c0-2.2-0.9-3.1-2.4-3.1c-1.4,0-2.4,1-2.4,3.1V65
			c0,1.9,0.9,3.1,2.4,3.1c1.6,0,2.4-0.9,2.4-3.1V61z"/>
		<path fill="#FF882A" d="M177.3,55.6v14.6h-2.6v-4.9h-1.6l-2.6,4.9h-3.1l3.1-5.3c-1.5-0.6-2.6-2.1-2.6-4.5c0-3,2-4.8,4.9-4.8H177.3
			z M174.7,58.1h-1.8c-1.6,0-2.4,0.9-2.4,2.4c0,1.6,0.8,2.5,2.3,2.5h1.8V58.1z"/>
		<path fill="#FF882A" d="M188.4,58.2H185v12.1h-2.7V58.2H179v-2.5h9.4V58.2z"/>
	</g>
</g>
<g id="BG_10">
</g>
<g id="Button_10">
</g>
<g id="Text_10">
</g>
<g id="Button_8">
</g>
<g id="Text_8">
</g>
<g id="Button_7">
</g>
<g id="Text_7">
</g>
<g id="Text1">
</g>
</svg>
