<?xml version="1.0" encoding="utf-8"?>
<!-- Generator: Adobe Illustrator 17.1.0, SVG Export Plug-In . SVG Version: 6.00 Build 0)  -->
<!DOCTYPE svg PUBLIC "-//W3C//DTD SVG 1.1//EN" "http://www.w3.org/Graphics/SVG/1.1/DTD/svg11.dtd">
<svg version="1.1" xmlns="http://www.w3.org/2000/svg" xmlns:xlink="http://www.w3.org/1999/xlink" x="0px" y="0px"
	 viewBox="0 0 285.7 110.7" enable-background="new 0 0 285.7 110.7" xml:space="preserve">
<g id="BG_main">
</g>
<g id="Button_2">
</g>
<g id="Button6">
</g>
<g id="Text_6">
</g>
<g id="BG_3">
</g>
<g id="Button_4">
	<rect id="Button_4_" x="50.1" y="28.3" fill="#FF882A" width="194.3" height="55"/>
</g>
<g id="Button_3_1_">
</g>
<g id="Text_4">
	<g>
		<path fill="#FFFFFF" d="M94.8,45.8v19.5H92v-8.5h-5.5v8.5h-2.8V45.8h2.8v8.3H92v-8.3H94.8z"/>
		<path fill="#FFFFFF" d="M108.3,60.7c-0.3,3.1-2.2,4.9-5.3,4.9c-3.1,0-5-2-5-5.5v-4.4c0-3.5,1.9-5.4,5-5.4c3.1,0,5.1,2,5.1,5.4V59
			h-7.4v1.1c0,2,0.9,2.9,2.3,2.9c1.6,0,2.3-0.7,2.6-2.3H108.3z M100.7,55.7v1.3h4.8v-1.3c0-2-0.9-2.9-2.4-2.9
			C101.6,52.8,100.7,53.7,100.7,55.7z"/>
		<path fill="#FFFFFF" d="M116.6,60.2v-4.6c0-3.4,1.9-5.3,4.9-5.3c3.2,0,5,1.9,5.1,5.3h-2.7c-0.1-1.9-0.9-2.8-2.3-2.8
			c-1.4,0-2.3,0.9-2.3,2.8v4.6c0,1.9,0.8,2.8,2.3,2.8c1.5,0,2.3-0.9,2.4-2.8h2.7c-0.1,3.4-2,5.4-5.1,5.4
			C118.5,65.6,116.6,63.6,116.6,60.2z"/>
		<path fill="#FFFFFF" d="M128.8,60.1v-4.2c0-3.6,2-5.6,5.1-5.6c3.2,0,5.2,2,5.2,5.6v4.2c0,3.6-2,5.6-5.2,5.6
			C130.8,65.6,128.8,63.6,128.8,60.1z M136.4,60.1v-4.2c0-2.1-0.9-2.9-2.4-2.9c-1.5,0-2.4,0.9-2.4,2.9v4.2c0,2.1,0.9,2.9,2.4,2.9
			C135.5,63,136.4,62.1,136.4,60.1z"/>
		<path fill="#FFFFFF" d="M149.6,53.2h-4.9v12.1H142V50.6h7.6V53.2z"/>
		<path fill="#FFFFFF" d="M149.8,62.9c1.5,0,1.8-1.6,2-3.9c0.2-2.1,0.4-5.5,0.4-8.3h8.5v14.6h-2.7V53.1h-3.3c0,1.7-0.2,4.6-0.4,6.3
			c-0.4,4.1-1.8,6.1-4.6,6.1V62.9z"/>
		<path fill="#FFFFFF" d="M173.4,55.6v9.7h-2.2l-0.2-1.4c-0.6,1-1.6,1.7-3.3,1.7c-2.7,0-4.5-1.8-4.5-4.5c0-3,2.1-4.5,5.3-4.5h2.1v-1
			c0-1.7-0.6-2.7-2.1-2.7c-1.2,0-2.1,0.6-2.2,1.9h-2.7c0.1-2.8,2-4.5,5-4.5C171.8,50.3,173.4,52.2,173.4,55.6z M170.7,58.9h-2.1
			c-1.6,0-2.6,0.8-2.6,2.2c0,1.3,0.9,2.1,2.3,2.1s2.4-0.9,2.4-2.3V58.9z"/>
		<path fill="#FFFFFF" d="M176.3,60.2v-4.6c0-3.4,1.9-5.3,4.9-5.3c3.2,0,5,1.9,5.1,5.3h-2.7c-0.1-1.9-0.9-2.8-2.3-2.8
			c-1.4,0-2.3,0.9-2.3,2.8v4.6c0,1.9,0.8,2.8,2.3,2.8c1.5,0,2.3-0.9,2.4-2.8h2.7c-0.1,3.4-2,5.4-5.1,5.4
			C178.2,65.6,176.3,63.6,176.3,60.2z"/>
		<path fill="#FFFFFF" d="M198.7,60.7c-0.3,3.1-2.2,4.9-5.3,4.9c-3.1,0-5-2-5-5.5v-4.4c0-3.5,1.9-5.4,5-5.4c3.1,0,5.1,2,5.1,5.4V59
			h-7.4v1.1c0,2,0.9,2.9,2.3,2.9c1.6,0,2.3-0.7,2.6-2.3H198.7z M191.1,55.7v1.3h4.8v-1.3c0-2-0.9-2.9-2.4-2.9
			C192,52.8,191.1,53.7,191.1,55.7z"/>
		<path fill="#FFFFFF" d="M210.8,50.6v14.6h-2.7V59h-4.1v6.3h-2.7V50.6h2.7v5.9h4.1v-5.9H210.8z"/>
	</g>
</g>
<g id="Text3">
</g>
<g id="Teхt_2">
</g>
<g id="BG_1">
</g>
<g id="BG_5">
</g>
<g id="Button_1">
</g>
<g id="Button_5">
</g>
<g id="Text5">
</g>
<g id="BG_9">
</g>
<g id="Button_9">
</g>
<g id="Text_9">
</g>
<g id="BG_10">
</g>
<g id="Button_10">
</g>
<g id="Text_10">
</g>
<g id="Button_8">
</g>
<g id="Text_8">
</g>
<g id="Button_7">
</g>
<g id="Text_7">
</g>
<g id="Text1">
</g>
</svg>
