<?xml version="1.0" encoding="utf-8"?>
<!-- Generator: Adobe Illustrator 17.1.0, SVG Export Plug-In . SVG Version: 6.00 Build 0)  -->
<!DOCTYPE svg PUBLIC "-//W3C//DTD SVG 1.1//EN" "http://www.w3.org/Graphics/SVG/1.1/DTD/svg11.dtd">
<svg version="1.1" xmlns="http://www.w3.org/2000/svg" xmlns:xlink="http://www.w3.org/1999/xlink" x="0px" y="0px"
	 viewBox="0 0 269 112" enable-background="new 0 0 269 112" xml:space="preserve">
<g id="BG_main">
</g>
<g id="Button_2">
</g>
<g id="Button6">
	<rect id="Button_8_" x="34.4" y="10.8" fill="#FF882A" width="194.3" height="55"/>
</g>
<g id="Text_6">
	<g>
		<path fill="#FFFFFF" d="M86.6,26.1v19.5h-2.8V37h-5.5v8.5h-2.8V26.1h2.8v8.3h5.5v-8.3H86.6z"/>
		<path fill="#FFFFFF" d="M100.2,41c-0.3,3.1-2.2,4.9-5.3,4.9c-3.1,0-5-2-5-5.5V36c0-3.5,1.9-5.4,5-5.4c3.1,0,5.1,2,5.1,5.4v3.3
			h-7.4v1.1c0,2,0.9,2.9,2.3,2.9c1.6,0,2.3-0.7,2.6-2.3H100.2z M92.5,36v1.3h4.8V36c0-2-0.9-2.9-2.4-2.9C93.4,33.1,92.5,34,92.5,36z
			"/>
		<path fill="#FFFFFF" d="M116.4,33.5h-4.9v12.1h-2.7V30.9h7.6V33.5z"/>
		<path fill="#FFFFFF" d="M117.6,40.3v-4.2c0-3.6,2-5.6,5.1-5.6c3.2,0,5.2,2,5.2,5.6v4.2c0,3.6-2,5.6-5.2,5.6
			C119.6,45.9,117.6,43.9,117.6,40.3z M125.2,40.3v-4.2c0-2.1-0.9-2.9-2.4-2.9c-1.5,0-2.4,0.9-2.4,2.9v4.2c0,2.1,0.9,2.9,2.4,2.9
			C124.3,43.3,125.2,42.4,125.2,40.3z"/>
		<path fill="#FFFFFF" d="M140.6,41.3c0,2.6-1.7,4.3-5.1,4.3h-4.6V30.9h4.4c3,0,4.6,1.5,4.6,4.1c0,1.1-0.6,2.1-1.6,2.8
			C139.8,38.4,140.6,39.8,140.6,41.3z M133.4,36.9h1.6c1.4,0,2.1-0.7,2.1-1.9c0-1.1-0.7-1.9-2.1-1.9h-1.6V36.9z M137.9,41.2
			c0-1.3-0.8-2-2.3-2h-2.1v4.1h2.1C137.1,43.3,137.9,42.5,137.9,41.2z"/>
		<path fill="#FFFFFF" d="M142.5,40.3v-4.2c0-3.6,2-5.6,5.1-5.6c3.2,0,5.2,2,5.2,5.6v4.2c0,3.6-2,5.6-5.2,5.6
			C144.4,45.9,142.5,43.9,142.5,40.3z M150,40.3v-4.2c0-2.1-0.9-2.9-2.4-2.9c-1.5,0-2.4,0.9-2.4,2.9v4.2c0,2.1,0.9,2.9,2.4,2.9
			C149.1,43.3,150,42.4,150,40.3z"/>
		<path fill="#FFFFFF" d="M165.8,36.2v4c0,3.6-1.8,5.6-4.7,5.6c-1.1,0-2.1-0.4-2.8-1.2v5.8h-2.6V30.9h1.9l0.2,1.4
			c0.7-0.9,2-1.7,3.3-1.7C163.9,30.6,165.8,32.6,165.8,36.2z M163,36.2c0-2.2-0.9-3.1-2.4-3.1c-1.4,0-2.4,1-2.4,3.1v4.1
			c0,1.9,0.9,3.1,2.4,3.1c1.6,0,2.4-0.9,2.4-3.1V36.2z"/>
		<path fill="#FFFFFF" d="M177.2,30.9v14.6h-2.6v-4.9H173l-2.6,4.9h-3.1l3.1-5.3c-1.5-0.6-2.6-2.1-2.6-4.5c0-3,2-4.8,4.9-4.8H177.2z
			 M174.6,33.3h-1.8c-1.6,0-2.4,0.9-2.4,2.4c0,1.6,0.8,2.5,2.3,2.5h1.8V33.3z"/>
		<path fill="#FFFFFF" d="M188.3,33.4h-3.4v12.1h-2.7V33.4h-3.3v-2.5h9.4V33.4z"/>
	</g>
</g>
<g id="BG_3">
</g>
<g id="Button_4">
</g>
<g id="Button_3_1_">
</g>
<g id="Text_4">
</g>
<g id="Text3">
</g>
<g id="Teхt_2">
</g>
<g id="BG_1">
</g>
<g id="BG_5">
</g>
<g id="Button_1">
</g>
<g id="Button_5">
</g>
<g id="Text5">
</g>
<g id="BG_9">
</g>
<g id="Button_9">
</g>
<g id="Text_9">
</g>
<g id="BG_10">
</g>
<g id="Button_10">
</g>
<g id="Text_10">
</g>
<g id="Button_8">
</g>
<g id="Text_8">
</g>
<g id="Button_7">
</g>
<g id="Text_7">
</g>
<g id="Text1">
</g>
</svg>
