<?xml version="1.0" encoding="utf-8"?>
<!-- Generator: Adobe Illustrator 17.1.0, SVG Export Plug-In . SVG Version: 6.00 Build 0)  -->
<!DOCTYPE svg PUBLIC "-//W3C//DTD SVG 1.1//EN" "http://www.w3.org/Graphics/SVG/1.1/DTD/svg11.dtd">
<svg version="1.1" xmlns="http://www.w3.org/2000/svg" xmlns:xlink="http://www.w3.org/1999/xlink" x="0px" y="0px"
	 viewBox="0 0 287.1 118" enable-background="new 0 0 287.1 118" xml:space="preserve">
<g id="BG_main">
</g>
<g id="Button_2">
</g>
<g id="Button6">
</g>
<g id="Text_6">
</g>
<g id="BG_3">
</g>
<g id="Button_4">
</g>
<g id="Button_3_1_">
</g>
<g id="Text_4">
</g>
<g id="Text3">
</g>
<g id="Teхt_2">
</g>
<g id="BG_1">
</g>
<g id="BG_5">
</g>
<g id="Button_1">
</g>
<g id="Button_5">
</g>
<g id="Text5">
</g>
<g id="BG_9">
</g>
<g id="Button_9">
</g>
<g id="Text_9">
</g>
<g id="BG_10">
	
		<rect id="BG_4_" x="64.4" y="30.3" fill="none" stroke="#FFFFFF" stroke-width="2.4993" stroke-miterlimit="10" width="195" height="53.9"/>
</g>
<g id="Button_10">
	
		<rect id="Button_6_" x="57.7" y="21.4" fill="#FFFFFF" stroke="#FF882A" stroke-width="2" stroke-miterlimit="10" width="194.3" height="55"/>
</g>
<g id="Text_10">
	<g>
		<path fill="#FF882A" d="M103.8,38.4v19.5H101v-8.5h-5.5v8.5h-2.8V38.4h2.8v8.3h5.5v-8.3H103.8z"/>
		<path fill="#FF882A" d="M117.3,53.3c-0.3,3.1-2.2,4.9-5.3,4.9c-3.1,0-5-2-5-5.5v-4.4c0-3.5,1.9-5.4,5-5.4c3.1,0,5.1,2,5.1,5.4v3.3
			h-7.4v1.1c0,2,0.9,2.9,2.3,2.9c1.6,0,2.3-0.7,2.6-2.3H117.3z M109.7,48.3v1.3h4.8v-1.3c0-2-0.9-2.9-2.4-2.9
			C110.6,45.4,109.7,46.3,109.7,48.3z"/>
		<path fill="#FF882A" d="M125.6,52.8v-4.6c0-3.4,1.9-5.3,4.9-5.3c3.2,0,5,1.9,5.1,5.3h-2.7c-0.1-1.9-0.9-2.8-2.3-2.8
			c-1.4,0-2.3,0.9-2.3,2.8v4.6c0,1.9,0.8,2.8,2.3,2.8c1.5,0,2.3-0.9,2.4-2.8h2.7c-0.1,3.4-2,5.4-5.1,5.4
			C127.5,58.2,125.6,56.2,125.6,52.8z"/>
		<path fill="#FF882A" d="M137.8,52.6v-4.2c0-3.6,2-5.6,5.1-5.6c3.2,0,5.2,2,5.2,5.6v4.2c0,3.6-2,5.6-5.2,5.6
			C139.7,58.2,137.8,56.2,137.8,52.6z M145.4,52.6v-4.2c0-2.1-0.9-2.9-2.4-2.9c-1.5,0-2.4,0.9-2.4,2.9v4.2c0,2.1,0.9,2.9,2.4,2.9
			C144.4,55.6,145.4,54.7,145.4,52.6z"/>
		<path fill="#FF882A" d="M158.6,45.8h-4.9v12.1H151V43.2h7.6V45.8z"/>
		<path fill="#FF882A" d="M158.8,55.5c1.5,0,1.8-1.6,2-3.9c0.2-2.1,0.4-5.5,0.4-8.3h8.5v14.6h-2.7V45.7h-3.3c0,1.7-0.2,4.6-0.4,6.3
			c-0.4,4.1-1.8,6.1-4.6,6.1V55.5z"/>
		<path fill="#FF882A" d="M182.4,48.1v9.7h-2.2l-0.2-1.4c-0.6,1-1.6,1.7-3.3,1.7c-2.7,0-4.5-1.8-4.5-4.5c0-3,2.1-4.5,5.3-4.5h2.1v-1
			c0-1.7-0.6-2.7-2.1-2.7c-1.2,0-2.1,0.6-2.2,1.9h-2.7c0.1-2.8,2-4.5,5-4.5C180.7,42.9,182.4,44.8,182.4,48.1z M179.7,51.5h-2.1
			c-1.6,0-2.6,0.8-2.6,2.2c0,1.3,0.9,2.1,2.3,2.1s2.4-0.9,2.4-2.3V51.5z"/>
		<path fill="#FF882A" d="M185.3,52.8v-4.6c0-3.4,1.9-5.3,4.9-5.3c3.2,0,5,1.9,5.1,5.3h-2.7c-0.1-1.9-0.9-2.8-2.3-2.8
			c-1.4,0-2.3,0.9-2.3,2.8v4.6c0,1.9,0.8,2.8,2.3,2.8c1.5,0,2.3-0.9,2.4-2.8h2.7c-0.1,3.4-2,5.4-5.1,5.4
			C187.1,58.2,185.3,56.2,185.3,52.8z"/>
		<path fill="#FF882A" d="M207.7,53.3c-0.3,3.1-2.2,4.9-5.3,4.9c-3.1,0-5-2-5-5.5v-4.4c0-3.5,1.9-5.4,5-5.4c3.1,0,5.1,2,5.1,5.4v3.3
			h-7.4v1.1c0,2,0.9,2.9,2.3,2.9c1.6,0,2.3-0.7,2.6-2.3H207.7z M200.1,48.3v1.3h4.8v-1.3c0-2-0.9-2.9-2.4-2.9
			C201,45.4,200.1,46.3,200.1,48.3z"/>
		<path fill="#FF882A" d="M219.8,43.2v14.6h-2.7v-6.3h-4.1v6.3h-2.7V43.2h2.7v5.9h4.1v-5.9H219.8z"/>
	</g>
</g>
<g id="Button_8">
</g>
<g id="Text_8">
</g>
<g id="Button_7">
</g>
<g id="Text_7">
</g>
<g id="Text1">
</g>
</svg>
