<?xml version="1.0" encoding="utf-8"?>
<!-- Generator: Adobe Illustrator 17.1.0, SVG Export Plug-In . SVG Version: 6.00 Build 0)  -->
<!DOCTYPE svg PUBLIC "-//W3C//DTD SVG 1.1//EN" "http://www.w3.org/Graphics/SVG/1.1/DTD/svg11.dtd">
<svg version="1.1" xmlns="http://www.w3.org/2000/svg" xmlns:xlink="http://www.w3.org/1999/xlink" x="0px" y="0px"
	 viewBox="0 0 194.3 55" enable-background="new 0 0 194.3 55" xml:space="preserve">
<g id="Ground">
</g>
<g id="Wall1">
</g>
<g id="Wall_2">
</g>
<g id="Wall_3">
</g>
<g id="Window_big">
</g>
<g id="Signboard">
</g>
<g id="Window_4">
</g>
<g id="Window_4_1_">
</g>
<g id="Curb">
</g>
<g id="Tree_1">
</g>
<g id="Character">
	<g>
		<rect id="Button_4_" x="0" y="0" fill="#FF882A" width="194.3" height="55"/>
		<g>
			<path fill="#FFFFFF" d="M51.7,35.2h-2.8V18.7h-5.4v16.5h-2.8V16.1h11V35.2z"/>
			<path fill="#FFFFFF" d="M54.9,30.1v-4.2c0-3.5,1.9-5.5,5.1-5.5c3.1,0,5.1,1.9,5.1,5.5v4.2c0,3.5-1.9,5.5-5.1,5.5
				C56.8,35.6,54.9,33.6,54.9,30.1z M62.3,30.1v-4.2c0-2-0.9-2.9-2.4-2.9c-1.5,0-2.4,0.9-2.4,2.9v4.2c0,2,0.9,2.9,2.4,2.9
				C61.4,33,62.3,32.1,62.3,30.1z"/>
			<path fill="#FFFFFF" d="M66,32.8h1.1c0.8-1.2,1.1-3,1.3-5.1c0.1-2.3,0.2-4.6,0.3-6.9H77v12h1.6v5.6h-2.5v-3.2h-7.6v3.2H66V32.8z
				 M74.4,32.8v-9.6h-3.3c0,1.7-0.1,3.4-0.2,5.1c-0.1,1.8-0.4,3.3-0.8,4.5H74.4z"/>
			<path fill="#FFFFFF" d="M90.6,26.1v4c0,3.5-1.8,5.5-4.6,5.5c-1,0-2.1-0.4-2.8-1.2v5.8h-2.6V20.8h1.9l0.2,1.3
				c0.7-0.9,2-1.6,3.3-1.6C88.7,20.5,90.6,22.5,90.6,26.1z M87.9,26.1c0-2.1-0.8-3.1-2.3-3.1c-1.4,0-2.3,1-2.3,3.1v4
				c0,1.9,0.9,3,2.3,3c1.5,0,2.3-0.9,2.3-3V26.1z"/>
			<path fill="#FFFFFF" d="M93.1,30.1v-4.2c0-3.5,1.9-5.5,5.1-5.5c3.1,0,5.1,1.9,5.1,5.5v4.2c0,3.5-1.9,5.5-5.1,5.5
				C95,35.6,93.1,33.6,93.1,30.1z M100.5,30.1v-4.2c0-2-0.9-2.9-2.4-2.9c-1.5,0-2.4,0.9-2.4,2.9v4.2c0,2,0.9,2.9,2.4,2.9
				C99.6,33,100.5,32.1,100.5,30.1z"/>
			<path fill="#FFFFFF" d="M116.1,27.2v2.9c0,3.5-1.9,5.4-5.1,5.4c-3.1,0-5-1.9-5-5.4v-7.6c0-3.7,2.3-5.1,4.7-5.9
				c1.4-0.5,2-0.7,2.7-1.8l1.9,1.6c-0.8,1.5-2,2.1-3.4,2.5c-1.5,0.4-3.3,1-3.3,3.4V23c0.7-0.8,1.7-1.2,2.9-1.2
				C114.3,21.8,116.1,23.8,116.1,27.2z M113.4,27.4c0-2.1-0.8-3-2.3-3c-1.3,0-2.4,0.8-2.4,2.9v2.8c0,2,0.9,2.9,2.3,2.9
				c1.5,0,2.4-0.9,2.4-2.9V27.4z"/>
			<path fill="#FFFFFF" d="M128.1,20.8v14.4h-2.7v-6.2h-4v6.2h-2.7V20.8h2.7v5.8h4v-5.8H128.1z"/>
			<path fill="#FFFFFF" d="M141.1,30.7c-0.2,3.1-2.1,4.8-5.3,4.8c-3,0-4.9-2-4.9-5.4v-4.3c0-3.4,1.9-5.4,4.9-5.4c3.1,0,5,1.9,5,5.4
				V29h-7.3v1.1c0,2,0.8,2.9,2.3,2.9c1.6,0,2.3-0.7,2.5-2.3H141.1z M133.6,25.8V27h4.7v-1.2c0-2-0.9-2.8-2.4-2.8
				C134.5,22.9,133.6,23.8,133.6,25.8z"/>
			<path fill="#FFFFFF" d="M153.6,30.7c-0.2,3.1-2.1,4.8-5.3,4.8c-3,0-4.9-2-4.9-5.4v-4.3c0-3.4,1.9-5.4,4.9-5.4c3.1,0,5,1.9,5,5.4
				V29h-7.3v1.1c0,2,0.8,2.9,2.3,2.9c1.6,0,2.3-0.7,2.5-2.3H153.6z M146.1,25.8V27h4.7v-1.2c0-2-0.9-2.8-2.4-2.8
				C146.9,22.9,146.1,23.8,146.1,25.8z"/>
		</g>
	</g>
</g>
</svg>
