<?xml version="1.0" encoding="utf-8"?>
<!-- Generator: Adobe Illustrator 17.1.0, SVG Export Plug-In . SVG Version: 6.00 Build 0)  -->
<!DOCTYPE svg PUBLIC "-//W3C//DTD SVG 1.1//EN" "http://www.w3.org/Graphics/SVG/1.1/DTD/svg11.dtd">
<svg version="1.1" xmlns="http://www.w3.org/2000/svg" xmlns:xlink="http://www.w3.org/1999/xlink" x="0px" y="0px"
	 viewBox="0 0 1093.5 801.2" enable-background="new 0 0 1093.5 801.2" xml:space="preserve">
<g id="C1">
</g>
<g id="C2">
	<g>
		<path fill="#FFDF57" d="M1016.2,255c-1,0-2,0-3-0.1c-4.5-0.2-9-0.6-13.5-1.2c-0.9-0.1-1.5-0.9-1.4-1.8c0.1-0.9,0.9-1.5,1.8-1.4
			c4.4,0.5,8.9,0.9,13.3,1.2c3.7,0.2,7.9,0.2,10.9-1.8c2.8-1.9,4.3-5.4,5.3-9.1c-2.1,0.5-4.3,0.6-6.4,0.2
			c-6.6-1.2-11.4-7.4-10.6-13.5c0.6-4.4,4-8.2,8.4-9.2c4.3-1,9.1,0.9,11.5,4.5c2.4,3.6,2.4,7.9,1.7,12.1c1-0.7,1.9-1.6,2.7-2.5
			c3-3.4,5-8,6.1-14.2c0.2-0.9,1-1.5,1.9-1.3c0.9,0.2,1.5,1,1.3,1.9c-1.2,6.7-3.4,11.9-6.8,15.7c-1.8,2-3.8,3.6-6.1,4.7
			c-1.2,5.1-2.8,10.3-7.1,13.2C1023.2,254.5,1019.6,255,1016.2,255z M1023.2,221.2c-0.5,0-1.1,0.1-1.6,0.2c-3,0.7-5.4,3.4-5.8,6.4
			c-0.6,4.4,3.1,9,7.9,9.9c2.2,0.4,4.5,0.1,6.7-0.7c1-4.5,1.6-9-0.7-12.4C1028.3,222.5,1025.7,221.2,1023.2,221.2z"/>
	</g>
</g>
<g id="C3">
	<path fill="#D7684B" d="M1001.1,312.4c0,0,23.4,5.9,33.9-10l-6-7.3c0,0-8.2,11.4-24.8,12.2L1001.1,312.4z"/>
</g>
<g id="C4">
	<path fill="#A7A6F6" d="M1064.4,336.6c0,0-39,9.1-43.1,36.7l5.5,3.3C1026.8,376.6,1027.6,354.7,1064.4,336.6z"/>
</g>
<g id="C6">
	<g>
		<path fill="#FFDF57" d="M992.7,73.6c-1,0-2,0-3-0.1c-4.5-0.2-9-0.6-13.5-1.2c-0.9-0.1-1.5-0.9-1.4-1.8c0.1-0.9,0.9-1.5,1.8-1.4
			c4.4,0.5,8.9,0.9,13.3,1.2c3.7,0.2,7.9,0.2,10.9-1.8c2.8-1.9,4.3-5.4,5.3-9.1c-2.1,0.5-4.3,0.6-6.4,0.2
			C993,58.3,988.2,52.1,989,46c0.6-4.4,4-8.2,8.4-9.2c4.3-1,9.1,0.9,11.5,4.5c2.4,3.6,2.4,7.9,1.7,12.1c1-0.7,1.9-1.6,2.7-2.5
			c3-3.4,5-8,6.1-14.2c0.2-0.9,1-1.5,1.9-1.3c0.9,0.2,1.5,1,1.3,1.9c-1.2,6.7-3.4,11.9-6.8,15.7c-1.8,2-3.8,3.6-6.1,4.7
			c-1.2,5.1-2.8,10.3-7.1,13.2C999.6,73.1,996.1,73.6,992.7,73.6z M999.7,39.8c-0.5,0-1.1,0.1-1.6,0.2c-3,0.7-5.4,3.4-5.8,6.4
			c-0.6,4.4,3.1,9,7.9,9.9c2.2,0.4,4.5,0.1,6.7-0.7c1-4.5,1.6-9-0.7-12.4C1004.8,41.1,1002.2,39.8,999.7,39.8z"/>
	</g>
</g>
<g id="C7">
	<path fill="#D7684B" d="M977.5,131c0,0,23.4,5.9,33.9-10l-6-7.3c0,0-8.2,11.4-24.8,12.2L977.5,131z"/>
</g>
<g id="C8">
	<g>
		<path fill="#FFDF57" d="M48.2,265.2c-1,0-2,0-3-0.1c-4.5-0.2-9-0.6-13.5-1.2c-0.9-0.1-1.5-0.9-1.4-1.8c0.1-0.9,0.9-1.5,1.8-1.4
			c4.4,0.5,8.9,0.9,13.3,1.2c3.7,0.2,7.9,0.2,10.9-1.8c2.8-1.9,4.3-5.4,5.3-9.1c-2.1,0.5-4.3,0.6-6.4,0.2
			c-6.6-1.2-11.4-7.4-10.6-13.5c0.6-4.4,4-8.2,8.4-9.2c4.3-1,9.1,0.9,11.5,4.5c2.4,3.6,2.4,7.9,1.7,12.1c1-0.7,1.9-1.6,2.7-2.5
			c3-3.4,5-8,6.1-14.2c0.2-0.9,1-1.5,1.9-1.3c0.9,0.2,1.5,1,1.3,1.9c-1.2,6.7-3.4,11.9-6.8,15.7c-1.8,2-3.8,3.6-6.1,4.7
			c-1.2,5.1-2.8,10.3-7.1,13.2C55.1,264.7,51.6,265.2,48.2,265.2z M55.2,231.4c-0.5,0-1.1,0.1-1.6,0.2c-3,0.7-5.4,3.4-5.8,6.4
			c-0.6,4.4,3.1,9,7.9,9.9c2.2,0.4,4.5,0.1,6.7-0.7c1-4.5,1.6-9-0.7-12.4C60.3,232.7,57.7,231.4,55.2,231.4z"/>
	</g>
</g>
<g id="C9">
	<path fill="#D7684B" d="M33,322.6c0,0,23.4,5.9,33.9-10l-6-7.3c0,0-8.2,11.4-24.8,12.2L33,322.6z"/>
</g>
<g id="C10">
	<path fill="#A7A6F6" d="M157,277.6c0,0-39,9.1-43.1,36.7l5.5,3.3C119.4,317.6,120.2,295.6,157,277.6z"/>
</g>
<g id="C11">
	<g>
		<path fill="#FFDF57" d="M225.7,618.3c1,0.2,2,0.3,3,0.5c4.4,0.9,8.8,2,13.2,3.2c0.9,0.2,1.4,1.1,1.1,2c-0.2,0.9-1.1,1.4-2,1.1
			c-4.3-1.2-8.6-2.2-13-3.1c-3.6-0.7-7.8-1.4-11.1,0.1c-3.1,1.5-5,4.7-6.6,8.2c2.2-0.2,4.3,0,6.3,0.7c6.3,2.2,10.2,9,8.5,15
			c-1.3,4.3-5.2,7.5-9.6,7.8c-4.4,0.3-8.8-2.2-10.7-6.2c-1.8-3.9-1.2-8.2,0.1-12.2c-1.1,0.6-2.1,1.3-3,2.1
			c-3.5,2.9-6.1,7.2-8.1,13.1c-0.3,0.9-1.2,1.3-2.1,1c-0.9-0.3-1.3-1.2-1-2.1c2.2-6.5,5.2-11.2,9.1-14.5c2-1.7,4.3-3,6.7-3.8
			c1.9-4.9,4.3-9.8,9-12C218.8,617.7,222.4,617.8,225.7,618.3z M213.7,650.6c0.5,0.1,1.1,0.1,1.6,0.1c3-0.2,5.9-2.5,6.7-5.5
			c1.2-4.2-1.7-9.3-6.4-10.9c-2.1-0.7-4.4-0.8-6.7-0.3c-1.6,4.3-2.9,8.7-1.2,12.3C208.9,648.6,211.2,650.3,213.7,650.6z"/>
	</g>
</g>
<g id="C12">
	<path fill="#D7684B" d="M601.9,277.8c0,0,17,17.1,34.2,8.9l-1.4-9.3c0,0-12.9,5.6-27.6-2.3L601.9,277.8z"/>
</g>
<g id="C13">
	<g>
		<path fill="#75AEB9" d="M341.6,615.6c1.3,0.2,2.6,0.6,3.8,1.2c4.3,2.3,7.3,7,7.9,12.4c0.1,1.3,0.1,2.6,0,3.9c4-2.2,7.5-5.3,11-8.4
			c0.7-0.6,1.7-0.5,2.3,0.1c0.6,0.7,0.5,1.7-0.1,2.3c-4,3.6-8.5,7.6-13.8,9.9c-0.5,2-1.3,4.1-2.3,6.2c-3.1,6.4-7.8,11.3-13.2,14
			c-6.4,3.1-14,2.8-19.3-0.7c-0.8-0.5-1-1.5-0.5-2.3c0.5-0.8,1.5-1,2.3-0.5c4.4,2.9,10.7,3.1,16.1,0.5c4.8-2.3,8.9-6.7,11.7-12.4
			c0.6-1.2,1.1-2.3,1.5-3.4c-5.2,1.3-10.4,0.6-14.2-1.9c-2.9-1.9-5-5.2-5.6-8.8c-0.5-3.1,0.2-6,1.9-8.3
			C333.3,616.4,337.5,615,341.6,615.6z M349.8,634.8c0.3-1.8,0.4-3.5,0.2-5.1c-0.5-4.3-2.8-8.1-6.1-9.9c-3.5-1.9-8.2-1.1-10.4,1.8
			c-1.2,1.5-1.6,3.5-1.3,5.7c0.4,2.7,2,5.2,4.1,6.6C340.4,636.6,345.7,636.2,349.8,634.8z"/>
	</g>
</g>
<g id="C14">
	<path fill="#75AEB9" d="M211.4,694.3c0,0,27.4,11.3,38.3-14.4l-4.5-4.6C245.2,675.4,237,695.8,211.4,694.3z"/>
</g>
<g id="C15">
	<path fill="#A7A6F6" d="M719.1,111.7c0,0-38.1-12.3-55.9,9.3l3,5.7C666.2,126.7,678.2,108.3,719.1,111.7z"/>
</g>
<g id="C16">
	<g>
		<path fill="#FFDF57" d="M379.1,652.5c-1,0-2,0-3-0.1c-4.5-0.2-9-0.6-13.5-1.2c-0.9-0.1-1.5-0.9-1.4-1.8c0.1-0.9,0.9-1.5,1.8-1.4
			c4.4,0.5,8.9,0.9,13.3,1.2c3.7,0.2,7.9,0.2,10.9-1.8c2.8-1.9,4.3-5.4,5.3-9.1c-2.1,0.5-4.3,0.6-6.4,0.2
			c-6.6-1.2-11.4-7.4-10.6-13.5c0.6-4.4,4-8.2,8.4-9.2c4.3-1,9.1,0.9,11.5,4.5c2.4,3.6,2.4,7.9,1.7,12.1c1-0.7,1.9-1.6,2.7-2.5
			c3-3.4,5-8,6.1-14.2c0.2-0.9,1-1.5,1.9-1.3c0.9,0.2,1.5,1,1.3,1.9c-1.2,6.7-3.4,11.9-6.8,15.7c-1.8,2-3.8,3.6-6.1,4.7
			c-1.2,5.1-2.8,10.3-7.1,13.2C386.1,652,382.5,652.5,379.1,652.5z M386.1,618.7c-0.5,0-1.1,0.1-1.6,0.2c-3,0.7-5.4,3.4-5.8,6.4
			c-0.6,4.4,3.1,9,7.9,9.9c2.2,0.4,4.5,0.1,6.7-0.7c1-4.5,1.6-9-0.7-12.4C391.2,620,388.6,618.7,386.1,618.7z"/>
	</g>
</g>
<g id="C17">
	<path fill="#D7684B" d="M771.4,33.7c0,0,12.9,20.4,31.4,16.1l0.6-9.4c0,0-13.8,2.6-26.4-8.3L771.4,33.7z"/>
</g>
<g id="C18">
	<g>
		<path fill="#75AEB9" d="M892.2,71.8c-1-0.9-1.8-2-2.4-3.2c-2.2-4.3-2-9.9,0.7-14.7c0.6-1.1,1.4-2.2,2.2-3.2
			c-4.5-0.5-9.2,0.1-13.8,0.6c-0.9,0.1-1.7-0.5-1.8-1.4c-0.1-0.9,0.5-1.7,1.4-1.8c5.3-0.6,11.3-1.4,17-0.2c1.6-1.4,3.4-2.6,5.5-3.8
			c6.2-3.4,12.9-4.8,18.8-3.9c7,1.1,13,5.7,15.4,11.6c0.3,0.8-0.1,1.8-0.9,2.1c-0.8,0.3-1.8-0.1-2.1-0.9c-2-4.9-7-8.7-12.9-9.6
			c-5.2-0.8-11.2,0.4-16.7,3.5c-1.1,0.6-2.2,1.3-3.2,2c5,1.9,8.9,5.4,10.6,9.7c1.3,3.2,1.1,7.1-0.5,10.4c-1.4,2.8-3.6,4.8-6.3,5.7
			C899.4,75.9,895.1,74.6,892.2,71.8z M896.4,51.4c-1.3,1.3-2.3,2.6-3.1,4.1c-2.1,3.8-2.3,8.3-0.6,11.6c1.8,3.5,6.1,5.5,9.5,4.5
			c1.8-0.6,3.4-2,4.3-4c1.2-2.4,1.3-5.4,0.4-7.8C905.1,55.3,900.5,52.6,896.4,51.4z"/>
	</g>
</g>
<g id="C19">
	<path fill="#D7684B" d="M89.5,90.3c0,0,23.4,5.9,33.9-10l-6-7.3c0,0-8.2,11.4-24.8,12.2L89.5,90.3z"/>
</g>
<g id="C20">
	<path fill="#D7684B" d="M302.3,72.1c0,0,23.4,5.9,33.9-10l-6-7.3c0,0-8.2,11.4-24.8,12.2L302.3,72.1z"/>
</g>
<g id="C21">
	<path fill="#D7684B" d="M550.8,52.1c0,0,1,14.5,19.3,24.6l-9.2,7.1C561,83.8,546.7,65.7,550.8,52.1z"/>
</g>
<g id="C22">
	<g>
		<path fill="#D7684B" d="M1076.3,129.3c-0.4,0-0.8-0.2-1-0.6c-1-1.8-1.8-3.7-2.6-5.6c-0.8-1.8-1.6-3.7-2.6-5.5
			c-1.7-3.2-3.7-5.6-5.8-7.2c0,2.9-0.6,5.5-2,7.5c-2.2,3.3-7.1,5.2-10.9,2.9c-1.8-1.1-2.9-3-3.1-5.3c-0.3-2.6,0.7-5.3,2.5-7
			c2.7-2.5,6.9-3.2,10.8-2c-2.7-11.2-15.2-19.3-26.6-17.1c-0.6,0.1-1.2-0.3-1.3-0.9c-0.1-0.6,0.3-1.2,0.9-1.3
			c12.7-2.5,26.6,6.8,29.3,19.4c0.1,0.3,0.1,0.6,0.2,0.9c3.1,1.8,5.7,4.7,8,8.9c1,1.8,1.8,3.8,2.7,5.6c0.8,1.8,1.6,3.7,2.6,5.4
			c0.3,0.5,0.1,1.2-0.4,1.5C1076.6,129.3,1076.4,129.3,1076.3,129.3z M1057.7,108.3c-2,0-4,0.6-5.5,2c-1.3,1.2-2,3.2-1.8,5.2
			c0.2,1.6,0.9,2.9,2.1,3.7c2.6,1.6,6.3,0.1,7.9-2.3c1.6-2.4,1.8-5.4,1.5-7.6C1060.7,108.6,1059.2,108.3,1057.7,108.3z"/>
	</g>
</g>
<g id="C23">
	<path fill="#75AEB9" d="M712.3,65.8c0,0,16.9-3.1,15.8,14.9C729.7,78.4,727.5,69.3,712.3,65.8z"/>
</g>
<g id="C24">
	<g>
		<path fill="#75AEB9" d="M211.1,68.7c-1.3,0-2.7-0.2-4-0.7c-4.6-1.6-8.2-5.8-9.6-11.1c-0.3-1.2-0.5-2.5-0.6-3.9
			c-3.6,2.8-6.7,6.4-9.6,9.9c-0.6,0.7-1.6,0.8-2.3,0.2c-0.7-0.6-0.8-1.6-0.2-2.3c3.4-4.1,7.2-8.8,12.2-11.9c0.2-2.1,0.7-4.2,1.4-6.5
			c2.1-6.8,6-12.4,11-15.8c5.8-4,13.4-4.9,19.2-2.2c0.8,0.4,1.2,1.4,0.8,2.2c-0.4,0.8-1.4,1.2-2.2,0.8c-4.8-2.2-11.1-1.4-16,1.9
			c-4.4,3-7.8,8-9.7,14.1c-0.4,1.2-0.7,2.5-0.9,3.6c5-2.1,10.1-2.2,14.4-0.2c3.2,1.5,5.7,4.4,6.8,7.9c1,3,0.7,6-0.7,8.5
			C219.2,66.6,215.2,68.7,211.1,68.7z M200.2,51c0,1.8,0.1,3.5,0.6,5.1c1.1,4.2,4,7.6,7.5,8.8c3.7,1.3,8.2-0.2,10-3.3
			c0.9-1.7,1.1-3.7,0.4-5.8c-0.8-2.6-2.8-4.8-5.1-5.9C209.1,47.8,203.9,49,200.2,51z"/>
	</g>
</g>
<g id="C25">
	<path fill="#A7A6F6" d="M426.2,27.1c0,0-39,9.1-43.1,36.7l5.5,3.3C388.6,67.1,389.4,45.1,426.2,27.1z"/>
</g>
<g id="C29">
	<path fill="#D7684B" d="M833.1,671.5c0,0,12.9,20.4,31.4,16.1l0.6-9.4c0,0-13.8,2.6-26.4-8.3L833.1,671.5z"/>
</g>
<g id="C30">
</g>
<g id="C31">
	<g>
		<path fill="#A7A6F6" d="M773.9,760.3c-0.7-0.7-1.3-1.4-1.6-2.3c-2.1-4.8,0.6-10.1,4.2-12.7c0.3-0.2,0.6-0.4,0.9-0.6
			c-1.9-1.5-4.2-2.7-6.8-3.5c-5.7-1.9-11.8-2.2-17.8-2.4c-0.6,0-1.2-0.6-1.1-1.2c0-0.6,0.6-1.2,1.2-1.1c6.1,0.2,12.5,0.5,18.5,2.5
			c3.2,1.1,6,2.7,8.4,4.6c2.7-1.1,5.9-1.6,9.8-1.5c8,0.2,18.2,3.4,22.5,11.8c0.3,0.6,0.1,1.3-0.5,1.6c-0.6,0.3-1.3,0.1-1.6-0.5
			c-3.8-7.4-13.1-10.3-20.5-10.5c-3-0.1-5.6,0.2-7.8,0.9c1.7,1.8,3,3.8,3.8,6c1.3,3.4,1,6.8-0.7,9c-1.4,1.8-3.6,2.6-6.1,2.3
			C776.8,762.3,775.2,761.4,773.9,760.3z M779.3,746.2c-0.5,0.3-1,0.6-1.5,0.9c-2.9,2.1-5,6.4-3.5,9.9c0.7,1.7,2.5,2.9,4.6,3.2
			c1.7,0.2,3.1-0.3,4-1.4c1.2-1.5,1.3-4,0.3-6.7C782.5,749.9,781.1,748,779.3,746.2z"/>
	</g>
</g>
<g id="C32">
	<g>
		<path fill="#75AEB9" d="M982.3,598.8c-0.3-0.3-0.5-0.6-0.5-1.1c-0.1-0.9,0.6-1.7,1.5-1.8c3.1-0.2,6.1-1.2,9.2-2.2l1.1-0.4
			c3.3-1.1,7-2.2,10.9-2c1.9-2,4.5-3.7,7.9-5.2c5.2-2.3,10-3.2,14.3-2.5c5.5,0.8,10.1,4.4,11.7,9c0.3,0.9-0.2,1.8-1,2.1
			c-0.9,0.3-1.8-0.2-2.1-1c-1.2-3.4-4.9-6.2-9.1-6.9c-3.6-0.6-7.8,0.2-12.5,2.3c-2,0.9-3.7,1.8-5.1,2.9c3.1,1,5.7,2.9,7.1,5.4
			c1.2,2.1,1.4,4.8,0.7,7.2c-0.7,2.1-2,3.8-3.8,4.7c-1.8,0.9-3.9,1-6,0.3c-2.3-0.8-4.3-2.6-5.2-4.7c-1.4-3-1.1-6.9,0.6-10.2
			c-2.5,0.3-5,1-7.4,1.8l-1.1,0.4c-3.2,1-6.5,2.1-10,2.4C983.1,599.3,982.7,599.1,982.3,598.8z M1006,594.8
			c-0.1,0.1-0.1,0.1-0.2,0.2c-2,2.7-2.5,6.1-1.4,8.6c0.6,1.3,1.9,2.5,3.4,3c1.2,0.4,2.4,0.4,3.4-0.1c1-0.5,1.8-1.5,2.2-2.7
			c0.5-1.5,0.3-3.3-0.4-4.7C1011.5,596.4,1008.6,595.1,1006,594.8z"/>
	</g>
</g>
<g id="C33">
	<path fill="#D7684B" d="M151.2,728c0,0,23.4,5.9,33.9-10l-6-7.3c0,0-8.2,11.4-24.8,12.2L151.2,728z"/>
</g>
<g id="C34">
	<path fill="#D7684B" d="M364,709.9c0,0,23.4,5.9,33.9-10l-6-7.3c0,0-8.2,11.4-24.8,12.2L364,709.9z"/>
</g>
<g id="C35">
	<path fill="#D7684B" d="M612.5,689.9c0,0,1,14.5,19.3,24.6l-9.2,7.1C622.7,721.6,608.3,703.5,612.5,689.9z"/>
</g>
<g id="C36">
	<g>
		<path fill="#FFDF57" d="M73,460.3C73,460.3,73,460.3,73,460.3c-1.1,0-2-0.6-2.7-1.5c-0.8-1.1-1-2.6-0.5-3.8c0.8-2,3-3.4,5.5-3.4
			c0.3,0,0.6,0,0.9,0c-0.7-1.9-2.8-2.9-4.8-3.9c-3.1-1.4-5.9-2.5-8.7-1.9c-0.3,0.1-0.6-0.1-0.7-0.4c-0.1-0.3,0.1-0.6,0.4-0.7
			c3.4-0.7,6.9,0.8,9.4,2c2.3,1,4.8,2.3,5.5,4.8c0,0.1,0.1,0.2,0.1,0.3c1.4,0.3,2.8,1,4.1,1.6c2.3,1.2,4.9,2.8,6.7,5.2
			c0.2,0.2,0.1,0.6-0.1,0.8c-0.2,0.2-0.6,0.1-0.8-0.1c-1.6-2.3-4.1-3.7-6.3-4.9c-1.1-0.6-2.2-1.1-3.4-1.4c0,2.7-2.1,5.2-4.1,7.1
			C73.3,460.3,73.2,460.3,73,460.3z M75.3,452.7C75.3,452.7,75.3,452.7,75.3,452.7c-1.7,0-3.8,0.8-4.5,2.7c-0.3,0.8-0.2,1.9,0.4,2.8
			c0.4,0.6,1,1,1.6,1c1.8-1.8,3.8-4.1,3.6-6.4C76.1,452.8,75.7,452.7,75.3,452.7z"/>
	</g>
</g>
<g id="C37">
	<g>
		<path fill="#FFDF57" d="M765.3,650.6c-0.4,0-0.8-0.2-1-0.6c-1-1.8-1.8-3.7-2.6-5.6c-0.8-1.8-1.6-3.7-2.6-5.5
			c-1.7-3.2-3.7-5.6-5.8-7.2c0,2.9-0.6,5.5-2,7.5c-2.2,3.3-7.1,5.2-10.9,2.9c-1.8-1.1-2.9-3-3.1-5.3c-0.3-2.6,0.7-5.3,2.5-7
			c2.7-2.5,6.9-3.2,10.8-2c-2.7-11.2-15.2-19.3-26.6-17.1c-0.6,0.1-1.2-0.3-1.3-0.9c-0.1-0.6,0.3-1.2,0.9-1.3
			c12.7-2.5,26.6,6.8,29.3,19.4c0.1,0.3,0.1,0.6,0.2,0.9c3.1,1.8,5.7,4.7,8,8.9c1,1.8,1.8,3.8,2.7,5.6c0.8,1.8,1.6,3.7,2.6,5.4
			c0.3,0.5,0.1,1.2-0.4,1.5C765.7,650.5,765.5,650.6,765.3,650.6z M746.7,629.5c-2,0-4,0.6-5.5,2c-1.3,1.2-2,3.2-1.8,5.2
			c0.2,1.6,0.9,2.9,2.1,3.7c2.6,1.6,6.3,0.1,7.9-2.3c1.6-2.4,1.8-5.4,1.5-7.6C749.8,629.8,748.2,629.5,746.7,629.5z"/>
	</g>
</g>
<g id="C38">
	<path fill="#75AEB9" d="M959.6,164.5c0,0,31.2,4.9,35.6,33.4C995.3,197.9,1000.4,162.3,959.6,164.5z"/>
</g>
<g id="C39">
	<g>
		<path fill="#FFDF57" d="M730.6,238C730.6,238,730.6,238,730.6,238c-1.1,0-2-0.6-2.7-1.5c-0.8-1.1-1-2.6-0.5-3.8
			c0.8-2,3-3.4,5.5-3.4c0.3,0,0.6,0,0.9,0c-0.7-1.9-2.8-2.9-4.8-3.9c-3.1-1.4-5.9-2.5-8.7-1.9c-0.3,0.1-0.6-0.1-0.7-0.4
			c-0.1-0.3,0.1-0.6,0.4-0.7c3.4-0.7,6.9,0.8,9.4,2c2.3,1,4.8,2.3,5.5,4.8c0,0.1,0.1,0.2,0.1,0.3c1.4,0.3,2.8,1,4.1,1.6
			c2.3,1.2,4.9,2.8,6.7,5.2c0.2,0.2,0.1,0.6-0.1,0.8c-0.2,0.2-0.6,0.1-0.8-0.1c-1.6-2.3-4.1-3.7-6.3-4.9c-1.1-0.6-2.2-1.1-3.4-1.4
			c0,2.7-2.1,5.2-4.1,7.1C730.9,237.9,730.8,238,730.6,238z M733,230.4C733,230.4,732.9,230.4,733,230.4c-1.7,0-3.8,0.8-4.5,2.7
			c-0.3,0.8-0.2,1.9,0.4,2.8c0.4,0.6,1,1,1.6,1c1.8-1.8,3.8-4.1,3.6-6.4C733.7,230.4,733.3,230.4,733,230.4z"/>
	</g>
</g>
<g id="C40">
	<path fill="#A7A6F6" d="M778.6,111c0,0,26.9-6.1,35.7,12.9C814.3,123.9,807.8,111,778.6,111z"/>
</g>
<g id="C41">
	<path fill="#75AEB9" d="M1017,405.4c0,0,31.2,4.9,35.6,33.4C1052.6,438.8,1057.8,403.2,1017,405.4z"/>
</g>
<g id="C42">
	<g>
		<path fill="#FFDF57" d="M928.1,431.4C928.1,431.4,928.1,431.4,928.1,431.4c-1.1,0-2-0.6-2.7-1.5c-0.8-1.1-1-2.6-0.5-3.8
			c0.8-2,3-3.4,5.5-3.4c0.3,0,0.6,0,0.9,0c-0.7-1.9-2.8-2.9-4.8-3.9c-3.1-1.4-5.9-2.5-8.7-1.9c-0.3,0.1-0.6-0.1-0.7-0.4
			c-0.1-0.3,0.1-0.6,0.4-0.7c3.4-0.7,6.9,0.8,9.4,2c2.3,1,4.8,2.3,5.5,4.8c0,0.1,0.1,0.2,0.1,0.3c1.4,0.3,2.8,1,4.1,1.6
			c2.3,1.2,4.9,2.8,6.7,5.2c0.2,0.2,0.1,0.6-0.1,0.8c-0.2,0.2-0.6,0.1-0.8-0.1c-1.6-2.3-4.1-3.7-6.3-4.9c-1.1-0.6-2.2-1.1-3.4-1.4
			c0,2.7-2.1,5.2-4.1,7.1C928.4,431.3,928.3,431.4,928.1,431.4z M930.4,423.8C930.4,423.8,930.4,423.8,930.4,423.8
			c-1.7,0-3.8,0.8-4.5,2.7c-0.3,0.8-0.2,1.9,0.4,2.8c0.4,0.6,1,1,1.6,1c1.8-1.8,3.8-4.1,3.6-6.4
			C931.2,423.8,930.8,423.8,930.4,423.8z"/>
	</g>
</g>
<g id="C43">
	<path fill="#75AEB9" d="M774,703.6c0,0,16.9-3.1,15.8,14.9C791.4,716.2,789.2,707.1,774,703.6z"/>
</g>
<g id="C44">
	<path fill="#A7A6F6" d="M593.7,443.6c0,0,16.9-3.1,15.8,14.9C609.5,458.4,606.7,450.1,593.7,443.6z"/>
</g>
<g id="C45">
	<path fill="#D7684B" d="M465.6,463.4c0,0-22.4-0.1-24,18.8l3.8,2.3C445.4,484.5,447.4,472.4,465.6,463.4z"/>
</g>
<g id="C46">
	<g>
		<path fill="#D7684B" d="M826.4,654.2c-0.8,0-1.6-0.6-1.6-1.5c-0.5-5.8-1.1-10.7-3.3-14.9c0-0.1-0.1-0.2-0.1-0.3
			c-1.5,3.7-4.2,6.6-7.6,7.9c-2.7,1.1-6,1-8.7-0.3c-2.4-1.1-4.2-3-4.9-5.3c-0.9-2.6-0.3-5.5,1.4-8c2.1-2.9,5.4-4.8,8.8-4.9
			c3.2-0.1,6.4,1.1,9.1,3.3c0-3.7-1-7.3-1.9-10.2c-1.1-3.3-2.4-6.8-4.8-9.3c-2-2-5.5-3.6-8.5-2.3c-0.8,0.4-1.8,0-2.2-0.9
			c-0.4-0.8,0-1.8,0.9-2.2c4.4-1.9,9.3,0.1,12.2,3c3,3,4.5,7,5.7,10.6c1.2,4,2.6,9.2,1.8,14.3c0.7,0.9,1.3,1.9,1.9,3
			c2.7,5.2,3.2,11.3,3.7,16.1c0.1,0.9-0.6,1.7-1.5,1.8C826.5,654.2,826.5,654.2,826.4,654.2z M810.6,630.1c-0.1,0-0.2,0-0.2,0
			c-2.3,0.1-4.7,1.4-6.2,3.5c-0.7,1-1.7,2.9-1,5.1c0.5,1.4,1.6,2.7,3.2,3.4c1.9,0.9,4.2,1,6.1,0.3c3.1-1.2,5.5-4.3,6.4-8.2
			C816.8,631.9,813.8,630.1,810.6,630.1z"/>
	</g>
</g>
<g id="C47">
	<g>
		<path fill="#75AEB9" d="M265,672.5c-1.3,0-2.7-0.2-4-0.7c-4.6-1.6-8.2-5.8-9.6-11.1c-0.3-1.2-0.5-2.5-0.6-3.9
			c-3.6,2.8-6.7,6.4-9.6,9.9c-0.6,0.7-1.6,0.8-2.3,0.2c-0.7-0.6-0.8-1.6-0.2-2.3c3.4-4.1,7.2-8.8,12.2-11.9c0.2-2.1,0.7-4.2,1.4-6.5
			c2.1-6.8,6-12.4,11-15.8c5.8-4,13.4-4.9,19.2-2.2c0.8,0.4,1.2,1.4,0.8,2.2c-0.4,0.8-1.4,1.2-2.2,0.8c-4.8-2.2-11.1-1.4-16,1.9
			c-4.4,3-7.8,8-9.7,14.1c-0.4,1.2-0.7,2.5-0.9,3.6c5-2.1,10.1-2.2,14.4-0.2c3.2,1.5,5.7,4.4,6.8,7.9c1,3,0.7,6-0.7,8.5
			C273,670.5,269.1,672.5,265,672.5z M254,654.8c0,1.8,0.1,3.5,0.6,5.1c1.1,4.2,4,7.6,7.5,8.8c3.7,1.3,8.2-0.2,10-3.3
			c0.9-1.7,1.1-3.7,0.4-5.8c-0.8-2.6-2.8-4.8-5.1-5.9C263,651.6,257.8,652.8,254,654.8z"/>
	</g>
</g>
<g id="C48">
	<g>
		<path fill="#A7A6F6" d="M145.9,655.5c-0.9,0-1.8-0.2-2.6-0.5c-4.5-1.9-6-7.2-5.3-11.3c0.1-0.3,0.1-0.7,0.2-1
			c-2.2,0.3-4.6,0.9-6.8,2c-5.1,2.3-9.4,6.1-13.5,9.8c-0.5,0.4-1.1,0.4-1.5-0.1c-0.4-0.5-0.4-1.1,0.1-1.5c4.3-3.8,8.7-7.6,14.1-10.1
			c2.9-1.3,5.8-2.1,8.6-2.2c1.1-2.4,3-4.8,5.6-7.2c5.5-5,14.4-9.3,22.7-6.4c0.6,0.2,0.9,0.8,0.7,1.4c-0.2,0.6-0.8,0.9-1.4,0.7
			c-7.3-2.6-15.4,1.4-20.5,6c-2.1,1.9-3.6,3.7-4.7,5.6c2.3,0.1,4.5,0.7,6.4,1.6c3.1,1.5,5,3.9,5.3,6.5c0.2,2.1-0.8,4-2.7,5.4
			C149.2,654.9,147.5,655.5,145.9,655.5z M140.6,642.6c-0.2,0.5-0.3,1-0.4,1.5c-0.6,3.3,0.7,7.5,4,8.8c1.5,0.7,3.5,0.3,5.1-0.8
			c1.3-0.9,1.9-2.2,1.8-3.5c-0.2-1.8-1.7-3.6-4-4.7C145.1,643,142.9,642.6,140.6,642.6z"/>
	</g>
</g>
<g id="C49">
	<g>
		<path fill="#75AEB9" d="M190.7,569.4c-0.4,0-0.8-0.1-1.1-0.4c-0.7-0.6-0.7-1.6-0.1-2.3c2.1-2.3,3.6-5.1,5.2-8l0.6-1.1
			c1.6-3,3.6-6.4,6.5-9c0-2.8,0.7-5.8,2.1-9.2c2.2-5.3,5.1-9.2,8.6-11.6c4.6-3.2,10.4-3.8,14.7-1.5c0.8,0.4,1.1,1.4,0.7,2.2
			c-0.4,0.8-1.4,1.1-2.2,0.7c-3.2-1.7-7.8-1.1-11.3,1.3c-3,2.1-5.5,5.5-7.5,10.2c-0.8,2-1.4,3.9-1.7,5.6c2.9-1.4,6.1-1.8,8.8-0.9
			c2.3,0.7,4.4,2.5,5.5,4.8c1,2,1.1,4.1,0.5,6c-0.7,1.9-2.2,3.4-4.2,4.3c-2.2,1-4.9,1.1-7,0.2c-3.1-1.3-5.5-4.2-6.6-7.8
			c-1.6,1.9-2.9,4.2-4.1,6.4l-0.6,1.1c-1.6,3-3.3,6-5.6,8.6C191.6,569.2,191.2,569.4,190.7,569.4z M205.1,550.2c0,0.1,0,0.2,0,0.3
			c0.4,3.3,2.4,6.1,4.9,7.2c1.4,0.5,3,0.5,4.5-0.1c1.2-0.5,2-1.4,2.4-2.4c0.4-1.1,0.3-2.3-0.3-3.5c-0.7-1.4-2.1-2.6-3.5-3.1
			C210.3,547.6,207.2,548.7,205.1,550.2z"/>
	</g>
</g>
<g id="C50">
	<path fill="#A7A6F6" d="M271.7,472.4c0,0-6.7,6-4.7,11.1l3.2,0.9c0,0,0.7-5.6,5.3-10.6L271.7,472.4z"/>
</g>
<g id="C51">
	<path fill="#FFDF57" d="M161.7,435.1c0,0-11.9,10.8-5.5,21.6l5.5,1.3c0,0-0.5-13.1,5.6-19.6L161.7,435.1z"/>
</g>
<g id="C52">
	<g>
		<path fill="#FFDF57" d="M877.2,132.1c-0.6,0-1.2-0.1-1.7-0.3c-1.6-0.6-2.7-1.9-3.2-3.6c-0.6-2.1-0.2-4.6,1.1-6.3
			c0.6-0.8,1.4-1.5,2.3-2.1c-1.9-0.5-4.1-0.6-6.8-0.2c-7,1-13.6,4.3-18.6,9.3c-0.4,0.4-1.1,0.4-1.5,0c-0.4-0.4-0.4-1.1,0-1.5
			c5.3-5.3,12.4-8.9,19.9-9.9c3.8-0.5,6.9-0.2,9.4,0.9c0.1,0.1,0.2,0.1,0.3,0.2c1.3-0.5,2.8-0.8,4.5-0.9c3.8-0.4,7.6,0,11.2,1
			c0.6,0.2,0.9,0.8,0.8,1.3c-0.2,0.6-0.8,0.9-1.3,0.8c-3.4-0.9-6.9-1.2-10.5-0.9c-0.9,0.1-1.7,0.2-2.4,0.4c1.8,1.7,2.8,4.1,2.6,6.4
			c-0.2,1.9-1.3,3.7-3,4.8C879.3,131.8,878.2,132.1,877.2,132.1z M878.2,120.8c-1.3,0.6-2.3,1.4-3,2.3c-0.9,1.2-1.2,2.9-0.7,4.4
			c0.2,0.6,0.7,1.8,1.9,2.2c1.2,0.4,2.3-0.1,2.8-0.4c1.1-0.7,1.9-2,2-3.2C881.3,124.2,880.1,122.1,878.2,120.8z"/>
	</g>
</g>
<g id="C53">
	<path fill="#A7A6F6" d="M923.6,369.3c0,0,26.9-6.1,35.7,12.9C959.2,382.2,952.7,369.3,923.6,369.3z"/>
</g>
<g id="C54">
	<path fill="#A7A6F6" d="M684.7,595c0,0,8.7,5.8,9.1,21.1h-9.1C684.7,616.1,690.6,610.3,684.7,595z"/>
</g>
<g id="C55">
	<g>
		<path fill="#FFDF57" d="M903.9,539.7c-0.4,0-0.8-0.2-1-0.6c-1-1.8-1.8-3.7-2.6-5.6c-0.8-1.8-1.6-3.7-2.6-5.5
			c-1.7-3.2-3.7-5.6-5.8-7.2c0,2.9-0.6,5.5-2,7.5c-2.2,3.3-7.1,5.2-10.9,2.9c-1.8-1.1-2.9-3-3.1-5.3c-0.3-2.6,0.7-5.3,2.5-7
			c2.7-2.5,6.9-3.2,10.8-2c-2.7-11.2-15.2-19.3-26.6-17.1c-0.6,0.1-1.2-0.3-1.3-0.9c-0.1-0.6,0.3-1.2,0.9-1.3
			c12.7-2.5,26.6,6.8,29.3,19.4c0.1,0.3,0.1,0.6,0.2,0.9c3.1,1.8,5.7,4.7,8,8.9c1,1.8,1.8,3.8,2.7,5.6c0.8,1.8,1.6,3.7,2.6,5.4
			c0.3,0.5,0.1,1.2-0.4,1.5C904.2,539.7,904.1,539.7,903.9,539.7z M885.3,518.6c-2,0-4,0.6-5.5,2c-1.3,1.2-2,3.2-1.8,5.2
			c0.2,1.6,0.9,2.9,2.1,3.7c2.6,1.6,6.3,0.1,7.9-2.3c1.6-2.4,1.8-5.4,1.5-7.6C888.3,518.9,886.8,518.6,885.3,518.6z"/>
	</g>
</g>
<g id="C56">
	<path fill="#969592" d="M132.1,315.5"/>
</g>
<g id="C57">
	<path fill="#A7A6F6" d="M183,148.3c0,0-15.2-9.8-28.7,5.5C154.3,153.8,164.8,146.5,183,148.3z"/>
</g>
<g id="C58">
	<path fill="#75AEB9" d="M872.6,168.2c0,0,13.3-2,21.2,8.9l-1.5,4.1c0,0-2.2-6-19.7-2.5V168.2z"/>
</g>
<g id="C59">
	<path fill="#D7684B" d="M729.9,536.1c0,0,12.6,11.2,14.7,26.3C744.6,562.4,754.7,539.9,729.9,536.1z"/>
</g>
<g id="C60">
	<path fill="#D7684B" d="M762.6,457.4c0,0,26.2-5,34.2,6.6l-6.6,6.5C790.2,470.5,792.4,458.9,762.6,457.4z"/>
</g>
<g id="C61">
	<g>
		<path fill="#FFDF57" d="M688.5,538c-0.5,0-1-0.4-1.1-0.9c-1-5.5-4.4-10.5-9.1-13.5c-1.6-1-3.3-1.8-5.1-2.3
			c0.3,2.7,0.1,5.3-0.8,7.6c-1.8,4.8-6.5,8.2-11.1,7.9c-2.6-0.1-5.2-1.5-6.8-3.8c-1.5-2-2.1-4.4-1.6-6.5c0.8-3.6,4.1-6.4,8.9-7.6
			c2.8-0.7,5.8-0.9,8.7-0.5c-0.2-0.8-0.5-1.6-0.9-2.4c-4.4-10-16.1-16.1-26.8-13.9c-0.6,0.1-1.2-0.3-1.3-0.9
			c-0.1-0.6,0.3-1.2,0.9-1.3c11.7-2.4,24.5,4.3,29.3,15.2c0.5,1.2,1,2.5,1.3,3.7c2.4,0.6,4.6,1.5,6.7,2.8c5.2,3.3,8.9,8.9,10,14.9
			c0.1,0.6-0.3,1.2-0.9,1.3C688.6,538,688.6,538,688.5,538z M667.3,520.5c-1.7,0-3.4,0.2-5,0.6c-3,0.8-6.5,2.8-7.3,6
			c-0.4,1.6,0.1,3.3,1.2,4.7c1.3,1.7,3.3,2.8,5.2,2.9c3.7,0.2,7.5-2.6,9-6.5c0.8-2.2,1-4.7,0.6-7.4
			C669.8,520.6,668.5,520.5,667.3,520.5z"/>
	</g>
</g>
<g id="C62">
	<path fill="#A7A6F6" d="M863.1,313.3c0,0,14.6-2.3,24.8,11.5l-7.3,4.9C880.6,329.7,890,322.2,863.1,313.3z"/>
</g>
<g id="C63">
	<path fill="#D7684B" d="M628.8,413.9c0,0,19.9,2.3,22.3,16.4h-4.8C646.2,430.2,646.5,419.9,628.8,413.9z"/>
</g>
<g id="C64">
	<path fill="#A7A6F6" d="M684.7,458c0,0,7.3-5.7,18.2,6l-5.1,6.3c0,0-2.9-8.1-13.1-6.9V458z"/>
</g>
<g id="C65">
	<path fill="#D7684B" d="M807.5,344c0,0,20.4-4.1,27.7,11.4l-8.7,3c0,0-5.8-5.6-16-5.7L807.5,344z"/>
</g>
<g id="C66">
	<path fill="#FFDF57" d="M710.9,166.5c0,0,14.1-17,33.6-18.2l-1.2,6.8C743.3,155.1,731.6,151,710.9,166.5z"/>
</g>
<g id="C67">
	<g>
		<path fill="#A7A6F6" d="M874.2,273.1c-1.7,0-3.3-0.6-4.4-1.8c-2.6-2.7-2-6.8-0.2-9.3c1.9-2.7,5.1-4.1,7.3-4.9
			c0.3-0.1,0.7-0.2,1-0.3c-4.1-10.1-14.4-17.6-25.2-18.1c0,0-0.1,0-0.1,0c0.3,2.3,0.2,4.5-0.3,6.8c-0.8,3.8-2.8,6.5-5.5,7.3
			c-2.4,0.7-4.8-0.1-6.6-2.3c-2.2-2.7-2.6-6.5-1-9.2c1.7-3,5.1-5,9.3-5.6c-0.7-2-1.6-3.9-2.9-5.7c-3.7-5.1-9.3-8.6-15.1-9.3
			c-10.9-1.3-22.8,6.1-27.6,17.3c-0.4,0.8-1.3,1.2-2.2,0.9c-0.8-0.4-1.2-1.3-0.9-2.2c5.4-12.6,18.5-20.7,31-19.2
			c6.7,0.8,13.2,4.8,17.4,10.6c1.7,2.3,2.9,4.8,3.6,7.4c0.3,0,0.7,0,1,0c12.2,0.7,23.8,9.2,28.2,20.6c8.4-1.8,17.5-0.6,25,3.5
			c0.8,0.4,1.1,1.4,0.7,2.2c-0.4,0.8-1.4,1.1-2.2,0.7c-6.8-3.7-14.9-4.8-22.5-3.3c1,4,0.7,7.5-0.8,10.1c-1.3,2.1-3.6,3.6-6.1,3.9
			C874.8,273,874.5,273.1,874.2,273.1z M878.9,259.8c-0.3,0.1-0.6,0.2-0.9,0.3c-2.8,1-4.6,2.2-5.7,3.7c-1,1.5-1.4,3.9-0.1,5.2
			c0.8,0.8,1.8,0.9,2.6,0.8c1.5-0.2,3-1.1,3.7-2.3C879.8,265.2,879.5,262.2,878.9,259.8z M849.2,238.7c-2.6,0.3-5.7,1.3-7.2,4
			c-1,1.8-0.4,4.2,0.7,5.6c0.5,0.6,1.6,1.7,3,1.2c2.2-0.7,3-3.6,3.3-4.8C849.4,242.7,849.5,240.7,849.2,238.7z"/>
	</g>
</g>
<g id="C68">
	<g>
		<path fill="#D7684B" d="M687.7,399.2c-0.3,0-0.5,0-0.8,0c-3-0.2-5.8-2-7.6-4.8c-2.1-3.2-2.7-7.3-1.5-10.8
			c2.3-6.8,9.4-10.2,15.4-10.5c1.2-0.1,2.4,0,3.6,0.1c-0.8-2-2-3.9-3.5-5.6c-5.2-5.9-13.6-9.3-22.6-8.9c-7.8,0.3-15.8,3.2-23.9,8.6
			c-0.8,0.5-1.8,0.3-2.3-0.5c-0.5-0.8-0.3-1.8,0.5-2.3c8.6-5.7,17.2-8.8,25.5-9.2c10-0.4,19.4,3.3,25.2,10c2.1,2.5,3.7,5.3,4.7,8.3
			c3.3,0.8,6.7,2.2,10.6,4.2c8,4.3,15.2,9.8,21.3,16.6c0.6,0.7,0.6,1.7-0.1,2.3c-0.7,0.6-1.7,0.6-2.3-0.1
			c-5.9-6.4-12.7-11.8-20.4-15.9c-2.9-1.6-5.6-2.7-8.1-3.5c0.9,5.1,0.1,10.4-2.5,14.7C696.2,396.4,691.9,399.2,687.7,399.2z
			 M694.5,376.3c-0.4,0-0.8,0-1.1,0c-5.8,0.3-10.9,3.8-12.5,8.3c-0.8,2.5-0.4,5.5,1.2,7.9c1.3,2,3.1,3.2,5.2,3.3
			c3.9,0.3,7.2-2.8,8.8-5.5c2.4-4,2.9-9,1.8-13.8C696.7,376.4,695.6,376.3,694.5,376.3z"/>
	</g>
</g>
<g id="C69">
	<path fill="#A7A6F6" d="M437.2,258c0,0-9.3-7.3-16.4-3.4v4.5L437.2,258z"/>
</g>
<g id="C70">
	<g>
		<path fill="#75AEB9" d="M376.3,518.2c-0.7,0-1.3-0.1-1.9-0.4c-2-0.8-3.4-2.9-3.5-5.1c-0.1-2,1-3.8,2-5.4c-0.2,0-0.4,0-0.6-0.1
			c-6.8-0.5-13.9,3.7-16.7,10c-0.3,0.5-0.9,0.8-1.4,0.5c-0.5-0.3-0.8-0.9-0.5-1.4c3.3-7.2,11-11.8,18.9-11.3c0.6,0,1.3,0.1,1.9,0.3
			c2.7-3.3,5.7-5.8,8.9-7.3l0.6-0.3c1.3-0.6,2.5-1.2,3.7-1.6c0.1-0.2,0.1-0.4,0.2-0.7c2-7.4,8.8-13.3,16.4-14.4
			c0.6-0.1,1.1,0.3,1.2,0.9c0.1,0.6-0.3,1.1-0.9,1.2c-6.6,0.9-12.5,6-14.4,12.3c1.5-0.2,3.1,0,5,0.7c2.3,0.7,3.8,2.5,4.1,4.7
			c0.3,1.9-0.5,3.7-2,4.7c-1,0.9-2.4,1.3-3.9,1.2c-1.8-0.2-3.6-1.3-4.6-2.7c-1-1.5-1.5-3.4-1.4-5.5c-0.8,0.3-1.6,0.7-2.4,1.1
			l-0.6,0.3c-2.7,1.3-5.3,3.3-7.6,6c1.1,0.5,2.2,1.1,3.2,2.1c1.9,2,2.7,5.7,0.6,8.2C379.4,517.6,377.9,518.2,376.3,518.2z
			 M375.2,507.9c-0.1,0.2-0.3,0.4-0.4,0.6c-0.9,1.3-1.8,2.7-1.7,4.2c0,1.3,0.9,2.6,2.1,3.1c1.2,0.5,2.7,0.1,3.6-0.8
			c1.2-1.5,0.7-3.9-0.5-5.3C377.4,508.8,376.3,508.3,375.2,507.9z M389.6,497.9c-0.2,1.6-0.1,3.5,0.9,5c0.6,1,1.8,1.7,3,1.8
			c0.9,0.1,1.7-0.1,2.3-0.7c0,0,0.1-0.1,0.1-0.1c0.8-0.6,1.3-1.6,1.1-2.7c-0.2-1.3-1.2-2.4-2.7-2.9
			C392.5,497.7,391.1,497.6,389.6,497.9z"/>
	</g>
</g>
<g id="C71">
	<g>
		<path fill="#D7684B" d="M196.4,272.7c-1.9,0-3.8-0.7-5.4-1.9c-2.3-1.8-3.6-4.4-3.5-7c0.1-2.4,1.3-4.9,3.5-7.1
			c-7.3-0.5-14.9,0.2-21.9,2.3c-0.6,0.2-1.2-0.2-1.4-0.7c-0.2-0.6,0.2-1.2,0.7-1.4c7.8-2.2,15.8-3,23.8-2.2c0.3,0,0.6,0.1,0.9,0.1
			c7.5-5.9,17.2-7.7,25.8-9.2c0.6-0.1,1.2,0.3,1.3,0.9c0.1,0.6-0.3,1.2-0.9,1.3c-7.7,1.4-16.4,3-23.2,7.6c2.4,0.6,4.8,1.6,6.5,3.7
			c1.6,2,2.1,4.9,1.3,7.7c-0.8,2.8-2.8,5-5.3,5.8C198,272.6,197.2,272.7,196.4,272.7z M193.9,256.9c-1.9,1.6-4,4.1-4.2,6.9
			c-0.1,1.9,0.9,3.8,2.6,5.2c1.7,1.3,3.9,1.8,5.7,1.2c1.8-0.6,3.3-2.2,3.9-4.3c0.6-2.1,0.3-4.3-0.9-5.7
			C199.3,258.1,196.5,257.3,193.9,256.9z"/>
	</g>
</g>
<g id="C72">
	<path fill="#A7A6F6" d="M226.9,341c0,0-19.1,2.1-19.1,17.4l4.9,2.7C212.7,361.1,209.4,347.1,226.9,341z"/>
</g>
<g id="C73">
	<path fill="#FFDF57" d="M405.6,404.7c0,0-10.2,9.2-7.2,16.9l4.9,1.4c0,0,1-8.5,8-16.2L405.6,404.7z"/>
</g>
<g id="C74">
	<path fill="#A7A6F6" d="M632.9,332.2c0,0-7.3-11.7-15.4-10l-2.2,4.6c0,0,8.2,2.5,14.5,10.7L632.9,332.2z"/>
</g>
<g id="C75">
	<path fill="#75AEB9" d="M281,214.8c0,0-13.7-1.6-17.5,5.7l2.2,4.6c0,0,7.1-4.9,17.5-4.6L281,214.8z"/>
</g>
<g id="C76">
	<path fill="#FFDF57" d="M356.3,438.4c0,0-14.7,10-15.3,31.9l7.6-2.2C348.7,468.1,342.1,461,356.3,438.4z"/>
</g>
<g id="C77">
	<path fill="#FFDF57" d="M330.8,284.1c0,0-16,1.8-17.1,14.3l3.7,4.3c0,0,7.3-10.9,16-12.6L330.8,284.1z"/>
</g>
<g id="C78">
	<g>
		<path fill="#75AEB9" d="M295,407.3c-0.1,0-0.2,0-0.3,0c-0.9-0.2-1.5-1-1.3-1.9c0.6-3.3,0.5-6.9,0.4-10.4c-0.1-2.6-0.2-5.3,0-7.8
			c-0.6-0.5-1.2-1.1-1.7-1.8c-2.3-3.1-2.9-7.4-1.8-11.8c0.9-3.8,2.9-7.1,4.8-10.3c0.5-0.8,1.5-1,2.2-0.6c0.8,0.5,1,1.5,0.6,2.2
			c-1.8,3-3.6,6.1-4.4,9.4c-0.8,3.3-0.5,6.4,0.9,8.6c0.5-2.2,1.4-4.3,2.8-6.2c2.7-3.8,7.3-6.1,11.5-5.6c4.9,0.5,8.9,4.6,9,9.2
			c0,3.4-2,6.8-5.2,8.6c-2.6,1.5-5.9,2.1-9.6,1.8c-1.5-0.1-3.7-0.5-5.9-1.5c-0.1,1.8,0,3.8,0.1,5.7c0.1,3.7,0.2,7.4-0.4,11
			C296.5,406.8,295.8,407.3,295,407.3z M297.3,385.6c1.6,1,3.6,1.6,5.9,1.8c2.1,0.2,5.1,0.1,7.6-1.4c2.2-1.3,3.6-3.6,3.6-5.8
			c0-2.9-2.8-5.7-6-6c-3.1-0.3-6.4,1.4-8.5,4.3C298.4,380.7,297.6,383.1,297.3,385.6z"/>
	</g>
</g>
<g id="C79">
	<g>
		<path fill="#FFDF57" d="M394.6,216c-2.6,0-5.1-1.7-6-4.1c-1.3-3.6,1.2-7.2,3.7-9.3c0.2-0.1,0.4-0.3,0.6-0.4
			c-1.3-0.2-2.6-0.2-3.7,0c-3.3,0.5-6.3,2.1-9.3,3.7l-4.9,2.6c-0.5,0.3-1.2,0.1-1.5-0.4c-0.3-0.5-0.1-1.2,0.4-1.5l4.9-2.6
			c3-1.6,6.3-3.4,10-4c2.3-0.4,4.6-0.1,6.6,0.6c3.3-1.7,7.1-2.4,10.9-2c0.6,0.1,1,0.6,1,1.2c-0.1,0.6-0.6,1-1.2,1
			c-2.7-0.3-5.6,0.1-8.1,1.1c0.6,0.4,1.1,0.9,1.5,1.4c1.8,2.1,2.5,5,1.7,7.5c-0.8,2.7-3.2,4.8-5.9,5.1
			C395.1,216,394.9,216,394.6,216z M395.6,203c-0.7,0.4-1.3,0.8-1.9,1.3c-2,1.6-3.9,4.3-3,6.8c0.6,1.7,2.5,2.8,4.4,2.6
			c1.8-0.2,3.5-1.7,4-3.5c0.5-1.8,0-4-1.3-5.5C397.2,204,396.5,203.4,395.6,203z"/>
	</g>
</g>
<g id="C80">
	<path fill="#D7684B" d="M352.7,156.5c0,0,15.3-2.8,25.5,9.6c0,0-4.4-9.9-25.5-14.1V156.5z"/>
</g>
<g id="C81">
	<path fill="#75AEB9" d="M381.8,575.1c0,0-28.8-7-35.7,20l5.2,3.9C351.3,599,356.3,577.6,381.8,575.1z"/>
</g>
<g id="C82">
	<path fill="#A7A6F6" d="M487.9,664.8c0,0-39,9.1-43.1,36.7l5.5,3.3C450.3,704.9,451.1,682.9,487.9,664.8z"/>
</g>
<g id="C83">
	<path fill="#75AEB9" d="M434.2,324.9c0,0-37.9-13.1-56.1,8l2.9,5.7C381.1,338.6,393.5,320.5,434.2,324.9z"/>
</g>
<g id="C84">
	<path fill="#75AEB9" d="M827.4,405c0,0,31.2,4.9,35.6,33.4C863.1,438.4,868.2,402.8,827.4,405z"/>
</g>
<g id="C85">
	<path fill="#75AEB9" d="M702.9,324.9c0,0,16.4-27.2,40.4-26.5l6.2,13C749.5,311.4,742.3,295.7,702.9,324.9z"/>
</g>
<g id="C86">
	<g>
		<path fill="#A7A6F6" d="M374.5,479.8c-0.1,0-0.2,0-0.3,0c-0.6-0.2-0.9-0.8-0.7-1.4c5.8-20,15.8-33,29.8-38.6
			c23.6-9.5,49.7,5.2,50.8,5.8c0.5,0.3,0.7,1,0.4,1.5c-0.3,0.5-1,0.7-1.5,0.4c-0.3-0.1-26.3-14.8-48.9-5.7
			c-13.3,5.4-22.9,17.9-28.5,37.2C375.4,479.5,375,479.8,374.5,479.8z"/>
	</g>
</g>
<g id="C87">
	<g>
		<path fill="#75AEB9" d="M715.1,485.6c-0.5,0-0.9-0.3-1.1-0.8c-5.3-19.9-15.4-33.6-30-40.9c-27.7-13.8-62.9,0.4-63.2,0.5
			c-0.6,0.2-1.2,0-1.4-0.6c-0.2-0.6,0-1.2,0.6-1.4c0.4-0.1,36.4-14.7,65-0.5c15.3,7.6,25.7,21.8,31.2,42.3c0.2,0.6-0.2,1.2-0.8,1.3
			C715.3,485.5,715.2,485.6,715.1,485.6z"/>
	</g>
</g>
<g id="C88">
	<g>
		<path fill="#FFDF57" d="M801.3,406.8c-0.3,0-0.5-0.1-0.7-0.3c-40.6-35.7-85-37.9-115.1-33.6c-32.6,4.7-55.9,18.1-56.1,18.2
			c-0.5,0.3-1.2,0.1-1.5-0.4c-0.3-0.5-0.1-1.2,0.4-1.5c0.2-0.1,23.9-13.7,56.9-18.5c30.5-4.4,75.6-2.1,116.9,34.1
			c0.5,0.4,0.5,1.1,0.1,1.5C801.9,406.6,801.6,406.8,801.3,406.8z"/>
	</g>
	<g>
		<path fill="#D7684B" d="M226.5,425.3c-0.3,0-0.6-0.1-0.8-0.3c-0.4-0.4-0.4-1.1,0.1-1.5c45.5-42.4,98.4-50.6,134.8-50.1
			c39.4,0.6,68.5,11.4,68.8,11.5c0.6,0.2,0.9,0.8,0.6,1.4c-0.2,0.6-0.8,0.9-1.4,0.6c-0.3-0.1-29.1-10.8-68.1-11.3
			c-36-0.5-88.3,7.6-133.2,49.5C227,425.2,226.8,425.3,226.5,425.3z"/>
	</g>
</g>
<g id="C89">
	<g>
		<path fill="#75AEB9" d="M429,316.6c-0.3,0-0.7-0.2-0.9-0.5c-0.2-0.4-24.4-35.5-69.2-69.7c-41.3-31.5-109.1-68.7-197.6-66.7
			c-0.6,0-1.1-0.5-1.1-1.1c0-0.6,0.5-1.1,1.1-1.1c39.3-0.9,78,5.8,114.8,19.8c29.4,11.2,57.8,27.2,84.2,47.4
			c45.1,34.4,69.4,69.8,69.6,70.1c0.3,0.5,0.2,1.2-0.3,1.5C429.4,316.6,429.2,316.6,429,316.6z"/>
	</g>
</g>
<g id="C90">
	<g>
		<path fill="#FFDF57" d="M543.2,243.1c-0.5,0-1-0.3-1.1-0.9c-0.1-0.3-6.7-30.2-28.8-65.4c-20.3-32.5-58.2-76.2-123.4-100.4
			c-0.6-0.2-0.9-0.8-0.6-1.4c0.2-0.6,0.8-0.9,1.4-0.6c65.8,24.4,104.1,68.6,124.5,101.3c22.2,35.5,28.9,65.7,29,66
			c0.1,0.6-0.2,1.2-0.8,1.3C543.4,243.1,543.3,243.1,543.2,243.1z"/>
	</g>
</g>
<g id="C91">
	<g>
		<path fill="#A7A6F6" d="M561.8,247.6c-0.1,0-0.2,0-0.3,0c-0.6-0.2-0.9-0.8-0.7-1.4c0.1-0.3,9-29.7,36.2-71.3
			C622,136.5,668.2,79.6,746,26.5c0.5-0.3,1.2-0.2,1.5,0.3c0.3,0.5,0.2,1.2-0.3,1.5C669.7,81.2,623.7,137.8,598.8,176
			c-27,41.3-35.9,70.6-35.9,70.8C562.7,247.3,562.3,247.6,561.8,247.6z"/>
	</g>
</g>
<g id="C92">
	<g>
		<path fill="#D7684B" d="M651.1,312.7c-0.3,0-0.5-0.1-0.7-0.3c-0.4-0.4-0.5-1.1-0.1-1.5c0.2-0.3,24.9-27.4,74.3-54.3
			c45.5-24.8,121.9-54.4,227.4-54.8c0.6,0,1.1,0.5,1.1,1.1c0,0.6-0.5,1.1-1.1,1.1c-105,0.4-181,29.8-226.3,54.4
			c-49,26.7-73.5,53.6-73.8,53.9C651.7,312.6,651.4,312.7,651.1,312.7z"/>
	</g>
</g>
</svg>
