<?xml version="1.0" encoding="utf-8"?>
<!-- Generator: Adobe Illustrator 17.1.0, SVG Export Plug-In . SVG Version: 6.00 Build 0)  -->
<!DOCTYPE svg PUBLIC "-//W3C//DTD SVG 1.1//EN" "http://www.w3.org/Graphics/SVG/1.1/DTD/svg11.dtd">
<svg version="1.1" xmlns="http://www.w3.org/2000/svg" xmlns:xlink="http://www.w3.org/1999/xlink" x="0px" y="0px"
	 viewBox="0 0 279.7 118.6" enable-background="new 0 0 279.7 118.6" xml:space="preserve">
<g id="BG_main">
</g>
<g id="Button_2">
</g>
<g id="Button6">
</g>
<g id="Text_6">
</g>
<g id="BG_3">
	
		<rect id="BG_2_" x="47.1" y="35.4" fill="none" stroke="#FFFFFF" stroke-width="2.4993" stroke-miterlimit="10" width="195" height="53.9"/>
</g>
<g id="Button_4">
</g>
<g id="Button_3_1_">
	
		<rect id="Button_3_" x="40.3" y="25.6" fill="#FFFFFF" stroke="#FF882A" stroke-width="2" stroke-miterlimit="10" width="194.3" height="55"/>
</g>
<g id="Text_4">
</g>
<g id="Text3">
	<g>
		<path fill="#FF882A" d="M91.9,55.7v-8c0-3.9,2.2-6.1,5.6-6.1c3.5,0,5.6,2.1,5.8,6h-2.8c-0.2-2.3-1.2-3.3-3-3.3
			c-1.6,0-2.7,1.1-2.7,3.4v8c0,2.3,1.1,3.4,2.8,3.4c1.9,0,2.9-1.1,3.1-3.3h2.8c-0.2,3.8-2.3,5.9-5.9,5.9
			C94.1,61.7,91.9,59.6,91.9,55.7z"/>
		<path fill="#FF882A" d="M105.5,56.2V52c0-3.6,2-5.6,5.1-5.6c3.2,0,5.2,2,5.2,5.6v4.2c0,3.6-2,5.6-5.2,5.6
			C107.5,61.7,105.5,59.8,105.5,56.2z M113.1,56.2V52c0-2.1-0.9-2.9-2.4-2.9c-1.5,0-2.4,0.9-2.4,2.9v4.2c0,2.1,0.9,2.9,2.4,2.9
			C112.1,59.1,113.1,58.2,113.1,56.2z"/>
		<path fill="#FF882A" d="M126.3,49.3h-4.9v12.1h-2.7V46.7h7.6V49.3z"/>
		<path fill="#FF882A" d="M126.5,59c1.5,0,1.8-1.6,2-3.9c0.2-2.1,0.4-5.5,0.4-8.3h8.5v14.6h-2.7V49.2h-3.3c0,1.7-0.2,4.6-0.4,6.3
			c-0.4,4.1-1.8,6.1-4.6,6.1V59z"/>
		<path fill="#FF882A" d="M150.1,51.7v9.7h-2.2l-0.2-1.4c-0.6,1-1.6,1.7-3.3,1.7c-2.7,0-4.5-1.8-4.5-4.5c0-3,2.1-4.5,5.3-4.5h2.1v-1
			c0-1.7-0.6-2.7-2.1-2.7c-1.2,0-2.1,0.6-2.2,1.9h-2.7c0.1-2.8,2-4.5,5-4.5C148.5,46.4,150.1,48.3,150.1,51.7z M147.4,55h-2.1
			c-1.6,0-2.6,0.8-2.6,2.2c0,1.3,0.9,2.1,2.3,2.1s2.4-0.9,2.4-2.3V55z"/>
		<path fill="#FF882A" d="M153,56.3v-4.6c0-3.4,1.9-5.3,4.9-5.3c3.2,0,5,1.9,5.1,5.3h-2.7c-0.1-1.9-0.9-2.8-2.3-2.8
			c-1.4,0-2.3,0.9-2.3,2.8v4.6c0,1.9,0.8,2.8,2.3,2.8c1.5,0,2.3-0.9,2.4-2.8h2.7c-0.1,3.4-2,5.4-5.1,5.4
			C154.8,61.7,153,59.8,153,56.3z"/>
		<path fill="#FF882A" d="M175.4,56.8c-0.3,3.1-2.2,4.9-5.3,4.9c-3.1,0-5-2-5-5.5v-4.4c0-3.5,1.9-5.4,5-5.4c3.1,0,5.1,2,5.1,5.4v3.3
			h-7.4v1.1c0,2,0.9,2.9,2.3,2.9c1.6,0,2.3-0.7,2.6-2.3H175.4z M167.8,51.8v1.3h4.8v-1.3c0-2-0.9-2.9-2.4-2.9
			C168.7,48.9,167.8,49.8,167.8,51.8z"/>
		<path fill="#FF882A" d="M187.5,46.8v14.6h-2.7v-6.3h-4.1v6.3h-2.7V46.8h2.7v5.9h4.1v-5.9H187.5z"/>
	</g>
</g>
<g id="Teхt_2">
</g>
<g id="BG_1">
</g>
<g id="BG_5">
</g>
<g id="Button_1">
</g>
<g id="Button_5">
</g>
<g id="Text5">
</g>
<g id="BG_9">
</g>
<g id="Button_9">
</g>
<g id="Text_9">
</g>
<g id="BG_10">
</g>
<g id="Button_10">
</g>
<g id="Text_10">
</g>
<g id="Button_8">
</g>
<g id="Text_8">
</g>
<g id="Button_7">
</g>
<g id="Text_7">
</g>
<g id="Text1">
</g>
</svg>
