<?xml version="1.0" encoding="utf-8"?>
<!-- Generator: Adobe Illustrator 17.1.0, SVG Export Plug-In . SVG Version: 6.00 Build 0)  -->
<!DOCTYPE svg PUBLIC "-//W3C//DTD SVG 1.1//EN" "http://www.w3.org/Graphics/SVG/1.1/DTD/svg11.dtd">
<svg version="1.1" xmlns="http://www.w3.org/2000/svg" xmlns:xlink="http://www.w3.org/1999/xlink" x="0px" y="0px"
	 viewBox="0 0 271.5 118.6" enable-background="new 0 0 271.5 118.6" xml:space="preserve">
<g id="BG_main">
</g>
<g id="Button_2">
</g>
<g id="Button6">
</g>
<g id="Text_6">
</g>
<g id="BG_3">
</g>
<g id="Button_4">
</g>
<g id="Button_3_1_">
</g>
<g id="Text_4">
</g>
<g id="Text3">
</g>
<g id="Teхt_2">
</g>
<g id="BG_1">
</g>
<g id="BG_5">
</g>
<g id="Button_1">
</g>
<g id="Button_5">
</g>
<g id="Text5">
</g>
<g id="BG_9">
</g>
<g id="Button_9">
</g>
<g id="Text_9">
</g>
<g id="BG_10">
</g>
<g id="Button_10">
</g>
<g id="Text_10">
</g>
<g id="Button_8">
</g>
<g id="Text_8">
</g>
<g id="Button_7">
	<rect id="Button_2_" x="44.7" y="34.9" fill="#FF882A" width="194.3" height="55"/>
</g>
<g id="Text_7">
	<g>
		<path fill="#FFFFFF" d="M97.9,65.6v-8c0-3.9,2.2-6.1,5.6-6.1c3.5,0,5.6,2.1,5.8,6h-2.8c-0.2-2.3-1.2-3.3-3-3.3
			c-1.6,0-2.7,1.1-2.7,3.4v8c0,2.3,1.1,3.4,2.8,3.4c1.9,0,2.9-1.1,3.1-3.3h2.8c-0.2,3.8-2.3,5.9-5.9,5.9
			C100.1,71.6,97.9,69.5,97.9,65.6z"/>
		<path fill="#FFFFFF" d="M111.4,66.1v-4.2c0-3.6,2-5.6,5.1-5.6c3.2,0,5.2,2,5.2,5.6v4.2c0,3.6-2,5.6-5.2,5.6
			C113.4,71.6,111.4,69.6,111.4,66.1z M119,66.1v-4.2c0-2.1-0.9-2.9-2.4-2.9c-1.5,0-2.4,0.9-2.4,2.9v4.2c0,2.1,0.9,2.9,2.4,2.9
			C118.1,69,119,68.1,119,66.1z"/>
		<path fill="#FFFFFF" d="M132.2,59.2h-4.9v12.1h-2.7V56.6h7.6V59.2z"/>
		<path fill="#FFFFFF" d="M132.4,68.9c1.5,0,1.8-1.6,2-3.9c0.2-2.1,0.4-5.5,0.4-8.3h8.5v14.6h-2.7V59.1h-3.3c0,1.7-0.2,4.6-0.4,6.3
			c-0.4,4.1-1.8,6.1-4.6,6.1V68.9z"/>
		<path fill="#FFFFFF" d="M156,61.6v9.7h-2.2l-0.2-1.4c-0.6,1-1.6,1.7-3.3,1.7c-2.7,0-4.5-1.8-4.5-4.5c0-3,2.1-4.5,5.3-4.5h2.1v-1
			c0-1.7-0.6-2.7-2.1-2.7c-1.2,0-2.1,0.6-2.2,1.9h-2.7c0.1-2.8,2-4.5,5-4.5C154.4,56.3,156,58.2,156,61.6z M153.3,64.9h-2.1
			c-1.6,0-2.6,0.8-2.6,2.2c0,1.3,0.9,2.1,2.3,2.1s2.4-0.9,2.4-2.3V64.9z"/>
		<path fill="#FFFFFF" d="M158.9,66.2v-4.6c0-3.4,1.9-5.3,4.9-5.3c3.2,0,5,1.9,5.1,5.3h-2.7c-0.1-1.9-0.9-2.8-2.3-2.8
			c-1.4,0-2.3,0.9-2.3,2.8v4.6c0,1.9,0.8,2.8,2.3,2.8c1.5,0,2.3-0.9,2.4-2.8h2.7c-0.1,3.4-2,5.4-5.1,5.4
			C160.8,71.6,158.9,69.6,158.9,66.2z"/>
		<path fill="#FFFFFF" d="M181.4,66.7c-0.3,3.1-2.2,4.9-5.3,4.9c-3.1,0-5-2-5-5.5v-4.4c0-3.5,1.9-5.4,5-5.4c3.1,0,5.1,2,5.1,5.4V65
			h-7.4v1.1c0,2,0.9,2.9,2.3,2.9c1.6,0,2.3-0.7,2.6-2.3H181.4z M173.7,61.7V63h4.8v-1.3c0-2-0.9-2.9-2.4-2.9
			C174.6,58.8,173.7,59.7,173.7,61.7z"/>
		<path fill="#FFFFFF" d="M193.5,56.6v14.6h-2.7V65h-4.1v6.3H184V56.6h2.7v5.9h4.1v-5.9H193.5z"/>
	</g>
</g>
<g id="Text1">
</g>
</svg>
