<?xml version="1.0" encoding="utf-8"?>
<!-- Generator: Adobe Illustrator 17.1.0, SVG Export Plug-In . SVG Version: 6.00 Build 0)  -->
<!DOCTYPE svg PUBLIC "-//W3C//DTD SVG 1.1//EN" "http://www.w3.org/Graphics/SVG/1.1/DTD/svg11.dtd">
<svg version="1.1" id="Слой_1" xmlns="http://www.w3.org/2000/svg" xmlns:xlink="http://www.w3.org/1999/xlink" x="0px" y="0px"
	 viewBox="0 0 499.4 406.4" enable-background="new 0 0 499.4 406.4" xml:space="preserve">
<g>
	<path fill="#FFFFFF" d="M434.9,331.5l-315.8,0c-29.6,0-57.4-18.4-56.6-23l0-26.5V88.8h372.4V331.5z"/>
	<circle fill="#CCCCCC" cx="86.5" cy="105.8" r="11.2"/>
	<path fill="#FF882A" d="M86.5,109.5L86.5,109.5c-3.1,0-5.7-2.5-5.7-5.7v-30c0-3.1,2.5-5.7,5.7-5.7h0c3.1,0,5.7,2.5,5.7,5.7v30
		C92.2,106.9,89.6,109.5,86.5,109.5z"/>
	<circle fill="#CCCCCC" cx="318.4" cy="105.8" r="11.2"/>
	<circle fill="#CCCCCC" cx="272" cy="105.8" r="11.2"/>
	<circle fill="#CCCCCC" cx="225.6" cy="105.8" r="11.2"/>
	<circle fill="#CCCCCC" cx="179.2" cy="105.8" r="11.2"/>
	<circle fill="#CCCCCC" cx="132.9" cy="105.8" r="11.2"/>
	<path fill="#FF882A" d="M132.9,109.5L132.9,109.5c-3.1,0-5.7-2.5-5.7-5.7v-30c0-3.1,2.5-5.7,5.7-5.7h0c3.1,0,5.7,2.5,5.7,5.7v30
		C138.6,106.9,136,109.5,132.9,109.5z"/>
	<path fill="#FF882A" d="M179.2,109.5L179.2,109.5c-3.1,0-5.7-2.5-5.7-5.7v-30c0-3.1,2.5-5.7,5.7-5.7h0c3.1,0,5.7,2.5,5.7,5.7v30
		C184.9,106.9,182.4,109.5,179.2,109.5z"/>
	<path fill="#FF882A" d="M225.6,109.5L225.6,109.5c-3.1,0-5.7-2.5-5.7-5.7v-30c0-3.1,2.5-5.7,5.7-5.7h0c3.1,0,5.7,2.5,5.7,5.7v30
		C231.3,106.9,228.8,109.5,225.6,109.5z"/>
	<path fill="#FF882A" d="M272,109.5L272,109.5c-3.1,0-5.7-2.5-5.7-5.7v-30c0-3.1,2.5-5.7,5.7-5.7l0,0c3.1,0,5.7,2.5,5.7,5.7v30
		C277.7,106.9,275.1,109.5,272,109.5z"/>
	<path fill="#FF882A" d="M318.4,109.5L318.4,109.5c-3.1,0-5.7-2.5-5.7-5.7v-30c0-3.1,2.5-5.7,5.7-5.7h0c3.1,0,5.7,2.5,5.7,5.7v30
		C324,106.9,321.5,109.5,318.4,109.5z"/>
	<circle fill="#CCCCCC" cx="411.1" cy="105.8" r="11.2"/>
	<circle fill="#CCCCCC" cx="364.7" cy="105.8" r="11.2"/>
	<path fill="#FF882A" d="M364.7,109.5L364.7,109.5c-3.1,0-5.7-2.5-5.7-5.7v-30c0-3.1,2.5-5.7,5.7-5.7l0,0c3.1,0,5.7,2.5,5.7,5.7v30
		C370.4,106.9,367.9,109.5,364.7,109.5z"/>
	<path fill="#FF882A" d="M411.1,109.5L411.1,109.5c-3.1,0-5.7-2.5-5.7-5.7v-30c0-3.1,2.5-5.7,5.7-5.7l0,0c3.1,0,5.7,2.5,5.7,5.7v30
		C416.8,106.9,414.2,109.5,411.1,109.5z"/>
	<path fill="#E6E6E6" d="M62.5,265.9V282v26.5c-0.8,4.7,27,23,56.6,23C119.1,331.5,70,305.3,62.5,265.9z"/>
	<g>
		
			<rect x="360.9" y="161.9" fill="none" stroke="#22232D" stroke-width="1.1036" stroke-miterlimit="10" width="18.8" height="18.8"/>
		<path fill="#5E8E44" d="M354.3,162.5c5.1,4.5,11,10.3,14.4,15.9c0.8,1.4,2.9,1.3,3.6-0.2c3.1-6.3,10-19.6,19.5-31.7
			c1.5-2-1.1-4.5-3-2.8c-5.6,4.9-12.2,11.4-19.2,19.9c-0.7,0.8-1.8,1-2.7,0.4c-2-1.3-5.8-3.6-10-5.6
			C354.4,157.2,352.2,160.6,354.3,162.5z"/>
	</g>
	<g>
		
			<rect x="360.9" y="210.9" fill="none" stroke="#22232D" stroke-width="1.1036" stroke-miterlimit="10" width="18.8" height="18.8"/>
		<path fill="#5E8E44" d="M354.3,211.5c5.1,4.5,11,10.3,14.4,15.9c0.8,1.4,2.9,1.3,3.6-0.2c3.1-6.3,10-19.6,19.5-31.7
			c1.5-2-1.1-4.5-3-2.8c-5.6,4.9-12.2,11.4-19.2,19.9c-0.7,0.8-1.8,1-2.7,0.4c-2-1.3-5.8-3.6-10-5.6
			C354.4,206.2,352.2,209.6,354.3,211.5z"/>
	</g>
	<g>
		
			<rect x="360.9" y="259.9" fill="none" stroke="#22232D" stroke-width="1.1036" stroke-miterlimit="10" width="18.8" height="18.8"/>
		<path fill="#5E8E44" d="M354.3,260.5c5.1,4.5,11,10.3,14.4,15.9c0.8,1.4,2.9,1.3,3.6-0.2c3.1-6.3,10-19.6,19.5-31.7
			c1.5-2-1.1-4.5-3-2.8c-5.6,4.9-12.2,11.4-19.2,19.9c-0.7,0.8-1.8,1-2.7,0.4c-2-1.3-5.8-3.6-10-5.6
			C354.4,255.2,352.2,258.6,354.3,260.5z"/>
	</g>
	<g>
		<path fill="#22232D" d="M114.3,163.3l-1.7,1.3c-0.2,0.2-0.4,0.2-0.7,0.2c-0.3,0-0.6-0.1-0.8-0.4c-0.2-0.2-0.2-0.4-0.2-0.6
			c0-0.3,0.2-0.6,0.4-0.8l3.2-2.5c0.2-0.2,0.5-0.3,0.8-0.3c0.6,0,1,0.4,1,1v16.1c0,0.5-0.4,1-1,1c-0.6,0-1-0.4-1-1V163.3z"/>
		<path fill="#22232D" d="M122.1,175.5c0.8,0,1.3,0.7,1.3,1.3c0,0.8-0.6,1.4-1.3,1.4c-0.9,0-1.4-0.7-1.4-1.4
			C120.6,176.2,121.2,175.5,122.1,175.5z"/>
		<path fill="#22232D" d="M137.8,177.3c0,0.6-0.5,1.1-1.1,1.1c-0.6,0-1.1-0.5-1.1-1.1v-14.8h-5.2c-0.5,0-1-0.5-1-1c0-0.6,0.5-1,1-1
			H143c0.5,0,1,0.5,1,1c0,0.6-0.5,1-1,1h-5.2V177.3z"/>
		<path fill="#22232D" d="M153.1,172.3c0,0.4-0.5,0.8-0.9,0.8h-8c0.2,2.1,1.7,3.4,4,3.4c1.1,0,2-0.2,2.8-0.7
			c0.2-0.1,0.4-0.2,0.6-0.2c0.3,0,0.5,0.1,0.7,0.3c0.1,0.1,0.2,0.3,0.2,0.5c0,0.3-0.1,0.6-0.3,0.7c-1.3,0.9-2.6,1.3-4,1.3
			c-3.7,0-6.1-2.4-6.1-5.9c0-3.3,2.1-5.9,5.9-5.9c2.9,0,5.3,2.1,5.3,5.2C153.2,172,153.2,172.1,153.1,172.3z M147.8,168.4
			c-2.1,0-3.4,1.3-3.6,3h6.9C151,169.6,149.7,168.4,147.8,168.4z"/>
		<path fill="#22232D" d="M161.2,166.5c3.6,0,6.1,2.5,6.1,5.9c0,3.4-2.4,5.9-6.1,5.9c-3.6,0-6.1-2.5-6.1-5.9
			C155.1,169.1,157.6,166.5,161.2,166.5z M161.2,176.5c2.3,0,3.9-1.6,3.9-4c0-2.4-1.6-4-3.9-4c-2.2,0-3.9,1.6-3.9,4
			C157.3,174.9,158.9,176.5,161.2,176.5z"/>
		<path fill="#22232D" d="M172.2,182.3c0,0.5-0.4,1-1,1c-0.6,0-1-0.4-1-1v-14.6c0-0.5,0.4-1,1-1c0.6,0,1,0.4,1,1v0.5
			c0.8-0.9,2.3-1.6,3.9-1.6c3.2,0,5.3,2.4,5.3,5.8c0,3.5-2.4,6.1-5.9,6.1c-1.2,0-2.4-0.3-3.2-0.8V182.3z M172.2,175.7
			c1,0.7,1.9,0.9,3,0.9c2.4,0,3.9-1.7,3.9-4.1c0-2.3-1.3-3.9-3.7-3.9c-1.3,0-2.6,0.7-3.3,1.6V175.7z"/>
		<path fill="#22232D" d="M193.9,178.4c-0.6,0-1-0.4-1-1v-7.5l-6.1,7.6c-0.5,0.6-0.8,0.9-1.4,0.9c-0.6,0-1-0.5-1-1v-9.7
			c0-0.5,0.4-1,1-1c0.6,0,1,0.4,1,1v7.5l6.1-7.6c0.4-0.5,0.8-0.9,1.4-0.9c0.6,0,1,0.5,1,1v9.7C194.9,177.9,194.4,178.4,193.9,178.4z
			"/>
		<path fill="#22232D" d="M200.4,173.9c-1.2-0.3-2.5-1.4-2.5-3.3c0-1.9,1.3-3.8,5.1-3.8h2.6c0.5,0,1,0.4,1,1v9.6c0,0.5-0.4,1-1,1
			c-0.6,0-1-0.4-1-1v-3h-2.2l-2.5,3.4c-0.2,0.3-0.5,0.6-0.9,0.6c-0.6,0-1-0.4-1-0.9c0-0.2,0.1-0.5,0.3-0.7L200.4,173.9z
			 M204.5,168.7h-1.8c-1.9,0-2.6,0.9-2.6,1.9c0,1.2,1.1,1.8,2.1,1.8h2.3V168.7z"/>
	</g>
	<g>
		<path fill="#22232D" d="M120.8,223.8c0.5,0,1,0.4,1,0.9c0,0.5-0.4,1-1,1h-9c-0.7,0-1.1-0.4-1.1-0.9c0-0.5,0.4-0.9,0.7-1.2
			c2.9-2.9,7.5-7.4,7.5-10.9c0-1.6-1-2.9-2.9-2.9c-1.2,0-2.2,0.5-2.8,1.8c-0.2,0.5-0.5,0.7-1,0.7c-0.7,0-1-0.5-1-1
			c0-0.1,0-0.2,0.1-0.4c0.7-2.1,2.8-3.1,5-3.1c3.3,0,4.9,2.3,4.9,4.5c0,5-6,10.3-7.4,11.5H120.8z"/>
		<path fill="#22232D" d="M125.9,223c0.8,0,1.3,0.7,1.3,1.3c0,0.8-0.6,1.4-1.3,1.4c-0.9,0-1.4-0.7-1.4-1.4
			C124.4,223.7,125,223,125.9,223z"/>
		<path fill="#22232D" d="M148.5,208c0.6,0,1.1,0.5,1.1,1.1v15.8c0,0.6-0.5,1.1-1.1,1.1c-0.6,0-1.1-0.5-1.1-1.1V210h-9.6v14.8
			c0,0.6-0.5,1.1-1.1,1.1c-0.6,0-1.1-0.5-1.1-1.1v-15.8c0-0.6,0.5-1.1,1.1-1.1H148.5z"/>
		<path fill="#22232D" d="M156.1,229.8c0,0.5-0.4,1-1,1c-0.6,0-1-0.4-1-1v-14.6c0-0.5,0.4-1,1-1c0.6,0,1,0.4,1,1v0.5
			c0.8-0.9,2.3-1.6,3.9-1.6c3.2,0,5.3,2.4,5.3,5.8c0,3.5-2.4,6.1-5.9,6.1c-1.2,0-2.4-0.3-3.2-0.8V229.8z M156.1,223.2
			c1,0.7,1.9,0.9,3,0.9c2.4,0,3.9-1.7,3.9-4.1c0-2.3-1.3-3.9-3.7-3.9c-1.3,0-2.6,0.7-3.3,1.6V223.2z"/>
		<path fill="#22232D" d="M171.7,218.8c0.9,0,2.1,0.2,2.8,0.7c0-2.1-0.3-3.6-2.6-3.6c-0.8,0-1.5,0.2-2.3,0.5
			c-0.1,0.1-0.3,0.1-0.4,0.1c-0.3,0-0.6-0.2-0.8-0.5c-0.1-0.1-0.1-0.2-0.1-0.4c0-0.4,0.2-0.7,0.5-0.8c1.2-0.5,2.2-0.7,3.1-0.7
			c3.2,0,4.4,1.7,4.4,4.7v6.3c0,0.5-0.4,0.9-1,0.9c-0.6,0-1-0.4-1-0.9v-0.8c-0.7,0.9-1.8,1.6-3.6,1.6c-2.1,0-3.5-1.3-3.5-3.5
			C167.4,220,169.2,218.8,171.7,218.8z M174.5,221.2c-0.7-0.5-1.6-0.8-2.6-0.8c-1.2,0-2.4,0.6-2.4,1.9c0,1.1,0.7,1.8,2,1.8
			c1.5,0,2.4-0.8,2.9-1.5V221.2z"/>
		<path fill="#22232D" d="M181.8,224.9c0,0.5-0.4,1-1,1c-0.6,0-1-0.4-1-1v-9.8c0-0.5,0.4-1,1-1c0.6,0,1,0.4,1,1V224.9z M183,220.6
			c-0.2-0.2-0.3-0.5-0.3-0.8c0-0.3,0.1-0.5,0.3-0.7l3.8-4.4c0.3-0.3,0.5-0.5,0.9-0.5c0.7,0,1,0.5,1,0.9c0,0.2-0.1,0.5-0.3,0.6
			l-3.7,4l4,4.4c0.2,0.2,0.3,0.5,0.3,0.8c0,0.5-0.4,1-1,1c-0.4,0-0.7-0.2-1-0.5L183,220.6z"/>
		<path fill="#22232D" d="M195.8,225.9c-0.6,0-1-0.4-1-1v-8.6h-3.2c-0.5,0-1-0.4-1-1c0-0.6,0.4-1,1-1h8.5c0.5,0,1,0.4,1,1
			c0,0.6-0.4,1-1,1h-3.2v8.6C196.8,225.5,196.3,225.9,195.8,225.9z"/>
		<path fill="#22232D" d="M212.8,225.9c-0.6,0-1-0.4-1-1v-7.5l-6.1,7.6c-0.5,0.6-0.8,0.9-1.4,0.9c-0.6,0-1-0.5-1-1v-9.7
			c0-0.5,0.4-1,1-1c0.6,0,1,0.4,1,1v7.5l6.1-7.6c0.4-0.5,0.8-0.9,1.4-0.9c0.6,0,1,0.5,1,1v9.7C213.8,225.5,213.4,225.9,212.8,225.9z
			"/>
		<path fill="#22232D" d="M219.5,224.9c0,0.5-0.4,1-1,1c-0.6,0-1-0.4-1-1v-9.8c0-0.5,0.4-1,1-1c0.6,0,1,0.4,1,1V224.9z M220.6,220.6
			c-0.2-0.2-0.3-0.5-0.3-0.8c0-0.3,0.1-0.5,0.3-0.7l3.8-4.4c0.3-0.3,0.5-0.5,0.9-0.5c0.7,0,1,0.5,1,0.9c0,0.2-0.1,0.5-0.3,0.6
			l-3.7,4l4,4.4c0.2,0.2,0.3,0.5,0.3,0.8c0,0.5-0.4,1-1,1c-0.4,0-0.7-0.2-1-0.5L220.6,220.6z"/>
		<path fill="#22232D" d="M233.1,218.8c0.9,0,2.1,0.2,2.8,0.7c0-2.1-0.3-3.6-2.6-3.6c-0.8,0-1.5,0.2-2.3,0.5
			c-0.1,0.1-0.3,0.1-0.4,0.1c-0.3,0-0.6-0.2-0.8-0.5c-0.1-0.1-0.1-0.2-0.1-0.4c0-0.4,0.2-0.7,0.5-0.8c1.2-0.5,2.2-0.7,3.1-0.7
			c3.2,0,4.4,1.7,4.4,4.7v6.3c0,0.5-0.4,0.9-1,0.9s-1-0.4-1-0.9v-0.8c-0.7,0.9-1.8,1.6-3.6,1.6c-2.1,0-3.5-1.3-3.5-3.5
			C228.8,220,230.7,218.8,233.1,218.8z M236,221.2c-0.7-0.5-1.6-0.8-2.6-0.8c-1.2,0-2.4,0.6-2.4,1.9c0,1.1,0.7,1.8,2,1.8
			c1.5,0,2.4-0.8,2.9-1.5V221.2z"/>
	</g>
	<g>
		<path fill="#22232D" d="M116.3,257.8c3,0,4.9,1.7,4.9,4.5c0,1.9-1,3.5-2.8,4.3c2.2,0.4,3.4,2.3,3.4,4.3c0,3.2-2.4,5.1-5.6,5.1
			c-2.1,0-4-0.7-5.1-2.2c-0.2-0.3-0.3-0.5-0.3-0.8c0-0.3,0.1-0.6,0.4-0.8c0.2-0.1,0.4-0.2,0.5-0.2c0.4,0,0.7,0.2,0.9,0.5
			c0.9,1.1,2,1.4,3.4,1.4c2.2,0,3.5-1.4,3.5-3.2c0-1.9-1.5-3.1-3.6-3.1h-0.4c-0.7,0-1.1-0.4-1.1-1c0-0.6,0.4-1,1.1-1h0.3
			c1.6,0,3.1-1.2,3.1-3.1c0-1.7-1.1-2.8-2.9-2.8c-1.4,0-2.2,0.4-2.8,1.2c-0.3,0.3-0.6,0.5-0.9,0.5c-0.2,0-0.4-0.1-0.5-0.2
			c-0.2-0.2-0.4-0.4-0.4-0.7c0-0.2,0.1-0.5,0.2-0.7C112.8,258.5,114.4,257.8,116.3,257.8z"/>
		<path fill="#22232D" d="M126.3,273c0.8,0,1.3,0.7,1.3,1.3c0,0.8-0.6,1.4-1.3,1.4c-0.9,0-1.4-0.7-1.4-1.4
			C124.8,273.7,125.4,273,126.3,273z"/>
		<path fill="#22232D" d="M134.7,266.9c0-5.1,3.8-9.1,9-9.1c5.1,0,9,3.7,9,9.1c0,5.3-3.9,9.1-9,9.1
			C138.6,276,134.7,272.3,134.7,266.9z M137,266.9c0,4,3,7.1,6.8,7.1c4,0,6.8-3.1,6.8-7.1c0-4.1-3-7.1-6.8-7.1
			C139.9,259.8,137,262.7,137,266.9z"/>
		<path fill="#22232D" d="M161.1,276c-3.7,0-6-2.7-6-7.1c0-3.4,0.6-7.7,4.2-9.2c2.2-0.9,3.5-0.6,4.7-1.3c0.3-0.2,0.7-0.4,0.9-0.4
			c0.3,0,0.5,0.1,0.7,0.4c0.2,0.2,0.2,0.4,0.2,0.6c0,0.3-0.2,0.6-0.4,0.8c-1.6,1.4-3.2,0.9-5.5,1.9c-2.1,1-2.7,3.4-2.9,5.5
			c0.8-1.6,2.6-2.7,4.5-2.7c3.3,0,5.3,2.3,5.3,5.7C166.9,273.3,164.5,276,161.1,276z M161,274.1c2.2,0,3.7-1.7,3.7-3.8
			c0-2.2-1.3-3.9-3.6-3.9c-2.2,0-3.6,1.4-3.9,2.9C157.2,272.2,158.8,274.1,161,274.1z"/>
		<path fill="#22232D" d="M171.8,279.8c0,0.5-0.4,1-1,1c-0.6,0-1-0.4-1-1v-14.6c0-0.5,0.4-1,1-1c0.6,0,1,0.4,1,1v0.5
			c0.8-0.9,2.3-1.6,3.9-1.6c3.2,0,5.3,2.4,5.3,5.8c0,3.5-2.4,6.1-5.9,6.1c-1.2,0-2.4-0.3-3.2-0.8V279.8z M171.8,273.2
			c1,0.7,1.9,0.9,3,0.9c2.4,0,3.9-1.7,3.9-4.1c0-2.3-1.3-3.9-3.7-3.9c-1.3,0-2.6,0.7-3.3,1.6V273.2z"/>
		<path fill="#22232D" d="M187.3,268.8c0.9,0,2.1,0.2,2.8,0.7c0-2.1-0.3-3.6-2.6-3.6c-0.8,0-1.5,0.2-2.3,0.5
			c-0.1,0.1-0.3,0.1-0.4,0.1c-0.3,0-0.6-0.2-0.8-0.5c-0.1-0.1-0.1-0.2-0.1-0.4c0-0.4,0.2-0.7,0.5-0.8c1.2-0.5,2.2-0.7,3.1-0.7
			c3.2,0,4.4,1.7,4.4,4.7v6.3c0,0.5-0.4,0.9-1,0.9c-0.6,0-1-0.4-1-0.9v-0.8c-0.7,0.9-1.8,1.6-3.6,1.6c-2.1,0-3.5-1.3-3.5-3.5
			C183,270.1,184.9,268.8,187.3,268.8z M190.1,271.2c-0.7-0.5-1.6-0.8-2.6-0.8c-1.2,0-2.4,0.6-2.4,1.9c0,1.1,0.7,1.8,2,1.8
			c1.5,0,2.4-0.8,2.9-1.5V271.2z"/>
		<path fill="#22232D" d="M203.3,267.1c0,1.1-0.6,2.2-2,2.7c1.6,0.2,2.4,1.4,2.4,2.7c0,2.1-2,3.4-4.8,3.4c-1.5,0-2.8-0.3-3.9-1
			c-0.3-0.2-0.4-0.5-0.4-0.8c0-0.2,0.1-0.4,0.2-0.5c0.2-0.3,0.5-0.4,0.8-0.4c0.2,0,0.4,0.1,0.5,0.2c1,0.6,1.8,0.8,2.6,0.8
			c1.7,0,3-0.7,3-1.9c0-0.9-0.8-1.5-2.2-1.5h-1.1c-0.5,0-0.9-0.4-0.9-0.8c0-0.4,0.4-0.8,0.9-0.8h0.9c1.1,0,2-0.7,2-1.6
			c0-1-1-1.6-2.4-1.6c-1,0-1.8,0.2-2.6,0.6c-0.2,0.1-0.3,0.1-0.5,0.1c-0.3,0-0.6-0.2-0.8-0.4c-0.1-0.1-0.1-0.3-0.1-0.4
			c0-0.3,0.2-0.6,0.5-0.8c1-0.6,2.3-0.9,3.7-0.9C201.8,264.1,203.3,265.3,203.3,267.1z"/>
		<path fill="#22232D" d="M212.1,264.1c3.6,0,6.1,2.5,6.1,5.9s-2.4,5.9-6.1,5.9c-3.6,0-6.1-2.5-6.1-5.9S208.5,264.1,212.1,264.1z
			 M212.1,274.1c2.3,0,3.9-1.6,3.9-4c0-2.4-1.6-4-3.9-4c-2.2,0-3.9,1.6-3.9,4C208.2,272.4,209.8,274.1,212.1,274.1z"/>
		<path fill="#22232D" d="M227.8,269.8c1.8,0.4,2.7,1.3,2.7,2.7c0,2.2-1.7,3.3-5.2,3.3c-1,0-2.2,0-3.2-0.1c-0.5,0-1-0.5-1-1v-9.4
			c0-0.6,0.4-1,1-1c0.9,0,2-0.1,3.2-0.1c3.2,0,4.9,0.9,4.9,2.9C230.1,268.5,229.2,269.6,227.8,269.8z M225.7,269.3
			c1.3,0,2.3-0.7,2.3-1.8c0-1.2-1.1-1.7-2.6-1.7c-0.9,0-1.7,0-2.3,0.1v3.4H225.7z M223.1,274.1c0.6,0,1.4,0.1,2.3,0.1
			c1.9,0,2.9-0.6,2.9-1.8c0-1.2-1-1.7-2.8-1.7h-2.4V274.1z"/>
		<path fill="#22232D" d="M237.1,268.8c0.9,0,2.1,0.2,2.8,0.7c0-2.1-0.3-3.6-2.6-3.6c-0.8,0-1.5,0.2-2.3,0.5
			c-0.1,0.1-0.3,0.1-0.4,0.1c-0.3,0-0.6-0.2-0.8-0.5c-0.1-0.1-0.1-0.2-0.1-0.4c0-0.4,0.2-0.7,0.5-0.8c1.2-0.5,2.2-0.7,3.1-0.7
			c3.2,0,4.4,1.7,4.4,4.7v6.3c0,0.5-0.4,0.9-1,0.9c-0.6,0-1-0.4-1-0.9v-0.8c-0.7,0.9-1.8,1.6-3.6,1.6c-2.1,0-3.5-1.3-3.5-3.5
			C232.8,270.1,234.6,268.8,237.1,268.8z M239.9,271.2c-0.7-0.5-1.6-0.8-2.6-0.8c-1.2,0-2.4,0.6-2.4,1.9c0,1.1,0.7,1.8,2,1.8
			c1.5,0,2.4-0.8,2.9-1.5V271.2z"/>
		<path fill="#22232D" d="M255.6,274.9c0,0.5-0.4,1-1,1c-0.6,0-1-0.4-1-1v-4h-6.3v4c0,0.5-0.4,1-1,1c-0.6,0-1-0.4-1-1v-9.8
			c0-0.5,0.4-1,1-1c0.6,0,1,0.4,1,1v3.8h6.3v-3.8c0-0.5,0.4-1,1-1c0.6,0,1,0.4,1,1V274.9z"/>
		<path fill="#22232D" d="M268.9,275.9c-0.6,0-1-0.4-1-1v-7.5l-6.1,7.6c-0.5,0.6-0.8,0.9-1.4,0.9c-0.6,0-1-0.5-1-1v-9.7
			c0-0.5,0.4-1,1-1c0.6,0,1,0.4,1,1v7.5l6.1-7.6c0.4-0.5,0.8-0.9,1.4-0.9c0.6,0,1,0.5,1,1v9.7C269.9,275.5,269.4,275.9,268.9,275.9z
			"/>
		<path fill="#22232D" d="M283.9,269.8c0,0.4-0.5,0.8-0.9,0.8h-8c0.2,2.2,1.7,3.4,4,3.4c1.1,0,2-0.2,2.8-0.7
			c0.2-0.1,0.4-0.2,0.6-0.2c0.3,0,0.5,0.1,0.7,0.3c0.1,0.1,0.2,0.3,0.2,0.5c0,0.3-0.1,0.6-0.3,0.7c-1.3,0.9-2.6,1.3-4,1.3
			c-3.7,0-6.1-2.4-6.1-5.9c0-3.3,2.1-5.9,5.9-5.9c2.9,0,5.3,2.1,5.3,5.2C283.9,269.5,283.9,269.7,283.9,269.8z M278.5,266
			c-2.1,0-3.4,1.3-3.6,3h6.9C281.7,267.1,280.5,266,278.5,266z"/>
	</g>
</g>
</svg>
