<?xml version="1.0" encoding="utf-8"?>
<!-- Generator: Adobe Illustrator 17.1.0, SVG Export Plug-In . SVG Version: 6.00 Build 0)  -->
<!DOCTYPE svg PUBLIC "-//W3C//DTD SVG 1.1//EN" "http://www.w3.org/Graphics/SVG/1.1/DTD/svg11.dtd">
<svg version="1.1" xmlns="http://www.w3.org/2000/svg" xmlns:xlink="http://www.w3.org/1999/xlink" x="0px" y="0px"
	 viewBox="0 0 282 208" enable-background="new 0 0 282 208" xml:space="preserve">
<g id="Sky">
</g>
<g id="Clouds">
</g>
<g id="Button">
</g>
<g id="B_1">
</g>
<g id="B2">
</g>
<g id="B3">
	<path fill="#96CD7C" d="M194.3,148.9c-31.7,26.6-100.5,40.6-127.1,8.9s-0.8-97,30.8-123.6s78.9-22.5,105.5,9.2
		S226,122.3,194.3,148.9z"/>
	<polygon fill="#9AD17D" points="71.1,154.5 50.8,157.4 64.8,174 	"/>
	<path fill="#84CB66" d="M194.3,148.9c28.9-24.2,34.8-65.6,15.6-96.7l0,0c0,0,36,108.7-119.5,120.3
		C122.6,182.6,169.7,169.5,194.3,148.9z"/>
	<path fill="#ABD796" d="M115.7,46.9C99,57.6,89.5,72.4,85.5,66.2c-4-6.2,6.3-19.9,22.9-30.5s33.3-14.2,37.3-8
		S132.3,36.3,115.7,46.9z"/>
	<g>
		<rect x="64.3" y="92.2" fill="none" width="144.3" height="30.9"/>
		<text transform="matrix(1 0 0 1 69.4411 108.2949)" fill="#252835" font-family="'CirceRounded-Regular'" font-size="23">Менеджмент</text>
	</g>
</g>
<g id="B4">
</g>
<g id="B5">
</g>
<g id="B6">
</g>
<g id="B7">
</g>
<g id="B8">
</g>
<g id="B9">
</g>
<g id="B10">
</g>
<g id="B11">
</g>
<g id="B12">
</g>
<g id="B13">
</g>
<g id="B14">
</g>
<g id="B15">
</g>
<g id="Head">
</g>
<g id="B16">
</g>
<g id="B17">
</g>
<g id="B18">
</g>
<g id="B19">
</g>
<g id="B20">
</g>
<g id="B21">
</g>
<g id="B22">
</g>
<g id="B23">
</g>
<g id="B24">
</g>
<g id="B25">
</g>
<g id="B26">
</g>
<g id="B27">
</g>
<g id="B28">
</g>
<g id="B29">
</g>
<g id="B30">
</g>
<g id="B31">
</g>
<g id="B32">
</g>
<g id="B33">
</g>
</svg>
