<?xml version="1.0" encoding="utf-8"?>
<!-- Generator: Adobe Illustrator 22.1.0, SVG Export Plug-In . SVG Version: 6.00 Build 0)  -->
<svg version="1.1" id="Слой_1" xmlns="http://www.w3.org/2000/svg" xmlns:xlink="http://www.w3.org/1999/xlink" x="0px" y="0px"
	 viewBox="0 0 199 199" style="enable-background:new 0 0 199 199;" xml:space="preserve">
<style type="text/css">
	.st0{fill:#FFDF57;}
	.st1{fill:#E9CA25;}
	.st2{fill:#F9E698;}
	.st3{fill:none;}
	.st4{enable-background:new    ;}
	.st5{fill:#252835;}
</style>
<g id="Sky">
</g>
<g id="Clouds">
</g>
<g id="Button">
</g>
<g id="B_1">
</g>
<g id="B2">
</g>
<g id="B3">
</g>
<g id="B4">
</g>
<g id="B5">
</g>
<g id="B6">
</g>
<g id="B7">
</g>
<g id="B8">
</g>
<g id="B9">
</g>
<g id="B10">
</g>
<g id="B11">
</g>
<g id="B12">
</g>
<g id="B13">
</g>
<g id="B14">
</g>
<g id="B15">
</g>
<g id="Head">
</g>
<g id="B16">
</g>
<g id="B17">
</g>
<g id="B18">
</g>
<g id="B19">
</g>
<g id="B20">
</g>
<g id="B21">
</g>
<g id="B22">
</g>
<g id="B23">
</g>
<g id="B24">
</g>
<g id="B25">
</g>
<g id="B26">
</g>
<g id="B27">
</g>
<g id="B28">
</g>
<g id="B29">
</g>
<g id="B30">
</g>
<g id="B31">
</g>
<g id="B32">
</g>
<g id="B33">
	<path class="st0" d="M166.3,161.3c-36.4,30.5-115.4,46.6-145.9,10.2s-1-111.4,35.4-141.9s90.6-25.8,121.1,10.6
		S202.7,130.8,166.3,161.3z"/>
	<polygon class="st1" points="24.9,167.8 1.6,171.1 17.6,190.2 	"/>
	<path class="st1" d="M166.3,161.3c33.1-27.8,40-75.2,17.9-111l0,0c0,0,41.3,124.8-137.2,138.1C84,200,138,185.1,166.3,161.3z"/>
	<path class="st2" d="M74.8,49.4C52,66,39.4,87.7,33.4,79.4S41.1,51,64,34.4s46.3-23.4,52.3-15.1S97.7,32.8,74.8,49.4z"/>
	<g>
		<rect x="20.6" y="92.5" class="st3" width="183.8" height="30.9"/>
		<g class="st4">
			<path class="st5" d="M28.3,102.2h-2v5c0,0.5-0.2,0.9-0.5,1.2c-0.4,0.3-0.8,0.5-1.3,0.5c-0.5,0-1-0.2-1.3-0.5
				c-0.4-0.3-0.5-0.7-0.5-1.2V94c0-0.5,0.2-0.9,0.5-1.2c0.4-0.3,0.8-0.5,1.3-0.5c0.5,0,1,0.2,1.3,0.5c0.4,0.3,0.5,0.7,0.5,1.2v4.7h2
				c0.4-1.9,1.3-3.5,2.7-4.7c1.4-1.2,3.2-1.8,5.2-1.8c2.5,0,4.5,0.8,6,2.3c1.5,1.5,2.3,3.5,2.3,6.1c0,2.4-0.8,4.4-2.3,6
				c-1.5,1.6-3.5,2.3-6,2.3c-2,0-3.8-0.6-5.3-1.8C29.6,105.9,28.7,104.2,28.3,102.2z M36.4,95.7c-1.3,0-2.3,0.4-3.1,1.3
				c-0.8,0.9-1.2,2.1-1.2,3.5c0,1.4,0.4,2.5,1.3,3.5c0.9,1,1.9,1.4,3,1.4c1.4,0,2.5-0.4,3.2-1.3s1.1-2.1,1.1-3.6
				c0-1.5-0.4-2.7-1.2-3.5C38.8,96.2,37.7,95.7,36.4,95.7z"/>
			<path class="st5" d="M48.7,98.2c0.7,0,1.2,0.3,1.6,0.9c0.7-0.7,1.7-1,2.9-1c1.4,0,2.5,0.5,3.4,1.5c0.8,1,1.3,2.3,1.3,3.8
				c0,1.6-0.5,3-1.5,4c-1,1.1-2.4,1.6-4,1.6c-0.8,0-1.4-0.1-1.9-0.3v3c0,0.4-0.2,0.8-0.5,1.1c-0.3,0.3-0.7,0.5-1.2,0.5
				c-0.5,0-0.9-0.2-1.2-0.5c-0.3-0.3-0.5-0.7-0.5-1.1V99.9c0-0.5,0.2-0.9,0.5-1.2C47.7,98.3,48.2,98.2,48.7,98.2z M50.3,102.2v3.2
				c0.4,0.3,1,0.4,1.6,0.4c0.7,0,1.2-0.2,1.6-0.6s0.6-1,0.6-1.7c0-0.6-0.2-1.2-0.5-1.6c-0.4-0.4-0.9-0.6-1.5-0.6
				C51.4,101.2,50.8,101.5,50.3,102.2z"/>
			<path class="st5" d="M70.3,99.9v7.4c0,0.4-0.2,0.8-0.5,1.1c-0.3,0.3-0.7,0.5-1.2,0.5c-0.5,0-0.9-0.2-1.2-0.5
				c-0.3-0.3-0.5-0.7-0.5-1.1v-4l-3,4.3c-0.6,0.9-1.3,1.3-2.3,1.3c-0.6,0-1-0.2-1.4-0.5c-0.3-0.3-0.5-0.8-0.5-1.3v-7.2
				c0-0.4,0.2-0.8,0.5-1.1s0.7-0.5,1.2-0.5c0.5,0,0.9,0.2,1.2,0.5c0.3,0.3,0.5,0.7,0.5,1.1v3.9l2.8-4.1c0.3-0.5,0.7-0.9,1-1.1
				s0.8-0.3,1.3-0.3c0.6,0,1,0.2,1.4,0.5C70.1,99,70.3,99.4,70.3,99.9z"/>
			<path class="st5" d="M80,101.5c-0.2,0-0.5,0-0.8-0.1c-0.3-0.1-0.7-0.2-1-0.2c-0.6,0-1.1,0.2-1.6,0.6s-0.7,1-0.7,1.6
				c0,0.6,0.2,1.2,0.7,1.6s1,0.6,1.6,0.6c0.3,0,0.7-0.1,1.2-0.3c0.3-0.1,0.6-0.2,0.9-0.2c0.5,0,0.9,0.2,1.2,0.7
				c0.2,0.2,0.2,0.5,0.2,0.8c0,0.6-0.3,1.1-0.8,1.4c-0.8,0.5-1.8,0.7-3,0.7c-1.7,0-3.1-0.5-4.1-1.5c-1-1-1.6-2.3-1.6-4
				c0-1.5,0.5-2.8,1.5-3.9c1-1,2.3-1.6,3.9-1.6c1,0,2,0.2,2.8,0.6c0.6,0.3,1,0.8,1,1.3c0,0.2-0.1,0.5-0.2,0.8
				C81,101.3,80.6,101.5,80,101.5z"/>
			<path class="st5" d="M85.3,98.3h6.9c0.4,0,0.8,0.2,1.1,0.5c0.3,0.3,0.5,0.7,0.5,1.1v7.4c0,0.4-0.2,0.8-0.5,1.1
				c-0.3,0.3-0.7,0.5-1.2,0.5c-0.5,0-0.9-0.2-1.2-0.5c-0.3-0.3-0.5-0.7-0.5-1.1v-5.8h-3.2v5.8c0,0.4-0.2,0.8-0.5,1.1
				c-0.3,0.3-0.7,0.5-1.2,0.5c-0.5,0-0.9-0.2-1.2-0.5c-0.3-0.3-0.5-0.7-0.5-1.1v-7.4c0-0.4,0.2-0.8,0.5-1.1S84.9,98.3,85.3,98.3z"/>
			<path class="st5" d="M98.2,98.2c0.7,0,1.2,0.3,1.6,0.9c0.7-0.7,1.7-1,2.9-1c1.4,0,2.5,0.5,3.4,1.5c0.8,1,1.3,2.3,1.3,3.8
				c0,1.6-0.5,3-1.5,4c-1,1.1-2.4,1.6-4,1.6c-0.8,0-1.4-0.1-1.9-0.3v3c0,0.4-0.2,0.8-0.5,1.1c-0.3,0.3-0.7,0.5-1.2,0.5
				c-0.5,0-0.9-0.2-1.2-0.5c-0.3-0.3-0.5-0.7-0.5-1.1V99.9c0-0.5,0.2-0.9,0.5-1.2C97.2,98.3,97.7,98.2,98.2,98.2z M99.8,102.2v3.2
				c0.4,0.3,1,0.4,1.6,0.4c0.7,0,1.2-0.2,1.6-0.6s0.6-1,0.6-1.7c0-0.6-0.2-1.2-0.5-1.6c-0.4-0.4-0.9-0.6-1.5-0.6
				C100.9,101.2,100.3,101.5,99.8,102.2z"/>
			<path class="st5" d="M112,99.4l1.4,3.7c0.1,0.3,0.3,0.8,0.4,1.4c0.1-0.7,0.2-1.2,0.3-1.4l1.1-3.6c0.1-0.4,0.3-0.7,0.6-0.9
				c0.3-0.2,0.6-0.3,1-0.3c0.5,0,1,0.2,1.3,0.5c0.3,0.3,0.5,0.7,0.5,1.2c0,0.2,0,0.5-0.1,0.7l-3.1,8c-0.7,1.8-1.4,3-2,3.6
				c-0.6,0.6-1.3,1-2.2,1c-0.4,0-0.9-0.1-1.4-0.3c-0.6-0.2-0.8-0.7-0.8-1.3c0-0.2,0-0.4,0.1-0.6c0.1-0.4,0.3-0.6,0.6-0.8
				c0.3-0.1,0.7-0.2,1.2-0.2c0.4,0,0.8-0.3,1-0.9l0.2-0.6l-3.5-7.9c-0.1-0.2-0.2-0.5-0.2-0.8c0-0.5,0.2-0.9,0.6-1.3s0.8-0.5,1.4-0.5
				C111.1,98.2,111.7,98.6,112,99.4z"/>
			<path class="st5" d="M128,109.3v-0.7h-6.3v0.7c0,0.4-0.2,0.8-0.5,1.1c-0.3,0.3-0.7,0.5-1.1,0.5s-0.8-0.2-1.1-0.5
				c-0.3-0.3-0.5-0.7-0.5-1.1v-2.6c0-0.4,0.1-0.7,0.4-0.9c0.3-0.3,0.6-0.4,0.9-0.4c0.8-1,1.2-2.6,1.3-4.9l0-0.6
				c0-0.4,0.2-0.8,0.5-1.1c0.3-0.3,0.7-0.5,1.2-0.5h5c0.4,0,0.8,0.2,1.1,0.5c0.3,0.3,0.5,0.7,0.5,1.1v5.5c0.5,0,0.9,0.2,1.2,0.5
				s0.5,0.7,0.5,1.1v2.3c0,0.4-0.2,0.8-0.5,1.1c-0.3,0.3-0.7,0.5-1.1,0.5s-0.8-0.2-1.1-0.5C128.2,110.1,128,109.8,128,109.3z
				 M123.4,105.4h2.6v-3.9h-1.5l0,0.4C124.3,103.5,123.9,104.6,123.4,105.4z"/>
			<path class="st5" d="M137.8,98c1.4,0,2.5,0.5,3.5,1.4c1,0.9,1.5,2.1,1.5,3.5v0.5c0,0.4-0.1,0.7-0.4,0.9c-0.3,0.2-0.6,0.3-0.9,0.3
				h-5.7c0.3,1,1.1,1.4,2.4,1.4c0.5,0,0.9-0.1,1.4-0.2c0.2,0,0.3-0.1,0.5-0.1c0.6,0,1,0.3,1.2,0.8c0.1,0.1,0.1,0.3,0.1,0.5
				c0,0.6-0.3,1.1-0.9,1.4c-0.6,0.3-1.5,0.5-2.6,0.5c-1.7,0-3-0.5-4.1-1.5c-1-1-1.5-2.3-1.5-4c0-1.5,0.5-2.8,1.6-3.9
				C134.8,98.5,136.1,98,137.8,98z M135.6,102.3h3.7c0-0.4-0.2-0.7-0.5-1s-0.7-0.4-1.2-0.4C136.6,100.9,136,101.4,135.6,102.3z"/>
			<path class="st5" d="M151.3,101.9v-2.1c0-0.4,0.2-0.8,0.5-1.1c0.3-0.3,0.7-0.5,1.2-0.5s0.9,0.2,1.2,0.5s0.5,0.7,0.5,1.1v7.5
				c0,0.4-0.2,0.8-0.5,1.1c-0.3,0.3-0.7,0.5-1.2,0.5s-0.9-0.2-1.2-0.5c-0.3-0.3-0.5-0.7-0.5-1.1v-2.2H148v2.2c0,0.4-0.2,0.8-0.5,1.1
				c-0.3,0.3-0.7,0.5-1.2,0.5c-0.5,0-0.9-0.2-1.2-0.5c-0.3-0.3-0.5-0.7-0.5-1.1v-7.5c0-0.4,0.2-0.8,0.5-1.1s0.7-0.5,1.2-0.5
				c0.5,0,0.9,0.2,1.2,0.5c0.3,0.3,0.5,0.7,0.5,1.1v2.1H151.3z"/>
			<path class="st5" d="M168.9,107v2.3c0,0.4-0.2,0.8-0.5,1.1c-0.3,0.3-0.7,0.5-1.1,0.5s-0.8-0.2-1.1-0.5c-0.3-0.3-0.5-0.7-0.5-1.1
				v-0.7h-6.8c-0.4,0-0.8-0.2-1.1-0.5c-0.3-0.3-0.5-0.7-0.5-1.1v-7.2c0-0.4,0.2-0.8,0.5-1.1s0.7-0.5,1.2-0.5c0.5,0,0.9,0.2,1.2,0.5
				c0.3,0.3,0.5,0.7,0.5,1.1v5.6h3v-5.6c0-0.4,0.2-0.8,0.5-1.1c0.3-0.3,0.7-0.5,1.2-0.5c0.5,0,0.9,0.2,1.3,0.5
				c0.3,0.3,0.5,0.7,0.5,1.1v5.6c0.5,0,0.9,0.2,1.2,0.5S168.9,106.6,168.9,107z"/>
			<path class="st5" d="M181,99.9v7.4c0,0.4-0.2,0.8-0.5,1.1c-0.3,0.3-0.7,0.5-1.2,0.5c-0.5,0-0.9-0.2-1.2-0.5
				c-0.3-0.3-0.5-0.7-0.5-1.1v-4l-3,4.3c-0.6,0.9-1.3,1.3-2.3,1.3c-0.6,0-1-0.2-1.4-0.5c-0.3-0.3-0.5-0.8-0.5-1.3v-7.2
				c0-0.4,0.2-0.8,0.5-1.1c0.3-0.3,0.7-0.5,1.2-0.5c0.5,0,0.9,0.2,1.2,0.5c0.3,0.3,0.5,0.7,0.5,1.1v3.9l2.8-4.1
				c0.3-0.5,0.7-0.9,1-1.1s0.8-0.3,1.3-0.3c0.6,0,1,0.2,1.4,0.5C180.8,99,181,99.4,181,99.9z"/>
			<path class="st5" d="M188,106l-1.2,1.9c-0.4,0.7-0.9,1-1.6,1c-0.5,0-0.8-0.1-1.1-0.4c-0.3-0.3-0.4-0.6-0.4-1s0.1-0.8,0.4-1.2
				l0.7-1c-1.1-0.6-1.7-1.6-1.7-3.1c0-1.2,0.5-2.1,1.4-2.8c0.9-0.7,2.3-1,4.1-1h2c0.4,0,0.8,0.2,1.1,0.5c0.3,0.3,0.5,0.7,0.5,1.1
				v7.4c0,0.4-0.2,0.8-0.5,1.1c-0.3,0.3-0.7,0.5-1.2,0.5c-0.5,0-0.9-0.2-1.2-0.5c-0.3-0.3-0.5-0.7-0.5-1.1V106H188z M188.3,103.5
				h0.6v-2.2h-0.7c-0.4,0-0.7,0.1-0.9,0.4c-0.2,0.2-0.4,0.5-0.4,0.8c0,0.3,0.1,0.5,0.4,0.7S187.9,103.5,188.3,103.5z"/>
		</g>
	</g>
</g>
</svg>
