<?xml version="1.0" encoding="utf-8"?>
<!-- Generator: Adobe Illustrator 22.1.0, SVG Export Plug-In . SVG Version: 6.00 Build 0)  -->
<svg version="1.1" id="Слой_1" xmlns="http://www.w3.org/2000/svg" xmlns:xlink="http://www.w3.org/1999/xlink" x="0px" y="0px"
	 viewBox="0 0 167.9 166" style="enable-background:new 0 0 167.9 166;" xml:space="preserve">
<style type="text/css">
	.st0{fill:#FFDF57;}
	.st1{fill:#E9CA25;}
	.st2{fill:none;}
	.st3{enable-background:new    ;}
	.st4{fill:#252835;}
	.st5{fill:#F9E698;}
</style>
<g id="Sky">
</g>
<g id="Clouds">
</g>
<g id="Button">
</g>
<g id="B_1">
</g>
<g id="B2">
</g>
<g id="B3">
</g>
<g id="B4">
</g>
<g id="B5">
</g>
<g id="B6">
</g>
<g id="B7">
</g>
<g id="B8">
</g>
<g id="B9">
</g>
<g id="B10">
</g>
<g id="B11">
</g>
<g id="B12">
</g>
<g id="B13">
</g>
<g id="B14">
</g>
<g id="B15">
</g>
<g id="Head">
</g>
<g id="B16">
</g>
<g id="B17">
</g>
<g id="B18">
</g>
<g id="B19">
</g>
<g id="B20">
</g>
<g id="B21">
</g>
<g id="B22">
	<path class="st0" d="M140.6,134.5c-30,25.1-95,38.4-120.2,8.4S19.6,51.2,49.5,26s74.6-21.2,99.7,8.7S170.5,109.4,140.6,134.5z"/>
	<polygon class="st1" points="24,139.9 4.9,142.5 18.1,158.3 	"/>
	<path class="st1" d="M140.6,134.5c27.3-22.9,32.9-62,14.7-91.4l0,0c0,0,34,102.8-113,113.8C72.8,166.4,117.3,154,140.6,134.5z"/>
	<g>
		<polygon class="st2" points="164.9,102.4 18.5,102.4 21.5,73.5 167.9,73.5 		"/>
		<g class="st3">
			<path class="st4" d="M32,75.3h-6.3v4.6c0.8-0.1,1.6-0.1,2.5-0.1c1.8,0,3.2,0.4,4.2,1.3c1,0.8,1.5,2,1.5,3.5
				c0,1.6-0.5,2.9-1.6,3.8c-1.1,0.9-2.6,1.3-4.6,1.3c-0.4,0-1.3,0-2.9-0.1c-0.3,0-0.5-0.1-0.7-0.3c-0.2-0.2-0.3-0.4-0.3-0.7V74.4
				c0-0.3,0.1-0.5,0.3-0.7c0.2-0.2,0.4-0.3,0.7-0.3H32c0.2,0,0.5,0.1,0.6,0.3c0.2,0.2,0.3,0.4,0.3,0.6s-0.1,0.5-0.3,0.6
				C32.4,75.2,32.2,75.3,32,75.3z M25.7,81.8v6c0.8,0.1,1.6,0.1,2.2,0.1c1.3,0,2.3-0.3,2.9-0.8c0.7-0.5,1-1.3,1-2.3
				c0-1-0.3-1.7-1-2.2c-0.7-0.5-1.6-0.8-2.8-0.8C27.4,81.6,26.6,81.7,25.7,81.8z"/>
			<path class="st4" d="M46.5,83.7c0,0.3,0,0.4,0,0.5c0,0.2-0.1,0.4-0.3,0.5c-0.2,0.2-0.3,0.2-0.5,0.2h-7.3c0.1,1,0.4,1.7,1.1,2.3
				s1.5,0.8,2.5,0.8c1,0,1.8-0.2,2.5-0.6c0.2-0.1,0.3-0.1,0.5-0.1c0.2,0,0.4,0.1,0.6,0.3c0.1,0.1,0.1,0.2,0.1,0.4
				c0,0.3-0.1,0.5-0.3,0.6c-1.1,0.8-2.3,1.2-3.7,1.2c-1.7,0-3-0.5-4-1.5c-1-1-1.5-2.3-1.5-3.9c0-1.5,0.5-2.8,1.4-3.9
				c1-1,2.3-1.5,3.9-1.5c1.4,0,2.5,0.4,3.4,1.3C46.1,81.2,46.5,82.4,46.5,83.7z M38.4,83.5h6.3c0-0.9-0.3-1.5-0.9-2
				c-0.5-0.5-1.2-0.7-2.1-0.7c-0.9,0-1.7,0.3-2.2,0.8S38.5,82.7,38.4,83.5z"/>
			<path class="st4" d="M52.4,79c1.2,0,2.2,0.2,2.9,0.7c0.7,0.5,1,1.2,1,2c0,1.2-0.6,2-1.8,2.5c0.7,0.1,1.2,0.4,1.6,0.8
				c0.4,0.5,0.6,1,0.6,1.6c0,1-0.4,1.7-1.2,2.3c-0.8,0.6-1.9,0.8-3.2,0.8c-1.4,0-2.6-0.3-3.6-0.9c-0.3-0.2-0.4-0.4-0.4-0.7
				c0-0.2,0.1-0.3,0.2-0.5c0.2-0.2,0.4-0.4,0.7-0.4c0.2,0,0.3,0,0.5,0.1c0.8,0.5,1.6,0.7,2.3,0.7c0.8,0,1.4-0.2,2-0.5
				s0.8-0.7,0.8-1.2c0-0.4-0.2-0.8-0.5-1c-0.4-0.2-0.9-0.3-1.5-0.3h-1c-0.2,0-0.4-0.1-0.6-0.2c-0.2-0.1-0.2-0.3-0.2-0.5
				c0-0.2,0.1-0.4,0.2-0.5c0.2-0.1,0.3-0.2,0.6-0.2h0.9c0.5,0,1-0.1,1.3-0.4c0.3-0.3,0.5-0.6,0.5-1c0-0.5-0.2-0.8-0.6-1.1
				s-0.9-0.4-1.6-0.4c-0.8,0-1.6,0.2-2.4,0.6c-0.1,0.1-0.3,0.1-0.4,0.1c-0.3,0-0.5-0.1-0.7-0.4c-0.1-0.1-0.1-0.2-0.1-0.4
				c0-0.3,0.2-0.5,0.5-0.7C50,79.3,51.1,79,52.4,79z"/>
			<path class="st4" d="M60.3,88.3c-1-1-1.5-2.3-1.5-3.9c0-1.6,0.5-2.9,1.5-3.9c1-1,2.3-1.5,4-1.5c1.6,0,3,0.5,4,1.5
				c1,1,1.5,2.3,1.5,3.9c0,1.6-0.5,2.9-1.5,3.9c-1,1-2.4,1.5-4,1.5S61.3,89.3,60.3,88.3z M60.7,84.4c0,1.1,0.3,2,1,2.6
				c0.7,0.7,1.5,1,2.6,1c1,0,1.9-0.3,2.6-1c0.7-0.7,1-1.6,1-2.7c0-1.1-0.3-2-1-2.6c-0.7-0.7-1.5-1-2.6-1c-1,0-1.9,0.3-2.6,1
				C61.1,82.4,60.7,83.3,60.7,84.4z"/>
			<path class="st4" d="M81.8,80.1v8.8c0,0.4-0.1,0.6-0.4,0.7c-0.3,0.1-0.6,0.1-1,0c-0.3-0.1-0.5-0.4-0.4-0.7V81h-5.6v7.9
				c0,0.4-0.1,0.6-0.4,0.7c-0.3,0.1-0.6,0.1-1,0c-0.3-0.1-0.5-0.4-0.4-0.7v-8.8c0-0.2,0.1-0.5,0.3-0.6c0.2-0.2,0.4-0.3,0.6-0.3h7.6
				c0.2,0,0.5,0.1,0.6,0.3S81.8,79.9,81.8,80.1z"/>
			<path class="st4" d="M84.3,86.5c0-1,0.4-1.8,1.1-2.4c0.7-0.6,1.7-0.9,2.8-0.9c1.1,0,1.9,0.2,2.6,0.7c0-1.2-0.2-2-0.5-2.5
				s-0.9-0.8-1.9-0.8c-0.7,0-1.4,0.1-2.1,0.4c-0.1,0-0.2,0.1-0.3,0.1c-0.3,0-0.6-0.2-0.7-0.5c0-0.1-0.1-0.2-0.1-0.3
				c0-0.4,0.2-0.6,0.5-0.7c1-0.4,1.9-0.6,2.9-0.6c1.4,0,2.4,0.3,3,1c0.6,0.7,0.9,1.8,0.9,3.2v5.7c0,0.2-0.1,0.4-0.3,0.6
				c-0.2,0.2-0.4,0.2-0.6,0.2s-0.5-0.1-0.6-0.2c-0.2-0.2-0.3-0.3-0.3-0.6v-0.7c-0.8,1-1.9,1.5-3.3,1.5c-1,0-1.7-0.3-2.3-0.9
				C84.6,88.3,84.3,87.5,84.3,86.5z M90.8,86.8v-1.3c-0.6-0.5-1.4-0.7-2.3-0.7c-0.6,0-1.2,0.1-1.6,0.4c-0.4,0.3-0.6,0.7-0.6,1.3
				c0,0.5,0.2,0.9,0.5,1.2s0.8,0.4,1.4,0.4C89.2,88.1,90.1,87.6,90.8,86.8z"/>
			<path class="st4" d="M102.7,81.3c-0.8-0.4-1.5-0.6-2.3-0.6c-1,0-1.8,0.3-2.5,1c-0.7,0.7-1.1,1.6-1.1,2.6c0,1.1,0.4,2,1.1,2.7
				s1.6,1,2.6,1c0.9,0,1.6-0.2,2.2-0.7c0.2-0.2,0.5-0.3,0.7-0.3c0.2,0,0.4,0.1,0.5,0.2c0.2,0.2,0.3,0.4,0.3,0.6
				c0,0.3-0.1,0.5-0.3,0.6c-1,0.9-2.2,1.3-3.6,1.3c-1.6,0-3-0.5-4-1.5c-1-1-1.5-2.3-1.5-3.9c0-1.5,0.5-2.8,1.5-3.8s2.2-1.6,3.7-1.6
				c1.3,0,2.4,0.3,3.4,0.8c0.3,0.2,0.5,0.4,0.5,0.8c0,0.2,0,0.3-0.1,0.4c-0.2,0.3-0.4,0.4-0.8,0.4C103,81.4,102.8,81.4,102.7,81.3z"
				/>
			<path class="st4" d="M116.1,80v8.9c0,0.4-0.1,0.6-0.4,0.7s-0.6,0.1-1,0c-0.3-0.1-0.5-0.4-0.4-0.7v-3.7h-5.8v3.7
				c0,0.4-0.1,0.6-0.4,0.7c-0.3,0.1-0.6,0.1-1,0c-0.3-0.1-0.5-0.4-0.4-0.7V80c0-0.4,0.1-0.6,0.4-0.7c0.3-0.1,0.6-0.1,1,0
				c0.3,0.1,0.5,0.4,0.4,0.7v3.5h5.8V80c0-0.4,0.1-0.6,0.4-0.7c0.3-0.1,0.6-0.1,1,0C115.9,79.4,116.1,79.6,116.1,80z"/>
			<path class="st4" d="M120.2,88.3c-1-1-1.5-2.3-1.5-3.9c0-1.6,0.5-2.9,1.5-3.9c1-1,2.3-1.5,4-1.5c1.6,0,3,0.5,4,1.5
				c1,1,1.5,2.3,1.5,3.9c0,1.6-0.5,2.9-1.5,3.9c-1,1-2.4,1.5-4,1.5S121.2,89.3,120.2,88.3z M120.6,84.4c0,1.1,0.3,2,1,2.6
				c0.7,0.7,1.5,1,2.6,1s1.9-0.3,2.6-1c0.7-0.7,1-1.6,1-2.7c0-1.1-0.3-2-1-2.6c-0.7-0.7-1.5-1-2.6-1c-1,0-1.9,0.3-2.6,1
				C121,82.4,120.6,83.3,120.6,84.4z"/>
			<path class="st4" d="M139.4,81.3c-0.8-0.4-1.5-0.6-2.3-0.6c-1,0-1.8,0.3-2.5,1c-0.7,0.7-1.1,1.6-1.1,2.6c0,1.1,0.4,2,1.1,2.7
				s1.6,1,2.6,1c0.9,0,1.6-0.2,2.2-0.7c0.2-0.2,0.5-0.3,0.7-0.3c0.2,0,0.4,0.1,0.5,0.2c0.2,0.2,0.3,0.4,0.3,0.6
				c0,0.3-0.1,0.5-0.3,0.6c-1,0.9-2.2,1.3-3.6,1.3c-1.6,0-3-0.5-4-1.5c-1-1-1.5-2.3-1.5-3.9c0-1.5,0.5-2.8,1.5-3.8s2.2-1.6,3.7-1.6
				c1.3,0,2.4,0.3,3.4,0.8c0.3,0.2,0.5,0.4,0.5,0.8c0,0.2,0,0.3-0.1,0.4c-0.2,0.3-0.4,0.4-0.8,0.4C139.7,81.4,139.5,81.4,139.4,81.3
				z"/>
			<path class="st4" d="M147.5,81.1v7.8c0,0.4-0.1,0.6-0.4,0.7s-0.6,0.1-1,0c-0.3-0.1-0.5-0.4-0.4-0.7v-7.8h-2.9
				c-0.4,0-0.6-0.1-0.7-0.4c-0.1-0.3-0.1-0.6,0-1c0.1-0.3,0.4-0.5,0.7-0.4h7.7c0.4,0,0.6,0.1,0.7,0.4c0.1,0.3,0.1,0.6,0,1
				c-0.1,0.3-0.4,0.5-0.7,0.4H147.5z"/>
			<path class="st4" d="M155.1,80v2.3h1.9c1.4,0,2.4,0.3,3.1,1c0.7,0.6,1,1.5,1,2.6c0,1.1-0.4,2-1.1,2.7s-1.8,1-3.2,1h-2.6
				c-0.2,0-0.5-0.1-0.6-0.3c-0.2-0.2-0.3-0.4-0.3-0.6V80c0-0.4,0.1-0.6,0.4-0.7c0.3-0.1,0.6-0.1,1,0C155,79.4,155.2,79.6,155.1,80z
				 M155.1,84.1v3.8h1.5c1.7,0,2.5-0.6,2.5-1.9c0-1.3-0.8-1.9-2.5-1.9H155.1z"/>
		</g>
	</g>
	<path class="st5" d="M66.6,42.3c-16.6,12-25.7,27.8-30,21.8c-4.3-6,5.6-20.6,22.2-32.6s33.6-16.9,37.9-11
		C101,26.5,83.2,30.3,66.6,42.3z"/>
</g>
<g id="B23">
</g>
<g id="B24">
</g>
<g id="B25">
</g>
<g id="B26">
</g>
<g id="B27">
</g>
<g id="B28">
</g>
<g id="B29">
</g>
<g id="B30">
</g>
<g id="B31">
</g>
<g id="B32">
</g>
<g id="B33">
</g>
</svg>
