<?xml version="1.0" encoding="utf-8"?>
<!-- Generator: Adobe Illustrator 17.1.0, SVG Export Plug-In . SVG Version: 6.00 Build 0)  -->
<!DOCTYPE svg PUBLIC "-//W3C//DTD SVG 1.1//EN" "http://www.w3.org/Graphics/SVG/1.1/DTD/svg11.dtd">
<svg version="1.1" xmlns="http://www.w3.org/2000/svg" xmlns:xlink="http://www.w3.org/1999/xlink" x="0px" y="0px"
	 viewBox="0 0 264 195" enable-background="new 0 0 264 195" xml:space="preserve">
<g id="Sky">
</g>
<g id="Clouds">
</g>
<g id="Button">
</g>
<g id="B_1">
</g>
<g id="B2">
</g>
<g id="B3">
</g>
<g id="B4">
</g>
<g id="B5">
</g>
<g id="B6">
</g>
<g id="B7">
</g>
<g id="B8">
</g>
<g id="B9">
	<polygon fill="#9AD17D" points="75.4,168.2 56,175.6 73.6,188.9 	"/>
	<path fill="#96CD7C" d="M196.5,127.9c-25.2,33.5-90.1,63.1-123.6,37.9S49.9,70,75.1,36.4s72.9-40.2,106.4-15
		S221.8,94.3,196.5,127.9z"/>
	<path fill="#84CB66" d="M195.9,129.6c23.8-30,21.3-72.4-4.3-99.4l0,0c0,0,58,100.8-94.3,144.2C131.4,177.9,175.6,155.2,195.9,129.6
		z"/>
	<path fill="#ABD796" d="M101.4,44.9C87.6,56.6,81.3,72.1,76.3,66.1c-5-6,2.1-20.3,16-32s29.2-16.3,34.3-10.3S115.3,33.3,101.4,44.9
		z"/>
	<g>
		<rect x="60.4" y="88.9" fill="none" width="150.6" height="30.9"/>
		<text transform="matrix(1 0 0 1 60.3979 105.0331)" fill="#252835" font-family="'CirceRounded-Regular'" font-size="23">Журналистика</text>
	</g>
</g>
<g id="B10">
</g>
<g id="B11">
</g>
<g id="B12">
</g>
<g id="B13">
</g>
<g id="B14">
</g>
<g id="B15">
</g>
<g id="Head">
</g>
<g id="B16">
</g>
<g id="B17">
</g>
<g id="B18">
</g>
<g id="B19">
</g>
<g id="B20">
</g>
<g id="B21">
</g>
<g id="B22">
</g>
<g id="B23">
</g>
<g id="B24">
</g>
<g id="B25">
</g>
<g id="B26">
</g>
<g id="B27">
</g>
<g id="B28">
</g>
<g id="B29">
</g>
<g id="B30">
</g>
<g id="B31">
</g>
<g id="B32">
</g>
<g id="B33">
</g>
</svg>
