<?xml version="1.0" encoding="utf-8"?>
<!-- Generator: Adobe Illustrator 17.1.0, SVG Export Plug-In . SVG Version: 6.00 Build 0)  -->
<!DOCTYPE svg PUBLIC "-//W3C//DTD SVG 1.1//EN" "http://www.w3.org/Graphics/SVG/1.1/DTD/svg11.dtd">
<svg version="1.1" xmlns="http://www.w3.org/2000/svg" xmlns:xlink="http://www.w3.org/1999/xlink" x="0px" y="0px"
	 viewBox="0 0 291 190.5" enable-background="new 0 0 291 190.5" xml:space="preserve">
<g id="Sky">
</g>
<g id="Clouds">
</g>
<g id="Button">
</g>
<g id="B_1">
</g>
<g id="B2">
</g>
<g id="B3">
</g>
<g id="B4">
</g>
<g id="B5">
</g>
<g id="B6">
</g>
<g id="B7">
</g>
<g id="B8">
</g>
<g id="B9">
	<g>
		<rect x="-3.9" y="54" fill="none" width="150.6" height="30.9"/>
		<text transform="matrix(1 0 0 1 -3.8934 70.0952)" fill="#252835" font-family="'CirceRounded-Regular'" font-size="23">Журналистика</text>
	</g>
</g>
<g id="B10">
</g>
<g id="B11">
</g>
<g id="B12">
</g>
<g id="B13">
</g>
<g id="B14">
</g>
<g id="B15">
</g>
<g id="Head">
</g>
<g id="B16">
</g>
<g id="B17">
</g>
<g id="B18">
</g>
<g id="B19">
</g>
<g id="B20">
</g>
<g id="B21">
	<path fill="#96CD7C" d="M190.1,133.1c-23.9,20.1-76,30.7-96.1,6.7s-0.6-73.3,23.3-93.4s59.6-17,79.7,7S214.1,113,190.1,133.1z"/>
	<polygon fill="#9AD17D" points="97,137.4 81.7,139.6 92.2,152.1 	"/>
	<path fill="#84CB66" d="M190.1,133.1c21.8-18.3,26.3-49.5,11.8-73.1l0,0c0,0,27.2,82.1-90.3,90.9
		C135.9,158.6,171.5,148.8,190.1,133.1z"/>
	<g>
		<rect x="95.5" y="88.6" fill="none" width="106.9" height="30.9"/>
		<text transform="matrix(1 0 0 1 95.4755 104.6577)" fill="#252835" font-family="'CirceRounded-Regular'" font-size="23">Политика</text>
	</g>
	<path fill="#ABD796" d="M135.8,58.1c-14.8,8.4-23.2,21.7-26.8,15.2c-3.7-6.4,5.4-18.5,20.2-26.9s29.8-10,33.4-3.6
		S150.6,49.7,135.8,58.1z"/>
</g>
<g id="B22">
</g>
<g id="B23">
</g>
<g id="B24">
</g>
<g id="B25">
</g>
<g id="B26">
</g>
<g id="B27">
</g>
<g id="B28">
</g>
<g id="B29">
</g>
<g id="B30">
</g>
<g id="B31">
</g>
<g id="B32">
</g>
<g id="B33">
</g>
</svg>
