<?xml version="1.0" encoding="utf-8"?>
<!-- Generator: Adobe Illustrator 22.1.0, SVG Export Plug-In . SVG Version: 6.00 Build 0)  -->
<svg version="1.1" id="Слой_1" xmlns="http://www.w3.org/2000/svg" xmlns:xlink="http://www.w3.org/1999/xlink" x="0px" y="0px"
	 viewBox="0 0 118.9 117" style="enable-background:new 0 0 118.9 117;" xml:space="preserve">
<style type="text/css">
	.st0{fill:#75AEB9;}
	.st1{fill:#4E9DA3;}
	.st2{fill:#91BEC7;}
	.st3{fill:none;}
	.st4{enable-background:new    ;}
	.st5{fill:#252835;}
</style>
<g id="Sky">
</g>
<g id="Clouds">
</g>
<g id="Button">
</g>
<g id="B_1">
</g>
<g id="B2">
</g>
<g id="B3">
</g>
<g id="B4">
</g>
<g id="B5">
</g>
<g id="B6">
</g>
<g id="B7">
</g>
<g id="B8">
</g>
<g id="B9">
</g>
<g id="B10">
</g>
<g id="B11">
</g>
<g id="B12">
</g>
<g id="B13">
</g>
<g id="B14">
</g>
<g id="B15">
</g>
<g id="Head">
</g>
<g id="B16">
</g>
<g id="B17">
</g>
<g id="B18">
</g>
<g id="B19">
</g>
<g id="B20">
</g>
<g id="B21">
</g>
<g id="B22">
</g>
<g id="B23">
</g>
<g id="B24">
</g>
<g id="B25">
	<path class="st0" d="M95.9,94.7c-21.2,17.8-67.2,27.1-84.9,6s-0.6-64.8,20.6-82.6s52.7-15,70.5,6.2S117.1,77,95.9,94.7z"/>
	<polygon class="st1" points="13.6,98.5 0,100.4 9.4,111.5 	"/>
	<path class="st1" d="M95.9,94.7c19.3-16.2,23.3-43.8,10.4-64.6l0,0c0,0,24,72.6-79.9,80.4C48,117.3,79.5,108.5,95.9,94.7z"/>
	<path class="st2" d="M45.5,26.3C33.1,33.3,25.8,44,23,39.1c-2.8-5,5-14.7,17.4-21.8S65.2,8.6,68,13.5
		C70.8,18.5,57.9,19.2,45.5,26.3z"/>
	<g>
		<rect x="10.8" y="54" class="st3" width="98" height="30.9"/>
		<g class="st4">
			<path class="st5" d="M11.4,68.4c0-0.2,0-0.3,0.1-0.5c0.2-0.3,0.4-0.4,0.7-0.4c0.2,0,0.4,0,0.5,0.1c1.2,0.6,2.5,0.9,3.8,0.9
				c1.7,0,3.2-0.5,4.3-1.5c1.2-1,1.8-2.4,2-4.1h-7.1c-0.2,0-0.5-0.1-0.6-0.3c-0.2-0.2-0.3-0.4-0.3-0.6s0.1-0.5,0.3-0.6
				c0.2-0.2,0.4-0.3,0.6-0.3h7.1c-0.2-1.7-0.9-3-2-3.9c-1.2-1-2.7-1.4-4.5-1.4c-0.9,0-2,0.3-3.3,0.9c-0.1,0.1-0.2,0.1-0.4,0.1
				c-0.3,0-0.6-0.1-0.8-0.4c-0.1-0.1-0.1-0.3-0.1-0.4c0-0.4,0.1-0.6,0.4-0.8c1.5-0.8,3-1.2,4.6-1.2c2.4,0,4.3,0.8,5.8,2.3
				c1.5,1.5,2.2,3.5,2.2,6c0,2.5-0.8,4.5-2.3,6c-1.5,1.5-3.5,2.3-6,2.3c-1.8,0-3.4-0.4-4.8-1.1C11.6,69.1,11.4,68.8,11.4,68.4z"/>
			<path class="st5" d="M29.5,60.5v8.9c0,0.4-0.1,0.6-0.4,0.7c-0.3,0.1-0.6,0.1-1,0c-0.3-0.1-0.5-0.4-0.4-0.7v-8.9
				c0-0.4,0.1-0.6,0.4-0.7c0.3-0.1,0.6-0.1,1,0C29.4,59.9,29.6,60.2,29.5,60.5z M34.4,69.8l-3.8-4.3c-0.2-0.2-0.2-0.4-0.2-0.7
				c0-0.3,0.1-0.5,0.2-0.6l3.5-4c0.3-0.3,0.5-0.5,0.9-0.5c0.3,0,0.5,0.1,0.7,0.3c0.2,0.2,0.2,0.4,0.2,0.6c0,0.2-0.1,0.4-0.2,0.6
				l-3.3,3.6l3.7,4c0.2,0.2,0.3,0.4,0.3,0.7c0,0.2-0.1,0.5-0.3,0.6c-0.2,0.2-0.4,0.3-0.7,0.3C34.9,70.3,34.6,70.1,34.4,69.8z"/>
			<path class="st5" d="M39.1,68.8c-1-1-1.5-2.3-1.5-3.9c0-1.6,0.5-2.9,1.5-3.9c1-1,2.3-1.5,4-1.5c1.6,0,3,0.5,4,1.5
				c1,1,1.5,2.3,1.5,3.9c0,1.6-0.5,2.9-1.5,3.9c-1,1-2.4,1.5-4,1.5S40.1,69.8,39.1,68.8z M39.5,64.9c0,1.1,0.3,2,1,2.6
				c0.7,0.7,1.5,1,2.6,1c1,0,1.9-0.3,2.6-1c0.7-0.7,1-1.6,1-2.7c0-1.1-0.3-2-1-2.6c-0.7-0.7-1.5-1-2.6-1c-1,0-1.9,0.3-2.6,1
				C39.8,63,39.5,63.9,39.5,64.9z"/>
			<path class="st5" d="M59.6,60.6v8.8c0,0.4-0.1,0.6-0.4,0.7c-0.3,0.1-0.6,0.1-1,0s-0.5-0.4-0.4-0.7v-7.8h-3.6L54,63.4
				c-0.1,2.3-0.5,4-1.2,5.2c-0.6,1.2-1.4,1.7-2.3,1.7c-0.3,0-0.5-0.1-0.7-0.2c-0.2-0.2-0.3-0.4-0.3-0.6c0-0.4,0.2-0.7,0.7-0.9
				c0.5-0.2,1-0.7,1.2-1.5c0.3-0.8,0.5-2.1,0.6-4l0.1-2.3c0-0.2,0.1-0.5,0.3-0.6c0.2-0.2,0.4-0.3,0.6-0.3h5.5c0.2,0,0.5,0.1,0.6,0.3
				C59.5,60.2,59.6,60.4,59.6,60.6z"/>
			<path class="st5" d="M63.7,68.8c-1-1-1.5-2.3-1.5-3.9c0-1.6,0.5-2.9,1.5-3.9c1-1,2.3-1.5,4-1.5c1.6,0,3,0.5,4,1.5
				c1,1,1.5,2.3,1.5,3.9c0,1.6-0.5,2.9-1.5,3.9c-1,1-2.4,1.5-4,1.5S64.7,69.8,63.7,68.8z M64.1,64.9c0,1.1,0.3,2,1,2.6
				c0.7,0.7,1.5,1,2.6,1c1,0,1.9-0.3,2.6-1c0.7-0.7,1-1.6,1-2.7c0-1.1-0.3-2-1-2.6c-0.7-0.7-1.5-1-2.6-1c-1,0-1.9,0.3-2.6,1
				C64.5,63,64.1,63.9,64.1,64.9z"/>
			<path class="st5" d="M81.5,61.5h-3.8v7.9c0,0.4-0.1,0.6-0.4,0.7s-0.6,0.1-1,0s-0.5-0.4-0.4-0.7v-8.8c0-0.2,0.1-0.5,0.3-0.6
				c0.2-0.2,0.4-0.3,0.6-0.3h4.8c0.2,0,0.5,0.1,0.6,0.3c0.2,0.2,0.3,0.4,0.3,0.6c0,0.2-0.1,0.5-0.3,0.6C82,61.4,81.8,61.5,81.5,61.5
				z"/>
			<path class="st5" d="M93.8,60.6v8.8c0,0.4-0.1,0.6-0.4,0.7c-0.3,0.1-0.6,0.1-1,0S92,69.8,92,69.4v-6.8l-5.6,6.9
				c-0.5,0.6-0.9,0.8-1.3,0.8c-0.3,0-0.5-0.1-0.7-0.3c-0.2-0.2-0.3-0.4-0.3-0.6v-8.8c0-0.4,0.1-0.6,0.4-0.7c0.3-0.1,0.6-0.1,1,0
				c0.3,0.1,0.5,0.4,0.4,0.7v6.9l5.6-6.9c0.5-0.6,0.9-0.9,1.3-0.9c0.3,0,0.5,0.1,0.7,0.3C93.7,60.1,93.8,60.3,93.8,60.6z"/>
			<path class="st5" d="M96.9,68.8l2-2.6c-0.6-0.1-1.2-0.5-1.6-1c-0.4-0.5-0.6-1.2-0.6-2c0-1.1,0.4-1.9,1.1-2.5
				c0.8-0.6,1.9-0.9,3.5-0.9h2.3c0.2,0,0.5,0.1,0.6,0.3c0.2,0.2,0.3,0.4,0.3,0.6v8.8c0,0.4-0.1,0.6-0.4,0.7c-0.3,0.1-0.6,0.1-1,0
				c-0.3-0.1-0.5-0.4-0.4-0.7v-2.7h-2l-2.3,3.1c-0.2,0.3-0.5,0.5-0.8,0.5c-0.3,0-0.5-0.1-0.7-0.2c-0.2-0.2-0.3-0.3-0.3-0.6
				C96.6,69.3,96.7,69.1,96.9,68.8z M100.5,64.9h2.1v-3.5h-1.7c-0.8,0-1.4,0.2-1.8,0.5c-0.4,0.3-0.6,0.8-0.6,1.3
				c0,0.5,0.2,0.9,0.6,1.2C99.5,64.8,100,64.9,100.5,64.9z"/>
		</g>
	</g>
</g>
<g id="B26">
</g>
<g id="B27">
</g>
<g id="B28">
</g>
<g id="B29">
</g>
<g id="B30">
</g>
<g id="B31">
</g>
<g id="B32">
</g>
<g id="B33">
</g>
</svg>
