<?xml version="1.0" encoding="utf-8"?>
<!-- Generator: Adobe Illustrator 17.1.0, SVG Export Plug-In . SVG Version: 6.00 Build 0)  -->
<!DOCTYPE svg PUBLIC "-//W3C//DTD SVG 1.1//EN" "http://www.w3.org/Graphics/SVG/1.1/DTD/svg11.dtd">
<svg version="1.1" xmlns="http://www.w3.org/2000/svg" xmlns:xlink="http://www.w3.org/1999/xlink" x="0px" y="0px"
	 viewBox="0 0 264 190.7" enable-background="new 0 0 264 190.7" xml:space="preserve">
<g id="Sky">
</g>
<g id="Clouds">
</g>
<g id="Button">
</g>
<g id="B_1">
</g>
<g id="B2">
</g>
<g id="B3">
</g>
<g id="B4">
</g>
<g id="B5">
</g>
<g id="B6">
</g>
<g id="B7">
</g>
<g id="B8">
	<g>
		<path fill="#75AEB9" d="M174.1,127.8c-17.2,21.7-60.3,40.1-82,22.9s-13.6-63.4,3.5-85.1s48.6-25.3,70.3-8.2
			S191.2,106.1,174.1,127.8z"/>
		<polygon fill="#4E9DA3" points="94.2,148.1 81.3,152.7 92.6,161.7 		"/>
		<g>
			<rect x="97.4" y="93.2" fill="none" width="87.7" height="30.9"/>
			<text transform="matrix(1 0 0 1 97.411 109.298)" fill="#313547" font-family="'CirceRounded-Regular'" font-size="23">Наука</text>
		</g>
		<path fill="#91BEC7" d="M116.9,69.7C103.6,77.3,96,89.2,92.7,83.4c-3.3-5.8,4.9-16.7,18.2-24.3s26.9-9,30.2-3.2
			C144.4,61.7,130.3,62.1,116.9,69.7z"/>
	</g>
	<path fill="#4E9DA3" d="M107.3,157c93.5-19,65.3-93.2,65.3-93.2s26.8,29.1,1.5,63.9S107.3,157,107.3,157z"/>
</g>
<g id="B9">
</g>
<g id="B10">
</g>
<g id="B11">
</g>
<g id="B12">
</g>
<g id="B13">
</g>
<g id="B14">
</g>
<g id="B15">
</g>
<g id="Head">
</g>
<g id="B16">
</g>
<g id="B17">
</g>
<g id="B18">
</g>
<g id="B19">
</g>
<g id="B20">
</g>
<g id="B21">
</g>
<g id="B22">
</g>
<g id="B23">
</g>
<g id="B24">
</g>
<g id="B25">
</g>
<g id="B26">
</g>
<g id="B27">
</g>
<g id="B28">
</g>
<g id="B29">
</g>
<g id="B30">
</g>
<g id="B31">
</g>
<g id="B32">
</g>
<g id="B33">
</g>
</svg>
