<?xml version="1.0" encoding="utf-8"?>
<!-- Generator: Adobe Illustrator 22.1.0, SVG Export Plug-In . SVG Version: 6.00 Build 0)  -->
<svg version="1.1" id="Слой_1" xmlns="http://www.w3.org/2000/svg" xmlns:xlink="http://www.w3.org/1999/xlink" x="0px" y="0px"
	 viewBox="0 0 117 114" style="enable-background:new 0 0 117 114;" xml:space="preserve">
<style type="text/css">
	.st0{fill:#A7A6F6;}
	.st1{fill:#A099E9;}
	.st2{fill:#BEBEFC;}
	.st3{fill:none;}
	.st4{enable-background:new    ;}
	.st5{fill:#252835;}
</style>
<g id="Sky">
</g>
<g id="Clouds">
</g>
<g id="Button">
</g>
<g id="B_1">
</g>
<g id="B2">
</g>
<g id="B3">
</g>
<g id="B4">
</g>
<g id="B5">
</g>
<g id="B6">
</g>
<g id="B7">
</g>
<g id="B8">
</g>
<g id="B9">
</g>
<g id="B10">
</g>
<g id="B11">
</g>
<g id="B12">
</g>
<g id="B13">
</g>
<g id="B14">
</g>
<g id="B15">
</g>
<g id="Head">
</g>
<g id="B16">
</g>
<g id="B17">
</g>
<g id="B18">
</g>
<g id="B19">
</g>
<g id="B20">
</g>
<g id="B21">
</g>
<g id="B22">
</g>
<g id="B23">
</g>
<g id="B24">
</g>
<g id="B25">
</g>
<g id="B26">
</g>
<g id="B27">
</g>
<g id="B28">
</g>
<g id="B29">
	<path class="st0" d="M92.1,85.6c-18.8,15.7-59.5,24-75.3,5.3s-0.5-57.5,18.3-73.2s46.7-13.3,62.5,5.5S110.8,69.8,92.1,85.6z"/>
	<polygon class="st1" points="19.1,88.9 7.1,90.6 15.4,100.4 	"/>
	<path class="st1" d="M92.1,85.6c17.1-14.3,20.6-38.8,9.2-57.2l0,0c0,0,21.3,64.4-70.8,71.2C49.6,105.5,77.5,97.8,92.1,85.6z"/>
	<path class="st2" d="M45.5,25.2C35.7,31.5,30,40.3,27.7,36.6c-2.4-3.7,3.7-11.8,13.6-18.1c9.8-6.3,19.7-8.4,22.1-4.7
		C65.7,17.5,55.3,18.9,45.5,25.2z"/>
	<g>
		<rect x="22" y="42.4" class="st3" width="79.6" height="30.9"/>
		<g class="st4">
			<path class="st5" d="M36.7,60.6v-2.1H24.2v2.1c0,0.2-0.1,0.5-0.3,0.6c-0.2,0.2-0.4,0.3-0.6,0.3c-0.2,0-0.5-0.1-0.6-0.3
				c-0.2-0.2-0.3-0.4-0.3-0.6v-3c0-0.3,0.1-0.5,0.3-0.7c0.2-0.2,0.4-0.3,0.7-0.3H24c0.5-0.6,1-1.9,1.6-3.8c0.5-1.9,0.9-4.3,1.1-7.3
				l0.1-2.3c0-0.3,0.1-0.5,0.3-0.7c0.2-0.2,0.4-0.3,0.7-0.3h7.5c0.3,0,0.5,0.1,0.7,0.3c0.2,0.2,0.3,0.4,0.3,0.7v13.3h1.2
				c0.3,0,0.5,0.1,0.7,0.3c0.2,0.2,0.3,0.4,0.3,0.7v3c0,0.2-0.1,0.5-0.3,0.6c-0.2,0.2-0.4,0.3-0.6,0.3c-0.2,0-0.5-0.1-0.6-0.3
				C36.8,61,36.7,60.8,36.7,60.6z M26.2,56.6h8.2V44.2h-5.6l-0.2,2.9c-0.2,2.4-0.5,4.5-1,6.2C27.1,55,26.6,56.1,26.2,56.6z"/>
			<path class="st5" d="M50.5,49v8.8c0,0.4-0.1,0.6-0.4,0.7c-0.3,0.1-0.6,0.1-1,0c-0.3-0.1-0.5-0.4-0.4-0.7v-6.8l-5.6,6.9
				c-0.5,0.6-0.9,0.8-1.3,0.8c-0.3,0-0.5-0.1-0.7-0.3c-0.2-0.2-0.3-0.4-0.3-0.6v-8.8c0-0.4,0.1-0.6,0.4-0.7c0.3-0.1,0.6-0.1,1,0
				c0.3,0.1,0.5,0.4,0.4,0.7v6.9l5.6-6.9c0.5-0.6,0.9-0.9,1.3-0.9c0.3,0,0.5,0.1,0.7,0.3C50.4,48.5,50.5,48.7,50.5,49z"/>
			<path class="st5" d="M57.1,47.9c1.2,0,2.2,0.2,2.9,0.7c0.7,0.5,1,1.2,1,2c0,1.2-0.6,2-1.8,2.5c0.7,0.1,1.2,0.4,1.6,0.8
				c0.4,0.5,0.6,1,0.6,1.6c0,1-0.4,1.7-1.2,2.3c-0.8,0.6-1.9,0.8-3.2,0.8c-1.4,0-2.6-0.3-3.6-0.9c-0.3-0.2-0.4-0.4-0.4-0.7
				c0-0.2,0.1-0.3,0.2-0.5c0.2-0.2,0.4-0.4,0.7-0.4c0.2,0,0.3,0,0.5,0.1c0.8,0.5,1.6,0.7,2.3,0.7c0.8,0,1.4-0.2,2-0.5
				s0.8-0.7,0.8-1.2c0-0.4-0.2-0.8-0.5-1C58.5,54.1,58,54,57.3,54h-1c-0.2,0-0.4-0.1-0.6-0.2c-0.2-0.1-0.2-0.3-0.2-0.5
				c0-0.2,0.1-0.4,0.2-0.5c0.2-0.1,0.3-0.2,0.6-0.2h0.9c0.5,0,1-0.1,1.3-0.4c0.3-0.3,0.5-0.6,0.5-1c0-0.5-0.2-0.8-0.6-1.1
				c-0.4-0.3-0.9-0.4-1.6-0.4c-0.8,0-1.6,0.2-2.4,0.6c-0.1,0.1-0.3,0.1-0.4,0.1c-0.3,0-0.5-0.1-0.7-0.4c-0.1-0.1-0.1-0.2-0.1-0.4
				c0-0.3,0.2-0.5,0.5-0.7C54.6,48.2,55.8,47.9,57.1,47.9z"/>
			<path class="st5" d="M63.4,55.4c0-1,0.4-1.8,1.1-2.4c0.7-0.6,1.7-0.9,2.8-0.9c1.1,0,1.9,0.2,2.6,0.7c0-1.2-0.2-2-0.5-2.5
				s-0.9-0.8-1.9-0.8c-0.7,0-1.4,0.1-2.1,0.4c-0.1,0-0.2,0.1-0.3,0.1c-0.3,0-0.6-0.2-0.7-0.5c0-0.1-0.1-0.2-0.1-0.3
				c0-0.4,0.2-0.6,0.5-0.7c1-0.4,1.9-0.6,2.9-0.6c1.4,0,2.4,0.3,3,1c0.6,0.7,0.9,1.8,0.9,3.2v5.7c0,0.2-0.1,0.4-0.3,0.6
				c-0.2,0.2-0.4,0.2-0.6,0.2s-0.5-0.1-0.6-0.2c-0.2-0.2-0.3-0.3-0.3-0.6v-0.7c-0.8,1-1.9,1.5-3.3,1.5c-1,0-1.7-0.3-2.3-0.9
				C63.7,57.2,63.4,56.4,63.4,55.4z M69.9,55.6v-1.3c-0.6-0.5-1.4-0.7-2.3-0.7c-0.6,0-1.2,0.1-1.6,0.4c-0.4,0.3-0.6,0.7-0.6,1.3
				c0,0.5,0.2,0.9,0.5,1.2s0.8,0.4,1.4,0.4C68.2,57,69.1,56.5,69.9,55.6z"/>
			<path class="st5" d="M84.4,49v8.8c0,0.4-0.1,0.6-0.4,0.7c-0.3,0.1-0.6,0.1-1,0s-0.5-0.4-0.4-0.7v-6.8l-5.6,6.9
				c-0.5,0.6-0.9,0.8-1.3,0.8c-0.3,0-0.5-0.1-0.7-0.3c-0.2-0.2-0.3-0.4-0.3-0.6v-8.8c0-0.4,0.1-0.6,0.4-0.7c0.3-0.1,0.6-0.1,1,0
				c0.3,0.1,0.5,0.4,0.4,0.7v6.9l5.6-6.9c0.5-0.6,0.9-0.9,1.3-0.9c0.3,0,0.5,0.1,0.7,0.3C84.3,48.5,84.4,48.7,84.4,49z M81.2,43.6
				c0.2-0.5,0.5-0.7,0.9-0.7c0.2,0,0.4,0.1,0.6,0.2c0.2,0.1,0.2,0.3,0.2,0.6c0,0,0,0,0,0.1c0,0,0,0.1,0,0.1s0,0.1,0,0.1
				c-0.1,0.6-0.5,1.1-1.1,1.5c-0.6,0.4-1.3,0.6-2.1,0.6c-0.9,0-1.6-0.2-2.2-0.6c-0.6-0.4-1-0.9-1.1-1.5c0,0,0-0.1,0-0.3
				c0-0.6,0.3-0.8,0.9-0.8c0.4,0,0.7,0.2,0.9,0.7c0.2,0.7,0.8,1.1,1.6,1.1C80.5,44.7,81,44.3,81.2,43.6z"/>
			<path class="st5" d="M97.1,48.9v8.9c0,0.4-0.1,0.6-0.4,0.7s-0.6,0.1-1,0c-0.3-0.1-0.5-0.4-0.4-0.7v-3.7h-5.8v3.7
				c0,0.4-0.1,0.6-0.4,0.7c-0.3,0.1-0.6,0.1-1,0c-0.3-0.1-0.5-0.4-0.4-0.7v-8.9c0-0.4,0.1-0.6,0.4-0.7c0.3-0.1,0.6-0.1,1,0
				c0.3,0.1,0.5,0.4,0.4,0.7v3.5h5.8v-3.5c0-0.4,0.1-0.6,0.4-0.7c0.3-0.1,0.6-0.1,1,0C97,48.3,97.1,48.5,97.1,48.9z"/>
		</g>
	</g>
</g>
<g id="B30">
</g>
<g id="B31">
</g>
<g id="B32">
</g>
<g id="B33">
</g>
</svg>
