<?xml version="1.0" encoding="utf-8"?>
<!-- Generator: Adobe Illustrator 17.1.0, SVG Export Plug-In . SVG Version: 6.00 Build 0)  -->
<!DOCTYPE svg PUBLIC "-//W3C//DTD SVG 1.1//EN" "http://www.w3.org/Graphics/SVG/1.1/DTD/svg11.dtd">
<svg version="1.1" xmlns="http://www.w3.org/2000/svg" xmlns:xlink="http://www.w3.org/1999/xlink" x="0px" y="0px"
	 viewBox="0 0 273 208" enable-background="new 0 0 273 208" xml:space="preserve">
<g id="Sky">
</g>
<g id="Clouds">
</g>
<g id="Button">
</g>
<g id="B_1">
</g>
<g id="B2">
</g>
<g id="B3">
</g>
<g id="B4">
</g>
<g id="B5">
</g>
<g id="B6">
</g>
<g id="B7">
</g>
<g id="B8">
</g>
<g id="B9">
</g>
<g id="B10">
</g>
<g id="B11">
</g>
<g id="B12">
</g>
<g id="B13">
</g>
<g id="B14">
</g>
<g id="B15">
</g>
<g id="Head">
</g>
<g id="B16">
</g>
<g id="B17">
</g>
<g id="B18">
</g>
<g id="B19">
	<path fill="#75AEB9" d="M171.9,129.6C150,151.3,99.7,165.9,78,144S71.5,72,93.4,50.3s57.3-21.5,78.9,0.4S193.9,108,171.9,129.6z"/>
	<polygon fill="#4E9DA3" points="80.7,141.4 65.8,144.7 77.2,156.2 	"/>
	<path fill="#4E9DA3" d="M171.9,129.6c20-19.8,21.9-50.8,5.7-72.8l0,0c0,0,33.3,78.6-81.5,96.7C120.7,159.1,154.9,146.5,171.9,129.6
		z"/>
	<g>
		
			<rect x="76.2" y="87.8" transform="matrix(0.9999 -1.647408e-002 1.647408e-002 0.9999 -1.6838 2.1983)" fill="none" width="112.7" height="30.9"/>
		
			<text transform="matrix(0.9999 -1.647000e-002 1.647000e-002 0.9999 76.1913 104.8633)" fill="#252835" font-family="'CirceRounded-Regular'" font-size="23">Транспорт</text>
	</g>
	<path fill="#91BEC7" d="M114.6,56.9c-14.2,8.4-22.1,21.4-25.8,15.2c-3.6-6.2,4.9-18,19.2-26.4s28.8-10.2,32.4-4
		S128.8,48.5,114.6,56.9z"/>
</g>
<g id="B20">
</g>
<g id="B21">
</g>
<g id="B22">
</g>
<g id="B23">
</g>
<g id="B24">
</g>
<g id="B25">
</g>
<g id="B26">
</g>
<g id="B27">
</g>
<g id="B28">
</g>
<g id="B29">
</g>
<g id="B30">
</g>
<g id="B31">
</g>
<g id="B32">
</g>
<g id="B33">
</g>
</svg>
