<?xml version="1.0" encoding="utf-8"?>
<!-- Generator: Adobe Illustrator 17.1.0, SVG Export Plug-In . SVG Version: 6.00 Build 0)  -->
<!DOCTYPE svg PUBLIC "-//W3C//DTD SVG 1.1//EN" "http://www.w3.org/Graphics/SVG/1.1/DTD/svg11.dtd">
<svg version="1.1" xmlns="http://www.w3.org/2000/svg" xmlns:xlink="http://www.w3.org/1999/xlink" x="0px" y="0px"
	 viewBox="0 0 249 200.1" enable-background="new 0 0 249 200.1" xml:space="preserve">
<g id="Sky">
</g>
<g id="Clouds">
</g>
<g id="Button">
</g>
<g id="B_1">
</g>
<g id="B2">
</g>
<g id="B3">
</g>
<g id="B4">
</g>
<g id="B5">
</g>
<g id="B6">
</g>
<g id="B7">
</g>
<g id="B8">
</g>
<g id="B9">
</g>
<g id="B10">
</g>
<g id="B11">
</g>
<g id="B12">
</g>
<g id="B13">
</g>
<g id="B14">
</g>
<g id="B15">
</g>
<g id="Head">
</g>
<g id="B16">
</g>
<g id="B17">
</g>
<g id="B18">
</g>
<g id="B19">
</g>
<g id="B20">
</g>
<g id="B21">
</g>
<g id="B22">
</g>
<g id="B23">
</g>
<g id="B24">
</g>
<g id="B25">
</g>
<g id="B26">
</g>
<g id="B27">
	<path fill="#FFDF57" d="M159.7,136c-24,20.1-76.2,30.8-96.3,6.8s-0.6-73.5,23.4-93.7s59.8-17,79.9,7S183.7,115.9,159.7,136z"/>
	<polygon fill="#E9CA25" points="66.3,140.3 51,142.5 61.5,155.1 	"/>
	<path fill="#E9CA25" d="M159.7,136c21.9-18.3,26.4-49.7,11.8-73.3l0,0c0,0,27.2,82.4-90.6,91.2C105.4,161.6,141,151.7,159.7,136z"
		/>
	<path fill="#F9E698" d="M100.9,58.9c-13.3,9.6-20.6,22.3-24.1,17.5c-3.5-4.8,4.5-16.5,17.8-26.2s26.9-13.6,30.4-8.8
		S114.2,49.3,100.9,58.9z"/>
	<g>
		<rect x="83.2" y="71.6" fill="none" width="67.3" height="81.3"/>
		<text transform="matrix(1 0 0 1 102.8942 87.6654)"><tspan x="0" y="0" fill="#252835" font-family="'CirceRounded-Regular'" font-size="23">ТВ  </tspan><tspan x="-17.3" y="27.6" fill="#252835" font-family="'CirceRounded-Regular'" font-size="23">Радио</tspan></text>
	</g>
</g>
<g id="B28">
</g>
<g id="B29">
</g>
<g id="B30">
</g>
<g id="B31">
</g>
<g id="B32">
</g>
<g id="B33">
</g>
</svg>
