<?xml version="1.0" encoding="utf-8"?>
<!-- Generator: Adobe Illustrator 22.1.0, SVG Export Plug-In . SVG Version: 6.00 Build 0)  -->
<svg version="1.1" id="Слой_1" xmlns="http://www.w3.org/2000/svg" xmlns:xlink="http://www.w3.org/1999/xlink" x="0px" y="0px"
	 viewBox="0 0 224 222" style="enable-background:new 0 0 224 222;" xml:space="preserve">
<style type="text/css">
	.st0{fill:#75AEB9;}
	.st1{fill:#4E9DA3;}
	.st2{fill:#91BEC7;}
	.st3{fill:none;}
	.st4{enable-background:new    ;}
	.st5{fill:#252835;}
</style>
<g id="Sky">
</g>
<g id="Clouds">
</g>
<g id="Button">
</g>
<g id="B1">
	<g>
		<g>
			<g>
				<path class="st0" d="M191,171.7c-37.5,37.2-123.7,62.2-160.9,24.6S18.9,72.9,56.4,35.7s98.1-36.8,135.3,0.7
					S228.5,134.5,191,171.7z"/>
				<polygon class="st1" points="34.7,191.8 9.2,197.5 28.7,217.2 				"/>
				<path class="st1" d="M191,171.7c34.2-33.8,37.5-87.1,9.7-124.7l0,0c0,0,57.1,134.6-139.6,165.7
					C103.2,222.1,161.8,200.6,191,171.7z"/>
			</g>
			<path class="st2" d="M92.7,47C68.3,61.4,54.8,83.7,48.5,73.1S57,42.2,81.4,27.8s49.3-17.5,55.5-6.9S117.1,32.6,92.7,47z"/>
		</g>
		<g>
			
				<rect x="19.1" y="107.6" transform="matrix(0.9999 -1.647356e-02 1.647356e-02 0.9999 -2.0109 1.9895)" class="st3" width="201.3" height="30.9"/>
			<g class="st4">
				<path class="st5" d="M21.9,109.8l5.6,6.6c0.3,0.3,0.3,0.7,0,1.1l-5.6,7.4c-0.4,0.5-0.7,0.7-1,0.7c-0.4,0-0.7-0.1-0.8-0.5
					c-0.1-0.3-0.1-0.6,0.2-1l5.6-7.2l-5.5-6.2c-0.3-0.3-0.4-0.6-0.2-1c0.1-0.3,0.4-0.5,0.8-0.5C21.2,109.1,21.5,109.3,21.9,109.8z
					 M28.4,124.4l-0.2-14.5c0-0.3,0.1-0.5,0.3-0.7c0.2-0.2,0.4-0.3,0.7-0.3c0.3,0,0.5,0.1,0.7,0.3s0.3,0.4,0.3,0.7l0.2,14.5
					c0,0.3-0.1,0.5-0.3,0.7c-0.2,0.2-0.4,0.3-0.7,0.3c-0.3,0-0.5-0.1-0.7-0.3C28.5,124.9,28.4,124.7,28.4,124.4z M32.8,116.7l5.8,7
					c0.3,0.3,0.3,0.6,0.2,1c-0.1,0.3-0.4,0.5-0.8,0.5c-0.2,0-0.4,0-0.5-0.1c-0.1-0.1-0.3-0.3-0.6-0.6l-5.9-7.2
					c-0.3-0.4-0.3-0.7,0-1.1l5.5-6.8c0.3-0.4,0.6-0.6,0.9-0.6c0.2,0,0.4,0.1,0.6,0.2c0.2,0.2,0.2,0.3,0.3,0.6c0,0.2-0.1,0.4-0.2,0.6
					L32.8,116.7z"/>
				<path class="st5" d="M49.8,119c0,0.3,0,0.4,0,0.5c0,0.2-0.1,0.4-0.3,0.5c-0.2,0.2-0.3,0.2-0.5,0.2l-7.3,0.1
					c0.1,1,0.5,1.7,1.1,2.3c0.7,0.5,1.5,0.8,2.5,0.8c1,0,1.8-0.2,2.5-0.7c0.2-0.1,0.3-0.1,0.5-0.1c0.2,0,0.4,0.1,0.6,0.3
					c0.1,0.1,0.1,0.2,0.1,0.4c0,0.3-0.1,0.5-0.3,0.6c-1.1,0.8-2.3,1.2-3.6,1.2c-1.7,0-3-0.4-4-1.4c-1-1-1.6-2.3-1.6-3.9
					c0-1.5,0.4-2.9,1.4-3.9c0.9-1,2.2-1.6,3.9-1.6c1.4,0,2.5,0.4,3.4,1.3C49.3,116.5,49.8,117.6,49.8,119z M41.6,118.9l6.3-0.1
					c-0.1-0.9-0.4-1.5-0.9-2c-0.5-0.5-1.3-0.7-2.1-0.7c-0.9,0-1.6,0.3-2.2,0.8S41.7,118.1,41.6,118.9z"/>
				<path class="st5" d="M60.7,115.2l0.1,8.8c0,0.4-0.1,0.6-0.4,0.8c-0.3,0.2-0.6,0.2-1,0c-0.3-0.1-0.5-0.4-0.4-0.7l-0.1-7.8
					l-3.6,0.1l-0.1,1.8c-0.1,2.3-0.5,4-1.1,5.2c-0.6,1.2-1.4,1.8-2.3,1.8c-0.3,0-0.5-0.1-0.7-0.2c-0.2-0.2-0.3-0.4-0.3-0.6
					c0-0.4,0.2-0.7,0.7-1c0.5-0.2,0.9-0.7,1.2-1.5c0.3-0.8,0.5-2.1,0.6-4l0.1-2.3c0-0.2,0.1-0.5,0.3-0.6s0.4-0.3,0.6-0.3l5.5-0.1
					c0.2,0,0.5,0.1,0.6,0.2C60.6,114.8,60.7,115,60.7,115.2z"/>
				<path class="st5" d="M73.5,118.6c0,0.3,0,0.4,0,0.5c0,0.2-0.1,0.4-0.3,0.5c-0.2,0.2-0.3,0.2-0.5,0.2l-7.3,0.1
					c0.1,1,0.5,1.7,1.1,2.3c0.7,0.5,1.5,0.8,2.5,0.8c1,0,1.8-0.2,2.5-0.7c0.2-0.1,0.3-0.1,0.5-0.1c0.2,0,0.4,0.1,0.6,0.3
					c0.1,0.1,0.1,0.2,0.1,0.4c0,0.3-0.1,0.5-0.3,0.6c-1.1,0.8-2.3,1.2-3.6,1.2c-1.7,0-3-0.4-4-1.4c-1-1-1.6-2.3-1.6-3.9
					c0-1.5,0.4-2.9,1.4-3.9c0.9-1,2.2-1.6,3.9-1.6c1.4,0,2.5,0.4,3.4,1.3C73,116.1,73.5,117.3,73.5,118.6z M65.3,118.5l6.3-0.1
					c-0.1-0.9-0.4-1.5-0.9-2c-0.5-0.5-1.3-0.7-2.1-0.7c-0.9,0-1.6,0.3-2.2,0.8C65.7,117,65.4,117.7,65.3,118.5z"/>
				<path class="st5" d="M79.3,113.8c1.2,0,2.2,0.2,2.9,0.7s1,1.2,1.1,2c0,1.2-0.6,2-1.8,2.5c0.7,0.1,1.2,0.3,1.6,0.8s0.6,1,0.6,1.6
					c0,1-0.4,1.7-1.2,2.3c-0.8,0.6-1.9,0.9-3.2,0.9c-1.4,0-2.6-0.3-3.6-0.9c-0.3-0.2-0.4-0.4-0.4-0.7c0-0.2,0-0.3,0.2-0.5
					c0.1-0.2,0.4-0.4,0.7-0.4c0.2,0,0.3,0,0.5,0.1c0.8,0.5,1.6,0.7,2.4,0.7c0.8,0,1.4-0.2,1.9-0.5c0.5-0.3,0.7-0.7,0.7-1.2
					c0-0.4-0.2-0.8-0.6-1c-0.4-0.2-0.9-0.3-1.5-0.3l-1,0c-0.2,0-0.4-0.1-0.6-0.2c-0.2-0.1-0.2-0.3-0.2-0.5c0-0.2,0.1-0.4,0.2-0.5
					c0.2-0.1,0.3-0.2,0.5-0.2l0.9,0c0.5,0,0.9-0.2,1.3-0.4c0.3-0.3,0.5-0.6,0.5-1.1c0-0.5-0.2-0.8-0.6-1.1c-0.4-0.3-0.9-0.4-1.6-0.4
					c-0.8,0-1.6,0.2-2.4,0.6c-0.1,0.1-0.3,0.1-0.4,0.1c-0.3,0-0.5-0.1-0.7-0.4c-0.1-0.1-0.1-0.2-0.1-0.4c0-0.3,0.2-0.5,0.5-0.7
					C76.9,114.1,78,113.8,79.3,113.8z"/>
				<path class="st5" d="M95.8,114.5l0.1,8.9c0,0.4-0.1,0.6-0.4,0.8c-0.3,0.2-0.6,0.2-1,0c-0.3-0.1-0.5-0.4-0.4-0.7l-0.1-3.7
					l-5.7,0.1l0.1,3.7c0,0.4-0.1,0.6-0.4,0.8c-0.3,0.2-0.6,0.2-1,0c-0.3-0.1-0.5-0.4-0.4-0.7l-0.1-8.9c0-0.4,0.1-0.6,0.4-0.8
					c0.3-0.2,0.6-0.2,1,0c0.3,0.1,0.5,0.4,0.4,0.7l0.1,3.5L94,118l-0.1-3.5c0-0.4,0.1-0.6,0.4-0.8c0.3-0.2,0.6-0.2,1,0
					C95.7,113.9,95.8,114.2,95.8,114.5z"/>
				<path class="st5" d="M100.1,122.7c-1-1-1.6-2.3-1.6-3.8c0-1.6,0.5-2.9,1.5-3.9c1-1,2.3-1.6,4-1.6c1.6,0,3,0.5,4,1.5
					c1,1,1.6,2.3,1.6,3.9c0,1.6-0.5,2.9-1.5,3.9c-1,1-2.3,1.6-4,1.6C102.5,124.2,101.1,123.7,100.1,122.7z M100.4,118.9
					c0,1.1,0.4,1.9,1,2.6s1.5,1,2.6,1c1,0,1.9-0.4,2.5-1.1c0.7-0.7,1-1.6,1-2.7c0-1.1-0.4-2-1-2.6c-0.7-0.7-1.5-1-2.6-1
					c-1,0-1.9,0.4-2.5,1.1C100.8,116.9,100.4,117.8,100.4,118.9z"/>
				<path class="st5" d="M120.5,123.7l-8.4,0.1l0,1.7c0,0.2-0.1,0.5-0.2,0.6c-0.2,0.2-0.4,0.3-0.6,0.3c-0.2,0-0.5-0.1-0.6-0.2
					c-0.2-0.2-0.3-0.4-0.3-0.6l0-2.5c0-0.2,0.1-0.5,0.2-0.6s0.4-0.3,0.6-0.3l0.4,0c0.4-0.5,0.7-1.3,1-2.3s0.4-2.3,0.5-3.6l0.1-1.9
					c0-0.2,0.1-0.5,0.3-0.6c0.2-0.2,0.4-0.3,0.6-0.3l5.3-0.1c0.2,0,0.5,0.1,0.6,0.2c0.2,0.2,0.3,0.4,0.3,0.6l0.1,7.8l0.9,0
					c0.2,0,0.5,0.1,0.6,0.2c0.2,0.2,0.3,0.4,0.3,0.6l0,2.5c0,0.2-0.1,0.5-0.2,0.6c-0.2,0.2-0.4,0.3-0.6,0.3c-0.2,0-0.5-0.1-0.6-0.2
					s-0.3-0.4-0.3-0.6L120.5,123.7z M113.6,122.1l5-0.1l-0.1-6.9l-3.5,0.1l-0.1,1.7c-0.1,1.2-0.2,2.2-0.5,3.2
					C114.2,121,113.9,121.7,113.6,122.1z"/>
				<path class="st5" d="M124.9,122.3c-1-1-1.6-2.3-1.6-3.8c0-1.6,0.5-2.9,1.5-3.9c1-1,2.3-1.6,4-1.6c1.6,0,3,0.5,4,1.5
					c1,1,1.6,2.3,1.6,3.9c0,1.6-0.5,2.9-1.5,3.9c-1,1-2.3,1.6-4,1.6S126,123.3,124.9,122.3z M125.3,118.4c0,1.1,0.4,1.9,1,2.6
					c0.7,0.7,1.5,1,2.6,1c1,0,1.9-0.4,2.5-1.1c0.7-0.7,1-1.6,1-2.7c0-1.1-0.4-1.9-1-2.6c-0.7-0.7-1.5-1-2.6-1c-1,0-1.9,0.4-2.5,1.1
					C125.6,116.5,125.3,117.4,125.3,118.4z"/>
				<path class="st5" d="M138.9,122.9l0.1,4.2c0,0.4-0.1,0.6-0.4,0.8c-0.3,0.2-0.6,0.2-1,0c-0.3-0.1-0.5-0.4-0.4-0.7l-0.2-13.3
					c0-0.4,0.1-0.6,0.4-0.8c0.3-0.2,0.6-0.2,1,0c0.3,0.1,0.5,0.4,0.4,0.7l0,0.5c0.4-0.4,0.9-0.8,1.5-1.1c0.6-0.3,1.3-0.4,2-0.4
					c1.5,0,2.6,0.4,3.5,1.4c0.9,1,1.3,2.2,1.4,3.8c0,1.6-0.5,2.9-1.4,4c-1,1.1-2.3,1.6-3.9,1.7C140.6,123.6,139.6,123.4,138.9,122.9
					z M138.8,116l0.1,5.1c0.8,0.5,1.7,0.8,2.8,0.8c1.1,0,2-0.4,2.6-1.1c0.6-0.7,1-1.6,0.9-2.7c0-1.1-0.3-2-0.9-2.6
					c-0.6-0.6-1.4-1-2.5-0.9C140.5,114.5,139.5,115,138.8,116z"/>
				<path class="st5" d="M150.7,121.9c-1-1-1.6-2.3-1.6-3.8c0-1.6,0.5-2.9,1.5-3.9c1-1,2.3-1.6,4-1.6c1.6,0,3,0.5,4,1.5
					c1,1,1.6,2.3,1.6,3.9c0,1.6-0.5,2.9-1.5,3.9c-1,1-2.3,1.6-4,1.6C153.1,123.4,151.7,122.9,150.7,121.9z M151,118
					c0,1.1,0.4,1.9,1,2.6c0.7,0.7,1.5,1,2.6,1c1,0,1.9-0.4,2.5-1.1c0.7-0.7,1-1.6,1-2.7c0-1.1-0.4-1.9-1-2.6c-0.7-0.7-1.5-1-2.6-1
					c-1,0-1.9,0.4-2.5,1.1C151.3,116,151,116.9,151,118z"/>
				<path class="st5" d="M166.1,118.3l-3,4.4c-0.2,0.3-0.5,0.5-0.9,0.5c-0.3,0-0.5-0.1-0.6-0.2c-0.2-0.2-0.2-0.4-0.3-0.6
					c0-0.2,0.1-0.4,0.2-0.6l2.9-4.1l-2.8-3.6c-0.1-0.2-0.2-0.3-0.2-0.5c0-0.2,0.1-0.5,0.3-0.6c0.2-0.2,0.4-0.3,0.7-0.3
					c0.3,0,0.6,0.2,0.9,0.5l2.8,3.8c0.2,0.2,0.2,0.4,0.2,0.7S166.3,118.1,166.1,118.3z M168.8,113.3l0.1,8.9c0,0.4-0.1,0.6-0.4,0.8
					s-0.6,0.2-1,0c-0.3-0.1-0.5-0.4-0.4-0.7l-0.1-8.9c0-0.4,0.1-0.6,0.4-0.8c0.3-0.2,0.6-0.2,1,0S168.9,113,168.8,113.3z M173,122.5
					l-3.2-4.3c-0.3-0.5-0.3-0.9,0-1.4l2.7-3.9c0.2-0.3,0.5-0.5,0.8-0.5c0.3,0,0.5,0.1,0.7,0.2c0.2,0.2,0.3,0.4,0.3,0.6
					c0,0.2-0.1,0.4-0.2,0.6l-2.7,3.7l3.1,4c0.1,0.2,0.2,0.4,0.2,0.6c0,0.2-0.1,0.5-0.2,0.6c-0.2,0.2-0.4,0.3-0.6,0.3
					C173.6,123,173.3,122.8,173,122.5z"/>
				<path class="st5" d="M186.5,113l0.1,8.9c0,0.4-0.1,0.6-0.4,0.8s-0.6,0.2-1,0s-0.5-0.4-0.4-0.7l-0.1-3.7l-5.7,0.1l0.1,3.7
					c0,0.4-0.1,0.6-0.4,0.8s-0.6,0.2-1,0c-0.3-0.1-0.5-0.4-0.4-0.7l-0.1-8.9c0-0.4,0.1-0.6,0.4-0.8c0.3-0.2,0.6-0.2,1,0
					c0.3,0.1,0.5,0.4,0.4,0.7l0.1,3.5l5.7-0.1l-0.1-3.5c0-0.4,0.1-0.6,0.4-0.8s0.6-0.2,1,0C186.4,112.4,186.5,112.7,186.5,113z"/>
				<path class="st5" d="M191.7,112.9l0,2.3l1.7,0c1.4,0,2.5,0.3,3.1,0.9c0.7,0.6,1,1.5,1,2.6c0,1.1-0.3,2-1,2.7
					c-0.7,0.7-1.8,1-3.2,1.1l-2.5,0c-0.2,0-0.5-0.1-0.6-0.2c-0.2-0.2-0.3-0.4-0.3-0.6l-0.1-8.7c0-0.4,0.1-0.6,0.4-0.8
					c0.3-0.2,0.6-0.2,1,0C191.5,112.3,191.7,112.6,191.7,112.9z M191.7,117l0.1,3.8l1.3,0c0.9,0,1.5-0.2,1.9-0.5
					c0.4-0.3,0.6-0.8,0.6-1.4c0-1.3-0.9-1.9-2.5-1.9L191.7,117z M201.3,112.8l0.1,8.9c0,0.4-0.1,0.6-0.4,0.8s-0.6,0.2-1,0
					c-0.3-0.1-0.5-0.4-0.4-0.7l-0.1-8.9c0-0.4,0.1-0.6,0.4-0.8c0.3-0.2,0.6-0.2,1,0C201.2,112.2,201.3,112.4,201.3,112.8z"/>
				<path class="st5" d="M214.3,112.6l0.1,8.8c0,0.4-0.1,0.6-0.4,0.8s-0.6,0.2-1,0c-0.3-0.1-0.5-0.4-0.4-0.7l-0.1-6.8l-5.5,7
					c-0.5,0.6-0.9,0.8-1.3,0.8c-0.3,0-0.5-0.1-0.7-0.3c-0.2-0.2-0.3-0.4-0.3-0.6l-0.1-8.8c0-0.4,0.1-0.6,0.4-0.8
					c0.3-0.2,0.6-0.2,1,0c0.3,0.1,0.5,0.4,0.4,0.7l0.1,6.9l5.5-7c0.5-0.6,0.9-0.9,1.3-0.9c0.3,0,0.5,0.1,0.7,0.3
					S214.3,112.4,214.3,112.6z M211,107.3c0.2-0.5,0.5-0.7,0.9-0.8c0.2,0,0.4,0.1,0.6,0.2c0.2,0.1,0.2,0.3,0.3,0.6c0,0,0,0,0,0.1
					c0,0,0,0.1,0,0.1c0,0,0,0.1,0,0.1c-0.1,0.6-0.5,1.1-1.1,1.5s-1.3,0.6-2.1,0.6c-0.9,0-1.6-0.2-2.3-0.6s-1-0.9-1.1-1.5
					c0,0,0-0.1,0-0.3c0-0.6,0.3-0.8,0.8-0.8c0.4,0,0.7,0.2,0.9,0.7c0.2,0.7,0.8,1.1,1.7,1.1C210.3,108.4,210.8,108,211,107.3z"/>
			</g>
		</g>
	</g>
</g>
<g id="B2">
</g>
<g id="B3">
</g>
<g id="B4">
</g>
<g id="Bubble1">
</g>
<g id="Bubble2">
</g>
</svg>
