<?xml version="1.0" encoding="utf-8"?>
<!-- Generator: Adobe Illustrator 17.1.0, SVG Export Plug-In . SVG Version: 6.00 Build 0)  -->
<!DOCTYPE svg PUBLIC "-//W3C//DTD SVG 1.1//EN" "http://www.w3.org/Graphics/SVG/1.1/DTD/svg11.dtd">
<svg version="1.1" xmlns="http://www.w3.org/2000/svg" xmlns:xlink="http://www.w3.org/1999/xlink" x="0px" y="0px"
	 viewBox="0 0 178.6 196.9" enable-background="new 0 0 178.6 196.9" xml:space="preserve">
<g id="Sky">
</g>
<g id="Clouds">
</g>
<g id="Button">
</g>
<g id="B1">
</g>
<g id="B2">
</g>
<g id="B3">
</g>
<g id="B4">
	<g>
		<path fill="#75AEB9" d="M142.8,165.6c-25.8,25.5-84.9,42.7-110.5,16.9S24.7,97.8,50.4,72.3s67.4-25.3,92.9,0.5
			S168.6,140.1,142.8,165.6z"/>
		<polygon fill="#4E9DA3" points="35.5,179.4 18,183.4 31.4,196.9 		"/>
		<path fill="#4E9DA3" d="M142.8,165.6c23.5-23.2,25.7-59.8,6.7-85.6l0,0c0,0,39.2,92.4-95.8,113.7
			C82.6,200.3,122.8,185.5,142.8,165.6z"/>
	</g>
	<g>
		
			<rect x="26.9" y="115" transform="matrix(0.9999 -1.647411e-002 1.647411e-002 0.9999 -2.1358 1.5858)" fill="none" width="136.6" height="30.9"/>
		
			<text transform="matrix(0.9999 -1.647000e-002 1.647000e-002 0.9999 26.8408 132.1863)" fill="#252835" font-family="'CirceRounded-Regular'" font-size="23">Автомобили</text>
	</g>
	<path fill="#91BEC7" d="M75.4,80C58.6,89.9,49.3,105.2,45,97.9s5.8-21.2,22.6-31.1s33.8-12,38.1-4.7C110,69.4,92.1,70.1,75.4,80z"
		/>
</g>
<g id="Bubble1">
</g>
<g id="Bubble2">
</g>
</svg>
