<?xml version="1.0" encoding="utf-8"?>
<!-- Generator: Adobe Illustrator 17.1.0, SVG Export Plug-In . SVG Version: 6.00 Build 0)  -->
<!DOCTYPE svg PUBLIC "-//W3C//DTD SVG 1.1//EN" "http://www.w3.org/Graphics/SVG/1.1/DTD/svg11.dtd">
<svg version="1.1" xmlns="http://www.w3.org/2000/svg" xmlns:xlink="http://www.w3.org/1999/xlink" x="0px" y="0px"
	 viewBox="0 0 304 179.2" enable-background="new 0 0 304 179.2" xml:space="preserve">
<g id="Sky">
</g>
<g id="Cluds">
</g>
<g id="Button">
</g>
<g id="Bubble1">
</g>
<g id="Bubble2">
</g>
<g id="B1">
</g>
<g id="B2">
	<g>
		<path fill="#FFDF57" d="M214.1,129.8c-23.9,30.1-83.9,55.8-114.1,31.9s-18.9-88.2,4.9-118.4S172.6,8.1,202.7,32
			S238,99.6,214.1,129.8z"/>
		<polygon fill="#E9CA25" points="102.9,158 85,164.4 100.8,176.9 		"/>
		<path fill="#F9E698" d="M134.6,48.9C116,59.5,105.5,76.1,100.9,68s6.8-23.2,25.4-33.8s37.4-12.6,42-4.5
			C172.9,37.9,153.2,38.3,134.6,48.9z"/>
		<path fill="#E9CA25" d="M121.2,170.4C251.3,144,212,40.8,212,40.8s37.3,40.5,2.1,89S121.2,170.4,121.2,170.4z"/>
	</g>
	<g>
		<rect x="86.5" y="90.3" fill="none" width="139.9" height="30.9"/>
		<text transform="matrix(1 0 0 1 86.5074 106.3616)" fill="#313547" font-family="'CirceRounded-Regular'" font-size="23">Естественная</text>
	</g>
</g>
<g id="B3">
</g>
</svg>
