<?xml version="1.0" encoding="utf-8"?>
<!-- Generator: Adobe Illustrator 22.1.0, SVG Export Plug-In . SVG Version: 6.00 Build 0)  -->
<svg version="1.1" id="Слой_1" xmlns="http://www.w3.org/2000/svg" xmlns:xlink="http://www.w3.org/1999/xlink" x="0px" y="0px"
	 viewBox="0 0 137 132" style="enable-background:new 0 0 137 132;" xml:space="preserve">
<style type="text/css">
	.st0{fill:#FFDF57;}
	.st1{fill:#E9CA25;}
	.st2{fill:#F9E698;}
	.st3{fill:none;}
	.st4{enable-background:new    ;}
	.st5{fill:#252835;}
</style>
<g id="Sky">
</g>
<g id="Clouds">
</g>
<g id="Button">
</g>
<g id="B_1">
</g>
<g id="B2">
</g>
<g id="B3">
</g>
<g id="B4">
</g>
<g id="B5">
</g>
<g id="B6">
</g>
<g id="B7">
</g>
<g id="B8">
</g>
<g id="B9">
</g>
<g id="B10">
</g>
<g id="B11">
</g>
<g id="B12">
</g>
<g id="B13">
</g>
<g id="B14">
</g>
<g id="B15">
</g>
<g id="Head">
</g>
<g id="B16">
</g>
<g id="B17">
</g>
<g id="B18">
</g>
<g id="B19">
</g>
<g id="B20">
</g>
<g id="B21">
</g>
<g id="B22">
</g>
<g id="B23">
</g>
<g id="B24">
</g>
<g id="B25">
</g>
<g id="B26">
</g>
<g id="B27">
	<path class="st0" d="M111.7,106c-24,20.1-76.2,30.8-96.3,6.8s-0.6-73.5,23.4-93.7s59.8-17,79.9,7S135.7,85.9,111.7,106z"/>
	<polygon class="st1" points="18.3,110.3 3,112.5 13.5,125.1 	"/>
	<path class="st1" d="M111.7,106c21.9-18.3,26.4-49.7,11.8-73.3l0,0c0,0,27.2,82.4-90.6,91.2C57.4,131.6,93,121.7,111.7,106z"/>
	<path class="st2" d="M52.9,28.9c-13.3,9.6-20.6,22.3-24.1,17.5c-3.5-4.8,4.5-16.5,17.8-26.2S73.5,6.6,77,11.4
		C80.5,16.2,66.2,19.3,52.9,28.9z"/>
	<g>
		<rect x="35.2" y="41.6" class="st3" width="67.3" height="81.3"/>
		<g class="st4">
			<path class="st5" d="M67.5,43.4h-4.7v13.5c0,0.3-0.1,0.5-0.3,0.7c-0.2,0.2-0.4,0.3-0.7,0.3c-0.3,0-0.5-0.1-0.7-0.3
				c-0.2-0.2-0.3-0.4-0.3-0.7V43.4H56c-0.2,0-0.5-0.1-0.6-0.3c-0.2-0.2-0.3-0.4-0.3-0.6s0.1-0.5,0.3-0.6c0.2-0.2,0.4-0.3,0.6-0.3
				h11.4c0.2,0,0.5,0.1,0.6,0.3c0.2,0.2,0.3,0.4,0.3,0.6s-0.1,0.5-0.3,0.6C67.9,43.3,67.7,43.4,67.5,43.4z"/>
			<path class="st5" d="M75.4,41.5c1.7,0,3,0.3,3.9,1c0.9,0.7,1.3,1.7,1.3,2.9c0,1.9-0.9,3.1-2.8,3.7c1,0.2,1.9,0.6,2.4,1.3
				c0.6,0.7,0.9,1.5,0.9,2.6c0,1.5-0.5,2.7-1.6,3.5s-2.5,1.2-4.3,1.2c-0.5,0-1.6,0-3.4,0c-0.3,0-0.5-0.1-0.7-0.3
				C71.1,57.2,71,57,71,56.7V42.6c0-0.3,0.1-0.5,0.3-0.7c0.2-0.2,0.4-0.3,0.7-0.3C73.9,41.5,75.1,41.5,75.4,41.5z M72.9,43.4v5.2
				h2.6c0.9,0,1.6-0.2,2.2-0.7c0.6-0.5,0.9-1.1,0.9-2c0-1.7-1.1-2.6-3.3-2.6C74.9,43.3,74.1,43.4,72.9,43.4z M75.5,50.3h-2.6v5.5
				c0.6,0.1,1.5,0.1,2.5,0.1c1.2,0,2.1-0.2,2.8-0.7c0.7-0.5,1-1.2,1-2.2c0-0.8-0.3-1.5-1-1.9C77.6,50.6,76.7,50.3,75.5,50.3z"/>
		</g>
		<g class="st4">
			<path class="st5" d="M41,69.2c1.9,0,3,0,3.2,0c2.1,0,3.6,0.5,4.6,1.4c0.9,0.9,1.4,2.1,1.4,3.6c0,1.4-0.5,2.6-1.5,3.6
				c-1,1-2.4,1.5-4.3,1.5c-1,0-1.8,0-2.4-0.1v5.4c0,0.3-0.1,0.5-0.3,0.7c-0.2,0.2-0.4,0.3-0.7,0.3c-0.3,0-0.5-0.1-0.7-0.3
				c-0.2-0.2-0.3-0.4-0.3-0.7V70.1c0-0.3,0.1-0.5,0.3-0.7C40.5,69.3,40.7,69.2,41,69.2z M42,71v6.2c1,0.1,1.7,0.1,2.3,0.1
				c1.2,0,2.1-0.3,2.8-0.9c0.7-0.6,1-1.4,1-2.4c0-1-0.3-1.8-0.9-2.3S45.6,71,44.4,71C44.1,71,43.3,71,42,71z"/>
			<path class="st5" d="M51.3,82.2c0-1,0.4-1.8,1.1-2.4c0.7-0.6,1.7-0.9,2.8-0.9c1.1,0,1.9,0.2,2.6,0.7c0-1.2-0.2-2-0.5-2.5
				c-0.3-0.5-0.9-0.8-1.9-0.8c-0.7,0-1.4,0.1-2.1,0.4c-0.1,0-0.2,0.1-0.3,0.1c-0.3,0-0.6-0.2-0.7-0.5c0-0.1-0.1-0.2-0.1-0.3
				c0-0.4,0.2-0.6,0.5-0.7c1-0.4,1.9-0.6,2.9-0.6c1.4,0,2.4,0.3,3,1c0.6,0.7,0.9,1.8,0.9,3.2v5.7c0,0.2-0.1,0.4-0.3,0.6
				c-0.2,0.2-0.4,0.2-0.6,0.2s-0.5-0.1-0.6-0.2c-0.2-0.2-0.3-0.3-0.3-0.6v-0.7c-0.8,1-1.9,1.5-3.3,1.5c-1,0-1.7-0.3-2.3-0.9
				C51.6,84,51.3,83.2,51.3,82.2z M57.8,82.4v-1.3c-0.6-0.5-1.4-0.7-2.3-0.7c-0.6,0-1.2,0.1-1.6,0.4c-0.4,0.3-0.6,0.7-0.6,1.3
				c0,0.5,0.2,0.9,0.5,1.2c0.3,0.3,0.8,0.4,1.4,0.4C56.1,83.8,57,83.3,57.8,82.4z"/>
			<path class="st5" d="M71.3,85.3h-8.4v1.7c0,0.2-0.1,0.5-0.3,0.6c-0.2,0.2-0.4,0.3-0.6,0.3c-0.2,0-0.5-0.1-0.6-0.3
				c-0.2-0.2-0.3-0.4-0.3-0.6v-2.5c0-0.2,0.1-0.5,0.3-0.6c0.2-0.2,0.4-0.3,0.6-0.3h0.4c0.4-0.5,0.7-1.2,1-2.3
				c0.3-1.1,0.5-2.3,0.6-3.6l0.1-1.9c0-0.2,0.1-0.5,0.3-0.6s0.4-0.3,0.6-0.3h5.3c0.2,0,0.5,0.1,0.6,0.3c0.2,0.2,0.3,0.4,0.3,0.6v7.8
				h0.9c0.2,0,0.5,0.1,0.6,0.3s0.3,0.4,0.3,0.6v2.5c0,0.2-0.1,0.5-0.3,0.6c-0.2,0.2-0.4,0.3-0.6,0.3c-0.2,0-0.5-0.1-0.6-0.3
				c-0.2-0.2-0.3-0.4-0.3-0.6V85.3z M64.4,83.5h5v-6.9h-3.5l-0.1,1.7c-0.1,1.2-0.3,2.2-0.6,3.2C65,82.5,64.7,83.1,64.4,83.5z"/>
			<path class="st5" d="M84.5,75.7v8.8c0,0.4-0.1,0.6-0.4,0.7s-0.6,0.1-1,0c-0.3-0.1-0.5-0.4-0.4-0.7v-6.8l-5.6,6.9
				c-0.5,0.6-0.9,0.8-1.3,0.8c-0.3,0-0.5-0.1-0.7-0.3c-0.2-0.2-0.3-0.4-0.3-0.6v-8.8c0-0.4,0.1-0.6,0.4-0.7c0.3-0.1,0.6-0.1,1,0
				c0.3,0.1,0.5,0.4,0.4,0.7v6.9l5.6-6.9c0.5-0.6,0.9-0.9,1.3-0.9c0.3,0,0.5,0.1,0.7,0.3C84.4,75.3,84.5,75.5,84.5,75.7z"/>
			<path class="st5" d="M88.7,84c-1-1-1.5-2.3-1.5-3.9c0-1.6,0.5-2.9,1.5-3.9c1-1,2.3-1.5,4-1.5c1.6,0,3,0.5,4,1.5
				c1,1,1.5,2.3,1.5,3.9c0,1.6-0.5,2.9-1.5,3.9c-1,1-2.4,1.5-4,1.5S89.7,85,88.7,84z M89.1,80.1c0,1.1,0.3,2,1,2.6
				c0.7,0.7,1.5,1,2.6,1c1,0,1.9-0.3,2.6-1c0.7-0.7,1-1.6,1-2.7c0-1.1-0.3-2-1-2.6c-0.7-0.7-1.5-1-2.6-1c-1,0-1.9,0.3-2.6,1
				C89.5,78.1,89.1,79,89.1,80.1z"/>
		</g>
	</g>
</g>
<g id="B28">
</g>
<g id="B29">
</g>
<g id="B30">
</g>
<g id="B31">
</g>
<g id="B32">
</g>
<g id="B33">
</g>
</svg>
