<?xml version="1.0" encoding="utf-8"?>
<!-- Generator: Adobe Illustrator 17.1.0, SVG Export Plug-In . SVG Version: 6.00 Build 0)  -->
<!DOCTYPE svg PUBLIC "-//W3C//DTD SVG 1.1//EN" "http://www.w3.org/Graphics/SVG/1.1/DTD/svg11.dtd">
<svg version="1.1" xmlns="http://www.w3.org/2000/svg" xmlns:xlink="http://www.w3.org/1999/xlink" x="0px" y="0px"
	 viewBox="0 0 249 192.8" enable-background="new 0 0 249 192.8" xml:space="preserve">
<g id="Sky">
</g>
<g id="Clouds">
</g>
<g id="Button">
</g>
<g id="B_1">
</g>
<g id="B2">
</g>
<g id="B3">
</g>
<g id="B4">
</g>
<g id="B5">
</g>
<g id="B6">
</g>
<g id="B7">
</g>
<g id="B8">
</g>
<g id="B9">
</g>
<g id="B10">
</g>
<g id="B11">
</g>
<g id="B12">
</g>
<g id="B13">
</g>
<g id="B14">
</g>
<g id="B15">
</g>
<g id="Head">
</g>
<g id="B16">
</g>
<g id="B17">
</g>
<g id="B18">
</g>
<g id="B19">
</g>
<g id="B20">
</g>
<g id="B21">
</g>
<g id="B22">
</g>
<g id="B23">
</g>
<g id="B24">
</g>
<g id="B25">
</g>
<g id="B26">
</g>
<g id="B27">
</g>
<g id="B28">
</g>
<g id="B29">
</g>
<g id="B30">
	<path fill="#FFDF57" d="M159.3,132.2c-23.8,20-75.6,30.5-95.6,6.7s-0.6-73,23.2-93s59.4-16.9,79.4,6.9S183.1,112.2,159.3,132.2z"/>
	<polygon fill="#E9CA25" points="66.6,136.4 51.3,138.6 61.8,151.1 	"/>
	<path fill="#E9CA25" d="M159.3,132.2c21.7-18.2,26.2-49.3,11.7-72.7l0,0c0,0,27,81.8-89.9,90.5
		C105.4,157.5,140.8,147.7,159.3,132.2z"/>
	<path fill="#F9E698" d="M100.9,55.6C87.7,65.2,80.4,77.7,77,73c-3.5-4.8,4.4-16.4,17.6-26s26.7-13.5,30.2-8.7
		C128.3,43,114.1,46,100.9,55.6z"/>
	<g>
		<rect x="61.9" y="85.5" fill="none" width="111" height="30.9"/>
		<text transform="matrix(1 0 0 1 63.8437 101.5516)" fill="#252835" font-family="'CirceRounded-Regular'" font-size="23">Медицина</text>
	</g>
</g>
<g id="B31">
</g>
<g id="B32">
</g>
<g id="B33">
</g>
</svg>
