<?xml version="1.0" encoding="utf-8"?>
<!-- Generator: Adobe Illustrator 17.1.0, SVG Export Plug-In . SVG Version: 6.00 Build 0)  -->
<!DOCTYPE svg PUBLIC "-//W3C//DTD SVG 1.1//EN" "http://www.w3.org/Graphics/SVG/1.1/DTD/svg11.dtd">
<svg version="1.1" xmlns="http://www.w3.org/2000/svg" xmlns:xlink="http://www.w3.org/1999/xlink" x="0px" y="0px"
	 viewBox="0 0 231.3 190.7" enable-background="new 0 0 231.3 190.7" xml:space="preserve">
<g id="Sky">
</g>
<g id="Clouds">
</g>
<g id="Button">
</g>
<g id="B_1">
</g>
<g id="B2">
</g>
<g id="B3">
</g>
<g id="B4">
</g>
<g id="B5">
</g>
<g id="B6">
</g>
<g id="B7">
</g>
<g id="B8">
</g>
<g id="B9">
</g>
<g id="B10">
</g>
<g id="B11">
</g>
<g id="B12">
</g>
<g id="B13">
</g>
<g id="B14">
</g>
<g id="B15">
</g>
<g id="Head">
</g>
<g id="B16">
</g>
<g id="B17">
</g>
<g id="B18">
	<path fill="#FFDF57" d="M147.7,122.4c-22.3,21.3-72.8,35.1-94.1,12.8s-5.4-72.2,16.9-93.5s57.6-20.6,78.9,1.7
		S169.9,101.1,147.7,122.4z"/>
	<polygon fill="#E9CA25" points="56.3,132.6 41.3,135.7 52.5,147.4 	"/>
	<path fill="#E9CA25" d="M147.7,122.4c20.3-19.4,22.7-50.5,6.9-72.7l0,0c0,0,32,79.1-83,95.3C96,151,130.4,139,147.7,122.4z"/>
	<g>
		<rect x="61.4" y="79.9" fill="none" width="87.2" height="30.9"/>
		<text transform="matrix(1 0 0 1 61.4028 96.0445)" fill="#252835" font-family="'CirceRounded-Regular'" font-size="23">Красота</text>
	</g>
	<path fill="#F9E698" d="M90.7,49.8c-13.4,7.6-20.9,19.6-24.2,13.7c-3.3-5.8,4.9-16.7,18.2-24.3s26.9-9,30.2-3.2
		S104.1,42.2,90.7,49.8z"/>
</g>
<g id="B19">
</g>
<g id="B20">
</g>
<g id="B21">
</g>
<g id="B22">
</g>
<g id="B23">
</g>
<g id="B24">
</g>
<g id="B25">
</g>
<g id="B26">
</g>
<g id="B27">
</g>
<g id="B28">
</g>
<g id="B29">
</g>
<g id="B30">
</g>
<g id="B31">
</g>
<g id="B32">
</g>
<g id="B33">
</g>
</svg>
