<?xml version="1.0" encoding="utf-8"?>
<!-- Generator: Adobe Illustrator 22.1.0, SVG Export Plug-In . SVG Version: 6.00 Build 0)  -->
<svg version="1.1" id="Слой_1" xmlns="http://www.w3.org/2000/svg" xmlns:xlink="http://www.w3.org/1999/xlink" x="0px" y="0px"
	 viewBox="0 0 125.5 140.6" style="enable-background:new 0 0 125.5 140.6;" xml:space="preserve">
<style type="text/css">
	.st0{fill:#96CD7C;}
	.st1{fill:#84CB66;}
	.st2{fill:#ABD796;}
	.st3{fill:none;}
	.st4{enable-background:new    ;}
	.st5{fill:#252835;}
</style>
<g id="Sky">
</g>
<g id="Clouds">
</g>
<g id="Button">
</g>
<g id="B_1">
</g>
<g id="B2">
</g>
<g id="B3">
</g>
<g id="B4">
</g>
<g id="B5">
</g>
<g id="B6">
	<g>
		<path class="st0" d="M111.8,103.2c-20.9,25-72.4,45.4-97.4,24.5s-14-75.3,6.9-100.3S79.4-0.9,104.4,20S132.7,78.2,111.8,103.2z"/>
		<polygon class="st1" points="17,124.6 1.6,129.6 14.7,140.6 		"/>
		<path class="st1" d="M111.8,103.2c19-22.8,18-55.7-1.2-77.2l0,0c0,0,42.9,79.4-76.1,109.9C60.8,139.2,95.5,122.6,111.8,103.2z"/>
	</g>
	<path class="st2" d="M36.6,32C25.8,41.9,20.7,53.9,17,49.9c-3.7-4.1,2.1-15.4,12.9-25.2s22.6-14.6,26.3-10.6
		C59.9,18.1,47.4,22.1,36.6,32z"/>
	<g>
		<rect x="9.5" y="47.7" class="st3" width="107.2" height="75.3"/>
		<g class="st4">
			<path class="st5" d="M32,64.1c-2.4,0-4.3-0.8-5.9-2.3c-1.6-1.5-2.3-3.5-2.3-6c0-2.3,0.8-4.3,2.3-5.9c1.5-1.6,3.5-2.4,5.9-2.4
				c2.3,0,4.3,0.8,5.9,2.3c1.5,1.5,2.3,3.5,2.3,6c0,2.4-0.8,4.3-2.3,5.9C36.3,63.3,34.3,64.1,32,64.1z M32,49.3
				c-1.8,0-3.2,0.6-4.4,1.8c-1.2,1.2-1.7,2.8-1.7,4.6c0,1.8,0.6,3.4,1.8,4.6c1.2,1.2,2.6,1.9,4.4,1.9c1.8,0,3.3-0.6,4.4-1.8
				c1.1-1.2,1.7-2.8,1.7-4.6c0-1.9-0.6-3.4-1.8-4.6C35.2,50,33.7,49.3,32,49.3z"/>
			<path class="st5" d="M50.7,63.8h-8.4v1.7c0,0.2-0.1,0.5-0.3,0.6c-0.2,0.2-0.4,0.3-0.6,0.3c-0.2,0-0.5-0.1-0.6-0.3
				c-0.2-0.2-0.3-0.4-0.3-0.6V63c0-0.2,0.1-0.5,0.3-0.6c0.2-0.2,0.4-0.3,0.6-0.3h0.4c0.4-0.5,0.7-1.2,1-2.3c0.3-1.1,0.5-2.3,0.6-3.6
				l0.1-1.9c0-0.2,0.1-0.5,0.3-0.6s0.4-0.3,0.6-0.3h5.3c0.2,0,0.5,0.1,0.6,0.3c0.2,0.2,0.3,0.4,0.3,0.6v7.8h0.9
				c0.2,0,0.5,0.1,0.6,0.3s0.3,0.4,0.3,0.6v2.5c0,0.2-0.1,0.5-0.3,0.6c-0.2,0.2-0.4,0.3-0.6,0.3c-0.2,0-0.5-0.1-0.6-0.3
				c-0.2-0.2-0.3-0.4-0.3-0.6V63.8z M43.9,62.1h5v-6.9h-3.5l-0.1,1.7c-0.1,1.2-0.3,2.2-0.6,3.2C44.5,61,44.2,61.7,43.9,62.1z"/>
			<path class="st5" d="M63.8,58c0,0.3,0,0.4,0,0.5c0,0.2-0.1,0.4-0.3,0.5c-0.2,0.2-0.3,0.2-0.5,0.2h-7.3c0.1,1,0.4,1.7,1.1,2.3
				s1.5,0.8,2.5,0.8c1,0,1.8-0.2,2.5-0.6c0.2-0.1,0.3-0.1,0.5-0.1c0.2,0,0.4,0.1,0.6,0.3c0.1,0.1,0.1,0.2,0.1,0.4
				c0,0.3-0.1,0.5-0.3,0.6c-1.1,0.8-2.3,1.2-3.7,1.2c-1.7,0-3-0.5-4-1.5c-1-1-1.5-2.3-1.5-3.9c0-1.5,0.5-2.8,1.4-3.9
				c1-1,2.3-1.5,3.9-1.5c1.4,0,2.5,0.4,3.4,1.3C63.3,55.5,63.8,56.6,63.8,58z M55.6,57.7h6.3c0-0.9-0.3-1.5-0.9-2
				c-0.5-0.5-1.2-0.7-2.1-0.7c-0.9,0-1.7,0.3-2.2,0.8S55.7,56.9,55.6,57.7z"/>
			<path class="st5" d="M69.8,59.2l-3,4.3c-0.2,0.3-0.5,0.5-0.9,0.5c-0.3,0-0.5-0.1-0.6-0.3c-0.2-0.2-0.2-0.4-0.2-0.6
				c0-0.2,0.1-0.4,0.2-0.6l3-4.1l-2.8-3.7c-0.1-0.2-0.2-0.3-0.2-0.5c0-0.2,0.1-0.5,0.3-0.6c0.2-0.2,0.4-0.3,0.7-0.3
				c0.3,0,0.6,0.2,0.9,0.5l2.7,3.9c0.2,0.2,0.2,0.4,0.2,0.7C70.1,58.8,70,59,69.8,59.2z M72.7,54.2v8.9c0,0.4-0.1,0.6-0.4,0.7
				s-0.6,0.1-1,0s-0.5-0.4-0.4-0.7v-8.9c0-0.4,0.1-0.6,0.4-0.7c0.3-0.1,0.6-0.1,1,0C72.5,53.6,72.7,53.9,72.7,54.2z M76.7,63.5
				l-3.1-4.3c-0.3-0.5-0.3-1,0-1.4l2.8-3.9c0.2-0.3,0.5-0.5,0.9-0.5c0.3,0,0.5,0.1,0.7,0.3c0.2,0.2,0.3,0.4,0.3,0.6
				c0,0.2-0.1,0.4-0.2,0.6l-2.8,3.7l3.1,4c0.1,0.2,0.2,0.4,0.2,0.6c0,0.2-0.1,0.5-0.2,0.6c-0.2,0.2-0.4,0.3-0.6,0.3
				C77.2,64,76.9,63.8,76.7,63.5z"/>
			<path class="st5" d="M89.5,63.8h-8.4v1.7c0,0.2-0.1,0.5-0.3,0.6c-0.2,0.2-0.4,0.3-0.6,0.3c-0.2,0-0.5-0.1-0.6-0.3
				c-0.2-0.2-0.3-0.4-0.3-0.6V63c0-0.2,0.1-0.5,0.3-0.6c0.2-0.2,0.4-0.3,0.6-0.3h0.4c0.4-0.5,0.7-1.2,1-2.3s0.5-2.3,0.6-3.6l0.1-1.9
				c0-0.2,0.1-0.5,0.3-0.6c0.2-0.2,0.4-0.3,0.6-0.3h5.3c0.2,0,0.5,0.1,0.6,0.3s0.3,0.4,0.3,0.6v7.8h0.9c0.2,0,0.5,0.1,0.6,0.3
				s0.3,0.4,0.3,0.6v2.5c0,0.2-0.1,0.5-0.3,0.6c-0.2,0.2-0.4,0.3-0.6,0.3c-0.2,0-0.5-0.1-0.6-0.3c-0.2-0.2-0.3-0.4-0.3-0.6V63.8z
				 M82.7,62.1h5v-6.9h-3.5l-0.1,1.7c-0.1,1.2-0.3,2.2-0.6,3.2C83.2,61,82.9,61.7,82.7,62.1z"/>
			<path class="st5" d="M92.4,60.8c0-1,0.4-1.8,1.1-2.4c0.7-0.6,1.7-0.9,2.8-0.9c1.1,0,1.9,0.2,2.6,0.7c0-1.2-0.2-2-0.5-2.5
				s-0.9-0.8-1.9-0.8c-0.7,0-1.4,0.1-2.1,0.4c-0.1,0-0.2,0.1-0.3,0.1c-0.3,0-0.6-0.2-0.7-0.5c0-0.1-0.1-0.2-0.1-0.3
				c0-0.4,0.2-0.6,0.5-0.7c1-0.4,1.9-0.6,2.9-0.6c1.4,0,2.4,0.3,3,1c0.6,0.7,0.9,1.8,0.9,3.2v5.7c0,0.2-0.1,0.4-0.3,0.6
				c-0.2,0.2-0.4,0.2-0.6,0.2s-0.5-0.1-0.6-0.2c-0.2-0.2-0.3-0.3-0.3-0.6v-0.7c-0.8,1-1.9,1.5-3.3,1.5c-1,0-1.7-0.3-2.3-0.9
				C92.7,62.6,92.4,61.8,92.4,60.8z M98.9,61v-1.3c-0.6-0.5-1.4-0.7-2.3-0.7c-0.6,0-1.2,0.1-1.6,0.4c-0.4,0.3-0.6,0.7-0.6,1.3
				c0,0.5,0.2,0.9,0.5,1.2s0.8,0.4,1.4,0.4C97.2,62.3,98.1,61.9,98.9,61z"/>
		</g>
		<g class="st4">
			<path class="st5" d="M51.1,90.6V78.4l-4.8,6.8c-0.3,0.4-0.7,0.6-1,0.6s-0.7-0.2-1-0.6l-4.9-6.7v12.1c0,0.3-0.1,0.5-0.3,0.7
				c-0.2,0.2-0.4,0.3-0.7,0.3c-0.3,0-0.5-0.1-0.7-0.3c-0.2-0.2-0.3-0.4-0.3-0.7V76.5c0-0.4,0.1-0.7,0.3-0.9c0.2-0.2,0.5-0.3,0.8-0.3
				c0.5,0,0.9,0.2,1.3,0.7l5.6,7.6l5.4-7.7c0.3-0.4,0.7-0.7,1.1-0.7c0.3,0,0.6,0.1,0.8,0.3S53,76,53,76.3v14.3
				c0,0.3-0.1,0.5-0.3,0.7c-0.2,0.2-0.4,0.3-0.7,0.3c-0.3,0-0.5-0.1-0.7-0.3C51.2,91.1,51.1,90.9,51.1,90.6z"/>
			<path class="st5" d="M57.9,90.1c-1-1-1.5-2.3-1.5-3.9c0-1.6,0.5-2.9,1.5-3.9c1-1,2.3-1.5,4-1.5c1.6,0,3,0.5,4,1.5
				c1,1,1.5,2.3,1.5,3.9c0,1.6-0.5,2.9-1.5,3.9c-1,1-2.4,1.5-4,1.5S59,91.2,57.9,90.1z M58.4,86.3c0,1.1,0.3,2,1,2.6
				c0.7,0.7,1.5,1,2.6,1c1,0,1.9-0.3,2.6-1c0.7-0.7,1-1.6,1-2.7c0-1.1-0.3-2-1-2.6c-0.7-0.7-1.5-1-2.6-1c-1,0-1.9,0.3-2.6,1
				C58.7,84.3,58.4,85.2,58.4,86.3z"/>
			<path class="st5" d="M78.3,91.4H70v1.7c0,0.2-0.1,0.5-0.3,0.6c-0.2,0.2-0.4,0.3-0.6,0.3c-0.2,0-0.5-0.1-0.6-0.3
				c-0.2-0.2-0.3-0.4-0.3-0.6v-2.5c0-0.2,0.1-0.5,0.3-0.6c0.2-0.2,0.4-0.3,0.6-0.3h0.4c0.4-0.5,0.7-1.2,1-2.3
				c0.3-1.1,0.5-2.3,0.6-3.6l0.1-1.9c0-0.2,0.1-0.5,0.3-0.6c0.2-0.2,0.4-0.3,0.6-0.3h5.3c0.2,0,0.5,0.1,0.6,0.3
				c0.2,0.2,0.3,0.4,0.3,0.6v7.8h0.9c0.2,0,0.5,0.1,0.6,0.3s0.3,0.4,0.3,0.6v2.5c0,0.2-0.1,0.5-0.3,0.6c-0.2,0.2-0.4,0.3-0.6,0.3
				c-0.2,0-0.5-0.1-0.6-0.3c-0.2-0.2-0.3-0.4-0.3-0.6V91.4z M71.5,89.7h5v-6.9H73l-0.1,1.7c-0.1,1.2-0.3,2.2-0.6,3.2
				C72,88.6,71.8,89.3,71.5,89.7z"/>
			<path class="st5" d="M81.2,88.4c0-1,0.4-1.8,1.1-2.4c0.7-0.6,1.7-0.9,2.8-0.9c1.1,0,1.9,0.2,2.6,0.7c0-1.2-0.2-2-0.5-2.5
				c-0.3-0.5-0.9-0.8-1.9-0.8c-0.7,0-1.4,0.1-2.1,0.4C83.1,83,83,83,82.9,83c-0.3,0-0.6-0.2-0.7-0.5c0-0.1-0.1-0.2-0.1-0.3
				c0-0.4,0.2-0.6,0.5-0.7c1-0.4,1.9-0.6,2.9-0.6c1.4,0,2.4,0.3,3,1c0.6,0.7,0.9,1.8,0.9,3.2v5.7c0,0.2-0.1,0.4-0.3,0.6
				c-0.2,0.2-0.4,0.2-0.6,0.2s-0.5-0.1-0.6-0.2c-0.2-0.2-0.3-0.3-0.3-0.6v-0.7c-0.8,1-1.9,1.5-3.3,1.5c-1,0-1.7-0.3-2.3-0.9
				C81.5,90.2,81.2,89.4,81.2,88.4z M87.7,88.6v-1.3c-0.6-0.5-1.4-0.7-2.3-0.7c-0.6,0-1.2,0.1-1.6,0.4c-0.4,0.3-0.6,0.7-0.6,1.3
				c0,0.5,0.2,0.9,0.5,1.2c0.3,0.3,0.8,0.4,1.4,0.4C86,89.9,86.9,89.5,87.7,88.6z"/>
		</g>
	</g>
</g>
<g id="B7">
</g>
<g id="B8">
</g>
<g id="B9">
</g>
<g id="B10">
</g>
<g id="B11">
</g>
<g id="B12">
</g>
<g id="B13">
</g>
<g id="B14">
</g>
<g id="B15">
</g>
<g id="Head">
</g>
<g id="B16">
</g>
<g id="B17">
</g>
<g id="B18">
</g>
<g id="B19">
</g>
<g id="B20">
</g>
<g id="B21">
</g>
<g id="B22">
</g>
<g id="B23">
</g>
<g id="B24">
</g>
<g id="B25">
</g>
<g id="B26">
</g>
<g id="B27">
</g>
<g id="B28">
</g>
<g id="B29">
</g>
<g id="B30">
</g>
<g id="B31">
</g>
<g id="B32">
</g>
<g id="B33">
</g>
</svg>
