<?xml version="1.0" encoding="utf-8"?>
<!-- Generator: Adobe Illustrator 22.1.0, SVG Export Plug-In . SVG Version: 6.00 Build 0)  -->
<svg version="1.1" id="Слой_1" xmlns="http://www.w3.org/2000/svg" xmlns:xlink="http://www.w3.org/1999/xlink" x="0px" y="0px"
	 viewBox="0 0 219 213" style="enable-background:new 0 0 219 213;" xml:space="preserve">
<style type="text/css">
	.st0{fill:#A7A6F6;}
	.st1{fill:#A099E9;}
	.st2{fill:none;}
	.st3{enable-background:new    ;}
	.st4{fill:#252835;}
	.st5{fill:#BEBEFC;}
</style>
<g id="Sky">
</g>
<g id="Clouds">
</g>
<g id="Button">
</g>
<g id="B_1">
	<path class="st0" d="M180.1,171.7C141.3,204.3,57,221.4,24.4,182.6s-1-118.8,37.8-151.4s96.6-27.5,129.2,11.3
		S218.9,139.2,180.1,171.7z"/>
	<polygon class="st1" points="29.2,178.7 4.4,182.1 21.5,202.5 	"/>
	<path class="st1" d="M180.1,171.7c35.3-29.7,42.7-80.3,19.1-118.4l0,0c0,0,44,133.1-146.4,147.3C92.3,213,150,197,180.1,171.7z"/>
	<g>
		<rect x="19.5" y="110.4" class="st2" width="183.8" height="30.9"/>
		<g class="st3">
			<path class="st4" d="M22.8,110.4h10.7c0.3,0,0.5,0.1,0.7,0.3s0.3,0.4,0.3,0.7v14.3c0,0.3-0.1,0.5-0.3,0.7s-0.4,0.3-0.7,0.3
				c-0.3,0-0.5-0.1-0.7-0.3c-0.2-0.2-0.3-0.4-0.3-0.7v-13.5h-8.7v13.5c0,0.3-0.1,0.5-0.3,0.7c-0.2,0.2-0.4,0.3-0.7,0.3
				c-0.3,0-0.5-0.1-0.7-0.3c-0.2-0.2-0.3-0.4-0.3-0.7v-14.3c0-0.3,0.1-0.5,0.3-0.7C22.4,110.5,22.6,110.4,22.8,110.4z"/>
			<path class="st4" d="M40.4,126v4.2c0,0.4-0.1,0.6-0.4,0.7c-0.3,0.1-0.6,0.1-1,0c-0.3-0.1-0.5-0.4-0.4-0.7v-13.3
				c0-0.4,0.1-0.6,0.4-0.7c0.3-0.1,0.6-0.1,1,0c0.3,0.1,0.5,0.4,0.4,0.7v0.5c0.4-0.4,0.9-0.8,1.5-1s1.3-0.4,2-0.4
				c1.5,0,2.6,0.5,3.5,1.4c0.9,1,1.3,2.3,1.3,3.8c0,1.6-0.5,2.9-1.5,4c-1,1.1-2.3,1.6-3.9,1.6C42.1,126.7,41.1,126.5,40.4,126z
				 M40.4,119v5.1c0.8,0.5,1.7,0.8,2.8,0.8c1.1,0,2-0.3,2.6-1c0.7-0.7,1-1.6,1-2.7c0-1.1-0.3-2-0.9-2.6c-0.6-0.7-1.4-1-2.5-1
				C42.2,117.6,41.2,118.1,40.4,119z"/>
			<path class="st4" d="M52.2,125.2c-1-1-1.5-2.3-1.5-3.9s0.5-2.9,1.5-3.9c1-1,2.3-1.5,4-1.5c1.6,0,3,0.5,4,1.5c1,1,1.5,2.3,1.5,3.9
				c0,1.6-0.5,2.9-1.5,3.9c-1,1-2.4,1.5-4,1.5S53.3,126.2,52.2,125.2z M52.7,121.3c0,1.1,0.3,2,1,2.6c0.7,0.7,1.5,1,2.6,1
				c1,0,1.9-0.3,2.6-1c0.7-0.7,1-1.6,1-2.7c0-1.1-0.3-2-1-2.6s-1.5-1-2.6-1c-1,0-1.9,0.3-2.6,1C53,119.3,52.7,120.2,52.7,121.3z"/>
			<path class="st4" d="M69.2,122.8l-3-3.7v6.7c0,0.4-0.1,0.6-0.4,0.7c-0.3,0.1-0.6,0.1-1,0c-0.3-0.1-0.5-0.4-0.4-0.7v-8.9
				c0-0.2,0.1-0.5,0.3-0.6c0.2-0.2,0.4-0.3,0.6-0.3c0.2,0,0.4,0.1,0.6,0.2c0.2,0.1,0.4,0.4,0.7,0.7l3.5,4.3l3.3-4.4
				c0.4-0.6,0.8-0.8,1.2-0.8c0.2,0,0.5,0.1,0.6,0.3c0.2,0.2,0.3,0.4,0.3,0.6v8.9c0,0.4-0.1,0.6-0.4,0.7c-0.3,0.1-0.6,0.1-1,0
				c-0.3-0.1-0.5-0.4-0.4-0.7v-6.7l-2.9,3.7c-0.2,0.2-0.4,0.4-0.7,0.4C69.7,123.2,69.4,123,69.2,122.8z"/>
			<path class="st4" d="M80.6,116.9v2.3h1.7c1.4,0,2.4,0.3,3.1,1c0.7,0.6,1,1.5,1,2.6c0,1.1-0.4,2-1.1,2.7c-0.7,0.7-1.8,1-3.2,1
				h-2.5c-0.2,0-0.5-0.1-0.6-0.3c-0.2-0.2-0.3-0.4-0.3-0.6v-8.7c0-0.4,0.1-0.6,0.4-0.7c0.3-0.1,0.6-0.1,1,0
				C80.5,116.3,80.6,116.5,80.6,116.9z M80.6,121v3.8h1.3c0.9,0,1.5-0.2,1.9-0.5c0.4-0.3,0.6-0.8,0.6-1.4c0-1.3-0.8-1.9-2.5-1.9
				H80.6z M90.2,116.9v8.9c0,0.4-0.1,0.6-0.4,0.7c-0.3,0.1-0.6,0.1-1,0c-0.3-0.1-0.5-0.4-0.4-0.7v-8.9c0-0.4,0.1-0.6,0.4-0.7
				c0.3-0.1,0.6-0.1,1,0C90.1,116.3,90.2,116.5,90.2,116.9z"/>
			<path class="st4" d="M106.6,116.9v8.7c0,0.2-0.1,0.5-0.3,0.6c-0.2,0.2-0.4,0.3-0.6,0.3H94.4c-0.2,0-0.5-0.1-0.6-0.3
				c-0.2-0.2-0.3-0.4-0.3-0.6v-8.7c0-0.4,0.1-0.6,0.4-0.7c0.3-0.1,0.6-0.1,1,0c0.3,0.1,0.5,0.4,0.4,0.7v7.9h3.8v-7.9
				c0-0.4,0.1-0.6,0.4-0.7c0.3-0.1,0.6-0.1,1,0c0.3,0.1,0.5,0.4,0.4,0.7v7.9h3.8v-7.9c0-0.4,0.1-0.6,0.4-0.7c0.3-0.1,0.6-0.1,1,0
				C106.5,116.3,106.6,116.5,106.6,116.9z"/>
			<path class="st4" d="M118.7,117v8.8c0,0.4-0.1,0.6-0.4,0.7c-0.3,0.1-0.6,0.1-1,0c-0.3-0.1-0.5-0.4-0.4-0.7V118h-3.6l-0.1,1.7
				c-0.1,2.3-0.5,4-1.2,5.2s-1.4,1.7-2.3,1.7c-0.3,0-0.5-0.1-0.7-0.2c-0.2-0.2-0.3-0.4-0.3-0.6c0-0.4,0.2-0.7,0.7-0.9
				c0.5-0.2,1-0.7,1.2-1.5c0.3-0.8,0.5-2.1,0.6-4l0.1-2.3c0-0.2,0.1-0.5,0.3-0.6c0.2-0.2,0.4-0.3,0.6-0.3h5.5c0.2,0,0.5,0.1,0.6,0.3
				C118.6,116.5,118.7,116.8,118.7,117z"/>
			<path class="st4" d="M131.5,120.6c0,0.3,0,0.4,0,0.5c0,0.2-0.1,0.4-0.3,0.5c-0.2,0.2-0.3,0.2-0.5,0.2h-7.3c0.1,1,0.4,1.7,1.1,2.3
				c0.7,0.6,1.5,0.8,2.5,0.8c1,0,1.8-0.2,2.5-0.6c0.2-0.1,0.3-0.1,0.5-0.1c0.2,0,0.4,0.1,0.6,0.3c0.1,0.1,0.1,0.2,0.1,0.4
				c0,0.3-0.1,0.5-0.3,0.6c-1.1,0.8-2.3,1.2-3.7,1.2c-1.7,0-3-0.5-4-1.5c-1-1-1.5-2.3-1.5-3.9c0-1.5,0.5-2.8,1.4-3.9
				c1-1,2.3-1.5,3.9-1.5c1.4,0,2.5,0.4,3.4,1.3C131,118.1,131.5,119.2,131.5,120.6z M123.3,120.4h6.3c0-0.9-0.3-1.5-0.9-2
				s-1.2-0.7-2.1-0.7c-0.9,0-1.7,0.3-2.2,0.8C123.7,118.9,123.4,119.5,123.3,120.4z"/>
			<path class="st4" d="M143.5,116.9v8.9c0,0.4-0.1,0.6-0.4,0.7c-0.3,0.1-0.6,0.1-1,0c-0.3-0.1-0.5-0.4-0.4-0.7v-3.7h-5.8v3.7
				c0,0.4-0.1,0.6-0.4,0.7c-0.3,0.1-0.6,0.1-1,0c-0.3-0.1-0.5-0.4-0.4-0.7v-8.9c0-0.4,0.1-0.6,0.4-0.7c0.3-0.1,0.6-0.1,1,0
				c0.3,0.1,0.5,0.4,0.4,0.7v3.5h5.8v-3.5c0-0.4,0.1-0.6,0.4-0.7c0.3-0.1,0.6-0.1,1,0C143.4,116.3,143.5,116.5,143.5,116.9z"/>
			<path class="st4" d="M156.2,116.9v8.9c0,0.4-0.1,0.6-0.4,0.7c-0.3,0.1-0.6,0.1-1,0c-0.3-0.1-0.5-0.4-0.4-0.7v-3.7h-5.8v3.7
				c0,0.4-0.1,0.6-0.4,0.7c-0.3,0.1-0.6,0.1-1,0c-0.3-0.1-0.5-0.4-0.4-0.7v-8.9c0-0.4,0.1-0.6,0.4-0.7c0.3-0.1,0.6-0.1,1,0
				c0.3,0.1,0.5,0.4,0.4,0.7v3.5h5.8v-3.5c0-0.4,0.1-0.6,0.4-0.7c0.3-0.1,0.6-0.1,1,0C156.1,116.3,156.3,116.5,156.2,116.9z"/>
			<path class="st4" d="M160.4,125.2c-1-1-1.5-2.3-1.5-3.9s0.5-2.9,1.5-3.9c1-1,2.3-1.5,4-1.5c1.6,0,3,0.5,4,1.5
				c1,1,1.5,2.3,1.5,3.9c0,1.6-0.5,2.9-1.5,3.9c-1,1-2.4,1.5-4,1.5C162.7,126.7,161.4,126.2,160.4,125.2z M160.8,121.3
				c0,1.1,0.3,2,1,2.6c0.7,0.7,1.5,1,2.6,1c1,0,1.9-0.3,2.6-1c0.7-0.7,1-1.6,1-2.7c0-1.1-0.3-2-1-2.6s-1.5-1-2.6-1
				c-1,0-1.9,0.3-2.6,1S160.8,120.2,160.8,121.3z"/>
			<path class="st4" d="M179.6,118.2c-0.8-0.4-1.5-0.6-2.3-0.6c-1,0-1.8,0.3-2.5,1c-0.7,0.7-1.1,1.6-1.1,2.6c0,1.1,0.4,2,1.1,2.7
				c0.7,0.7,1.6,1,2.6,1c0.9,0,1.6-0.2,2.2-0.7c0.2-0.2,0.5-0.3,0.7-0.3c0.2,0,0.4,0.1,0.5,0.2c0.2,0.2,0.3,0.4,0.3,0.6
				c0,0.3-0.1,0.5-0.3,0.6c-1,0.9-2.2,1.3-3.6,1.3c-1.6,0-3-0.5-4-1.5c-1-1-1.5-2.3-1.5-3.9c0-1.5,0.5-2.8,1.5-3.8s2.2-1.6,3.7-1.6
				c1.3,0,2.4,0.3,3.4,0.8c0.3,0.2,0.5,0.4,0.5,0.8c0,0.2,0,0.3-0.1,0.4c-0.2,0.3-0.4,0.4-0.8,0.4
				C179.9,118.3,179.7,118.3,179.6,118.2z"/>
			<path class="st4" d="M187.7,118v7.8c0,0.4-0.1,0.6-0.4,0.7c-0.3,0.1-0.6,0.1-1,0c-0.3-0.1-0.5-0.4-0.4-0.7V118h-2.9
				c-0.4,0-0.6-0.1-0.7-0.4c-0.1-0.3-0.1-0.6,0-1c0.1-0.3,0.4-0.5,0.7-0.4h7.7c0.4,0,0.6,0.1,0.7,0.4s0.1,0.6,0,1s-0.4,0.5-0.7,0.4
				H187.7z"/>
			<path class="st4" d="M195.3,116.9v2.3h1.9c1.4,0,2.4,0.3,3.1,1c0.7,0.6,1,1.5,1,2.6c0,1.1-0.4,2-1.1,2.7c-0.7,0.7-1.8,1-3.2,1
				h-2.6c-0.2,0-0.5-0.1-0.6-0.3c-0.2-0.2-0.3-0.4-0.3-0.6v-8.7c0-0.4,0.1-0.6,0.4-0.7c0.3-0.1,0.6-0.1,1,0
				C195.2,116.3,195.4,116.5,195.3,116.9z M195.3,121v3.8h1.5c1.7,0,2.5-0.6,2.5-1.9c0-1.3-0.8-1.9-2.5-1.9H195.3z"/>
		</g>
	</g>
	<path class="st5" d="M82.5,52.2C58.1,70,44.7,93.1,38.3,84.3c-6.4-8.8,8.2-30.3,32.6-48s49.4-24.9,55.8-16.1S107,34.5,82.5,52.2z"
		/>
</g>
<g id="B2">
</g>
<g id="B3">
</g>
<g id="B4">
</g>
<g id="B5">
</g>
<g id="B6">
</g>
<g id="B7">
</g>
<g id="B8">
</g>
<g id="B9">
</g>
<g id="B10">
</g>
<g id="B11">
</g>
<g id="B12">
</g>
<g id="B13">
</g>
<g id="B14">
</g>
<g id="B15">
</g>
<g id="Head">
</g>
<g id="B16">
</g>
<g id="B17">
</g>
<g id="B18">
</g>
<g id="B19">
</g>
<g id="B20">
</g>
<g id="B21">
</g>
<g id="B22">
</g>
<g id="B23">
</g>
<g id="B24">
</g>
<g id="B25">
</g>
<g id="B26">
</g>
<g id="B27">
</g>
<g id="B28">
</g>
<g id="B29">
</g>
<g id="B30">
</g>
<g id="B31">
</g>
<g id="B32">
</g>
<g id="B33">
</g>
</svg>
