<?xml version="1.0" encoding="utf-8"?>
<!-- Generator: Adobe Illustrator 22.1.0, SVG Export Plug-In . SVG Version: 6.00 Build 0)  -->
<svg version="1.1" id="Слой_1" xmlns="http://www.w3.org/2000/svg" xmlns:xlink="http://www.w3.org/1999/xlink" x="0px" y="0px"
	 viewBox="0 0 104 101" style="enable-background:new 0 0 104 101;" xml:space="preserve">
<style type="text/css">
	.st0{fill:#75AEB9;}
	.st1{fill:#4E9DA3;}
	.st2{fill:#91BEC7;}
	.st3{fill:none;}
	.st4{enable-background:new    ;}
	.st5{fill:#252835;}
</style>
<g id="Sky">
</g>
<g id="Clouds">
</g>
<g id="Button">
</g>
<g id="B_1">
</g>
<g id="B2">
</g>
<g id="B3">
</g>
<g id="B4">
</g>
<g id="B5">
</g>
<g id="B6">
</g>
<g id="B7">
</g>
<g id="B8">
</g>
<g id="B9">
</g>
<g id="B10">
</g>
<g id="B11">
</g>
<g id="B12">
</g>
<g id="B13">
</g>
<g id="B14">
</g>
<g id="B15">
</g>
<g id="Head">
</g>
<g id="B16">
</g>
<g id="B17">
</g>
<g id="B18">
</g>
<g id="B19">
</g>
<g id="B20">
</g>
<g id="B21">
</g>
<g id="B22">
</g>
<g id="B23">
</g>
<g id="B24">
	<g>
		<path class="st0" d="M85.2,77c-16.7,16-54.6,26.3-70.6,9.6s-4-54.1,12.7-70.1s43.2-15.4,59.2,1.3S101.9,61,85.2,77z"/>
		<polygon class="st1" points="16.6,84.6 5.4,87 13.8,95.7 		"/>
		<path class="st1" d="M85.2,77c15.2-14.6,17.1-37.9,5.2-54.5l0,0c0,0,24,59.4-62.3,71.5C46.4,98.4,72.2,89.4,85.2,77z"/>
	</g>
	<path class="st2" d="M42.5,22.5c-10,5.7-15.7,14.7-18.2,10.3C21.8,28.4,28,20.3,38,14.6s20.2-6.8,22.6-2.4
		C63.1,16.5,52.5,16.8,42.5,22.5z"/>
	<g>
		<rect x="21.2" y="41.9" class="st3" width="87.7" height="30.9"/>
		<g class="st4">
			<path class="st5" d="M34.2,44.4c-0.2,0-0.4,0-0.6-0.1c-0.9-0.5-2-0.7-3.3-0.7c-1.7,0-3.2,0.6-4.3,1.8c-1.1,1.2-1.7,2.7-1.7,4.6
				c0,1.9,0.6,3.5,1.7,4.6c1.2,1.2,2.7,1.8,4.5,1.8c1.2,0,2.4-0.3,3.3-0.9c0.2-0.1,0.3-0.2,0.6-0.2c0.3,0,0.5,0.1,0.7,0.3
				c0.1,0.1,0.2,0.3,0.2,0.5c0,0.3-0.1,0.6-0.4,0.8c-1.3,0.9-2.8,1.3-4.5,1.3c-2.4,0-4.4-0.8-5.9-2.3c-1.5-1.5-2.3-3.5-2.3-6
				c0-2.4,0.7-4.3,2.2-5.9c1.5-1.6,3.4-2.3,5.8-2.3c1.6,0,3.1,0.4,4.2,1.1c0.3,0.2,0.5,0.5,0.5,0.8c0,0.2,0,0.3-0.1,0.4
				C34.8,44.3,34.5,44.4,34.2,44.4z"/>
			<path class="st5" d="M47,48.5v8.8c0,0.4-0.1,0.6-0.4,0.7c-0.3,0.1-0.6,0.1-1,0c-0.3-0.1-0.5-0.4-0.4-0.7v-7.9h-5.6v7.9
				c0,0.4-0.1,0.6-0.4,0.7c-0.3,0.1-0.6,0.1-1,0c-0.3-0.1-0.5-0.4-0.4-0.7v-8.8c0-0.2,0.1-0.5,0.3-0.6c0.2-0.2,0.4-0.3,0.6-0.3h7.6
				c0.2,0,0.5,0.1,0.6,0.3C46.9,48.1,47,48.3,47,48.5z"/>
			<path class="st5" d="M51.2,56.7c-1-1-1.5-2.3-1.5-3.9c0-1.6,0.5-2.9,1.5-3.9c1-1,2.3-1.5,4-1.5c1.6,0,3,0.5,4,1.5
				c1,1,1.5,2.3,1.5,3.9c0,1.6-0.5,2.9-1.5,3.9c-1,1-2.4,1.5-4,1.5S52.2,57.7,51.2,56.7z M51.6,52.8c0,1.1,0.3,2,1,2.6
				c0.7,0.7,1.5,1,2.6,1c1,0,1.9-0.3,2.6-1c0.7-0.7,1-1.6,1-2.7c0-1.1-0.3-2-1-2.6c-0.7-0.7-1.5-1-2.6-1c-1,0-1.9,0.3-2.6,1
				C51.9,50.9,51.6,51.7,51.6,52.8z"/>
			<path class="st5" d="M65.1,57.5v4.2c0,0.4-0.1,0.6-0.4,0.7c-0.3,0.1-0.6,0.1-1,0c-0.3-0.1-0.5-0.4-0.4-0.7V48.4
				c0-0.4,0.1-0.6,0.4-0.7c0.3-0.1,0.6-0.1,1,0c0.3,0.1,0.5,0.4,0.4,0.7v0.5c0.4-0.4,0.9-0.8,1.5-1c0.6-0.3,1.3-0.4,2-0.4
				c1.5,0,2.6,0.5,3.5,1.4c0.9,1,1.3,2.3,1.3,3.8c0,1.6-0.5,2.9-1.5,4c-1,1.1-2.3,1.6-3.9,1.6C66.8,58.2,65.8,58,65.1,57.5z
				 M65.1,50.6v5.1c0.8,0.5,1.7,0.8,2.8,0.8c1.1,0,2-0.3,2.6-1c0.7-0.7,1-1.6,1-2.7c0-1.1-0.3-2-0.9-2.6c-0.6-0.7-1.4-1-2.5-1
				C66.9,49.1,65.9,49.6,65.1,50.6z"/>
			<path class="st5" d="M80,49.5v7.8c0,0.4-0.1,0.6-0.4,0.7s-0.6,0.1-1,0c-0.3-0.1-0.5-0.4-0.4-0.7v-7.8h-2.9
				c-0.4,0-0.6-0.1-0.7-0.4c-0.1-0.3-0.1-0.6,0-1c0.1-0.3,0.4-0.5,0.7-0.4h7.7c0.4,0,0.6,0.1,0.7,0.4c0.1,0.3,0.1,0.6,0,1
				c-0.1,0.3-0.4,0.5-0.7,0.4H80z"/>
		</g>
	</g>
</g>
<g id="B25">
</g>
<g id="B26">
</g>
<g id="B27">
</g>
<g id="B28">
</g>
<g id="B29">
</g>
<g id="B30">
</g>
<g id="B31">
</g>
<g id="B32">
</g>
<g id="B33">
</g>
</svg>
