<?xml version="1.0" encoding="utf-8"?>
<!-- Generator: Adobe Illustrator 22.1.0, SVG Export Plug-In . SVG Version: 6.00 Build 0)  -->
<svg version="1.1" id="Слой_1" xmlns="http://www.w3.org/2000/svg" xmlns:xlink="http://www.w3.org/1999/xlink" x="0px" y="0px"
	 viewBox="0 0 150 157" style="enable-background:new 0 0 150 157;" xml:space="preserve">
<style type="text/css">
	.st0{fill:#E9CA25;}
	.st1{fill:#FFDF57;}
	.st2{fill:#F9E698;}
	.st3{fill:none;}
	.st4{enable-background:new    ;}
	.st5{fill:#313547;}
</style>
<g id="Sky">
</g>
<g id="Cluds">
</g>
<g id="Button">
</g>
<g id="Bubble1">
</g>
<g id="Bubble2">
</g>
<g id="B1">
</g>
<g id="B2">
</g>
<g id="B3">
	<polygon class="st0" points="26.3,137.9 13.4,142.4 24.8,151.5 	"/>
	<g>
		<g>
			<path class="st1" d="M131.9,111.2c-22,27.8-77.3,51.4-105,29.4s-17.4-81.2,4.5-109s62.3-32.4,90.1-10.5S153.9,83.5,131.9,111.2z"
				/>
			<path class="st2" d="M58.8,36.8c-17.1,9.7-26.8,25.1-31,17.6C23.5,46.9,34,33,51.1,23.3s34.4-11.6,38.7-4.1S75.9,27,58.8,36.8z"
				/>
			<path class="st0" d="M46.4,148.7C166.2,124.4,130,29.3,130,29.3s34.4,37.3,1.9,81.9S46.4,148.7,46.4,148.7z"/>
		</g>
		<g>
			<rect x="14.5" y="73.2" class="st3" width="128.8" height="30.9"/>
			<g class="st4">
				<path class="st5" d="M27.1,75h-4.7v13.5c0,0.3-0.1,0.5-0.3,0.7c-0.2,0.2-0.4,0.3-0.7,0.3c-0.3,0-0.5-0.1-0.7-0.3
					c-0.2-0.2-0.3-0.4-0.3-0.7V75h-4.7c-0.2,0-0.5-0.1-0.6-0.3c-0.2-0.2-0.3-0.4-0.3-0.6s0.1-0.5,0.3-0.6c0.2-0.2,0.4-0.3,0.6-0.3
					h11.4c0.2,0,0.5,0.1,0.6,0.3c0.2,0.2,0.3,0.4,0.3,0.6s-0.1,0.5-0.3,0.6C27.6,74.9,27.3,75,27.1,75z"/>
				<path class="st5" d="M36.3,83.4c0,0.3,0,0.4,0,0.5c0,0.2-0.1,0.4-0.3,0.5c-0.2,0.2-0.3,0.2-0.5,0.2h-7.3c0.1,1,0.4,1.7,1.1,2.3
					s1.5,0.8,2.5,0.8c1,0,1.8-0.2,2.5-0.6c0.2-0.1,0.3-0.1,0.5-0.1c0.2,0,0.4,0.1,0.6,0.3c0.1,0.1,0.1,0.2,0.1,0.4
					c0,0.3-0.1,0.5-0.3,0.6c-1.1,0.8-2.3,1.2-3.7,1.2c-1.7,0-3-0.5-4-1.5c-1-1-1.5-2.3-1.5-3.9c0-1.5,0.5-2.8,1.4-3.9
					c1-1,2.3-1.5,3.9-1.5c1.4,0,2.5,0.4,3.4,1.3C35.8,80.9,36.3,82.1,36.3,83.4z M28.1,83.2h6.3c0-0.9-0.3-1.5-0.9-2
					c-0.5-0.5-1.2-0.7-2.1-0.7c-0.9,0-1.7,0.3-2.2,0.8S28.2,82.4,28.1,83.2z"/>
				<path class="st5" d="M39.7,79.3l2.5,3.5l2.6-3.5c0.2-0.3,0.5-0.5,0.8-0.5c0.3,0,0.5,0.1,0.6,0.2c0.2,0.2,0.2,0.3,0.2,0.6
					c0,0.2-0.1,0.4-0.2,0.5l-2.8,3.8l3,4.1c0.1,0.2,0.2,0.4,0.2,0.6c0,0.2-0.1,0.5-0.3,0.6c-0.2,0.2-0.4,0.3-0.7,0.3
					c-0.3,0-0.6-0.2-0.8-0.5l-2.8-3.8l-2.8,3.8c-0.2,0.3-0.5,0.5-0.9,0.5c-0.3,0-0.5-0.1-0.6-0.2c-0.1-0.2-0.2-0.3-0.2-0.6
					c0-0.2,0.1-0.4,0.2-0.6l3-4.1l-2.7-3.8c-0.1-0.2-0.2-0.3-0.2-0.5c0-0.4,0.2-0.6,0.6-0.8C38.9,78.7,39.3,78.9,39.7,79.3z"/>
				<path class="st5" d="M58.7,79.7v8.9c0,0.4-0.1,0.6-0.4,0.7c-0.3,0.1-0.6,0.1-1,0c-0.3-0.1-0.5-0.4-0.4-0.7v-3.7h-5.8v3.7
					c0,0.4-0.1,0.6-0.4,0.7c-0.3,0.1-0.6,0.1-1,0c-0.3-0.1-0.5-0.4-0.4-0.7v-8.9c0-0.4,0.1-0.6,0.4-0.7c0.3-0.1,0.6-0.1,1,0
					c0.3,0.1,0.5,0.4,0.4,0.7v3.5h5.8v-3.5c0-0.4,0.1-0.6,0.4-0.7c0.3-0.1,0.6-0.1,1,0C58.6,79.1,58.8,79.3,58.7,79.7z"/>
				<path class="st5" d="M71.7,79.8v8.8c0,0.4-0.1,0.6-0.4,0.7c-0.3,0.1-0.6,0.1-1,0c-0.3-0.1-0.5-0.4-0.4-0.7v-6.8l-5.6,6.9
					c-0.5,0.6-0.9,0.8-1.3,0.8c-0.3,0-0.5-0.1-0.7-0.3c-0.2-0.2-0.3-0.4-0.3-0.6v-8.8c0-0.4,0.1-0.6,0.4-0.7c0.3-0.1,0.6-0.1,1,0
					c0.3,0.1,0.5,0.4,0.4,0.7v6.9l5.6-6.9c0.5-0.6,0.9-0.9,1.3-0.9c0.3,0,0.5,0.1,0.7,0.3C71.6,79.3,71.7,79.5,71.7,79.8z"/>
				<path class="st5" d="M81,83.7v-4c0-0.4,0.1-0.6,0.4-0.7c0.3-0.1,0.6-0.1,1,0c0.3,0.1,0.5,0.4,0.4,0.7v8.9c0,0.4-0.1,0.6-0.4,0.7
					c-0.3,0.1-0.6,0.1-1,0c-0.3-0.1-0.5-0.4-0.4-0.7v-3.3c-0.8,0.5-1.8,0.8-2.9,0.8c-2.5,0-3.7-1.3-3.7-4v-2.4
					c0-0.2,0.1-0.5,0.3-0.6s0.4-0.3,0.7-0.3c0.3,0,0.5,0.1,0.7,0.3s0.3,0.4,0.3,0.6v2.2c0,1.6,0.7,2.4,2.2,2.4
					C79.6,84.3,80.3,84.1,81,83.7z"/>
				<path class="st5" d="M95.6,83.4c0,0.3,0,0.4,0,0.5c0,0.2-0.1,0.4-0.3,0.5c-0.2,0.2-0.3,0.2-0.5,0.2h-7.3c0.1,1,0.4,1.7,1.1,2.3
					c0.7,0.6,1.5,0.8,2.5,0.8c1,0,1.8-0.2,2.5-0.6c0.2-0.1,0.3-0.1,0.5-0.1c0.2,0,0.4,0.1,0.6,0.3c0.1,0.1,0.1,0.2,0.1,0.4
					c0,0.3-0.1,0.5-0.3,0.6c-1.1,0.8-2.3,1.2-3.7,1.2c-1.7,0-3-0.5-4-1.5c-1-1-1.5-2.3-1.5-3.9c0-1.5,0.5-2.8,1.4-3.9
					c1-1,2.3-1.5,3.9-1.5c1.4,0,2.5,0.4,3.4,1.3C95.1,80.9,95.6,82.1,95.6,83.4z M87.4,83.2h6.3c0-0.9-0.3-1.5-0.9-2
					c-0.5-0.5-1.2-0.7-2.1-0.7c-0.9,0-1.7,0.3-2.2,0.8C87.8,81.7,87.5,82.4,87.4,83.2z"/>
				<path class="st5" d="M105.1,81c-0.8-0.4-1.5-0.6-2.3-0.6c-1,0-1.8,0.3-2.5,1c-0.7,0.7-1.1,1.6-1.1,2.6c0,1.1,0.4,2,1.1,2.7
					s1.6,1,2.6,1c0.9,0,1.6-0.2,2.2-0.7c0.2-0.2,0.5-0.3,0.7-0.3c0.2,0,0.4,0.1,0.5,0.2c0.2,0.2,0.3,0.4,0.3,0.6
					c0,0.3-0.1,0.5-0.3,0.6c-1,0.9-2.2,1.3-3.6,1.3c-1.6,0-3-0.5-4-1.5c-1-1-1.5-2.3-1.5-3.9c0-1.5,0.5-2.8,1.5-3.8
					c1-1,2.2-1.6,3.7-1.6c1.3,0,2.4,0.3,3.4,0.8c0.3,0.2,0.5,0.4,0.5,0.8c0,0.2,0,0.3-0.1,0.4c-0.2,0.3-0.4,0.4-0.8,0.4
					C105.4,81.1,105.2,81.1,105.1,81z"/>
				<path class="st5" d="M110.9,79.7v8.9c0,0.4-0.1,0.6-0.4,0.7s-0.6,0.1-1,0s-0.5-0.4-0.4-0.7v-8.9c0-0.4,0.1-0.6,0.4-0.7
					c0.3-0.1,0.6-0.1,1,0C110.7,79.1,110.9,79.3,110.9,79.7z M115.7,89l-3.8-4.3c-0.2-0.2-0.2-0.4-0.2-0.7c0-0.3,0.1-0.5,0.2-0.6
					l3.5-4c0.3-0.3,0.5-0.5,0.9-0.5c0.3,0,0.5,0.1,0.7,0.3c0.2,0.2,0.2,0.4,0.2,0.6c0,0.2-0.1,0.4-0.2,0.6l-3.3,3.6l3.7,4
					c0.2,0.2,0.3,0.4,0.3,0.7c0,0.2-0.1,0.5-0.3,0.6c-0.2,0.2-0.4,0.3-0.7,0.3C116.3,89.5,116,89.3,115.7,89z"/>
				<path class="st5" d="M119.4,86.3c0-1,0.4-1.8,1.1-2.4c0.7-0.6,1.7-0.9,2.8-0.9c1.1,0,1.9,0.2,2.6,0.7c0-1.2-0.2-2-0.5-2.5
					s-0.9-0.8-1.9-0.8c-0.7,0-1.4,0.1-2.1,0.4c-0.1,0-0.2,0.1-0.3,0.1c-0.3,0-0.6-0.2-0.7-0.5c0-0.1-0.1-0.2-0.1-0.3
					c0-0.4,0.2-0.6,0.5-0.7c1-0.4,1.9-0.6,2.9-0.6c1.4,0,2.4,0.3,3,1c0.6,0.7,0.9,1.8,0.9,3.2v5.7c0,0.2-0.1,0.4-0.3,0.6
					c-0.2,0.2-0.4,0.2-0.6,0.2s-0.5-0.1-0.6-0.2c-0.2-0.2-0.3-0.3-0.3-0.6V88c-0.8,1-1.9,1.5-3.3,1.5c-1,0-1.7-0.3-2.3-0.9
					C119.7,88,119.4,87.2,119.4,86.3z M125.9,86.5v-1.3c-0.6-0.5-1.4-0.7-2.3-0.7c-0.6,0-1.2,0.1-1.6,0.4c-0.4,0.3-0.6,0.7-0.6,1.3
					c0,0.5,0.2,0.9,0.5,1.2s0.8,0.4,1.4,0.4C124.2,87.8,125.1,87.4,125.9,86.5z"/>
				<path class="st5" d="M130.4,88l2-2.6c-0.6-0.1-1.2-0.5-1.6-1c-0.4-0.5-0.6-1.2-0.6-2c0-1.1,0.4-1.9,1.1-2.5
					c0.8-0.6,1.9-0.9,3.5-0.9h2.3c0.2,0,0.5,0.1,0.6,0.3s0.3,0.4,0.3,0.6v8.8c0,0.4-0.1,0.6-0.4,0.7c-0.3,0.1-0.6,0.1-1,0
					c-0.3-0.1-0.5-0.4-0.4-0.7v-2.7h-2l-2.3,3.1c-0.2,0.3-0.5,0.5-0.8,0.5c-0.3,0-0.5-0.1-0.7-0.2c-0.2-0.2-0.3-0.3-0.3-0.6
					C130.2,88.5,130.2,88.2,130.4,88z M134,84.1h2.1v-3.5h-1.7c-0.8,0-1.4,0.2-1.8,0.5c-0.4,0.3-0.6,0.8-0.6,1.3
					c0,0.5,0.2,0.9,0.6,1.2C133.1,84,133.5,84.1,134,84.1z"/>
			</g>
		</g>
	</g>
</g>
</svg>
