<?xml version="1.0" encoding="utf-8"?>
<!-- Generator: Adobe Illustrator 17.1.0, SVG Export Plug-In . SVG Version: 6.00 Build 0)  -->
<!DOCTYPE svg PUBLIC "-//W3C//DTD SVG 1.1//EN" "http://www.w3.org/Graphics/SVG/1.1/DTD/svg11.dtd">
<svg version="1.1" xmlns="http://www.w3.org/2000/svg" xmlns:xlink="http://www.w3.org/1999/xlink" x="0px" y="0px"
	 viewBox="0 0 255.3 185.4" enable-background="new 0 0 255.3 185.4" xml:space="preserve">
<g id="Sky">
</g>
<g id="Clouds">
</g>
<g id="Button">
</g>
<g id="B_1">
</g>
<g id="B2">
</g>
<g id="B3">
</g>
<g id="B4">
</g>
<g id="B5">
</g>
<g id="B6">
</g>
<g id="B7">
</g>
<g id="B8">
</g>
<g id="B9">
</g>
<g id="B10">
</g>
<g id="B11">
</g>
<g id="B12">
</g>
<g id="B13">
	<path fill="#96CD7C" d="M166.4,107.7c-17.5,21.4-61,39.1-82.3,21.7s-12.6-63.6,4.9-85s49-24.6,70.4-7.1S183.9,86.3,166.4,107.7z"/>
	<polygon fill="#9AD17D" points="86.2,126.7 73.2,131.1 84.4,140.3 	"/>
	<path fill="#84CB66" d="M166.4,107.7c15.9-19.5,14.7-47.4-1.8-65.4l0,0c0,0,37.1,66.9-63.5,93.9
		C123.5,138.8,152.8,124.3,166.4,107.7z"/>
	<g>
		<rect x="100.2" y="75.7" fill="none" width="43.8" height="30.9"/>
		<text transform="matrix(1 0 0 1 104.0864 91.8047)" fill="#252835" font-family="'CirceRounded-Regular'" font-size="23">Еда</text>
	</g>
	<path fill="#ABD796" d="M110.8,46.5c-12.5,7.1-19.6,18.3-22.7,12.9s4.6-15.6,17.1-22.7s25.2-8.5,28.3-3S123.3,39.4,110.8,46.5z"/>
</g>
<g id="B14">
</g>
<g id="B15">
</g>
<g id="Head">
</g>
<g id="B16">
</g>
<g id="B17">
</g>
<g id="B18">
</g>
<g id="B19">
</g>
<g id="B20">
</g>
<g id="B21">
</g>
<g id="B22">
</g>
<g id="B23">
</g>
<g id="B24">
</g>
<g id="B25">
</g>
<g id="B26">
</g>
<g id="B27">
</g>
<g id="B28">
</g>
<g id="B29">
</g>
<g id="B30">
</g>
<g id="B31">
</g>
<g id="B32">
</g>
<g id="B33">
</g>
</svg>
