<?xml version="1.0" encoding="utf-8"?>
<!-- Generator: Adobe Illustrator 22.1.0, SVG Export Plug-In . SVG Version: 6.00 Build 0)  -->
<svg version="1.1" id="Слой_1" xmlns="http://www.w3.org/2000/svg" xmlns:xlink="http://www.w3.org/1999/xlink" x="0px" y="0px"
	 viewBox="0 0 213 204" style="enable-background:new 0 0 213 204;" xml:space="preserve">
<style type="text/css">
	.st0{fill:#A7A6F6;}
	.st1{fill:#A099E9;}
	.st2{fill:none;}
	.st3{enable-background:new    ;}
	.st4{fill:#252835;}
	.st5{fill:#BEBDF6;}
</style>
<g id="Sky">
</g>
<g id="Clouds">
</g>
<g id="Button">
</g>
<g id="B1">
</g>
<g id="B2">
</g>
<g id="B3">
</g>
<g id="B4">
	<g>
		<path class="st0" d="M175.8,166.4C137,199,52.7,216.1,20.1,177.3s-1-118.8,37.8-151.4S154.5-1.6,187,37.2S214.5,133.8,175.8,166.4
			z"/>
		<polygon class="st1" points="24.8,173.3 0,176.8 17.1,197.1 		"/>
		<path class="st1" d="M175.8,166.4c35.3-29.7,42.7-80.3,19.1-118.4l0,0c0,0,44,133.1-146.4,147.3
			C87.9,207.7,145.6,191.7,175.8,166.4z"/>
	</g>
	<g>
		<rect x="13.1" y="105" class="st2" width="199.9" height="30.9"/>
		<g class="st3">
			<path class="st4" d="M29.2,120.3v-12.2l-4.8,6.8c-0.3,0.4-0.7,0.6-1,0.6s-0.7-0.2-1-0.6l-4.9-6.7v12.1c0,0.3-0.1,0.5-0.3,0.7
				c-0.2,0.2-0.4,0.3-0.7,0.3c-0.3,0-0.5-0.1-0.7-0.3c-0.2-0.2-0.3-0.4-0.3-0.7v-14.2c0-0.4,0.1-0.7,0.3-0.9
				c0.2-0.2,0.5-0.3,0.8-0.3c0.5,0,0.9,0.2,1.3,0.7l5.6,7.6l5.4-7.7c0.3-0.4,0.7-0.7,1.1-0.7c0.3,0,0.6,0.1,0.8,0.3s0.3,0.5,0.3,0.8
				v14.3c0,0.3-0.1,0.5-0.3,0.7c-0.2,0.2-0.4,0.3-0.7,0.3c-0.3,0-0.5-0.1-0.7-0.3C29.3,120.8,29.2,120.6,29.2,120.3z"/>
			<path class="st4" d="M44.7,115.3c0,0.3,0,0.4,0,0.5c0,0.2-0.1,0.4-0.3,0.5c-0.2,0.2-0.3,0.2-0.5,0.2h-7.3c0.1,1,0.4,1.7,1.1,2.3
				s1.5,0.8,2.5,0.8c1,0,1.8-0.2,2.5-0.6c0.2-0.1,0.3-0.1,0.5-0.1c0.2,0,0.4,0.1,0.6,0.3c0.1,0.1,0.1,0.2,0.1,0.4
				c0,0.3-0.1,0.5-0.3,0.6c-1.1,0.8-2.3,1.2-3.7,1.2c-1.7,0-3-0.5-4-1.5c-1-1-1.5-2.3-1.5-3.9c0-1.5,0.5-2.8,1.4-3.9
				c1-1,2.3-1.5,3.9-1.5c1.4,0,2.5,0.4,3.4,1.3C44.3,112.7,44.7,113.9,44.7,115.3z M36.5,115h6.3c0-0.9-0.3-1.5-0.9-2
				c-0.5-0.5-1.2-0.7-2.1-0.7c-0.9,0-1.7,0.3-2.2,0.8S36.6,114.2,36.5,115z"/>
			<path class="st4" d="M51.5,112.6v7.8c0,0.4-0.1,0.6-0.4,0.7c-0.3,0.1-0.6,0.1-1,0c-0.3-0.1-0.5-0.4-0.4-0.7v-7.8h-2.9
				c-0.4,0-0.6-0.1-0.7-0.4c-0.1-0.3-0.1-0.6,0-1c0.1-0.3,0.4-0.5,0.7-0.4h7.7c0.4,0,0.6,0.1,0.7,0.4c0.1,0.3,0.1,0.6,0,1
				c-0.1,0.3-0.4,0.5-0.7,0.4H51.5z"/>
			<path class="st4" d="M56.5,118.1c0-1,0.4-1.8,1.1-2.4c0.7-0.6,1.7-0.9,2.8-0.9c1.1,0,1.9,0.2,2.6,0.7c0-1.2-0.2-2-0.5-2.5
				c-0.3-0.5-0.9-0.8-1.9-0.8c-0.7,0-1.4,0.1-2.1,0.4c-0.1,0-0.2,0.1-0.3,0.1c-0.3,0-0.6-0.2-0.7-0.5c0-0.1-0.1-0.2-0.1-0.3
				c0-0.4,0.2-0.6,0.5-0.7c1-0.4,1.9-0.6,2.9-0.6c1.4,0,2.4,0.3,3,1c0.6,0.7,0.9,1.8,0.9,3.2v5.7c0,0.2-0.1,0.4-0.3,0.6
				c-0.2,0.2-0.4,0.2-0.6,0.2s-0.5-0.1-0.6-0.2c-0.2-0.2-0.3-0.3-0.3-0.6v-0.7c-0.8,1-1.9,1.5-3.3,1.5c-1,0-1.7-0.3-2.3-0.9
				C56.8,119.8,56.5,119.1,56.5,118.1z M63,118.3V117c-0.6-0.5-1.4-0.7-2.3-0.7c-0.6,0-1.2,0.1-1.6,0.4c-0.4,0.3-0.6,0.7-0.6,1.3
				c0,0.5,0.2,0.9,0.5,1.2c0.3,0.3,0.8,0.4,1.4,0.4C61.4,119.6,62.3,119.2,63,118.3z"/>
			<path class="st4" d="M76.6,111.6v8.8c0,0.4-0.1,0.6-0.4,0.7c-0.3,0.1-0.6,0.1-1,0c-0.3-0.1-0.5-0.4-0.4-0.7v-7.8h-3.6l-0.1,1.7
				c-0.1,2.3-0.5,4-1.2,5.2c-0.6,1.2-1.4,1.7-2.3,1.7c-0.3,0-0.5-0.1-0.7-0.2c-0.2-0.2-0.3-0.4-0.3-0.6c0-0.4,0.2-0.7,0.7-0.9
				c0.5-0.2,1-0.7,1.2-1.5c0.3-0.8,0.5-2.1,0.6-4l0.1-2.3c0-0.2,0.1-0.5,0.3-0.6s0.4-0.3,0.6-0.3h5.5c0.2,0,0.5,0.1,0.6,0.3
				C76.5,111.2,76.6,111.4,76.6,111.6z"/>
			<path class="st4" d="M88.7,111.6v8.8c0,0.4-0.1,0.6-0.4,0.7c-0.3,0.1-0.6,0.1-1,0c-0.3-0.1-0.5-0.4-0.4-0.7v-7.8h-3.6l-0.1,1.7
				c-0.1,2.3-0.5,4-1.2,5.2c-0.6,1.2-1.4,1.7-2.3,1.7c-0.3,0-0.5-0.1-0.7-0.2c-0.2-0.2-0.3-0.4-0.3-0.6c0-0.4,0.2-0.7,0.7-0.9
				c0.5-0.2,1-0.7,1.2-1.5c0.3-0.8,0.5-2.1,0.6-4l0.1-2.3c0-0.2,0.1-0.5,0.3-0.6s0.4-0.3,0.6-0.3h5.5c0.2,0,0.5,0.1,0.6,0.3
				C88.6,111.2,88.7,111.4,88.7,111.6z"/>
			<path class="st4" d="M92.8,111.2l2.8,6.1c0,0.1,0.2,0.6,0.6,1.6c0.1-0.5,0.3-1,0.5-1.6l2.2-6c0.2-0.5,0.5-0.7,0.9-0.7
				c0.3,0,0.6,0.1,0.7,0.2c0.2,0.2,0.3,0.4,0.3,0.7c0,0.1,0,0.3-0.1,0.4l-3.7,9.1c-0.7,1.8-1.3,3-1.9,3.7c-0.6,0.6-1.3,0.9-2,0.9
				c-1.2,0-1.8-0.4-1.8-1.1c0-0.5,0.2-0.7,0.7-0.7c0,0,0.2,0,0.4,0.1c0.2,0,0.4,0.1,0.5,0.1c0.4,0,0.8-0.2,1.2-0.6
				c0.3-0.4,0.7-1,1-1.8l0.2-0.6L91,112c-0.1-0.1-0.1-0.3-0.1-0.4c0-0.3,0.1-0.5,0.3-0.7c0.2-0.2,0.4-0.3,0.7-0.3
				C92.3,110.6,92.6,110.8,92.8,111.2z"/>
			<path class="st4" d="M104.8,120.6v4.2c0,0.4-0.1,0.6-0.4,0.7c-0.3,0.1-0.6,0.1-1,0c-0.3-0.1-0.5-0.4-0.4-0.7v-13.3
				c0-0.4,0.1-0.6,0.4-0.7c0.3-0.1,0.6-0.1,1,0c0.3,0.1,0.5,0.4,0.4,0.7v0.5c0.4-0.4,0.9-0.8,1.5-1c0.6-0.3,1.3-0.4,2-0.4
				c1.5,0,2.6,0.5,3.5,1.4c0.9,1,1.3,2.3,1.3,3.8c0,1.6-0.5,2.9-1.5,4c-1,1.1-2.3,1.6-3.9,1.6C106.5,121.3,105.6,121.1,104.8,120.6z
				 M104.8,113.7v5.1c0.8,0.5,1.7,0.8,2.8,0.8c1.1,0,2-0.3,2.6-1c0.7-0.7,1-1.6,1-2.7c0-1.1-0.3-2-0.9-2.6c-0.6-0.7-1.4-1-2.5-1
				C106.6,112.3,105.6,112.7,104.8,113.7z"/>
			<path class="st4" d="M121.5,112.5h-3.8v7.9c0,0.4-0.1,0.6-0.4,0.7s-0.6,0.1-1,0s-0.5-0.4-0.4-0.7v-8.8c0-0.2,0.1-0.5,0.3-0.6
				c0.2-0.2,0.4-0.3,0.6-0.3h4.8c0.2,0,0.5,0.1,0.6,0.3c0.2,0.2,0.3,0.4,0.3,0.6c0,0.2-0.1,0.5-0.3,0.6
				C121.9,112.4,121.7,112.5,121.5,112.5z"/>
			<path class="st4" d="M133.8,111.6v8.8c0,0.4-0.1,0.6-0.4,0.7s-0.6,0.1-1,0c-0.3-0.1-0.5-0.4-0.4-0.7v-6.8l-5.6,6.9
				c-0.5,0.6-0.9,0.8-1.3,0.8c-0.3,0-0.5-0.1-0.7-0.3c-0.2-0.2-0.3-0.4-0.3-0.6v-8.8c0-0.4,0.1-0.6,0.4-0.7c0.3-0.1,0.6-0.1,1,0
				c0.3,0.1,0.5,0.4,0.4,0.7v6.9l5.6-6.9c0.5-0.6,0.9-0.9,1.3-0.9c0.3,0,0.5,0.1,0.7,0.3C133.7,111.1,133.8,111.3,133.8,111.6z"/>
			<path class="st4" d="M143,115.5v-4c0-0.4,0.1-0.6,0.4-0.7c0.3-0.1,0.6-0.1,1,0c0.3,0.1,0.5,0.4,0.4,0.7v8.9
				c0,0.4-0.1,0.6-0.4,0.7c-0.3,0.1-0.6,0.1-1,0c-0.3-0.1-0.5-0.4-0.4-0.7v-3.3c-0.8,0.5-1.8,0.8-2.9,0.8c-2.5,0-3.7-1.3-3.7-4v-2.4
				c0-0.2,0.1-0.5,0.3-0.6c0.2-0.2,0.4-0.3,0.7-0.3c0.3,0,0.5,0.1,0.7,0.3c0.2,0.2,0.3,0.4,0.3,0.6v2.2c0,1.6,0.7,2.4,2.2,2.4
				C141.6,116.1,142.4,115.9,143,115.5z"/>
			<path class="st4" d="M157.6,115.3c0,0.3,0,0.4,0,0.5c0,0.2-0.1,0.4-0.3,0.5s-0.3,0.2-0.5,0.2h-7.3c0.1,1,0.4,1.7,1.1,2.3
				c0.7,0.6,1.5,0.8,2.5,0.8c1,0,1.8-0.2,2.5-0.6c0.2-0.1,0.3-0.1,0.5-0.1c0.2,0,0.4,0.1,0.6,0.3c0.1,0.1,0.1,0.2,0.1,0.4
				c0,0.3-0.1,0.5-0.3,0.6c-1.1,0.8-2.3,1.2-3.7,1.2c-1.7,0-3-0.5-4-1.5c-1-1-1.5-2.3-1.5-3.9c0-1.5,0.5-2.8,1.4-3.9
				c1-1,2.3-1.5,3.9-1.5c1.4,0,2.5,0.4,3.4,1.3C157.2,112.7,157.6,113.9,157.6,115.3z M149.4,115h6.3c0-0.9-0.3-1.5-0.9-2
				c-0.5-0.5-1.2-0.7-2.1-0.7c-0.9,0-1.7,0.3-2.2,0.8C149.9,113.5,149.6,114.2,149.4,115z"/>
			<path class="st4" d="M167.2,112.9c-0.8-0.4-1.5-0.6-2.3-0.6c-1,0-1.8,0.3-2.5,1c-0.7,0.7-1.1,1.6-1.1,2.6c0,1.1,0.4,2,1.1,2.7
				s1.6,1,2.6,1c0.9,0,1.6-0.2,2.2-0.7c0.2-0.2,0.5-0.3,0.7-0.3c0.2,0,0.4,0.1,0.5,0.2c0.2,0.2,0.3,0.4,0.3,0.6
				c0,0.3-0.1,0.5-0.3,0.6c-1,0.9-2.2,1.3-3.6,1.3c-1.6,0-3-0.5-4-1.5c-1-1-1.5-2.3-1.5-3.9c0-1.5,0.5-2.8,1.5-3.8s2.2-1.6,3.7-1.6
				c1.3,0,2.4,0.3,3.4,0.8c0.3,0.2,0.5,0.4,0.5,0.8c0,0.2,0,0.3-0.1,0.4c-0.2,0.3-0.4,0.4-0.8,0.4
				C167.5,112.9,167.3,112.9,167.2,112.9z"/>
			<path class="st4" d="M172.9,111.5v8.9c0,0.4-0.1,0.6-0.4,0.7c-0.3,0.1-0.6,0.1-1,0c-0.3-0.1-0.5-0.4-0.4-0.7v-8.9
				c0-0.4,0.1-0.6,0.4-0.7c0.3-0.1,0.6-0.1,1,0C172.8,110.9,173,111.2,172.9,111.5z M177.8,120.8l-3.8-4.3c-0.2-0.2-0.2-0.4-0.2-0.7
				c0-0.3,0.1-0.5,0.2-0.6l3.5-4c0.3-0.3,0.5-0.5,0.9-0.5c0.3,0,0.5,0.1,0.7,0.3c0.2,0.2,0.2,0.4,0.2,0.6c0,0.2-0.1,0.4-0.2,0.6
				l-3.3,3.6l3.7,4c0.2,0.2,0.3,0.4,0.3,0.7c0,0.2-0.1,0.5-0.3,0.6c-0.2,0.2-0.4,0.3-0.7,0.3C178.3,121.3,178,121.1,177.8,120.8z"/>
			<path class="st4" d="M181.4,118.1c0-1,0.4-1.8,1.1-2.4c0.7-0.6,1.7-0.9,2.8-0.9c1.1,0,1.9,0.2,2.6,0.7c0-1.2-0.2-2-0.5-2.5
				s-0.9-0.8-1.9-0.8c-0.7,0-1.4,0.1-2.1,0.4c-0.1,0-0.2,0.1-0.3,0.1c-0.3,0-0.6-0.2-0.7-0.5c0-0.1-0.1-0.2-0.1-0.3
				c0-0.4,0.2-0.6,0.5-0.7c1-0.4,1.9-0.6,2.9-0.6c1.4,0,2.4,0.3,3,1c0.6,0.7,0.9,1.8,0.9,3.2v5.7c0,0.2-0.1,0.4-0.3,0.6
				c-0.2,0.2-0.4,0.2-0.6,0.2c-0.2,0-0.5-0.1-0.6-0.2c-0.2-0.2-0.3-0.3-0.3-0.6v-0.7c-0.8,1-1.9,1.5-3.3,1.5c-1,0-1.7-0.3-2.3-0.9
				C181.7,119.8,181.4,119.1,181.4,118.1z M187.9,118.3V117c-0.6-0.5-1.4-0.7-2.3-0.7c-0.6,0-1.2,0.1-1.6,0.4
				c-0.4,0.3-0.6,0.7-0.6,1.3c0,0.5,0.2,0.9,0.5,1.2c0.3,0.3,0.8,0.4,1.4,0.4C186.3,119.6,187.2,119.2,187.9,118.3z"/>
			<path class="st4" d="M192.5,119.8l2-2.6c-0.6-0.1-1.2-0.5-1.6-1c-0.4-0.5-0.6-1.2-0.6-2c0-1.1,0.4-1.9,1.2-2.5
				c0.8-0.6,1.9-0.9,3.5-0.9h2.3c0.2,0,0.5,0.1,0.6,0.3s0.3,0.4,0.3,0.6v8.8c0,0.4-0.1,0.6-0.4,0.7s-0.6,0.1-1,0
				c-0.3-0.1-0.5-0.4-0.4-0.7v-2.7h-2l-2.3,3.1c-0.2,0.3-0.5,0.5-0.8,0.5c-0.3,0-0.5-0.1-0.7-0.2c-0.2-0.2-0.3-0.3-0.3-0.6
				C192.2,120.3,192.3,120.1,192.5,119.8z M196.1,115.9h2.1v-3.5h-1.7c-0.8,0-1.4,0.2-1.8,0.5c-0.4,0.3-0.6,0.8-0.6,1.3
				c0,0.5,0.2,0.9,0.6,1.2C195.1,115.8,195.6,115.9,196.1,115.9z"/>
		</g>
	</g>
	<path class="st5" d="M78.2,46.9C53.8,64.6,40.4,87.8,34,79c-6.4-8.8,8.2-30.3,32.6-48S116,6.1,122.4,14.9S102.6,29.2,78.2,46.9z"/>
</g>
<g id="Bubble1">
</g>
<g id="Bubble2">
</g>
</svg>
