<?xml version="1.0" encoding="utf-8"?>
<!-- Generator: Adobe Illustrator 17.1.0, SVG Export Plug-In . SVG Version: 6.00 Build 0)  -->
<!DOCTYPE svg PUBLIC "-//W3C//DTD SVG 1.1//EN" "http://www.w3.org/Graphics/SVG/1.1/DTD/svg11.dtd">
<svg version="1.1" xmlns="http://www.w3.org/2000/svg" xmlns:xlink="http://www.w3.org/1999/xlink" x="0px" y="0px"
	 viewBox="0 0 233 173.7" enable-background="new 0 0 233 173.7" xml:space="preserve">
<g id="Sky">
</g>
<g id="Clouds">
</g>
<g id="Button">
</g>
<g id="B_1">
</g>
<g id="B2">
</g>
<g id="B3">
</g>
<g id="B4">
</g>
<g id="B5">
</g>
<g id="B6">
</g>
<g id="B7">
</g>
<g id="B8">
</g>
<g id="B9">
</g>
<g id="B10">
</g>
<g id="B11">
</g>
<g id="B12">
</g>
<g id="B13">
</g>
<g id="B14">
	<path fill="#96CD7C" d="M150,111.3c-23,21.6-74.7,35.2-96.3,12.2S49,49.7,71.9,28.1s59.1-20.4,80.6,2.5S173,89.7,150,111.3z"/>
	<polygon fill="#84CB66" points="56.5,120.8 41.2,123.9 52.6,135.9 	"/>
	<path fill="#84CB66" d="M150,111.3c20.9-19.7,23.7-51.4,7.7-74.2l0,0c0,0,32,81.1-85.8,96.6C96.9,140,132.2,128,150,111.3z"/>
	<g>
		<rect x="55.5" y="65.7" fill="none" width="105.4" height="25.6"/>
		<text transform="matrix(1 0 0 1 61.2228 81.7879)" fill="#252835" font-family="'CirceRounded-Regular'" font-size="23">Финансы</text>
	</g>
	<path fill="#ABD796" d="M93.1,38C78.5,46.3,70,58.8,66.7,53c-3.3-5.8,5.9-17.2,20.5-25.5s29.1-10.3,32.4-4.5
		C122.9,28.8,107.7,29.7,93.1,38z"/>
</g>
<g id="B15">
</g>
<g id="Head">
</g>
<g id="B16">
</g>
<g id="B17">
</g>
<g id="B18">
</g>
<g id="B19">
</g>
<g id="B20">
</g>
<g id="B21">
</g>
<g id="B22">
</g>
<g id="B23">
</g>
<g id="B24">
</g>
<g id="B25">
</g>
<g id="B26">
</g>
<g id="B27">
</g>
<g id="B28">
</g>
<g id="B29">
</g>
<g id="B30">
</g>
<g id="B31">
</g>
<g id="B32">
</g>
<g id="B33">
</g>
</svg>
