<?xml version="1.0" encoding="utf-8"?>
<!-- Generator: Adobe Illustrator 22.1.0, SVG Export Plug-In . SVG Version: 6.00 Build 0)  -->
<svg version="1.1" id="Слой_1" xmlns="http://www.w3.org/2000/svg" xmlns:xlink="http://www.w3.org/1999/xlink" x="0px" y="0px"
	 viewBox="0 0 134.5 130.2" style="enable-background:new 0 0 134.5 130.2;" xml:space="preserve">
<style type="text/css">
	.st0{fill:#75AEB9;}
	.st1{fill:#4E9DA3;}
	.st2{fill:none;}
	.st3{enable-background:new    ;}
	.st4{fill:#252835;}
	.st5{fill:#91BEC7;}
</style>
<g id="Sky">
</g>
<g id="Clouds">
</g>
<g id="Button">
</g>
<g id="B_1">
</g>
<g id="B2">
</g>
<g id="B3">
</g>
<g id="B4">
</g>
<g id="B5">
</g>
<g id="B6">
</g>
<g id="B7">
</g>
<g id="B8">
</g>
<g id="B9">
</g>
<g id="B10">
</g>
<g id="B11">
</g>
<g id="B12">
</g>
<g id="B13">
</g>
<g id="B14">
</g>
<g id="B15">
</g>
<g id="Head">
</g>
<g id="B16">
</g>
<g id="B17">
</g>
<g id="B18">
</g>
<g id="B19">
	<path class="st0" d="M110.9,103.6C89,125.3,38.7,139.9,17,118s-6.5-72,15.4-93.7s57.3-21.5,78.9,0.4S132.9,82,110.9,103.6z"/>
	<polygon class="st1" points="19.7,115.4 4.8,118.7 16.2,130.2 	"/>
	<path class="st1" d="M110.9,103.6c20-19.8,21.9-50.8,5.7-72.8l0,0c0,0,33.3,78.6-81.5,96.7C59.7,133.1,93.9,120.5,110.9,103.6z"/>
	<g>
		
			<rect x="15.2" y="61.8" transform="matrix(0.9999 -1.647349e-02 1.647349e-02 0.9999 -1.2629 1.1892)" class="st2" width="112.7" height="30.9"/>
		<g class="st3">
			<path class="st4" d="M27.5,64.4l-4.7,0.1L23,77.9c0,0.3-0.1,0.5-0.3,0.7c-0.2,0.2-0.4,0.3-0.7,0.3c-0.3,0-0.5-0.1-0.7-0.3
				C21.1,78.4,21,78.2,21,78l-0.2-13.5l-4.7,0.1c-0.2,0-0.5-0.1-0.6-0.3c-0.2-0.2-0.3-0.4-0.3-0.6c0-0.2,0.1-0.5,0.3-0.6
				c0.2-0.2,0.4-0.3,0.6-0.3l11.4-0.2c0.2,0,0.5,0.1,0.6,0.3s0.3,0.4,0.3,0.6c0,0.2-0.1,0.5-0.3,0.6C28,64.3,27.8,64.4,27.5,64.4z"
				/>
			<path class="st4" d="M29.5,78.1l0.1,4.2c0,0.4-0.1,0.6-0.4,0.8c-0.3,0.2-0.6,0.2-1,0c-0.3-0.1-0.5-0.4-0.4-0.7l-0.2-13.3
				c0-0.4,0.1-0.6,0.4-0.8c0.3-0.2,0.6-0.2,1,0c0.3,0.1,0.5,0.4,0.4,0.7l0,0.5c0.4-0.4,0.9-0.8,1.5-1.1c0.6-0.3,1.3-0.4,2-0.4
				c1.5,0,2.6,0.4,3.5,1.4c0.9,1,1.3,2.2,1.4,3.8c0,1.6-0.5,2.9-1.4,4c-1,1.1-2.3,1.6-3.9,1.7C31.2,78.8,30.2,78.6,29.5,78.1z
				 M29.4,71.2l0.1,5.1c0.8,0.5,1.7,0.8,2.8,0.8c1.1,0,2-0.4,2.6-1.1c0.6-0.7,1-1.6,0.9-2.7c0-1.1-0.3-2-0.9-2.6
				c-0.6-0.6-1.4-1-2.5-0.9C31.2,69.7,30.2,70.2,29.4,71.2z"/>
			<path class="st4" d="M39.7,75.4c0-1,0.3-1.8,1-2.4c0.7-0.6,1.6-0.9,2.8-0.9c1.1,0,2,0.2,2.6,0.6c0-1.2-0.2-2-0.5-2.5
				c-0.3-0.5-1-0.7-1.9-0.7c-0.7,0-1.4,0.2-2.1,0.4c-0.1,0-0.2,0.1-0.3,0.1c-0.3,0-0.6-0.1-0.7-0.4c0-0.1-0.1-0.2-0.1-0.3
				c0-0.4,0.1-0.6,0.4-0.7c1-0.4,1.9-0.7,2.8-0.7c1.4,0,2.4,0.3,3.1,1c0.6,0.7,1,1.7,1,3.2l0.1,5.7c0,0.2-0.1,0.4-0.2,0.6
				s-0.4,0.2-0.6,0.3c-0.2,0-0.5-0.1-0.6-0.2s-0.3-0.3-0.3-0.6l0-0.7c-0.8,1-1.9,1.5-3.3,1.5c-1,0-1.7-0.3-2.3-0.8
				S39.7,76.4,39.7,75.4z M46.2,75.5l0-1.3c-0.7-0.4-1.4-0.7-2.3-0.7c-0.6,0-1.2,0.2-1.6,0.5c-0.4,0.3-0.6,0.7-0.6,1.3
				c0,0.5,0.2,0.9,0.5,1.2c0.3,0.3,0.8,0.4,1.4,0.4C44.6,76.9,45.5,76.4,46.2,75.5z"/>
			<path class="st4" d="M60.3,68.5l0.1,8.9c0,0.4-0.1,0.6-0.4,0.8c-0.3,0.2-0.6,0.2-1,0c-0.3-0.1-0.5-0.4-0.4-0.7l-0.1-3.7l-5.7,0.1
				l0.1,3.7c0,0.4-0.1,0.6-0.4,0.8c-0.3,0.2-0.6,0.2-1,0c-0.3-0.1-0.5-0.4-0.4-0.7l-0.1-8.9c0-0.4,0.1-0.6,0.4-0.8
				c0.3-0.2,0.6-0.2,1,0c0.3,0.1,0.5,0.4,0.4,0.7l0.1,3.5l5.7-0.1l-0.1-3.5c0-0.4,0.1-0.6,0.4-0.8c0.3-0.2,0.6-0.2,1,0
				C60.2,67.9,60.4,68.2,60.3,68.5z"/>
			<path class="st4" d="M70.8,69.7c-0.8-0.4-1.5-0.6-2.3-0.6c-1,0-1.8,0.4-2.5,1.1c-0.7,0.7-1,1.6-1,2.7c0,1.1,0.4,2,1.1,2.6
				c0.7,0.7,1.6,1,2.7,1c0.9,0,1.6-0.3,2.2-0.7c0.2-0.2,0.5-0.3,0.7-0.3c0.2,0,0.4,0.1,0.5,0.2c0.2,0.2,0.3,0.4,0.3,0.6
				c0,0.3-0.1,0.5-0.2,0.6c-1,0.9-2.2,1.4-3.6,1.4c-1.6,0-3-0.4-4-1.4c-1-1-1.6-2.3-1.6-3.9c0-1.5,0.5-2.8,1.4-3.9s2.2-1.6,3.7-1.6
				c1.3,0,2.4,0.2,3.4,0.7c0.3,0.2,0.5,0.4,0.5,0.8c0,0.2,0,0.3-0.1,0.4c-0.1,0.3-0.4,0.4-0.8,0.4C71,69.8,70.9,69.7,70.8,69.7z"/>
			<path class="st4" d="M83.9,68.3l0.1,8.8c0,0.4-0.1,0.6-0.4,0.8c-0.3,0.2-0.6,0.2-1,0s-0.5-0.4-0.4-0.7l-0.1-7.9l-5.6,0.1l0.1,7.9
				c0,0.4-0.1,0.6-0.4,0.8c-0.3,0.2-0.6,0.2-1,0c-0.3-0.1-0.5-0.4-0.4-0.7l-0.1-8.8c0-0.2,0.1-0.5,0.2-0.6c0.2-0.2,0.4-0.3,0.6-0.3
				l7.6-0.1c0.2,0,0.5,0.1,0.6,0.2C83.8,67.8,83.9,68,83.9,68.3z"/>
			<path class="st4" d="M88.2,76.3c-1-1-1.6-2.3-1.6-3.8c0-1.6,0.5-2.9,1.5-3.9c1-1,2.3-1.6,4-1.6c1.6,0,3,0.5,4,1.5
				c1,1,1.6,2.3,1.6,3.9c0,1.6-0.5,2.9-1.5,3.9c-1,1-2.3,1.6-4,1.6S89.3,77.4,88.2,76.3z M88.6,72.5c0,1.1,0.4,1.9,1,2.6
				c0.7,0.7,1.5,1,2.6,1c1,0,1.9-0.4,2.5-1.1c0.7-0.7,1-1.6,1-2.7c0-1.1-0.4-1.9-1-2.6c-0.7-0.7-1.5-1-2.6-1c-1,0-1.9,0.4-2.5,1.1
				C88.9,70.5,88.6,71.4,88.6,72.5z"/>
			<path class="st4" d="M102.2,76.9l0.1,4.2c0,0.4-0.1,0.6-0.4,0.8c-0.3,0.2-0.6,0.2-1,0c-0.3-0.1-0.5-0.4-0.4-0.7l-0.2-13.3
				c0-0.4,0.1-0.6,0.4-0.8c0.3-0.2,0.6-0.2,1,0c0.3,0.1,0.5,0.4,0.4,0.7l0,0.5c0.4-0.4,0.9-0.8,1.5-1.1c0.6-0.3,1.3-0.4,2-0.4
				c1.5,0,2.6,0.4,3.5,1.4c0.9,1,1.3,2.2,1.4,3.8c0,1.6-0.5,2.9-1.4,4c-1,1.1-2.3,1.6-3.9,1.7C103.9,77.6,102.9,77.4,102.2,76.9z
				 M102.1,70l0.1,5.1c0.8,0.5,1.7,0.8,2.8,0.8c1.1,0,2-0.4,2.6-1.1c0.6-0.7,1-1.6,0.9-2.7c0-1.1-0.3-2-0.9-2.6
				c-0.6-0.6-1.4-1-2.5-0.9C103.8,68.5,102.8,69,102.1,70z"/>
			<path class="st4" d="M116.9,68.7l0.1,7.8c0,0.4-0.1,0.6-0.4,0.8c-0.3,0.2-0.6,0.2-1,0c-0.3-0.1-0.5-0.4-0.4-0.7l-0.1-7.8l-2.9,0
				c-0.4,0-0.6-0.1-0.8-0.4c-0.2-0.3-0.2-0.6,0-1c0.1-0.3,0.4-0.5,0.7-0.4l7.7-0.1c0.4,0,0.6,0.1,0.8,0.4c0.2,0.3,0.2,0.6,0,1
				c-0.1,0.3-0.4,0.5-0.7,0.4L116.9,68.7z"/>
		</g>
	</g>
	<path class="st5" d="M53.6,30.9c-14.2,8.4-22.1,21.4-25.8,15.2c-3.6-6.2,4.9-18,19.2-26.4s28.8-10.2,32.4-4S67.8,22.5,53.6,30.9z"
		/>
</g>
<g id="B20">
</g>
<g id="B21">
</g>
<g id="B22">
</g>
<g id="B23">
</g>
<g id="B24">
</g>
<g id="B25">
</g>
<g id="B26">
</g>
<g id="B27">
</g>
<g id="B28">
</g>
<g id="B29">
</g>
<g id="B30">
</g>
<g id="B31">
</g>
<g id="B32">
</g>
<g id="B33">
</g>
</svg>
