<?xml version="1.0" encoding="utf-8"?>
<!-- Generator: Adobe Illustrator 17.1.0, SVG Export Plug-In . SVG Version: 6.00 Build 0)  -->
<!DOCTYPE svg PUBLIC "-//W3C//DTD SVG 1.1//EN" "http://www.w3.org/Graphics/SVG/1.1/DTD/svg11.dtd">
<svg version="1.1" xmlns="http://www.w3.org/2000/svg" xmlns:xlink="http://www.w3.org/1999/xlink" x="0px" y="0px"
	 viewBox="0 0 310 214" enable-background="new 0 0 310 214" xml:space="preserve">
<g id="Sky">
</g>
<g id="Clouds">
</g>
<g id="Button">
</g>
<g id="B1">
</g>
<g id="B2">
</g>
<g id="B3">
	<g>
		<g>
			<path fill="#A7A6F6" d="M209,163.7c-28.1,23.6-89.2,36-112.7,7.9S95.5,85.5,123.6,62s70-19.9,93.6,8.2S237.1,140.1,209,163.7z"/>
			<polygon fill="#A099E9" points="99.7,168.7 81.7,171.3 94.1,186 			"/>
			<path fill="#A099E9" d="M209,163.7c25.6-21.5,30.9-58.2,13.8-85.8l0,0c0,0,31.9,96.4-106,106.7
				C145.4,193.6,187.1,182.1,209,163.7z"/>
		</g>
		<path fill="#BEBDF6" d="M138.3,77.2c-17.7,12.8-27.4,29.6-32,23.2c-4.6-6.4,6-22,23.6-34.8s35.8-18.1,40.4-11.7
			S156,64.3,138.3,77.2z"/>
	</g>
	<g>
		<rect x="96.8" y="109.5" fill="none" width="127.9" height="30.9"/>
		<text transform="matrix(1 0 0 1 96.7591 125.5679)" fill="#252835" font-family="'CirceRounded-Regular'" font-size="23">Химическая</text>
	</g>
</g>
<g id="B4">
</g>
<g id="Bubble1">
</g>
<g id="Bubble2">
</g>
</svg>
