<?xml version="1.0" encoding="utf-8"?>
<!-- Generator: Adobe Illustrator 17.1.0, SVG Export Plug-In . SVG Version: 6.00 Build 0)  -->
<!DOCTYPE svg PUBLIC "-//W3C//DTD SVG 1.1//EN" "http://www.w3.org/Graphics/SVG/1.1/DTD/svg11.dtd">
<svg version="1.1" xmlns="http://www.w3.org/2000/svg" xmlns:xlink="http://www.w3.org/1999/xlink" x="0px" y="0px"
	 viewBox="0 0 284 288.8" enable-background="new 0 0 284 288.8" xml:space="preserve">
<g id="Sky">
</g>
<g id="Clouds">
</g>
<g id="Button">
</g>
<g id="B1">
	<g>
		<g>
			<g>
				<path fill="#75AEB9" d="M230,200.7c-37.5,37.2-123.7,62.2-160.9,24.6S57.9,101.9,95.4,64.7s98.1-36.8,135.3,0.7
					S267.5,163.5,230,200.7z"/>
				<polygon fill="#4E9DA3" points="73.7,220.8 48.2,226.5 67.7,246.2 				"/>
				<path fill="#4E9DA3" d="M230,200.7c34.2-33.8,37.5-87.1,9.7-124.7l0,0c0,0,57.1,134.6-139.6,165.7
					C142.2,251.1,200.8,229.6,230,200.7z"/>
			</g>
			<path fill="#91BEC7" d="M131.7,76c-24.4,14.4-37.9,36.7-44.2,26.1s8.5-30.9,32.9-45.3s49.3-17.5,55.5-6.9S156.1,61.6,131.7,76z"
				/>
		</g>
		<g>
			
				<rect x="58.1" y="136.6" transform="matrix(0.9999 -1.647415e-002 1.647415e-002 0.9999 -2.4839 2.635)" fill="none" width="201.3" height="30.9"/>
			
				<text transform="matrix(0.9999 -1.647000e-002 1.647000e-002 0.9999 58.0288 154.3727)" fill="#252835" font-family="'CirceRounded-Regular'" font-size="23">Железнодорожный</text>
		</g>
	</g>
</g>
<g id="B2">
</g>
<g id="B3">
</g>
<g id="B4">
</g>
<g id="Bubble1">
</g>
<g id="Bubble2">
</g>
</svg>
