<?xml version="1.0" encoding="utf-8"?>
<!-- Generator: Adobe Illustrator 17.1.0, SVG Export Plug-In . SVG Version: 6.00 Build 0)  -->
<!DOCTYPE svg PUBLIC "-//W3C//DTD SVG 1.1//EN" "http://www.w3.org/Graphics/SVG/1.1/DTD/svg11.dtd">
<svg version="1.1" xmlns="http://www.w3.org/2000/svg" xmlns:xlink="http://www.w3.org/1999/xlink" x="0px" y="0px"
	 viewBox="0 0 254.4 219.2" enable-background="new 0 0 254.4 219.2" xml:space="preserve">
<g id="Sky">
</g>
<g id="Clouds">
</g>
<g id="Button">
</g>
<g id="B_1">
</g>
<g id="B2">
</g>
<g id="B3">
</g>
<g id="B4">
</g>
<g id="B5">
</g>
<g id="B6">
</g>
<g id="B7">
</g>
<g id="B8">
</g>
<g id="B9">
</g>
<g id="B10">
</g>
<g id="B11">
</g>
<g id="B12">
</g>
<g id="B13">
</g>
<g id="B14">
</g>
<g id="B15">
</g>
<g id="Head">
</g>
<g id="B16">
</g>
<g id="B17">
</g>
<g id="B18">
</g>
<g id="B19">
</g>
<g id="B20">
</g>
<g id="B21">
</g>
<g id="B22">
	<path fill="#FFDF57" d="M187.6,154.5c-30,25.1-95,38.4-120.2,8.4S66.6,71.2,96.5,46s74.6-21.2,99.7,8.7S217.5,129.4,187.6,154.5z"
		/>
	<polygon fill="#E9CA25" points="71,159.9 51.9,162.5 65.1,178.3 	"/>
	<path fill="#E9CA25" d="M187.6,154.5c27.3-22.9,32.9-62,14.7-91.4l0,0c0,0,34,102.8-113,113.8C119.8,186.4,164.3,174,187.6,154.5z"
		/>
	<g>
		<polygon fill="none" points="211.9,122.4 65.5,122.4 68.5,93.5 214.9,93.5 		"/>
		<text transform="matrix(1 0 0 1 68.3621 109.5838)" fill="#252835" font-family="'CirceRounded-Regular'" font-size="23">Безопасность</text>
	</g>
	<path fill="#F9E698" d="M113.6,62.3c-16.6,12-25.7,27.8-30,21.8c-4.3-6,5.6-20.6,22.2-32.6s33.6-16.9,37.9-11
		C148,46.5,130.2,50.3,113.6,62.3z"/>
</g>
<g id="B23">
</g>
<g id="B24">
</g>
<g id="B25">
</g>
<g id="B26">
</g>
<g id="B27">
</g>
<g id="B28">
</g>
<g id="B29">
</g>
<g id="B30">
</g>
<g id="B31">
</g>
<g id="B32">
</g>
<g id="B33">
</g>
</svg>
