<?xml version="1.0" encoding="utf-8"?>
<!-- Generator: Adobe Illustrator 22.1.0, SVG Export Plug-In . SVG Version: 6.00 Build 0)  -->
<svg version="1.1" id="Слой_1" xmlns="http://www.w3.org/2000/svg" xmlns:xlink="http://www.w3.org/1999/xlink" x="0px" y="0px"
	 viewBox="0 0 128.7 132" style="enable-background:new 0 0 128.7 132;" xml:space="preserve">
<style type="text/css">
	.st0{fill:#FFDF57;}
	.st1{fill:#E9CA25;}
	.st2{fill:none;}
	.st3{enable-background:new    ;}
	.st4{fill:#252835;}
	.st5{fill:#F9E698;}
</style>
<g id="Sky">
</g>
<g id="Clouds">
</g>
<g id="Button">
</g>
<g id="B_1">
</g>
<g id="B2">
</g>
<g id="B3">
</g>
<g id="B4">
</g>
<g id="B5">
</g>
<g id="B6">
</g>
<g id="B7">
</g>
<g id="B8">
</g>
<g id="B9">
</g>
<g id="B10">
</g>
<g id="B11">
</g>
<g id="B12">
</g>
<g id="B13">
</g>
<g id="B14">
</g>
<g id="B15">
</g>
<g id="Head">
</g>
<g id="B16">
</g>
<g id="B17">
</g>
<g id="B18">
	<path class="st0" d="M106.4,101.4c-22.3,21.3-72.8,35.1-94.1,12.8S6.9,42,29.2,20.7s57.6-20.6,78.9,1.7S128.6,80.1,106.4,101.4z"/>
	<polygon class="st1" points="15,111.6 0,114.7 11.2,126.4 	"/>
	<path class="st1" d="M106.4,101.4c20.3-19.4,22.7-50.5,6.9-72.7l0,0c0,0,32,79.1-83,95.3C54.7,130,89.1,118,106.4,101.4z"/>
	<g>
		<rect x="20.1" y="58.9" class="st2" width="87.2" height="30.9"/>
		<g class="st3">
			<path class="st4" d="M22.5,74.2V59.8c0-0.3,0.1-0.5,0.3-0.7c0.2-0.2,0.4-0.3,0.7-0.3c0.3,0,0.5,0.1,0.7,0.3
				c0.2,0.2,0.3,0.4,0.3,0.7v14.5c0,0.3-0.1,0.5-0.3,0.7c-0.2,0.2-0.4,0.3-0.7,0.3c-0.3,0-0.5-0.1-0.7-0.3
				C22.6,74.7,22.5,74.5,22.5,74.2z M31.8,74.7l-6.3-7.3c-0.2-0.2-0.3-0.4-0.3-0.7c0-0.3,0.1-0.5,0.3-0.7l6-6.6
				c0.3-0.3,0.6-0.5,0.9-0.5c0.2,0,0.4,0.1,0.6,0.2c0.2,0.2,0.2,0.3,0.2,0.6c0,0.3-0.1,0.5-0.3,0.8l-5.8,6.1l6.2,7
				c0.2,0.2,0.3,0.5,0.3,0.8c0,0.2-0.1,0.4-0.3,0.6c-0.2,0.2-0.4,0.2-0.6,0.2C32.5,75.2,32.1,75,31.8,74.7z"/>
			<path class="st4" d="M38.2,74.6v4.2c0,0.4-0.1,0.6-0.4,0.7c-0.3,0.1-0.6,0.1-1,0c-0.3-0.1-0.5-0.4-0.4-0.7V65.5
				c0-0.4,0.1-0.6,0.4-0.7c0.3-0.1,0.6-0.1,1,0c0.3,0.1,0.5,0.4,0.4,0.7v0.5c0.4-0.4,0.9-0.8,1.5-1c0.6-0.3,1.3-0.4,2-0.4
				c1.5,0,2.6,0.5,3.5,1.4c0.9,1,1.3,2.3,1.3,3.8c0,1.6-0.5,2.9-1.5,4c-1,1.1-2.3,1.6-3.9,1.6C39.9,75.3,38.9,75,38.2,74.6z
				 M38.2,67.6v5.1c0.8,0.5,1.7,0.8,2.8,0.8c1.1,0,2-0.3,2.6-1c0.7-0.7,1-1.6,1-2.7c0-1.1-0.3-2-0.9-2.6c-0.6-0.7-1.4-1-2.5-1
				C40,66.2,39,66.7,38.2,67.6z"/>
			<path class="st4" d="M48.4,72c0-1,0.4-1.8,1.1-2.4c0.7-0.6,1.7-0.9,2.8-0.9c1.1,0,1.9,0.2,2.6,0.7c0-1.2-0.2-2-0.5-2.5
				c-0.3-0.5-0.9-0.8-1.9-0.8c-0.7,0-1.4,0.1-2.1,0.4c-0.1,0-0.2,0.1-0.3,0.1c-0.3,0-0.6-0.2-0.7-0.5c0-0.1-0.1-0.2-0.1-0.3
				c0-0.4,0.2-0.6,0.5-0.7c1-0.4,1.9-0.6,2.9-0.6c1.4,0,2.4,0.3,3,1c0.6,0.7,0.9,1.8,0.9,3.2v5.7c0,0.2-0.1,0.4-0.3,0.6
				c-0.2,0.2-0.4,0.2-0.6,0.2s-0.5-0.1-0.6-0.2c-0.2-0.2-0.3-0.3-0.3-0.6v-0.7c-0.8,1-1.9,1.5-3.3,1.5c-1,0-1.7-0.3-2.3-0.9
				C48.7,73.8,48.4,73,48.4,72z M54.9,72.2v-1.3c-0.6-0.5-1.4-0.7-2.3-0.7c-0.6,0-1.2,0.1-1.6,0.4c-0.4,0.3-0.6,0.7-0.6,1.3
				c0,0.5,0.2,0.9,0.5,1.2c0.3,0.3,0.8,0.4,1.4,0.4C53.3,73.5,54.2,73.1,54.9,72.2z"/>
			<path class="st4" d="M66.8,66.8c-0.8-0.4-1.5-0.6-2.3-0.6c-1,0-1.8,0.3-2.5,1c-0.7,0.7-1.1,1.6-1.1,2.6c0,1.1,0.4,2,1.1,2.7
				s1.6,1,2.6,1c0.9,0,1.6-0.2,2.2-0.7c0.2-0.2,0.5-0.3,0.7-0.3c0.2,0,0.4,0.1,0.5,0.2c0.2,0.2,0.3,0.4,0.3,0.6
				c0,0.3-0.1,0.5-0.3,0.6c-1,0.9-2.2,1.3-3.6,1.3c-1.6,0-3-0.5-4-1.5c-1-1-1.5-2.3-1.5-3.9c0-1.5,0.5-2.8,1.5-3.8
				c1-1,2.2-1.6,3.7-1.6c1.3,0,2.4,0.3,3.4,0.8c0.3,0.2,0.5,0.4,0.5,0.8c0,0.2,0,0.3-0.1,0.4c-0.2,0.3-0.4,0.4-0.8,0.4
				C67.1,66.9,66.9,66.8,66.8,66.8z"/>
			<path class="st4" d="M71,73.7c-1-1-1.5-2.3-1.5-3.9c0-1.6,0.5-2.9,1.5-3.9c1-1,2.3-1.5,4-1.5c1.6,0,3,0.5,4,1.5
				c1,1,1.5,2.3,1.5,3.9c0,1.6-0.5,2.9-1.5,3.9c-1,1-2.4,1.5-4,1.5S72,74.8,71,73.7z M71.4,69.9c0,1.1,0.3,2,1,2.6
				c0.7,0.7,1.5,1,2.6,1c1,0,1.9-0.3,2.6-1c0.7-0.7,1-1.6,1-2.7c0-1.1-0.3-2-1-2.6c-0.7-0.7-1.5-1-2.6-1c-1,0-1.9,0.3-2.6,1
				C71.8,67.9,71.4,68.8,71.4,69.9z"/>
			<path class="st4" d="M87,66.5v7.8c0,0.4-0.1,0.6-0.4,0.7s-0.6,0.1-1,0c-0.3-0.1-0.5-0.4-0.4-0.7v-7.8h-2.9
				c-0.4,0-0.6-0.1-0.7-0.4c-0.1-0.3-0.1-0.6,0-1c0.1-0.3,0.4-0.5,0.7-0.4H90c0.4,0,0.6,0.1,0.7,0.4c0.1,0.3,0.1,0.6,0,1
				c-0.1,0.3-0.4,0.5-0.7,0.4H87z"/>
			<path class="st4" d="M92.1,72c0-1,0.4-1.8,1.1-2.4c0.7-0.6,1.7-0.9,2.8-0.9c1.1,0,1.9,0.2,2.6,0.7c0-1.2-0.2-2-0.5-2.5
				c-0.3-0.5-0.9-0.8-1.9-0.8c-0.7,0-1.4,0.1-2.1,0.4c-0.1,0-0.2,0.1-0.3,0.1c-0.3,0-0.6-0.2-0.7-0.5c0-0.1-0.1-0.2-0.1-0.3
				c0-0.4,0.2-0.6,0.5-0.7c1-0.4,1.9-0.6,2.9-0.6c1.4,0,2.4,0.3,3,1c0.6,0.7,0.9,1.8,0.9,3.2v5.7c0,0.2-0.1,0.4-0.3,0.6
				c-0.2,0.2-0.4,0.2-0.6,0.2S99,75.1,98.8,75c-0.2-0.2-0.3-0.3-0.3-0.6v-0.7c-0.8,1-1.9,1.5-3.3,1.5c-1,0-1.7-0.3-2.3-0.9
				C92.4,73.8,92.1,73,92.1,72z M98.6,72.2v-1.3c-0.6-0.5-1.4-0.7-2.3-0.7c-0.6,0-1.2,0.1-1.6,0.4C94.3,71,94,71.4,94,71.9
				c0,0.5,0.2,0.9,0.5,1.2c0.3,0.3,0.8,0.4,1.4,0.4C96.9,73.5,97.8,73.1,98.6,72.2z"/>
		</g>
	</g>
	<path class="st5" d="M49.4,28.8C36,36.4,28.5,48.4,25.2,42.5c-3.3-5.8,4.9-16.7,18.2-24.3s26.9-9,30.2-3.2
		C76.9,20.8,62.8,21.2,49.4,28.8z"/>
</g>
<g id="B19">
</g>
<g id="B20">
</g>
<g id="B21">
</g>
<g id="B22">
</g>
<g id="B23">
</g>
<g id="B24">
</g>
<g id="B25">
</g>
<g id="B26">
</g>
<g id="B27">
</g>
<g id="B28">
</g>
<g id="B29">
</g>
<g id="B30">
</g>
<g id="B31">
</g>
<g id="B32">
</g>
<g id="B33">
</g>
</svg>
