<?xml version="1.0" encoding="utf-8"?>
<!-- Generator: Adobe Illustrator 17.1.0, SVG Export Plug-In . SVG Version: 6.00 Build 0)  -->
<!DOCTYPE svg PUBLIC "-//W3C//DTD SVG 1.1//EN" "http://www.w3.org/Graphics/SVG/1.1/DTD/svg11.dtd">
<svg version="1.1" xmlns="http://www.w3.org/2000/svg" xmlns:xlink="http://www.w3.org/1999/xlink" x="0px" y="0px"
	 viewBox="0 0 279 180.5" enable-background="new 0 0 279 180.5" xml:space="preserve">
<g id="Sky">
</g>
<g id="Clouds">
</g>
<g id="Button">
</g>
<g id="B_1">
</g>
<g id="B2">
</g>
<g id="B3">
</g>
<g id="B4">
</g>
<g id="B5">
</g>
<g id="B6">
	<g>
		<path fill="#96CD7C" d="M181.5,117.2c-20.9,25-72.4,45.4-97.4,24.5S70.1,66.4,91,41.4s58.1-28.3,83.1-7.4S202.4,92.2,181.5,117.2z
			"/>
		<polygon fill="#84CB66" points="86.7,138.6 71.3,143.6 84.4,154.6 		"/>
		<path fill="#84CB66" d="M181.5,117.2c19-22.8,18-55.7-1.2-77.2l0,0c0,0,42.9,79.4-76.1,109.9C130.5,153.2,165.2,136.6,181.5,117.2
			z"/>
	</g>
	<path fill="#ABD796" d="M106.3,46c-10.8,9.9-15.9,21.9-19.6,17.9c-3.7-4.1,2.1-15.4,12.9-25.2s22.6-14.6,26.3-10.6
		C129.6,32.1,117.1,36.1,106.3,46z"/>
	<g>
		<rect x="79.2" y="61.7" fill="none" width="107.2" height="75.3"/>
		<text transform="matrix(1 0 0 1 92.3308 77.836)"><tspan x="0" y="0" fill="#252835" font-family="'CirceRounded-Regular'" font-size="23">Одежда</tspan><tspan x="12.3" y="27.6" fill="#252835" font-family="'CirceRounded-Regular'" font-size="23">Мода</tspan></text>
	</g>
</g>
<g id="B7">
</g>
<g id="B8">
</g>
<g id="B9">
</g>
<g id="B10">
</g>
<g id="B11">
</g>
<g id="B12">
</g>
<g id="B13">
</g>
<g id="B14">
</g>
<g id="B15">
</g>
<g id="Head">
</g>
<g id="B16">
</g>
<g id="B17">
</g>
<g id="B18">
</g>
<g id="B19">
</g>
<g id="B20">
</g>
<g id="B21">
</g>
<g id="B22">
</g>
<g id="B23">
</g>
<g id="B24">
</g>
<g id="B25">
</g>
<g id="B26">
</g>
<g id="B27">
</g>
<g id="B28">
</g>
<g id="B29">
</g>
<g id="B30">
</g>
<g id="B31">
</g>
<g id="B32">
</g>
<g id="B33">
</g>
</svg>
