<?xml version="1.0" encoding="utf-8"?>
<!-- Generator: Adobe Illustrator 17.1.0, SVG Export Plug-In . SVG Version: 6.00 Build 0)  -->
<!DOCTYPE svg PUBLIC "-//W3C//DTD SVG 1.1//EN" "http://www.w3.org/Graphics/SVG/1.1/DTD/svg11.dtd">
<svg version="1.1" xmlns="http://www.w3.org/2000/svg" xmlns:xlink="http://www.w3.org/1999/xlink" x="0px" y="0px"
	 viewBox="0 0 264 181.7" enable-background="new 0 0 264 181.7" xml:space="preserve">
<g id="Sky">
</g>
<g id="Clouds">
</g>
<g id="Button">
</g>
<g id="B_1">
</g>
<g id="B2">
</g>
<g id="B3">
</g>
<g id="B4">
</g>
<g id="B5">
</g>
<g id="B6">
</g>
<g id="B7">
</g>
<g id="B8">
</g>
<g id="B9">
</g>
<g id="B10">
</g>
<g id="B11">
</g>
<g id="B12">
</g>
<g id="B13">
</g>
<g id="B14">
</g>
<g id="B15">
</g>
<g id="Head">
</g>
<g id="B16">
</g>
<g id="B17">
</g>
<g id="B18">
</g>
<g id="B19">
</g>
<g id="B20">
</g>
<g id="B21">
</g>
<g id="B22">
</g>
<g id="B23">
</g>
<g id="B24">
</g>
<g id="B25">
	<path fill="#75AEB9" d="M171,126.7c-21.2,17.8-67.2,27.1-84.9,6s-0.6-64.8,20.6-82.6s52.7-15,70.5,6.2S192.2,109,171,126.7z"/>
	<polygon fill="#4E9DA3" points="88.7,130.5 75.1,132.4 84.5,143.5 	"/>
	<path fill="#4E9DA3" d="M171,126.7c19.3-16.2,23.3-43.8,10.4-64.6l0,0c0,0,24,72.6-79.9,80.4C123.1,149.3,154.6,140.5,171,126.7z"
		/>
	<path fill="#91BEC7" d="M120.6,58.3c-12.4,7-19.7,17.7-22.5,12.8c-2.8-5,5-14.7,17.4-21.8s24.8-8.7,27.6-3.8
		C145.9,50.5,133,51.2,120.6,58.3z"/>
	<g>
		<rect x="85.9" y="86" fill="none" width="98" height="30.9"/>
		<text transform="matrix(1 0 0 1 85.8517 102.1189)" fill="#252835" font-family="'CirceRounded-Regular'" font-size="23">Экология</text>
	</g>
</g>
<g id="B26">
</g>
<g id="B27">
</g>
<g id="B28">
</g>
<g id="B29">
</g>
<g id="B30">
</g>
<g id="B31">
</g>
<g id="B32">
</g>
<g id="B33">
</g>
</svg>
