<?xml version="1.0" encoding="utf-8"?>
<!-- Generator: Adobe Illustrator 17.1.0, SVG Export Plug-In . SVG Version: 6.00 Build 0)  -->
<!DOCTYPE svg PUBLIC "-//W3C//DTD SVG 1.1//EN" "http://www.w3.org/Graphics/SVG/1.1/DTD/svg11.dtd">
<svg version="1.1" xmlns="http://www.w3.org/2000/svg" xmlns:xlink="http://www.w3.org/1999/xlink" x="0px" y="0px"
	 viewBox="0 0 344 228" enable-background="new 0 0 344 228" xml:space="preserve">
<g id="Sky">
</g>
<g id="Clouds">
</g>
<g id="Button">
</g>
<g id="B1">
</g>
<g id="B2">
</g>
<g id="B3">
</g>
<g id="B4">
	<g>
		<path fill="#A7A6F6" d="M242.3,178.4c-38.8,32.6-123.1,49.7-155.7,10.9s-1-118.8,37.8-151.4S221,10.4,253.5,49.2
			S281,145.8,242.3,178.4z"/>
		<polygon fill="#A099E9" points="91.3,185.3 66.5,188.8 83.6,209.1 		"/>
		<path fill="#A099E9" d="M242.3,178.4c35.3-29.7,42.7-80.3,19.1-118.4l0,0c0,0,44,133.1-146.4,147.3
			C154.4,219.7,212.1,203.7,242.3,178.4z"/>
	</g>
	<g>
		<rect x="79.6" y="117" fill="none" width="199.9" height="30.9"/>
		<text transform="matrix(1 0 0 1 79.6013 133.1086)" fill="#252835" font-family="'CirceRounded-Regular'" font-size="23">Металлургическая</text>
	</g>
	<path fill="#BEBDF6" d="M144.7,58.9c-24.4,17.7-37.8,40.9-44.2,32.1c-6.4-8.8,8.2-30.3,32.6-48s49.4-24.9,55.8-16.1
		S169.1,41.2,144.7,58.9z"/>
</g>
<g id="Bubble1">
</g>
<g id="Bubble2">
</g>
</svg>
