<?xml version="1.0" encoding="utf-8"?>
<!-- Generator: Adobe Illustrator 17.1.0, SVG Export Plug-In . SVG Version: 6.00 Build 0)  -->
<!DOCTYPE svg PUBLIC "-//W3C//DTD SVG 1.1//EN" "http://www.w3.org/Graphics/SVG/1.1/DTD/svg11.dtd">
<svg version="1.1" xmlns="http://www.w3.org/2000/svg" xmlns:xlink="http://www.w3.org/1999/xlink" x="0px" y="0px"
	 viewBox="0 0 306 276" enable-background="new 0 0 306 276" xml:space="preserve">
<g id="Sky">
</g>
<g id="Clouds">
</g>
<g id="Button">
</g>
<g id="B_1">
</g>
<g id="B2">
</g>
<g id="B3">
</g>
<g id="B4">
</g>
<g id="B5">
</g>
<g id="B6">
</g>
<g id="B7">
</g>
<g id="B8">
</g>
<g id="B9">
</g>
<g id="B10">
</g>
<g id="B11">
</g>
<g id="B12">
</g>
<g id="B13">
</g>
<g id="B14">
</g>
<g id="B15">
</g>
<g id="Head">
</g>
<g id="B16">
</g>
<g id="B17">
</g>
<g id="B18">
</g>
<g id="B19">
</g>
<g id="B20">
</g>
<g id="B21">
</g>
<g id="B22">
</g>
<g id="B23">
	<path fill="#FFDF57" d="M215.2,202.3c-38.8,32.5-123,49.7-155.5,10.9S58.6,94.5,97.4,62s96.5-27.5,129.1,11.3
		S253.9,169.8,215.2,202.3z"/>
	<polygon fill="#E9CA25" points="64.4,209.2 39.6,212.7 56.7,233.1 	"/>
	<path fill="#E9CA25" d="M215.2,202.3c35.3-29.6,42.6-80.2,19.1-118.3l0,0c0,0,44,133-146.2,147.2
		C127.4,243.6,185,227.6,215.2,202.3z"/>
	<g>
		<rect x="56" y="125.1" fill="none" width="183.8" height="89.4"/>
		<text transform="matrix(1 0 0 1 56.4802 141.1877)"><tspan x="0" y="0" fill="#252835" font-family="'CirceRounded-Regular'" font-size="23">Добыча полезных</tspan><tspan x="29.8" y="27.6" fill="#252835" font-family="'CirceRounded-Regular'" font-size="23">ископаемых</tspan></text>
	</g>
	<path fill="#F9E698" d="M114.3,77.2C94.1,91.8,83.1,111,77.8,103.7c-5.3-7.3,6.8-25.1,27-39.7s40.8-20.6,46.1-13.3
		C156.1,58,134.5,62.5,114.3,77.2z"/>
</g>
<g id="B24">
</g>
<g id="B25">
</g>
<g id="B26">
</g>
<g id="B27">
</g>
<g id="B28">
</g>
<g id="B29">
</g>
<g id="B30">
</g>
<g id="B31">
</g>
<g id="B32">
</g>
<g id="B33">
</g>
</svg>
