<?xml version="1.0" encoding="utf-8"?>
<!-- Generator: Adobe Illustrator 17.1.0, SVG Export Plug-In . SVG Version: 6.00 Build 0)  -->
<!DOCTYPE svg PUBLIC "-//W3C//DTD SVG 1.1//EN" "http://www.w3.org/Graphics/SVG/1.1/DTD/svg11.dtd">
<svg version="1.1" xmlns="http://www.w3.org/2000/svg" xmlns:xlink="http://www.w3.org/1999/xlink" x="0px" y="0px"
	 viewBox="0 0 194 164.6" enable-background="new 0 0 194 164.6" xml:space="preserve">
<g id="Sky">
</g>
<g id="Clouds">
</g>
<g id="Button">
</g>
<g id="B1">
</g>
<g id="B2">
</g>
<g id="B3">
	<g>
		<path fill="#75AEB9" d="M146.8,116.2c-21.9,21.7-72.2,36.3-93.9,14.4s-6.5-72.1,15.4-93.7s57.3-21.5,78.9,0.4
			S168.7,94.6,146.8,116.2z"/>
		<polygon fill="#4E9DA3" points="55.6,128 40.7,131.3 52.1,142.8 		"/>
		<path fill="#4E9DA3" d="M146.8,116.2c20-19.8,21.9-50.8,5.7-72.8l0,0c0,0,33.3,78.6-81.5,96.7C95.6,145.7,129.8,133.1,146.8,116.2
			z"/>
	</g>
	<g>
		
			<rect x="63.1" y="74.4" transform="matrix(0.9999 -1.647408e-002 1.647408e-002 0.9999 -1.4648 1.9805)" fill="none" width="112.7" height="30.9"/>
		
			<text transform="matrix(0.9999 -1.647000e-002 1.647000e-002 0.9999 63.0816 91.4597)" fill="#252835" font-family="'CirceRounded-Regular'" font-size="23">Водный</text>
	</g>
	<path fill="#91BEC7" d="M89.5,43.5c-14.2,8.4-22.1,21.4-25.8,15.2s4.9-18,19.2-26.4s28.8-10.2,32.4-4
		C118.9,34.4,103.7,35.1,89.5,43.5z"/>
</g>
<g id="B4">
</g>
<g id="Bubble1">
</g>
<g id="Bubble2">
</g>
</svg>
