<?xml version="1.0" encoding="utf-8"?>
<!-- Generator: Adobe Illustrator 22.1.0, SVG Export Plug-In . SVG Version: 6.00 Build 0)  -->
<svg version="1.1" id="Слой_1" xmlns="http://www.w3.org/2000/svg" xmlns:xlink="http://www.w3.org/1999/xlink" x="0px" y="0px"
	 viewBox="0 0 141 145.3" style="enable-background:new 0 0 141 145.3;" xml:space="preserve">
<style type="text/css">
	.st0{fill:#75AEB9;}
	.st1{fill:#4E9DA3;}
	.st2{fill:#91BEC7;}
	.st3{fill:none;}
	.st4{enable-background:new    ;}
	.st5{fill:#252835;}
</style>
<g id="Sky">
</g>
<g id="Clouds">
</g>
<g id="Button">
</g>
<g id="B_1">
</g>
<g id="B2">
	<g>
		<path class="st0" d="M120.6,106.4c-21.5,25.9-74.5,47-100.3,25.6S5.5,54.5,27,28.6s59.8-29.4,85.7-7.9S142.1,80.5,120.6,106.4z"/>
		<polygon class="st1" points="22.9,128.8 7.1,134 20.6,145.3 		"/>
		<path class="st1" d="M120.6,106.4c19.6-23.6,18.3-57.5-1.6-79.6l0,0c0,0,44.5,81.7-78.1,113.6C68.2,143.8,103.9,126.5,120.6,106.4
			z"/>
	</g>
	<path class="st2" d="M57.7,30c-15,7-24.2,19.1-27.2,12.6s6.7-17.5,21.7-24.4s29.7-7.3,32.7-0.8S72.8,23,57.7,30z"/>
	<rect x="21.8" y="64.2" class="st3" width="112.4" height="30.9"/>
	<g class="st4">
		<path class="st5" d="M36.1,65.1v14.4c0,0.3-0.1,0.5-0.3,0.7c-0.2,0.2-0.4,0.3-0.7,0.3c-0.3,0-0.5-0.1-0.7-0.3
			c-0.2-0.2-0.3-0.4-0.3-0.7V66h-5.8l-0.3,3c-0.5,5.7-1.5,9.2-2.8,10.5c-0.6,0.6-1.3,0.9-2.2,0.9c-0.3,0-0.4,0-0.5,0
			c-0.6-0.1-0.9-0.4-0.9-0.9v-0.1c0.1-0.6,0.4-0.9,1-0.9h0.1h0.1c0.8,0,1.5-1,2.2-3.1c0.5-1.8,0.9-4.5,1.2-8l0.2-2.3
			c0-0.3,0.1-0.5,0.3-0.7c0.2-0.2,0.4-0.3,0.7-0.3h7.8c0.2,0,0.5,0.1,0.7,0.3C36,64.6,36.1,64.9,36.1,65.1z"/>
		<path class="st5" d="M41,79c-1-1-1.5-2.3-1.5-3.9c0-1.6,0.5-2.9,1.5-3.9c1-1,2.3-1.5,4-1.5c1.6,0,3,0.5,4,1.5c1,1,1.5,2.3,1.5,3.9
			c0,1.6-0.5,2.9-1.5,3.9c-1,1-2.4,1.5-4,1.5S42.1,80,41,79z M41.5,75.1c0,1.1,0.3,2,1,2.6c0.7,0.7,1.5,1,2.6,1c1,0,1.9-0.3,2.6-1
			c0.7-0.7,1-1.6,1-2.7c0-1.1-0.3-2-1-2.6c-0.7-0.7-1.5-1-2.6-1c-1,0-1.9,0.3-2.6,1C41.8,73.1,41.5,74,41.5,75.1z"/>
		<path class="st5" d="M58.8,71.7H55v7.9c0,0.4-0.1,0.6-0.4,0.7c-0.3,0.1-0.6,0.1-1,0c-0.3-0.1-0.5-0.4-0.4-0.7v-8.8
			c0-0.2,0.1-0.5,0.3-0.6c0.2-0.2,0.4-0.3,0.6-0.3h4.8c0.2,0,0.5,0.1,0.6,0.3c0.2,0.2,0.3,0.4,0.3,0.6c0,0.2-0.1,0.5-0.3,0.6
			C59.3,71.6,59.1,71.7,58.8,71.7z"/>
		<path class="st5" d="M71.1,70.8v8.8c0,0.4-0.1,0.6-0.4,0.7s-0.6,0.1-1,0c-0.3-0.1-0.5-0.4-0.4-0.7v-6.8l-5.6,6.9
			c-0.5,0.6-0.9,0.8-1.3,0.8c-0.3,0-0.5-0.1-0.7-0.3c-0.2-0.2-0.3-0.4-0.3-0.6v-8.8c0-0.4,0.1-0.6,0.4-0.7c0.3-0.1,0.6-0.1,1,0
			c0.3,0.1,0.5,0.4,0.4,0.7v6.9l5.6-6.9c0.5-0.6,0.9-0.9,1.3-0.9c0.3,0,0.5,0.1,0.7,0.3C71.1,70.3,71.1,70.5,71.1,70.8z"/>
		<path class="st5" d="M81.5,72c-0.8-0.4-1.5-0.6-2.3-0.6c-1,0-1.8,0.3-2.5,1c-0.7,0.7-1.1,1.6-1.1,2.6c0,1.1,0.4,2,1.1,2.7
			s1.6,1,2.6,1c0.9,0,1.6-0.2,2.2-0.7c0.2-0.2,0.5-0.3,0.7-0.3c0.2,0,0.4,0.1,0.5,0.2c0.2,0.2,0.3,0.4,0.3,0.6
			c0,0.3-0.1,0.5-0.3,0.6c-1,0.9-2.2,1.3-3.6,1.3c-1.6,0-3-0.5-4-1.5c-1-1-1.5-2.3-1.5-3.9c0-1.5,0.5-2.8,1.5-3.8
			c1-1,2.2-1.6,3.7-1.6c1.3,0,2.4,0.3,3.4,0.8c0.3,0.2,0.5,0.4,0.5,0.8c0,0.2,0,0.3-0.1,0.4c-0.2,0.3-0.4,0.4-0.8,0.4
			C81.8,72.1,81.7,72.1,81.5,72z"/>
		<path class="st5" d="M89.6,71.8v7.8c0,0.4-0.1,0.6-0.4,0.7s-0.6,0.1-1,0c-0.3-0.1-0.5-0.4-0.4-0.7v-7.8h-2.9
			c-0.4,0-0.6-0.1-0.7-0.4c-0.1-0.3-0.1-0.6,0-1c0.1-0.3,0.4-0.5,0.7-0.4h7.7c0.4,0,0.6,0.1,0.7,0.4c0.1,0.3,0.1,0.6,0,1
			c-0.1,0.3-0.4,0.5-0.7,0.4H89.6z"/>
		<path class="st5" d="M105.1,70.8v8.8c0,0.4-0.1,0.6-0.4,0.7c-0.3,0.1-0.6,0.1-1,0s-0.5-0.4-0.4-0.7v-6.8l-5.6,6.9
			c-0.5,0.6-0.9,0.8-1.3,0.8c-0.3,0-0.5-0.1-0.7-0.3c-0.2-0.2-0.3-0.4-0.3-0.6v-8.8c0-0.4,0.1-0.6,0.4-0.7c0.3-0.1,0.6-0.1,1,0
			c0.3,0.1,0.5,0.4,0.4,0.7v6.9l5.6-6.9c0.5-0.6,0.9-0.9,1.3-0.9c0.3,0,0.5,0.1,0.7,0.3C105,70.3,105.1,70.5,105.1,70.8z"/>
		<path class="st5" d="M110.2,70.7v8.9c0,0.4-0.1,0.6-0.4,0.7c-0.3,0.1-0.6,0.1-1,0c-0.3-0.1-0.5-0.4-0.4-0.7v-8.9
			c0-0.4,0.1-0.6,0.4-0.7c0.3-0.1,0.6-0.1,1,0C110.1,70.1,110.3,70.3,110.2,70.7z M115.1,80l-3.8-4.3c-0.2-0.2-0.2-0.4-0.2-0.7
			c0-0.3,0.1-0.5,0.2-0.6l3.5-4c0.3-0.3,0.5-0.5,0.9-0.5c0.3,0,0.5,0.1,0.7,0.3c0.2,0.2,0.2,0.4,0.2,0.6c0,0.2-0.1,0.4-0.2,0.6
			l-3.3,3.6l3.7,4c0.2,0.2,0.3,0.4,0.3,0.7c0,0.2-0.1,0.5-0.3,0.6c-0.2,0.2-0.4,0.3-0.7,0.3C115.6,80.4,115.3,80.3,115.1,80z"/>
		<path class="st5" d="M118.7,77.2c0-1,0.4-1.8,1.1-2.4c0.7-0.6,1.7-0.9,2.8-0.9c1.1,0,1.9,0.2,2.6,0.7c0-1.2-0.2-2-0.5-2.5
			c-0.3-0.5-0.9-0.8-1.9-0.8c-0.7,0-1.4,0.1-2.1,0.4c-0.1,0-0.2,0.1-0.3,0.1c-0.3,0-0.6-0.2-0.7-0.5c0-0.1-0.1-0.2-0.1-0.3
			c0-0.4,0.2-0.6,0.5-0.7c1-0.4,1.9-0.6,2.9-0.6c1.4,0,2.4,0.3,3,1c0.6,0.7,0.9,1.8,0.9,3.2v5.7c0,0.2-0.1,0.4-0.3,0.6
			c-0.2,0.2-0.4,0.2-0.6,0.2s-0.5-0.1-0.6-0.2c-0.2-0.2-0.3-0.3-0.3-0.6V79c-0.8,1-1.9,1.5-3.3,1.5c-1,0-1.7-0.3-2.3-0.9
			C119,79,118.7,78.2,118.7,77.2z M125.2,77.5v-1.3c-0.6-0.5-1.4-0.7-2.3-0.7c-0.6,0-1.2,0.1-1.6,0.4c-0.4,0.3-0.6,0.7-0.6,1.3
			c0,0.5,0.2,0.9,0.5,1.2c0.3,0.3,0.8,0.4,1.4,0.4C123.6,78.8,124.5,78.3,125.2,77.5z"/>
	</g>
</g>
<g id="B3">
</g>
<g id="B4">
</g>
<g id="B5">
</g>
<g id="B6">
</g>
<g id="B7">
</g>
<g id="B8">
</g>
<g id="B9">
</g>
<g id="B10">
</g>
<g id="B11">
</g>
<g id="B12">
</g>
<g id="B13">
</g>
<g id="B14">
</g>
<g id="B15">
</g>
<g id="Head">
</g>
<g id="B16">
</g>
<g id="B17">
</g>
<g id="B18">
</g>
<g id="B19">
</g>
<g id="B20">
</g>
<g id="B21">
</g>
<g id="B22">
</g>
<g id="B23">
</g>
<g id="B24">
</g>
<g id="B25">
</g>
<g id="B26">
</g>
<g id="B27">
</g>
<g id="B28">
</g>
<g id="B29">
</g>
<g id="B30">
</g>
<g id="B31">
</g>
<g id="B32">
</g>
<g id="B33">
</g>
</svg>
