<?xml version="1.0" encoding="utf-8"?>
<!-- Generator: Adobe Illustrator 17.1.0, SVG Export Plug-In . SVG Version: 6.00 Build 0)  -->
<!DOCTYPE svg PUBLIC "-//W3C//DTD SVG 1.1//EN" "http://www.w3.org/Graphics/SVG/1.1/DTD/svg11.dtd">
<svg version="1.1" xmlns="http://www.w3.org/2000/svg" xmlns:xlink="http://www.w3.org/1999/xlink" x="0px" y="0px"
	 viewBox="0 0 352 275.9" enable-background="new 0 0 352 275.9" xml:space="preserve">
<g id="Sky">
</g>
<g id="Clouds">
</g>
<g id="Button">
</g>
<g id="B1">
	<g>
		<path fill="#A7A6F6" d="M260.6,208.2c-47.1,39.5-149.4,60.3-188.9,13.2S70.4,77.3,117.5,37.7S234.8,4.4,274.3,51.5
			S307.7,168.7,260.6,208.2z"/>
		<polygon fill="#A099E9" points="77.4,216.7 47.3,220.9 68,245.6 		"/>
		<path fill="#A099E9" d="M260.6,208.2c42.9-36,51.8-97.4,23.2-143.7l0,0c0,0,53.4,161.5-177.7,178.8C154,258.4,224,239,260.6,208.2
			z"/>
	</g>
	<g>
		<rect x="63.9" y="135.9" fill="none" width="240.8" height="30.9"/>
		<text transform="matrix(1 0 0 1 63.8948 151.9977)" fill="#252835" font-family="'CirceRounded-Regular'" font-size="23">Машиностроительная</text>
	</g>
	<path fill="#BEBDF6" d="M137,55.2c-24.4,17.7-37.8,40.9-44.2,32.1c-6.4-8.8,8.2-30.3,32.6-48s49.4-24.9,55.8-16.1
		C187.6,31.9,161.4,37.5,137,55.2z"/>
</g>
<g id="B2">
</g>
<g id="B3">
</g>
<g id="B4">
</g>
<g id="Bubble1">
</g>
<g id="Bubble2">
</g>
</svg>
