<?xml version="1.0" encoding="utf-8"?>
<!-- Generator: Adobe Illustrator 22.1.0, SVG Export Plug-In . SVG Version: 6.00 Build 0)  -->
<svg version="1.1" id="Слой_1" xmlns="http://www.w3.org/2000/svg" xmlns:xlink="http://www.w3.org/1999/xlink" x="0px" y="0px"
	 viewBox="0 0 138.8 127" style="enable-background:new 0 0 138.8 127;" xml:space="preserve">
<style type="text/css">
	.st0{fill:#FFDF57;}
	.st1{fill:#E9CA25;}
	.st2{fill:none;}
	.st3{enable-background:new    ;}
	.st4{fill:#252835;}
	.st5{fill:#F9E698;}
</style>
<g id="Sky">
</g>
<g id="Clouds">
</g>
<g id="Button">
</g>
<g id="B_1">
</g>
<g id="B2">
</g>
<g id="B3">
</g>
<g id="B4">
</g>
<g id="B5">
	<path class="st0" d="M106.2,107.9c-25.5,16.9-77.3,21.5-94.2-4s7.5-71.5,33-88.4s59.9-9.9,76.8,15.6S131.7,91,106.2,107.9z"/>
	<polygon class="st1" points="15.1,101.8 0,102.2 8.8,115.6 	"/>
	<path class="st1" d="M106.2,107.9c23.2-15.4,31.1-45.3,19.5-69.8l0,0c0,0,17.4,82.9-97.9,78.5C50.7,126.7,86.4,121,106.2,107.9z"/>
	<g>
		<rect x="6.4" y="56.3" class="st2" width="122.8" height="30.9"/>
		<g class="st3">
			<path class="st4" d="M17,56.9l5.5,6.6c0.3,0.3,0.3,0.7,0,1.1l-5.8,7.3c-0.4,0.5-0.7,0.7-1.1,0.7c-0.4,0-0.7-0.2-0.8-0.5
				c-0.1-0.3-0.1-0.7,0.2-1l5.7-7.1l-5.4-6.3c-0.3-0.3-0.3-0.7-0.2-1c0.1-0.3,0.4-0.5,0.8-0.5C16.4,56.2,16.7,56.4,17,56.9z
				 M23.4,71.6V57.2c0-0.3,0.1-0.5,0.3-0.7c0.2-0.2,0.4-0.3,0.7-0.3c0.3,0,0.5,0.1,0.7,0.3c0.2,0.2,0.3,0.4,0.3,0.7v14.5
				c0,0.3-0.1,0.5-0.3,0.7c-0.2,0.2-0.4,0.3-0.7,0.3c-0.3,0-0.5-0.1-0.7-0.3C23.5,72.1,23.4,71.9,23.4,71.6z M27.9,64l5.7,7.1
				c0.3,0.3,0.3,0.7,0.2,1s-0.4,0.5-0.8,0.5c-0.2,0-0.4,0-0.5-0.1c-0.1-0.1-0.3-0.3-0.6-0.6l-5.8-7.3c-0.3-0.4-0.3-0.7,0-1.1
				l5.6-6.7c0.3-0.4,0.6-0.6,0.9-0.6c0.2,0,0.4,0.1,0.6,0.2c0.2,0.2,0.2,0.3,0.2,0.6c0,0.2-0.1,0.4-0.2,0.6L27.9,64z"/>
			<path class="st4" d="M46,62.9v8.8c0,0.4-0.1,0.6-0.4,0.7c-0.3,0.1-0.6,0.1-1,0c-0.3-0.1-0.5-0.4-0.4-0.7v-6.8l-5.6,6.9
				c-0.5,0.6-0.9,0.8-1.3,0.8c-0.3,0-0.5-0.1-0.7-0.3c-0.2-0.2-0.3-0.4-0.3-0.6v-8.8c0-0.4,0.1-0.6,0.4-0.7c0.3-0.1,0.6-0.1,1,0
				c0.3,0.1,0.5,0.4,0.4,0.7v6.9l5.6-6.9c0.5-0.6,0.9-0.9,1.3-0.9c0.3,0,0.5,0.1,0.7,0.3C46,62.4,46,62.7,46,62.9z"/>
			<path class="st4" d="M57.6,64.7c0,0.6-0.2,1.1-0.6,1.6c-0.4,0.4-0.9,0.7-1.5,0.8c1.6,0.3,2.4,1.1,2.4,2.5c0,2-1.6,3-4.8,3
				c-0.2,0-1.1,0-2.9-0.1c-0.2,0-0.5-0.1-0.6-0.3c-0.2-0.2-0.3-0.4-0.3-0.6V63c0-0.2,0.1-0.5,0.3-0.6c0.2-0.2,0.4-0.3,0.6-0.3
				c1.7,0,2.6-0.1,2.9-0.1C56.1,62,57.6,62.9,57.6,64.7z M51.2,63.5v3.1h2.3c0.6,0,1.1-0.1,1.5-0.4c0.4-0.3,0.6-0.7,0.6-1.2
				c0-1-0.8-1.5-2.4-1.5C52.8,63.5,52.1,63.5,51.2,63.5z M53.4,67.8h-2.2V71c1.1,0,1.8,0.1,2.1,0.1c1.8,0,2.6-0.6,2.6-1.7
				C56,68.3,55.1,67.8,53.4,67.8z"/>
			<path class="st4" d="M61.6,71.1c-1-1-1.5-2.3-1.5-3.9c0-1.6,0.5-2.9,1.5-3.9c1-1,2.3-1.5,4-1.5c1.6,0,3,0.5,4,1.5
				c1,1,1.5,2.3,1.5,3.9c0,1.6-0.5,2.9-1.5,3.9c-1,1-2.4,1.5-4,1.5C63.9,72.7,62.6,72.1,61.6,71.1z M62,67.3c0,1.1,0.3,2,1,2.6
				c0.7,0.7,1.5,1,2.6,1c1,0,1.9-0.3,2.6-1c0.7-0.7,1-1.6,1-2.7c0-1.1-0.3-2-1-2.6c-0.7-0.7-1.5-1-2.6-1c-1,0-1.9,0.3-2.6,1
				C62.3,65.3,62,66.2,62,67.3z"/>
			<path class="st4" d="M77.6,63.9v7.8c0,0.4-0.1,0.6-0.4,0.7c-0.3,0.1-0.6,0.1-1,0s-0.5-0.4-0.4-0.7v-7.8h-2.9
				c-0.4,0-0.6-0.1-0.7-0.4c-0.1-0.3-0.1-0.6,0-1c0.1-0.3,0.4-0.5,0.7-0.4h7.7c0.4,0,0.6,0.1,0.7,0.4s0.1,0.6,0,1
				c-0.1,0.3-0.4,0.5-0.7,0.4H77.6z"/>
			<path class="st4" d="M92.8,62.8v8.9c0,0.4-0.1,0.6-0.4,0.7c-0.3,0.1-0.6,0.1-1,0s-0.5-0.4-0.4-0.7v-3.7h-5.8v3.7
				c0,0.4-0.1,0.6-0.4,0.7s-0.6,0.1-1,0s-0.5-0.4-0.4-0.7v-8.9c0-0.4,0.1-0.6,0.4-0.7c0.3-0.1,0.6-0.1,1,0c0.3,0.1,0.5,0.4,0.4,0.7
				v3.5H91v-3.5c0-0.4,0.1-0.6,0.4-0.7c0.3-0.1,0.6-0.1,1,0C92.7,62.2,92.9,62.5,92.8,62.8z"/>
			<path class="st4" d="M98,62.8v2.3h1.7c1.4,0,2.4,0.3,3.1,1c0.7,0.6,1,1.5,1,2.6c0,1.1-0.4,2-1.1,2.7c-0.7,0.7-1.8,1-3.2,1H97
				c-0.2,0-0.5-0.1-0.6-0.3s-0.3-0.4-0.3-0.6v-8.7c0-0.4,0.1-0.6,0.4-0.7c0.3-0.1,0.6-0.1,1,0C97.9,62.2,98,62.5,98,62.8z M98,66.9
				v3.8h1.3c0.9,0,1.5-0.2,1.9-0.5s0.6-0.8,0.6-1.4c0-1.3-0.8-1.9-2.5-1.9H98z M107.6,62.8v8.9c0,0.4-0.1,0.6-0.4,0.7
				c-0.3,0.1-0.6,0.1-1,0s-0.5-0.4-0.4-0.7v-8.9c0-0.4,0.1-0.6,0.4-0.7c0.3-0.1,0.6-0.1,1,0C107.5,62.2,107.6,62.5,107.6,62.8z"/>
			<path class="st4" d="M120.4,66.6c0,0.3,0,0.4,0,0.5c0,0.2-0.1,0.4-0.3,0.5s-0.3,0.2-0.5,0.2h-7.3c0.1,1,0.4,1.7,1.1,2.3
				c0.7,0.6,1.5,0.8,2.5,0.8c1,0,1.8-0.2,2.5-0.6c0.2-0.1,0.3-0.1,0.5-0.1c0.2,0,0.4,0.1,0.6,0.3c0.1,0.1,0.1,0.2,0.1,0.4
				c0,0.3-0.1,0.5-0.3,0.6c-1.1,0.8-2.3,1.2-3.7,1.2c-1.7,0-3-0.5-4-1.5c-1-1-1.5-2.3-1.5-3.9c0-1.5,0.5-2.8,1.4-3.9
				c1-1,2.3-1.5,3.9-1.5c1.4,0,2.5,0.4,3.4,1.3C119.9,64.1,120.4,65.2,120.4,66.6z M112.2,66.3h6.3c0-0.9-0.3-1.5-0.9-2
				c-0.5-0.5-1.2-0.7-2.1-0.7c-0.9,0-1.7,0.3-2.2,0.8C112.6,64.8,112.3,65.5,112.2,66.3z"/>
		</g>
	</g>
	<path class="st5" d="M67.8,23.5C54.3,26,44.5,33.9,43.4,28c-1.1-5.8,8.9-12.6,22.4-15.2s25.3,0.2,26.4,6S81.3,20.9,67.8,23.5z"/>
</g>
<g id="B6">
</g>
<g id="B7">
</g>
<g id="B8">
</g>
<g id="B9">
</g>
<g id="B10">
</g>
<g id="B11">
</g>
<g id="B12">
</g>
<g id="B13">
</g>
<g id="B14">
</g>
<g id="B15">
</g>
<g id="Head">
</g>
<g id="B16">
</g>
<g id="B17">
</g>
<g id="B18">
</g>
<g id="B19">
</g>
<g id="B20">
</g>
<g id="B21">
</g>
<g id="B22">
</g>
<g id="B23">
</g>
<g id="B24">
</g>
<g id="B25">
</g>
<g id="B26">
</g>
<g id="B27">
</g>
<g id="B28">
</g>
<g id="B29">
</g>
<g id="B30">
</g>
<g id="B31">
</g>
<g id="B32">
</g>
<g id="B33">
</g>
</svg>
