<?xml version="1.0" encoding="utf-8"?>
<!-- Generator: Adobe Illustrator 17.1.0, SVG Export Plug-In . SVG Version: 6.00 Build 0)  -->
<!DOCTYPE svg PUBLIC "-//W3C//DTD SVG 1.1//EN" "http://www.w3.org/Graphics/SVG/1.1/DTD/svg11.dtd">
<svg version="1.1" xmlns="http://www.w3.org/2000/svg" xmlns:xlink="http://www.w3.org/1999/xlink" x="0px" y="0px"
	 viewBox="0 0 264 188" enable-background="new 0 0 264 188" xml:space="preserve">
<g id="Sky">
</g>
<g id="Clouds">
</g>
<g id="Button">
</g>
<g id="B_1">
</g>
<g id="B2">
	<g>
		<path fill="#75AEB9" d="M197.6,115.4c-21.5,25.9-74.5,47-100.3,25.6S82.5,63.5,104,37.6s59.8-29.4,85.7-7.9
			S219.1,89.5,197.6,115.4z"/>
		<polygon fill="#4E9DA3" points="99.9,137.8 84.1,143 97.6,154.3 		"/>
		<path fill="#4E9DA3" d="M197.6,115.4c19.6-23.6,18.3-57.5-1.6-79.6l0,0c0,0,44.5,81.7-78.1,113.6
			C145.2,152.8,180.9,135.5,197.6,115.4z"/>
	</g>
	<path fill="#91BEC7" d="M134.7,39c-15,7-24.2,19.1-27.2,12.6c-3-6.5,6.7-17.5,21.7-24.4s29.7-7.3,32.7-0.8S149.8,32,134.7,39z"/>
	<rect x="98.8" y="73.2" fill="none" width="112.4" height="30.9"/>
	<text transform="matrix(1 0 0 1 98.7908 89.287)" fill="#252835" font-family="'CirceRounded-Regular'" font-size="23">Логистика</text>
</g>
<g id="B3">
</g>
<g id="B4">
</g>
<g id="B5">
</g>
<g id="B6">
</g>
<g id="B7">
</g>
<g id="B8">
</g>
<g id="B9">
</g>
<g id="B10">
</g>
<g id="B11">
</g>
<g id="B12">
</g>
<g id="B13">
</g>
<g id="B14">
</g>
<g id="B15">
</g>
<g id="Head">
</g>
<g id="B16">
</g>
<g id="B17">
</g>
<g id="B18">
</g>
<g id="B19">
</g>
<g id="B20">
</g>
<g id="B21">
</g>
<g id="B22">
</g>
<g id="B23">
</g>
<g id="B24">
</g>
<g id="B25">
</g>
<g id="B26">
</g>
<g id="B27">
</g>
<g id="B28">
</g>
<g id="B29">
</g>
<g id="B30">
</g>
<g id="B31">
</g>
<g id="B32">
</g>
<g id="B33">
</g>
</svg>
