<?xml version="1.0" encoding="utf-8"?>
<!-- Generator: Adobe Illustrator 17.1.0, SVG Export Plug-In . SVG Version: 6.00 Build 0)  -->
<!DOCTYPE svg PUBLIC "-//W3C//DTD SVG 1.1//EN" "http://www.w3.org/Graphics/SVG/1.1/DTD/svg11.dtd">
<svg version="1.1" xmlns="http://www.w3.org/2000/svg" xmlns:xlink="http://www.w3.org/1999/xlink" x="0px" y="0px"
	 viewBox="0 0 264 187.7" enable-background="new 0 0 264 187.7" xml:space="preserve">
<g id="Sky">
</g>
<g id="Clouds">
</g>
<g id="Button">
</g>
<g id="B_1">
</g>
<g id="B2">
</g>
<g id="B3">
</g>
<g id="B4">
</g>
<g id="B5">
</g>
<g id="B6">
</g>
<g id="B7">
	<path fill="#75AEB9" d="M176.4,114.5c-19,22.6-65.8,41-88.5,21.9s-12.5-68.3,6.5-90.9S147.3,20,170,39S195.5,91.9,176.4,114.5z"/>
	<polygon fill="#4E9DA3" points="90.3,133.7 76.4,138.2 88.3,148.2 	"/>
	<path fill="#4E9DA3" d="M176.4,114.5c17.4-20.6,16.5-50.5-0.9-70l0,0c0,0,38.7,72.2-69.4,99.5C130.1,147.1,161.6,132.1,176.4,114.5
		z"/>
	<path fill="#91BEC7" d="M123.1,44c-12.5,4.1-20.9,12.8-22.6,7.4c-1.8-5.4,6.9-13.1,19.4-17.2s24.1-3,25.9,2.4S135.6,39.9,123.1,44z
		"/>
	<g>
		<rect x="91" y="61.6" fill="none" width="85.6" height="76.5"/>
		<text transform="matrix(1 0 0 1 94.6246 77.6683)"><tspan x="0" y="0" fill="#252835" font-family="'CirceRounded-Regular'" font-size="23">Музыка  </tspan><tspan x="6.8" y="27.6" fill="#252835" font-family="'CirceRounded-Regular'" font-size="23">Танцы</tspan></text>
	</g>
</g>
<g id="B8">
</g>
<g id="B9">
</g>
<g id="B10">
</g>
<g id="B11">
</g>
<g id="B12">
</g>
<g id="B13">
</g>
<g id="B14">
</g>
<g id="B15">
</g>
<g id="Head">
</g>
<g id="B16">
</g>
<g id="B17">
</g>
<g id="B18">
</g>
<g id="B19">
</g>
<g id="B20">
</g>
<g id="B21">
</g>
<g id="B22">
</g>
<g id="B23">
</g>
<g id="B24">
</g>
<g id="B25">
</g>
<g id="B26">
</g>
<g id="B27">
</g>
<g id="B28">
</g>
<g id="B29">
</g>
<g id="B30">
</g>
<g id="B31">
</g>
<g id="B32">
</g>
<g id="B33">
</g>
</svg>
