<?xml version="1.0" encoding="utf-8"?>
<!-- Generator: Adobe Illustrator 22.1.0, SVG Export Plug-In . SVG Version: 6.00 Build 0)  -->
<svg version="1.1" id="Слой_1" xmlns="http://www.w3.org/2000/svg" xmlns:xlink="http://www.w3.org/1999/xlink" x="0px" y="0px"
	 viewBox="0 0 180.8 173.4" style="enable-background:new 0 0 180.8 173.4;" xml:space="preserve">
<style type="text/css">
	.st0{fill:#A7A6F6;}
	.st1{fill:#A099E9;}
	.st2{fill:#BEBEFC;}
	.st3{fill:none;}
	.st4{enable-background:new    ;}
	.st5{fill:#252835;}
</style>
<g id="Sky">
</g>
<g id="Clouds">
</g>
<g id="Button">
</g>
<g id="B_1">
</g>
<g id="B2">
</g>
<g id="B3">
</g>
<g id="B4">
</g>
<g id="B5">
</g>
<g id="B6">
</g>
<g id="B7">
</g>
<g id="B8">
</g>
<g id="B9">
</g>
<g id="B10">
</g>
<g id="B11">
</g>
<g id="B12">
</g>
<g id="B13">
</g>
<g id="B14">
</g>
<g id="B15">
</g>
<g id="Head">
</g>
<g id="B16">
	<path class="st0" d="M145,141.7c-32.1,26.9-101.7,41.1-128.6,9S15.5,52.5,47.6,25.6s79.9-22.7,106.8,9.3S177.1,114.8,145,141.7z"/>
	<polygon class="st1" points="20.3,147.4 -0.2,150.3 13.9,167.1 	"/>
	<path class="st1" d="M145,141.7c29.2-24.5,35.3-66.3,15.8-97.8l0,0c0,0,36.4,110-121,121.8C72.4,175.8,120.1,162.6,145,141.7z"/>
	<path class="st2" d="M64.4,43C44.2,57.6,33.1,76.7,27.8,69.5c-5.3-7.3,6.8-25,27-39.7s40.8-20.6,46.1-13.3S84.5,28.3,64.4,43z"/>
	<g>
		<rect y="79.8" class="st3" width="180.8" height="53.9"/>
		<g class="st4">
			<path class="st5" d="M14.4,95.1V80.6c0-0.3,0.1-0.5,0.3-0.7c0.2-0.2,0.4-0.3,0.7-0.3c0.3,0,0.5,0.1,0.7,0.3
				c0.2,0.2,0.3,0.4,0.3,0.7v14.5c0,0.3-0.1,0.5-0.3,0.7c-0.2,0.2-0.4,0.3-0.7,0.3c-0.3,0-0.5-0.1-0.7-0.3
				C14.5,95.6,14.4,95.4,14.4,95.1z M23.7,95.5l-6.3-7.3c-0.2-0.2-0.3-0.4-0.3-0.7c0-0.3,0.1-0.5,0.3-0.7l6-6.6
				c0.3-0.3,0.6-0.5,0.9-0.5c0.2,0,0.4,0.1,0.6,0.2c0.2,0.2,0.2,0.3,0.2,0.6c0,0.3-0.1,0.5-0.3,0.8L19,87.4l6.2,7
				c0.2,0.2,0.3,0.5,0.3,0.8c0,0.2-0.1,0.4-0.3,0.6c-0.2,0.2-0.4,0.2-0.6,0.2C24.3,96.1,24,95.9,23.7,95.5z"/>
			<path class="st5" d="M28,94.6c-1-1-1.5-2.3-1.5-3.9c0-1.6,0.5-2.9,1.5-3.9c1-1,2.3-1.5,4-1.5c1.6,0,3,0.5,4,1.5
				c1,1,1.5,2.3,1.5,3.9c0,1.6-0.5,2.9-1.5,3.9c-1,1-2.4,1.5-4,1.5C30.4,96.1,29.1,95.6,28,94.6z M28.5,90.7c0,1.1,0.3,2,1,2.6
				c0.7,0.7,1.5,1,2.6,1c1,0,1.9-0.3,2.6-1c0.7-0.7,1-1.6,1-2.7c0-1.1-0.3-2-1-2.6c-0.7-0.7-1.5-1-2.6-1c-1,0-1.9,0.3-2.6,1
				C28.8,88.8,28.5,89.6,28.5,90.7z"/>
			<path class="st5" d="M45,92.3l-3-3.7v6.7c0,0.4-0.1,0.6-0.4,0.7c-0.3,0.1-0.6,0.1-1,0c-0.3-0.1-0.5-0.4-0.4-0.7v-8.9
				c0-0.2,0.1-0.5,0.3-0.6s0.4-0.3,0.6-0.3c0.2,0,0.4,0.1,0.6,0.2c0.2,0.1,0.4,0.4,0.7,0.7l3.5,4.3l3.3-4.4c0.4-0.6,0.8-0.9,1.2-0.9
				c0.2,0,0.5,0.1,0.6,0.3c0.2,0.2,0.3,0.4,0.3,0.6v8.9c0,0.4-0.1,0.6-0.4,0.7c-0.3,0.1-0.6,0.1-1,0c-0.3-0.1-0.5-0.4-0.4-0.7v-6.7
				l-2.9,3.7c-0.2,0.2-0.4,0.4-0.7,0.4C45.5,92.6,45.2,92.5,45,92.3z"/>
			<path class="st5" d="M63.9,86.4v8.8c0,0.4-0.1,0.6-0.4,0.7c-0.3,0.1-0.6,0.1-1,0c-0.3-0.1-0.5-0.4-0.4-0.7v-7.9h-5.6v7.9
				c0,0.4-0.1,0.6-0.4,0.7c-0.3,0.1-0.6,0.1-1,0c-0.3-0.1-0.5-0.4-0.4-0.7v-8.8c0-0.2,0.1-0.5,0.3-0.6c0.2-0.2,0.4-0.3,0.6-0.3H63
				c0.2,0,0.5,0.1,0.6,0.3C63.8,86,63.9,86.2,63.9,86.4z"/>
			<path class="st5" d="M69,86.3v2.3h1.9c1.4,0,2.4,0.3,3.1,1c0.7,0.6,1,1.5,1,2.6c0,1.1-0.4,2-1.1,2.7s-1.8,1-3.2,1H68
				c-0.2,0-0.5-0.1-0.6-0.3c-0.2-0.2-0.3-0.4-0.3-0.6v-8.7c0-0.4,0.1-0.6,0.4-0.7c0.3-0.1,0.6-0.1,1,0C68.9,85.7,69,86,69,86.3z
				 M69,90.4v3.8h1.5c1.7,0,2.5-0.6,2.5-1.9c0-1.3-0.8-1.9-2.5-1.9H69z"/>
			<path class="st5" d="M81.6,91.5h-2.2v3.6c0,0.3-0.1,0.5-0.3,0.7s-0.4,0.3-0.7,0.3c-0.3,0-0.5-0.1-0.7-0.3s-0.3-0.4-0.3-0.7v-8.8
				c0-0.3,0.1-0.5,0.3-0.7c0.2-0.2,0.4-0.3,0.7-0.3c0.3,0,0.5,0.1,0.7,0.3c0.2,0.2,0.3,0.4,0.3,0.7v3.3h2.3c0.2-1.3,0.8-2.4,1.7-3.2
				s2.1-1.2,3.5-1.2c1.6,0,2.9,0.5,3.9,1.5c1,1,1.5,2.3,1.5,3.9s-0.5,2.8-1.5,3.9c-1,1-2.3,1.5-3.9,1.5c-1.4,0-2.6-0.4-3.6-1.3
				C82.3,94,81.8,92.9,81.6,91.5z M84.6,88.2c-0.6,0.7-0.9,1.5-0.9,2.6c0,1.1,0.3,1.9,0.9,2.6c0.6,0.7,1.4,1,2.4,1
				c1,0,1.8-0.3,2.4-1c0.6-0.7,0.9-1.5,0.9-2.6c0-1.1-0.3-1.9-0.9-2.6c-0.6-0.7-1.4-1-2.4-1C86,87.2,85.2,87.5,84.6,88.2z"/>
			<path class="st5" d="M98.8,87.4v7.8c0,0.4-0.1,0.6-0.4,0.7c-0.3,0.1-0.6,0.1-1,0S97,95.6,97,95.2v-7.8h-2.9
				c-0.4,0-0.6-0.1-0.7-0.4c-0.1-0.3-0.1-0.6,0-1s0.4-0.5,0.7-0.4h7.7c0.4,0,0.6,0.1,0.7,0.4s0.1,0.6,0,1c-0.1,0.3-0.4,0.5-0.7,0.4
				H98.8z"/>
			<path class="st5" d="M113.7,90.1c0,0.3,0,0.4,0,0.5c0,0.2-0.1,0.4-0.3,0.5s-0.3,0.2-0.5,0.2h-7.3c0.1,1,0.4,1.7,1.1,2.3
				c0.7,0.6,1.5,0.8,2.5,0.8c1,0,1.8-0.2,2.5-0.6c0.2-0.1,0.3-0.1,0.5-0.1c0.2,0,0.4,0.1,0.6,0.3c0.1,0.1,0.1,0.2,0.1,0.4
				c0,0.3-0.1,0.5-0.3,0.6c-1.1,0.8-2.3,1.2-3.7,1.2c-1.7,0-3-0.5-4-1.5c-1-1-1.5-2.3-1.5-3.9c0-1.5,0.5-2.8,1.4-3.9
				c1-1,2.3-1.5,3.9-1.5c1.4,0,2.5,0.4,3.4,1.3C113.3,87.5,113.7,88.7,113.7,90.1z M105.6,89.8h6.3c0-0.9-0.3-1.5-0.9-2
				c-0.5-0.5-1.2-0.7-2.1-0.7c-0.9,0-1.7,0.3-2.2,0.8C106,88.3,105.7,89,105.6,89.8z"/>
			<path class="st5" d="M118.2,95.4v4.2c0,0.4-0.1,0.6-0.4,0.7c-0.3,0.1-0.6,0.1-1,0c-0.3-0.1-0.5-0.4-0.4-0.7V86.3
				c0-0.4,0.1-0.6,0.4-0.7c0.3-0.1,0.6-0.1,1,0c0.3,0.1,0.5,0.4,0.4,0.7v0.5c0.4-0.4,0.9-0.8,1.5-1c0.6-0.3,1.3-0.4,2-0.4
				c1.5,0,2.6,0.5,3.5,1.4c0.9,1,1.3,2.3,1.3,3.8c0,1.6-0.5,2.9-1.5,4c-1,1.1-2.3,1.6-3.9,1.6C119.9,96.1,118.9,95.9,118.2,95.4z
				 M118.2,88.5v5.1c0.8,0.5,1.7,0.8,2.8,0.8c1.1,0,2-0.3,2.6-1c0.7-0.7,1-1.6,1-2.7c0-1.1-0.3-2-0.9-2.6c-0.6-0.7-1.4-1-2.5-1
				C120,87.1,119,87.5,118.2,88.5z"/>
			<path class="st5" d="M138.6,86.3v8.9c0,0.4-0.1,0.6-0.4,0.7s-0.6,0.1-1,0c-0.3-0.1-0.5-0.4-0.4-0.7v-3.7H131v3.7
				c0,0.4-0.1,0.6-0.4,0.7c-0.3,0.1-0.6,0.1-1,0c-0.3-0.1-0.5-0.4-0.4-0.7v-8.9c0-0.4,0.1-0.6,0.4-0.7c0.3-0.1,0.6-0.1,1,0
				c0.3,0.1,0.5,0.4,0.4,0.7v3.5h5.8v-3.5c0-0.4,0.1-0.6,0.4-0.7c0.3-0.1,0.6-0.1,1,0C138.5,85.7,138.6,86,138.6,86.3z"/>
			<path class="st5" d="M143.7,86.3v2.3h1.7c1.4,0,2.4,0.3,3.1,1c0.7,0.6,1,1.5,1,2.6c0,1.1-0.4,2-1.1,2.7c-0.7,0.7-1.8,1-3.2,1
				h-2.5c-0.2,0-0.5-0.1-0.6-0.3c-0.2-0.2-0.3-0.4-0.3-0.6v-8.7c0-0.4,0.1-0.6,0.4-0.7c0.3-0.1,0.6-0.1,1,0
				C143.6,85.7,143.8,86,143.7,86.3z M143.7,90.4v3.8h1.3c0.9,0,1.5-0.2,1.9-0.5c0.4-0.3,0.6-0.8,0.6-1.4c0-1.3-0.8-1.9-2.5-1.9
				H143.7z M153.3,86.3v8.9c0,0.4-0.1,0.6-0.4,0.7s-0.6,0.1-1,0c-0.3-0.1-0.5-0.4-0.4-0.7v-8.9c0-0.4,0.1-0.6,0.4-0.7
				c0.3-0.1,0.6-0.1,1,0C153.2,85.7,153.4,86,153.3,86.3z"/>
			<path class="st5" d="M166.1,90.1c0,0.3,0,0.4,0,0.5c0,0.2-0.1,0.4-0.3,0.5c-0.2,0.2-0.3,0.2-0.5,0.2H158c0.1,1,0.4,1.7,1.1,2.3
				s1.5,0.8,2.5,0.8c1,0,1.8-0.2,2.5-0.6c0.2-0.1,0.3-0.1,0.5-0.1c0.2,0,0.4,0.1,0.6,0.3c0.1,0.1,0.1,0.2,0.1,0.4
				c0,0.3-0.1,0.5-0.3,0.6c-1.1,0.8-2.3,1.2-3.7,1.2c-1.7,0-3-0.5-4-1.5c-1-1-1.5-2.3-1.5-3.9c0-1.5,0.5-2.8,1.4-3.9
				c1-1,2.3-1.5,3.9-1.5c1.4,0,2.5,0.4,3.4,1.3C165.7,87.5,166.1,88.7,166.1,90.1z M157.9,89.8h6.3c0-0.9-0.3-1.5-0.9-2
				c-0.5-0.5-1.2-0.7-2.1-0.7c-0.9,0-1.7,0.3-2.2,0.8C158.4,88.3,158,89,157.9,89.8z"/>
		</g>
		<g class="st4">
			<path class="st5" d="M77.3,114v8.8c0,0.4-0.1,0.6-0.4,0.7c-0.3,0.1-0.6,0.1-1,0c-0.3-0.1-0.5-0.4-0.4-0.7V116l-5.6,6.9
				c-0.5,0.6-0.9,0.8-1.3,0.8c-0.3,0-0.5-0.1-0.7-0.3c-0.2-0.2-0.3-0.4-0.3-0.6v-8.8c0-0.4,0.1-0.6,0.4-0.7c0.3-0.1,0.6-0.1,1,0
				c0.3,0.1,0.5,0.4,0.4,0.7v6.9l5.6-6.9c0.5-0.6,0.9-0.9,1.3-0.9c0.3,0,0.5,0.1,0.7,0.3C77.2,113.5,77.3,113.7,77.3,114z"/>
			<path class="st5" d="M86.3,114.9h-3.8v7.9c0,0.4-0.1,0.6-0.4,0.7c-0.3,0.1-0.6,0.1-1,0c-0.3-0.1-0.5-0.4-0.4-0.7V114
				c0-0.2,0.1-0.5,0.3-0.6c0.2-0.2,0.4-0.3,0.6-0.3h4.8c0.2,0,0.5,0.1,0.6,0.3s0.3,0.4,0.3,0.6c0,0.2-0.1,0.5-0.3,0.6
				S86.5,114.9,86.3,114.9z"/>
			<path class="st5" d="M90.8,123v4.2c0,0.4-0.1,0.6-0.4,0.7c-0.3,0.1-0.6,0.1-1,0c-0.3-0.1-0.5-0.4-0.4-0.7v-13.3
				c0-0.4,0.1-0.6,0.4-0.7c0.3-0.1,0.6-0.1,1,0c0.3,0.1,0.5,0.4,0.4,0.7v0.5c0.4-0.4,0.9-0.8,1.5-1c0.6-0.3,1.3-0.4,2-0.4
				c1.5,0,2.6,0.5,3.5,1.4c0.9,1,1.3,2.3,1.3,3.8c0,1.6-0.5,2.9-1.5,4c-1,1.1-2.3,1.6-3.9,1.6C92.4,123.7,91.5,123.5,90.8,123z
				 M90.8,116.1v5.1c0.8,0.5,1.7,0.8,2.8,0.8c1.1,0,2-0.3,2.6-1c0.7-0.7,1-1.6,1-2.7c0-1.1-0.3-2-0.9-2.6c-0.6-0.7-1.4-1-2.5-1
				C92.5,114.7,91.5,115.1,90.8,116.1z"/>
			<path class="st5" d="M103.5,113.9v2.3h1.7c1.4,0,2.4,0.3,3.1,1c0.7,0.6,1,1.5,1,2.6c0,1.1-0.4,2-1.1,2.7s-1.8,1-3.2,1h-2.5
				c-0.2,0-0.5-0.1-0.6-0.3s-0.3-0.4-0.3-0.6v-8.7c0-0.4,0.1-0.6,0.4-0.7c0.3-0.1,0.6-0.1,1,0C103.4,113.3,103.6,113.6,103.5,113.9z
				 M103.5,118v3.8h1.3c0.9,0,1.5-0.2,1.9-0.5s0.6-0.8,0.6-1.4c0-1.3-0.8-1.9-2.5-1.9H103.5z M113.2,113.9v8.9
				c0,0.4-0.1,0.6-0.4,0.7c-0.3,0.1-0.6,0.1-1,0s-0.5-0.4-0.4-0.7v-8.9c0-0.4,0.1-0.6,0.4-0.7c0.3-0.1,0.6-0.1,1,0
				C113,113.3,113.2,113.6,113.2,113.9z"/>
		</g>
	</g>
</g>
<g id="B17">
</g>
<g id="B18">
</g>
<g id="B19">
</g>
<g id="B20">
</g>
<g id="B21">
</g>
<g id="B22">
</g>
<g id="B23">
</g>
<g id="B24">
</g>
<g id="B25">
</g>
<g id="B26">
</g>
<g id="B27">
</g>
<g id="B28">
</g>
<g id="B29">
</g>
<g id="B30">
</g>
<g id="B31">
</g>
<g id="B32">
</g>
<g id="B33">
</g>
</svg>
