<?xml version="1.0" encoding="utf-8"?>
<!-- Generator: Adobe Illustrator 17.1.0, SVG Export Plug-In . SVG Version: 6.00 Build 0)  -->
<!DOCTYPE svg PUBLIC "-//W3C//DTD SVG 1.1//EN" "http://www.w3.org/Graphics/SVG/1.1/DTD/svg11.dtd">
<svg version="1.1" xmlns="http://www.w3.org/2000/svg" xmlns:xlink="http://www.w3.org/1999/xlink" x="0px" y="0px"
	 viewBox="0 0 209.3 159.5" enable-background="new 0 0 209.3 159.5" xml:space="preserve">
<g id="Sky">
</g>
<g id="Clouds">
</g>
<g id="Button">
</g>
<g id="B_1">
</g>
<g id="B2">
</g>
<g id="B3">
</g>
<g id="B4">
</g>
<g id="B5">
</g>
<g id="B6">
</g>
<g id="B7">
</g>
<g id="B8">
</g>
<g id="B9">
</g>
<g id="B10">
</g>
<g id="B11">
</g>
<g id="B12">
</g>
<g id="B13">
</g>
<g id="B14">
</g>
<g id="B15">
</g>
<g id="Head">
</g>
<g id="B16">
</g>
<g id="B17">
</g>
<g id="B18">
</g>
<g id="B19">
</g>
<g id="B20">
</g>
<g id="B21">
</g>
<g id="B22">
</g>
<g id="B23">
</g>
<g id="B24">
</g>
<g id="B25">
</g>
<g id="B26">
</g>
<g id="B27">
</g>
<g id="B28">
	<path fill="#FFDF57" d="M157.7,125.4c-26.8,22.5-85.2,34.4-107.7,7.6S49.3,50.7,76.1,28.2s66.8-19,89.4,7.8
		S184.5,102.9,157.7,125.4z"/>
	<polygon fill="#EDD262" points="53.3,130.2 36.1,132.6 47.9,146.7 	"/>
	<path fill="#E9CA25" d="M157.7,125.4c24.4-20.5,29.5-55.5,13.2-81.9l0,0c0,0,30.5,92.1-101.3,101.9
		C96.9,153.9,136.8,142.9,157.7,125.4z"/>
	<path fill="#F9E698" d="M91,39.1c-14.1,9-22.1,21.6-25.5,16.3c-3.4-5.3,5.3-16.8,19.4-25.9s28.2-12.1,31.6-6.8S105.1,30,91,39.1z"
		/>
	<g>
		<rect x="51.8" y="76.7" fill="none" width="124" height="30.9"/>
		<text transform="matrix(1 0 0 1 51.805 92.8147)" fill="#252835" font-family="'CirceRounded-Regular'" font-size="23">Педагогика</text>
	</g>
</g>
<g id="B29">
</g>
<g id="B30">
</g>
<g id="B31">
</g>
<g id="B32">
</g>
<g id="B33">
</g>
</svg>
