<?xml version="1.0" encoding="utf-8"?>
<!-- Generator: Adobe Illustrator 22.1.0, SVG Export Plug-In . SVG Version: 6.00 Build 0)  -->
<svg version="1.1" id="Слой_1" xmlns="http://www.w3.org/2000/svg" xmlns:xlink="http://www.w3.org/1999/xlink" x="0px" y="0px"
	 viewBox="0 0 164 176" style="enable-background:new 0 0 164 176;" xml:space="preserve">
<style type="text/css">
	.st0{fill:#FFDF57;}
	.st1{fill:#E9CA25;}
	.st2{fill:#F9E698;}
	.st3{fill:none;}
	.st4{enable-background:new    ;}
	.st5{fill:#313547;}
</style>
<g id="Sky">
</g>
<g id="Cluds">
</g>
<g id="Button">
</g>
<g id="Bubble1">
</g>
<g id="Bubble2">
</g>
<g id="B1">
	<g>
		<path class="st0" d="M144,122.5c-24.8,31.3-87.1,57.9-118.3,33.1S6,64.1,30.8,32.8S101-3.7,132.2,21S168.7,91.2,144,122.5z"/>
		<polygon class="st1" points="28.7,151.7 10.1,158.4 26.5,171.3 		"/>
		<path class="st2" d="M61.6,38.6c-19.3,11-30.2,28.2-34.9,19.8s7-24.1,26.3-35s38.8-13,43.6-4.7C101.3,27.1,80.9,27.6,61.6,38.6z"
			/>
		<path class="st1" d="M47.6,164.6c134.9-27.4,94.2-134.4,94.2-134.4s38.7,42,2.2,92.3S47.6,164.6,47.6,164.6z"/>
	</g>
	<g>
		<rect x="8.1" y="82.2" class="st3" width="146.8" height="30.9"/>
		<g class="st4">
			<path class="st5" d="M23.7,84h-6.1v13.5c0,0.3-0.1,0.5-0.3,0.7c-0.2,0.2-0.4,0.3-0.7,0.3c-0.3,0-0.5-0.1-0.7-0.3
				c-0.2-0.2-0.3-0.4-0.3-0.7V83.1c0-0.3,0.1-0.5,0.3-0.7c0.2-0.2,0.4-0.3,0.7-0.3h7.1c0.2,0,0.5,0.1,0.6,0.3
				c0.2,0.2,0.3,0.4,0.3,0.6s-0.1,0.5-0.3,0.6C24.2,83.9,24,84,23.7,84z"/>
			<path class="st5" d="M24.4,88.4l2.8,6.1c0,0.1,0.2,0.6,0.6,1.6c0.1-0.5,0.3-1,0.5-1.6l2.2-6c0.2-0.5,0.5-0.7,0.9-0.7
				c0.3,0,0.6,0.1,0.7,0.2c0.2,0.2,0.3,0.4,0.3,0.7c0,0.1,0,0.3-0.1,0.4l-3.7,9.1c-0.7,1.8-1.3,3-1.9,3.7c-0.6,0.6-1.3,0.9-2,0.9
				c-1.2,0-1.8-0.4-1.8-1.1c0-0.5,0.2-0.7,0.7-0.7c0,0,0.2,0,0.4,0.1c0.2,0,0.4,0.1,0.5,0.1c0.4,0,0.8-0.2,1.2-0.6
				c0.3-0.4,0.7-1,1-1.8l0.2-0.6l-4.3-9.1c-0.1-0.1-0.1-0.3-0.1-0.4c0-0.3,0.1-0.5,0.3-0.7c0.2-0.2,0.4-0.3,0.7-0.3
				C23.9,87.8,24.2,88,24.4,88.4z"/>
			<path class="st5" d="M39.5,94.6l-3-3.7v6.7c0,0.4-0.1,0.6-0.4,0.7c-0.3,0.1-0.6,0.1-1,0c-0.3-0.1-0.5-0.4-0.4-0.7v-8.9
				c0-0.2,0.1-0.5,0.3-0.6s0.4-0.3,0.6-0.3c0.2,0,0.4,0.1,0.6,0.2c0.2,0.1,0.4,0.4,0.7,0.7l3.5,4.3l3.3-4.4c0.4-0.6,0.8-0.9,1.2-0.9
				c0.2,0,0.5,0.1,0.6,0.3c0.2,0.2,0.3,0.4,0.3,0.6v8.9c0,0.4-0.1,0.6-0.4,0.7c-0.3,0.1-0.6,0.1-1,0c-0.3-0.1-0.5-0.4-0.4-0.7v-6.7
				l-2.9,3.7c-0.2,0.2-0.4,0.4-0.7,0.4C39.9,95,39.7,94.8,39.5,94.6z"/>
			<path class="st5" d="M48.2,95.2c0-1,0.4-1.8,1.1-2.4C50,92.2,51,92,52.2,92c1.1,0,1.9,0.2,2.6,0.7c0-1.2-0.2-2-0.5-2.5
				c-0.3-0.5-0.9-0.8-1.9-0.8c-0.7,0-1.4,0.1-2.1,0.4c-0.1,0-0.2,0.1-0.3,0.1c-0.3,0-0.6-0.2-0.7-0.5c0-0.1-0.1-0.2-0.1-0.3
				c0-0.4,0.2-0.6,0.5-0.7c1-0.4,1.9-0.6,2.9-0.6c1.4,0,2.4,0.3,3,1c0.6,0.7,0.9,1.8,0.9,3.2v5.7c0,0.2-0.1,0.4-0.3,0.6
				c-0.2,0.2-0.4,0.2-0.6,0.2s-0.5-0.1-0.6-0.2c-0.2-0.2-0.3-0.3-0.3-0.6v-0.7c-0.8,1-1.9,1.5-3.3,1.5c-1,0-1.7-0.3-2.3-0.9
				C48.5,97,48.2,96.2,48.2,95.2z M54.7,95.4v-1.3c-0.6-0.5-1.4-0.7-2.3-0.7c-0.6,0-1.2,0.1-1.6,0.4c-0.4,0.3-0.6,0.7-0.6,1.3
				c0,0.5,0.2,0.9,0.5,1.2c0.3,0.3,0.8,0.4,1.4,0.4C53.1,96.8,54,96.3,54.7,95.4z"/>
			<path class="st5" d="M69,88.7v8.9c0,0.4-0.1,0.6-0.4,0.7c-0.3,0.1-0.6,0.1-1,0c-0.3-0.1-0.5-0.4-0.4-0.7v-3.7h-5.8v3.7
				c0,0.4-0.1,0.6-0.4,0.7c-0.3,0.1-0.6,0.1-1,0c-0.3-0.1-0.5-0.4-0.4-0.7v-8.9c0-0.4,0.1-0.6,0.4-0.7c0.3-0.1,0.6-0.1,1,0
				c0.3,0.1,0.5,0.4,0.4,0.7v3.5h5.8v-3.5c0-0.4,0.1-0.6,0.4-0.7c0.3-0.1,0.6-0.1,1,0C68.9,88.1,69,88.3,69,88.7z"/>
			<path class="st5" d="M82,88.8v8.8c0,0.4-0.1,0.6-0.4,0.7c-0.3,0.1-0.6,0.1-1,0s-0.5-0.4-0.4-0.7v-6.8l-5.6,6.9
				c-0.5,0.6-0.9,0.8-1.3,0.8c-0.3,0-0.5-0.1-0.7-0.3c-0.2-0.2-0.3-0.4-0.3-0.6v-8.8c0-0.4,0.1-0.6,0.4-0.7c0.3-0.1,0.6-0.1,1,0
				c0.3,0.1,0.5,0.4,0.4,0.7v6.9l5.6-6.9c0.5-0.6,0.9-0.9,1.3-0.9c0.3,0,0.5,0.1,0.7,0.3C81.9,88.3,82,88.5,82,88.8z"/>
			<path class="st5" d="M89.6,89.8v7.8c0,0.4-0.1,0.6-0.4,0.7c-0.3,0.1-0.6,0.1-1,0s-0.5-0.4-0.4-0.7v-7.8h-2.9
				c-0.4,0-0.6-0.1-0.7-0.4c-0.1-0.3-0.1-0.6,0-1s0.4-0.5,0.7-0.4h7.7c0.4,0,0.6,0.1,0.7,0.4s0.1,0.6,0,1c-0.1,0.3-0.4,0.5-0.7,0.4
				H89.6z"/>
			<path class="st5" d="M94.7,95.2c0-1,0.4-1.8,1.1-2.4c0.7-0.6,1.7-0.9,2.8-0.9c1.1,0,1.9,0.2,2.6,0.7c0-1.2-0.2-2-0.5-2.5
				s-0.9-0.8-1.9-0.8c-0.7,0-1.4,0.1-2.1,0.4c-0.1,0-0.2,0.1-0.3,0.1c-0.3,0-0.6-0.2-0.7-0.5c0-0.1-0.1-0.2-0.1-0.3
				c0-0.4,0.2-0.6,0.5-0.7c1-0.4,1.9-0.6,2.9-0.6c1.4,0,2.4,0.3,3,1c0.6,0.7,0.9,1.8,0.9,3.2v5.7c0,0.2-0.1,0.4-0.3,0.6
				c-0.2,0.2-0.4,0.2-0.6,0.2s-0.5-0.1-0.6-0.2c-0.2-0.2-0.3-0.3-0.3-0.6v-0.7c-0.8,1-1.9,1.5-3.3,1.5c-1,0-1.7-0.3-2.3-0.9
				C94.9,97,94.7,96.2,94.7,95.2z M101.1,95.4v-1.3c-0.6-0.5-1.4-0.7-2.3-0.7c-0.6,0-1.2,0.1-1.6,0.4c-0.4,0.3-0.6,0.7-0.6,1.3
				c0,0.5,0.2,0.9,0.5,1.2s0.8,0.4,1.4,0.4C99.5,96.8,100.4,96.3,101.1,95.4z"/>
			<path class="st5" d="M107.8,97.8v4.2c0,0.4-0.1,0.6-0.4,0.7c-0.3,0.1-0.6,0.1-1,0c-0.3-0.1-0.5-0.4-0.4-0.7V88.7
				c0-0.4,0.1-0.6,0.4-0.7c0.3-0.1,0.6-0.1,1,0c0.3,0.1,0.5,0.4,0.4,0.7v0.5c0.4-0.4,0.9-0.8,1.5-1c0.6-0.3,1.3-0.4,2-0.4
				c1.5,0,2.6,0.5,3.5,1.4c0.9,1,1.3,2.3,1.3,3.8c0,1.6-0.5,2.9-1.5,4c-1,1.1-2.3,1.6-3.9,1.6C109.5,98.5,108.5,98.3,107.8,97.8z
				 M107.8,90.8V96c0.8,0.5,1.7,0.8,2.8,0.8c1.1,0,2-0.3,2.6-1c0.7-0.7,1-1.6,1-2.7c0-1.1-0.3-2-0.9-2.6c-0.6-0.7-1.4-1-2.5-1
				C109.6,89.4,108.6,89.9,107.8,90.8z"/>
			<path class="st5" d="M128.2,88.7v8.9c0,0.4-0.1,0.6-0.4,0.7c-0.3,0.1-0.6,0.1-1,0s-0.5-0.4-0.4-0.7v-3.7h-5.8v3.7
				c0,0.4-0.1,0.6-0.4,0.7s-0.6,0.1-1,0s-0.5-0.4-0.4-0.7v-8.9c0-0.4,0.1-0.6,0.4-0.7c0.3-0.1,0.6-0.1,1,0c0.3,0.1,0.5,0.4,0.4,0.7
				v3.5h5.8v-3.5c0-0.4,0.1-0.6,0.4-0.7c0.3-0.1,0.6-0.1,1,0C128.1,88.1,128.2,88.3,128.2,88.7z"/>
			<path class="st5" d="M130.8,95.2c0-1,0.4-1.8,1.1-2.4c0.7-0.6,1.7-0.9,2.8-0.9c1.1,0,1.9,0.2,2.6,0.7c0-1.2-0.2-2-0.5-2.5
				c-0.3-0.5-0.9-0.8-1.9-0.8c-0.7,0-1.4,0.1-2.1,0.4c-0.1,0-0.2,0.1-0.3,0.1c-0.3,0-0.6-0.2-0.7-0.5c0-0.1-0.1-0.2-0.1-0.3
				c0-0.4,0.2-0.6,0.5-0.7c1-0.4,1.9-0.6,2.9-0.6c1.4,0,2.4,0.3,3,1c0.6,0.7,0.9,1.8,0.9,3.2v5.7c0,0.2-0.1,0.4-0.3,0.6
				c-0.2,0.2-0.4,0.2-0.6,0.2s-0.5-0.1-0.6-0.2c-0.2-0.2-0.3-0.3-0.3-0.6v-0.7c-0.8,1-1.9,1.5-3.3,1.5c-1,0-1.7-0.3-2.3-0.9
				C131.1,97,130.8,96.2,130.8,95.2z M137.3,95.4v-1.3c-0.6-0.5-1.4-0.7-2.3-0.7c-0.6,0-1.2,0.1-1.6,0.4c-0.4,0.3-0.6,0.7-0.6,1.3
				c0,0.5,0.2,0.9,0.5,1.2c0.3,0.3,0.8,0.4,1.4,0.4C135.6,96.8,136.5,96.3,137.3,95.4z"/>
			<path class="st5" d="M141.8,97l2-2.6c-0.6-0.1-1.2-0.5-1.6-1c-0.4-0.5-0.6-1.2-0.6-2c0-1.1,0.4-1.9,1.1-2.5
				c0.8-0.6,1.9-0.9,3.5-0.9h2.3c0.2,0,0.5,0.1,0.6,0.3s0.3,0.4,0.3,0.6v8.8c0,0.4-0.1,0.6-0.4,0.7c-0.3,0.1-0.6,0.1-1,0
				c-0.3-0.1-0.5-0.4-0.4-0.7v-2.7h-2l-2.3,3.1c-0.2,0.3-0.5,0.5-0.8,0.5c-0.3,0-0.5-0.1-0.7-0.2c-0.2-0.2-0.3-0.3-0.3-0.6
				C141.6,97.4,141.6,97.2,141.8,97z M145.4,93.1h2.1v-3.5h-1.7c-0.8,0-1.4,0.2-1.8,0.5c-0.4,0.3-0.6,0.8-0.6,1.3
				c0,0.5,0.2,0.9,0.6,1.2C144.5,92.9,144.9,93.1,145.4,93.1z"/>
		</g>
	</g>
</g>
<g id="B2">
</g>
<g id="B3">
</g>
</svg>
