<?xml version="1.0" encoding="utf-8"?>
<!-- Generator: Adobe Illustrator 22.1.0, SVG Export Plug-In . SVG Version: 6.00 Build 0)  -->
<svg version="1.1" id="Слой_1" xmlns="http://www.w3.org/2000/svg" xmlns:xlink="http://www.w3.org/1999/xlink" x="0px" y="0px"
	 viewBox="0 0 147.7 151" style="enable-background:new 0 0 147.7 151;" xml:space="preserve">
<style type="text/css">
	.st0{fill:#75AEB9;}
	.st1{fill:#4E9DA3;}
	.st2{fill:none;}
	.st3{enable-background:new    ;}
	.st4{fill:#252835;}
	.st5{fill:#91BEC7;}
</style>
<g id="Sky">
</g>
<g id="Clouds">
</g>
<g id="Button">
</g>
<g id="B1">
</g>
<g id="B2">
	<g>
		<path class="st0" d="M120.7,117.2c-23.9,23.6-78.6,39.5-102.3,15.7S11.3,54.4,35.2,30.8s62.4-23.4,86,0.4S144.6,93.6,120.7,117.2z
			"/>
		<polygon class="st1" points="21.4,130 5.2,133.7 17.6,146.2 		"/>
		<path class="st1" d="M120.7,117.2c21.7-21.5,23.8-55.4,6.2-79.3l0,0c0,0,36.3,85.6-88.7,105.3C65,149.3,102.2,135.6,120.7,117.2z"
			/>
	</g>
	<g>
		
			<rect x="12.6" y="76.7" transform="matrix(0.9999 -1.647350e-02 1.647350e-02 0.9999 -1.5079 1.2439)" class="st2" width="124.3" height="30.9"/>
		<g class="st3">
			<path class="st4" d="M19.1,77.6c1.7,0,3.1,0.3,3.9,1s1.3,1.7,1.3,2.9c0,1.9-0.9,3.1-2.7,3.8c1,0.2,1.9,0.6,2.5,1.2
				C24.7,87.1,25,88,25,89c0,1.5-0.5,2.7-1.5,3.5c-1,0.8-2.4,1.2-4.3,1.3c-0.5,0-1.6,0-3.4,0c-0.3,0-0.5-0.1-0.7-0.3
				c-0.2-0.2-0.3-0.4-0.3-0.7l-0.2-14.1c0-0.3,0.1-0.5,0.3-0.7c0.2-0.2,0.4-0.3,0.7-0.3C17.6,77.6,18.8,77.6,19.1,77.6z M16.7,79.5
				l0.1,5.2l2.6,0c0.9,0,1.6-0.3,2.2-0.8c0.6-0.5,0.9-1.2,0.8-2c0-1.7-1.1-2.6-3.3-2.5C18.6,79.4,17.8,79.4,16.7,79.5z M19.4,86.4
				l-2.6,0l0.1,5.5c0.6,0.1,1.5,0.1,2.5,0.1c1.2,0,2.1-0.3,2.8-0.8c0.6-0.5,1-1.2,0.9-2.2c0-0.8-0.3-1.5-1-1.9
				C21.4,86.6,20.5,86.4,19.4,86.4z"/>
			<path class="st4" d="M29.2,92.2c-1-1-1.6-2.3-1.6-3.8s0.5-2.9,1.5-3.9c1-1,2.3-1.6,4-1.6c1.6,0,3,0.5,4,1.5c1,1,1.6,2.3,1.6,3.9
				c0,1.6-0.5,2.9-1.5,3.9c-1,1-2.3,1.6-4,1.6C31.6,93.7,30.2,93.3,29.2,92.2z M29.5,88.4c0,1.1,0.4,1.9,1,2.6c0.7,0.7,1.5,1,2.6,1
				c1,0,1.9-0.4,2.5-1.1s1-1.6,1-2.7c0-1.1-0.4-1.9-1-2.6c-0.7-0.7-1.5-1-2.6-1c-1,0-1.9,0.4-2.5,1.1C29.9,86.4,29.5,87.3,29.5,88.4
				z"/>
			<path class="st4" d="M44.4,82.7c1.2,0,2.2,0.2,2.9,0.7c0.7,0.5,1,1.2,1.1,2c0,1.2-0.6,2-1.8,2.5c0.7,0.1,1.2,0.3,1.6,0.8
				c0.4,0.4,0.6,1,0.6,1.6c0,1-0.4,1.7-1.2,2.3c-0.8,0.6-1.9,0.9-3.2,0.9c-1.4,0-2.6-0.3-3.6-0.9c-0.3-0.2-0.4-0.4-0.4-0.7
				c0-0.2,0-0.3,0.2-0.5c0.1-0.2,0.4-0.4,0.7-0.4c0.2,0,0.3,0,0.5,0.1c0.8,0.5,1.6,0.7,2.4,0.7c0.8,0,1.4-0.2,1.9-0.5
				c0.5-0.3,0.7-0.7,0.7-1.2c0-0.4-0.2-0.8-0.6-1c-0.4-0.2-0.9-0.3-1.5-0.3l-1,0c-0.2,0-0.4-0.1-0.6-0.2c-0.2-0.1-0.2-0.3-0.2-0.5
				c0-0.2,0.1-0.4,0.2-0.5c0.2-0.1,0.3-0.2,0.5-0.2l0.9,0c0.5,0,0.9-0.2,1.3-0.4c0.3-0.3,0.5-0.6,0.5-1.1c0-0.5-0.2-0.8-0.6-1.1
				c-0.4-0.3-0.9-0.4-1.6-0.4c-0.8,0-1.6,0.2-2.4,0.6c-0.1,0.1-0.3,0.1-0.4,0.1c-0.3,0-0.5-0.1-0.7-0.4c-0.1-0.1-0.1-0.2-0.1-0.4
				c0-0.3,0.2-0.5,0.5-0.7C42,83,43.1,82.7,44.4,82.7z"/>
			<path class="st4" d="M60.3,93l-8.4,0.1l0,1.7c0,0.2-0.1,0.5-0.2,0.6c-0.2,0.2-0.4,0.3-0.6,0.3c-0.2,0-0.5-0.1-0.6-0.2
				c-0.2-0.2-0.3-0.4-0.3-0.6l0-2.5c0-0.2,0.1-0.5,0.2-0.6c0.2-0.2,0.4-0.3,0.6-0.3l0.4,0c0.4-0.5,0.7-1.3,1-2.3
				c0.3-1.1,0.4-2.3,0.5-3.6l0.1-1.9c0-0.2,0.1-0.5,0.3-0.6c0.2-0.2,0.4-0.3,0.6-0.3l5.3-0.1c0.2,0,0.5,0.1,0.6,0.2
				c0.2,0.2,0.3,0.4,0.3,0.6l0.1,7.8l0.9,0c0.2,0,0.5,0.1,0.6,0.2c0.2,0.2,0.3,0.4,0.3,0.6l0,2.5c0,0.2-0.1,0.5-0.2,0.6
				c-0.2,0.2-0.4,0.3-0.6,0.3c-0.2,0-0.5-0.1-0.6-0.2c-0.2-0.2-0.3-0.4-0.3-0.6L60.3,93z M53.4,91.4l5-0.1l-0.1-6.9l-3.5,0.1
				l-0.1,1.7c-0.1,1.2-0.2,2.2-0.5,3.2S53.7,91,53.4,91.4z"/>
			<path class="st4" d="M64.5,83.1l2.9,6.1c0,0.1,0.2,0.6,0.6,1.6c0.1-0.5,0.3-1,0.5-1.6l2.1-6c0.1-0.5,0.4-0.7,0.9-0.7
				c0.3,0,0.6,0.1,0.8,0.2c0.2,0.2,0.3,0.4,0.3,0.7c0,0.1,0,0.3-0.1,0.4L69,92.9c-0.7,1.8-1.3,3-1.9,3.7c-0.6,0.6-1.2,1-2,1
				c-1.2,0-1.8-0.3-1.9-1.1c0-0.5,0.2-0.7,0.7-0.7c0,0,0.2,0,0.4,0.1c0.2,0,0.4,0.1,0.5,0c0.4,0,0.8-0.2,1.2-0.6
				c0.3-0.4,0.7-1,1-1.8l0.2-0.6l-4.5-9c-0.1-0.1-0.1-0.3-0.1-0.4c0-0.3,0.1-0.5,0.3-0.7s0.4-0.3,0.7-0.3
				C64.1,82.5,64.4,82.7,64.5,83.1z"/>
			<path class="st4" d="M87.9,83l0.1,8.7c0,0.2-0.1,0.5-0.2,0.6c-0.2,0.2-0.4,0.3-0.6,0.3l-11.4,0.2c-0.2,0-0.5-0.1-0.6-0.2
				c-0.2-0.2-0.3-0.4-0.3-0.6l-0.1-8.7c0-0.4,0.1-0.6,0.4-0.8c0.3-0.2,0.6-0.2,1,0s0.5,0.4,0.4,0.7l0.1,7.9l3.8-0.1l-0.1-7.9
				c0-0.4,0.1-0.6,0.4-0.8c0.3-0.2,0.6-0.2,1,0c0.3,0.1,0.5,0.4,0.4,0.7l0.1,7.9l3.8-0.1L86,83c0-0.4,0.1-0.6,0.4-0.8
				c0.3-0.2,0.6-0.2,1,0S87.9,82.6,87.9,83z"/>
			<path class="st4" d="M100.6,82.8l0.1,8.9c0,0.4-0.1,0.6-0.4,0.8c-0.3,0.2-0.6,0.2-1,0c-0.3-0.1-0.5-0.4-0.4-0.7L98.9,88l-5.7,0.1
				l0.1,3.7c0,0.4-0.1,0.6-0.4,0.8c-0.3,0.2-0.6,0.2-1,0s-0.5-0.4-0.4-0.7l-0.1-8.9c0-0.4,0.1-0.6,0.4-0.8s0.6-0.2,1,0
				c0.3,0.1,0.5,0.4,0.4,0.7l0.1,3.5l5.7-0.1l-0.1-3.5c0-0.4,0.1-0.6,0.4-0.8c0.3-0.2,0.6-0.2,1,0C100.5,82.2,100.7,82.4,100.6,82.8
				z"/>
			<path class="st4" d="M105.8,82.7l0,2.3l1.7,0c1.4,0,2.5,0.3,3.1,0.9c0.7,0.6,1,1.5,1,2.6c0,1.1-0.3,2-1,2.7
				c-0.7,0.7-1.8,1-3.2,1.1l-2.5,0c-0.2,0-0.5-0.1-0.6-0.2c-0.2-0.2-0.3-0.4-0.3-0.6l-0.1-8.7c0-0.4,0.1-0.6,0.4-0.8
				c0.3-0.2,0.6-0.2,1,0C105.7,82.1,105.8,82.3,105.8,82.7z M105.8,86.8l0.1,3.8l1.3,0c0.9,0,1.5-0.2,1.9-0.5
				c0.4-0.3,0.6-0.8,0.6-1.4c0-1.3-0.9-1.9-2.5-1.9L105.8,86.8z M115.4,82.5l0.1,8.9c0,0.4-0.1,0.6-0.4,0.8c-0.3,0.2-0.6,0.2-1,0
				c-0.3-0.1-0.5-0.4-0.4-0.7l-0.1-8.9c0-0.4,0.1-0.6,0.4-0.8c0.3-0.2,0.6-0.2,1,0C115.3,81.9,115.4,82.2,115.4,82.5z"/>
			<path class="st4" d="M128.4,82.4l0.1,8.8c0,0.4-0.1,0.6-0.4,0.8c-0.3,0.2-0.6,0.2-1,0c-0.3-0.1-0.5-0.4-0.4-0.7l-0.1-6.8l-5.5,7
				c-0.5,0.6-0.9,0.8-1.3,0.9c-0.3,0-0.5-0.1-0.7-0.3c-0.2-0.2-0.3-0.4-0.3-0.6l-0.1-8.8c0-0.4,0.1-0.6,0.4-0.8c0.3-0.2,0.6-0.2,1,0
				c0.3,0.1,0.5,0.4,0.4,0.7l0.1,6.9l5.5-7c0.5-0.6,0.9-0.9,1.3-0.9c0.3,0,0.5,0.1,0.7,0.3C128.3,81.9,128.4,82.2,128.4,82.4z
				 M125.1,77.1c0.2-0.5,0.5-0.7,0.9-0.8c0.2,0,0.4,0.1,0.6,0.2c0.2,0.1,0.2,0.3,0.3,0.6c0,0,0,0,0,0.1s0,0.1,0,0.1s0,0.1,0,0.1
				c-0.1,0.6-0.5,1.1-1.1,1.5c-0.6,0.4-1.3,0.6-2.1,0.6c-0.9,0-1.6-0.2-2.3-0.6c-0.6-0.4-1-0.9-1.1-1.5c0,0,0-0.1,0-0.3
				c0-0.6,0.3-0.8,0.8-0.8c0.4,0,0.7,0.2,0.9,0.7c0.2,0.7,0.8,1.1,1.7,1.1C124.4,78.2,124.9,77.8,125.1,77.1z"/>
		</g>
	</g>
	<path class="st5" d="M58.3,38c-15.5,9.1-24.1,23.3-28.1,16.6S35.6,35,51.1,25.8s31.3-11.1,35.3-4.4C90.3,28.2,73.8,28.8,58.3,38z"
		/>
</g>
<g id="B3">
</g>
<g id="B4">
</g>
<g id="Bubble1">
</g>
<g id="Bubble2">
</g>
</svg>
