<?xml version="1.0" encoding="utf-8"?>
<!-- Generator: Adobe Illustrator 17.1.0, SVG Export Plug-In . SVG Version: 6.00 Build 0)  -->
<!DOCTYPE svg PUBLIC "-//W3C//DTD SVG 1.1//EN" "http://www.w3.org/Graphics/SVG/1.1/DTD/svg11.dtd">
<svg version="1.1" xmlns="http://www.w3.org/2000/svg" xmlns:xlink="http://www.w3.org/1999/xlink" x="0px" y="0px"
	 viewBox="0 0 279 190.7" enable-background="new 0 0 279 190.7" xml:space="preserve">
<g id="Sky">
</g>
<g id="Clouds">
</g>
<g id="Button">
</g>
<g id="B_1">
</g>
<g id="B2">
</g>
<g id="B3">
</g>
<g id="B4">
</g>
<g id="B5">
</g>
<g id="B6">
</g>
<g id="B7">
</g>
<g id="B8">
</g>
<g id="B9">
</g>
<g id="B10">
</g>
<g id="B11">
</g>
<g id="B12">
</g>
<g id="B13">
</g>
<g id="B14">
</g>
<g id="B15">
</g>
<g id="Head">
</g>
<g id="B16">
</g>
<g id="B17">
</g>
<g id="B18">
</g>
<g id="B19">
</g>
<g id="B20">
</g>
<g id="B21">
</g>
<g id="B22">
</g>
<g id="B23">
</g>
<g id="B24">
</g>
<g id="B25">
</g>
<g id="B26">
</g>
<g id="B27">
</g>
<g id="B28">
</g>
<g id="B29">
	<path fill="#A7A6F6" d="M174.1,123.6c-18.8,15.7-59.5,24-75.3,5.3s-0.5-57.5,18.3-73.2s46.7-13.3,62.5,5.5S192.8,107.8,174.1,123.6
		z"/>
	<polygon fill="#A099E9" points="101.1,126.9 89.1,128.6 97.4,138.4 	"/>
	<path fill="#A099E9" d="M174.1,123.6c17.1-14.3,20.6-38.8,9.2-57.2l0,0c0,0,21.3,64.4-70.8,71.2
		C131.6,143.5,159.5,135.8,174.1,123.6z"/>
	<path fill="#BEBEFC" d="M127.5,63.2c-9.8,6.3-15.5,15.1-17.8,11.4c-2.4-3.7,3.7-11.8,13.6-18.1c9.8-6.3,19.7-8.4,22.1-4.7
		C147.7,55.5,137.3,56.9,127.5,63.2z"/>
	<g>
		<rect x="104" y="80.4" fill="none" width="79.6" height="30.9"/>
		<text transform="matrix(1 0 0 1 103.9734 96.4782)" fill="#252835" font-family="'CirceRounded-Regular'" font-size="23">Дизайн</text>
	</g>
</g>
<g id="B30">
</g>
<g id="B31">
</g>
<g id="B32">
</g>
<g id="B33">
</g>
</svg>
