<?xml version="1.0" encoding="utf-8"?>
<!-- Generator: Adobe Illustrator 17.1.0, SVG Export Plug-In . SVG Version: 6.00 Build 0)  -->
<!DOCTYPE svg PUBLIC "-//W3C//DTD SVG 1.1//EN" "http://www.w3.org/Graphics/SVG/1.1/DTD/svg11.dtd">
<svg version="1.1" xmlns="http://www.w3.org/2000/svg" xmlns:xlink="http://www.w3.org/1999/xlink" x="0px" y="0px"
	 viewBox="0 0 311.6 244.6" enable-background="new 0 0 311.6 244.6" xml:space="preserve">
<g id="Sky">
</g>
<g id="Clouds">
</g>
<g id="Button">
</g>
<g id="B1">
</g>
<g id="B2">
	<g>
		<g>
			<path fill="#A7A6F6" d="M208.5,184.9C170,217.3,86.2,234.3,53.8,195.8s-1-118.1,37.5-150.4s96-27.3,128.4,11.2
				S247,152.6,208.5,184.9z"/>
			<polygon fill="#A099E9" points="58.5,191.8 33.9,195.3 50.9,215.5 			"/>
			<path fill="#A099E9" d="M208.5,184.9c35.1-29.5,42.4-79.8,19-117.6l0,0c0,0,43.7,132.3-145.4,146.4
				C121.3,226,178.5,210.1,208.5,184.9z"/>
		</g>
		<path fill="#BEBDF6" d="M111.5,66.2C87.3,83.8,74,106.8,67.6,98.1s8.2-30.1,32.4-47.7s49.1-24.8,55.4-16S135.8,48.6,111.5,66.2z"
			/>
	</g>
	<g>
		<rect x="0" y="112.1" fill="none" width="274.9" height="69.2"/>
		<text transform="matrix(1 0 0 1 82.2834 128.2415)"><tspan x="0" y="0" fill="#252835" font-family="'CirceRounded-Regular'" font-size="23">Топливно-</tspan><tspan x="-24.1" y="27.6" fill="#252835" font-family="'CirceRounded-Regular'" font-size="23">энергетическая</tspan></text>
	</g>
</g>
<g id="B3">
</g>
<g id="B4">
</g>
<g id="Bubble1">
</g>
<g id="Bubble2">
</g>
</svg>
