<?xml version="1.0" encoding="utf-8"?>
<!-- Generator: Adobe Illustrator 22.1.0, SVG Export Plug-In . SVG Version: 6.00 Build 0)  -->
<svg version="1.1" id="Слой_1" xmlns="http://www.w3.org/2000/svg" xmlns:xlink="http://www.w3.org/1999/xlink" x="0px" y="0px"
	 viewBox="0 0 257.4 249" style="enable-background:new 0 0 257.4 249;" xml:space="preserve">
<style type="text/css">
	.st0{fill:#A7A6F6;}
	.st1{fill:#A099E9;}
	.st2{fill:none;}
	.st3{enable-background:new    ;}
	.st4{fill:#252835;}
	.st5{fill:#BEBDF6;}
</style>
<g id="Sky">
</g>
<g id="Clouds">
</g>
<g id="Button">
</g>
<g id="B1">
	<g>
		<path class="st0" d="M213.3,203.2c-47.1,39.5-149.4,60.3-188.9,13.2S23.1,72.3,70.2,32.7S187.5-0.6,227,46.5
			S260.4,163.7,213.3,203.2z"/>
		<polygon class="st1" points="30.1,211.7 0,215.9 20.7,240.6 		"/>
		<path class="st1" d="M213.3,203.2c42.9-36,51.8-97.4,23.2-143.7l0,0c0,0,53.4,161.5-177.7,178.8
			C106.7,253.4,176.7,234,213.3,203.2z"/>
	</g>
	<g>
		<rect x="16.6" y="130.9" class="st2" width="240.8" height="30.9"/>
		<g class="st3">
			<path class="st4" d="M32.7,146.2V134l-4.8,6.8c-0.3,0.4-0.7,0.6-1,0.6s-0.7-0.2-1-0.6l-4.9-6.7v12.1c0,0.3-0.1,0.5-0.3,0.7
				c-0.2,0.2-0.4,0.3-0.7,0.3c-0.3,0-0.5-0.1-0.7-0.3c-0.2-0.2-0.3-0.4-0.3-0.7V132c0-0.4,0.1-0.7,0.3-0.9c0.2-0.2,0.5-0.3,0.8-0.3
				c0.5,0,0.9,0.2,1.3,0.7l5.6,7.6l5.4-7.7c0.3-0.4,0.7-0.7,1.1-0.7c0.3,0,0.6,0.1,0.8,0.3s0.3,0.5,0.3,0.8v14.3
				c0,0.3-0.1,0.5-0.3,0.7c-0.2,0.2-0.4,0.3-0.7,0.3c-0.3,0-0.5-0.1-0.7-0.3C32.8,146.7,32.7,146.5,32.7,146.2z"/>
			<path class="st4" d="M38,144c0-1,0.4-1.8,1.1-2.4c0.7-0.6,1.7-0.9,2.8-0.9c1.1,0,1.9,0.2,2.6,0.7c0-1.2-0.2-2-0.5-2.5
				c-0.3-0.5-0.9-0.8-1.9-0.8c-0.7,0-1.4,0.1-2.1,0.4c-0.1,0-0.2,0.1-0.3,0.1c-0.3,0-0.6-0.2-0.7-0.5c0-0.1-0.1-0.2-0.1-0.3
				c0-0.4,0.2-0.6,0.5-0.7c1-0.4,1.9-0.6,2.9-0.6c1.4,0,2.4,0.3,3,1c0.6,0.7,0.9,1.8,0.9,3.2v5.7c0,0.2-0.1,0.4-0.3,0.6
				c-0.2,0.2-0.4,0.2-0.6,0.2s-0.5-0.1-0.6-0.2c-0.2-0.2-0.3-0.3-0.3-0.6v-0.7c-0.8,1-1.9,1.5-3.3,1.5c-1,0-1.7-0.3-2.3-0.9
				C38.3,145.7,38,144.9,38,144z M44.5,144.2v-1.3c-0.6-0.5-1.4-0.7-2.3-0.7c-0.6,0-1.2,0.1-1.6,0.4c-0.4,0.3-0.6,0.7-0.6,1.3
				c0,0.5,0.2,0.9,0.5,1.2c0.3,0.3,0.8,0.4,1.4,0.4C42.9,145.5,43.8,145.1,44.5,144.2z"/>
			<path class="st4" d="M62.5,137.4v8.7c0,0.2-0.1,0.5-0.3,0.6c-0.2,0.2-0.4,0.3-0.6,0.3H50.2c-0.2,0-0.5-0.1-0.6-0.3
				c-0.2-0.2-0.3-0.4-0.3-0.6v-8.7c0-0.4,0.1-0.6,0.4-0.7c0.3-0.1,0.6-0.1,1,0c0.3,0.1,0.5,0.4,0.4,0.7v7.9H55v-7.9
				c0-0.4,0.1-0.6,0.4-0.7c0.3-0.1,0.6-0.1,1,0c0.3,0.1,0.5,0.4,0.4,0.7v7.9h3.8v-7.9c0-0.4,0.1-0.6,0.4-0.7c0.3-0.1,0.6-0.1,1,0
				C62.3,136.8,62.5,137.1,62.5,137.4z"/>
			<path class="st4" d="M75.4,137.5v8.8c0,0.4-0.1,0.6-0.4,0.7c-0.3,0.1-0.6,0.1-1,0c-0.3-0.1-0.5-0.4-0.4-0.7v-6.8l-5.6,6.9
				c-0.5,0.6-0.9,0.8-1.3,0.8c-0.3,0-0.5-0.1-0.7-0.3c-0.2-0.2-0.3-0.4-0.3-0.6v-8.8c0-0.4,0.1-0.6,0.4-0.7c0.3-0.1,0.6-0.1,1,0
				c0.3,0.1,0.5,0.4,0.4,0.7v6.9l5.6-6.9c0.5-0.6,0.9-0.9,1.3-0.9c0.3,0,0.5,0.1,0.7,0.3C75.3,137,75.4,137.2,75.4,137.5z"/>
			<path class="st4" d="M88.2,137.4v8.9c0,0.4-0.1,0.6-0.4,0.7c-0.3,0.1-0.6,0.1-1,0c-0.3-0.1-0.5-0.4-0.4-0.7v-3.7h-5.8v3.7
				c0,0.4-0.1,0.6-0.4,0.7c-0.3,0.1-0.6,0.1-1,0c-0.3-0.1-0.5-0.4-0.4-0.7v-8.9c0-0.4,0.1-0.6,0.4-0.7c0.3-0.1,0.6-0.1,1,0
				c0.3,0.1,0.5,0.4,0.4,0.7v3.5h5.8v-3.5c0-0.4,0.1-0.6,0.4-0.7c0.3-0.1,0.6-0.1,1,0C88.1,136.8,88.2,137.1,88.2,137.4z"/>
			<path class="st4" d="M92.3,145.7c-1-1-1.5-2.3-1.5-3.9c0-1.6,0.5-2.9,1.5-3.9c1-1,2.3-1.5,4-1.5c1.6,0,3,0.5,4,1.5
				c1,1,1.5,2.3,1.5,3.9c0,1.6-0.5,2.9-1.5,3.9c-1,1-2.4,1.5-4,1.5S93.3,146.7,92.3,145.7z M92.7,141.8c0,1.1,0.3,2,1,2.6
				c0.7,0.7,1.5,1,2.6,1c1,0,1.9-0.3,2.6-1c0.7-0.7,1-1.6,1-2.7c0-1.1-0.3-2-1-2.6c-0.7-0.7-1.5-1-2.6-1c-1,0-1.9,0.3-2.6,1
				C93.1,139.8,92.7,140.7,92.7,141.8z"/>
			<path class="st4" d="M111.5,138.7c-0.8-0.4-1.5-0.6-2.3-0.6c-1,0-1.8,0.3-2.5,1c-0.7,0.7-1.1,1.6-1.1,2.6c0,1.1,0.4,2,1.1,2.7
				s1.6,1,2.6,1c0.9,0,1.6-0.2,2.2-0.7c0.2-0.2,0.5-0.3,0.7-0.3c0.2,0,0.4,0.1,0.5,0.2c0.2,0.2,0.3,0.4,0.3,0.6
				c0,0.3-0.1,0.5-0.3,0.6c-1,0.9-2.2,1.3-3.6,1.3c-1.6,0-3-0.5-4-1.5c-1-1-1.5-2.3-1.5-3.9c0-1.5,0.5-2.8,1.5-3.8
				c1-1,2.2-1.6,3.7-1.6c1.3,0,2.4,0.3,3.4,0.8c0.3,0.2,0.5,0.4,0.5,0.8c0,0.2,0,0.3-0.1,0.4c-0.2,0.3-0.4,0.4-0.8,0.4
				C111.8,138.8,111.6,138.8,111.5,138.7z"/>
			<path class="st4" d="M119.6,138.5v7.8c0,0.4-0.1,0.6-0.4,0.7c-0.3,0.1-0.6,0.1-1,0c-0.3-0.1-0.5-0.4-0.4-0.7v-7.8h-2.9
				c-0.4,0-0.6-0.1-0.7-0.4c-0.1-0.3-0.1-0.6,0-1c0.1-0.3,0.4-0.5,0.7-0.4h7.7c0.4,0,0.6,0.1,0.7,0.4c0.1,0.3,0.1,0.6,0,1
				c-0.1,0.3-0.4,0.5-0.7,0.4H119.6z"/>
			<path class="st4" d="M127.2,146.5v4.2c0,0.4-0.1,0.6-0.4,0.7c-0.3,0.1-0.6,0.1-1,0c-0.3-0.1-0.5-0.4-0.4-0.7v-13.3
				c0-0.4,0.1-0.6,0.4-0.7c0.3-0.1,0.6-0.1,1,0c0.3,0.1,0.5,0.4,0.4,0.7v0.5c0.4-0.4,0.9-0.8,1.5-1c0.6-0.3,1.3-0.4,2-0.4
				c1.5,0,2.6,0.5,3.5,1.4c0.9,1,1.3,2.3,1.3,3.8c0,1.6-0.5,2.9-1.5,4c-1,1.1-2.3,1.6-3.9,1.6C128.9,147.2,128,147,127.2,146.5z
				 M127.2,139.6v5.1c0.8,0.5,1.7,0.8,2.8,0.8c1.1,0,2-0.3,2.6-1c0.7-0.7,1-1.6,1-2.7c0-1.1-0.3-2-0.9-2.6c-0.6-0.7-1.4-1-2.5-1
				C129,138.1,128,138.6,127.2,139.6z"/>
			<path class="st4" d="M139,145.7c-1-1-1.5-2.3-1.5-3.9c0-1.6,0.5-2.9,1.5-3.9c1-1,2.3-1.5,4-1.5c1.6,0,3,0.5,4,1.5
				c1,1,1.5,2.3,1.5,3.9c0,1.6-0.5,2.9-1.5,3.9c-1,1-2.4,1.5-4,1.5S140.1,146.7,139,145.7z M139.5,141.8c0,1.1,0.3,2,1,2.6
				c0.7,0.7,1.5,1,2.6,1c1,0,1.9-0.3,2.6-1c0.7-0.7,1-1.6,1-2.7c0-1.1-0.3-2-1-2.6c-0.7-0.7-1.5-1-2.6-1c-1,0-1.9,0.3-2.6,1
				C139.8,139.8,139.5,140.7,139.5,141.8z"/>
			<path class="st4" d="M160.8,137.5v8.8c0,0.4-0.1,0.6-0.4,0.7s-0.6,0.1-1,0c-0.3-0.1-0.5-0.4-0.4-0.7v-6.8l-5.6,6.9
				c-0.5,0.6-0.9,0.8-1.3,0.8c-0.3,0-0.5-0.1-0.7-0.3c-0.2-0.2-0.3-0.4-0.3-0.6v-8.8c0-0.4,0.1-0.6,0.4-0.7c0.3-0.1,0.6-0.1,1,0
				c0.3,0.1,0.5,0.4,0.4,0.7v6.9l5.6-6.9c0.5-0.6,0.9-0.9,1.3-0.9c0.3,0,0.5,0.1,0.7,0.3C160.7,137,160.8,137.2,160.8,137.5z"/>
			<path class="st4" d="M168.5,138.5v7.8c0,0.4-0.1,0.6-0.4,0.7s-0.6,0.1-1,0s-0.5-0.4-0.4-0.7v-7.8h-2.9c-0.4,0-0.6-0.1-0.7-0.4
				c-0.1-0.3-0.1-0.6,0-1c0.1-0.3,0.4-0.5,0.7-0.4h7.7c0.4,0,0.6,0.1,0.7,0.4s0.1,0.6,0,1c-0.1,0.3-0.4,0.5-0.7,0.4H168.5z"/>
			<path class="st4" d="M183.4,141.2c0,0.3,0,0.4,0,0.5c0,0.2-0.1,0.4-0.3,0.5s-0.3,0.2-0.5,0.2h-7.3c0.1,1,0.4,1.7,1.1,2.3
				c0.7,0.6,1.5,0.8,2.5,0.8c1,0,1.8-0.2,2.5-0.6c0.2-0.1,0.3-0.1,0.5-0.1c0.2,0,0.4,0.1,0.6,0.3c0.1,0.1,0.1,0.2,0.1,0.4
				c0,0.3-0.1,0.5-0.3,0.6c-1.1,0.8-2.3,1.2-3.7,1.2c-1.7,0-3-0.5-4-1.5c-1-1-1.5-2.3-1.5-3.9c0-1.5,0.5-2.8,1.4-3.9
				c1-1,2.3-1.5,3.9-1.5c1.4,0,2.5,0.4,3.4,1.3C182.9,138.6,183.4,139.8,183.4,141.2z M175.2,140.9h6.3c0-0.9-0.3-1.5-0.9-2
				c-0.5-0.5-1.2-0.7-2.1-0.7c-0.9,0-1.7,0.3-2.2,0.8C175.6,139.4,175.3,140.1,175.2,140.9z"/>
			<path class="st4" d="M194.3,137.5v8.8c0,0.4-0.1,0.6-0.4,0.7c-0.3,0.1-0.6,0.1-1,0c-0.3-0.1-0.5-0.4-0.4-0.7v-7.8h-3.6l-0.1,1.7
				c-0.1,2.3-0.5,4-1.2,5.2c-0.6,1.2-1.4,1.7-2.3,1.7c-0.3,0-0.5-0.1-0.7-0.2c-0.2-0.2-0.3-0.4-0.3-0.6c0-0.4,0.2-0.7,0.7-0.9
				c0.5-0.2,1-0.7,1.2-1.5c0.3-0.8,0.5-2.1,0.6-4l0.1-2.3c0-0.2,0.1-0.5,0.3-0.6c0.2-0.2,0.4-0.3,0.6-0.3h5.5c0.2,0,0.5,0.1,0.6,0.3
				S194.3,137.3,194.3,137.5z"/>
			<path class="st4" d="M199.5,137.4v2.3h1.9c1.4,0,2.4,0.3,3.1,1c0.7,0.6,1,1.5,1,2.6c0,1.1-0.4,2-1.1,2.7s-1.8,1-3.2,1h-2.6
				c-0.2,0-0.5-0.1-0.6-0.3c-0.2-0.2-0.3-0.4-0.3-0.6v-8.7c0-0.4,0.1-0.6,0.4-0.7c0.3-0.1,0.6-0.1,1,0
				C199.4,136.8,199.5,137.1,199.5,137.4z M199.5,141.5v3.8h1.5c1.7,0,2.5-0.6,2.5-1.9c0-1.3-0.8-1.9-2.5-1.9H199.5z"/>
			<path class="st4" d="M217.4,137.4v8.9c0,0.4-0.1,0.6-0.4,0.7c-0.3,0.1-0.6,0.1-1,0c-0.3-0.1-0.5-0.4-0.4-0.7v-3.7h-5.8v3.7
				c0,0.4-0.1,0.6-0.4,0.7c-0.3,0.1-0.6,0.1-1,0c-0.3-0.1-0.5-0.4-0.4-0.7v-8.9c0-0.4,0.1-0.6,0.4-0.7c0.3-0.1,0.6-0.1,1,0
				c0.3,0.1,0.5,0.4,0.4,0.7v3.5h5.8v-3.5c0-0.4,0.1-0.6,0.4-0.7c0.3-0.1,0.6-0.1,1,0C217.2,136.8,217.4,137.1,217.4,137.4z"/>
			<path class="st4" d="M219.9,144c0-1,0.4-1.8,1.1-2.4c0.7-0.6,1.7-0.9,2.8-0.9c1.1,0,1.9,0.2,2.6,0.7c0-1.2-0.2-2-0.5-2.5
				s-0.9-0.8-1.9-0.8c-0.7,0-1.4,0.1-2.1,0.4c-0.1,0-0.2,0.1-0.3,0.1c-0.3,0-0.6-0.2-0.7-0.5c0-0.1-0.1-0.2-0.1-0.3
				c0-0.4,0.2-0.6,0.5-0.7c1-0.4,1.9-0.6,2.9-0.6c1.4,0,2.4,0.3,3,1c0.6,0.7,0.9,1.8,0.9,3.2v5.7c0,0.2-0.1,0.4-0.3,0.6
				c-0.2,0.2-0.4,0.2-0.6,0.2c-0.2,0-0.5-0.1-0.6-0.2c-0.2-0.2-0.3-0.3-0.3-0.6v-0.7c-0.8,1-1.9,1.5-3.3,1.5c-1,0-1.7-0.3-2.3-0.9
				C220.2,145.7,219.9,144.9,219.9,144z M226.4,144.2v-1.3c-0.6-0.5-1.4-0.7-2.3-0.7c-0.6,0-1.2,0.1-1.6,0.4
				c-0.4,0.3-0.6,0.7-0.6,1.3c0,0.5,0.2,0.9,0.5,1.2c0.3,0.3,0.8,0.4,1.4,0.4C224.8,145.5,225.7,145.1,226.4,144.2z"/>
			<path class="st4" d="M231,145.7l2-2.6c-0.6-0.1-1.2-0.5-1.6-1c-0.4-0.5-0.6-1.2-0.6-2c0-1.1,0.4-1.9,1.2-2.5
				c0.8-0.6,1.9-0.9,3.5-0.9h2.3c0.2,0,0.5,0.1,0.6,0.3s0.3,0.4,0.3,0.6v8.8c0,0.4-0.1,0.6-0.4,0.7s-0.6,0.1-1,0
				c-0.3-0.1-0.5-0.4-0.4-0.7v-2.7h-2l-2.3,3.1c-0.2,0.3-0.5,0.5-0.8,0.5c-0.3,0-0.5-0.1-0.7-0.2c-0.2-0.2-0.3-0.3-0.3-0.6
				C230.7,146.2,230.8,145.9,231,145.7z M234.6,141.8h2.1v-3.5H235c-0.8,0-1.4,0.2-1.8,0.5c-0.4,0.3-0.6,0.8-0.6,1.3
				c0,0.5,0.2,0.9,0.6,1.2C233.6,141.7,234.1,141.8,234.6,141.8z"/>
		</g>
	</g>
	<path class="st5" d="M89.7,50.2C65.3,67.9,51.9,91.1,45.5,82.3c-6.4-8.8,8.2-30.3,32.6-48s49.4-24.9,55.8-16.1
		C140.3,26.9,114.1,32.5,89.7,50.2z"/>
</g>
<g id="B2">
</g>
<g id="B3">
</g>
<g id="B4">
</g>
<g id="Bubble1">
</g>
<g id="Bubble2">
</g>
</svg>
