<?xml version="1.0" encoding="utf-8"?>
<!-- Generator: Adobe Illustrator 22.1.0, SVG Export Plug-In . SVG Version: 6.00 Build 0)  -->
<svg version="1.1" id="Слой_1" xmlns="http://www.w3.org/2000/svg" xmlns:xlink="http://www.w3.org/1999/xlink" x="0px" y="0px"
	 viewBox="0 0 174 188.9" style="enable-background:new 0 0 174 188.9;" xml:space="preserve">
<style type="text/css">
	.st0{fill:#9AD17D;}
	.st1{fill:#96CD7C;}
	.st2{fill:#84CB66;}
	.st3{fill:#ABD796;}
	.st4{fill:none;}
	.st5{enable-background:new    ;}
	.st6{fill:#252835;}
</style>
<g id="Sky">
</g>
<g id="Clouds">
</g>
<g id="Button">
</g>
<g id="B_1">
</g>
<g id="B2">
</g>
<g id="B3">
</g>
<g id="B4">
</g>
<g id="B5">
</g>
<g id="B6">
</g>
<g id="B7">
</g>
<g id="B8">
</g>
<g id="B9">
	<polygon class="st0" points="28.4,168.2 9,175.6 26.6,188.9 	"/>
	<path class="st1" d="M149.5,127.9c-25.2,33.5-90.1,63.1-123.6,37.9S2.9,70,28.1,36.4s72.9-40.2,106.4-15S174.8,94.3,149.5,127.9z"
		/>
	<path class="st2" d="M148.9,129.6c23.8-30,21.3-72.4-4.3-99.4l0,0c0,0,58,100.8-94.3,144.2C84.4,177.9,128.6,155.2,148.9,129.6z"/>
	<path class="st3" d="M54.4,44.9C40.6,56.6,34.3,72.1,29.3,66.1s2.1-20.3,16-32s29.2-16.3,34.3-10.3S68.3,33.3,54.4,44.9z"/>
	<g>
		<rect x="13.4" y="88.9" class="st4" width="150.6" height="30.9"/>
		<g class="st5">
			<path class="st6" d="M16.5,89.5l5.5,6.6c0.3,0.3,0.3,0.7,0,1.1l-5.8,7.3c-0.4,0.5-0.7,0.7-1.1,0.7c-0.4,0-0.7-0.2-0.8-0.5
				c-0.1-0.3-0.1-0.7,0.2-1l5.7-7.1l-5.4-6.3c-0.3-0.3-0.3-0.7-0.2-1c0.1-0.3,0.4-0.5,0.8-0.5C15.8,88.8,16.1,89,16.5,89.5z
				 M22.8,104.2V89.8c0-0.3,0.1-0.5,0.3-0.7c0.2-0.2,0.4-0.3,0.7-0.3c0.3,0,0.5,0.1,0.7,0.3c0.2,0.2,0.3,0.4,0.3,0.7v14.5
				c0,0.3-0.1,0.5-0.3,0.7c-0.2,0.2-0.4,0.3-0.7,0.3c-0.3,0-0.5-0.1-0.7-0.3C22.9,104.7,22.8,104.5,22.8,104.2z M27.3,96.6l5.7,7.1
				c0.3,0.3,0.3,0.7,0.2,1s-0.4,0.5-0.8,0.5c-0.2,0-0.4,0-0.5-0.1c-0.1-0.1-0.3-0.3-0.6-0.6l-5.8-7.3c-0.3-0.4-0.3-0.7,0-1.1
				l5.6-6.7c0.3-0.4,0.6-0.6,0.9-0.6c0.2,0,0.4,0.1,0.6,0.2c0.2,0.2,0.2,0.3,0.2,0.6c0,0.2-0.1,0.4-0.2,0.6L27.3,96.6z"/>
			<path class="st6" d="M34.9,95.1l2.8,6.1c0,0.1,0.2,0.6,0.6,1.6c0.1-0.5,0.3-1,0.5-1.6l2.2-6c0.2-0.5,0.5-0.7,0.9-0.7
				c0.3,0,0.6,0.1,0.7,0.2c0.2,0.2,0.3,0.4,0.3,0.7c0,0.1,0,0.3-0.1,0.4l-3.7,9.1c-0.7,1.8-1.3,3-1.9,3.7c-0.6,0.6-1.3,0.9-2,0.9
				c-1.2,0-1.8-0.4-1.8-1.1c0-0.5,0.2-0.7,0.7-0.7c0,0,0.2,0,0.4,0.1c0.2,0,0.4,0.1,0.5,0.1c0.4,0,0.8-0.2,1.2-0.6
				c0.3-0.4,0.7-1,1-1.8l0.2-0.6L33.1,96C33,95.9,33,95.7,33,95.5c0-0.3,0.1-0.5,0.3-0.7c0.2-0.2,0.4-0.3,0.7-0.3
				C34.4,94.6,34.7,94.8,34.9,95.1z"/>
			<path class="st6" d="M47,104.6v4.2c0,0.4-0.1,0.6-0.4,0.7c-0.3,0.1-0.6,0.1-1,0c-0.3-0.1-0.5-0.4-0.4-0.7V95.4
				c0-0.4,0.1-0.6,0.4-0.7c0.3-0.1,0.6-0.1,1,0c0.3,0.1,0.5,0.4,0.4,0.7v0.5c0.4-0.4,0.9-0.8,1.5-1c0.6-0.3,1.3-0.4,2-0.4
				c1.5,0,2.6,0.5,3.5,1.4c0.9,1,1.3,2.3,1.3,3.8c0,1.6-0.5,2.9-1.5,4c-1,1.1-2.3,1.6-3.9,1.6C48.6,105.3,47.7,105,47,104.6z
				 M47,97.6v5.1c0.8,0.5,1.7,0.8,2.8,0.8c1.1,0,2-0.3,2.6-1c0.7-0.7,1-1.6,1-2.7c0-1.1-0.3-2-0.9-2.6c-0.6-0.7-1.4-1-2.5-1
				C48.7,96.2,47.7,96.7,47,97.6z"/>
			<path class="st6" d="M67.3,95.4v8.9c0,0.4-0.1,0.6-0.4,0.7c-0.3,0.1-0.6,0.1-1,0c-0.3-0.1-0.5-0.4-0.4-0.7v-3.7h-5.8v3.7
				c0,0.4-0.1,0.6-0.4,0.7c-0.3,0.1-0.6,0.1-1,0c-0.3-0.1-0.5-0.4-0.4-0.7v-8.9c0-0.4,0.1-0.6,0.4-0.7c0.3-0.1,0.6-0.1,1,0
				c0.3,0.1,0.5,0.4,0.4,0.7v3.5h5.8v-3.5c0-0.4,0.1-0.6,0.4-0.7c0.3-0.1,0.6-0.1,1,0C67.2,94.8,67.4,95.1,67.3,95.4z"/>
			<path class="st6" d="M69.9,102c0-1,0.4-1.8,1.1-2.4c0.7-0.6,1.7-0.9,2.8-0.9c1.1,0,1.9,0.2,2.6,0.7c0-1.2-0.2-2-0.5-2.5
				c-0.3-0.5-0.9-0.8-1.9-0.8c-0.7,0-1.4,0.1-2.1,0.4c-0.1,0-0.2,0.1-0.3,0.1c-0.3,0-0.6-0.2-0.7-0.5c0-0.1-0.1-0.2-0.1-0.3
				c0-0.4,0.2-0.6,0.5-0.7c1-0.4,1.9-0.6,2.9-0.6c1.4,0,2.4,0.3,3,1c0.6,0.7,0.9,1.8,0.9,3.2v5.7c0,0.2-0.1,0.4-0.3,0.6
				c-0.2,0.2-0.4,0.2-0.6,0.2s-0.5-0.1-0.6-0.2c-0.2-0.2-0.3-0.3-0.3-0.6v-0.7c-0.8,1-1.9,1.5-3.3,1.5c-1,0-1.7-0.3-2.3-0.9
				C70.2,103.8,69.9,103,69.9,102z M76.4,102.2v-1.3c-0.6-0.5-1.4-0.7-2.3-0.7c-0.6,0-1.2,0.1-1.6,0.4c-0.4,0.3-0.6,0.7-0.6,1.3
				c0,0.5,0.2,0.9,0.5,1.2c0.3,0.3,0.8,0.4,1.4,0.4C74.8,103.5,75.6,103.1,76.4,102.2z"/>
			<path class="st6" d="M90,95.6v8.8c0,0.4-0.1,0.6-0.4,0.7c-0.3,0.1-0.6,0.1-1,0s-0.5-0.4-0.4-0.7v-7.8h-3.6l-0.1,1.7
				c-0.1,2.3-0.5,4-1.2,5.2c-0.6,1.2-1.4,1.7-2.3,1.7c-0.3,0-0.5-0.1-0.7-0.2c-0.2-0.2-0.3-0.4-0.3-0.6c0-0.4,0.2-0.7,0.7-0.9
				c0.5-0.2,1-0.7,1.2-1.5c0.3-0.8,0.5-2.1,0.6-4l0.1-2.3c0-0.2,0.1-0.5,0.3-0.6s0.4-0.3,0.6-0.3h5.5c0.2,0,0.5,0.1,0.6,0.3
				C89.9,95.1,90,95.3,90,95.6z"/>
			<path class="st6" d="M103,95.5v8.8c0,0.4-0.1,0.6-0.4,0.7c-0.3,0.1-0.6,0.1-1,0s-0.5-0.4-0.4-0.7v-6.8l-5.6,6.9
				c-0.5,0.6-0.9,0.8-1.3,0.8c-0.3,0-0.5-0.1-0.7-0.3c-0.2-0.2-0.3-0.4-0.3-0.6v-8.8c0-0.4,0.1-0.6,0.4-0.7c0.3-0.1,0.6-0.1,1,0
				c0.3,0.1,0.5,0.4,0.4,0.7v6.9l5.6-6.9c0.5-0.6,0.9-0.9,1.3-0.9c0.3,0,0.5,0.1,0.7,0.3C102.9,95,103,95.3,103,95.5z"/>
			<path class="st6" d="M113.4,96.8c-0.8-0.4-1.5-0.6-2.3-0.6c-1,0-1.8,0.3-2.5,1c-0.7,0.7-1.1,1.6-1.1,2.6c0,1.1,0.4,2,1.1,2.7
				s1.6,1,2.6,1c0.9,0,1.6-0.2,2.2-0.7c0.2-0.2,0.5-0.3,0.7-0.3c0.2,0,0.4,0.1,0.5,0.2c0.2,0.2,0.3,0.4,0.3,0.6
				c0,0.3-0.1,0.5-0.3,0.6c-1,0.9-2.2,1.3-3.6,1.3c-1.6,0-3-0.5-4-1.5c-1-1-1.5-2.3-1.5-3.9c0-1.5,0.5-2.8,1.5-3.8s2.2-1.6,3.7-1.6
				c1.3,0,2.4,0.3,3.4,0.8c0.3,0.2,0.5,0.4,0.5,0.8c0,0.2,0,0.3-0.1,0.4c-0.2,0.3-0.4,0.4-0.8,0.4C113.6,96.9,113.5,96.8,113.4,96.8
				z"/>
			<path class="st6" d="M121.4,96.5v7.8c0,0.4-0.1,0.6-0.4,0.7c-0.3,0.1-0.6,0.1-1,0s-0.5-0.4-0.4-0.7v-7.8h-2.9
				c-0.4,0-0.6-0.1-0.7-0.4c-0.1-0.3-0.1-0.6,0-1s0.4-0.5,0.7-0.4h7.7c0.4,0,0.6,0.1,0.7,0.4s0.1,0.6,0,1c-0.1,0.3-0.4,0.5-0.7,0.4
				H121.4z"/>
			<path class="st6" d="M136.9,95.5v8.8c0,0.4-0.1,0.6-0.4,0.7s-0.6,0.1-1,0c-0.3-0.1-0.5-0.4-0.4-0.7v-6.8l-5.6,6.9
				c-0.5,0.6-0.9,0.8-1.3,0.8c-0.3,0-0.5-0.1-0.7-0.3c-0.2-0.2-0.3-0.4-0.3-0.6v-8.8c0-0.4,0.1-0.6,0.4-0.7c0.3-0.1,0.6-0.1,1,0
				c0.3,0.1,0.5,0.4,0.4,0.7v6.9l5.6-6.9c0.5-0.6,0.9-0.9,1.3-0.9c0.3,0,0.5,0.1,0.7,0.3C136.8,95,136.9,95.3,136.9,95.5z"/>
			<path class="st6" d="M142,95.4v8.9c0,0.4-0.1,0.6-0.4,0.7c-0.3,0.1-0.6,0.1-1,0c-0.3-0.1-0.5-0.4-0.4-0.7v-8.9
				c0-0.4,0.1-0.6,0.4-0.7c0.3-0.1,0.6-0.1,1,0C141.9,94.8,142.1,95.1,142,95.4z M146.9,104.7l-3.8-4.3c-0.2-0.2-0.2-0.4-0.2-0.7
				c0-0.3,0.1-0.5,0.2-0.6l3.5-4c0.3-0.3,0.5-0.5,0.9-0.5c0.3,0,0.5,0.1,0.7,0.3c0.2,0.2,0.2,0.4,0.2,0.6c0,0.2-0.1,0.4-0.2,0.6
				l-3.3,3.6l3.7,4c0.2,0.2,0.3,0.4,0.3,0.7c0,0.2-0.1,0.5-0.3,0.6c-0.2,0.2-0.4,0.3-0.7,0.3C147.4,105.2,147.1,105,146.9,104.7z"/>
			<path class="st6" d="M150.5,102c0-1,0.4-1.8,1.1-2.4c0.7-0.6,1.7-0.9,2.8-0.9c1.1,0,1.9,0.2,2.6,0.7c0-1.2-0.2-2-0.5-2.5
				c-0.3-0.5-0.9-0.8-1.9-0.8c-0.7,0-1.4,0.1-2.1,0.4c-0.1,0-0.2,0.1-0.3,0.1c-0.3,0-0.6-0.2-0.7-0.5c0-0.1-0.1-0.2-0.1-0.3
				c0-0.4,0.2-0.6,0.5-0.7c1-0.4,1.9-0.6,2.9-0.6c1.4,0,2.4,0.3,3,1c0.6,0.7,0.9,1.8,0.9,3.2v5.7c0,0.2-0.1,0.4-0.3,0.6
				c-0.2,0.2-0.4,0.2-0.6,0.2c-0.2,0-0.5-0.1-0.6-0.2c-0.2-0.2-0.3-0.3-0.3-0.6v-0.7c-0.8,1-1.9,1.5-3.3,1.5c-1,0-1.7-0.3-2.3-0.9
				C150.8,103.8,150.5,103,150.5,102z M157,102.2v-1.3c-0.6-0.5-1.4-0.7-2.3-0.7c-0.6,0-1.2,0.1-1.6,0.4c-0.4,0.3-0.6,0.7-0.6,1.3
				c0,0.5,0.2,0.9,0.5,1.2c0.3,0.3,0.8,0.4,1.4,0.4C155.4,103.5,156.3,103.1,157,102.2z"/>
		</g>
	</g>
</g>
<g id="B10">
</g>
<g id="B11">
</g>
<g id="B12">
</g>
<g id="B13">
</g>
<g id="B14">
</g>
<g id="B15">
</g>
<g id="Head">
</g>
<g id="B16">
</g>
<g id="B17">
</g>
<g id="B18">
</g>
<g id="B19">
</g>
<g id="B20">
</g>
<g id="B21">
</g>
<g id="B22">
</g>
<g id="B23">
</g>
<g id="B24">
</g>
<g id="B25">
</g>
<g id="B26">
</g>
<g id="B27">
</g>
<g id="B28">
</g>
<g id="B29">
</g>
<g id="B30">
</g>
<g id="B31">
</g>
<g id="B32">
</g>
<g id="B33">
</g>
</svg>
