<?xml version="1.0" encoding="utf-8"?>
<!-- Generator: Adobe Illustrator 17.1.0, SVG Export Plug-In . SVG Version: 6.00 Build 0)  -->
<!DOCTYPE svg PUBLIC "-//W3C//DTD SVG 1.1//EN" "http://www.w3.org/Graphics/SVG/1.1/DTD/svg11.dtd">
<svg version="1.1" xmlns="http://www.w3.org/2000/svg" xmlns:xlink="http://www.w3.org/1999/xlink" x="0px" y="0px"
	 viewBox="0 0 242.8 183.4" enable-background="new 0 0 242.8 183.4" xml:space="preserve">
<g id="Sky">
</g>
<g id="Clouds">
</g>
<g id="Button">
</g>
<g id="B_1">
</g>
<g id="B2">
</g>
<g id="B3">
</g>
<g id="B4">
</g>
<g id="B5">
</g>
<g id="B6">
</g>
<g id="B7">
</g>
<g id="B8">
</g>
<g id="B9">
</g>
<g id="B10">
</g>
<g id="B11">
</g>
<g id="B12">
</g>
<g id="B13">
</g>
<g id="B14">
</g>
<g id="B15">
</g>
<g id="Head">
</g>
<g id="B16">
</g>
<g id="B17">
</g>
<g id="B18">
</g>
<g id="B19">
</g>
<g id="B20">
</g>
<g id="B21">
</g>
<g id="B22">
</g>
<g id="B23">
</g>
<g id="B24">
	<g>
		<path fill="#75AEB9" d="M143.2,122c-16.7,16-54.6,26.3-70.6,9.6s-4-54.1,12.7-70.1s43.2-15.4,59.2,1.3S159.9,106,143.2,122z"/>
		<polygon fill="#4E9DA3" points="74.6,129.6 63.4,132 71.8,140.7 		"/>
		<path fill="#4E9DA3" d="M143.2,122c15.2-14.6,17.1-37.9,5.2-54.5l0,0c0,0,24,59.4-62.3,71.5C104.4,143.4,130.2,134.4,143.2,122z"
			/>
	</g>
	<path fill="#91BEC7" d="M100.5,67.5c-10,5.7-15.7,14.7-18.2,10.3C79.8,73.4,86,65.3,96,59.6s20.2-6.8,22.6-2.4
		C121.1,61.5,110.5,61.8,100.5,67.5z"/>
	<g>
		<rect x="79.2" y="86.9" fill="none" width="87.7" height="30.9"/>
		<text transform="matrix(1 0 0 1 79.1587 103.0058)" fill="#252835" font-family="'CirceRounded-Regular'" font-size="23">Спорт</text>
	</g>
</g>
<g id="B25">
</g>
<g id="B26">
</g>
<g id="B27">
</g>
<g id="B28">
</g>
<g id="B29">
</g>
<g id="B30">
</g>
<g id="B31">
</g>
<g id="B32">
</g>
<g id="B33">
</g>
</svg>
