<?xml version="1.0" encoding="utf-8"?>
<!-- Generator: Adobe Illustrator 22.1.0, SVG Export Plug-In . SVG Version: 6.00 Build 0)  -->
<svg version="1.1" id="Слой_1" xmlns="http://www.w3.org/2000/svg" xmlns:xlink="http://www.w3.org/1999/xlink" x="0px" y="0px"
	 viewBox="0 0 97 92" style="enable-background:new 0 0 97 92;" xml:space="preserve">
<style type="text/css">
	.st0{fill:#96CD7C;}
	.st1{fill:#84CB66;}
	.st2{fill:none;}
	.st3{enable-background:new    ;}
	.st4{fill:#252835;}
	.st5{fill:#ABD796;}
</style>
<g id="Sky">
</g>
<g id="Clouds">
</g>
<g id="Button">
</g>
<g id="B_1">
</g>
<g id="B2">
</g>
<g id="B3">
</g>
<g id="B4">
</g>
<g id="B5">
</g>
<g id="B6">
</g>
<g id="B7">
</g>
<g id="B8">
</g>
<g id="B9">
</g>
<g id="B10">
</g>
<g id="B11">
</g>
<g id="B12">
	<g>
		<path class="st0" d="M80.4,69.6C64.5,84.9,28.3,94.7,13,78.8S9.2,27.2,25.1,11.9s41.2-14.7,56.5,1.2S96.3,54.4,80.4,69.6z"/>
		<polygon class="st1" points="14.9,77 4.2,79.2 12.3,87.6 		"/>
		<path class="st1" d="M80.4,69.6c14.5-13.9,16.3-36.1,4.9-52l0,0c0,0,22.9,56.6-59.4,68.2C43.4,90.1,68,81.5,80.4,69.6z"/>
	</g>
	<g>
		<rect x="14.8" y="37.3" class="st2" width="77.1" height="30.9"/>
		<g class="st3">
			<path class="st4" d="M27.3,39.1h-4.7v13.5c0,0.3-0.1,0.5-0.3,0.7c-0.2,0.2-0.4,0.3-0.7,0.3c-0.3,0-0.5-0.1-0.7-0.3
				c-0.2-0.2-0.3-0.4-0.3-0.7V39.1h-4.7c-0.2,0-0.5-0.1-0.6-0.3c-0.2-0.2-0.3-0.4-0.3-0.6s0.1-0.5,0.3-0.6c0.2-0.2,0.4-0.3,0.6-0.3
				h11.4c0.2,0,0.5,0.1,0.6,0.3c0.2,0.2,0.3,0.4,0.3,0.6s-0.1,0.5-0.3,0.6C27.8,39,27.6,39.1,27.3,39.1z"/>
			<path class="st4" d="M28,43.5l2.8,6.1c0,0.1,0.2,0.6,0.6,1.6c0.1-0.5,0.3-1,0.5-1.6l2.2-6c0.2-0.5,0.5-0.7,0.9-0.7
				c0.3,0,0.6,0.1,0.7,0.2c0.2,0.2,0.3,0.4,0.3,0.7c0,0.1,0,0.3-0.1,0.4l-3.7,9.1c-0.7,1.8-1.3,3-1.9,3.7c-0.6,0.6-1.3,0.9-2,0.9
				c-1.2,0-1.8-0.4-1.8-1.1c0-0.5,0.2-0.7,0.7-0.7c0,0,0.2,0,0.4,0.1c0.2,0,0.4,0.1,0.5,0.1c0.4,0,0.8-0.2,1.2-0.6
				c0.3-0.4,0.7-1,1-1.8l0.2-0.6l-4.3-9.1c-0.1-0.1-0.1-0.3-0.1-0.4c0-0.3,0.1-0.5,0.3-0.7c0.2-0.2,0.4-0.3,0.7-0.3
				C27.5,42.9,27.8,43.1,28,43.5z"/>
			<path class="st4" d="M40.1,52.9v4.2c0,0.4-0.1,0.6-0.4,0.7c-0.3,0.1-0.6,0.1-1,0c-0.3-0.1-0.5-0.4-0.4-0.7V43.8
				c0-0.4,0.1-0.6,0.4-0.7c0.3-0.1,0.6-0.1,1,0c0.3,0.1,0.5,0.4,0.4,0.7v0.5c0.4-0.4,0.9-0.8,1.5-1c0.6-0.3,1.3-0.4,2-0.4
				c1.5,0,2.6,0.5,3.5,1.4c0.9,1,1.3,2.3,1.3,3.8c0,1.6-0.5,2.9-1.5,4c-1,1.1-2.3,1.6-3.9,1.6C41.8,53.6,40.8,53.4,40.1,52.9z
				 M40.1,46v5.1c0.8,0.5,1.7,0.8,2.8,0.8c1.1,0,2-0.3,2.6-1c0.7-0.7,1-1.6,1-2.7c0-1.1-0.3-2-0.9-2.6c-0.6-0.7-1.4-1-2.5-1
				C41.8,44.5,40.9,45,40.1,46z"/>
			<path class="st4" d="M60.7,43.9v8.8c0,0.4-0.1,0.6-0.4,0.7s-0.6,0.1-1,0c-0.3-0.1-0.5-0.4-0.4-0.7v-6.8l-5.6,6.9
				c-0.5,0.6-0.9,0.8-1.3,0.8c-0.3,0-0.5-0.1-0.7-0.3c-0.2-0.2-0.3-0.4-0.3-0.6v-8.8c0-0.4,0.1-0.6,0.4-0.7c0.3-0.1,0.6-0.1,1,0
				c0.3,0.1,0.5,0.4,0.4,0.7v6.9l5.6-6.9c0.5-0.6,0.9-0.9,1.3-0.9c0.3,0,0.5,0.1,0.7,0.3C60.6,43.4,60.7,43.6,60.7,43.9z"/>
			<path class="st4" d="M67.3,42.8c1.2,0,2.2,0.2,2.9,0.7c0.7,0.5,1,1.2,1,2c0,1.2-0.6,2-1.8,2.5c0.7,0.1,1.2,0.4,1.6,0.8
				c0.4,0.5,0.6,1,0.6,1.6c0,1-0.4,1.7-1.2,2.3c-0.8,0.6-1.9,0.8-3.2,0.8c-1.4,0-2.6-0.3-3.6-0.9c-0.3-0.2-0.4-0.4-0.4-0.7
				c0-0.2,0.1-0.3,0.2-0.5c0.2-0.2,0.4-0.4,0.7-0.4c0.2,0,0.3,0,0.5,0.1c0.8,0.5,1.6,0.7,2.3,0.7c0.8,0,1.4-0.2,2-0.5
				s0.8-0.7,0.8-1.2c0-0.4-0.2-0.8-0.5-1c-0.4-0.2-0.9-0.3-1.5-0.3h-1c-0.2,0-0.4-0.1-0.6-0.2c-0.2-0.1-0.2-0.3-0.2-0.5
				c0-0.2,0.1-0.4,0.2-0.5s0.3-0.2,0.6-0.2h0.9c0.5,0,1-0.1,1.3-0.4c0.3-0.3,0.5-0.6,0.5-1c0-0.5-0.2-0.8-0.6-1.1
				c-0.4-0.3-0.9-0.4-1.6-0.4c-0.8,0-1.6,0.2-2.4,0.6c-0.1,0.1-0.3,0.1-0.4,0.1c-0.3,0-0.5-0.1-0.7-0.4c-0.1-0.1-0.1-0.2-0.1-0.4
				c0-0.3,0.2-0.5,0.5-0.7C64.8,43.1,66,42.8,67.3,42.8z"/>
			<path class="st4" d="M79.2,49.7l-3-3.7v6.7c0,0.4-0.1,0.6-0.4,0.7c-0.3,0.1-0.6,0.1-1,0c-0.3-0.1-0.5-0.4-0.4-0.7v-8.9
				c0-0.2,0.1-0.5,0.3-0.6c0.2-0.2,0.4-0.3,0.6-0.3c0.2,0,0.4,0.1,0.6,0.2c0.2,0.1,0.4,0.4,0.7,0.7l3.5,4.3l3.3-4.4
				c0.4-0.6,0.8-0.9,1.2-0.9c0.2,0,0.5,0.1,0.6,0.3c0.2,0.2,0.3,0.4,0.3,0.6v8.9c0,0.4-0.1,0.6-0.4,0.7s-0.6,0.1-1,0
				s-0.5-0.4-0.4-0.7V46l-2.9,3.7c-0.2,0.2-0.4,0.4-0.7,0.4S79.4,50,79.2,49.7z"/>
		</g>
	</g>
	<path class="st5" d="M31.6,21.7c-8.7,7.9-12.8,17.6-15.7,14.4s1.7-12.3,10.3-20.3S44.3,4.1,47.3,7.3C50.3,10.6,40.3,13.8,31.6,21.7
		z"/>
</g>
<g id="B13">
</g>
<g id="B14">
</g>
<g id="B15">
</g>
<g id="Head">
</g>
<g id="B16">
</g>
<g id="B17">
</g>
<g id="B18">
</g>
<g id="B19">
</g>
<g id="B20">
</g>
<g id="B21">
</g>
<g id="B22">
</g>
<g id="B23">
</g>
<g id="B24">
</g>
<g id="B25">
</g>
<g id="B26">
</g>
<g id="B27">
</g>
<g id="B28">
</g>
<g id="B29">
</g>
<g id="B30">
</g>
<g id="B31">
</g>
<g id="B32">
</g>
<g id="B33">
</g>
</svg>
