<?xml version="1.0" encoding="utf-8"?>
<!-- Generator: Adobe Illustrator 17.1.0, SVG Export Plug-In . SVG Version: 6.00 Build 0)  -->
<!DOCTYPE svg PUBLIC "-//W3C//DTD SVG 1.1//EN" "http://www.w3.org/Graphics/SVG/1.1/DTD/svg11.dtd">
<svg version="1.1" xmlns="http://www.w3.org/2000/svg" xmlns:xlink="http://www.w3.org/1999/xlink" x="0px" y="0px"
	 viewBox="0 0 206.6 183.4" enable-background="new 0 0 206.6 183.4" xml:space="preserve">
<g id="Sky">
</g>
<g id="Clouds">
</g>
<g id="Button">
</g>
<g id="B_1">
</g>
<g id="B2">
</g>
<g id="B3">
</g>
<g id="B4">
</g>
<g id="B5">
</g>
<g id="B6">
</g>
<g id="B7">
</g>
<g id="B8">
</g>
<g id="B9">
</g>
<g id="B10">
</g>
<g id="B11">
</g>
<g id="B12">
</g>
<g id="B13">
</g>
<g id="B14">
</g>
<g id="B15">
</g>
<g id="Head">
</g>
<g id="B16">
	<path fill="#A7A6F6" d="M162.9,151.7c-32.1,26.9-101.7,41.1-128.6,9S33.4,62.5,65.5,35.6s79.9-22.7,106.8,9.3
		S195,124.8,162.9,151.7z"/>
	<polygon fill="#A099E9" points="38.2,157.4 17.7,160.3 31.8,177.1 	"/>
	<path fill="#A099E9" d="M162.9,151.7c29.2-24.5,35.3-66.3,15.8-97.8l0,0c0,0,36.4,110-121,121.8C90.3,185.8,138,172.6,162.9,151.7z
		"/>
	<path fill="#BEBEFC" d="M82.3,53C62.1,67.6,51,86.7,45.7,79.5c-5.3-7.3,6.8-25,27-39.7s40.8-20.6,46.1-13.3S102.4,38.3,82.3,53z"/>
	<g>
		<rect x="17.9" y="89.8" fill="none" width="180.8" height="53.9"/>
		<text transform="matrix(1 0 0 1 29.8676 105.912)"><tspan x="0" y="0" fill="#252835" font-family="'CirceRounded-Regular'" font-size="23">Компьютерные</tspan><tspan x="54" y="27.6" fill="#252835" font-family="'CirceRounded-Regular'" font-size="23">игры</tspan></text>
	</g>
</g>
<g id="B17">
</g>
<g id="B18">
</g>
<g id="B19">
</g>
<g id="B20">
</g>
<g id="B21">
</g>
<g id="B22">
</g>
<g id="B23">
</g>
<g id="B24">
</g>
<g id="B25">
</g>
<g id="B26">
</g>
<g id="B27">
</g>
<g id="B28">
</g>
<g id="B29">
</g>
<g id="B30">
</g>
<g id="B31">
</g>
<g id="B32">
</g>
<g id="B33">
</g>
</svg>
