<?xml version="1.0" encoding="utf-8"?>
<!-- Generator: Adobe Illustrator 17.1.0, SVG Export Plug-In . SVG Version: 6.00 Build 0)  -->
<!DOCTYPE svg PUBLIC "-//W3C//DTD SVG 1.1//EN" "http://www.w3.org/Graphics/SVG/1.1/DTD/svg11.dtd">
<svg version="1.1" xmlns="http://www.w3.org/2000/svg" xmlns:xlink="http://www.w3.org/1999/xlink" x="0px" y="0px"
	 viewBox="0 0 254.4 190.5" enable-background="new 0 0 254.4 190.5" xml:space="preserve">
<g id="Sky">
</g>
<g id="Clouds">
</g>
<g id="Button">
</g>
<g id="B_1">
</g>
<g id="B2">
</g>
<g id="B3">
</g>
<g id="B4">
</g>
<g id="B5">
</g>
<g id="B6">
</g>
<g id="B7">
</g>
<g id="B8">
</g>
<g id="B9">
</g>
<g id="B10">
</g>
<g id="B11">
</g>
<g id="B12">
</g>
<g id="B13">
</g>
<g id="B14">
</g>
<g id="B15">
</g>
<g id="Head">
</g>
<g id="B16">
</g>
<g id="B17">
	<path fill="#75AEB9" d="M182.8,142.7c-32.7,27.4-103.6,41.8-131,9.2S50.9,51.9,83.6,24.5S164.9,1.3,192.4,34
		S215.5,115.3,182.8,142.7z"/>
	<polygon fill="#4E9DA3" points="55.8,148.6 34.9,151.5 49.3,168.7 	"/>
	<path fill="#4E9DA3" d="M182.8,142.7c29.7-25,35.9-67.6,16.1-99.7l0,0c0,0,37.1,112.1-123.2,124C108.9,177.5,157.5,164,182.8,142.7
		z"/>
	<g>
		<rect x="48.6" y="88.5" fill="none" width="153" height="30.9"/>
		<text transform="matrix(1 0 0 1 48.6204 104.5547)" fill="#252835" font-family="'CirceRounded-Regular'" font-size="23">Строительств</text>
	</g>
	<path fill="#91BEC7" d="M101.7,37.7c-17.1,11-26.9,26.3-31,19.9c-4.1-6.4,6.5-20.5,23.6-31.5s34.4-14.7,38.5-8.3
		C136.9,24.2,118.9,26.7,101.7,37.7z"/>
</g>
<g id="B18">
</g>
<g id="B19">
</g>
<g id="B20">
</g>
<g id="B21">
</g>
<g id="B22">
</g>
<g id="B23">
</g>
<g id="B24">
</g>
<g id="B25">
</g>
<g id="B26">
</g>
<g id="B27">
</g>
<g id="B28">
</g>
<g id="B29">
</g>
<g id="B30">
</g>
<g id="B31">
</g>
<g id="B32">
</g>
<g id="B33">
</g>
</svg>
