<?xml version="1.0" encoding="utf-8"?>
<!-- Generator: Adobe Illustrator 22.1.0, SVG Export Plug-In . SVG Version: 6.00 Build 0)  -->
<svg version="1.1" id="Слой_1" xmlns="http://www.w3.org/2000/svg" xmlns:xlink="http://www.w3.org/1999/xlink" x="0px" y="0px"
	 viewBox="0 0 115 130" style="enable-background:new 0 0 115 130;" xml:space="preserve">
<style type="text/css">
	.st0{fill:#96CD7C;}
	.st1{fill:#9AD17D;}
	.st2{fill:#84CB66;}
	.st3{fill:none;}
	.st4{enable-background:new    ;}
	.st5{fill:#252835;}
	.st6{fill:#ABD796;}
</style>
<g id="Sky">
</g>
<g id="Clouds">
</g>
<g id="Button">
</g>
<g id="B_1">
</g>
<g id="B2">
</g>
<g id="B3">
</g>
<g id="B4">
</g>
<g id="B5">
</g>
<g id="B6">
</g>
<g id="B7">
</g>
<g id="B8">
</g>
<g id="B9">
</g>
<g id="B10">
</g>
<g id="B11">
</g>
<g id="B12">
</g>
<g id="B13">
	<path class="st0" d="M99.4,90.7c-17.5,21.4-61,39.1-82.3,21.7S4.5,48.8,22,27.4s49-24.6,70.4-7.1S116.9,69.3,99.4,90.7z"/>
	<polygon class="st1" points="19.2,109.7 6.2,114.1 17.4,123.3 	"/>
	<path class="st2" d="M99.4,90.7c15.9-19.5,14.7-47.4-1.8-65.4l0,0c0,0,37.1,66.9-63.5,93.9C56.5,121.8,85.8,107.3,99.4,90.7z"/>
	<g>
		<rect x="33.2" y="58.7" class="st3" width="43.8" height="30.9"/>
		<g class="st4">
			<path class="st5" d="M41.5,67.6V73h6.5c0.2,0,0.5,0.1,0.6,0.3c0.2,0.2,0.3,0.4,0.3,0.6s-0.1,0.5-0.3,0.6
				c-0.2,0.2-0.4,0.3-0.6,0.3h-7.5c-0.3,0-0.5-0.1-0.7-0.3c-0.2-0.2-0.3-0.4-0.3-0.7V59.7c0-0.3,0.1-0.5,0.3-0.7
				c0.2-0.2,0.4-0.3,0.7-0.3h7.2c0.2,0,0.5,0.1,0.6,0.3c0.2,0.2,0.3,0.4,0.3,0.6s-0.1,0.5-0.3,0.6c-0.2,0.2-0.4,0.3-0.6,0.3h-6.2
				v5.2H47c0.2,0,0.5,0.1,0.6,0.3c0.2,0.2,0.3,0.4,0.3,0.6s-0.1,0.5-0.3,0.6s-0.4,0.3-0.6,0.3H41.5z"/>
			<path class="st5" d="M60.6,74.8h-8.4v1.7c0,0.2-0.1,0.5-0.3,0.6c-0.2,0.2-0.4,0.3-0.6,0.3c-0.2,0-0.5-0.1-0.6-0.3
				c-0.2-0.2-0.3-0.4-0.3-0.6V74c0-0.2,0.1-0.5,0.3-0.6c0.2-0.2,0.4-0.3,0.6-0.3h0.4c0.4-0.5,0.7-1.2,1-2.3c0.3-1.1,0.5-2.3,0.6-3.6
				l0.1-1.9c0-0.2,0.1-0.5,0.3-0.6s0.4-0.3,0.6-0.3h5.3c0.2,0,0.5,0.1,0.6,0.3c0.2,0.2,0.3,0.4,0.3,0.6v7.8h0.9
				c0.2,0,0.5,0.1,0.6,0.3s0.3,0.4,0.3,0.6v2.5c0,0.2-0.1,0.5-0.3,0.6c-0.2,0.2-0.4,0.3-0.6,0.3c-0.2,0-0.5-0.1-0.6-0.3
				c-0.2-0.2-0.3-0.4-0.3-0.6V74.8z M53.8,73.1h5v-6.9h-3.5l-0.1,1.7c-0.1,1.2-0.3,2.2-0.6,3.2C54.4,72,54.1,72.7,53.8,73.1z"/>
			<path class="st5" d="M63.5,71.8c0-1,0.4-1.8,1.1-2.4c0.7-0.6,1.7-0.9,2.8-0.9c1.1,0,1.9,0.2,2.6,0.7c0-1.2-0.2-2-0.5-2.5
				c-0.3-0.5-0.9-0.8-1.9-0.8c-0.7,0-1.4,0.1-2.1,0.4c-0.1,0-0.2,0.1-0.3,0.1c-0.3,0-0.6-0.2-0.7-0.5c0-0.1-0.1-0.2-0.1-0.3
				c0-0.4,0.2-0.6,0.5-0.7c1-0.4,1.9-0.6,2.9-0.6c1.4,0,2.4,0.3,3,1c0.6,0.7,0.9,1.8,0.9,3.2v5.7c0,0.2-0.1,0.4-0.3,0.6
				c-0.2,0.2-0.4,0.2-0.6,0.2s-0.5-0.1-0.6-0.2c-0.2-0.2-0.3-0.3-0.3-0.6v-0.7c-0.8,1-1.9,1.5-3.3,1.5c-1,0-1.7-0.3-2.3-0.9
				C63.8,73.5,63.5,72.7,63.5,71.8z M70,72v-1.3c-0.6-0.5-1.4-0.7-2.3-0.7c-0.6,0-1.2,0.1-1.6,0.4c-0.4,0.3-0.6,0.7-0.6,1.3
				c0,0.5,0.2,0.9,0.5,1.2c0.3,0.3,0.8,0.4,1.4,0.4C68.4,73.3,69.2,72.9,70,72z"/>
		</g>
	</g>
	<path class="st6" d="M43.8,29.5c-12.5,7.1-19.6,18.3-22.7,12.9s4.6-15.6,17.1-22.7s25.2-8.5,28.3-3S56.3,22.4,43.8,29.5z"/>
</g>
<g id="B14">
</g>
<g id="B15">
</g>
<g id="Head">
</g>
<g id="B16">
</g>
<g id="B17">
</g>
<g id="B18">
</g>
<g id="B19">
</g>
<g id="B20">
</g>
<g id="B21">
</g>
<g id="B22">
</g>
<g id="B23">
</g>
<g id="B24">
</g>
<g id="B25">
</g>
<g id="B26">
</g>
<g id="B27">
</g>
<g id="B28">
</g>
<g id="B29">
</g>
<g id="B30">
</g>
<g id="B31">
</g>
<g id="B32">
</g>
<g id="B33">
</g>
</svg>
