<?xml version="1.0" encoding="utf-8"?>
<!-- Generator: Adobe Illustrator 17.1.0, SVG Export Plug-In . SVG Version: 6.00 Build 0)  -->
<!DOCTYPE svg PUBLIC "-//W3C//DTD SVG 1.1//EN" "http://www.w3.org/Graphics/SVG/1.1/DTD/svg11.dtd">
<svg version="1.1" xmlns="http://www.w3.org/2000/svg" xmlns:xlink="http://www.w3.org/1999/xlink" x="0px" y="0px"
	 viewBox="0 0 273 240" enable-background="new 0 0 273 240" xml:space="preserve">
<g id="Sky">
</g>
<g id="Clouds">
</g>
<g id="Button">
</g>
<g id="B_1">
</g>
<g id="B2">
</g>
<g id="B3">
</g>
<g id="B4">
</g>
<g id="B5">
</g>
<g id="B6">
</g>
<g id="B7">
</g>
<g id="B8">
</g>
<g id="B9">
</g>
<g id="B10">
</g>
<g id="B11">
</g>
<g id="B12">
</g>
<g id="B13">
</g>
<g id="B14">
</g>
<g id="B15">
</g>
<g id="Head">
</g>
<g id="B16">
</g>
<g id="B17">
</g>
<g id="B18">
</g>
<g id="B19">
</g>
<g id="B20">
</g>
<g id="B21">
</g>
<g id="B22">
</g>
<g id="B23">
</g>
<g id="B24">
</g>
<g id="B25">
</g>
<g id="B26">
</g>
<g id="B27">
</g>
<g id="B28">
</g>
<g id="B29">
</g>
<g id="B30">
</g>
<g id="B31">
</g>
<g id="B32">
</g>
<g id="B33">
	<path fill="#FFDF57" d="M210.3,180.3c-36.4,30.5-115.4,46.6-145.9,10.2s-1-111.4,35.4-141.9s90.6-25.8,121.1,10.6
		S246.7,149.8,210.3,180.3z"/>
	<polygon fill="#E9CA25" points="68.9,186.8 45.6,190.1 61.6,209.2 	"/>
	<path fill="#E9CA25" d="M210.3,180.3c33.1-27.8,40-75.2,17.9-111l0,0c0,0,41.3,124.8-137.2,138.1C128,219,182,204.1,210.3,180.3z"
		/>
	<path fill="#F9E698" d="M118.8,68.4C96,85,83.4,106.7,77.4,98.4c-6-8.3,7.7-28.4,30.6-45s46.3-23.4,52.3-15.1
		S141.7,51.8,118.8,68.4z"/>
	<g>
		<rect x="64.6" y="111.5" fill="none" width="183.8" height="30.9"/>
		<text transform="matrix(1 0 0 1 64.6279 127.6472)" fill="#252835" font-family="'CirceRounded-Regular'" font-size="23">Юриспруденция</text>
	</g>
</g>
</svg>
