<?xml version="1.0" encoding="utf-8"?>
<!-- Generator: Adobe Illustrator 22.1.0, SVG Export Plug-In . SVG Version: 6.00 Build 0)  -->
<svg version="1.1" id="Слой_1" xmlns="http://www.w3.org/2000/svg" xmlns:xlink="http://www.w3.org/1999/xlink" x="0px" y="0px"
	 viewBox="0 0 149.9 144" style="enable-background:new 0 0 149.9 144;" xml:space="preserve">
<style type="text/css">
	.st0{fill:#FFDF57;}
	.st1{fill:#EDD262;}
	.st2{fill:#E9CA25;}
	.st3{fill:#F9E698;}
	.st4{fill:none;}
	.st5{enable-background:new    ;}
	.st6{fill:#252835;}
</style>
<g id="Sky">
</g>
<g id="Clouds">
</g>
<g id="Button">
</g>
<g id="B_1">
</g>
<g id="B2">
</g>
<g id="B3">
</g>
<g id="B4">
</g>
<g id="B5">
</g>
<g id="B6">
</g>
<g id="B7">
</g>
<g id="B8">
</g>
<g id="B9">
</g>
<g id="B10">
</g>
<g id="B11">
</g>
<g id="B12">
</g>
<g id="B13">
</g>
<g id="B14">
</g>
<g id="B15">
</g>
<g id="Head">
</g>
<g id="B16">
</g>
<g id="B17">
</g>
<g id="B18">
</g>
<g id="B19">
</g>
<g id="B20">
</g>
<g id="B21">
</g>
<g id="B22">
</g>
<g id="B23">
</g>
<g id="B24">
</g>
<g id="B25">
</g>
<g id="B26">
</g>
<g id="B27">
</g>
<g id="B28">
	<path class="st0" d="M121.6,116.4c-26.8,22.5-85.2,34.4-107.7,7.6S13.2,41.7,40,19.2s66.8-19,89.4,7.8S148.4,93.9,121.6,116.4z"/>
	<polygon class="st1" points="17.2,121.2 0,123.6 11.8,137.7 	"/>
	<path class="st2" d="M121.6,116.4c24.4-20.5,29.5-55.5,13.2-81.9l0,0c0,0,30.5,92.1-101.3,101.9
		C60.8,144.9,100.7,133.9,121.6,116.4z"/>
	<path class="st3" d="M54.9,30.1c-14.1,9-22.1,21.6-25.5,16.3s5.3-16.8,19.4-25.9S77,8.4,80.4,13.7S69,21,54.9,30.1z"/>
	<g>
		<rect x="15.7" y="67.7" class="st4" width="124" height="30.9"/>
		<g class="st5">
			<path class="st6" d="M19.1,67.7h10.7c0.3,0,0.5,0.1,0.7,0.3c0.2,0.2,0.3,0.4,0.3,0.7V83c0,0.3-0.1,0.5-0.3,0.7
				c-0.2,0.2-0.4,0.3-0.7,0.3c-0.3,0-0.5-0.1-0.7-0.3c-0.2-0.2-0.3-0.4-0.3-0.7V69.6h-8.7V83c0,0.3-0.1,0.5-0.3,0.7
				c-0.2,0.2-0.4,0.3-0.7,0.3c-0.3,0-0.5-0.1-0.7-0.3c-0.2-0.2-0.3-0.4-0.3-0.7V68.7c0-0.3,0.1-0.5,0.3-0.7
				C18.6,67.8,18.8,67.7,19.1,67.7z"/>
			<path class="st6" d="M44.3,78c0,0.3,0,0.4,0,0.5c0,0.2-0.1,0.4-0.3,0.5c-0.2,0.2-0.3,0.2-0.5,0.2h-7.3c0.1,1,0.4,1.7,1.1,2.3
				s1.5,0.8,2.5,0.8c1,0,1.8-0.2,2.5-0.6c0.2-0.1,0.3-0.1,0.5-0.1c0.2,0,0.4,0.1,0.6,0.3c0.1,0.1,0.1,0.2,0.1,0.4
				c0,0.3-0.1,0.5-0.3,0.6C42.3,83.7,41,84,39.7,84c-1.7,0-3-0.5-4-1.5c-1-1-1.5-2.3-1.5-3.9c0-1.5,0.5-2.8,1.4-3.9
				c1-1,2.3-1.5,3.9-1.5c1.4,0,2.5,0.4,3.4,1.3C43.8,75.4,44.3,76.6,44.3,78z M36.1,77.7h6.3c0-0.9-0.3-1.5-0.9-2
				C41,75.2,40.3,75,39.4,75c-0.9,0-1.7,0.3-2.2,0.8S36.2,76.9,36.1,77.7z"/>
			<path class="st6" d="M55.2,83.8h-8.4v1.7c0,0.2-0.1,0.5-0.3,0.6c-0.2,0.2-0.4,0.3-0.6,0.3c-0.2,0-0.5-0.1-0.6-0.3
				c-0.2-0.2-0.3-0.4-0.3-0.6V83c0-0.2,0.1-0.5,0.3-0.6c0.2-0.2,0.4-0.3,0.6-0.3h0.4c0.4-0.5,0.7-1.2,1-2.3c0.3-1.1,0.5-2.3,0.6-3.6
				l0.1-1.9c0-0.2,0.1-0.5,0.3-0.6s0.4-0.3,0.6-0.3h5.3c0.2,0,0.5,0.1,0.6,0.3c0.2,0.2,0.3,0.4,0.3,0.6v7.8H56
				c0.2,0,0.5,0.1,0.6,0.3s0.3,0.4,0.3,0.6v2.5c0,0.2-0.1,0.5-0.3,0.6c-0.2,0.2-0.4,0.3-0.6,0.3c-0.2,0-0.5-0.1-0.6-0.3
				c-0.2-0.2-0.3-0.4-0.3-0.6V83.8z M48.3,82.1h5v-6.9h-3.5l-0.1,1.7c-0.1,1.2-0.3,2.2-0.6,3.2C48.9,81,48.6,81.7,48.3,82.1z"/>
			<path class="st6" d="M58,80.8c0-1,0.4-1.8,1.1-2.4c0.7-0.6,1.7-0.9,2.8-0.9c1.1,0,1.9,0.2,2.6,0.7c0-1.2-0.2-2-0.5-2.5
				c-0.3-0.5-0.9-0.8-1.9-0.8c-0.7,0-1.4,0.1-2.1,0.4c-0.1,0-0.2,0.1-0.3,0.1c-0.3,0-0.6-0.2-0.7-0.5c0-0.1-0.1-0.2-0.1-0.3
				c0-0.4,0.2-0.6,0.5-0.7c1-0.4,1.9-0.6,2.9-0.6c1.4,0,2.4,0.3,3,1c0.6,0.7,0.9,1.8,0.9,3.2v5.7c0,0.2-0.1,0.4-0.3,0.6
				c-0.2,0.2-0.4,0.2-0.6,0.2s-0.5-0.1-0.6-0.2c-0.2-0.2-0.3-0.3-0.3-0.6v-0.7c-0.8,1-1.9,1.5-3.3,1.5c-1,0-1.7-0.3-2.3-0.9
				C58.3,82.5,58,81.8,58,80.8z M64.5,81v-1.3c-0.6-0.5-1.4-0.7-2.3-0.7c-0.6,0-1.2,0.1-1.6,0.4c-0.4,0.3-0.6,0.7-0.6,1.3
				c0,0.5,0.2,0.9,0.5,1.2c0.3,0.3,0.8,0.4,1.4,0.4C62.9,82.3,63.8,81.9,64.5,81z"/>
			<path class="st6" d="M75,75.2h-3.8v7.9c0,0.4-0.1,0.6-0.4,0.7c-0.3,0.1-0.6,0.1-1,0s-0.5-0.4-0.4-0.7v-8.8c0-0.2,0.1-0.5,0.3-0.6
				c0.2-0.2,0.4-0.3,0.6-0.3H75c0.2,0,0.5,0.1,0.6,0.3s0.3,0.4,0.3,0.6c0,0.2-0.1,0.5-0.3,0.6S75.3,75.2,75,75.2z"/>
			<path class="st6" d="M78.2,82.5c-1-1-1.5-2.3-1.5-3.9c0-1.6,0.5-2.9,1.5-3.9c1-1,2.3-1.5,4-1.5c1.6,0,3,0.5,4,1.5
				c1,1,1.5,2.3,1.5,3.9c0,1.6-0.5,2.9-1.5,3.9c-1,1-2.4,1.5-4,1.5S79.2,83.5,78.2,82.5z M78.6,78.6c0,1.1,0.3,2,1,2.6
				c0.7,0.7,1.5,1,2.6,1s1.9-0.3,2.6-1c0.7-0.7,1-1.6,1-2.7c0-1.1-0.3-2-1-2.6c-0.7-0.7-1.5-1-2.6-1c-1,0-1.9,0.3-2.6,1
				C78.9,76.7,78.6,77.5,78.6,78.6z"/>
			<path class="st6" d="M96,75.2h-3.8v7.9c0,0.4-0.1,0.6-0.4,0.7s-0.6,0.1-1,0s-0.5-0.4-0.4-0.7v-8.8c0-0.2,0.1-0.5,0.3-0.6
				c0.2-0.2,0.4-0.3,0.6-0.3H96c0.2,0,0.5,0.1,0.6,0.3c0.2,0.2,0.3,0.4,0.3,0.6c0,0.2-0.1,0.5-0.3,0.6C96.4,75.1,96.2,75.2,96,75.2z
				"/>
			<path class="st6" d="M108.3,74.3v8.8c0,0.4-0.1,0.6-0.4,0.7s-0.6,0.1-1,0c-0.3-0.1-0.5-0.4-0.4-0.7v-6.8l-5.6,6.9
				c-0.5,0.6-0.9,0.8-1.3,0.8c-0.3,0-0.5-0.1-0.7-0.3c-0.2-0.2-0.3-0.4-0.3-0.6v-8.8c0-0.4,0.1-0.6,0.4-0.7c0.3-0.1,0.6-0.1,1,0
				c0.3,0.1,0.5,0.4,0.4,0.7v6.9l5.6-6.9c0.5-0.6,0.9-0.9,1.3-0.9c0.3,0,0.5,0.1,0.7,0.3C108.2,73.8,108.3,74,108.3,74.3z"/>
			<path class="st6" d="M113.5,74.2v8.9c0,0.4-0.1,0.6-0.4,0.7s-0.6,0.1-1,0s-0.5-0.4-0.4-0.7v-8.9c0-0.4,0.1-0.6,0.4-0.7
				c0.3-0.1,0.6-0.1,1,0C113.3,73.6,113.5,73.9,113.5,74.2z M118.3,83.5l-3.8-4.3c-0.2-0.2-0.2-0.4-0.2-0.7c0-0.3,0.1-0.5,0.2-0.6
				l3.5-4c0.3-0.3,0.5-0.5,0.9-0.5c0.3,0,0.5,0.1,0.7,0.3c0.2,0.2,0.2,0.4,0.2,0.6c0,0.2-0.1,0.4-0.2,0.6l-3.3,3.6l3.7,4
				c0.2,0.2,0.3,0.4,0.3,0.7c0,0.2-0.1,0.5-0.3,0.6c-0.2,0.2-0.4,0.3-0.7,0.3C118.8,84,118.5,83.8,118.3,83.5z"/>
			<path class="st6" d="M122,80.8c0-1,0.4-1.8,1.1-2.4c0.7-0.6,1.7-0.9,2.8-0.9c1.1,0,1.9,0.2,2.6,0.7c0-1.2-0.2-2-0.5-2.5
				c-0.3-0.5-0.9-0.8-1.9-0.8c-0.7,0-1.4,0.1-2.1,0.4c-0.1,0-0.2,0.1-0.3,0.1c-0.3,0-0.6-0.2-0.7-0.5c0-0.1-0.1-0.2-0.1-0.3
				c0-0.4,0.2-0.6,0.5-0.7c1-0.4,1.9-0.6,2.9-0.6c1.4,0,2.4,0.3,3,1c0.6,0.7,0.9,1.8,0.9,3.2v5.7c0,0.2-0.1,0.4-0.3,0.6
				c-0.2,0.2-0.4,0.2-0.6,0.2s-0.5-0.1-0.6-0.2c-0.2-0.2-0.3-0.3-0.3-0.6v-0.7c-0.8,1-1.9,1.5-3.3,1.5c-1,0-1.7-0.3-2.3-0.9
				C122.3,82.5,122,81.8,122,80.8z M128.4,81v-1.3c-0.6-0.5-1.4-0.7-2.3-0.7c-0.6,0-1.2,0.1-1.6,0.4c-0.4,0.3-0.6,0.7-0.6,1.3
				c0,0.5,0.2,0.9,0.5,1.2s0.8,0.4,1.4,0.4C126.8,82.3,127.7,81.9,128.4,81z"/>
		</g>
	</g>
</g>
<g id="B29">
</g>
<g id="B30">
</g>
<g id="B31">
</g>
<g id="B32">
</g>
<g id="B33">
</g>
</svg>
