<?xml version="1.0" encoding="utf-8"?>
<!-- Generator: Adobe Illustrator 22.1.0, SVG Export Plug-In . SVG Version: 6.00 Build 0)  -->
<svg version="1.1" id="Слой_1" xmlns="http://www.w3.org/2000/svg" xmlns:xlink="http://www.w3.org/1999/xlink" x="0px" y="0px"
	 viewBox="0 0 164 173.2" style="enable-background:new 0 0 164 173.2;" xml:space="preserve">
<style type="text/css">
	.st0{fill:#FFDF57;}
	.st1{fill:#E9CA25;}
	.st2{fill:#F9E698;}
	.st3{fill:none;}
	.st4{enable-background:new    ;}
	.st5{fill:#313547;}
</style>
<g id="Sky">
</g>
<g id="Cluds">
</g>
<g id="Button">
</g>
<g id="Bubble1">
</g>
<g id="Bubble2">
</g>
<g id="B1">
</g>
<g id="B2">
	<g>
		<path class="st0" d="M141.1,123.8c-23.9,30.1-83.9,55.8-114.1,31.9S8.1,67.5,31.9,37.3S99.6,2.1,129.7,26S165,93.6,141.1,123.8z"
			/>
		<polygon class="st1" points="29.9,152 12,158.4 27.8,170.9 		"/>
		<path class="st2" d="M61.6,42.9C43,53.5,32.5,70.1,27.9,62s6.8-23.2,25.4-33.8s37.4-12.6,42-4.5C99.9,31.9,80.2,32.3,61.6,42.9z"
			/>
		<path class="st1" d="M48.2,164.4C178.3,138,139,34.8,139,34.8s37.3,40.5,2.1,89S48.2,164.4,48.2,164.4z"/>
	</g>
	<g>
		<rect x="13.5" y="84.3" class="st3" width="139.9" height="30.9"/>
		<g class="st4">
			<path class="st5" d="M17.9,93.1v5.4h6.5c0.2,0,0.5,0.1,0.6,0.3c0.2,0.2,0.3,0.4,0.3,0.6s-0.1,0.5-0.3,0.6
				c-0.2,0.2-0.4,0.3-0.6,0.3h-7.5c-0.3,0-0.5-0.1-0.7-0.3c-0.2-0.2-0.3-0.4-0.3-0.7V85.2c0-0.3,0.1-0.5,0.3-0.7
				c0.2-0.2,0.4-0.3,0.7-0.3h7.2c0.2,0,0.5,0.1,0.6,0.3c0.2,0.2,0.3,0.4,0.3,0.6s-0.1,0.5-0.3,0.6c-0.2,0.2-0.4,0.3-0.6,0.3h-6.2
				v5.2h5.5c0.2,0,0.5,0.1,0.6,0.3c0.2,0.2,0.3,0.4,0.3,0.6s-0.1,0.5-0.3,0.6s-0.4,0.3-0.6,0.3H17.9z"/>
			<path class="st5" d="M35.5,92.1c-0.8-0.4-1.5-0.6-2.3-0.6c-1,0-1.8,0.3-2.5,1c-0.7,0.7-1.1,1.6-1.1,2.6c0,1.1,0.4,2,1.1,2.7
				s1.6,1,2.6,1c0.9,0,1.6-0.2,2.2-0.7c0.2-0.2,0.5-0.3,0.7-0.3c0.2,0,0.4,0.1,0.5,0.2c0.2,0.2,0.3,0.4,0.3,0.6
				c0,0.3-0.1,0.5-0.3,0.6c-1,0.9-2.2,1.3-3.6,1.3c-1.6,0-3-0.5-4-1.5c-1-1-1.5-2.3-1.5-3.9c0-1.5,0.5-2.8,1.5-3.8
				c1-1,2.2-1.6,3.7-1.6c1.3,0,2.4,0.3,3.4,0.8c0.3,0.2,0.5,0.4,0.5,0.8c0,0.2,0,0.3-0.1,0.4c-0.2,0.3-0.4,0.4-0.8,0.4
				C35.7,92.2,35.6,92.2,35.5,92.1z"/>
			<path class="st5" d="M43.5,91.8v7.8c0,0.4-0.1,0.6-0.4,0.7c-0.3,0.1-0.6,0.1-1,0c-0.3-0.1-0.5-0.4-0.4-0.7v-7.8h-2.9
				c-0.4,0-0.6-0.1-0.7-0.4c-0.1-0.3-0.1-0.6,0-1c0.1-0.3,0.4-0.5,0.7-0.4h7.7c0.4,0,0.6,0.1,0.7,0.4c0.1,0.3,0.1,0.6,0,1
				c-0.1,0.3-0.4,0.5-0.7,0.4H43.5z"/>
			<path class="st5" d="M58.4,94.5c0,0.3,0,0.4,0,0.5c0,0.2-0.1,0.4-0.3,0.5c-0.2,0.2-0.3,0.2-0.5,0.2h-7.3c0.1,1,0.4,1.7,1.1,2.3
				s1.5,0.8,2.5,0.8c1,0,1.8-0.2,2.5-0.6c0.2-0.1,0.3-0.1,0.5-0.1c0.2,0,0.4,0.1,0.6,0.3c0.1,0.1,0.1,0.2,0.1,0.4
				c0,0.3-0.1,0.5-0.3,0.6c-1.1,0.8-2.3,1.2-3.7,1.2c-1.7,0-3-0.5-4-1.5c-1-1-1.5-2.3-1.5-3.9c0-1.5,0.5-2.8,1.4-3.9
				c1-1,2.3-1.5,3.9-1.5c1.4,0,2.5,0.4,3.4,1.3C58,92,58.4,93.1,58.4,94.5z M50.3,94.3h6.3c0-0.9-0.3-1.5-0.9-2
				c-0.5-0.5-1.2-0.7-2.1-0.7c-0.9,0-1.7,0.3-2.2,0.8S50.4,93.4,50.3,94.3z"/>
			<path class="st5" d="M68,92.1c-0.8-0.4-1.5-0.6-2.3-0.6c-1,0-1.8,0.3-2.5,1c-0.7,0.7-1.1,1.6-1.1,2.6c0,1.1,0.4,2,1.1,2.7
				s1.6,1,2.6,1c0.9,0,1.6-0.2,2.2-0.7c0.2-0.2,0.5-0.3,0.7-0.3c0.2,0,0.4,0.1,0.5,0.2c0.2,0.2,0.3,0.4,0.3,0.6
				c0,0.3-0.1,0.5-0.3,0.6c-1,0.9-2.2,1.3-3.6,1.3c-1.6,0-3-0.5-4-1.5c-1-1-1.5-2.3-1.5-3.9c0-1.5,0.5-2.8,1.5-3.8
				c1-1,2.2-1.6,3.7-1.6c1.3,0,2.4,0.3,3.4,0.8c0.3,0.2,0.5,0.4,0.5,0.8c0,0.2,0,0.3-0.1,0.4c-0.2,0.3-0.4,0.4-0.8,0.4
				C68.3,92.2,68.1,92.2,68,92.1z"/>
			<path class="st5" d="M76.1,91.8v7.8c0,0.4-0.1,0.6-0.4,0.7c-0.3,0.1-0.6,0.1-1,0c-0.3-0.1-0.5-0.4-0.4-0.7v-7.8h-2.9
				c-0.4,0-0.6-0.1-0.7-0.4c-0.1-0.3-0.1-0.6,0-1c0.1-0.3,0.4-0.5,0.7-0.4H79c0.4,0,0.6,0.1,0.7,0.4s0.1,0.6,0,1
				c-0.1,0.3-0.4,0.5-0.7,0.4H76.1z"/>
			<path class="st5" d="M90.1,92.6c0,0.6-0.2,1.1-0.6,1.6c-0.4,0.4-0.9,0.7-1.5,0.8c1.6,0.3,2.4,1.1,2.4,2.5c0,2-1.6,3-4.8,3
				c-0.2,0-1.1,0-2.9-0.1c-0.2,0-0.5-0.1-0.6-0.3c-0.2-0.2-0.3-0.4-0.3-0.6v-8.6c0-0.2,0.1-0.5,0.3-0.6c0.2-0.2,0.4-0.3,0.6-0.3
				c1.7,0,2.6-0.1,2.9-0.1C88.6,89.9,90.1,90.8,90.1,92.6z M83.7,91.5v3.1H86c0.6,0,1.1-0.1,1.5-0.4c0.4-0.3,0.6-0.7,0.6-1.2
				c0-1-0.8-1.5-2.4-1.5C85.3,91.4,84.6,91.4,83.7,91.5z M85.9,95.7h-2.2v3.2c1.1,0,1.8,0.1,2.1,0.1c1.8,0,2.6-0.6,2.6-1.7
				C88.5,96.2,87.6,95.7,85.9,95.7z"/>
			<path class="st5" d="M102.7,94.5c0,0.3,0,0.4,0,0.5c0,0.2-0.1,0.4-0.3,0.5c-0.2,0.2-0.3,0.2-0.5,0.2h-7.3c0.1,1,0.4,1.7,1.1,2.3
				c0.7,0.6,1.5,0.8,2.5,0.8c1,0,1.8-0.2,2.5-0.6c0.2-0.1,0.3-0.1,0.5-0.1c0.2,0,0.4,0.1,0.6,0.3c0.1,0.1,0.1,0.2,0.1,0.4
				c0,0.3-0.1,0.5-0.3,0.6c-1.1,0.8-2.3,1.2-3.7,1.2c-1.7,0-3-0.5-4-1.5c-1-1-1.5-2.3-1.5-3.9c0-1.5,0.5-2.8,1.4-3.9
				c1-1,2.3-1.5,3.9-1.5c1.4,0,2.5,0.4,3.4,1.3C102.2,92,102.7,93.1,102.7,94.5z M94.5,94.3h6.3c0-0.9-0.3-1.5-0.9-2
				c-0.5-0.5-1.2-0.7-2.1-0.7c-0.9,0-1.7,0.3-2.2,0.8C95,92.8,94.6,93.4,94.5,94.3z"/>
			<path class="st5" d="M114.8,90.8v8.9c0,0.4-0.1,0.6-0.4,0.7s-0.6,0.1-1,0c-0.3-0.1-0.5-0.4-0.4-0.7V96h-5.8v3.7
				c0,0.4-0.1,0.6-0.4,0.7c-0.3,0.1-0.6,0.1-1,0c-0.3-0.1-0.5-0.4-0.4-0.7v-8.9c0-0.4,0.1-0.6,0.4-0.7c0.3-0.1,0.6-0.1,1,0
				c0.3,0.1,0.5,0.4,0.4,0.7v3.5h5.8v-3.5c0-0.4,0.1-0.6,0.4-0.7c0.3-0.1,0.6-0.1,1,0C114.6,90.2,114.8,90.4,114.8,90.8z"/>
			<path class="st5" d="M127.5,90.8v8.9c0,0.4-0.1,0.6-0.4,0.7c-0.3,0.1-0.6,0.1-1,0s-0.5-0.4-0.4-0.7V96h-5.8v3.7
				c0,0.4-0.1,0.6-0.4,0.7s-0.6,0.1-1,0s-0.5-0.4-0.4-0.7v-8.9c0-0.4,0.1-0.6,0.4-0.7c0.3-0.1,0.6-0.1,1,0c0.3,0.1,0.5,0.4,0.4,0.7
				v3.5h5.8v-3.5c0-0.4,0.1-0.6,0.4-0.7c0.3-0.1,0.6-0.1,1,0C127.4,90.2,127.5,90.4,127.5,90.8z"/>
			<path class="st5" d="M130.1,97.3c0-1,0.4-1.8,1.1-2.4c0.7-0.6,1.7-0.9,2.8-0.9c1.1,0,1.9,0.2,2.6,0.7c0-1.2-0.2-2-0.5-2.5
				c-0.3-0.5-0.9-0.8-1.9-0.8c-0.7,0-1.4,0.1-2.1,0.4c-0.1,0-0.2,0.1-0.3,0.1c-0.3,0-0.6-0.2-0.7-0.5c0-0.1-0.1-0.2-0.1-0.3
				c0-0.4,0.2-0.6,0.5-0.7c1-0.4,1.9-0.6,2.9-0.6c1.4,0,2.4,0.3,3,1c0.6,0.7,0.9,1.8,0.9,3.2v5.7c0,0.2-0.1,0.4-0.3,0.6
				c-0.2,0.2-0.4,0.2-0.6,0.2s-0.5-0.1-0.6-0.2c-0.2-0.2-0.3-0.3-0.3-0.6V99c-0.8,1-1.9,1.5-3.3,1.5c-1,0-1.7-0.3-2.3-0.9
				C130.4,99.1,130.1,98.3,130.1,97.3z M136.6,97.5v-1.3c-0.6-0.5-1.4-0.7-2.3-0.7c-0.6,0-1.2,0.1-1.6,0.4c-0.4,0.3-0.6,0.7-0.6,1.3
				c0,0.5,0.2,0.9,0.5,1.2c0.3,0.3,0.8,0.4,1.4,0.4C134.9,98.9,135.8,98.4,136.6,97.5z"/>
			<path class="st5" d="M141.1,99l2-2.6c-0.6-0.1-1.2-0.5-1.6-1c-0.4-0.5-0.6-1.2-0.6-2c0-1.1,0.4-1.9,1.1-2.5
				c0.8-0.6,1.9-0.9,3.5-0.9h2.3c0.2,0,0.5,0.1,0.6,0.3s0.3,0.4,0.3,0.6v8.8c0,0.4-0.1,0.6-0.4,0.7c-0.3,0.1-0.6,0.1-1,0
				c-0.3-0.1-0.5-0.4-0.4-0.7v-2.7h-2l-2.3,3.1c-0.2,0.3-0.5,0.5-0.8,0.5c-0.3,0-0.5-0.1-0.7-0.2c-0.2-0.2-0.3-0.3-0.3-0.6
				C140.9,99.5,140.9,99.3,141.1,99z M144.7,95.2h2.1v-3.5h-1.7c-0.8,0-1.4,0.2-1.8,0.5c-0.4,0.3-0.6,0.8-0.6,1.3
				c0,0.5,0.2,0.9,0.6,1.2C143.8,95,144.2,95.2,144.7,95.2z"/>
		</g>
	</g>
</g>
<g id="B3">
</g>
</svg>
