<?xml version="1.0" encoding="utf-8"?>
<!-- Generator: Adobe Illustrator 22.1.0, SVG Export Plug-In . SVG Version: 6.00 Build 0)  -->
<svg version="1.1" id="Слой_1" xmlns="http://www.w3.org/2000/svg" xmlns:xlink="http://www.w3.org/1999/xlink" x="0px" y="0px"
	 viewBox="0 0 138 134" style="enable-background:new 0 0 138 134;" xml:space="preserve">
<style type="text/css">
	.st0{fill:#75AEB9;}
	.st1{fill:#4E9DA3;}
	.st2{fill:none;}
	.st3{enable-background:new    ;}
	.st4{fill:#252835;}
	.st5{fill:#91BEC7;}
</style>
<g id="Sky">
</g>
<g id="Clouds">
</g>
<g id="Button">
</g>
<g id="B1">
</g>
<g id="B2">
</g>
<g id="B3">
	<g>
		<path class="st0" d="M115.8,102.2c-21.9,21.7-72.2,36.3-93.9,14.4s-6.5-72.1,15.4-93.7s57.3-21.5,78.9,0.4S137.7,80.6,115.8,102.2
			z"/>
		<polygon class="st1" points="24.6,114 9.7,117.3 21.1,128.8 		"/>
		<path class="st1" d="M115.8,102.2c20-19.8,21.9-50.8,5.7-72.8l0,0c0,0,33.3,78.6-81.5,96.7C64.6,131.7,98.8,119.1,115.8,102.2z"/>
	</g>
	<g>
		
			<rect x="32.1" y="60.4" transform="matrix(0.9999 -1.647349e-02 1.647349e-02 0.9999 -1.2376 1.4674)" class="st2" width="112.7" height="30.9"/>
		<g class="st3">
			<path class="st4" d="M38.6,61.2c1.7,0,3.1,0.3,3.9,1c0.9,0.7,1.3,1.7,1.3,2.9c0,1.9-0.9,3.1-2.7,3.8c1,0.2,1.9,0.6,2.5,1.2
				c0.6,0.6,0.9,1.5,0.9,2.6c0,1.5-0.5,2.7-1.5,3.5s-2.4,1.2-4.3,1.3c-0.5,0-1.6,0-3.4,0c-0.3,0-0.5-0.1-0.7-0.3
				c-0.2-0.2-0.3-0.4-0.3-0.7l-0.2-14.1c0-0.3,0.1-0.5,0.3-0.7c0.2-0.2,0.4-0.3,0.7-0.3C37.2,61.2,38.3,61.2,38.6,61.2z M36.2,63.1
				l0.1,5.2l2.6,0c0.9,0,1.6-0.3,2.2-0.8c0.6-0.5,0.9-1.2,0.8-2c0-1.7-1.1-2.6-3.3-2.5C38.2,63,37.4,63.1,36.2,63.1z M38.9,70
				l-2.6,0l0.1,5.5c0.6,0.1,1.5,0.1,2.5,0.1c1.2,0,2.1-0.3,2.8-0.8c0.6-0.5,1-1.2,0.9-2.2c0-0.8-0.3-1.5-1-1.9
				C41,70.2,40.1,70,38.9,70z"/>
			<path class="st4" d="M48.8,75.9c-1-1-1.6-2.3-1.6-3.8s0.5-2.9,1.5-3.9c1-1,2.3-1.6,4-1.6c1.6,0,3,0.5,4,1.5c1,1,1.6,2.3,1.6,3.9
				c0,1.6-0.5,2.9-1.5,3.9c-1,1-2.3,1.6-4,1.6C51.1,77.4,49.8,76.9,48.8,75.9z M49.1,72c0,1.1,0.4,1.9,1,2.6c0.7,0.7,1.5,1,2.6,1
				c1,0,1.9-0.4,2.5-1.1s1-1.6,1-2.7c0-1.1-0.4-1.9-1-2.6c-0.7-0.7-1.5-1-2.6-1c-1,0-1.9,0.4-2.5,1.1C49.4,70,49.1,70.9,49.1,72z"/>
			<path class="st4" d="M69.2,76.8L60.8,77l0,1.7c0,0.2-0.1,0.5-0.2,0.6c-0.2,0.2-0.4,0.3-0.6,0.3c-0.2,0-0.5-0.1-0.6-0.2
				s-0.3-0.4-0.3-0.6l0-2.5c0-0.2,0.1-0.5,0.2-0.6c0.2-0.2,0.4-0.3,0.6-0.3l0.4,0c0.4-0.5,0.7-1.3,1-2.3s0.4-2.3,0.5-3.6l0.1-1.9
				c0-0.2,0.1-0.5,0.3-0.6c0.2-0.2,0.4-0.3,0.6-0.3l5.3-0.1c0.2,0,0.5,0.1,0.6,0.2c0.2,0.2,0.3,0.4,0.3,0.6l0.1,7.8l0.9,0
				c0.2,0,0.5,0.1,0.6,0.2s0.3,0.4,0.3,0.6l0,2.5c0,0.2-0.1,0.5-0.2,0.6c-0.2,0.2-0.4,0.3-0.6,0.3c-0.2,0-0.5-0.1-0.6-0.2
				c-0.2-0.2-0.3-0.4-0.3-0.6L69.2,76.8z M62.3,75.2l5-0.1l-0.1-6.9l-3.5,0.1L63.6,70c-0.1,1.2-0.2,2.2-0.5,3.2S62.6,74.8,62.3,75.2
				z"/>
			<path class="st4" d="M82,67l0.1,8.9c0,0.4-0.1,0.6-0.4,0.8c-0.3,0.2-0.6,0.2-1,0c-0.3-0.1-0.5-0.4-0.4-0.7l-0.1-3.7l-5.7,0.1
				l0.1,3.7c0,0.4-0.1,0.6-0.4,0.8c-0.3,0.2-0.6,0.2-1,0c-0.3-0.1-0.5-0.4-0.4-0.7l-0.1-8.9c0-0.4,0.1-0.6,0.4-0.8
				c0.3-0.2,0.6-0.2,1,0c0.3,0.1,0.5,0.4,0.4,0.7l0.1,3.5l5.7-0.1l-0.1-3.5c0-0.4,0.1-0.6,0.4-0.8c0.3-0.2,0.6-0.2,1,0
				C81.9,66.4,82.1,66.7,82,67z"/>
			<path class="st4" d="M87.2,67l0,2.3l1.7,0c1.4,0,2.5,0.3,3.1,0.9c0.7,0.6,1,1.5,1,2.6s-0.3,2-1,2.7s-1.8,1-3.2,1.1l-2.5,0
				c-0.2,0-0.5-0.1-0.6-0.2c-0.2-0.2-0.3-0.4-0.3-0.6L85.3,67c0-0.4,0.1-0.6,0.4-0.8s0.6-0.2,1,0C87.1,66.4,87.2,66.6,87.2,67z
				 M87.3,71l0.1,3.8l1.3,0c0.9,0,1.5-0.2,1.9-0.5c0.4-0.3,0.6-0.8,0.6-1.4c0-1.3-0.9-1.9-2.5-1.9L87.3,71z M96.8,66.8l0.1,8.9
				c0,0.4-0.1,0.6-0.4,0.8c-0.3,0.2-0.6,0.2-1,0c-0.3-0.1-0.5-0.4-0.4-0.7L95,66.8c0-0.4,0.1-0.6,0.4-0.8c0.3-0.2,0.6-0.2,1,0
				C96.7,66.2,96.8,66.4,96.8,66.8z"/>
			<path class="st4" d="M109.8,66.7l0.1,8.8c0,0.4-0.1,0.6-0.4,0.8c-0.3,0.2-0.6,0.2-1,0c-0.3-0.1-0.5-0.4-0.4-0.7l-0.1-6.8l-5.5,7
				c-0.5,0.6-0.9,0.8-1.3,0.8c-0.3,0-0.5-0.1-0.7-0.3c-0.2-0.2-0.3-0.4-0.3-0.6l-0.1-8.8c0-0.4,0.1-0.6,0.4-0.8c0.3-0.2,0.6-0.2,1,0
				c0.3,0.1,0.5,0.4,0.4,0.7l0.1,6.9l5.5-7c0.5-0.6,0.9-0.9,1.3-0.9c0.3,0,0.5,0.1,0.7,0.3S109.8,66.4,109.8,66.7z M106.5,61.3
				c0.2-0.5,0.5-0.7,0.9-0.8c0.2,0,0.5,0.1,0.6,0.2c0.2,0.1,0.2,0.3,0.3,0.6c0,0,0,0,0,0.1c0,0,0,0.1,0,0.1c0,0,0,0.1,0,0.1
				c-0.1,0.6-0.5,1.1-1.1,1.5c-0.6,0.4-1.3,0.6-2.1,0.6c-0.9,0-1.6-0.2-2.3-0.6c-0.6-0.4-1-0.9-1.1-1.5c0,0,0-0.1,0-0.3
				c0-0.6,0.3-0.8,0.8-0.8c0.4,0,0.7,0.2,0.9,0.7c0.2,0.7,0.8,1.1,1.6,1.1C105.8,62.4,106.3,62.1,106.5,61.3z"/>
		</g>
	</g>
	<path class="st5" d="M58.5,29.5c-14.2,8.4-22.1,21.4-25.8,15.2s4.9-18,19.2-26.4s28.8-10.2,32.4-4C87.9,20.4,72.7,21.1,58.5,29.5z"
		/>
</g>
<g id="B4">
</g>
<g id="Bubble1">
</g>
<g id="Bubble2">
</g>
</svg>
