<?xml version="1.0" encoding="utf-8"?>
<!-- Generator: Adobe Illustrator 17.1.0, SVG Export Plug-In . SVG Version: 6.00 Build 0)  -->
<!DOCTYPE svg PUBLIC "-//W3C//DTD SVG 1.1//EN" "http://www.w3.org/Graphics/SVG/1.1/DTD/svg11.dtd">
<svg version="1.1" xmlns="http://www.w3.org/2000/svg" xmlns:xlink="http://www.w3.org/1999/xlink" x="0px" y="0px"
	 viewBox="0 0 231 186.2" enable-background="new 0 0 231 186.2" xml:space="preserve">
<g id="Sky">
</g>
<g id="Clouds">
</g>
<g id="Button">
</g>
<g id="B_1">
</g>
<g id="B2">
</g>
<g id="B3">
</g>
<g id="B4">
</g>
<g id="B5">
</g>
<g id="B6">
</g>
<g id="B7">
</g>
<g id="B8">
</g>
<g id="B9">
</g>
<g id="B10">
</g>
<g id="B11">
	<path fill="#A7A6F6" d="M145,131.9c-22.2,13.1-66.1,14.8-79.2-7.5s9.4-59.9,31.6-73s50.9-5.8,64.1,16.5
		C174.6,90.1,167.2,118.8,145,131.9z"/>
	<polygon fill="#A099E9" points="68.4,122.8 55.7,122.5 62.6,134.2 	"/>
	<path fill="#A099E9" d="M145,131.9c20.3-12,28.2-36.8,19.5-58l0,0c0,0,11.1,70.6-85.9,61.9C97.3,145.4,127.7,142.1,145,131.9z"/>
	<g>
		<rect x="70" y="89.2" fill="none" width="105.4" height="30.9"/>
		<text transform="matrix(1 0 0 1 69.9536 105.305)" fill="#252835" font-family="'CirceRounded-Regular'" font-size="23">Продажи</text>
	</g>
	<path fill="#BEBEFC" d="M95.2,69c-9.9,9.1-14.6,20.2-18,16.5S79,71.3,89,62.2s20.8-13.4,24.2-9.7C116.6,56.2,105.1,59.9,95.2,69z"
		/>
</g>
<g id="B12">
</g>
<g id="B13">
</g>
<g id="B14">
</g>
<g id="B15">
</g>
<g id="Head">
</g>
<g id="B16">
</g>
<g id="B17">
</g>
<g id="B18">
</g>
<g id="B19">
</g>
<g id="B20">
</g>
<g id="B21">
</g>
<g id="B22">
</g>
<g id="B23">
</g>
<g id="B24">
</g>
<g id="B25">
</g>
<g id="B26">
</g>
<g id="B27">
</g>
<g id="B28">
</g>
<g id="B29">
</g>
<g id="B30">
</g>
<g id="B31">
</g>
<g id="B32">
</g>
<g id="B33">
</g>
</svg>
