<?xml version="1.0" encoding="utf-8"?>
<!-- Generator: Adobe Illustrator 22.1.0, SVG Export Plug-In . SVG Version: 6.00 Build 0)  -->
<svg version="1.1" id="Слой_1" xmlns="http://www.w3.org/2000/svg" xmlns:xlink="http://www.w3.org/1999/xlink" x="0px" y="0px"
	 viewBox="0 0 149.9 137" style="enable-background:new 0 0 149.9 137;" xml:space="preserve">
<style type="text/css">
	.st0{fill:#96CD7C;}
	.st1{fill:#9AD17D;}
	.st2{fill:#84CB66;}
	.st3{fill:#ABD796;}
	.st4{fill:none;}
	.st5{enable-background:new    ;}
	.st6{fill:#252835;}
</style>
<g id="Sky">
</g>
<g id="Clouds">
</g>
<g id="Button">
</g>
<g id="B_1">
</g>
<g id="B2">
</g>
<g id="B3">
</g>
<g id="B4">
</g>
<g id="B5">
</g>
<g id="B6">
</g>
<g id="B7">
</g>
<g id="B8">
</g>
<g id="B9">
</g>
<g id="B10">
	<path class="st0" d="M113.6,118.3c-28.3,16.7-84.1,18.8-100.8-9.5S24.7,32.6,53,15.9s64.8-7.4,81.5,20.9
		C151.2,65.1,141.9,101.5,113.6,118.3z"/>
	<polygon class="st1" points="16.3,106.7 0,106.3 8.8,121.1 	"/>
	<path class="st2" d="M113.6,118.3c25.8-15.2,35.8-46.9,24.8-73.8l0,0c0,0,14.1,89.9-109.3,78.8C53,135.4,91.6,131.3,113.6,118.3z"
		/>
	<path class="st3" d="M56.1,34.1c-14,9.6-21.9,22.3-25.3,17.4C27.4,46.6,36,34.8,50,25.2s28-13.4,31.4-8.5
		C84.8,21.7,70.1,24.5,56.1,34.1z"/>
	<g>
		<rect x="15.5" y="67" class="st4" width="122.9" height="30.9"/>
		<g class="st5">
			<path class="st6" d="M18.9,67h10.7c0.3,0,0.5,0.1,0.7,0.3c0.2,0.2,0.3,0.4,0.3,0.7v14.3c0,0.3-0.1,0.5-0.3,0.7
				c-0.2,0.2-0.4,0.3-0.7,0.3c-0.3,0-0.5-0.1-0.7-0.3c-0.2-0.2-0.3-0.4-0.3-0.7V68.8h-8.7v13.5c0,0.3-0.1,0.5-0.3,0.7
				c-0.2,0.2-0.4,0.3-0.7,0.3c-0.3,0-0.5-0.1-0.7-0.3c-0.2-0.2-0.3-0.4-0.3-0.7V67.9c0-0.3,0.1-0.5,0.3-0.7
				C18.4,67.1,18.6,67,18.9,67z"/>
			<path class="st6" d="M41.7,74.8c-0.8-0.4-1.5-0.6-2.3-0.6c-1,0-1.8,0.3-2.5,1c-0.7,0.7-1.1,1.6-1.1,2.6c0,1.1,0.4,2,1.1,2.7
				s1.6,1,2.6,1c0.9,0,1.6-0.2,2.2-0.7c0.2-0.2,0.5-0.3,0.7-0.3c0.2,0,0.4,0.1,0.5,0.2c0.2,0.2,0.3,0.4,0.3,0.6
				c0,0.3-0.1,0.5-0.3,0.6c-1,0.9-2.2,1.3-3.6,1.3c-1.6,0-3-0.5-4-1.5c-1-1-1.5-2.3-1.5-3.9c0-1.5,0.5-2.8,1.5-3.8
				c1-1,2.2-1.6,3.7-1.6c1.3,0,2.4,0.3,3.4,0.8c0.3,0.2,0.5,0.4,0.5,0.8c0,0.2,0,0.3-0.1,0.4c-0.2,0.3-0.4,0.4-0.8,0.4
				C42,74.9,41.9,74.9,41.7,74.8z"/>
			<path class="st6" d="M55.3,73.5v8.8c0,0.4-0.1,0.6-0.4,0.7c-0.3,0.1-0.6,0.1-1,0c-0.3-0.1-0.5-0.4-0.4-0.7v-6.8l-5.6,6.9
				c-0.5,0.6-0.9,0.8-1.3,0.8c-0.3,0-0.5-0.1-0.7-0.3c-0.2-0.2-0.3-0.4-0.3-0.6v-8.8c0-0.4,0.1-0.6,0.4-0.7c0.3-0.1,0.6-0.1,1,0
				c0.3,0.1,0.5,0.4,0.4,0.7v6.9l5.6-6.9c0.5-0.6,0.9-0.9,1.3-0.9c0.3,0,0.5,0.1,0.7,0.3C55.2,73.1,55.3,73.3,55.3,73.5z"/>
			<path class="st6" d="M59.9,73.1l2.5,3.5l2.6-3.5c0.2-0.3,0.5-0.5,0.8-0.5c0.3,0,0.5,0.1,0.6,0.2c0.2,0.2,0.2,0.3,0.2,0.6
				c0,0.2-0.1,0.4-0.2,0.5l-2.8,3.8l3,4.1c0.1,0.2,0.2,0.4,0.2,0.6c0,0.2-0.1,0.5-0.3,0.6c-0.2,0.2-0.4,0.3-0.7,0.3
				c-0.3,0-0.6-0.2-0.8-0.5l-2.8-3.8l-2.8,3.8c-0.2,0.3-0.5,0.5-0.9,0.5c-0.3,0-0.5-0.1-0.6-0.2c-0.1-0.2-0.2-0.3-0.2-0.6
				c0-0.2,0.1-0.4,0.2-0.6l3-4.1L58.3,74c-0.1-0.2-0.2-0.3-0.2-0.5c0-0.4,0.2-0.6,0.6-0.8C59.1,72.5,59.5,72.6,59.9,73.1z"/>
			<path class="st6" d="M69.8,81.8c-1-1-1.5-2.3-1.5-3.9c0-1.6,0.5-2.9,1.5-3.9c1-1,2.3-1.5,4-1.5c1.6,0,3,0.5,4,1.5
				c1,1,1.5,2.3,1.5,3.9c0,1.6-0.5,2.9-1.5,3.9c-1,1-2.4,1.5-4,1.5S70.8,82.8,69.8,81.8z M70.2,77.9c0,1.1,0.3,2,1,2.6
				c0.7,0.7,1.5,1,2.6,1c1,0,1.9-0.3,2.6-1c0.7-0.7,1-1.6,1-2.7c0-1.1-0.3-2-1-2.6c-0.7-0.7-1.5-1-2.6-1c-1,0-1.9,0.3-2.6,1
				C70.5,75.9,70.2,76.8,70.2,77.9z"/>
			<path class="st6" d="M90.3,73.6v8.8c0,0.4-0.1,0.6-0.4,0.7c-0.3,0.1-0.6,0.1-1,0s-0.5-0.4-0.4-0.7v-7.8h-3.6l-0.1,1.7
				c-0.1,2.3-0.5,4-1.2,5.2c-0.6,1.2-1.4,1.7-2.3,1.7c-0.3,0-0.5-0.1-0.7-0.2c-0.2-0.2-0.3-0.4-0.3-0.6c0-0.4,0.2-0.7,0.7-0.9
				c0.5-0.2,1-0.7,1.2-1.5c0.3-0.8,0.5-2.1,0.6-4l0.1-2.3c0-0.2,0.1-0.5,0.3-0.6c0.2-0.2,0.4-0.3,0.6-0.3h5.5c0.2,0,0.5,0.1,0.6,0.3
				C90.2,73.1,90.3,73.3,90.3,73.6z"/>
			<path class="st6" d="M94.4,81.8c-1-1-1.5-2.3-1.5-3.9c0-1.6,0.5-2.9,1.5-3.9c1-1,2.3-1.5,4-1.5c1.6,0,3,0.5,4,1.5
				c1,1,1.5,2.3,1.5,3.9c0,1.6-0.5,2.9-1.5,3.9c-1,1-2.4,1.5-4,1.5S95.4,82.8,94.4,81.8z M94.8,77.9c0,1.1,0.3,2,1,2.6
				c0.7,0.7,1.5,1,2.6,1s1.9-0.3,2.6-1c0.7-0.7,1-1.6,1-2.7c0-1.1-0.3-2-1-2.6c-0.7-0.7-1.5-1-2.6-1c-1,0-1.9,0.3-2.6,1
				C95.2,75.9,94.8,76.8,94.8,77.9z"/>
			<path class="st6" d="M112.2,74.4h-3.8v7.9c0,0.4-0.1,0.6-0.4,0.7s-0.6,0.1-1,0s-0.5-0.4-0.4-0.7v-8.8c0-0.2,0.1-0.5,0.3-0.6
				c0.2-0.2,0.4-0.3,0.6-0.3h4.8c0.2,0,0.5,0.1,0.6,0.3c0.2,0.2,0.3,0.4,0.3,0.6c0,0.2-0.1,0.5-0.3,0.6
				C112.7,74.4,112.5,74.4,112.2,74.4z"/>
			<path class="st6" d="M124.5,73.5v8.8c0,0.4-0.1,0.6-0.4,0.7s-0.6,0.1-1,0c-0.3-0.1-0.5-0.4-0.4-0.7v-6.8l-5.6,6.9
				c-0.5,0.6-0.9,0.8-1.3,0.8c-0.3,0-0.5-0.1-0.7-0.3c-0.2-0.2-0.3-0.4-0.3-0.6v-8.8c0-0.4,0.1-0.6,0.4-0.7c0.3-0.1,0.6-0.1,1,0
				c0.3,0.1,0.5,0.4,0.4,0.7v6.9l5.6-6.9c0.5-0.6,0.9-0.9,1.3-0.9c0.3,0,0.5,0.1,0.7,0.3C124.4,73.1,124.5,73.3,124.5,73.5z"/>
			<path class="st6" d="M127.6,81.8l2-2.6c-0.6-0.1-1.2-0.5-1.6-1c-0.4-0.5-0.6-1.2-0.6-2c0-1.1,0.4-1.9,1.1-2.5
				c0.8-0.6,1.9-0.9,3.5-0.9h2.3c0.2,0,0.5,0.1,0.6,0.3s0.3,0.4,0.3,0.6v8.8c0,0.4-0.1,0.6-0.4,0.7c-0.3,0.1-0.6,0.1-1,0
				c-0.3-0.1-0.5-0.4-0.4-0.7v-2.7h-2l-2.3,3.1c-0.2,0.3-0.5,0.5-0.8,0.5c-0.3,0-0.5-0.1-0.7-0.2c-0.2-0.2-0.3-0.3-0.3-0.6
				C127.3,82.2,127.4,82,127.6,81.8z M131.2,77.9h2.1v-3.5h-1.7c-0.8,0-1.4,0.2-1.8,0.5c-0.4,0.3-0.6,0.8-0.6,1.3
				c0,0.5,0.2,0.9,0.6,1.2C130.2,77.7,130.7,77.9,131.2,77.9z"/>
		</g>
	</g>
</g>
<g id="B11">
</g>
<g id="B12">
</g>
<g id="B13">
</g>
<g id="B14">
</g>
<g id="B15">
</g>
<g id="Head">
</g>
<g id="B16">
</g>
<g id="B17">
</g>
<g id="B18">
</g>
<g id="B19">
</g>
<g id="B20">
</g>
<g id="B21">
</g>
<g id="B22">
</g>
<g id="B23">
</g>
<g id="B24">
</g>
<g id="B25">
</g>
<g id="B26">
</g>
<g id="B27">
</g>
<g id="B28">
</g>
<g id="B29">
</g>
<g id="B30">
</g>
<g id="B31">
</g>
<g id="B32">
</g>
<g id="B33">
</g>
</svg>
