<?xml version="1.0" encoding="utf-8"?>
<!-- Generator: Adobe Illustrator 17.1.0, SVG Export Plug-In . SVG Version: 6.00 Build 0)  -->
<!DOCTYPE svg PUBLIC "-//W3C//DTD SVG 1.1//EN" "http://www.w3.org/Graphics/SVG/1.1/DTD/svg11.dtd">
<svg version="1.1" xmlns="http://www.w3.org/2000/svg" xmlns:xlink="http://www.w3.org/1999/xlink" x="0px" y="0px"
	 viewBox="0 0 323.1 213" enable-background="new 0 0 323.1 213" xml:space="preserve">
<g id="Sky">
</g>
<g id="Clouds">
</g>
<g id="Button">
</g>
<g id="B_1">
	<path fill="#A7A6F6" d="M227.1,171.7c-38.8,32.6-123.1,49.7-155.7,10.9s-1-118.8,37.8-151.4s96.6-27.5,129.2,11.3
		S265.9,139.2,227.1,171.7z"/>
	<polygon fill="#A099E9" points="76.2,178.7 51.4,182.1 68.5,202.5 	"/>
	<path fill="#A099E9" d="M227.1,171.7c35.3-29.7,42.7-80.3,19.1-118.4l0,0c0,0,44,133.1-146.4,147.3C139.3,213,197,197,227.1,171.7z
		"/>
	<g>
		<rect x="66.5" y="110.4" fill="none" width="183.8" height="30.9"/>
		<text transform="matrix(1 0 0 1 66.4665 126.4715)" fill="#252835" font-family="'CirceRounded-Regular'" font-size="23">Промышленность</text>
	</g>
	<path fill="#BEBEFC" d="M129.5,52.2C105.1,70,91.7,93.1,85.3,84.3c-6.4-8.8,8.2-30.3,32.6-48s49.4-24.9,55.8-16.1
		S154,34.5,129.5,52.2z"/>
</g>
<g id="B2">
</g>
<g id="B3">
</g>
<g id="B4">
</g>
<g id="B5">
</g>
<g id="B6">
</g>
<g id="B7">
</g>
<g id="B8">
</g>
<g id="B9">
</g>
<g id="B10">
</g>
<g id="B11">
</g>
<g id="B12">
</g>
<g id="B13">
</g>
<g id="B14">
</g>
<g id="B15">
</g>
<g id="Head">
</g>
<g id="B16">
</g>
<g id="B17">
</g>
<g id="B18">
</g>
<g id="B19">
</g>
<g id="B20">
</g>
<g id="B21">
</g>
<g id="B22">
</g>
<g id="B23">
</g>
<g id="B24">
</g>
<g id="B25">
</g>
<g id="B26">
</g>
<g id="B27">
</g>
<g id="B28">
</g>
<g id="B29">
</g>
<g id="B30">
</g>
<g id="B31">
</g>
<g id="B32">
</g>
<g id="B33">
</g>
</svg>
