<?xml version="1.0" encoding="utf-8"?>
<!-- Generator: Adobe Illustrator 22.1.0, SVG Export Plug-In . SVG Version: 6.00 Build 0)  -->
<svg version="1.1" id="Слой_1" xmlns="http://www.w3.org/2000/svg" xmlns:xlink="http://www.w3.org/1999/xlink" x="0px" y="0px"
	 viewBox="0 0 154 151.9" style="enable-background:new 0 0 154 151.9;" xml:space="preserve">
<style type="text/css">
	.st0{fill:#75AEB9;}
	.st1{fill:#4E9DA3;}
	.st2{fill:none;}
	.st3{enable-background:new    ;}
	.st4{fill:#252835;}
	.st5{fill:#91BEC7;}
</style>
<g id="Sky">
</g>
<g id="Clouds">
</g>
<g id="Button">
</g>
<g id="B1">
</g>
<g id="B2">
</g>
<g id="B3">
</g>
<g id="B4">
	<g>
		<path class="st0" d="M128.8,120.6c-25.8,25.5-84.9,42.7-110.5,16.9S10.7,52.8,36.4,27.3s67.4-25.3,92.9,0.5
			S154.6,95.1,128.8,120.6z"/>
		<polygon class="st1" points="21.5,134.4 4,138.4 17.4,151.9 		"/>
		<path class="st1" d="M128.8,120.6c23.5-23.2,25.7-59.8,6.7-85.6l0,0c0,0,39.2,92.4-95.8,113.7C68.6,155.3,108.8,140.5,128.8,120.6
			z"/>
	</g>
	<g>
		
			<rect x="12.9" y="70" transform="matrix(0.9999 -1.647352e-02 1.647352e-02 0.9999 -1.3967 1.3493)" class="st2" width="136.6" height="30.9"/>
		<g class="st3">
			<path class="st4" d="M26.2,86.5l-1.9-4.4l-7.3,0.1l-1.8,4.4c-0.1,0.4-0.4,0.7-0.9,0.7c-0.3,0-0.5-0.1-0.7-0.3
				c-0.2-0.2-0.3-0.4-0.3-0.6c0-0.1,0-0.2,0.1-0.4l5.9-14.4c0.2-0.5,0.6-0.8,1.1-0.8c0.5,0,0.9,0.2,1.1,0.8L28,85.7
				c0,0.1,0.1,0.3,0.1,0.4c0,0.3-0.1,0.5-0.3,0.7c-0.2,0.2-0.4,0.3-0.7,0.3C26.7,87.1,26.4,86.9,26.2,86.5z M17.7,80.4l5.8-0.1
				l-3-6.8L17.7,80.4z"/>
			<path class="st4" d="M38.3,79c0,0.6-0.2,1.1-0.5,1.6c-0.4,0.4-0.9,0.7-1.5,0.8c1.6,0.3,2.4,1.1,2.5,2.4c0,2-1.5,3-4.7,3.1
				c-0.2,0-1.1,0-2.9,0c-0.2,0-0.5-0.1-0.6-0.3c-0.2-0.2-0.3-0.4-0.3-0.6l-0.1-8.6c0-0.2,0.1-0.5,0.2-0.6c0.2-0.2,0.4-0.3,0.6-0.3
				c1.7-0.1,2.6-0.1,2.9-0.1C36.8,76.3,38.3,77.2,38.3,79z M31.9,78l0.1,3.1l2.3,0c0.6,0,1.1-0.2,1.5-0.5c0.4-0.3,0.6-0.7,0.6-1.2
				c0-1-0.8-1.5-2.4-1.5C33.5,77.9,32.9,77.9,31.9,78z M34.2,82.2l-2.2,0l0.1,3.2c1.1,0,1.8,0,2.1,0c1.8,0,2.6-0.6,2.6-1.7
				C36.8,82.7,35.9,82.2,34.2,82.2z"/>
			<path class="st4" d="M45.8,78.1l0.1,7.8c0,0.4-0.1,0.6-0.4,0.8c-0.3,0.2-0.6,0.2-1,0c-0.3-0.1-0.5-0.4-0.4-0.7L44,78.2l-2.9,0
				c-0.4,0-0.6-0.1-0.8-0.4c-0.2-0.3-0.2-0.6,0-1c0.1-0.3,0.4-0.5,0.7-0.4l7.7-0.1c0.4,0,0.6,0.1,0.8,0.4c0.2,0.3,0.2,0.6,0,1
				c-0.1,0.3-0.4,0.5-0.7,0.4L45.8,78.1z"/>
			<path class="st4" d="M52.2,85.2c-1-1-1.6-2.3-1.6-3.8c0-1.6,0.5-2.9,1.5-3.9c1-1,2.3-1.6,4-1.6c1.6,0,3,0.5,4,1.5
				c1,1,1.6,2.3,1.6,3.9c0,1.6-0.5,2.9-1.5,3.9c-1,1-2.3,1.6-4,1.6C54.6,86.7,53.2,86.2,52.2,85.2z M52.6,81.4c0,1.1,0.4,1.9,1,2.6
				c0.7,0.7,1.5,1,2.6,1c1,0,1.9-0.4,2.5-1.1s1-1.6,1-2.7c0-1.1-0.4-2-1-2.6c-0.7-0.7-1.5-1-2.6-1c-1,0-1.9,0.4-2.5,1.1
				S52.5,80.3,52.6,81.4z"/>
			<path class="st4" d="M69.2,82.6l-3.1-3.7l0.1,6.7c0,0.4-0.1,0.6-0.4,0.8c-0.3,0.2-0.6,0.2-1,0c-0.3-0.1-0.5-0.4-0.4-0.7l-0.1-8.9
				c0-0.2,0.1-0.5,0.3-0.6c0.2-0.2,0.4-0.3,0.6-0.3c0.2,0,0.4,0.1,0.6,0.2c0.2,0.1,0.4,0.4,0.7,0.7l3.6,4.3l3.3-4.4
				c0.4-0.6,0.8-0.9,1.2-0.9c0.2,0,0.5,0.1,0.6,0.2c0.2,0.2,0.3,0.4,0.3,0.6l0.1,8.9c0,0.4-0.1,0.6-0.4,0.8c-0.3,0.2-0.6,0.2-1,0
				c-0.3-0.1-0.5-0.4-0.4-0.7l-0.1-6.7l-2.9,3.8c-0.2,0.2-0.4,0.4-0.7,0.4C69.6,82.9,69.4,82.8,69.2,82.6z"/>
			<path class="st4" d="M79.6,84.8c-1-1-1.6-2.3-1.6-3.8c0-1.6,0.5-2.9,1.5-3.9c1-1,2.3-1.6,4-1.6c1.6,0,3,0.5,4,1.5
				c1,1,1.6,2.3,1.6,3.9c0,1.6-0.5,2.9-1.5,3.9c-1,1-2.3,1.6-4,1.6S80.6,85.8,79.6,84.8z M79.9,80.9c0,1.1,0.4,1.9,1,2.6
				c0.7,0.7,1.5,1,2.6,1c1,0,1.9-0.4,2.5-1.1c0.7-0.7,1-1.6,1-2.7c0-1.1-0.4-1.9-1-2.6c-0.7-0.7-1.5-1-2.6-1c-1,0-1.9,0.4-2.5,1.1
				S79.9,79.8,79.9,80.9z"/>
			<path class="st4" d="M101.7,80.6c0,1.5-0.5,2.7-1.4,3.8S98,86,96.4,86c-1.7,0-3-0.5-4-1.7c-1-1.1-1.5-2.7-1.5-4.7
				c-0.1-4.5,1.2-7.3,3.7-8.4c0.6-0.3,1.4-0.5,2.4-0.7c0.9-0.2,1.6-0.4,1.9-0.6c0.3-0.2,0.6-0.3,0.8-0.3c0.2,0,0.5,0.1,0.6,0.3
				c0.1,0.2,0.2,0.3,0.2,0.5c0,0.3-0.1,0.5-0.3,0.7c-0.5,0.5-1.3,0.9-2.5,1.1c-1.1,0.2-2,0.5-2.5,0.7c-1.6,0.7-2.4,2.4-2.5,5
				c0.3-0.7,0.9-1.3,1.6-1.8s1.6-0.7,2.5-0.7c1.5,0,2.6,0.4,3.5,1.3S101.6,79.1,101.7,80.6z M92.8,80c0,1.3,0.4,2.4,1,3.2
				s1.5,1.2,2.5,1.2c1,0,1.8-0.4,2.4-1.1c0.6-0.7,0.9-1.5,0.9-2.5c0-1.1-0.3-1.9-0.9-2.5c-0.6-0.6-1.4-0.9-2.4-0.9
				c-0.9,0-1.7,0.3-2.3,0.8S93,79.2,92.8,80z"/>
			<path class="st4" d="M113.8,76l0.1,8.8c0,0.4-0.1,0.6-0.4,0.8c-0.3,0.2-0.6,0.2-1,0s-0.5-0.4-0.4-0.7L112,78l-5.5,7
				c-0.5,0.6-0.9,0.8-1.3,0.8c-0.3,0-0.5-0.1-0.7-0.3c-0.2-0.2-0.3-0.4-0.3-0.6l-0.1-8.8c0-0.4,0.1-0.6,0.4-0.8c0.3-0.2,0.6-0.2,1,0
				c0.3,0.1,0.5,0.4,0.4,0.7l0.1,6.9l5.5-7c0.5-0.6,0.9-0.9,1.3-0.9c0.3,0,0.5,0.1,0.7,0.3C113.7,75.5,113.8,75.8,113.8,76z"/>
			<path class="st4" d="M125.9,75.8l0.1,8.8c0,0.4-0.1,0.6-0.4,0.8c-0.3,0.2-0.6,0.2-1,0c-0.3-0.1-0.5-0.4-0.4-0.7l-0.1-7.8
				l-3.6,0.1l-0.1,1.7c-0.1,2.3-0.5,4-1.1,5.2c-0.6,1.2-1.4,1.8-2.3,1.8c-0.3,0-0.5-0.1-0.7-0.2c-0.2-0.2-0.3-0.4-0.3-0.6
				c0-0.4,0.2-0.7,0.7-1c0.5-0.2,0.9-0.7,1.2-1.5c0.3-0.8,0.5-2.1,0.6-4l0.1-2.3c0-0.2,0.1-0.5,0.3-0.6c0.2-0.2,0.4-0.3,0.6-0.3
				L125,75c0.2,0,0.5,0.1,0.6,0.2C125.8,75.4,125.9,75.6,125.9,75.8z"/>
			<path class="st4" d="M138.9,75.6l0.1,8.8c0,0.4-0.1,0.6-0.4,0.8s-0.6,0.2-1,0c-0.3-0.1-0.5-0.4-0.4-0.7l-0.1-6.8l-5.5,7
				c-0.5,0.6-0.9,0.8-1.3,0.8c-0.3,0-0.5-0.1-0.7-0.3c-0.2-0.2-0.3-0.4-0.3-0.6l-0.1-8.8c0-0.4,0.1-0.6,0.4-0.8c0.3-0.2,0.6-0.2,1,0
				c0.3,0.1,0.5,0.4,0.4,0.7l0.1,6.9l5.5-7c0.5-0.6,0.9-0.9,1.3-0.9c0.3,0,0.5,0.1,0.7,0.3C138.8,75.1,138.9,75.3,138.9,75.6z"/>
		</g>
	</g>
	<path class="st5" d="M61.4,35C44.6,44.9,35.3,60.2,31,52.9s5.8-21.2,22.6-31.1s33.8-12,38.1-4.7S78.1,25.1,61.4,35z"/>
</g>
<g id="Bubble1">
</g>
<g id="Bubble2">
</g>
</svg>
