<?xml version="1.0" encoding="utf-8"?>
<!-- Generator: Adobe Illustrator 22.1.0, SVG Export Plug-In . SVG Version: 6.00 Build 0)  -->
<svg version="1.1" id="Слой_1" xmlns="http://www.w3.org/2000/svg" xmlns:xlink="http://www.w3.org/1999/xlink" x="0px" y="0px"
	 viewBox="0 0 151 150.8" style="enable-background:new 0 0 151 150.8;" xml:space="preserve">
<style type="text/css">
	.st0{fill:#A7A6F6;}
	.st1{fill:#A099E9;}
	.st2{fill:#BEBDF6;}
	.st3{fill:none;}
	.st4{enable-background:new    ;}
	.st5{fill:#252835;}
</style>
<g id="Sky">
</g>
<g id="Clouds">
</g>
<g id="Button">
</g>
<g id="B1">
</g>
<g id="B2">
</g>
<g id="B3">
	<g>
		<g>
			<path class="st0" d="M127.3,126.7c-28.1,23.6-89.2,36-112.7,7.9S13.8,48.5,41.9,25s70-19.9,93.6,8.2S155.4,103.1,127.3,126.7z"/>
			<polygon class="st1" points="18,131.7 0,134.3 12.4,149 			"/>
			<path class="st1" d="M127.3,126.7c25.6-21.5,30.9-58.2,13.8-85.8l0,0c0,0,31.9,96.4-106,106.7
				C63.7,156.6,105.4,145.1,127.3,126.7z"/>
		</g>
		<path class="st2" d="M56.6,40.2C38.9,53,29.2,69.8,24.6,63.4s6-22,23.6-34.8S84,10.5,88.6,16.9S74.3,27.3,56.6,40.2z"/>
	</g>
	<g>
		<rect x="15.1" y="72.5" class="st3" width="127.9" height="30.9"/>
		<g class="st4">
			<path class="st5" d="M16.2,73.3c0-0.3,0.1-0.5,0.3-0.7c0.2-0.2,0.4-0.3,0.7-0.3c0.3,0,0.6,0.2,1,0.7l4.3,5.9l4.2-5.9
				c0.3-0.5,0.6-0.7,1.1-0.7c0.3,0,0.5,0.1,0.6,0.3c0.2,0.2,0.3,0.4,0.3,0.6c0,0.2-0.1,0.4-0.2,0.6l-4.7,6.6l5,6.9
				c0.1,0.1,0.2,0.3,0.2,0.5c0,0.2-0.1,0.5-0.3,0.7c-0.2,0.2-0.4,0.3-0.6,0.3c-0.4,0-0.7-0.2-0.9-0.6l-4.6-6.3l-4.5,6.3
				c-0.3,0.4-0.6,0.6-1,0.6c-0.3,0-0.5-0.1-0.6-0.3c-0.2-0.2-0.3-0.4-0.3-0.6c0-0.2,0.1-0.4,0.2-0.6l4.9-6.8l-4.7-6.5
				C16.3,73.7,16.2,73.5,16.2,73.3z"/>
			<path class="st5" d="M40.9,79v8.8c0,0.4-0.1,0.6-0.4,0.7c-0.3,0.1-0.6,0.1-1,0c-0.3-0.1-0.5-0.4-0.4-0.7V81l-5.6,6.9
				c-0.5,0.6-0.9,0.8-1.3,0.8c-0.3,0-0.5-0.1-0.7-0.3c-0.2-0.2-0.3-0.4-0.3-0.6V79c0-0.4,0.1-0.6,0.4-0.7c0.3-0.1,0.6-0.1,1,0
				c0.3,0.1,0.5,0.4,0.4,0.7v6.9l5.6-6.9c0.5-0.6,0.9-0.9,1.3-0.9c0.3,0,0.5,0.1,0.7,0.3C40.8,78.6,40.9,78.8,40.9,79z"/>
			<path class="st5" d="M49.1,84.9l-3-3.7v6.7c0,0.4-0.1,0.6-0.4,0.7c-0.3,0.1-0.6,0.1-1,0c-0.3-0.1-0.5-0.4-0.4-0.7V79
				c0-0.2,0.1-0.5,0.3-0.6s0.4-0.3,0.6-0.3c0.2,0,0.4,0.1,0.6,0.2c0.2,0.1,0.4,0.4,0.7,0.7l3.5,4.3l3.3-4.4c0.4-0.6,0.8-0.9,1.2-0.9
				c0.2,0,0.5,0.1,0.6,0.3c0.2,0.2,0.3,0.4,0.3,0.6v8.9c0,0.4-0.1,0.6-0.4,0.7c-0.3,0.1-0.6,0.1-1,0c-0.3-0.1-0.5-0.4-0.4-0.7v-6.7
				l-2.9,3.7c-0.2,0.2-0.4,0.4-0.7,0.4C49.5,85.3,49.3,85.1,49.1,84.9z"/>
			<path class="st5" d="M68.3,79v8.8c0,0.4-0.1,0.6-0.4,0.7c-0.3,0.1-0.6,0.1-1,0c-0.3-0.1-0.5-0.4-0.4-0.7V81l-5.6,6.9
				c-0.5,0.6-0.9,0.8-1.3,0.8c-0.3,0-0.5-0.1-0.7-0.3c-0.2-0.2-0.3-0.4-0.3-0.6V79c0-0.4,0.1-0.6,0.4-0.7c0.3-0.1,0.6-0.1,1,0
				c0.3,0.1,0.5,0.4,0.4,0.7v6.9l5.6-6.9c0.5-0.6,0.9-0.9,1.3-0.9c0.3,0,0.5,0.1,0.7,0.3C68.2,78.6,68.3,78.8,68.3,79z"/>
			<path class="st5" d="M77.5,82.9v-4c0-0.4,0.1-0.6,0.4-0.7c0.3-0.1,0.6-0.1,1,0c0.3,0.1,0.5,0.4,0.4,0.7v8.9
				c0,0.4-0.1,0.6-0.4,0.7s-0.6,0.1-1,0s-0.5-0.4-0.4-0.7v-3.3c-0.8,0.5-1.8,0.8-2.9,0.8c-2.5,0-3.7-1.3-3.7-4V79
				c0-0.2,0.1-0.5,0.3-0.6s0.4-0.3,0.7-0.3c0.3,0,0.5,0.1,0.7,0.3s0.3,0.4,0.3,0.6v2.2c0,1.6,0.7,2.4,2.2,2.4
				C76.1,83.6,76.9,83.4,77.5,82.9z"/>
			<path class="st5" d="M92.1,82.7c0,0.3,0,0.4,0,0.5c0,0.2-0.1,0.4-0.3,0.5S91.5,84,91.3,84h-7.3c0.1,1,0.4,1.7,1.1,2.3
				c0.7,0.6,1.5,0.8,2.5,0.8c1,0,1.8-0.2,2.5-0.6c0.2-0.1,0.3-0.1,0.5-0.1c0.2,0,0.4,0.1,0.6,0.3c0.1,0.1,0.1,0.2,0.1,0.4
				c0,0.3-0.1,0.5-0.3,0.6c-1.1,0.8-2.3,1.2-3.7,1.2c-1.7,0-3-0.5-4-1.5c-1-1-1.5-2.3-1.5-3.9c0-1.5,0.5-2.8,1.4-3.9
				c1-1,2.3-1.5,3.9-1.5c1.4,0,2.5,0.4,3.4,1.3C91.7,80.2,92.1,81.3,92.1,82.7z M83.9,82.5h6.3c0-0.9-0.3-1.5-0.9-2
				c-0.5-0.5-1.2-0.7-2.1-0.7c-0.9,0-1.7,0.3-2.2,0.8C84.4,81,84.1,81.6,83.9,82.5z"/>
			<path class="st5" d="M101.7,80.3c-0.8-0.4-1.5-0.6-2.3-0.6c-1,0-1.8,0.3-2.5,1c-0.7,0.7-1.1,1.6-1.1,2.6c0,1.1,0.4,2,1.1,2.7
				s1.6,1,2.6,1c0.9,0,1.6-0.2,2.2-0.7c0.2-0.2,0.5-0.3,0.7-0.3c0.2,0,0.4,0.1,0.5,0.2c0.2,0.2,0.3,0.4,0.3,0.6
				c0,0.3-0.1,0.5-0.3,0.6c-1,0.9-2.2,1.3-3.6,1.3c-1.6,0-3-0.5-4-1.5c-1-1-1.5-2.3-1.5-3.9c0-1.5,0.5-2.8,1.5-3.8s2.2-1.6,3.7-1.6
				c1.3,0,2.4,0.3,3.4,0.8c0.3,0.2,0.5,0.4,0.5,0.8c0,0.2,0,0.3-0.1,0.4c-0.2,0.3-0.4,0.4-0.8,0.4C102,80.4,101.8,80.4,101.7,80.3z"
				/>
			<path class="st5" d="M107.4,79v8.9c0,0.4-0.1,0.6-0.4,0.7c-0.3,0.1-0.6,0.1-1,0c-0.3-0.1-0.5-0.4-0.4-0.7V79
				c0-0.4,0.1-0.6,0.4-0.7c0.3-0.1,0.6-0.1,1,0C107.3,78.4,107.5,78.6,107.4,79z M112.3,88.3l-3.8-4.3c-0.2-0.2-0.2-0.4-0.2-0.7
				c0-0.3,0.1-0.5,0.2-0.6l3.5-4c0.3-0.3,0.5-0.5,0.9-0.5c0.3,0,0.5,0.1,0.7,0.3c0.2,0.2,0.2,0.4,0.2,0.6c0,0.2-0.1,0.4-0.2,0.6
				l-3.3,3.6l3.7,4c0.2,0.2,0.3,0.4,0.3,0.7c0,0.2-0.1,0.5-0.3,0.6c-0.2,0.2-0.4,0.3-0.7,0.3C112.8,88.7,112.5,88.6,112.3,88.3z"/>
			<path class="st5" d="M115.9,85.5c0-1,0.4-1.8,1.1-2.4c0.7-0.6,1.7-0.9,2.8-0.9c1.1,0,1.9,0.2,2.6,0.7c0-1.2-0.2-2-0.5-2.5
				c-0.3-0.5-0.9-0.8-1.9-0.8c-0.7,0-1.4,0.1-2.1,0.4c-0.1,0-0.2,0.1-0.3,0.1c-0.3,0-0.6-0.2-0.7-0.5c0-0.1-0.1-0.2-0.1-0.3
				c0-0.4,0.2-0.6,0.5-0.7c1-0.4,1.9-0.6,2.9-0.6c1.4,0,2.4,0.3,3,1c0.6,0.7,0.9,1.8,0.9,3.2v5.7c0,0.2-0.1,0.4-0.3,0.6
				c-0.2,0.2-0.4,0.2-0.6,0.2s-0.5-0.1-0.6-0.2c-0.2-0.2-0.3-0.3-0.3-0.6v-0.7c-0.8,1-1.9,1.5-3.3,1.5c-1,0-1.7-0.3-2.3-0.9
				C116.2,87.3,115.9,86.5,115.9,85.5z M122.4,85.7v-1.3c-0.6-0.5-1.4-0.7-2.3-0.7c-0.6,0-1.2,0.1-1.6,0.4c-0.4,0.3-0.6,0.7-0.6,1.3
				c0,0.5,0.2,0.9,0.5,1.2c0.3,0.3,0.8,0.4,1.4,0.4C120.8,87.1,121.7,86.6,122.4,85.7z"/>
			<path class="st5" d="M127,87.3l2-2.6c-0.6-0.1-1.2-0.5-1.6-1c-0.4-0.5-0.6-1.2-0.6-2c0-1.1,0.4-1.9,1.2-2.5
				c0.8-0.6,1.9-0.9,3.5-0.9h2.3c0.2,0,0.5,0.1,0.6,0.3s0.3,0.4,0.3,0.6v8.8c0,0.4-0.1,0.6-0.4,0.7s-0.6,0.1-1,0s-0.5-0.4-0.4-0.7
				v-2.7h-2l-2.3,3.1c-0.2,0.3-0.5,0.5-0.8,0.5c-0.3,0-0.5-0.1-0.7-0.2c-0.2-0.2-0.3-0.3-0.3-0.6C126.7,87.7,126.8,87.5,127,87.3z
				 M130.6,83.4h2.1v-3.5H131c-0.8,0-1.4,0.2-1.8,0.5c-0.4,0.3-0.6,0.8-0.6,1.3c0,0.5,0.2,0.9,0.6,1.2
				C129.6,83.2,130.1,83.4,130.6,83.4z"/>
		</g>
	</g>
</g>
<g id="B4">
</g>
<g id="Bubble1">
</g>
<g id="Bubble2">
</g>
</svg>
