<?xml version="1.0" encoding="utf-8"?>
<!-- Generator: Adobe Illustrator 22.1.0, SVG Export Plug-In . SVG Version: 6.00 Build 0)  -->
<svg version="1.1" id="Слой_1" xmlns="http://www.w3.org/2000/svg" xmlns:xlink="http://www.w3.org/1999/xlink" x="0px" y="0px"
	 viewBox="0 0 132.7 131" style="enable-background:new 0 0 132.7 131;" xml:space="preserve">
<style type="text/css">
	.st0{fill:#FFDF57;}
	.st1{fill:#E9CA25;}
	.st2{fill:#F9E698;}
	.st3{fill:none;}
	.st4{enable-background:new    ;}
	.st5{fill:#252835;}
</style>
<g id="Sky">
</g>
<g id="Clouds">
</g>
<g id="Button">
</g>
<g id="B_1">
</g>
<g id="B2">
</g>
<g id="B3">
</g>
<g id="B4">
</g>
<g id="B5">
</g>
<g id="B6">
</g>
<g id="B7">
</g>
<g id="B8">
</g>
<g id="B9">
</g>
<g id="B10">
</g>
<g id="B11">
</g>
<g id="B12">
</g>
<g id="B13">
</g>
<g id="B14">
</g>
<g id="B15">
</g>
<g id="Head">
</g>
<g id="B16">
</g>
<g id="B17">
</g>
<g id="B18">
</g>
<g id="B19">
</g>
<g id="B20">
</g>
<g id="B21">
</g>
<g id="B22">
</g>
<g id="B23">
</g>
<g id="B24">
</g>
<g id="B25">
</g>
<g id="B26">
</g>
<g id="B27">
</g>
<g id="B28">
</g>
<g id="B29">
</g>
<g id="B30">
	<path class="st0" d="M108,107.2c-23.8,20-75.6,30.5-95.6,6.7s-0.6-73,23.2-93S95,4,115,27.8S131.8,87.2,108,107.2z"/>
	<polygon class="st1" points="15.3,111.4 0,113.6 10.5,126.1 	"/>
	<path class="st1" d="M108,107.2c21.7-18.2,26.2-49.3,11.7-72.7l0,0c0,0,27,81.8-89.9,90.5C54.1,132.5,89.5,122.7,108,107.2z"/>
	<path class="st2" d="M49.6,30.6C36.4,40.2,29.1,52.7,25.7,48c-3.5-4.8,4.4-16.4,17.6-26S70,8.5,73.5,13.3C77,18,62.8,21,49.6,30.6z
		"/>
	<g>
		<rect x="10.6" y="60.5" class="st3" width="111" height="30.9"/>
		<g class="st4">
			<path class="st5" d="M28.7,75.7V63.5l-4.8,6.8c-0.3,0.4-0.7,0.6-1,0.6s-0.7-0.2-1-0.6l-4.9-6.7v12.1c0,0.3-0.1,0.5-0.3,0.7
				c-0.2,0.2-0.4,0.3-0.7,0.3c-0.3,0-0.5-0.1-0.7-0.3C15.1,76.2,15,76,15,75.7V61.6c0-0.4,0.1-0.7,0.3-0.9c0.2-0.2,0.5-0.3,0.8-0.3
				c0.5,0,0.9,0.2,1.3,0.7l5.6,7.6l5.4-7.7c0.3-0.4,0.7-0.7,1.1-0.7c0.3,0,0.6,0.1,0.8,0.3s0.3,0.5,0.3,0.8v14.3
				c0,0.3-0.1,0.5-0.3,0.7c-0.2,0.2-0.4,0.3-0.7,0.3c-0.3,0-0.5-0.1-0.7-0.3C28.8,76.2,28.7,76,28.7,75.7z"/>
			<path class="st5" d="M44.2,70.7c0,0.3,0,0.4,0,0.5c0,0.2-0.1,0.4-0.3,0.5c-0.2,0.2-0.3,0.2-0.5,0.2h-7.3c0.1,1,0.4,1.7,1.1,2.3
				s1.5,0.8,2.5,0.8c1,0,1.8-0.2,2.5-0.6c0.2-0.1,0.3-0.1,0.5-0.1c0.2,0,0.4,0.1,0.6,0.3c0.1,0.1,0.1,0.2,0.1,0.4
				c0,0.3-0.1,0.5-0.3,0.6c-1.1,0.8-2.3,1.2-3.7,1.2c-1.7,0-3-0.5-4-1.5c-1-1-1.5-2.3-1.5-3.9c0-1.5,0.5-2.8,1.4-3.9
				c1-1,2.3-1.5,3.9-1.5c1.4,0,2.5,0.4,3.4,1.3C43.7,68.2,44.2,69.3,44.2,70.7z M36,70.5h6.3c0-0.9-0.3-1.5-0.9-2
				c-0.5-0.5-1.2-0.7-2.1-0.7c-0.9,0-1.7,0.3-2.2,0.8S36.1,69.6,36,70.5z"/>
			<path class="st5" d="M55,76.6h-8.4v1.7c0,0.2-0.1,0.5-0.3,0.6c-0.2,0.2-0.4,0.3-0.6,0.3c-0.2,0-0.5-0.1-0.6-0.3
				C45,78.7,45,78.5,45,78.2v-2.5c0-0.2,0.1-0.5,0.3-0.6c0.2-0.2,0.4-0.3,0.6-0.3h0.4c0.4-0.5,0.7-1.2,1-2.3
				c0.3-1.1,0.5-2.3,0.6-3.6l0.1-1.9c0-0.2,0.1-0.5,0.3-0.6s0.4-0.3,0.6-0.3h5.3c0.2,0,0.5,0.1,0.6,0.3c0.2,0.2,0.3,0.4,0.3,0.6v7.8
				h0.9c0.2,0,0.5,0.1,0.6,0.3s0.3,0.4,0.3,0.6v2.5c0,0.2-0.1,0.5-0.3,0.6c-0.2,0.2-0.4,0.3-0.6,0.3c-0.2,0-0.5-0.1-0.6-0.3
				c-0.2-0.2-0.3-0.4-0.3-0.6V76.6z M48.2,74.8h5v-6.9h-3.5l-0.1,1.7c-0.1,1.2-0.3,2.2-0.6,3.2C48.8,73.8,48.5,74.4,48.2,74.8z"/>
			<path class="st5" d="M68.3,67v8.8c0,0.4-0.1,0.6-0.4,0.7c-0.3,0.1-0.6,0.1-1,0c-0.3-0.1-0.5-0.4-0.4-0.7V69l-5.6,6.9
				c-0.5,0.6-0.9,0.8-1.3,0.8c-0.3,0-0.5-0.1-0.7-0.3c-0.2-0.2-0.3-0.4-0.3-0.6V67c0-0.4,0.1-0.6,0.4-0.7c0.3-0.1,0.6-0.1,1,0
				c0.3,0.1,0.5,0.4,0.4,0.7v6.9l5.6-6.9c0.5-0.6,0.9-0.9,1.3-0.9c0.3,0,0.5,0.1,0.7,0.3C68.2,66.6,68.3,66.8,68.3,67z"/>
			<path class="st5" d="M82.6,75.7v2.5c0,0.2-0.1,0.5-0.3,0.6c-0.2,0.2-0.4,0.3-0.6,0.3c-0.2,0-0.5-0.1-0.6-0.3
				c-0.2-0.2-0.3-0.4-0.3-0.6v-1.7h-8.3c-0.2,0-0.5-0.1-0.6-0.3c-0.2-0.2-0.3-0.4-0.3-0.6V67c0-0.4,0.1-0.6,0.4-0.7
				c0.3-0.1,0.6-0.1,1,0c0.3,0.1,0.5,0.4,0.4,0.7v7.9H79V67c0-0.4,0.1-0.6,0.4-0.7c0.3-0.1,0.6-0.1,1,0c0.3,0.1,0.5,0.4,0.4,0.7v7.9
				h0.9c0.2,0,0.5,0.1,0.6,0.3C82.5,75.2,82.6,75.5,82.6,75.7z"/>
			<path class="st5" d="M94.2,67v8.8c0,0.4-0.1,0.6-0.4,0.7c-0.3,0.1-0.6,0.1-1,0s-0.5-0.4-0.4-0.7V69l-5.6,6.9
				c-0.5,0.6-0.9,0.8-1.3,0.8c-0.3,0-0.5-0.1-0.7-0.3c-0.2-0.2-0.3-0.4-0.3-0.6V67c0-0.4,0.1-0.6,0.4-0.7c0.3-0.1,0.6-0.1,1,0
				c0.3,0.1,0.5,0.4,0.4,0.7v6.9l5.6-6.9c0.5-0.6,0.9-0.9,1.3-0.9c0.3,0,0.5,0.1,0.7,0.3C94.1,66.6,94.2,66.8,94.2,67z"/>
			<path class="st5" d="M107,67v8.9c0,0.4-0.1,0.6-0.4,0.7s-0.6,0.1-1,0c-0.3-0.1-0.5-0.4-0.4-0.7v-3.7h-5.8v3.7
				c0,0.4-0.1,0.6-0.4,0.7c-0.3,0.1-0.6,0.1-1,0c-0.3-0.1-0.5-0.4-0.4-0.7V67c0-0.4,0.1-0.6,0.4-0.7c0.3-0.1,0.6-0.1,1,0
				c0.3,0.1,0.5,0.4,0.4,0.7v3.5h5.8V67c0-0.4,0.1-0.6,0.4-0.7c0.3-0.1,0.6-0.1,1,0C106.8,66.4,107,66.6,107,67z"/>
			<path class="st5" d="M109.5,73.5c0-1,0.4-1.8,1.1-2.4c0.7-0.6,1.7-0.9,2.8-0.9c1.1,0,1.9,0.2,2.6,0.7c0-1.2-0.2-2-0.5-2.5
				s-0.9-0.8-1.9-0.8c-0.7,0-1.4,0.1-2.1,0.4c-0.1,0-0.2,0.1-0.3,0.1c-0.3,0-0.6-0.2-0.7-0.5c0-0.1-0.1-0.2-0.1-0.3
				c0-0.4,0.2-0.6,0.5-0.7c1-0.4,1.9-0.6,2.9-0.6c1.4,0,2.4,0.3,3,1c0.6,0.7,0.9,1.8,0.9,3.2v5.7c0,0.2-0.1,0.4-0.3,0.6
				c-0.2,0.2-0.4,0.2-0.6,0.2s-0.5-0.1-0.6-0.2c-0.2-0.2-0.3-0.3-0.3-0.6v-0.7c-0.8,1-1.9,1.5-3.3,1.5c-1,0-1.7-0.3-2.3-0.9
				C109.8,75.3,109.5,74.5,109.5,73.5z M116,73.7v-1.3c-0.6-0.5-1.4-0.7-2.3-0.7c-0.6,0-1.2,0.1-1.6,0.4c-0.4,0.3-0.6,0.7-0.6,1.3
				c0,0.5,0.2,0.9,0.5,1.2s0.8,0.4,1.4,0.4C114.4,75.1,115.3,74.6,116,73.7z"/>
		</g>
	</g>
</g>
<g id="B31">
</g>
<g id="B32">
</g>
<g id="B33">
</g>
</svg>
