<?xml version="1.0" encoding="utf-8"?>
<!-- Generator: Adobe Illustrator 17.1.0, SVG Export Plug-In . SVG Version: 6.00 Build 0)  -->
<!DOCTYPE svg PUBLIC "-//W3C//DTD SVG 1.1//EN" "http://www.w3.org/Graphics/SVG/1.1/DTD/svg11.dtd">
<svg version="1.1" xmlns="http://www.w3.org/2000/svg" xmlns:xlink="http://www.w3.org/1999/xlink" x="0px" y="0px"
	 viewBox="0 0 264 187.9" enable-background="new 0 0 264 187.9" xml:space="preserve">
<g id="Sky">
</g>
<g id="Clouds">
</g>
<g id="Button">
</g>
<g id="B_1">
</g>
<g id="B2">
</g>
<g id="B3">
</g>
<g id="B4">
</g>
<g id="B5">
</g>
<g id="B6">
</g>
<g id="B7">
</g>
<g id="B8">
</g>
<g id="B9">
</g>
<g id="B10">
</g>
<g id="B11">
</g>
<g id="B12">
</g>
<g id="B13">
</g>
<g id="B14">
</g>
<g id="B15">
	<path fill="#FFDF57" d="M194.8,132c-26.4,30.9-90.8,55.5-121.7,29.1S56.7,67.3,83.1,36.4s72.8-34.5,103.7-8.1
		S221.2,101.1,194.8,132z"/>
	<polygon fill="#E9CA25" points="76.4,157.4 57.2,163.4 73.4,177.2 	"/>
	<path fill="#E9CA25" d="M194.8,132c24-28.1,23.2-69.1-0.5-96.2l0,0c0,0,52.4,99.5-96.4,135.8C130.8,176.2,174.3,156,194.8,132z"/>
	<g>
		<rect x="58.3" y="84.1" fill="none" width="151.6" height="53.9"/>
		<text transform="matrix(1 0 0 1 63.766 100.1853)"><tspan x="0" y="0" fill="#252835" font-family="'CirceRounded-Regular'" font-size="23">Иностранные</tspan><tspan x="40.5" y="27.6" fill="#252835" font-family="'CirceRounded-Regular'" font-size="23">языки</tspan></text>
	</g>
	<path fill="#F9E698" d="M110.7,38.1C94.4,47.3,85,61.2,81.3,54.8c-3.7-6.4,6.5-19.1,22.7-28.4s32.3-11.4,36-5
		C143.7,27.9,126.9,28.9,110.7,38.1z"/>
</g>
<g id="Head">
</g>
<g id="B16">
</g>
<g id="B17">
</g>
<g id="B18">
</g>
<g id="B19">
</g>
<g id="B20">
</g>
<g id="B21">
</g>
<g id="B22">
</g>
<g id="B23">
</g>
<g id="B24">
</g>
<g id="B25">
</g>
<g id="B26">
</g>
<g id="B27">
</g>
<g id="B28">
</g>
<g id="B29">
</g>
<g id="B30">
</g>
<g id="B31">
</g>
<g id="B32">
</g>
<g id="B33">
</g>
</svg>
