<?xml version="1.0" encoding="utf-8"?>
<!-- Generator: Adobe Illustrator 17.1.0, SVG Export Plug-In . SVG Version: 6.00 Build 0)  -->
<!DOCTYPE svg PUBLIC "-//W3C//DTD SVG 1.1//EN" "http://www.w3.org/Graphics/SVG/1.1/DTD/svg11.dtd">
<svg version="1.1" xmlns="http://www.w3.org/2000/svg" xmlns:xlink="http://www.w3.org/1999/xlink" x="0px" y="0px"
	 viewBox="0 0 264 255" enable-background="new 0 0 264 255" xml:space="preserve">
<g id="Sky">
</g>
<g id="Clouds">
</g>
<g id="Button">
</g>
<g id="B_1">
</g>
<g id="B2">
</g>
<g id="B3">
</g>
<g id="B4">
</g>
<g id="B5">
</g>
<g id="B6">
</g>
<g id="B7">
</g>
<g id="B8">
</g>
<g id="B9">
</g>
<g id="B10">
</g>
<g id="B11">
</g>
<g id="B12">
</g>
<g id="B13">
</g>
<g id="B14">
</g>
<g id="B15">
</g>
<g id="Head">
</g>
<g id="B16">
</g>
<g id="B17">
</g>
<g id="B18">
</g>
<g id="B19">
</g>
<g id="B20">
	<path fill="#75AEB9" d="M168.8,167.6c-20,23.3-68.6,41.8-91.9,21.8s-12.3-70.8,7.6-94.1s55-25.9,78.2-6S188.8,144.3,168.8,167.6z"
		/>
	<polygon fill="#4E9DA3" points="79.4,186.6 64.9,191.1 77.1,201.6 	"/>
	<path fill="#4E9DA3" d="M168.8,167.6c18.2-21.2,17.6-52.1-0.3-72.6l0,0c0,0,39.4,75.1-72.9,102.4
		C120.5,200.9,153.3,185.6,168.8,167.6z"/>
	<g>
		<rect x="73.4" y="121.7" fill="none" width="98.9" height="53.4"/>
		<text transform="matrix(1 0 0 1 78.0321 137.7952)"><tspan x="0" y="0" fill="#252835" font-family="'CirceRounded-Regular'" font-size="23">Военное </tspan><tspan x="20.2" y="27.6" fill="#252835" font-family="'CirceRounded-Regular'" font-size="23">дело</tspan></text>
	</g>
	<path fill="#91BEC7" d="M108.6,100.2c-15.2,8.6-23.8,22.2-27.5,15.6c-3.7-6.6,5.5-18.9,20.7-27.6s30.5-10.3,34.3-3.7
		S123.7,91.6,108.6,100.2z"/>
</g>
<g id="B21">
</g>
<g id="B22">
</g>
<g id="B23">
</g>
<g id="B24">
</g>
<g id="B25">
</g>
<g id="B26">
</g>
<g id="B27">
</g>
<g id="B28">
</g>
<g id="B29">
</g>
<g id="B30">
</g>
<g id="B31">
</g>
<g id="B32">
</g>
<g id="B33">
</g>
</svg>
