<?xml version="1.0" encoding="utf-8"?>
<!-- Generator: Adobe Illustrator 17.1.0, SVG Export Plug-In . SVG Version: 6.00 Build 0)  -->
<!DOCTYPE svg PUBLIC "-//W3C//DTD SVG 1.1//EN" "http://www.w3.org/Graphics/SVG/1.1/DTD/svg11.dtd">
<svg version="1.1" xmlns="http://www.w3.org/2000/svg" xmlns:xlink="http://www.w3.org/1999/xlink" x="0px" y="0px"
	 viewBox="0 0 226 214.8" enable-background="new 0 0 226 214.8" xml:space="preserve">
<g id="Sky">
</g>
<g id="Cluds">
</g>
<g id="Button">
</g>
<g id="Bubble1">
</g>
<g id="Bubble2">
</g>
<g id="B1">
</g>
<g id="B2">
</g>
<g id="B3">
	<polygon fill="#E9CA25" points="61.3,165.9 48.4,170.4 59.8,179.5 	"/>
	<g>
		<g>
			<path fill="#FFDF57" d="M166.9,139.2c-22,27.8-77.3,51.4-105,29.4s-17.4-81.2,4.5-109s62.3-32.4,90.1-10.5
				S188.9,111.5,166.9,139.2z"/>
			<path fill="#F9E698" d="M93.8,64.8c-17.1,9.7-26.8,25.1-31,17.6C58.5,74.9,69,61,86.1,51.3s34.4-11.6,38.7-4.1
				S110.9,55,93.8,64.8z"/>
			<path fill="#E9CA25" d="M81.4,176.7C201.2,152.4,165,57.3,165,57.3s34.4,37.3,1.9,81.9S81.4,176.7,81.4,176.7z"/>
		</g>
		<g>
			<rect x="49.5" y="101.2" fill="none" width="128.8" height="30.9"/>
			<text transform="matrix(1 0 0 1 49.5394 117.292)" fill="#313547" font-family="'CirceRounded-Regular'" font-size="23">Техническая</text>
		</g>
	</g>
</g>
</svg>
