<?xml version="1.0" encoding="utf-8"?>
<!-- Generator: Adobe Illustrator 22.1.0, SVG Export Plug-In . SVG Version: 6.00 Build 0)  -->
<svg version="1.1" id="Слой_1" xmlns="http://www.w3.org/2000/svg" xmlns:xlink="http://www.w3.org/1999/xlink" x="0px" y="0px"
	 viewBox="0 0 123 127.2" style="enable-background:new 0 0 123 127.2;" xml:space="preserve">
<style type="text/css">
	.st0{fill:#75AEB9;}
	.st1{fill:#4E9DA3;}
	.st2{fill:#91BEC7;}
	.st3{fill:none;}
	.st4{enable-background:new    ;}
	.st5{fill:#252835;}
</style>
<g id="Sky">
</g>
<g id="Clouds">
</g>
<g id="Button">
</g>
<g id="B_1">
</g>
<g id="B2">
</g>
<g id="B3">
</g>
<g id="B4">
</g>
<g id="B5">
</g>
<g id="B6">
</g>
<g id="B7">
	<path class="st0" d="M105.4,93.5c-19,22.6-65.8,41-88.5,21.9S4.4,47.1,23.4,24.5S76.3-1,99,18S124.5,70.9,105.4,93.5z"/>
	<polygon class="st1" points="19.3,112.7 5.4,117.2 17.3,127.2 	"/>
	<path class="st1" d="M105.4,93.5c17.4-20.6,16.5-50.5-0.9-70l0,0c0,0,38.7,72.2-69.4,99.5C59.1,126.1,90.6,111.1,105.4,93.5z"/>
	<path class="st2" d="M52.1,23c-12.5,4.1-20.9,12.8-22.6,7.4c-1.8-5.4,6.9-13.1,19.4-17.2s24.1-3,25.9,2.4S64.6,18.9,52.1,23z"/>
	<g>
		<rect x="20" y="40.6" class="st3" width="85.6" height="76.5"/>
		<g class="st4">
			<path class="st5" d="M39.8,55.9V43.6l-4.8,6.8c-0.3,0.4-0.7,0.6-1,0.6s-0.7-0.2-1-0.6L28,43.8v12.1c0,0.3-0.1,0.5-0.3,0.7
				c-0.2,0.2-0.4,0.3-0.7,0.3c-0.3,0-0.5-0.1-0.7-0.3c-0.2-0.2-0.3-0.4-0.3-0.7V41.7c0-0.4,0.1-0.7,0.3-0.9c0.2-0.2,0.5-0.3,0.8-0.3
				c0.5,0,0.9,0.2,1.3,0.7l5.6,7.6l5.4-7.7c0.3-0.4,0.7-0.7,1.1-0.7c0.3,0,0.6,0.1,0.8,0.3s0.3,0.5,0.3,0.8v14.3
				c0,0.3-0.1,0.5-0.3,0.7c-0.2,0.2-0.4,0.3-0.7,0.3c-0.3,0-0.5-0.1-0.7-0.3C39.9,56.3,39.8,56.1,39.8,55.9z"/>
			<path class="st5" d="M46.6,46.8l2.8,6.1c0,0.1,0.2,0.6,0.6,1.6c0.1-0.5,0.3-1,0.5-1.6l2.2-6c0.2-0.5,0.5-0.7,0.9-0.7
				c0.3,0,0.6,0.1,0.7,0.2c0.2,0.2,0.3,0.4,0.3,0.7c0,0.1,0,0.3-0.1,0.4l-3.7,9.1c-0.7,1.8-1.3,3-1.9,3.7c-0.6,0.6-1.3,0.9-2,0.9
				c-1.2,0-1.8-0.4-1.8-1.1c0-0.5,0.2-0.7,0.7-0.7c0,0,0.2,0,0.4,0.1c0.2,0,0.4,0.1,0.5,0.1c0.4,0,0.8-0.2,1.2-0.6
				c0.3-0.4,0.7-1,1-1.8l0.2-0.6l-4.3-9.1c-0.1-0.1-0.1-0.3-0.1-0.4c0-0.3,0.1-0.5,0.3-0.7c0.2-0.2,0.4-0.3,0.7-0.3
				C46.1,46.2,46.4,46.4,46.6,46.8z"/>
			<path class="st5" d="M60.1,46.1c1.2,0,2.2,0.2,2.9,0.7c0.7,0.5,1,1.2,1,2c0,1.2-0.6,2-1.8,2.5c0.7,0.1,1.2,0.4,1.6,0.8
				c0.4,0.5,0.6,1,0.6,1.6c0,1-0.4,1.7-1.2,2.3c-0.8,0.6-1.9,0.8-3.2,0.8c-1.4,0-2.6-0.3-3.6-0.9c-0.3-0.2-0.4-0.4-0.4-0.7
				c0-0.2,0.1-0.3,0.2-0.5c0.2-0.2,0.4-0.4,0.7-0.4c0.2,0,0.3,0,0.5,0.1c0.8,0.5,1.6,0.7,2.3,0.7c0.8,0,1.4-0.2,2-0.5
				c0.5-0.3,0.8-0.7,0.8-1.2c0-0.4-0.2-0.8-0.5-1c-0.4-0.2-0.9-0.3-1.5-0.3h-1c-0.2,0-0.4-0.1-0.6-0.2c-0.2-0.1-0.2-0.3-0.2-0.5
				c0-0.2,0.1-0.4,0.2-0.5c0.2-0.1,0.3-0.2,0.6-0.2h0.9c0.5,0,1-0.1,1.3-0.4c0.3-0.3,0.5-0.6,0.5-1c0-0.5-0.2-0.8-0.6-1.1
				s-0.9-0.4-1.6-0.4c-0.8,0-1.6,0.2-2.4,0.6c-0.1,0.1-0.3,0.1-0.4,0.1c-0.3,0-0.5-0.1-0.7-0.4c-0.1-0.1-0.1-0.2-0.1-0.4
				c0-0.3,0.2-0.5,0.5-0.7C57.6,46.4,58.8,46.1,60.1,46.1z"/>
			<path class="st5" d="M69,47.1v2.3h1.7c1.4,0,2.4,0.3,3.1,1c0.7,0.6,1,1.5,1,2.6c0,1.1-0.4,2-1.1,2.7s-1.8,1-3.2,1H68
				c-0.2,0-0.5-0.1-0.6-0.3s-0.3-0.4-0.3-0.6v-8.7c0-0.4,0.1-0.6,0.4-0.7c0.3-0.1,0.6-0.1,1,0C68.8,46.5,69,46.7,69,47.1z M69,51.1
				v3.8h1.3c0.9,0,1.5-0.2,1.9-0.5s0.6-0.8,0.6-1.4c0-1.3-0.8-1.9-2.5-1.9H69z M78.6,47.1V56c0,0.4-0.1,0.6-0.4,0.7
				c-0.3,0.1-0.6,0.1-1,0s-0.5-0.4-0.4-0.7v-8.9c0-0.4,0.1-0.6,0.4-0.7c0.3-0.1,0.6-0.1,1,0C78.5,46.5,78.6,46.7,78.6,47.1z"/>
			<path class="st5" d="M83.7,47.1V56c0,0.4-0.1,0.6-0.4,0.7s-0.6,0.1-1,0s-0.5-0.4-0.4-0.7v-8.9c0-0.4,0.1-0.6,0.4-0.7
				c0.3-0.1,0.6-0.1,1,0C83.6,46.5,83.8,46.7,83.7,47.1z M88.6,56.4L84.7,52c-0.2-0.2-0.2-0.4-0.2-0.7c0-0.3,0.1-0.5,0.2-0.6l3.5-4
				c0.3-0.3,0.5-0.5,0.9-0.5c0.3,0,0.5,0.1,0.7,0.3c0.2,0.2,0.2,0.4,0.2,0.6c0,0.2-0.1,0.4-0.2,0.6l-3.3,3.6l3.7,4
				c0.2,0.2,0.3,0.4,0.3,0.7c0,0.2-0.1,0.5-0.3,0.6c-0.2,0.2-0.4,0.3-0.7,0.3C89.1,56.8,88.8,56.7,88.6,56.4z"/>
			<path class="st5" d="M92.2,53.6c0-1,0.4-1.8,1.1-2.4c0.7-0.6,1.7-0.9,2.8-0.9c1.1,0,1.9,0.2,2.6,0.7c0-1.2-0.2-2-0.5-2.5
				s-0.9-0.8-1.9-0.8c-0.7,0-1.4,0.1-2.1,0.4c-0.1,0-0.2,0.1-0.3,0.1c-0.3,0-0.6-0.2-0.7-0.5c0-0.1-0.1-0.2-0.1-0.3
				c0-0.4,0.2-0.6,0.5-0.7c1-0.4,1.9-0.6,2.9-0.6c1.4,0,2.4,0.3,3,1c0.6,0.7,0.9,1.8,0.9,3.2V56c0,0.2-0.1,0.4-0.3,0.6
				c-0.2,0.2-0.4,0.2-0.6,0.2s-0.5-0.1-0.6-0.2c-0.2-0.2-0.3-0.3-0.3-0.6v-0.7c-0.8,1-1.9,1.5-3.3,1.5c-1,0-1.7-0.3-2.3-0.9
				C92.5,55.4,92.2,54.6,92.2,53.6z M98.7,53.8v-1.3c-0.6-0.5-1.4-0.7-2.3-0.7c-0.6,0-1.2,0.1-1.6,0.4c-0.4,0.3-0.6,0.7-0.6,1.3
				c0,0.5,0.2,0.9,0.5,1.2s0.8,0.4,1.4,0.4C97.1,55.2,98,54.7,98.7,53.8z"/>
		</g>
		<g class="st4">
			<path class="st5" d="M43,70h-4.7v13.5c0,0.3-0.1,0.5-0.3,0.7c-0.2,0.2-0.4,0.3-0.7,0.3c-0.3,0-0.5-0.1-0.7-0.3
				c-0.2-0.2-0.3-0.4-0.3-0.7V70h-4.7c-0.2,0-0.5-0.1-0.6-0.3c-0.2-0.2-0.3-0.4-0.3-0.6s0.1-0.5,0.3-0.6c0.2-0.2,0.4-0.3,0.6-0.3H43
				c0.2,0,0.5,0.1,0.6,0.3c0.2,0.2,0.3,0.4,0.3,0.6s-0.1,0.5-0.3,0.6C43.4,69.9,43.2,70,43,70z"/>
			<path class="st5" d="M42.2,81.2c0-1,0.4-1.8,1.1-2.4c0.7-0.6,1.7-0.9,2.8-0.9c1.1,0,1.9,0.2,2.6,0.7c0-1.2-0.2-2-0.5-2.5
				c-0.3-0.5-0.9-0.8-1.9-0.8c-0.7,0-1.4,0.1-2.1,0.4c-0.1,0-0.2,0.1-0.3,0.1c-0.3,0-0.6-0.2-0.7-0.5c0-0.1-0.1-0.2-0.1-0.3
				c0-0.4,0.2-0.6,0.5-0.7c1-0.4,1.9-0.6,2.9-0.6c1.4,0,2.4,0.3,3,1c0.6,0.7,0.9,1.8,0.9,3.2v5.7c0,0.2-0.1,0.4-0.3,0.6
				c-0.2,0.2-0.4,0.2-0.6,0.2s-0.5-0.1-0.6-0.2c-0.2-0.2-0.3-0.3-0.3-0.6v-0.7c-0.8,1-1.9,1.5-3.3,1.5c-1,0-1.7-0.3-2.3-0.9
				C42.5,83,42.2,82.2,42.2,81.2z M48.7,81.4v-1.3c-0.6-0.5-1.4-0.7-2.3-0.7c-0.6,0-1.2,0.1-1.6,0.4c-0.4,0.3-0.6,0.7-0.6,1.3
				c0,0.5,0.2,0.9,0.5,1.2c0.3,0.3,0.8,0.4,1.4,0.4C47,82.8,47.9,82.3,48.7,81.4z"/>
			<path class="st5" d="M62.9,74.7v8.9c0,0.4-0.1,0.6-0.4,0.7s-0.6,0.1-1,0c-0.3-0.1-0.5-0.4-0.4-0.7v-3.7h-5.8v3.7
				c0,0.4-0.1,0.6-0.4,0.7c-0.3,0.1-0.6,0.1-1,0c-0.3-0.1-0.5-0.4-0.4-0.7v-8.9c0-0.4,0.1-0.6,0.4-0.7c0.3-0.1,0.6-0.1,1,0
				c0.3,0.1,0.5,0.4,0.4,0.7v3.5h5.8v-3.5c0-0.4,0.1-0.6,0.4-0.7c0.3-0.1,0.6-0.1,1,0C62.8,74.1,63,74.3,62.9,74.7z"/>
			<path class="st5" d="M77.2,83.4v2.5c0,0.2-0.1,0.5-0.3,0.6c-0.2,0.2-0.4,0.3-0.6,0.3c-0.2,0-0.5-0.1-0.6-0.3
				c-0.2-0.2-0.3-0.4-0.3-0.6v-1.7h-8.3c-0.2,0-0.5-0.1-0.6-0.3s-0.3-0.4-0.3-0.6v-8.7c0-0.4,0.1-0.6,0.4-0.7c0.3-0.1,0.6-0.1,1,0
				c0.3,0.1,0.5,0.4,0.4,0.7v7.9h5.5v-7.9c0-0.4,0.1-0.6,0.4-0.7c0.3-0.1,0.6-0.1,1,0c0.3,0.1,0.5,0.4,0.4,0.7v7.9h0.9
				c0.2,0,0.5,0.1,0.6,0.3S77.2,83.2,77.2,83.4z"/>
			<path class="st5" d="M81,74.7V77h1.7c1.4,0,2.4,0.3,3.1,1c0.7,0.6,1,1.5,1,2.6c0,1.1-0.4,2-1.1,2.7c-0.7,0.7-1.8,1-3.2,1h-2.5
				c-0.2,0-0.5-0.1-0.6-0.3c-0.2-0.2-0.3-0.4-0.3-0.6v-8.7c0-0.4,0.1-0.6,0.4-0.7c0.3-0.1,0.6-0.1,1,0C80.9,74.1,81.1,74.3,81,74.7z
				 M81,78.7v3.8h1.3c0.9,0,1.5-0.2,1.9-0.5c0.4-0.3,0.6-0.8,0.6-1.4c0-1.3-0.8-1.9-2.5-1.9H81z M90.6,74.7v8.9
				c0,0.4-0.1,0.6-0.4,0.7s-0.6,0.1-1,0c-0.3-0.1-0.5-0.4-0.4-0.7v-8.9c0-0.4,0.1-0.6,0.4-0.7c0.3-0.1,0.6-0.1,1,0
				C90.5,74.1,90.7,74.3,90.6,74.7z"/>
		</g>
	</g>
</g>
<g id="B8">
</g>
<g id="B9">
</g>
<g id="B10">
</g>
<g id="B11">
</g>
<g id="B12">
</g>
<g id="B13">
</g>
<g id="B14">
</g>
<g id="B15">
</g>
<g id="Head">
</g>
<g id="B16">
</g>
<g id="B17">
</g>
<g id="B18">
</g>
<g id="B19">
</g>
<g id="B20">
</g>
<g id="B21">
</g>
<g id="B22">
</g>
<g id="B23">
</g>
<g id="B24">
</g>
<g id="B25">
</g>
<g id="B26">
</g>
<g id="B27">
</g>
<g id="B28">
</g>
<g id="B29">
</g>
<g id="B30">
</g>
<g id="B31">
</g>
<g id="B32">
</g>
<g id="B33">
</g>
</svg>
