<?xml version="1.0" encoding="utf-8"?>
<!-- Generator: Adobe Illustrator 17.1.0, SVG Export Plug-In . SVG Version: 6.00 Build 0)  -->
<!DOCTYPE svg PUBLIC "-//W3C//DTD SVG 1.1//EN" "http://www.w3.org/Graphics/SVG/1.1/DTD/svg11.dtd">
<svg version="1.1" xmlns="http://www.w3.org/2000/svg" xmlns:xlink="http://www.w3.org/1999/xlink" x="0px" y="0px"
	 viewBox="0 0 276.9 187.9" enable-background="new 0 0 276.9 187.9" xml:space="preserve">
<g id="Sky">
</g>
<g id="Clouds">
</g>
<g id="Button">
</g>
<g id="B_1">
</g>
<g id="B2">
</g>
<g id="B3">
</g>
<g id="B4">
</g>
<g id="B5">
</g>
<g id="B6">
</g>
<g id="B7">
</g>
<g id="B8">
</g>
<g id="B9">
</g>
<g id="B10">
</g>
<g id="B11">
</g>
<g id="B12">
	<g>
		<path fill="#96CD7C" d="M170.4,118.6c-15.9,15.3-52.1,25.1-67.4,9.2s-3.8-51.6,12.1-66.9s41.2-14.7,56.5,1.2
			S186.3,103.4,170.4,118.6z"/>
		<polygon fill="#84CB66" points="104.9,126 94.2,128.2 102.3,136.6 		"/>
		<path fill="#84CB66" d="M170.4,118.6c14.5-13.9,16.3-36.1,4.9-52l0,0c0,0,22.9,56.6-59.4,68.2C133.4,139.1,158,130.5,170.4,118.6z
			"/>
	</g>
	<g>
		<rect x="104.8" y="86.3" fill="none" width="77.1" height="30.9"/>
		<text transform="matrix(1 0 0 1 104.7624 102.395)" fill="#252835" font-family="'CirceRounded-Regular'" font-size="23">Туризм</text>
	</g>
	<path fill="#ABD796" d="M121.6,70.7c-8.7,7.9-12.8,17.6-15.7,14.4s1.7-12.3,10.3-20.3s18.1-11.7,21.1-8.5
		C140.3,59.6,130.3,62.8,121.6,70.7z"/>
</g>
<g id="B13">
</g>
<g id="B14">
</g>
<g id="B15">
</g>
<g id="Head">
</g>
<g id="B16">
</g>
<g id="B17">
</g>
<g id="B18">
</g>
<g id="B19">
</g>
<g id="B20">
</g>
<g id="B21">
</g>
<g id="B22">
</g>
<g id="B23">
</g>
<g id="B24">
</g>
<g id="B25">
</g>
<g id="B26">
</g>
<g id="B27">
</g>
<g id="B28">
</g>
<g id="B29">
</g>
<g id="B30">
</g>
<g id="B31">
</g>
<g id="B32">
</g>
<g id="B33">
</g>
</svg>
