<?xml version="1.0" encoding="utf-8"?>
<!-- Generator: Adobe Illustrator 17.1.0, SVG Export Plug-In . SVG Version: 6.00 Build 0)  -->
<!DOCTYPE svg PUBLIC "-//W3C//DTD SVG 1.1//EN" "http://www.w3.org/Graphics/SVG/1.1/DTD/svg11.dtd">
<svg version="1.1" xmlns="http://www.w3.org/2000/svg" xmlns:xlink="http://www.w3.org/1999/xlink" x="0px" y="0px"
	 viewBox="0 0 297 185.7" enable-background="new 0 0 297 185.7" xml:space="preserve">
<g id="Sky">
</g>
<g id="Clouds">
</g>
<g id="Button">
</g>
<g id="B_1">
</g>
<g id="B2">
</g>
<g id="B3">
</g>
<g id="B4">
</g>
<g id="B5">
</g>
<g id="B6">
</g>
<g id="B7">
</g>
<g id="B8">
</g>
<g id="B9">
</g>
<g id="B10">
	<path fill="#96CD7C" d="M190.7,142.3c-28.3,16.7-84.1,18.8-100.8-9.5s11.9-76.2,40.2-92.9s64.8-7.4,81.5,20.9
		S219,125.5,190.7,142.3z"/>
	<polygon fill="#9AD17D" points="93.4,130.7 77.1,130.3 85.9,145.1 	"/>
	<path fill="#84CB66" d="M190.7,142.3c25.8-15.2,35.8-46.9,24.8-73.8l0,0c0,0,14.1,89.9-109.3,78.8
		C130.1,159.4,168.7,155.3,190.7,142.3z"/>
	<path fill="#ABD796" d="M133.2,58.1c-14,9.6-21.9,22.3-25.3,17.4c-3.4-4.9,5.2-16.7,19.2-26.3s28-13.4,31.4-8.5
		C161.9,45.7,147.2,48.5,133.2,58.1z"/>
	<g>
		<rect x="92.6" y="91" fill="none" width="122.9" height="30.9"/>
		<text transform="matrix(1 0 0 1 92.624 107.0694)" fill="#252835" font-family="'CirceRounded-Regular'" font-size="23">Психология</text>
	</g>
</g>
<g id="B11">
</g>
<g id="B12">
</g>
<g id="B13">
</g>
<g id="B14">
</g>
<g id="B15">
</g>
<g id="Head">
</g>
<g id="B16">
</g>
<g id="B17">
</g>
<g id="B18">
</g>
<g id="B19">
</g>
<g id="B20">
</g>
<g id="B21">
</g>
<g id="B22">
</g>
<g id="B23">
</g>
<g id="B24">
</g>
<g id="B25">
</g>
<g id="B26">
</g>
<g id="B27">
</g>
<g id="B28">
</g>
<g id="B29">
</g>
<g id="B30">
</g>
<g id="B31">
</g>
<g id="B32">
</g>
<g id="B33">
</g>
</svg>
