<?xml version="1.0" encoding="utf-8"?>
<!-- Generator: Adobe Illustrator 17.1.0, SVG Export Plug-In . SVG Version: 6.00 Build 0)  -->
<!DOCTYPE svg PUBLIC "-//W3C//DTD SVG 1.1//EN" "http://www.w3.org/Graphics/SVG/1.1/DTD/svg11.dtd">
<svg version="1.1" xmlns="http://www.w3.org/2000/svg" xmlns:xlink="http://www.w3.org/1999/xlink" x="0px" y="0px"
	 viewBox="0 0 250.3 195" enable-background="new 0 0 250.3 195" xml:space="preserve">
<g id="Sky">
</g>
<g id="Clouds">
</g>
<g id="Button">
</g>
<g id="B_1">
</g>
<g id="B2">
</g>
<g id="B3">
</g>
<g id="B4">
</g>
<g id="B5">
	<path fill="#FFDF57" d="M157.4,134.9c-25.5,16.9-77.3,21.5-94.2-4s7.5-71.5,33-88.4s59.9-9.9,76.8,15.6S182.9,118,157.4,134.9z"/>
	<polygon fill="#E9CA25" points="66.3,128.8 51.2,129.2 60,142.6 	"/>
	<path fill="#E9CA25" d="M157.4,134.9c23.2-15.4,31.1-45.3,19.5-69.8l0,0c0,0,17.4,82.9-97.9,78.5
		C101.9,153.7,137.6,148,157.4,134.9z"/>
	<g>
		<rect x="57.6" y="83.3" fill="none" width="122.8" height="30.9"/>
		<text transform="matrix(1 0 0 1 65.1539 99.4286)" fill="#252835" font-family="'CirceRounded-Regular'" font-size="23">Животные</text>
	</g>
	<path fill="#F9E698" d="M119,50.5C105.5,53,95.7,60.9,94.6,55c-1.1-5.8,8.9-12.6,22.4-15.2s25.3,0.2,26.4,6S132.5,47.9,119,50.5z"
		/>
</g>
<g id="B6">
</g>
<g id="B7">
</g>
<g id="B8">
</g>
<g id="B9">
</g>
<g id="B10">
</g>
<g id="B11">
</g>
<g id="B12">
</g>
<g id="B13">
</g>
<g id="B14">
</g>
<g id="B15">
</g>
<g id="Head">
</g>
<g id="B16">
</g>
<g id="B17">
</g>
<g id="B18">
</g>
<g id="B19">
</g>
<g id="B20">
</g>
<g id="B21">
</g>
<g id="B22">
</g>
<g id="B23">
</g>
<g id="B24">
</g>
<g id="B25">
</g>
<g id="B26">
</g>
<g id="B27">
</g>
<g id="B28">
</g>
<g id="B29">
</g>
<g id="B30">
</g>
<g id="B31">
</g>
<g id="B32">
</g>
<g id="B33">
</g>
</svg>
