<?xml version="1.0" encoding="utf-8"?>
<!-- Generator: Adobe Illustrator 22.1.0, SVG Export Plug-In . SVG Version: 6.00 Build 0)  -->
<svg version="1.1" id="Слой_1" xmlns="http://www.w3.org/2000/svg" xmlns:xlink="http://www.w3.org/1999/xlink" x="0px" y="0px"
	 viewBox="0 0 185 177" style="enable-background:new 0 0 185 177;" xml:space="preserve">
<style type="text/css">
	.st0{fill:#75AEB9;}
	.st1{fill:#4E9DA3;}
	.st2{fill:none;}
	.st3{enable-background:new    ;}
	.st4{fill:#252835;}
	.st5{fill:#91BEC7;}
</style>
<g id="Sky">
</g>
<g id="Clouds">
</g>
<g id="Button">
</g>
<g id="B_1">
</g>
<g id="B2">
</g>
<g id="B3">
</g>
<g id="B4">
</g>
<g id="B5">
</g>
<g id="B6">
</g>
<g id="B7">
</g>
<g id="B8">
</g>
<g id="B9">
</g>
<g id="B10">
</g>
<g id="B11">
</g>
<g id="B12">
</g>
<g id="B13">
</g>
<g id="B14">
</g>
<g id="B15">
</g>
<g id="Head">
</g>
<g id="B16">
</g>
<g id="B17">
	<path class="st0" d="M152.8,142.7c-32.7,27.4-103.6,41.8-131,9.2s-0.9-100,31.8-127.4S134.9,1.3,162.4,34S185.5,115.3,152.8,142.7z
		"/>
	<polygon class="st1" points="25.8,148.6 4.9,151.5 19.3,168.7 	"/>
	<path class="st1" d="M152.8,142.7c29.7-25,35.9-67.6,16.1-99.7l0,0c0,0,37.1,112.1-123.2,124C78.9,177.5,127.5,164,152.8,142.7z"/>
	<g>
		<rect x="18.6" y="88.5" class="st2" width="153" height="30.9"/>
		<g class="st3">
			<path class="st4" d="M31.6,90.9c-0.2,0-0.4,0-0.6-0.1c-0.9-0.5-2-0.7-3.3-0.7c-1.7,0-3.2,0.6-4.3,1.8c-1.1,1.2-1.7,2.7-1.7,4.6
				c0,1.9,0.6,3.5,1.7,4.6c1.2,1.2,2.7,1.8,4.5,1.8c1.2,0,2.4-0.3,3.3-0.9c0.2-0.1,0.3-0.2,0.6-0.2c0.3,0,0.5,0.1,0.7,0.3
				c0.1,0.1,0.2,0.3,0.2,0.5c0,0.3-0.1,0.6-0.4,0.8c-1.3,0.9-2.8,1.3-4.5,1.3c-2.4,0-4.4-0.8-5.9-2.3c-1.5-1.5-2.3-3.5-2.3-6
				c0-2.4,0.7-4.3,2.2-5.9c1.5-1.6,3.4-2.3,5.8-2.3c1.6,0,3.1,0.4,4.2,1.1c0.3,0.2,0.5,0.5,0.5,0.8c0,0.2,0,0.3-0.1,0.4
				C32.2,90.8,32,90.9,31.6,90.9z"/>
			<path class="st4" d="M38.2,96v7.8c0,0.4-0.1,0.6-0.4,0.7c-0.3,0.1-0.6,0.1-1,0c-0.3-0.1-0.5-0.4-0.4-0.7V96h-2.9
				c-0.4,0-0.6-0.1-0.7-0.4c-0.1-0.3-0.1-0.6,0-1c0.1-0.3,0.4-0.5,0.7-0.4h7.7c0.4,0,0.6,0.1,0.7,0.4c0.1,0.3,0.1,0.6,0,1
				c-0.1,0.3-0.4,0.5-0.7,0.4H38.2z"/>
			<path class="st4" d="M45.8,104.1v4.2c0,0.4-0.1,0.6-0.4,0.7c-0.3,0.1-0.6,0.1-1,0c-0.3-0.1-0.5-0.4-0.4-0.7V95
				c0-0.4,0.1-0.6,0.4-0.7c0.3-0.1,0.6-0.1,1,0c0.3,0.1,0.5,0.4,0.4,0.7v0.5c0.4-0.4,0.9-0.8,1.5-1c0.6-0.3,1.3-0.4,2-0.4
				c1.5,0,2.6,0.5,3.5,1.4c0.9,1,1.3,2.3,1.3,3.8c0,1.6-0.5,2.9-1.5,4c-1,1.1-2.3,1.6-3.9,1.6C47.5,104.8,46.5,104.5,45.8,104.1z
				 M45.8,97.1v5.1c0.8,0.5,1.7,0.8,2.8,0.8c1.1,0,2-0.3,2.6-1c0.7-0.7,1-1.6,1-2.7c0-1.1-0.3-2-0.9-2.6c-0.6-0.7-1.4-1-2.5-1
				C47.6,95.7,46.6,96.2,45.8,97.1z"/>
			<path class="st4" d="M57.6,103.2c-1-1-1.5-2.3-1.5-3.9c0-1.6,0.5-2.9,1.5-3.9c1-1,2.3-1.5,4-1.5c1.6,0,3,0.5,4,1.5
				c1,1,1.5,2.3,1.5,3.9c0,1.6-0.5,2.9-1.5,3.9c-1,1-2.4,1.5-4,1.5S58.6,104.3,57.6,103.2z M58,99.4c0,1.1,0.3,2,1,2.6
				c0.7,0.7,1.5,1,2.6,1c1,0,1.9-0.3,2.6-1c0.7-0.7,1-1.6,1-2.7c0-1.1-0.3-2-1-2.6c-0.7-0.7-1.5-1-2.6-1c-1,0-1.9,0.3-2.6,1
				C58.4,97.4,58,98.3,58,99.4z"/>
			<path class="st4" d="M79.4,95v8.8c0,0.4-0.1,0.6-0.4,0.7c-0.3,0.1-0.6,0.1-1,0c-0.3-0.1-0.5-0.4-0.4-0.7V97l-5.6,6.9
				c-0.5,0.6-0.9,0.8-1.3,0.8c-0.3,0-0.5-0.1-0.7-0.3c-0.2-0.2-0.3-0.4-0.3-0.6V95c0-0.4,0.1-0.6,0.4-0.7c0.3-0.1,0.6-0.1,1,0
				c0.3,0.1,0.5,0.4,0.4,0.7v6.9l5.6-6.9c0.5-0.6,0.9-0.9,1.3-0.9c0.3,0,0.5,0.1,0.7,0.3C79.3,94.6,79.4,94.8,79.4,95z"/>
			<path class="st4" d="M87,96v7.8c0,0.4-0.1,0.6-0.4,0.7c-0.3,0.1-0.6,0.1-1,0c-0.3-0.1-0.5-0.4-0.4-0.7V96h-2.9
				c-0.4,0-0.6-0.1-0.7-0.4c-0.1-0.3-0.1-0.6,0-1c0.1-0.3,0.4-0.5,0.7-0.4h7.7c0.4,0,0.6,0.1,0.7,0.4c0.1,0.3,0.1,0.6,0,1
				c-0.1,0.3-0.4,0.5-0.7,0.4H87z"/>
			<path class="st4" d="M101.9,98.7c0,0.3,0,0.4,0,0.5c0,0.2-0.1,0.4-0.3,0.5c-0.2,0.2-0.3,0.2-0.5,0.2h-7.3c0.1,1,0.4,1.7,1.1,2.3
				s1.5,0.8,2.5,0.8c1,0,1.8-0.2,2.5-0.6c0.2-0.1,0.3-0.1,0.5-0.1c0.2,0,0.4,0.1,0.6,0.3c0.1,0.1,0.1,0.2,0.1,0.4
				c0,0.3-0.1,0.5-0.3,0.6c-1.1,0.8-2.3,1.2-3.7,1.2c-1.7,0-3-0.5-4-1.5c-1-1-1.5-2.3-1.5-3.9c0-1.5,0.5-2.8,1.4-3.9
				c1-1,2.3-1.5,3.9-1.5c1.4,0,2.5,0.4,3.4,1.3C101.5,96.2,101.9,97.3,101.9,98.7z M93.7,98.5h6.3c0-0.9-0.3-1.5-0.9-2
				c-0.5-0.5-1.2-0.7-2.1-0.7c-0.9,0-1.7,0.3-2.2,0.8C94.2,97,93.8,97.6,93.7,98.5z"/>
			<path class="st4" d="M112.9,95.1v8.8c0,0.4-0.1,0.6-0.4,0.7s-0.6,0.1-1,0c-0.3-0.1-0.5-0.4-0.4-0.7V96h-3.6l-0.1,1.7
				c-0.1,2.3-0.5,4-1.2,5.2c-0.6,1.2-1.4,1.7-2.3,1.7c-0.3,0-0.5-0.1-0.7-0.2c-0.2-0.2-0.3-0.4-0.3-0.6c0-0.4,0.2-0.7,0.7-0.9
				c0.5-0.2,1-0.7,1.2-1.5c0.3-0.8,0.5-2.1,0.6-4l0.1-2.3c0-0.2,0.1-0.5,0.3-0.6c0.2-0.2,0.4-0.3,0.6-0.3h5.5c0.2,0,0.5,0.1,0.6,0.3
				S112.9,94.8,112.9,95.1z"/>
			<path class="st4" d="M118,95v2.3h1.9c1.4,0,2.4,0.3,3.1,1c0.7,0.6,1,1.5,1,2.6c0,1.1-0.4,2-1.1,2.7s-1.8,1-3.2,1h-2.6
				c-0.2,0-0.5-0.1-0.6-0.3c-0.2-0.2-0.3-0.4-0.3-0.6V95c0-0.4,0.1-0.6,0.4-0.7c0.3-0.1,0.6-0.1,1,0C117.9,94.4,118.1,94.6,118,95z
				 M118,99v3.8h1.5c1.7,0,2.5-0.6,2.5-1.9c0-1.3-0.8-1.9-2.5-1.9H118z"/>
			<path class="st4" d="M133.4,96.3c-0.8-0.4-1.5-0.6-2.3-0.6c-1,0-1.8,0.3-2.5,1c-0.7,0.7-1.1,1.6-1.1,2.6c0,1.1,0.4,2,1.1,2.7
				s1.6,1,2.6,1c0.9,0,1.6-0.2,2.2-0.7c0.2-0.2,0.5-0.3,0.7-0.3c0.2,0,0.4,0.1,0.5,0.2c0.2,0.2,0.3,0.4,0.3,0.6
				c0,0.3-0.1,0.5-0.3,0.6c-1,0.9-2.2,1.3-3.6,1.3c-1.6,0-3-0.5-4-1.5c-1-1-1.5-2.3-1.5-3.9c0-1.5,0.5-2.8,1.5-3.8
				c1-1,2.2-1.6,3.7-1.6c1.3,0,2.4,0.3,3.4,0.8c0.3,0.2,0.5,0.4,0.5,0.8c0,0.2,0,0.3-0.1,0.4c-0.2,0.3-0.4,0.4-0.8,0.4
				C133.7,96.4,133.5,96.4,133.4,96.3z"/>
			<path class="st4" d="M141.5,96v7.8c0,0.4-0.1,0.6-0.4,0.7s-0.6,0.1-1,0c-0.3-0.1-0.5-0.4-0.4-0.7V96h-2.9c-0.4,0-0.6-0.1-0.7-0.4
				c-0.1-0.3-0.1-0.6,0-1c0.1-0.3,0.4-0.5,0.7-0.4h7.7c0.4,0,0.6,0.1,0.7,0.4c0.1,0.3,0.1,0.6,0,1c-0.1,0.3-0.4,0.5-0.7,0.4H141.5z"
				/>
			<path class="st4" d="M155.5,96.8c0,0.6-0.2,1.1-0.6,1.6c-0.4,0.4-0.9,0.7-1.5,0.8c1.6,0.3,2.4,1.1,2.4,2.5c0,2-1.6,3-4.8,3
				c-0.2,0-1.1,0-2.9-0.1c-0.2,0-0.5-0.1-0.6-0.3c-0.2-0.2-0.3-0.4-0.3-0.6v-8.6c0-0.2,0.1-0.5,0.3-0.6c0.2-0.2,0.4-0.3,0.6-0.3
				c1.7,0,2.6-0.1,2.9-0.1C154,94.1,155.5,95,155.5,96.8z M149.1,95.7v3.1h2.3c0.6,0,1.1-0.1,1.5-0.4c0.4-0.3,0.6-0.7,0.6-1.2
				c0-1-0.8-1.5-2.4-1.5C150.7,95.6,150.1,95.6,149.1,95.7z M151.4,99.9h-2.2v3.2c1.1,0,1.8,0.1,2.1,0.1c1.8,0,2.6-0.6,2.6-1.7
				C153.9,100.4,153.1,99.9,151.4,99.9z"/>
		</g>
	</g>
	<path class="st5" d="M71.7,37.7c-17.1,11-26.9,26.3-31,19.9s6.5-20.5,23.6-31.5s34.4-14.7,38.5-8.3C106.9,24.2,88.9,26.7,71.7,37.7
		z"/>
</g>
<g id="B18">
</g>
<g id="B19">
</g>
<g id="B20">
</g>
<g id="B21">
</g>
<g id="B22">
</g>
<g id="B23">
</g>
<g id="B24">
</g>
<g id="B25">
</g>
<g id="B26">
</g>
<g id="B27">
</g>
<g id="B28">
</g>
<g id="B29">
</g>
<g id="B30">
</g>
<g id="B31">
</g>
<g id="B32">
</g>
<g id="B33">
</g>
</svg>
