<?xml version="1.0" encoding="utf-8"?>
<!-- Generator: Adobe Illustrator 17.1.0, SVG Export Plug-In . SVG Version: 6.00 Build 0)  -->
<!DOCTYPE svg PUBLIC "-//W3C//DTD SVG 1.1//EN" "http://www.w3.org/Graphics/SVG/1.1/DTD/svg11.dtd">
<svg version="1.1" xmlns="http://www.w3.org/2000/svg" xmlns:xlink="http://www.w3.org/1999/xlink" x="0px" y="0px"
	 viewBox="0 0 282.2 255" enable-background="new 0 0 282.2 255" xml:space="preserve">
<g id="Sky">
</g>
<g id="Clouds">
</g>
<g id="Button">
</g>
<g id="B_1">
</g>
<g id="B2">
</g>
<g id="B3">
</g>
<g id="B4">
</g>
<g id="B5">
</g>
<g id="B6">
</g>
<g id="B7">
</g>
<g id="B8">
</g>
<g id="B9">
</g>
<g id="B10">
</g>
<g id="B11">
</g>
<g id="B12">
</g>
<g id="B13">
</g>
<g id="B14">
</g>
<g id="B15">
</g>
<g id="Head">
</g>
<g id="B16">
</g>
<g id="B17">
</g>
<g id="B18">
</g>
<g id="B19">
</g>
<g id="B20">
</g>
<g id="B21">
</g>
<g id="B22">
</g>
<g id="B23">
</g>
<g id="B24">
</g>
<g id="B25">
</g>
<g id="B26">
</g>
<g id="B27">
</g>
<g id="B28">
</g>
<g id="B29">
</g>
<g id="B30">
</g>
<g id="B31">
</g>
<g id="B32">
	<path fill="#75AEB9" d="M219.4,212.1c-42.5,35.7-134.9,54.5-170.6,12S47.7,93.8,90.2,58.1S196.1,28,231.8,70.5
		S261.9,176.4,219.4,212.1z"/>
	<polygon fill="#4E9DA3" points="54,219.7 26.8,223.5 45.6,245.8 	"/>
	<path fill="#4E9DA3" d="M219.4,212.1c38.7-32.5,46.8-88,20.9-129.7l0,0c0,0,48.2,145.9-160.4,161.5
		C123.2,257.3,186.4,239.8,219.4,212.1z"/>
	<path fill="#91BEC7" d="M113.9,75.3c-22.3,14.3-35.1,34.2-40.4,25.9s8.4-26.7,30.7-41s44.7-19.1,50.1-10.8
		C159.6,57.8,136.2,61,113.9,75.3z"/>
	<g>
		<rect x="41.1" y="145" fill="none" width="208" height="30.9"/>
		<text transform="matrix(1 0 0 1 41.0884 161.0974)" fill="#252835" font-family="'CirceRounded-Regular'" font-size="23">Программирование</text>
	</g>
</g>
<g id="B33">
</g>
</svg>
