<?xml version="1.0" encoding="utf-8"?>
<!-- Generator: Adobe Illustrator 17.1.0, SVG Export Plug-In . SVG Version: 6.00 Build 0)  -->
<!DOCTYPE svg PUBLIC "-//W3C//DTD SVG 1.1//EN" "http://www.w3.org/Graphics/SVG/1.1/DTD/svg11.dtd">
<svg version="1.1" xmlns="http://www.w3.org/2000/svg" xmlns:xlink="http://www.w3.org/1999/xlink" x="0px" y="0px"
	 viewBox="0 0 297 214.8" enable-background="new 0 0 297 214.8" xml:space="preserve">
<g id="Sky">
</g>
<g id="Cluds">
</g>
<g id="Button">
</g>
<g id="Bubble1">
</g>
<g id="Bubble2">
</g>
<g id="B1">
	<g>
		<path fill="#FFDF57" d="M218,141.5c-24.8,31.3-87.1,57.9-118.3,33.1S80,83.1,104.8,51.8S175,15.3,206.2,40S242.7,110.2,218,141.5z
			"/>
		<polygon fill="#E9CA25" points="102.7,170.7 84.1,177.4 100.5,190.3 		"/>
		<path fill="#F9E698" d="M135.6,57.6c-19.3,11-30.2,28.2-34.9,19.8s7-24.1,26.3-35s38.8-13,43.6-4.7
			C175.3,46.1,154.9,46.6,135.6,57.6z"/>
		<path fill="#E9CA25" d="M121.6,183.6c134.9-27.4,94.2-134.4,94.2-134.4s38.7,42,2.2,92.3S121.6,183.6,121.6,183.6z"/>
	</g>
	<g>
		<rect x="82.1" y="101.2" fill="none" width="146.8" height="30.9"/>
		<text transform="matrix(1 0 0 1 82.0848 117.2776)" fill="#313547" font-family="'CirceRounded-Regular'" font-size="23"> Гуманитарная</text>
	</g>
</g>
<g id="B2">
</g>
<g id="B3">
</g>
</svg>
