<?xml version="1.0" encoding="utf-8"?>
<!-- Generator: Adobe Illustrator 17.1.0, SVG Export Plug-In . SVG Version: 6.00 Build 0)  -->
<!DOCTYPE svg PUBLIC "-//W3C//DTD SVG 1.1//EN" "http://www.w3.org/Graphics/SVG/1.1/DTD/svg11.dtd">
<svg version="1.1" xmlns="http://www.w3.org/2000/svg" xmlns:xlink="http://www.w3.org/1999/xlink" x="0px" y="0px"
	 viewBox="0 0 264 195.9" enable-background="new 0 0 264 195.9" xml:space="preserve">
<g id="Sky">
</g>
<g id="Clouds">
</g>
<g id="Button">
</g>
<g id="B_1">
</g>
<g id="B2">
</g>
<g id="B3">
</g>
<g id="B4">
</g>
<g id="B5">
</g>
<g id="B6">
</g>
<g id="B7">
</g>
<g id="B8">
</g>
<g id="B9">
</g>
<g id="B10">
</g>
<g id="B11">
</g>
<g id="B12">
</g>
<g id="B13">
</g>
<g id="B14">
</g>
<g id="B15">
</g>
<g id="Head">
</g>
<g id="B16">
</g>
<g id="B17">
</g>
<g id="B18">
</g>
<g id="B19">
</g>
<g id="B20">
</g>
<g id="B21">
</g>
<g id="B22">
</g>
<g id="B23">
</g>
<g id="B24">
</g>
<g id="B25">
</g>
<g id="B26">
	<path fill="#FFDF57" d="M177.9,123.4c-19.6,22.9-67.3,41.2-90.2,21.6s-12.2-69.6,7.4-92.4s54-25.6,76.8-6S197.5,100.6,177.9,123.4z
		"/>
	<polygon fill="#E9CA25" points="90.1,142.2 75.9,146.7 87.9,157 	"/>
	<path fill="#E9CA25" d="M177.9,123.4c17.8-20.8,17.2-51.2-0.4-71.3l0,0c0,0,38.8,73.7-71.4,100.7
		C130.5,156.2,162.7,141.2,177.9,123.4z"/>
	<path fill="#F9E698" d="M115.6,53.8c-12,6.8-19,17.1-21.8,12.4c-2.7-4.8,4.8-14.2,16.9-21s24-8.5,26.7-3.7S127.6,47,115.6,53.8z"/>
	<g>
		<rect x="77.8" y="69.7" fill="none" width="105.4" height="87.2"/>
		<text transform="matrix(1 0 0 1 103.88 85.7534)"><tspan x="0" y="0" fill="#252835" font-family="'CirceRounded-Regular'" font-size="23">Кино</tspan><tspan x="-3" y="27.6" fill="#252835" font-family="'CirceRounded-Regular'" font-size="23">Театр</tspan></text>
	</g>
</g>
<g id="B27">
</g>
<g id="B28">
</g>
<g id="B29">
</g>
<g id="B30">
</g>
<g id="B31">
</g>
<g id="B32">
</g>
<g id="B33">
</g>
</svg>
