<?xml version="1.0" encoding="utf-8"?>
<!-- Generator: Adobe Illustrator 17.1.0, SVG Export Plug-In . SVG Version: 6.00 Build 0)  -->
<!DOCTYPE svg PUBLIC "-//W3C//DTD SVG 1.1//EN" "http://www.w3.org/Graphics/SVG/1.1/DTD/svg11.dtd">
<svg version="1.1" xmlns="http://www.w3.org/2000/svg" xmlns:xlink="http://www.w3.org/1999/xlink" x="0px" y="0px"
	 viewBox="0 0 252 206.3" enable-background="new 0 0 252 206.3" xml:space="preserve">
<g id="Sky">
</g>
<g id="Clouds">
</g>
<g id="Button">
</g>
<g id="B_1">
</g>
<g id="B2">
</g>
<g id="B3">
</g>
<g id="B4">
</g>
<g id="B5">
</g>
<g id="B6">
</g>
<g id="B7">
</g>
<g id="B8">
</g>
<g id="B9">
</g>
<g id="B10">
</g>
<g id="B11">
</g>
<g id="B12">
</g>
<g id="B13">
</g>
<g id="B14">
</g>
<g id="B15">
</g>
<g id="Head">
</g>
<g id="B16">
</g>
<g id="B17">
</g>
<g id="B18">
</g>
<g id="B19">
</g>
<g id="B20">
</g>
<g id="B21">
</g>
<g id="B22">
</g>
<g id="B23">
</g>
<g id="B24">
</g>
<g id="B25">
</g>
<g id="B26">
</g>
<g id="B27">
</g>
<g id="B28">
</g>
<g id="B29">
</g>
<g id="B30">
</g>
<g id="B31">
	<path fill="#A7A6F6" d="M186.1,142.5c-26.4,30.9-90.8,55.5-121.7,29.1S47.9,77.7,74.3,46.9s72.8-34.5,103.7-8.1
		S212.5,111.6,186.1,142.5z"/>
	<polygon fill="#A099E9" points="67.6,167.8 48.4,173.9 64.6,187.7 	"/>
	<path fill="#A099E9" d="M186.1,142.5c24-28.1,23.2-69.1-0.5-96.2l0,0c0,0,52.4,99.5-96.4,135.8
		C122.1,186.7,165.6,166.5,186.1,142.5z"/>
	<path fill="#BEBEFC" d="M101.9,48.6c-16.2,9.2-25.7,23.1-29.4,16.7s6.5-19.1,22.7-28.4s32.3-11.4,36-5
		C135,38.3,118.1,39.4,101.9,48.6z"/>
	<g>
		<rect x="56.7" y="74.5" fill="none" width="129.4" height="73.8"/>
		<text transform="matrix(1 0 0 1 79.1061 90.6167)"><tspan x="0" y="0" fill="#252835" font-family="'CirceRounded-Regular'" font-size="23">Реклама</tspan><tspan x="-13.4" y="27.6" fill="#252835" font-family="'CirceRounded-Regular'" font-size="23">Маркетинг</tspan></text>
	</g>
</g>
<g id="B32">
</g>
<g id="B33">
</g>
</svg>
