<?xml version="1.0" encoding="utf-8"?>
<!-- Generator: Adobe Illustrator 22.1.0, SVG Export Plug-In . SVG Version: 6.00 Build 0)  -->
<svg version="1.1" id="Слой_1" xmlns="http://www.w3.org/2000/svg" xmlns:xlink="http://www.w3.org/1999/xlink" x="0px" y="0px"
	 viewBox="0 0 135 142" style="enable-background:new 0 0 135 142;" xml:space="preserve">
<style type="text/css">
	.st0{fill:#96CD7C;}
	.st1{fill:#84CB66;}
	.st2{fill:none;}
	.st3{enable-background:new    ;}
	.st4{fill:#252835;}
	.st5{fill:#ABD796;}
</style>
<g id="Sky">
</g>
<g id="Clouds">
</g>
<g id="Button">
</g>
<g id="B_1">
</g>
<g id="B2">
</g>
<g id="B3">
</g>
<g id="B4">
</g>
<g id="B5">
</g>
<g id="B6">
</g>
<g id="B7">
</g>
<g id="B8">
</g>
<g id="B9">
</g>
<g id="B10">
</g>
<g id="B11">
</g>
<g id="B12">
</g>
<g id="B13">
</g>
<g id="B14">
	<path class="st0" d="M113,111.3c-23,21.6-74.7,35.2-96.3,12.2S12,49.7,34.9,28.1S94,7.7,115.5,30.6S136,89.7,113,111.3z"/>
	<polygon class="st1" points="19.5,120.8 4.2,123.9 15.6,135.9 	"/>
	<path class="st1" d="M113,111.3c20.9-19.7,23.7-51.4,7.7-74.2l0,0c0,0,32,81.1-85.8,96.6C59.9,140,95.2,128,113,111.3z"/>
	<g>
		<rect x="18.5" y="65.7" class="st2" width="105.4" height="25.6"/>
		<g class="st3">
			<path class="st4" d="M34.8,66.4v0.7c2.4,0,4.3,0.6,5.6,1.7c1.4,1.1,2.1,2.7,2.1,4.6c0,2-0.7,3.5-2.1,4.7
				c-1.4,1.1-3.3,1.7-5.6,1.7V81c0,0.2-0.1,0.5-0.3,0.7S34.1,82,33.8,82c-0.3,0-0.5-0.1-0.7-0.3c-0.2-0.2-0.3-0.4-0.3-0.7v-1.2
				c-2.3,0-4.2-0.6-5.6-1.7c-1.4-1.1-2.1-2.7-2.1-4.7c0-2,0.7-3.5,2.1-4.7c1.4-1.1,3.2-1.6,5.6-1.7v-0.7c0-0.3,0.1-0.5,0.3-0.7
				c0.2-0.2,0.4-0.3,0.7-0.3c0.3,0,0.5,0.1,0.7,0.3C34.7,66,34.8,66.2,34.8,66.4z M32.8,78.1V69c-1.7,0-3.1,0.4-4.1,1.2
				c-1,0.8-1.5,1.9-1.5,3.3c0,1.5,0.5,2.6,1.5,3.4C29.7,77.7,31.1,78.1,32.8,78.1z M34.8,69v9.1c1.8,0,3.2-0.4,4.2-1.2
				c1-0.8,1.5-1.9,1.5-3.4c0-1.4-0.5-2.5-1.5-3.3C37.9,69.4,36.6,69,34.8,69z"/>
			<path class="st4" d="M54.7,72.3v8.8c0,0.4-0.1,0.6-0.4,0.7c-0.3,0.1-0.6,0.1-1,0c-0.3-0.1-0.5-0.4-0.4-0.7v-6.8l-5.6,6.9
				c-0.5,0.6-0.9,0.8-1.3,0.8c-0.3,0-0.5-0.1-0.7-0.3c-0.2-0.2-0.3-0.4-0.3-0.6v-8.8c0-0.4,0.1-0.6,0.4-0.7c0.3-0.1,0.6-0.1,1,0
				c0.3,0.1,0.5,0.4,0.4,0.7v6.9l5.6-6.9c0.5-0.6,0.9-0.9,1.3-0.9c0.3,0,0.5,0.1,0.7,0.3C54.6,71.8,54.7,72,54.7,72.3z"/>
			<path class="st4" d="M67.5,72.2v8.9c0,0.4-0.1,0.6-0.4,0.7c-0.3,0.1-0.6,0.1-1,0c-0.3-0.1-0.5-0.4-0.4-0.7v-3.7h-5.8v3.7
				c0,0.4-0.1,0.6-0.4,0.7c-0.3,0.1-0.6,0.1-1,0c-0.3-0.1-0.5-0.4-0.4-0.7v-8.9c0-0.4,0.1-0.6,0.4-0.7c0.3-0.1,0.6-0.1,1,0
				c0.3,0.1,0.5,0.4,0.4,0.7v3.5h5.8v-3.5c0-0.4,0.1-0.6,0.4-0.7c0.3-0.1,0.6-0.1,1,0C67.3,71.6,67.5,71.8,67.5,72.2z"/>
			<path class="st4" d="M70,78.8c0-1,0.4-1.8,1.1-2.4c0.7-0.6,1.7-0.9,2.8-0.9c1.1,0,1.9,0.2,2.6,0.7c0-1.2-0.2-2-0.5-2.5
				c-0.3-0.5-0.9-0.8-1.9-0.8c-0.7,0-1.4,0.1-2.1,0.4c-0.1,0-0.2,0.1-0.3,0.1c-0.3,0-0.6-0.2-0.7-0.5c0-0.1-0.1-0.2-0.1-0.3
				c0-0.4,0.2-0.6,0.5-0.7c1-0.4,1.9-0.6,2.9-0.6c1.4,0,2.4,0.3,3,1c0.6,0.7,0.9,1.8,0.9,3.2v5.7c0,0.2-0.1,0.4-0.3,0.6
				c-0.2,0.2-0.4,0.2-0.6,0.2s-0.5-0.1-0.6-0.2c-0.2-0.2-0.3-0.3-0.3-0.6v-0.7c-0.8,1-1.9,1.5-3.3,1.5c-1,0-1.7-0.3-2.3-0.9
				C70.3,80.5,70,79.7,70,78.8z M76.5,79v-1.3c-0.6-0.5-1.4-0.7-2.3-0.7c-0.6,0-1.2,0.1-1.6,0.4c-0.4,0.3-0.6,0.7-0.6,1.3
				c0,0.5,0.2,0.9,0.5,1.2c0.3,0.3,0.8,0.4,1.4,0.4C74.9,80.3,75.8,79.8,76.5,79z"/>
			<path class="st4" d="M90.8,72.2v8.9c0,0.4-0.1,0.6-0.4,0.7s-0.6,0.1-1,0c-0.3-0.1-0.5-0.4-0.4-0.7v-3.7h-5.8v3.7
				c0,0.4-0.1,0.6-0.4,0.7c-0.3,0.1-0.6,0.1-1,0c-0.3-0.1-0.5-0.4-0.4-0.7v-8.9c0-0.4,0.1-0.6,0.4-0.7c0.3-0.1,0.6-0.1,1,0
				c0.3,0.1,0.5,0.4,0.4,0.7v3.5h5.8v-3.5c0-0.4,0.1-0.6,0.4-0.7c0.3-0.1,0.6-0.1,1,0C90.7,71.6,90.8,71.8,90.8,72.2z"/>
			<path class="st4" d="M101.2,73.5c-0.8-0.4-1.5-0.6-2.3-0.6c-1,0-1.8,0.3-2.5,1c-0.7,0.7-1.1,1.6-1.1,2.6c0,1.1,0.4,2,1.1,2.7
				s1.6,1,2.6,1c0.9,0,1.6-0.2,2.2-0.7c0.2-0.2,0.5-0.3,0.7-0.3c0.2,0,0.4,0.1,0.5,0.2c0.2,0.2,0.3,0.4,0.3,0.6
				c0,0.3-0.1,0.5-0.3,0.6c-1,0.9-2.2,1.3-3.6,1.3c-1.6,0-3-0.5-4-1.5c-1-1-1.5-2.3-1.5-3.9c0-1.5,0.5-2.8,1.5-3.8s2.2-1.6,3.7-1.6
				c1.3,0,2.4,0.3,3.4,0.8c0.3,0.2,0.5,0.4,0.5,0.8c0,0.2,0,0.3-0.1,0.4c-0.2,0.3-0.4,0.4-0.8,0.4C101.4,73.6,101.3,73.6,101.2,73.5
				z"/>
			<path class="st4" d="M106.9,72.2v2.3h1.7c1.4,0,2.4,0.3,3.1,1c0.7,0.6,1,1.5,1,2.6c0,1.1-0.4,2-1.1,2.7c-0.7,0.7-1.8,1-3.2,1
				h-2.5c-0.2,0-0.5-0.1-0.6-0.3c-0.2-0.2-0.3-0.4-0.3-0.6v-8.7c0-0.4,0.1-0.6,0.4-0.7c0.3-0.1,0.6-0.1,1,0
				C106.8,71.6,106.9,71.8,106.9,72.2z M106.9,76.3v3.8h1.3c0.9,0,1.5-0.2,1.9-0.5c0.4-0.3,0.6-0.8,0.6-1.4c0-1.3-0.8-1.9-2.5-1.9
				H106.9z M116.5,72.2v8.9c0,0.4-0.1,0.6-0.4,0.7s-0.6,0.1-1,0c-0.3-0.1-0.5-0.4-0.4-0.7v-8.9c0-0.4,0.1-0.6,0.4-0.7
				c0.3-0.1,0.6-0.1,1,0C116.4,71.6,116.6,71.8,116.5,72.2z"/>
		</g>
	</g>
	<path class="st5" d="M56.1,38C41.5,46.3,33,58.8,29.7,53c-3.3-5.8,5.9-17.2,20.5-25.5S79.3,17.2,82.6,23S70.7,29.7,56.1,38z"/>
</g>
<g id="B15">
</g>
<g id="Head">
</g>
<g id="B16">
</g>
<g id="B17">
</g>
<g id="B18">
</g>
<g id="B19">
</g>
<g id="B20">
</g>
<g id="B21">
</g>
<g id="B22">
</g>
<g id="B23">
</g>
<g id="B24">
</g>
<g id="B25">
</g>
<g id="B26">
</g>
<g id="B27">
</g>
<g id="B28">
</g>
<g id="B29">
</g>
<g id="B30">
</g>
<g id="B31">
</g>
<g id="B32">
</g>
<g id="B33">
</g>
</svg>
