<?xml version="1.0" encoding="utf-8"?>
<!-- Generator: Adobe Illustrator 22.1.0, SVG Export Plug-In . SVG Version: 6.00 Build 0)  -->
<svg version="1.1" id="Слой_1" xmlns="http://www.w3.org/2000/svg" xmlns:xlink="http://www.w3.org/1999/xlink" x="0px" y="0px"
	 viewBox="0 0 124 130" style="enable-background:new 0 0 124 130;" xml:space="preserve">
<style type="text/css">
	.st0{fill:#FFDF57;}
	.st1{fill:#E9CA25;}
	.st2{fill:#F9E698;}
	.st3{fill:none;}
	.st4{enable-background:new    ;}
	.st5{fill:#252835;}
</style>
<g id="Sky">
</g>
<g id="Clouds">
</g>
<g id="Button">
</g>
<g id="B_1">
</g>
<g id="B2">
</g>
<g id="B3">
</g>
<g id="B4">
</g>
<g id="B5">
</g>
<g id="B6">
</g>
<g id="B7">
</g>
<g id="B8">
</g>
<g id="B9">
</g>
<g id="B10">
</g>
<g id="B11">
</g>
<g id="B12">
</g>
<g id="B13">
</g>
<g id="B14">
</g>
<g id="B15">
</g>
<g id="Head">
</g>
<g id="B16">
</g>
<g id="B17">
</g>
<g id="B18">
</g>
<g id="B19">
</g>
<g id="B20">
</g>
<g id="B21">
</g>
<g id="B22">
</g>
<g id="B23">
</g>
<g id="B24">
</g>
<g id="B25">
</g>
<g id="B26">
	<path class="st0" d="M107.9,96.4c-19.6,22.9-67.3,41.2-90.2,21.6S5.5,48.4,25.1,25.6s54-25.6,76.8-6S127.5,73.6,107.9,96.4z"/>
	<polygon class="st1" points="20.1,115.2 5.9,119.7 17.9,130 	"/>
	<path class="st1" d="M107.9,96.4c17.8-20.8,17.2-51.2-0.4-71.3l0,0c0,0,38.8,73.7-71.4,100.7C60.5,129.2,92.7,114.2,107.9,96.4z"/>
	<path class="st2" d="M45.6,26.8c-12,6.8-19,17.1-21.8,12.4c-2.7-4.8,4.8-14.2,16.9-21s24-8.5,26.7-3.7S57.6,20,45.6,26.8z"/>
	<g>
		<rect x="7.8" y="42.7" class="st3" width="105.4" height="87.2"/>
		<g class="st4">
			<path class="st5" d="M36.3,57.9V43.5c0-0.3,0.1-0.5,0.3-0.7c0.2-0.2,0.4-0.3,0.7-0.3c0.3,0,0.5,0.1,0.7,0.3
				c0.2,0.2,0.3,0.4,0.3,0.7v14.5c0,0.3-0.1,0.5-0.3,0.7c-0.2,0.2-0.4,0.3-0.7,0.3c-0.3,0-0.5-0.1-0.7-0.3
				C36.4,58.4,36.3,58.2,36.3,57.9z M45.6,58.4l-6.3-7.3c-0.2-0.2-0.3-0.4-0.3-0.7c0-0.3,0.1-0.5,0.3-0.7l6-6.6
				c0.3-0.3,0.6-0.5,0.9-0.5c0.2,0,0.4,0.1,0.6,0.2c0.2,0.2,0.2,0.3,0.2,0.6c0,0.3-0.1,0.5-0.3,0.8l-5.8,6.1l6.2,7
				c0.2,0.2,0.3,0.5,0.3,0.8c0,0.2-0.1,0.4-0.3,0.6c-0.2,0.2-0.4,0.2-0.6,0.2C46.2,58.9,45.9,58.7,45.6,58.4z"/>
			<path class="st5" d="M59.8,49.2V58c0,0.4-0.1,0.6-0.4,0.7c-0.3,0.1-0.6,0.1-1,0c-0.3-0.1-0.5-0.4-0.4-0.7v-6.8l-5.6,6.9
				c-0.5,0.6-0.9,0.8-1.3,0.8c-0.3,0-0.5-0.1-0.7-0.3c-0.2-0.2-0.3-0.4-0.3-0.6v-8.8c0-0.4,0.1-0.6,0.4-0.7c0.3-0.1,0.6-0.1,1,0
				c0.3,0.1,0.5,0.4,0.4,0.7V56l5.6-6.9c0.5-0.6,0.9-0.9,1.3-0.9c0.3,0,0.5,0.1,0.7,0.3C59.7,48.8,59.8,49,59.8,49.2z"/>
			<path class="st5" d="M72.5,49.2V58c0,0.4-0.1,0.6-0.4,0.7c-0.3,0.1-0.6,0.1-1,0s-0.5-0.4-0.4-0.7v-3.7H65V58
				c0,0.4-0.1,0.6-0.4,0.7s-0.6,0.1-1,0s-0.5-0.4-0.4-0.7v-8.9c0-0.4,0.1-0.6,0.4-0.7c0.3-0.1,0.6-0.1,1,0c0.3,0.1,0.5,0.4,0.4,0.7
				v3.5h5.8v-3.5c0-0.4,0.1-0.6,0.4-0.7c0.3-0.1,0.6-0.1,1,0C72.4,48.6,72.6,48.8,72.5,49.2z"/>
			<path class="st5" d="M76.7,57.4c-1-1-1.5-2.3-1.5-3.9c0-1.6,0.5-2.9,1.5-3.9c1-1,2.3-1.5,4-1.5c1.6,0,3,0.5,4,1.5
				c1,1,1.5,2.3,1.5,3.9c0,1.6-0.5,2.9-1.5,3.9c-1,1-2.4,1.5-4,1.5S77.7,58.5,76.7,57.4z M77.1,53.6c0,1.1,0.3,2,1,2.6
				c0.7,0.7,1.5,1,2.6,1c1,0,1.9-0.3,2.6-1c0.7-0.7,1-1.6,1-2.7c0-1.1-0.3-2-1-2.6c-0.7-0.7-1.5-1-2.6-1c-1,0-1.9,0.3-2.6,1
				C77.5,51.6,77.1,52.5,77.1,53.6z"/>
		</g>
		<g class="st4">
			<path class="st5" d="M43.4,72.1h-4.7v13.5c0,0.3-0.1,0.5-0.3,0.7c-0.2,0.2-0.4,0.3-0.7,0.3c-0.3,0-0.5-0.1-0.7-0.3
				c-0.2-0.2-0.3-0.4-0.3-0.7V72.1H32c-0.2,0-0.5-0.1-0.6-0.3c-0.2-0.2-0.3-0.4-0.3-0.6s0.1-0.5,0.3-0.6c0.2-0.2,0.4-0.3,0.6-0.3
				h11.4c0.2,0,0.5,0.1,0.6,0.3c0.2,0.2,0.3,0.4,0.3,0.6s-0.1,0.5-0.3,0.6C43.9,72,43.7,72.1,43.4,72.1z"/>
			<path class="st5" d="M52.6,80.5c0,0.3,0,0.4,0,0.5c0,0.2-0.1,0.4-0.3,0.5c-0.2,0.2-0.3,0.2-0.5,0.2h-7.3c0.1,1,0.4,1.7,1.1,2.3
				s1.5,0.8,2.5,0.8c1,0,1.8-0.2,2.5-0.6c0.2-0.1,0.3-0.1,0.5-0.1c0.2,0,0.4,0.1,0.6,0.3c0.1,0.1,0.1,0.2,0.1,0.4
				c0,0.3-0.1,0.5-0.3,0.6c-1.1,0.8-2.3,1.2-3.7,1.2c-1.7,0-3-0.5-4-1.5c-1-1-1.5-2.3-1.5-3.9c0-1.5,0.5-2.8,1.4-3.9
				c1-1,2.3-1.5,3.9-1.5c1.4,0,2.5,0.4,3.4,1.3C52.2,78,52.6,79.1,52.6,80.5z M44.4,80.3h6.3c0-0.9-0.3-1.5-0.9-2
				c-0.5-0.5-1.2-0.7-2.1-0.7c-0.9,0-1.7,0.3-2.2,0.8S44.6,79.4,44.4,80.3z"/>
			<path class="st5" d="M54.5,83.3c0-1,0.4-1.8,1.1-2.4c0.7-0.6,1.7-0.9,2.8-0.9c1.1,0,1.9,0.2,2.6,0.7c0-1.2-0.2-2-0.5-2.5
				c-0.3-0.5-0.9-0.8-1.9-0.8c-0.7,0-1.4,0.1-2.1,0.4c-0.1,0-0.2,0.1-0.3,0.1c-0.3,0-0.6-0.2-0.7-0.5c0-0.1-0.1-0.2-0.1-0.3
				c0-0.4,0.2-0.6,0.5-0.7c1-0.4,1.9-0.6,2.9-0.6c1.4,0,2.4,0.3,3,1c0.6,0.7,0.9,1.8,0.9,3.2v5.7c0,0.2-0.1,0.4-0.3,0.6
				c-0.2,0.2-0.4,0.2-0.6,0.2s-0.5-0.1-0.6-0.2c-0.2-0.2-0.3-0.3-0.3-0.6V85c-0.8,1-1.9,1.5-3.3,1.5c-1,0-1.7-0.3-2.3-0.9
				C54.8,85.1,54.5,84.3,54.5,83.3z M61,83.5v-1.3c-0.6-0.5-1.4-0.7-2.3-0.7c-0.6,0-1.2,0.1-1.6,0.4c-0.4,0.3-0.6,0.7-0.6,1.3
				c0,0.5,0.2,0.9,0.5,1.2c0.3,0.3,0.8,0.4,1.4,0.4C59.4,84.9,60.3,84.4,61,83.5z"/>
			<path class="st5" d="M70.2,77.8v7.8c0,0.4-0.1,0.6-0.4,0.7c-0.3,0.1-0.6,0.1-1,0s-0.5-0.4-0.4-0.7v-7.8h-2.9
				c-0.4,0-0.6-0.1-0.7-0.4c-0.1-0.3-0.1-0.6,0-1S65,76,65.4,76h7.7c0.4,0,0.6,0.1,0.7,0.4s0.1,0.6,0,1c-0.1,0.3-0.4,0.5-0.7,0.4
				H70.2z"/>
			<path class="st5" d="M77.8,85.9v4.2c0,0.4-0.1,0.6-0.4,0.7c-0.3,0.1-0.6,0.1-1,0c-0.3-0.1-0.5-0.4-0.4-0.7V76.8
				c0-0.4,0.1-0.6,0.4-0.7c0.3-0.1,0.6-0.1,1,0c0.3,0.1,0.5,0.4,0.4,0.7v0.5c0.4-0.4,0.9-0.8,1.5-1c0.6-0.3,1.3-0.4,2-0.4
				c1.5,0,2.6,0.5,3.5,1.4c0.9,1,1.3,2.3,1.3,3.8c0,1.6-0.5,2.9-1.5,4c-1,1.1-2.3,1.6-3.9,1.6C79.5,86.6,78.5,86.3,77.8,85.9z
				 M77.8,78.9v5.1c0.8,0.5,1.7,0.8,2.8,0.8c1.1,0,2-0.3,2.6-1c0.7-0.7,1-1.6,1-2.7c0-1.1-0.3-2-0.9-2.6c-0.6-0.7-1.4-1-2.5-1
				C79.6,77.5,78.6,78,77.8,78.9z"/>
		</g>
	</g>
</g>
<g id="B27">
</g>
<g id="B28">
</g>
<g id="B29">
</g>
<g id="B30">
</g>
<g id="B31">
</g>
<g id="B32">
</g>
<g id="B33">
</g>
</svg>
