<?xml version="1.0" encoding="utf-8"?>
<!-- Generator: Adobe Illustrator 17.1.0, SVG Export Plug-In . SVG Version: 6.00 Build 0)  -->
<!DOCTYPE svg PUBLIC "-//W3C//DTD SVG 1.1//EN" "http://www.w3.org/Graphics/SVG/1.1/DTD/svg11.dtd">
<svg version="1.1" xmlns="http://www.w3.org/2000/svg" xmlns:xlink="http://www.w3.org/1999/xlink" x="0px" y="0px"
	 viewBox="0 0 249 189" enable-background="new 0 0 249 189" xml:space="preserve">
<g id="Sky">
</g>
<g id="Clouds">
</g>
<g id="Button">
</g>
<g id="B_1">
</g>
<g id="B2">
</g>
<g id="B3">
</g>
<g id="B4">
	<path fill="#A7A6F6" d="M167.7,120.4c-17,22.3-60.6,41.8-82.9,24.8s-15-64.2,2-86.5s48.9-26.6,71.3-9.6S184.8,98.1,167.7,120.4z"/>
	<polygon fill="#A099E9" points="86.9,142.5 73.9,147.4 85.6,156.3 	"/>
	<path fill="#A099E9" d="M167.7,120.4c15.5-20.3,13.3-48.6-4-66.4l0,0c0,0,40,66.7-61.3,97.5C125.2,153.4,154.5,137.7,167.7,120.4z"
		/>
	<g>
		<rect x="76.7" y="88.4" fill="none" width="98" height="30.9"/>
		<text transform="matrix(1 0 0 1 76.7489 104.5321)" fill="#252835" font-family="'CirceRounded-Regular'" font-size="23">Растения</text>
	</g>
	<path fill="#BEBEFC" d="M118.1,57.4C103,61.3,92.4,71,90.7,64.5s9.2-15.1,24.3-19s28.8-1.8,30.5,4.8
		C147.2,56.9,133.2,53.5,118.1,57.4z"/>
</g>
<g id="B5">
</g>
<g id="B6">
</g>
<g id="B7">
</g>
<g id="B8">
</g>
<g id="B9">
</g>
<g id="B10">
</g>
<g id="B11">
</g>
<g id="B12">
</g>
<g id="B13">
</g>
<g id="B14">
</g>
<g id="B15">
</g>
<g id="Head">
</g>
<g id="B16">
</g>
<g id="B17">
</g>
<g id="B18">
</g>
<g id="B19">
</g>
<g id="B20">
</g>
<g id="B21">
</g>
<g id="B22">
</g>
<g id="B23">
</g>
<g id="B24">
</g>
<g id="B25">
</g>
<g id="B26">
</g>
<g id="B27">
</g>
<g id="B28">
</g>
<g id="B29">
</g>
<g id="B30">
</g>
<g id="B31">
</g>
<g id="B32">
</g>
<g id="B33">
</g>
</svg>
